<svg xmlns="http://www.w3.org/2000/svg" xmlns:xlink="http://www.w3.org/1999/xlink" width="500" zoomAndPan="magnify" viewBox="0 0 375 374.999991" height="500" preserveAspectRatio="xMidYMid meet" version="1.0"><defs><clipPath id="8a6e8e1753"><path d="M 46.675781 46 L 325 46 L 325 330.460938 L 46.675781 330.460938 Z M 46.675781 46 " clip-rule="nonzero"/></clipPath></defs><path stroke-linecap="butt" transform="matrix(0.67271, 0, 0, 0.672285, 9.743782, 21.633707)" fill-opacity="1" fill="#f5d7c4" fill-rule="nonzero" stroke-linejoin="miter" d="M 69.661066 400.41721 C 70.868867 378.389949 76.617538 356.618346 86.448345 336.857144 C 88.039392 333.661419 89.897548 330.337865 93.009959 328.577311 C 98.299898 325.57914 105.360891 328.42043 109.071397 333.24888 C 112.770289 338.07733 113.96067 344.317709 115.02911 350.302431 C 125.347683 346.03759 138.041212 348.30946 146.25194 355.868803 C 154.462668 363.428145 151.762534 371.278008 148.359786 381.922678 C 153.161958 377.187194 168.102695 383.729715 171.807394 389.34257 C 175.529513 394.961236 174.641082 402.712322 171.139619 408.458817 C 167.638156 414.211122 161.947553 418.278408 156.117588 421.642635 C 144.64928 428.260691 131.961558 432.769569 118.890591 434.890368 C 115.261379 435.477219 111.330218 435.837465 108.078444 434.111773 C 101.029064 430.358249 101.73168 420.277189 99.147681 412.717846 C 95.280394 401.387549 80.990012 394.937994 69.661066 400.41721 Z M 69.661066 400.41721 " stroke="#000000" stroke-width="1" stroke-opacity="1" stroke-miterlimit="10"/><path fill="#f1c22a" d="M 71.390625 237.234375 C 116.292969 185.363281 161.539062 133.144531 215.351562 90.570312 C 219.132812 87.578125 223.25 84.511719 228.058594 84.117188 C 234.683594 83.570312 240.511719 88.164062 245.5625 92.492188 C 257.4375 102.671875 269.308594 112.84375 281.183594 123.019531 C 285.542969 126.753906 290.332031 131.605469 289.34375 137.253906 C 288.75 140.636719 286.171875 143.277344 283.726562 145.683594 C 234.363281 194.066406 182.933594 240.289062 132.5 287.597656 C 131.566406 288.539062 130.628906 289.472656 129.742188 290.460938 C 129.875 288.699219 130.617188 286.984375 131.8125 285.679688 C 131.160156 286.730469 130.515625 287.785156 129.863281 288.832031 C 125.828125 286.117188 121.789062 283.402344 117.746094 280.679688 C 115.199219 278.964844 112.554688 277.140625 111.109375 274.425781 C 109.488281 271.375 109.4375 267.3125 106.703125 265.210938 " fill-opacity="1" fill-rule="nonzero"/><path fill="#424454" d="M 52.332031 324.0625 C 50.113281 311.914062 51.695312 299.097656 56.804688 287.851562 C 63.0625 290.082031 69.109375 293.554688 73 298.9375 C 76.886719 304.324219 78.207031 311.871094 75.050781 317.714844 " fill-opacity="1" fill-rule="nonzero"/><path stroke-linecap="butt" transform="matrix(0.67271, 0, 0, 0.672285, 9.743782, 21.633707)" fill-opacity="1" fill="#c4d5f5" fill-rule="nonzero" stroke-linejoin="miter" d="M 423.512066 169.430203 C 388.038704 144.561651 358.69145 115.091256 330.732006 82.000975 C 328.809976 79.729105 327.782183 72.512577 329.448717 70.060584 C 330.848141 67.997889 332.741138 77.410752 331.771412 75.10983 C 325.511749 60.159647 357.367514 84.098533 366.031167 94.632805 C 374.689013 105.161266 384.879838 113.73743 393.717693 124.109011 C 401.150318 132.818814 409.918492 140.378157 419.627358 146.438413 C 423.018493 148.559213 426.641898 150.598666 428.941366 153.869927 C 431.240834 157.141187 431.7286 162.109087 423.512066 169.430203 Z M 423.512066 169.430203 " stroke="#000000" stroke-width="1" stroke-opacity="1" stroke-miterlimit="10"/><path fill="#ed7994" d="M 241.25 70.871094 C 259.796875 88.988281 278.34375 107.113281 296.890625 125.234375 C 297.367188 125.695312 297.914062 126.1875 298.570312 126.195312 C 299.222656 126.195312 299.761719 125.71875 300.238281 125.265625 C 307.277344 118.597656 314.546875 111.492188 317.46875 102.253906 C 320.890625 91.421875 317.523438 79.195312 310.53125 70.238281 C 303.542969 61.285156 293.34375 55.28125 282.683594 51.347656 C 276.535156 49.082031 269.792969 47.429688 263.476562 49.175781 C 258.839844 50.460938 254.898438 53.460938 251.234375 56.574219 C 247.195312 60.007812 243.207031 63.878906 241.25 70.871094 Z M 241.25 70.871094 " fill-opacity="1" fill-rule="nonzero"/><g clip-path="url(#8a6e8e1753)"><path fill="#000000" d="M 61.332031 328.96875 C 58.644531 329.4375 56.308594 329.96875 53.953125 330.070312 C 49.320312 330.273438 46.6875 327.578125 46.769531 322.144531 C 46.890625 313.546875 48.042969 305.007812 49.617188 296.578125 C 52.695312 280.019531 57.238281 263.804688 63.015625 247.992188 C 65.496094 241.195312 70 235.320312 74.699219 229.90625 C 81.355469 222.25 87.871094 214.472656 94.625 206.886719 C 107.980469 191.910156 121.742188 177.335938 135.640625 162.878906 C 152.632812 145.214844 170.449219 128.351562 188.460938 111.753906 C 200.726562 100.453125 212.695312 88.753906 226.082031 78.699219 C 227.390625 77.710938 227.101562 76.453125 226.914062 75.074219 C 226.132812 69.371094 229.882812 64.5 235.574219 65.042969 C 240.1875 65.488281 242.414062 63.074219 245.117188 60.378906 C 248.515625 56.988281 251.09375 52.699219 255.484375 50.386719 C 265.933594 44.882812 276.621094 45.734375 287.296875 49.566406 C 296.210938 52.765625 304.484375 57.03125 311.078125 64.128906 C 326.339844 80.578125 328.683594 95.4375 315.375 114.503906 C 313.035156 117.859375 310.332031 120.871094 307.140625 123.519531 C 304.558594 125.664062 302.230469 127.714844 302.386719 132.128906 C 302.574219 137.515625 296.453125 140.332031 290.433594 138.625 C 274.925781 156.15625 256.9375 171.054688 240.167969 187.21875 C 228.507812 198.445312 217.132812 209.972656 205.429688 221.148438 C 187.925781 237.847656 170.824219 254.949219 153.90625 272.226562 C 146.082031 280.214844 137.558594 287.496094 130.636719 296.429688 C 126.613281 301.621094 120.601562 305.070312 114.691406 307.964844 C 105.980469 312.242188 97.046875 316.066406 88.011719 319.679688 C 79.347656 323.125 70.414062 325.679688 61.332031 328.96875 Z M 241.191406 140.890625 C 249.785156 133.03125 258.378906 125.171875 267.324219 116.992188 C 261.753906 111.949219 256.324219 107.035156 250.601562 101.84375 C 196.878906 150.589844 144.21875 199.890625 94.550781 253.847656 C 105.046875 254.183594 109.796875 260.523438 114.007812 267.785156 C 130.3125 250.296875 146.734375 233.738281 163.214844 217.242188 C 188.777344 191.660156 214.058594 165.785156 241.191406 140.890625 Z M 171.726562 167.984375 C 185.3125 155.128906 198.796875 142.167969 212.511719 129.453125 C 223.707031 119.082031 235.164062 108.992188 245.601562 99.59375 C 240.832031 94.261719 236.210938 89.058594 231.53125 83.902344 C 230.152344 82.386719 228.988281 83.101562 227.835938 84.417969 C 219.386719 94.078125 209.734375 102.535156 200.457031 111.355469 C 185.992188 125.113281 171.222656 138.558594 156.898438 152.453125 C 144.011719 164.964844 131.402344 177.777344 118.925781 190.707031 C 104.117188 206.042969 89.609375 221.664062 75.035156 238.21875 C 82.335938 239.992188 87.402344 244.03125 90.820312 250.0625 C 98.757812 241.570312 106.363281 233.328125 114.085938 225.203125 C 132.59375 205.71875 151.855469 186.980469 171.726562 167.984375 Z M 240.925781 175.480469 C 255.53125 162.039062 270.144531 148.59375 285.6875 134.296875 C 281.9375 130.878906 277.878906 127.6875 274.46875 123.914062 C 272.054688 121.246094 270.574219 121.730469 268.347656 123.839844 C 252.230469 139.128906 235.886719 154.1875 219.910156 169.625 C 191.046875 197.515625 163.269531 226.5 135.125 255.105469 C 128.914062 261.417969 122.679688 267.722656 115.898438 274.386719 C 122.785156 276.660156 125.886719 282.386719 129.808594 287.617188 C 165.46875 248.679688 202.535156 211.871094 240.925781 175.480469 Z M 263.1875 84.238281 C 270.835938 91.976562 278.929688 99.277344 286.105469 107.492188 C 289.859375 111.785156 293.722656 115.988281 297.542969 120.222656 C 298.78125 121.597656 300.410156 123.277344 301.828125 120.992188 C 304.160156 117.234375 307.902344 114.886719 310.433594 111.269531 C 320.582031 96.75 318.308594 81.246094 307.34375 68.746094 C 299.34375 59.632812 288.851562 55.058594 277.335938 52.355469 C 270.484375 50.75 263.679688 51.894531 257.988281 55.273438 C 253.367188 58.019531 249.96875 62.84375 246.121094 66.839844 C 245.070312 67.925781 245.058594 69.367188 246.464844 70.300781 C 252.371094 74.226562 257.242188 79.382812 263.1875 84.238281 Z M 100.117188 306.164062 C 106.4375 303.382812 112.769531 300.566406 118.601562 296.859375 C 120.699219 295.527344 124.925781 294.320312 123.136719 290.890625 C 120.445312 285.71875 117.25 280.375 110.011719 280.503906 C 106.945312 280.558594 105.300781 279.070312 105.652344 275.796875 C 105.792969 274.472656 105.738281 273.121094 105.765625 271.785156 C 105.902344 264.664062 99.242188 259.207031 92.398438 261.242188 C 88.820312 262.3125 87.023438 261.242188 85.886719 258.070312 C 85.335938 256.535156 84.816406 254.992188 84.234375 253.472656 C 82.390625 248.65625 75.65625 244.058594 70.992188 244.386719 C 66.675781 257.996094 62.988281 271.757812 59.492188 285.773438 C 73.820312 289.304688 81.730469 298.394531 84.042969 312.417969 C 89.757812 311.382812 94.378906 308.269531 100.117188 306.164062 Z M 234.792969 78.648438 C 242.347656 85.710938 249.734375 92.964844 257.496094 99.785156 C 267.527344 108.605469 277.199219 117.757812 286.171875 127.652344 C 287.820312 129.46875 289.003906 131.792969 291.496094 132.875 C 293.492188 133.75 295.324219 134.03125 296.695312 132.171875 C 298.046875 130.34375 297.449219 128.707031 295.832031 127.089844 C 291.851562 123.09375 288.058594 118.898438 284.140625 114.832031 C 269.464844 99.59375 255.1875 83.933594 238.269531 71.019531 C 236.730469 69.84375 235.902344 69.871094 234.460938 70.796875 C 230.648438 73.277344 232.355469 75.683594 234.792969 78.648438 Z M 61.402344 293.289062 C 59.785156 292.34375 58.476562 291.953125 57.875 294.445312 C 55.804688 303.085938 55.449219 311.941406 54.378906 320.707031 C 54.335938 321.054688 54.734375 321.460938 55.132812 322.226562 C 62.035156 321.535156 68.25 318.347656 74.769531 316.261719 C 76.691406 315.652344 76.367188 313.835938 76.085938 312.476562 C 74.335938 304.011719 70.242188 297.230469 61.402344 293.289062 Z M 61.402344 293.289062 " fill-opacity="1" fill-rule="nonzero"/></g></svg>