<svg xmlns="http://www.w3.org/2000/svg" xmlns:xlink="http://www.w3.org/1999/xlink" width="500" zoomAndPan="magnify" viewBox="0 0 375 374.999991" height="500" preserveAspectRatio="xMidYMid meet" version="1.0"><defs><clipPath id="14c4be4160"><path d="M 62.574219 286 L 89 286 L 89 312.324219 L 62.574219 312.324219 Z M 62.574219 286 " clip-rule="nonzero"/></clipPath></defs><path fill="#ff9800" d="M 119.699219 278.285156 L 96.117188 254.703125 L 245.238281 105.917969 L 268.484375 129.496094 Z M 119.699219 278.285156 " fill-opacity="1" fill-rule="nonzero"/><path fill="#e57373" d="M 264.832031 86.320312 L 288.414062 109.902344 L 309.667969 88.644531 C 312.324219 85.988281 312.324219 82.003906 309.667969 79.347656 L 295.71875 65.398438 C 293.0625 62.742188 289.078125 62.742188 286.421875 65.398438 Z M 264.832031 86.320312 " fill-opacity="1" fill-rule="nonzero"/><path fill="#b0bec5" d="M 241.921875 109.296875 L 268.222656 82.992188 L 291.707031 106.476562 L 265.40625 132.78125 Z M 241.921875 109.296875 " fill-opacity="1" fill-rule="nonzero"/><path fill="#ffa726" d="M 112.722656 271.308594 L 103.425781 262.011719 L 248.890625 116.210938 L 258.191406 125.511719 Z M 112.722656 271.308594 " fill-opacity="1" fill-rule="nonzero"/><path fill="#ffcc80" d="M 118.371094 270.976562 L 112.722656 271.308594 L 112.058594 264.003906 C 112.058594 263.339844 111.394531 262.675781 110.730469 262.675781 L 103.425781 262.011719 L 103.757812 256.363281 C 103.757812 255.367188 103.09375 254.703125 102.097656 254.703125 L 96.449219 255.035156 L 76.855469 286.917969 C 75.859375 288.246094 86.488281 298.875 88.148438 297.878906 L 120.03125 278.285156 L 120.363281 272.636719 C 120.03125 271.640625 119.367188 270.976562 118.371094 270.976562 Z M 118.371094 270.976562 " fill-opacity="1" fill-rule="nonzero"/><g clip-path="url(#14c4be4160)"><path fill="#37474f" d="M 76.855469 286.585938 L 62.90625 309.503906 C 62.574219 310.167969 62.574219 311.164062 63.570312 311.828125 C 64.234375 312.160156 64.898438 312.160156 65.230469 311.828125 L 88.148438 297.878906 Z M 76.855469 286.585938 " fill-opacity="1" fill-rule="nonzero"/></g><path fill="#90a4ae" d="M 245.140625 105.921875 L 247.488281 103.574219 L 270.972656 127.058594 L 268.625 129.40625 Z M 245.140625 105.921875 " fill-opacity="1" fill-rule="nonzero"/><path fill="#90a4ae" d="M 249.289062 102.003906 L 251.640625 99.65625 L 275.125 123.140625 L 272.773438 125.488281 Z M 249.289062 102.003906 " fill-opacity="1" fill-rule="nonzero"/><path fill="#90a4ae" d="M 258.421875 92.636719 L 260.773438 90.289062 L 284.257812 113.773438 L 281.90625 116.121094 Z M 258.421875 92.636719 " fill-opacity="1" fill-rule="nonzero"/><path fill="#90a4ae" d="M 262.574219 88.722656 L 264.921875 86.375 L 288.40625 109.855469 L 286.058594 112.207031 Z M 262.574219 88.722656 " fill-opacity="1" fill-rule="nonzero"/></svg>