<svg xmlns="http://www.w3.org/2000/svg" xmlns:xlink="http://www.w3.org/1999/xlink" width="500" zoomAndPan="magnify" viewBox="0 0 375 374.999991" height="500" preserveAspectRatio="xMidYMid meet" version="1.0"><defs><clipPath id="2102331016"><path d="M 182 79.476562 L 281.132812 79.476562 L 281.132812 303.769531 L 182 303.769531 Z M 182 79.476562 " clip-rule="nonzero"/></clipPath><clipPath id="6ad82a9547"><path d="M 182.332031 79.476562 L 281.132812 79.476562 L 281.132812 239 L 182.332031 239 Z M 182.332031 79.476562 " clip-rule="nonzero"/></clipPath></defs><g clip-path="url(#2102331016)"><path fill="#6b9913" d="M 276.054688 303.175781 C 248.835938 306.171875 219.828125 292.714844 222.226562 243.679688 C 224.609375 194.640625 263.117188 144.929688 186.597656 107.292969 C 183.871094 111.265625 180.597656 104.046875 182.707031 94.722656 C 183.800781 89.910156 186.328125 84.519531 191.121094 79.824219 C 191.121094 79.824219 274.261719 74.445312 281.132812 180.59375 C 280.828125 202.785156 275.527344 222.132812 270.242188 238.664062 C 260.003906 270.6875 249.824219 292.132812 276.054688 303.175781 " fill-opacity="1" fill-rule="nonzero"/></g><g clip-path="url(#6ad82a9547)"><path fill="#99d148" d="M 270.242188 238.664062 C 272.25 222.941406 272.492188 206.882812 270.476562 191.242188 C 267.875 171.066406 261.089844 151.191406 249.085938 134.777344 C 233.414062 113.347656 209 98.527344 182.707031 94.722656 C 183.800781 89.910156 186.328125 84.519531 191.121094 79.824219 C 191.121094 79.824219 274.261719 74.445312 281.132812 180.59375 C 280.828125 202.785156 275.527344 222.132812 270.242188 238.664062 " fill-opacity="1" fill-rule="nonzero"/></g><path fill="#425e03" d="M 180.027344 92.386719 C 180.945312 92.425781 181.734375 92.503906 182.570312 92.59375 C 183.394531 92.6875 184.210938 92.800781 185.019531 92.921875 C 186.644531 93.171875 188.253906 93.492188 189.847656 93.839844 C 193.035156 94.558594 196.171875 95.457031 199.246094 96.519531 C 205.386719 98.65625 211.289062 101.414062 216.839844 104.734375 C 219.609375 106.402344 222.316406 108.164062 224.898438 110.101562 C 226.214844 111.03125 227.457031 112.066406 228.726562 113.050781 L 230.574219 114.609375 C 231.191406 115.125 231.804688 115.644531 232.394531 116.191406 C 237.183594 120.492188 241.578125 125.199219 245.550781 130.226562 C 241.347656 125.390625 236.75 120.910156 231.8125 116.875 C 231.203125 116.359375 230.570312 115.875 229.9375 115.390625 L 228.039062 113.9375 C 226.734375 113.023438 225.46875 112.058594 224.125 111.199219 C 221.492188 109.414062 218.746094 107.804688 215.953125 106.296875 C 210.363281 103.292969 204.476562 100.875 198.425781 99.082031 C 195.398438 98.191406 192.324219 97.46875 189.234375 96.917969 C 187.6875 96.652344 186.136719 96.421875 184.585938 96.257812 C 183.808594 96.175781 183.035156 96.109375 182.261719 96.054688 C 181.503906 96.007812 180.691406 95.96875 180.007812 95.976562 L 180.027344 92.386719 " fill-opacity="1" fill-rule="nonzero"/><path fill="#ffb200" d="M 260.085938 198.828125 C 259.761719 214.902344 255.269531 230.601562 247.675781 244.78125 C 215.71875 304.511719 173.375 322.066406 130.335938 312.074219 C 123.195312 310.648438 117.417969 307.347656 113.082031 302.691406 C 108.488281 297.777344 105.503906 291.335938 104.183594 283.945312 C 102.488281 274.390625 103.671875 264.910156 104.667969 255.339844 C 106.121094 241.402344 100.605469 231.742188 97.6875 218.644531 C 94.546875 204.527344 93.847656 189.921875 94.519531 175.507812 C 101.042969 114.800781 148.152344 106.503906 171.121094 106.125 C 178.695312 106 183.648438 106.734375 183.648438 106.734375 C 223.222656 113.5 261.109375 147.945312 260.085938 198.828125 " fill-opacity="1" fill-rule="nonzero"/><path fill="#fc9200" d="M 260.085938 198.828125 C 259.761719 214.902344 255.269531 230.601562 247.675781 244.78125 C 215.71875 304.511719 173.375 322.066406 130.335938 312.074219 C 123.195312 310.648438 117.417969 307.347656 113.082031 302.691406 C 121.015625 305.734375 129.441406 307.367188 138.1875 307.367188 C 185.011719 307.367188 222.96875 260.480469 222.96875 202.640625 C 222.96875 159.226562 201.589844 121.992188 171.121094 106.125 C 178.695312 106 183.648438 106.734375 183.648438 106.734375 C 223.222656 113.5 261.109375 147.945312 260.085938 198.828125 " fill-opacity="1" fill-rule="nonzero"/><path fill="#fed559" d="M 144.949219 173.113281 C 132.726562 203.378906 143.515625 237.109375 124.949219 229.613281 C 106.378906 222.117188 94.597656 186.761719 106.824219 156.496094 C 119.046875 126.230469 150.644531 112.511719 169.214844 120.011719 C 187.785156 127.507812 157.171875 142.847656 144.949219 173.113281 " fill-opacity="1" fill-rule="nonzero"/><path fill="#fcf8e5" d="M 129.535156 151.394531 C 127.132812 151.394531 125.121094 150.652344 123.875 149.105469 C 120.65625 145.121094 123.71875 137.3125 130.714844 131.660156 C 134.996094 128.199219 139.761719 126.347656 143.550781 126.347656 C 145.953125 126.347656 147.964844 127.089844 149.210938 128.636719 C 152.433594 132.621094 149.371094 140.429688 142.371094 146.085938 C 138.089844 149.542969 133.324219 151.394531 129.535156 151.394531 " fill-opacity="1" fill-rule="nonzero"/><path fill="#f3f9e9" d="M 267.082031 142.878906 C 265.265625 139.519531 263.589844 136.15625 261.546875 133.003906 C 260.605469 131.390625 259.523438 129.863281 258.496094 128.3125 C 258.246094 127.921875 257.96875 127.546875 257.695312 127.171875 L 256.871094 126.046875 C 256.316406 125.300781 255.792969 124.539062 255.203125 123.820312 C 252.949219 120.878906 250.488281 118.117188 247.949219 115.433594 L 246 113.472656 C 245.363281 112.804688 244.660156 112.203125 243.992188 111.566406 L 242.988281 110.613281 C 242.648438 110.300781 242.292969 110.003906 241.949219 109.699219 C 241.25 109.097656 240.570312 108.46875 239.855469 107.886719 C 234.195312 103.140625 228.070312 98.929688 221.613281 95.21875 C 218.386719 93.355469 215.070312 91.632812 211.683594 90.007812 C 208.304688 88.363281 204.84375 86.878906 201.289062 85.511719 C 203.1875 85.699219 205.066406 86.066406 206.933594 86.484375 C 208.800781 86.898438 210.644531 87.417969 212.480469 87.964844 C 216.144531 89.09375 219.730469 90.484375 223.226562 92.09375 C 230.207031 95.335938 236.804688 99.480469 242.742188 104.457031 C 245.6875 106.96875 248.492188 109.652344 251.074219 112.542969 C 251.71875 113.269531 252.328125 114.023438 252.953125 114.761719 C 253.261719 115.132812 253.578125 115.5 253.882812 115.878906 L 254.753906 117.039062 C 255.328125 117.820312 255.925781 118.578125 256.480469 119.371094 L 258.085938 121.789062 C 258.640625 122.578125 259.101562 123.433594 259.59375 124.261719 C 260.066406 125.105469 260.597656 125.910156 261.019531 126.78125 L 262.320312 129.359375 C 262.765625 130.210938 263.117188 131.113281 263.503906 131.992188 C 265.039062 135.511719 266.203125 139.175781 267.082031 142.878906 " fill-opacity="1" fill-rule="nonzero"/><path fill="#99d148" d="M 205.269531 56.792969 L 205.269531 56.855469 C 205.269531 56.988281 205.261719 57.125 205.242188 57.257812 C 205.222656 57.410156 205.207031 57.5625 205.171875 57.714844 C 205.160156 57.785156 205.144531 57.851562 205.117188 57.921875 C 205.097656 58.019531 205.070312 58.117188 205.035156 58.207031 C 204.792969 58.945312 204.363281 59.617188 203.761719 60.15625 C 197.175781 66.03125 182.21875 83.753906 185.125 121.679688 L 182.101562 121.910156 L 178.085938 122.21875 L 177.078125 122.296875 C 173.949219 81.539062 190.234375 61.535156 198.242188 54.28125 C 199.570312 53.078125 201.394531 52.835938 202.917969 53.4375 C 203.222656 53.554688 203.507812 53.703125 203.78125 53.894531 L 203.796875 53.902344 L 203.808594 53.910156 C 204.59375 54.433594 205.117188 55.304688 205.234375 56.242188 C 205.257812 56.425781 205.269531 56.605469 205.269531 56.792969 " fill-opacity="1" fill-rule="nonzero"/><path fill="#6b9913" d="M 205.269531 56.792969 L 205.269531 56.855469 C 205.269531 56.988281 205.261719 57.125 205.242188 57.257812 C 205.222656 57.410156 205.207031 57.5625 205.171875 57.714844 C 205.160156 57.785156 205.144531 57.851562 205.117188 57.921875 C 205.097656 58.019531 205.070312 58.117188 205.035156 58.207031 C 204.792969 58.945312 204.363281 59.617188 203.761719 60.15625 C 197.175781 66.03125 182.21875 83.753906 185.125 121.679688 L 177.195312 123.636719 C 177.195312 123.617188 177.347656 122.972656 178.085938 122.21875 C 178.605469 121.6875 179.410156 121.105469 180.648438 120.640625 C 177.894531 82.8125 194.269531 61.886719 202.917969 53.4375 C 203.222656 53.554688 203.507812 53.703125 203.78125 53.894531 L 203.796875 53.902344 L 203.808594 53.910156 C 204.59375 54.433594 205.117188 55.304688 205.234375 56.242188 C 205.257812 56.425781 205.269531 56.605469 205.269531 56.792969 " fill-opacity="1" fill-rule="nonzero"/><path fill="#d37402" d="M 167.921875 119.726562 C 169.945312 120.441406 171.921875 120.828125 173.890625 121.019531 C 175.855469 121.210938 177.804688 121.152344 179.742188 120.933594 C 180.710938 120.777344 181.683594 120.664062 182.644531 120.417969 C 183.621094 120.253906 184.5625 119.929688 185.542969 119.683594 C 186.039062 119.578125 186.503906 119.382812 186.992188 119.230469 C 187.476562 119.070312 187.96875 118.921875 188.46875 118.777344 C 189.441406 118.425781 190.417969 118.058594 191.476562 117.78125 C 191.109375 118.171875 190.714844 118.535156 190.316406 118.894531 C 189.917969 119.257812 189.511719 119.613281 189.085938 119.945312 C 188.644531 120.246094 188.195312 120.546875 187.738281 120.835938 C 187.277344 121.121094 186.832031 121.433594 186.332031 121.648438 C 185.351562 122.117188 184.363281 122.59375 183.296875 122.882812 C 183.039062 122.96875 182.773438 123.042969 182.507812 123.121094 L 182.113281 123.238281 L 181.707031 123.320312 L 180.074219 123.605469 C 177.871094 123.851562 175.601562 123.714844 173.476562 123.085938 C 171.367188 122.453125 169.339844 121.386719 167.921875 119.726562 " fill-opacity="1" fill-rule="nonzero"/></svg>