<svg xmlns="http://www.w3.org/2000/svg" xmlns:xlink="http://www.w3.org/1999/xlink" width="500" zoomAndPan="magnify" viewBox="0 0 375 374.999991" height="500" preserveAspectRatio="xMidYMid meet" version="1.0"><defs><clipPath id="8a4988969b"><path d="M 52.125 40 L 321 40 L 321 336.179688 L 52.125 336.179688 Z M 52.125 40 " clip-rule="nonzero"/></clipPath><clipPath id="2ea9cacf89"><path d="M 52.125 73 L 231 73 L 231 336.179688 L 52.125 336.179688 Z M 52.125 73 " clip-rule="nonzero"/></clipPath><clipPath id="d43a85475c"><path d="M 52.125 64 L 303 64 L 303 273 L 52.125 273 Z M 52.125 64 " clip-rule="nonzero"/></clipPath></defs><g clip-path="url(#8a4988969b)"><path fill="#efefef" d="M 52.308594 89.757812 C 52.25 89.816406 52.25 89.816406 52.308594 89.757812 C 54.1875 89.640625 56.363281 89.40625 58.710938 89.230469 C 59.066406 89.230469 59.359375 89.171875 59.710938 89.171875 C 60.355469 89.113281 61.003906 89.054688 61.648438 88.992188 C 62 88.992188 62.355469 88.933594 62.707031 88.933594 C 63.058594 88.933594 63.351562 88.875 63.707031 88.875 C 64.644531 88.816406 65.644531 88.699219 66.523438 88.640625 C 66.582031 88.640625 66.640625 88.640625 66.699219 88.640625 C 71.988281 88.230469 76.277344 87.875 76.277344 87.875 C 76.277344 87.875 75.628906 89.347656 74.867188 91.40625 C 74.75 91.699219 74.628906 91.992188 74.570312 92.289062 C 74.335938 92.875 74.160156 93.464844 73.984375 94.109375 C 73.867188 94.40625 73.808594 94.699219 73.691406 94.992188 C 73.515625 95.464844 73.398438 95.992188 73.28125 96.464844 C 73.222656 96.640625 73.222656 96.757812 73.164062 96.933594 C 73.105469 97.285156 72.984375 97.640625 72.925781 97.933594 C 72.867188 98.34375 72.75 98.699219 72.691406 99.050781 C 72.632812 99.402344 72.574219 99.699219 72.574219 100.050781 C 72.515625 100.578125 72.457031 101.050781 72.457031 101.460938 C 72.457031 102.875 72.75 103.992188 73.515625 104.519531 C 76.921875 107.109375 79.507812 103.636719 79.507812 103.636719 C 79.507812 103.636719 78.449219 106.167969 78.507812 108.578125 C 78.507812 108.753906 78.507812 108.871094 78.507812 108.988281 C 78.507812 109.285156 78.566406 109.578125 78.683594 109.929688 C 78.742188 110.167969 78.800781 110.402344 78.917969 110.636719 C 78.976562 110.753906 79.035156 110.871094 79.09375 110.988281 C 79.210938 111.226562 79.386719 111.460938 79.566406 111.636719 C 79.683594 111.753906 79.742188 111.8125 79.859375 111.929688 C 80.503906 112.519531 81.386719 112.871094 82.679688 112.929688 C 83.089844 112.929688 83.558594 112.929688 83.96875 112.871094 C 84.910156 112.753906 85.851562 112.460938 86.789062 112.105469 C 89.140625 111.046875 91.371094 109.226562 93.074219 107.519531 C 93.546875 107.050781 93.957031 106.636719 94.308594 106.167969 C 94.542969 105.933594 94.71875 105.695312 94.894531 105.460938 C 94.894531 105.402344 94.953125 105.402344 95.011719 105.34375 C 95.191406 105.167969 95.367188 104.933594 95.484375 104.753906 C 96.070312 103.992188 96.421875 103.519531 96.421875 103.519531 C 96.421875 107.34375 95.484375 126.164062 89.902344 153.921875 C 84.382812 181.679688 80.09375 184.679688 95.425781 213.324219 C 110.753906 241.964844 146.175781 257.726562 150.875 261.195312 C 154.871094 264.136719 154.222656 272.015625 158.511719 276.957031 C 155.632812 281.660156 140.359375 306.714844 137.128906 310.773438 C 133.664062 315.125 124.324219 315.125 120.390625 316.066406 C 115.160156 317.300781 107.289062 320.417969 110.519531 321.832031 C 113.75 323.183594 130.902344 320.476562 130.902344 322.652344 C 130.902344 324.828125 120.917969 331.359375 123.089844 331.359375 C 128.4375 331.359375 146.117188 322.242188 145.882812 322.242188 C 148.878906 322.242188 159.980469 323.242188 161.625 321.300781 C 163.269531 319.417969 152.285156 315.300781 150.347656 311.480469 C 148.761719 308.304688 160.742188 287.132812 164.738281 280.25 C 170.554688 280.542969 176.074219 274.015625 182.476562 271.839844 C 183.242188 271.605469 184.003906 271.546875 184.828125 271.605469 C 184.945312 271.664062 185.0625 271.722656 185.179688 271.78125 C 185.472656 271.957031 187.117188 272.429688 187.46875 272.488281 C 187.765625 272.546875 187.351562 272.371094 187 272.25 C 186.882812 272.191406 186.824219 272.132812 186.707031 272.074219 C 192.34375 274.191406 198.394531 282.71875 205.621094 286.953125 C 204.503906 293.601562 201.566406 311.007812 200.921875 315.597656 C 200.097656 321.300781 189.230469 321.300781 185.179688 321.300781 C 181.066406 321.300781 172.433594 325.125 175.664062 326.476562 C 178.894531 327.828125 196.046875 325.125 196.046875 327.300781 C 196.046875 329.476562 189.230469 336.003906 191.40625 336.003906 C 193.578125 336.003906 210.964844 324.59375 213.960938 324.59375 C 216.957031 324.59375 228.351562 327.828125 229.996094 325.945312 C 231.640625 324.066406 215.078125 319.183594 213.199219 315.359375 C 211.730469 312.421875 212.550781 296.421875 212.964844 289.484375 C 219.777344 289.894531 220.246094 282.542969 221.363281 277.074219 C 222.65625 270.664062 237.164062 263.839844 247.796875 249.726562 C 258.488281 235.613281 252.90625 224.085938 252.90625 224.085938 C 252.90625 224.085938 257.195312 222.789062 290.03125 198.03125 C 322.867188 173.269531 322.453125 124.164062 319.515625 121.574219 C 316.582031 118.988281 308.769531 125.398438 308.769531 125.398438 C 311.765625 121.105469 321.574219 102.757812 314.289062 94.640625 C 308.710938 88.347656 303.597656 98.402344 301.542969 103.34375 C 301.601562 103.109375 301.660156 102.875 301.71875 102.695312 C 301.835938 102.34375 301.894531 100.757812 301.894531 100.402344 C 301.894531 100.109375 301.835938 100.519531 301.777344 100.875 C 301.71875 101.050781 301.71875 101.167969 301.660156 101.34375 C 303.070312 94.40625 305.007812 81.582031 300.660156 80.996094 C 296.492188 80.40625 291.734375 87.464844 289.207031 91.816406 C 289.265625 91.640625 289.324219 91.464844 289.324219 91.347656 C 289.382812 91.109375 289.5 89.992188 289.5 89.757812 C 289.5 89.523438 289.441406 89.875 289.324219 90.050781 C 289.324219 90.050781 289.324219 90.113281 289.324219 90.113281 C 290.148438 86.640625 290.03125 82.464844 285.273438 80.996094 C 276.753906 78.40625 253.257812 98.519531 245.621094 115.402344 C 242.15625 122.988281 239.925781 129.28125 235.285156 134.160156 C 234.34375 134.632812 233.464844 135.101562 233.167969 135.277344 C 232.582031 135.632812 233.464844 135.160156 234.167969 134.925781 C 234.402344 134.867188 234.636719 134.75 234.875 134.691406 C 229.175781 140.394531 220.011719 144.160156 201.332031 145.984375 C 166.382812 149.394531 158.277344 117.339844 148.878906 91.523438 C 141.359375 70.761719 126.320312 59.765625 109.640625 56.234375 C 109.640625 56.234375 120.332031 55.472656 116.863281 47.355469 C 113.457031 39.179688 98.066406 47.355469 98.066406 47.355469 C 98.066406 47.355469 101.886719 40.0625 92.957031 40.886719 C 84.027344 41.710938 78.039062 55 78.039062 55 C 78.039062 55 80.152344 45.945312 73.75 48.53125 C 69.871094 50.121094 69.753906 54.707031 71.046875 60.175781 C 71.046875 60.175781 64.410156 58.46875 64.410156 61.824219 C 64.410156 64.117188 68.464844 69.703125 72.28125 72.9375 C 72.28125 73.054688 72.222656 73.113281 72.222656 73.113281 C 65.46875 75.527344 54.011719 87.875 52.542969 89.523438 C 52.367188 89.699219 52.308594 89.699219 52.308594 89.757812 C 52.191406 89.757812 52.25 89.757812 52.308594 89.757812 Z M 52.308594 89.757812 " fill-opacity="1" fill-rule="nonzero"/></g><g clip-path="url(#2ea9cacf89)"><path fill="#bc7846" d="M 175.605469 326.652344 C 178.894531 328.003906 195.988281 325.300781 195.988281 327.476562 C 195.988281 329.652344 189.171875 336.179688 191.347656 336.179688 C 193.519531 336.179688 210.90625 324.769531 213.902344 324.769531 C 216.898438 324.769531 228.292969 328.003906 229.9375 326.125 C 231.582031 324.242188 215.019531 319.359375 213.082031 315.539062 C 211.613281 312.597656 212.433594 296.601562 212.847656 289.660156 C 211.730469 289.601562 210.378906 289.308594 208.851562 288.777344 C 207.734375 288.367188 206.621094 287.835938 205.5625 287.191406 C 204.445312 293.835938 201.507812 311.242188 200.863281 315.832031 C 200.039062 321.535156 189.171875 321.535156 185.121094 321.535156 C 181.007812 321.476562 172.375 325.300781 175.605469 326.652344 Z M 120.332031 316.300781 C 124.324219 315.359375 133.605469 315.359375 137.070312 311.007812 C 140.300781 306.949219 155.632812 281.839844 158.453125 277.191406 C 159.15625 278.015625 160.039062 278.78125 161.097656 279.367188 C 162.328125 280.074219 163.503906 280.425781 164.679688 280.484375 C 160.683594 287.367188 148.644531 308.539062 150.289062 311.714844 C 152.167969 315.539062 163.152344 319.59375 161.507812 321.535156 C 159.863281 323.417969 148.761719 322.476562 145.765625 322.476562 C 145.941406 322.476562 128.320312 331.59375 122.914062 331.59375 C 120.742188 331.59375 130.726562 325.066406 130.726562 322.890625 C 130.726562 320.710938 113.632812 323.417969 110.34375 322.066406 C 107.171875 320.652344 115.042969 317.535156 120.332031 316.300781 Z M 72.046875 73.292969 C 78.566406 77.761719 76.15625 87.875 76.15625 87.875 C 76.15625 87.875 60.945312 88.992188 52.191406 89.875 C 52.25 89.816406 64.820312 75.820312 72.046875 73.292969 Z M 72.046875 73.292969 " fill-opacity="1" fill-rule="nonzero"/></g><g clip-path="url(#d43a85475c)"><path fill="#4e3d34" d="M 89.316406 67.761719 Z M 81.269531 71.820312 C 81.210938 71.9375 81.328125 71.820312 81.445312 71.761719 C 81.738281 71.644531 82.089844 71.527344 82.5625 71.175781 C 82.796875 70.996094 83.148438 70.9375 83.441406 70.703125 C 83.675781 70.585938 83.910156 70.46875 84.027344 70.292969 C 84.027344 70.292969 84.027344 70.234375 84.089844 70.234375 C 84.441406 70.292969 84.675781 70.054688 84.96875 69.996094 C 85.085938 69.996094 85.203125 69.996094 85.320312 69.9375 C 85.378906 69.9375 85.378906 69.9375 85.4375 69.9375 C 84.675781 70.46875 84.207031 71.351562 84.207031 72.292969 C 84.207031 73.9375 85.496094 75.230469 87.140625 75.230469 C 88.785156 75.230469 90.078125 73.9375 90.078125 72.292969 C 90.078125 71.351562 89.667969 70.585938 89.023438 69.996094 C 89.199219 69.996094 89.375 69.996094 89.550781 69.996094 C 89.785156 69.996094 89.902344 70.410156 90.078125 70.527344 C 90.136719 70.585938 90.195312 70.703125 90.3125 70.703125 C 90.375 70.703125 90.433594 70.703125 90.433594 70.761719 C 90.492188 71.175781 90.550781 71.410156 90.902344 71.351562 C 90.84375 71.761719 91.136719 71.703125 91.429688 71.644531 C 91.488281 71.585938 91.546875 71.46875 91.605469 71.527344 C 91.78125 71.703125 92.078125 71.761719 92.3125 71.9375 C 92.371094 71.9375 92.371094 71.996094 92.371094 72.054688 C 92.371094 72.410156 92.605469 72.46875 92.957031 72.527344 C 92.957031 72.527344 93.015625 72.527344 93.015625 72.527344 C 92.957031 72.703125 93.074219 72.761719 93.191406 72.820312 C 93.308594 72.878906 93.425781 72.996094 93.546875 73.054688 C 93.605469 73.171875 93.898438 73.234375 94.074219 73.292969 C 94.308594 73.351562 94.425781 73.410156 94.425781 73.410156 C 94.425781 73.410156 94.367188 73.351562 94.367188 73.292969 C 94.25 72.996094 94.25 72.527344 94.191406 71.996094 C 94.132812 71.527344 93.78125 71.351562 93.664062 70.9375 C 93.546875 70.585938 93.425781 70.234375 93.191406 69.996094 C 92.957031 69.644531 92.898438 69.117188 92.3125 69.058594 C 92.019531 69.058594 91.839844 68.703125 91.605469 68.527344 C 91.136719 68.234375 90.609375 67.820312 89.960938 67.9375 C 89.667969 68 89.375 68 89.199219 67.703125 C 89.023438 67.761719 88.847656 67.703125 88.667969 67.644531 C 88.492188 67.585938 88.375 67.527344 88.140625 67.527344 C 87.847656 67.585938 87.554688 67.527344 87.261719 67.585938 C 86.964844 67.644531 86.671875 67.761719 86.4375 67.878906 C 86.378906 67.9375 86.261719 67.9375 86.203125 67.878906 C 85.96875 67.820312 85.792969 67.9375 85.675781 68.058594 C 85.496094 68.234375 85.261719 68.292969 85.027344 68.351562 C 84.96875 68.351562 84.910156 68.351562 84.851562 68.351562 C 84.96875 68.292969 85.085938 68.175781 85.203125 68.117188 C 85.378906 67.9375 85.554688 67.878906 85.734375 67.644531 C 85.734375 67.644531 85.734375 67.585938 85.792969 67.585938 C 86.144531 67.585938 86.320312 67.410156 86.554688 67.351562 C 86.671875 67.351562 86.789062 67.351562 86.847656 67.292969 C 86.964844 67.234375 87.082031 67.234375 87.261719 67.292969 C 87.496094 67.410156 87.671875 67.410156 87.730469 67 C 87.730469 66.878906 87.90625 66.761719 88.082031 66.878906 C 88.316406 67 88.492188 67.058594 88.609375 66.820312 C 88.609375 66.820312 88.667969 66.761719 88.667969 66.761719 C 88.847656 66.878906 89.082031 66.878906 89.257812 66.820312 C 89.433594 66.761719 89.667969 66.703125 89.84375 66.878906 C 90.253906 67.234375 90.609375 67.117188 91.019531 67.058594 C 91.253906 67 91.488281 67.351562 91.664062 67.410156 C 91.78125 67.410156 91.839844 67.585938 91.960938 67.527344 C 92.019531 67.527344 92.078125 67.46875 92.078125 67.527344 C 92.253906 67.878906 92.429688 68.058594 92.722656 67.878906 C 92.78125 68.292969 93.074219 68.175781 93.308594 68 C 93.367188 67.9375 93.367188 67.761719 93.425781 67.820312 C 93.664062 67.9375 93.957031 67.820312 94.25 67.820312 C 94.308594 67.820312 94.367188 67.820312 94.367188 67.878906 C 94.484375 68.175781 94.71875 68.175781 95.074219 68.058594 C 95.074219 68.058594 95.132812 68.058594 95.132812 68.058594 C 95.191406 68.234375 95.308594 68.234375 95.425781 68.234375 C 95.542969 68.234375 95.71875 68.234375 95.835938 68.292969 C 95.953125 68.351562 96.1875 68.292969 96.421875 68.234375 C 96.660156 68.175781 96.777344 68.175781 96.777344 68.175781 C 96.777344 68.175781 96.71875 68.117188 96.71875 68.117188 C 96.480469 67.878906 96.304688 67.527344 96.011719 67.117188 C 95.777344 66.703125 95.367188 66.761719 95.191406 66.46875 C 94.953125 66.175781 94.71875 65.941406 94.484375 65.820312 C 94.132812 65.644531 93.957031 65.117188 93.488281 65.292969 C 93.25 65.410156 93.015625 65.175781 92.722656 65.117188 C 92.488281 65.058594 92.253906 64.941406 91.960938 64.882812 C 91.722656 64.824219 91.429688 64.882812 91.136719 65 C 90.902344 65.117188 90.667969 65.117188 90.433594 64.882812 C 90.136719 65.058594 89.84375 64.761719 89.492188 64.882812 C 89.199219 64.941406 88.964844 64.941406 88.726562 65.058594 C 88.492188 65.175781 88.199219 65.234375 87.964844 65.410156 C 87.90625 65.46875 87.789062 65.46875 87.730469 65.410156 C 87.496094 65.351562 87.378906 65.46875 87.203125 65.585938 C 87.023438 65.761719 86.847656 65.882812 86.613281 65.882812 C 86.4375 65.882812 86.261719 65.941406 86.203125 66.117188 C 86.203125 66.175781 86.144531 66.175781 86.144531 66.175781 C 85.792969 66.058594 85.617188 66.527344 85.320312 66.644531 C 85.085938 66.878906 84.851562 67.175781 84.617188 67.410156 C 84.441406 67.644531 84.207031 67.9375 84.089844 68.234375 C 84.027344 68.410156 83.851562 68.703125 83.675781 68.878906 C 83.617188 68.9375 83.617188 69.058594 83.558594 69.175781 C 83.089844 69.644531 82.503906 69.9375 82.148438 70.527344 C 82.03125 70.703125 81.796875 70.9375 81.5625 71.113281 C 81.5625 71.234375 81.328125 71.703125 81.269531 71.820312 Z M 88.375 69.644531 C 88.375 69.644531 88.316406 69.644531 88.316406 69.585938 C 88.316406 69.644531 88.375 69.644531 88.375 69.644531 Z M 84.558594 68.820312 C 84.558594 68.761719 84.617188 68.761719 84.675781 68.703125 C 84.617188 68.761719 84.617188 68.820312 84.558594 68.820312 Z M 93.425781 68.175781 Z M 90.433594 65 Z M 71.695312 84.464844 Z M 52.308594 89.699219 C 52.484375 89.582031 53.25 89.171875 53.425781 89.113281 C 53.777344 88.992188 54.308594 88.816406 54.601562 88.640625 C 55.480469 88.113281 56.539062 87.816406 57.421875 87.289062 C 57.890625 87.171875 58.300781 86.757812 58.769531 86.875 C 58.769531 86.875 58.886719 86.816406 58.886719 86.757812 C 59.066406 86.523438 59.359375 86.464844 59.59375 86.464844 C 59.945312 86.40625 60.238281 86.289062 60.535156 86.054688 C 60.769531 85.878906 61.003906 85.699219 61.296875 85.757812 C 61.414062 85.757812 61.53125 85.699219 61.648438 85.640625 C 62.296875 85.113281 63.117188 84.878906 63.824219 84.523438 C 64.234375 84.289062 64.761719 84.464844 65.113281 84.054688 C 65.527344 84.171875 65.878906 83.996094 66.113281 83.757812 C 66.757812 83.171875 67.582031 83.054688 68.34375 82.820312 C 68.757812 82.699219 69.226562 82.699219 69.460938 82.40625 C 69.992188 81.9375 70.636719 82.113281 71.222656 81.996094 C 71.695312 81.878906 72.222656 81.820312 72.691406 81.878906 C 73.28125 81.878906 73.75 81.523438 74.394531 81.582031 C 75.160156 81.582031 75.804688 81.640625 76.335938 81.582031 C 76.394531 81.582031 76.511719 81.523438 76.511719 81.582031 C 76.511719 81.582031 76.335938 81.761719 76.097656 81.9375 C 75.863281 82.113281 75.570312 82.40625 75.394531 82.464844 C 75.21875 82.523438 74.984375 82.640625 74.808594 82.761719 C 74.628906 82.878906 74.394531 82.996094 74.21875 82.9375 C 74.21875 82.9375 74.21875 82.9375 74.160156 82.996094 C 73.867188 83.347656 73.515625 83.640625 73.042969 83.523438 C 72.984375 83.523438 72.867188 83.523438 72.808594 83.582031 C 72.398438 83.757812 72.046875 84.113281 71.578125 84.230469 C 71.457031 84.289062 71.515625 84.40625 71.515625 84.464844 C 71.222656 84.820312 70.929688 85.113281 70.519531 84.878906 C 70.109375 85.230469 69.636719 85.289062 69.167969 85.113281 C 69.109375 85.113281 69.050781 85.171875 68.992188 85.230469 C 68.816406 85.347656 68.640625 85.289062 68.464844 85.347656 C 67.992188 85.464844 67.464844 85.347656 67.113281 85.582031 C 66.464844 85.9375 65.878906 86.347656 65.054688 86.289062 C 64.351562 86.230469 63.765625 86.9375 62.941406 86.875 C 62.941406 86.875 62.882812 86.875 62.824219 86.9375 C 62.589844 87.289062 62.238281 87.289062 61.824219 87.230469 C 61.53125 87.230469 61.238281 87.347656 61.179688 87.464844 C 61.003906 87.875 60.652344 87.996094 60.238281 87.933594 C 59.945312 87.933594 59.710938 87.933594 59.417969 88.054688 C 59.242188 88.113281 59.066406 88.113281 58.828125 88.171875 C 58.300781 88.289062 57.832031 88.523438 57.300781 88.464844 C 57.300781 88.464844 57.242188 88.523438 57.242188 88.523438 C 56.890625 88.699219 56.480469 88.816406 56.070312 88.933594 C 55.539062 89.113281 54.953125 89.171875 54.425781 89.289062 C 53.484375 89.582031 52.898438 89.582031 52.425781 89.640625 C 52.367188 89.757812 52.132812 89.816406 52.308594 89.699219 Z M 245.800781 156.6875 C 245.859375 156.6875 245.859375 156.6875 245.800781 156.6875 C 245.859375 156.6875 245.859375 156.6875 245.800781 156.6875 Z M 222.949219 164.449219 Z M 220.246094 184.796875 C 220.1875 184.796875 220.1875 184.796875 220.246094 184.796875 Z M 227.238281 206.617188 C 227.296875 206.617188 227.296875 206.617188 227.238281 206.617188 C 227.296875 206.617188 227.296875 206.617188 227.238281 206.617188 Z M 144.238281 169.800781 C 144.296875 168.800781 144.296875 167.390625 144.355469 168.332031 C 144.414062 168.800781 144.589844 170.332031 144.824219 171.742188 C 145.117188 173.210938 145.414062 174.683594 145.472656 175.152344 C 145.648438 177.328125 146.234375 180.328125 146.882812 182.09375 C 147.878906 184.796875 148.820312 187.503906 149.992188 190.089844 C 151.109375 192.738281 152.460938 195.265625 154.105469 197.441406 C 155.398438 199.738281 157.628906 201.617188 158.980469 203.617188 C 159.039062 203.734375 159.453125 204.089844 159.6875 204.207031 C 160.273438 204.617188 160.859375 204.972656 161.332031 205.441406 C 161.859375 205.910156 162.328125 206.382812 162.859375 206.851562 C 164.269531 208.089844 165.855469 209.027344 167.5 209.792969 C 168.203125 210.085938 168.910156 210.382812 169.554688 210.734375 C 170.257812 211.027344 170.90625 211.382812 171.609375 211.792969 C 171.84375 211.910156 172.140625 212.085938 172.492188 212.265625 C 172.84375 212.382812 173.195312 212.5 173.429688 212.558594 C 175.546875 213.144531 177.660156 213.675781 179.835938 214.144531 C 180.949219 214.320312 182.007812 214.617188 183.125 214.792969 C 184.238281 214.96875 185.355469 215.085938 186.414062 215.144531 C 188.996094 215.320312 191.40625 215.851562 194.050781 215.441406 L 193.992188 215.441406 C 195.871094 215.734375 198.101562 215.441406 199.863281 214.96875 C 204.269531 213.910156 208.558594 212.96875 212.667969 211.324219 C 214.726562 210.5 217.074219 209.617188 218.660156 208.5 C 221.539062 206.558594 224.476562 205.148438 227.0625 203.089844 C 229.058594 201.5 231.113281 199.679688 232.933594 197.679688 C 233.933594 196.5625 234.757812 195.324219 235.460938 193.914062 C 236.105469 192.503906 236.695312 191.03125 236.753906 189.386719 C 236.8125 188.445312 236.578125 187.5625 236.105469 186.855469 C 235.636719 186.152344 234.992188 185.5625 234.285156 185.152344 C 233.050781 184.503906 231.761719 184.152344 230.527344 184.035156 C 229.410156 184.503906 228.292969 184.917969 227.179688 185.269531 C 226.179688 185.621094 225.0625 185.855469 224.242188 186.269531 C 223.535156 186.679688 222.773438 186.855469 222.007812 186.976562 C 221.246094 187.152344 220.480469 187.210938 219.71875 187.386719 C 218.542969 187.679688 217.25 187.796875 216.019531 187.855469 C 215.3125 187.855469 214.609375 188.035156 213.902344 188.152344 C 213.199219 188.269531 212.433594 188.328125 211.613281 188.386719 C 210.671875 188.386719 209.851562 188.386719 209.027344 188.328125 C 208.265625 188.328125 207.5 188.269531 206.855469 188.269531 C 206.679688 188.269531 206.382812 188.269531 206.382812 188.269531 C 206.324219 188.269531 206.914062 188.09375 207.617188 187.914062 C 208.324219 187.738281 209.144531 187.445312 209.675781 187.386719 C 210.203125 187.328125 210.730469 187.210938 211.320312 187.035156 C 211.847656 186.914062 212.375 186.796875 212.847656 186.796875 C 212.847656 186.796875 212.964844 186.796875 212.964844 186.738281 C 213.960938 186.328125 214.902344 185.976562 215.960938 186.035156 C 216.078125 186.035156 216.3125 185.976562 216.488281 185.914062 C 217.605469 185.621094 218.601562 185.152344 219.777344 184.855469 C 220.128906 184.796875 220.011719 184.679688 220.070312 184.5625 C 220.894531 184.09375 221.714844 183.621094 222.714844 183.738281 C 223.832031 183.152344 224.945312 182.917969 226.0625 182.859375 C 226.179688 182.859375 226.355469 182.738281 226.53125 182.679688 C 226.945312 182.445312 227.414062 182.386719 227.824219 182.269531 C 228.882812 181.859375 230.117188 181.679688 231.054688 181.152344 C 232.640625 180.269531 234.050781 179.445312 235.929688 178.800781 C 237.574219 178.210938 238.925781 176.859375 240.628906 176.09375 C 240.6875 176.09375 240.804688 175.976562 240.863281 175.917969 C 241.453125 175.269531 242.15625 174.859375 242.980469 174.449219 C 243.566406 174.152344 244.273438 173.566406 244.390625 173.332031 C 244.742188 172.566406 245.503906 171.976562 246.210938 171.507812 C 246.796875 171.152344 247.207031 170.742188 247.679688 170.214844 C 247.972656 169.859375 248.324219 169.507812 248.617188 169.15625 C 249.03125 168.683594 249.324219 168.15625 249.617188 167.566406 C 249.910156 167.039062 250.027344 166.507812 250.085938 166.039062 C 250.085938 165.980469 250.085938 165.921875 250.027344 165.859375 C 249.734375 165.039062 249.089844 164.214844 248.324219 163.625 C 247.207031 162.804688 246.035156 162.15625 244.742188 161.683594 C 243.097656 161.15625 241.921875 160.804688 240.980469 160.566406 C 238.808594 162.214844 236.34375 163.390625 233.816406 164.332031 C 232.230469 164.980469 230.410156 165.332031 229.058594 165.859375 C 226.589844 166.800781 224.125 166.742188 221.65625 166.859375 C 219.777344 166.980469 217.664062 166.859375 215.722656 166.566406 C 213.550781 166.273438 211.261719 166.214844 208.792969 165.566406 C 205.914062 164.800781 203.683594 163.980469 201.625 163.332031 C 201.390625 163.273438 200.921875 163.15625 200.921875 163.097656 C 200.863281 163.039062 201.742188 163.214844 202.859375 163.390625 C 203.976562 163.566406 205.386719 163.683594 206.207031 163.863281 C 207.792969 164.214844 209.851562 164.273438 211.199219 164.625 C 211.199219 164.625 211.378906 164.625 211.4375 164.625 C 213.140625 164.566406 214.667969 164.566406 216.253906 164.921875 C 216.488281 164.980469 216.839844 164.980469 217.132812 164.980469 C 218.953125 164.980469 220.660156 164.683594 222.480469 164.566406 C 223.066406 164.507812 222.890625 164.390625 222.949219 164.332031 C 224.359375 163.980469 225.710938 163.507812 227.238281 163.566406 L 227.179688 163.566406 L 227.238281 163.566406 C 229.058594 162.921875 230.703125 162.566406 232.40625 162.214844 C 232.582031 162.15625 232.875 162.039062 233.109375 161.921875 C 233.757812 161.566406 234.460938 161.449219 235.050781 161.15625 C 236.695312 160.390625 238.398438 159.746094 239.75 158.746094 C 242.039062 157.039062 243.859375 155.273438 246.152344 153.277344 C 248.148438 151.511719 249.617188 148.804688 251.320312 146.511719 C 251.378906 146.453125 251.496094 146.21875 251.496094 146.160156 C 251.964844 144.925781 252.613281 143.746094 253.316406 142.570312 C 253.847656 141.691406 254.316406 140.335938 254.316406 139.925781 C 254.375 138.75 254.84375 137.277344 255.316406 135.925781 C 255.667969 134.925781 255.84375 134.042969 255.902344 132.925781 C 255.960938 132.222656 256.019531 131.457031 255.960938 130.75 C 255.902344 129.808594 255.667969 128.75 255.199219 128.164062 C 254.960938 127.867188 254.667969 127.75 254.316406 127.75 C 254.257812 127.75 254.140625 127.75 254.023438 127.808594 C 253.90625 127.808594 253.789062 127.867188 253.671875 127.867188 L 252.964844 128.046875 C 252.90625 128.046875 252.730469 128.164062 252.613281 128.222656 C 251.144531 128.808594 249.441406 129.339844 247.855469 129.925781 C 245.679688 130.691406 243.625 131.339844 241.570312 132.101562 C 238.046875 133.398438 235.988281 134.160156 233.992188 134.925781 C 233.347656 135.21875 232.40625 135.632812 232.992188 135.277344 C 233.582031 134.925781 236.753906 133.398438 237.398438 133.101562 C 238.867188 132.515625 240.863281 131.691406 242.097656 131.164062 C 245.859375 129.457031 249.792969 128.046875 253.613281 126.632812 C 254.140625 126.457031 254.902344 126.457031 255.550781 126.808594 C 256.195312 127.164062 256.546875 127.691406 256.785156 128.222656 C 257.253906 129.28125 257.371094 130.339844 257.253906 131.28125 C 257.253906 131.398438 257.3125 131.808594 257.3125 131.925781 C 257.488281 132.984375 257.3125 134.042969 257.078125 135.042969 C 256.785156 136.394531 256.488281 137.691406 256.195312 139.042969 C 255.960938 140.160156 255.667969 141.21875 255.078125 142.277344 C 254.902344 142.628906 254.609375 143.21875 254.492188 143.628906 C 253.433594 146.6875 251.613281 149.570312 249.617188 152.277344 C 248.441406 153.863281 247.03125 154.980469 245.742188 156.511719 C 244.566406 157.273438 243.332031 158.390625 242.332031 159.332031 C 241.980469 159.6875 241.628906 159.980469 241.21875 160.273438 C 241.628906 160.332031 242.039062 160.390625 242.15625 160.449219 C 243.15625 160.6875 244.449219 161.039062 245.269531 161.273438 C 246.5625 161.625 247.796875 162.15625 248.914062 162.980469 C 249.441406 163.390625 249.96875 163.921875 250.378906 164.566406 C 250.558594 164.863281 250.734375 165.214844 250.851562 165.566406 C 250.910156 165.742188 250.96875 165.980469 250.96875 166.15625 C 251.027344 166.390625 250.96875 166.566406 250.96875 166.742188 C 250.851562 167.449219 250.617188 168.15625 250.320312 168.742188 C 250.027344 169.332031 249.675781 169.917969 249.207031 170.273438 C 249.148438 170.332031 249.03125 170.566406 248.972656 170.625 C 248.675781 171.214844 248.207031 171.742188 247.679688 172.152344 C 247.03125 172.742188 246.386719 173.332031 245.859375 174.035156 C 245.386719 174.566406 244.859375 175.09375 244.214844 175.449219 C 243.976562 175.566406 243.683594 175.800781 243.449219 176.035156 C 241.980469 177.507812 240.160156 178.625 238.457031 179.800781 C 237.398438 180.503906 236.28125 180.742188 235.285156 181.503906 C 234.402344 181.679688 233.464844 182.210938 232.757812 182.679688 C 232.171875 183.09375 231.523438 183.445312 230.878906 183.738281 C 230.996094 183.738281 231.171875 183.738281 231.289062 183.738281 C 232.113281 183.738281 233.050781 183.859375 233.875 184.152344 C 234.757812 184.445312 235.519531 184.796875 235.988281 185.269531 C 236.460938 185.679688 236.929688 186.210938 237.28125 186.855469 C 237.632812 187.503906 237.867188 188.210938 237.929688 188.914062 C 238.105469 190.328125 237.808594 191.738281 237.339844 192.679688 C 237.339844 192.679688 237.28125 192.914062 237.28125 192.972656 C 236.695312 195.445312 235.402344 197.5625 233.699219 199.207031 C 233.464844 199.441406 233.109375 199.855469 232.816406 200.207031 C 231.113281 202.265625 229.351562 204.207031 227.238281 205.851562 C 226.53125 206.382812 226.882812 206.324219 226.765625 206.5 C 225.238281 208.027344 223.535156 209.5 221.421875 210.265625 L 222.007812 210.324219 L 221.949219 210.382812 C 219.601562 212.085938 217.191406 213.144531 214.667969 213.851562 C 214.375 213.910156 213.960938 214.144531 213.609375 214.320312 C 212.609375 214.792969 211.613281 215.027344 210.671875 215.378906 C 208.148438 216.261719 205.445312 216.617188 203.035156 217.203125 C 198.984375 218.203125 195.105469 218.851562 190.582031 218.378906 C 188.644531 218.144531 186.589844 218.085938 184.414062 217.910156 C 182.300781 217.734375 180.128906 217.320312 178.128906 216.617188 C 177.953125 216.558594 177.660156 216.5 177.542969 216.5 C 176.542969 216.378906 175.605469 216.203125 174.605469 215.910156 C 173.667969 215.558594 172.726562 215.144531 171.785156 214.675781 C 171.140625 214.320312 170.316406 213.910156 169.613281 213.617188 C 168.910156 213.324219 168.261719 213.085938 167.96875 213.027344 C 167.085938 212.910156 166.089844 212.558594 165.148438 212.085938 C 164.210938 211.558594 163.269531 210.910156 162.445312 210.207031 C 161.859375 209.675781 161.273438 209.207031 160.683594 208.734375 C 160.097656 208.265625 159.570312 207.734375 158.863281 207.207031 C 157.984375 206.558594 157.277344 205.617188 156.457031 204.851562 C 154.398438 202.675781 152.285156 200.265625 151.050781 197.679688 C 150.992188 197.5625 150.816406 197.382812 150.699219 197.207031 C 149.289062 195.324219 148.054688 193.03125 147.058594 190.796875 C 145.648438 187.738281 145.117188 184.5625 144.472656 181.503906 C 143.886719 178.742188 143.828125 176.445312 143.828125 174.566406 C 144.003906 172.625 144.121094 171.09375 144.238281 169.800781 Z M 277.695312 119.164062 C 277.871094 118.929688 277.988281 118.695312 278.105469 118.398438 C 278.222656 118.105469 278.339844 117.871094 278.574219 117.753906 C 278.574219 117.753906 278.574219 117.695312 278.574219 117.695312 C 278.632812 117.105469 278.8125 116.578125 279.28125 116.28125 C 279.339844 116.222656 279.398438 116.105469 279.457031 116.046875 C 279.691406 115.519531 279.75 114.871094 280.042969 114.402344 C 280.160156 114.222656 279.984375 114.222656 279.925781 114.164062 C 279.925781 113.636719 279.925781 113.105469 280.457031 112.871094 C 280.515625 112.226562 280.867188 111.753906 281.394531 111.34375 C 281.453125 111.285156 281.453125 111.167969 281.453125 111.105469 C 281.511719 110.871094 281.6875 110.695312 281.746094 110.519531 C 281.984375 109.988281 282.511719 109.519531 282.628906 108.988281 C 282.804688 108.050781 282.980469 107.226562 283.6875 106.402344 C 284.214844 105.695312 284.15625 104.578125 284.742188 103.816406 C 284.742188 103.816406 284.742188 103.695312 284.742188 103.695312 C 284.683594 103.226562 284.917969 102.816406 285.214844 102.402344 C 285.449219 102.109375 285.566406 101.636719 285.507812 101.519531 C 285.273438 101.050781 285.507812 100.578125 285.800781 100.167969 C 286.035156 99.875 286.152344 99.582031 286.269531 99.226562 C 286.328125 98.992188 286.445312 98.757812 286.566406 98.523438 C 286.800781 97.875 286.917969 97.226562 287.269531 96.640625 C 287.269531 96.640625 287.269531 96.582031 287.269531 96.523438 C 287.328125 95.992188 287.5625 95.464844 287.679688 94.933594 C 287.855469 94.226562 288.210938 93.582031 288.386719 92.875 C 288.738281 91.640625 289.089844 90.933594 289.324219 90.347656 C 289.382812 90.113281 289.5 89.816406 289.5 90.050781 C 289.5 90.289062 289.382812 91.40625 289.324219 91.640625 C 289.148438 92.109375 289.03125 92.816406 288.972656 93.289062 C 288.914062 93.933594 288.796875 94.640625 288.679688 95.285156 C 288.503906 95.933594 288.386719 96.582031 288.328125 97.285156 L 288.328125 97.226562 C 288.089844 97.816406 288.152344 98.582031 287.796875 99.050781 C 287.796875 99.050781 287.796875 99.226562 287.796875 99.285156 C 287.855469 99.640625 287.738281 99.933594 287.5625 100.285156 C 287.386719 100.699219 287.269531 101.109375 287.269531 101.578125 C 287.269531 101.992188 287.210938 102.34375 286.976562 102.636719 C 286.917969 102.757812 286.800781 102.933594 286.800781 103.109375 C 286.742188 104.167969 286.328125 105.226562 286.09375 106.226562 C 285.976562 106.871094 285.449219 107.285156 285.449219 107.992188 C 285.097656 108.34375 284.917969 108.871094 284.917969 109.285156 C 284.859375 110.402344 284.273438 111.34375 283.863281 112.34375 C 283.628906 112.8125 283.214844 113.285156 283.15625 113.8125 C 283.097656 114.695312 282.335938 115.222656 281.925781 115.929688 C 281.570312 116.460938 281.160156 116.988281 280.691406 117.457031 C 280.160156 117.988281 279.925781 118.753906 279.28125 119.28125 C 278.515625 119.929688 277.8125 120.398438 277.34375 120.929688 C 277.285156 120.988281 277.167969 121.105469 277.167969 121.105469 C 277.105469 121.105469 277.226562 120.8125 277.34375 120.457031 C 277.402344 119.8125 277.519531 119.398438 277.695312 119.164062 Z M 279.925781 114.105469 Z M 284.097656 141.160156 C 284.507812 140.511719 284.742188 139.570312 285.273438 139.101562 C 285.273438 139.101562 285.273438 139.042969 285.273438 138.984375 C 285.449219 138.21875 285.742188 137.515625 286.328125 136.984375 C 286.386719 136.925781 286.503906 136.75 286.566406 136.632812 C 286.917969 135.867188 287.152344 135.101562 287.621094 134.339844 C 287.738281 134.101562 287.621094 134.101562 287.5625 134.042969 C 287.679688 133.339844 287.855469 132.632812 288.445312 132.222656 C 288.679688 131.339844 289.148438 130.691406 289.796875 130.101562 C 289.855469 130.042969 289.914062 129.867188 289.914062 129.75 C 290.03125 129.398438 290.265625 129.164062 290.441406 128.925781 C 290.851562 128.164062 291.5 127.574219 291.734375 126.808594 C 292.203125 125.574219 292.554688 124.457031 293.4375 123.28125 C 294.199219 122.28125 294.375 120.8125 295.140625 119.695312 C 295.140625 119.636719 295.199219 119.578125 295.199219 119.515625 C 295.199219 118.871094 295.550781 118.339844 295.960938 117.8125 C 296.257812 117.398438 296.433594 116.8125 296.433594 116.578125 C 296.316406 115.929688 296.609375 115.28125 297.019531 114.753906 C 297.3125 114.34375 297.488281 113.929688 297.667969 113.460938 C 297.785156 113.164062 297.960938 112.8125 298.078125 112.519531 C 298.488281 111.636719 298.664062 110.695312 299.136719 109.929688 C 299.136719 109.929688 299.136719 109.8125 299.195312 109.753906 C 299.371094 109.050781 299.605469 108.285156 299.839844 107.519531 C 300.132812 106.519531 300.542969 105.578125 300.78125 104.636719 C 301.25 102.933594 301.601562 101.933594 301.835938 101.050781 C 301.894531 100.699219 301.953125 100.285156 302.011719 100.578125 C 302.011719 100.933594 301.894531 102.519531 301.835938 102.875 C 301.660156 103.578125 301.425781 104.519531 301.367188 105.167969 C 301.132812 107.050781 300.542969 108.871094 300.132812 110.695312 C 299.839844 111.519531 299.78125 112.519531 299.3125 113.222656 C 299.3125 113.285156 299.253906 113.460938 299.253906 113.519531 C 299.253906 113.988281 299.074219 114.460938 298.839844 114.871094 C 298.546875 115.402344 298.371094 115.988281 298.253906 116.636719 C 298.195312 117.164062 298.078125 117.636719 297.726562 118.105469 C 297.609375 118.28125 297.488281 118.515625 297.488281 118.695312 C 297.195312 120.164062 296.550781 121.515625 296.082031 122.929688 C 295.785156 123.75 295.140625 124.398438 295.023438 125.28125 C 294.554688 125.75 294.257812 126.457031 294.140625 127.046875 C 293.789062 128.574219 293.027344 129.808594 292.261719 131.101562 C 291.910156 131.75 291.382812 132.457031 291.203125 133.042969 C 290.910156 134.21875 290.03125 134.984375 289.441406 135.867188 C 288.972656 136.574219 288.386719 137.335938 287.796875 138.042969 C 287.152344 138.808594 286.742188 139.808594 285.917969 140.628906 C 284.976562 141.628906 284.15625 142.453125 283.570312 143.21875 C 283.511719 143.335938 283.390625 143.511719 283.390625 143.511719 C 283.332031 143.511719 283.511719 143.160156 283.6875 142.628906 C 283.6875 142.101562 283.863281 141.511719 284.097656 141.160156 Z M 287.503906 134.101562 Z M 300.015625 110.695312 Z M 157.746094 249.433594 Z M 152.988281 241.023438 C 153.285156 241.492188 153.578125 242.082031 153.695312 242.492188 C 153.8125 242.847656 153.988281 243.257812 154.222656 243.667969 C 154.398438 244.082031 154.632812 244.433594 154.632812 244.785156 C 154.632812 244.785156 154.691406 244.84375 154.691406 244.84375 C 154.988281 245.140625 155.222656 245.492188 155.398438 245.785156 C 155.574219 246.140625 155.75 246.492188 155.808594 246.84375 C 155.808594 246.960938 155.925781 247.140625 155.984375 247.257812 C 156.457031 248.019531 157.042969 248.609375 157.453125 249.375 C 157.570312 249.609375 157.6875 249.433594 157.746094 249.492188 C 158.335938 249.960938 158.863281 250.375 158.980469 251.136719 C 159.332031 251.433594 159.628906 251.785156 159.863281 252.136719 C 160.097656 252.492188 160.273438 252.902344 160.449219 253.3125 C 160.449219 253.433594 160.625 253.492188 160.683594 253.609375 C 160.980469 253.84375 161.097656 254.136719 161.332031 254.433594 C 161.625 254.726562 161.859375 255.136719 162.09375 255.492188 C 162.328125 255.84375 162.625 256.195312 162.917969 256.429688 C 163.972656 257.3125 164.972656 258.019531 165.914062 259.253906 C 166.734375 260.3125 168.144531 260.84375 169.085938 261.902344 C 169.144531 261.960938 169.203125 261.960938 169.261719 262.019531 C 169.90625 262.195312 170.375 262.664062 170.847656 263.195312 C 171.199219 263.546875 171.785156 263.960938 172.023438 263.960938 C 172.667969 263.960938 173.253906 264.429688 173.785156 264.960938 C 174.136719 265.3125 174.546875 265.605469 174.957031 265.898438 C 175.253906 266.078125 175.546875 266.3125 175.839844 266.488281 C 176.660156 267.015625 177.601562 267.488281 178.308594 268.078125 C 178.367188 268.078125 178.425781 268.136719 178.484375 268.136719 C 179.1875 268.429688 179.953125 268.839844 180.65625 269.195312 C 181.65625 269.664062 182.535156 270.253906 183.476562 270.722656 C 185.179688 271.546875 186.121094 272.132812 186.941406 272.546875 C 187.234375 272.722656 187.707031 272.839844 187.410156 272.78125 C 187.058594 272.722656 185.472656 272.25 185.121094 272.074219 C 184.414062 271.78125 183.476562 271.3125 182.828125 271.132812 C 180.890625 270.546875 179.128906 269.546875 177.308594 268.78125 C 176.542969 268.3125 175.488281 268.015625 174.898438 267.429688 C 174.898438 267.371094 174.722656 267.3125 174.605469 267.3125 C 174.078125 267.195312 173.726562 266.898438 173.3125 266.605469 C 172.785156 266.195312 172.257812 265.839844 171.609375 265.664062 C 171.082031 265.429688 170.613281 265.195312 170.257812 264.78125 C 170.140625 264.664062 169.847656 264.488281 169.671875 264.371094 C 168.261719 263.722656 166.96875 262.722656 165.675781 261.84375 C 164.855469 261.3125 164.445312 260.488281 163.5625 260.078125 C 163.210938 259.488281 162.625 258.960938 162.035156 258.609375 C 161.332031 258.136719 160.742188 257.609375 160.15625 257.019531 C 159.628906 256.429688 159.097656 255.84375 158.570312 255.195312 C 158.042969 254.550781 157.628906 253.785156 157.101562 253.3125 C 156.101562 252.492188 155.808594 251.257812 155.222656 250.199219 C 154.8125 249.375 154.398438 248.433594 154.105469 247.492188 C 153.753906 246.492188 153.167969 245.492188 152.929688 244.257812 C 152.8125 243.550781 152.753906 242.90625 152.636719 242.257812 C 152.578125 241.667969 152.519531 241.082031 152.460938 240.609375 C 152.460938 240.492188 152.402344 240.257812 152.402344 240.257812 C 152.578125 240.140625 152.753906 240.550781 152.988281 241.023438 Z M 121.152344 215.320312 C 121.5625 214.910156 121.976562 214.617188 122.386719 214.261719 C 122.5625 214.085938 122.914062 213.558594 122.914062 213.5 C 122.914062 213.203125 122.914062 212.96875 122.796875 212.792969 C 122.5625 212.382812 122.152344 213.261719 121.800781 213.851562 C 121.621094 214.085938 121.269531 214.441406 121.269531 214.441406 C 121.269531 214.085938 121.269531 213.734375 121.328125 213.324219 C 121.328125 213.261719 121.621094 212.851562 121.800781 212.734375 C 122.328125 212.203125 122.855469 211.617188 123.386719 211.144531 C 123.621094 210.910156 123.796875 210.851562 124.089844 210.675781 C 124.03125 211.085938 124.03125 211.382812 123.914062 211.734375 C 123.679688 212.324219 123.386719 213.027344 123.148438 213.617188 C 122.972656 214.203125 122.914062 214.675781 122.328125 215.085938 C 121.917969 215.378906 121.445312 216.085938 120.976562 216.558594 C 120.683594 216.851562 120.390625 217.144531 120.625 216.4375 C 120.859375 215.96875 121.035156 215.441406 121.152344 215.320312 Z M 133.195312 224.144531 C 133.546875 223.085938 133.898438 223.320312 134.191406 222.96875 C 134.664062 222.496094 135.132812 222.144531 135.601562 221.730469 C 135.71875 221.671875 135.777344 221.613281 135.898438 221.613281 C 135.777344 221.851562 135.71875 222.085938 135.660156 222.261719 C 135.308594 222.851562 135.015625 223.613281 134.664062 223.4375 C 134.429688 223.320312 134.074219 223.910156 133.898438 224.554688 C 133.78125 224.96875 133.78125 225.671875 133.371094 225.320312 C 133.136719 225.085938 132.960938 224.847656 133.195312 224.144531 Z M 118.980469 212.324219 C 118.980469 212.144531 119.097656 211.851562 119.039062 211.734375 C 119.039062 211.207031 118.746094 210.792969 119.683594 210.207031 C 120.09375 209.910156 120.625 209.441406 121.09375 209.027344 C 121.269531 208.910156 121.386719 208.792969 121.5625 208.675781 C 121.445312 209.148438 121.386719 209.558594 121.269531 209.96875 C 121.152344 210.207031 120.683594 210.792969 120.625 210.734375 C 120.332031 210.382812 120.09375 210.382812 119.390625 211.734375 C 119.214844 212.144531 119.097656 212.324219 119.039062 212.382812 C 119.214844 212.558594 119.390625 212.558594 119.390625 212.792969 C 119.390625 212.96875 119.214844 213.675781 119.097656 213.734375 C 118.804688 214.085938 118.449219 214.320312 118.15625 214.558594 C 118.332031 213.96875 118.507812 213.382812 118.804688 212.203125 C 118.921875 212.324219 118.921875 212.324219 118.980469 212.324219 Z M 114.984375 208.089844 C 114.574219 208.96875 114.398438 209.5 114.105469 210.027344 C 113.988281 210.207031 113.808594 210.382812 113.632812 210.558594 C 113.808594 209.96875 113.988281 209.382812 114.164062 208.792969 C 114.222656 208.734375 114.515625 208.558594 114.984375 208.089844 Z M 115.925781 208.96875 C 115.691406 209.96875 115.632812 210.5 115.453125 210.734375 C 115.21875 211.085938 114.925781 211.207031 114.632812 211.441406 C 114.75 210.96875 114.867188 210.5 115.101562 210.027344 C 115.277344 209.734375 115.574219 209.382812 115.925781 208.96875 Z M 113.808594 205.265625 C 113.808594 205.5 113.691406 205.792969 113.574219 206.324219 C 113.398438 206.207031 113.222656 206.207031 113.105469 206.089844 C 113.046875 205.972656 113.046875 205.734375 113.046875 205.558594 C 113.222656 205.382812 113.457031 205.148438 113.632812 205.089844 C 113.75 205.03125 113.808594 205.089844 113.808594 205.265625 Z M 129.789062 216.261719 C 129.847656 216.5 129.730469 216.96875 129.671875 217.378906 C 129.492188 217.4375 129.375 217.496094 129.140625 217.617188 C 129.140625 217.378906 129.082031 217.144531 129.023438 216.910156 C 129.316406 216.675781 129.730469 216.203125 129.789062 216.261719 Z M 114.574219 205.265625 C 114.457031 205.207031 114.691406 204.558594 114.808594 204.03125 C 114.925781 203.972656 115.101562 203.855469 115.160156 203.914062 C 115.21875 204.089844 115.277344 204.382812 115.277344 204.675781 C 115.042969 204.914062 114.632812 205.324219 114.574219 205.265625 Z M 121.035156 208.148438 C 121.09375 207.851562 121.09375 207.558594 121.210938 207.265625 C 121.269531 207.089844 121.445312 206.734375 121.5625 206.617188 C 121.738281 206.382812 121.917969 206.324219 122.269531 206.03125 C 121.976562 206.617188 121.800781 207.03125 121.5625 207.382812 C 121.386719 207.675781 121.210938 207.851562 121.035156 208.148438 Z M 119.800781 208.96875 C 119.742188 208.96875 119.859375 208.558594 119.859375 208.324219 C 120.09375 208.089844 120.332031 207.792969 120.507812 207.734375 C 120.566406 207.675781 120.507812 208.089844 120.507812 208.5 C 120.152344 208.734375 119.917969 208.96875 119.800781 208.96875 Z M 123.914062 209.734375 C 123.972656 209.441406 123.972656 209.148438 124.089844 208.851562 C 124.148438 208.675781 124.441406 208.441406 124.792969 207.96875 C 124.617188 208.558594 124.558594 208.851562 124.441406 209.207031 C 124.324219 209.382812 124.089844 209.558594 123.914062 209.734375 Z M 121.738281 211.675781 C 121.917969 211.207031 122.09375 210.734375 122.328125 210.324219 C 122.445312 210.144531 122.621094 209.96875 122.738281 209.792969 C 122.621094 210.265625 122.5625 210.675781 122.503906 211.027344 Z M 109.640625 202.914062 C 109.523438 202.855469 109.582031 202.5 109.582031 202.265625 C 109.816406 202.03125 110.109375 201.796875 110.402344 201.558594 L 110.109375 202.734375 C 109.933594 202.796875 109.699219 202.972656 109.640625 202.914062 Z M 129.730469 220.613281 C 129.964844 220.261719 130.316406 220.027344 130.609375 219.734375 C 130.492188 220.027344 130.375 220.320312 130.257812 220.734375 C 130.023438 221.085938 129.789062 221.378906 129.492188 221.734375 C 129.550781 221.378906 129.613281 220.851562 129.730469 220.613281 Z M 130.257812 218.144531 C 130.257812 218.085938 130.550781 217.792969 130.785156 217.558594 C 130.84375 217.910156 130.84375 218.144531 130.84375 218.4375 C 130.609375 218.675781 130.257812 219.027344 130.082031 219.027344 C 130.023438 219.085938 130.140625 218.496094 130.257812 218.144531 Z M 112.34375 206.5 C 112.28125 206.792969 112.164062 207.089844 112.046875 207.265625 C 111.8125 207.675781 111.519531 208.089844 111.226562 208.441406 C 111.34375 208.148438 111.402344 207.851562 111.519531 207.5 C 111.871094 207.207031 112.105469 206.851562 112.34375 206.5 Z M 109.757812 204.265625 C 109.699219 204.675781 109.640625 205.03125 109.582031 205.382812 C 109.40625 205.441406 109.167969 205.558594 109.167969 205.441406 C 109.230469 205.148438 109.40625 204.734375 109.523438 204.324219 C 109.523438 204.382812 109.699219 204.324219 109.757812 204.265625 Z M 134.429688 221.671875 C 134.25 221.730469 134.074219 221.851562 134.015625 221.792969 C 133.898438 221.671875 133.898438 221.378906 133.839844 221.144531 C 134.015625 221.085938 134.132812 221.027344 134.371094 220.910156 C 134.371094 221.203125 134.429688 221.4375 134.429688 221.671875 Z M 127.847656 218.027344 C 127.90625 217.910156 128.085938 217.734375 128.261719 217.558594 C 128.203125 217.96875 128.085938 218.320312 128.027344 218.734375 C 127.90625 218.851562 127.613281 219.027344 127.613281 219.027344 C 127.613281 218.734375 127.730469 218.378906 127.847656 218.027344 Z M 129.375 218.792969 C 129.316406 219.203125 129.257812 219.554688 129.140625 219.910156 C 129.023438 219.96875 128.789062 220.203125 128.789062 220.085938 C 128.789062 219.851562 128.847656 219.496094 128.90625 219.203125 C 128.964844 219.203125 129.199219 218.96875 129.375 218.792969 Z M 133.546875 225.4375 L 133.429688 226.613281 C 133.3125 226.730469 133.078125 226.964844 133.019531 226.90625 C 132.960938 226.730469 133.019531 226.4375 133.019531 226.320312 C 133.3125 225.847656 133.429688 225.613281 133.546875 225.4375 Z M 120.507812 213.734375 C 120.449219 214.144531 120.332031 214.5 120.273438 214.910156 C 120.152344 214.96875 119.976562 215.203125 119.976562 215.203125 C 119.976562 214.96875 119.917969 214.734375 119.976562 214.441406 C 120.035156 214.382812 120.390625 214.027344 120.507812 213.734375 Z M 132.019531 219.027344 C 132.078125 219.085938 132.078125 219.320312 132.136719 219.496094 C 131.960938 219.613281 131.785156 219.792969 131.726562 219.734375 C 131.667969 219.613281 131.667969 219.378906 131.667969 219.203125 C 131.785156 219.144531 131.960938 218.96875 132.019531 219.027344 Z M 131.726562 220.792969 C 131.726562 221.027344 131.726562 221.144531 131.667969 221.261719 C 131.492188 221.554688 131.316406 221.792969 131.136719 222.085938 C 131.136719 221.96875 131.078125 221.792969 131.136719 221.730469 C 131.316406 221.378906 131.492188 221.144531 131.726562 220.792969 Z M 135.835938 219.675781 C 136.015625 219.378906 136.191406 219.144531 136.367188 218.910156 C 136.308594 219.085938 136.25 219.320312 136.132812 219.613281 C 135.957031 219.792969 135.777344 220.027344 135.601562 220.261719 C 135.71875 220.027344 135.777344 219.792969 135.835938 219.675781 Z M 138.65625 227.964844 C 138.597656 228.144531 138.421875 228.261719 138.304688 228.4375 C 138.304688 228.261719 138.304688 228.085938 138.246094 228.023438 C 138.597656 227.554688 138.714844 227.4375 138.832031 227.261719 C 138.773438 227.554688 138.714844 227.730469 138.65625 227.964844 Z M 109.109375 200.796875 C 108.933594 201.089844 108.816406 201.382812 108.640625 201.675781 C 108.640625 201.675781 108.523438 201.558594 108.523438 201.558594 C 108.699219 201.265625 108.816406 200.972656 108.992188 200.617188 C 108.992188 200.679688 109.109375 200.796875 109.109375 200.796875 Z M 111.929688 198.796875 C 111.929688 198.621094 111.929688 198.441406 111.871094 198.382812 C 112.222656 197.914062 112.34375 197.796875 112.460938 197.621094 C 112.402344 197.855469 112.34375 198.089844 112.28125 198.324219 C 112.222656 198.5 112.046875 198.679688 111.929688 198.796875 Z M 124.734375 210.441406 C 124.792969 210.265625 124.851562 210.027344 124.914062 209.851562 C 125.089844 209.558594 125.265625 209.324219 125.5 208.96875 C 125.382812 209.265625 125.382812 209.5 125.265625 209.675781 C 125.148438 209.96875 124.914062 210.207031 124.734375 210.441406 Z M 125.792969 213.675781 C 125.96875 213.382812 126.144531 213.144531 126.378906 212.792969 C 126.261719 213.085938 126.261719 213.324219 126.144531 213.5 C 125.96875 213.792969 125.792969 214.027344 125.558594 214.261719 C 125.675781 214.027344 125.734375 213.851562 125.792969 213.675781 Z M 125.851562 215.441406 C 125.792969 215.617188 125.734375 215.851562 125.617188 216.144531 C 125.441406 216.378906 125.265625 216.558594 125.089844 216.792969 C 125.148438 216.617188 125.207031 216.378906 125.265625 216.203125 C 125.441406 215.96875 125.675781 215.734375 125.851562 215.441406 Z M 126.96875 216.5 C 126.96875 216.734375 126.96875 216.910156 126.910156 216.96875 C 126.734375 217.261719 126.558594 217.496094 126.378906 217.792969 C 126.378906 217.675781 126.320312 217.496094 126.378906 217.4375 C 126.558594 217.144531 126.734375 216.851562 126.96875 216.5 Z M 128.144531 216.5 C 128.085938 216.378906 128.085938 216.144531 128.085938 215.96875 C 128.203125 215.910156 128.320312 215.851562 128.496094 215.734375 C 128.496094 215.910156 128.496094 216.085938 128.496094 216.320312 C 128.378906 216.378906 128.203125 216.558594 128.144531 216.5 Z M 127.730469 220.203125 C 127.554688 220.613281 127.378906 220.910156 127.203125 221.203125 C 127.144531 221.320312 127.027344 221.320312 126.96875 221.378906 C 127.085938 221.085938 127.203125 220.734375 127.378906 220.4375 C 127.4375 220.320312 127.554688 220.320312 127.730469 220.203125 Z M 130.082031 222.4375 C 129.964844 222.671875 129.90625 222.851562 129.671875 223.4375 C 129.613281 223.4375 129.492188 223.496094 129.375 223.554688 C 129.492188 223.378906 129.550781 223.085938 129.613281 222.96875 C 129.730469 222.671875 129.90625 222.554688 130.082031 222.4375 Z M 116.921875 210.675781 C 116.863281 210.851562 116.746094 211.085938 116.511719 211.675781 C 116.453125 211.675781 116.335938 211.734375 116.21875 211.792969 C 116.277344 211.617188 116.394531 211.324219 116.453125 211.207031 C 116.628906 210.96875 116.804688 210.851562 116.921875 210.675781 Z M 137.71875 230.671875 C 137.777344 230.613281 137.894531 230.496094 137.894531 230.496094 C 137.894531 230.554688 137.894531 230.730469 137.894531 230.847656 C 137.835938 230.90625 137.777344 230.964844 137.660156 231.023438 C 137.71875 230.90625 137.777344 230.789062 137.71875 230.671875 Z M 140.242188 226.554688 C 140.242188 226.554688 140.183594 226.730469 140.183594 226.847656 C 140.125 226.90625 140.007812 226.90625 139.949219 226.964844 C 139.949219 226.847656 139.949219 226.789062 140.007812 226.671875 C 140.066406 226.613281 140.183594 226.554688 140.242188 226.554688 Z M 136.835938 229.378906 C 136.835938 229.4375 136.835938 229.613281 136.777344 229.671875 C 136.660156 229.847656 136.542969 229.964844 136.484375 230.082031 C 136.484375 230.023438 136.542969 229.90625 136.542969 229.789062 C 136.601562 229.613281 136.71875 229.496094 136.835938 229.378906 Z M 138.773438 225.730469 C 138.890625 225.554688 139.007812 225.4375 139.070312 225.320312 C 139.070312 225.4375 139.007812 225.496094 139.007812 225.613281 C 138.890625 225.730469 138.773438 225.847656 138.714844 225.96875 C 138.714844 225.90625 138.714844 225.789062 138.773438 225.730469 Z M 135.660156 228.320312 C 135.660156 228.378906 135.601562 228.496094 135.601562 228.613281 C 135.484375 228.730469 135.367188 228.847656 135.308594 228.964844 C 135.367188 228.90625 135.367188 228.730469 135.367188 228.671875 C 135.425781 228.554688 135.542969 228.4375 135.660156 228.320312 Z M 134.191406 227.4375 C 134.25 227.378906 134.371094 227.261719 134.371094 227.261719 C 134.371094 227.320312 134.371094 227.496094 134.371094 227.613281 C 134.3125 227.671875 134.25 227.730469 134.132812 227.789062 C 134.191406 227.730469 134.191406 227.554688 134.191406 227.4375 Z M 134.898438 224.789062 C 134.898438 224.847656 134.898438 225.027344 134.898438 225.144531 C 134.839844 225.203125 134.722656 225.320312 134.722656 225.320312 C 134.664062 225.261719 134.722656 225.085938 134.722656 224.96875 C 134.78125 224.847656 134.898438 224.730469 134.898438 224.789062 Z M 132.019531 225.144531 C 132.019531 225.261719 132.019531 225.378906 132.019531 225.496094 C 131.960938 225.554688 131.84375 225.671875 131.84375 225.671875 C 131.84375 225.613281 131.84375 225.4375 131.84375 225.320312 C 131.84375 225.261719 131.902344 225.203125 132.019531 225.144531 Z M 130.609375 224.261719 C 130.667969 224.203125 130.785156 224.085938 130.785156 224.085938 C 130.785156 224.144531 130.785156 224.320312 130.785156 224.4375 C 130.726562 224.496094 130.667969 224.554688 130.609375 224.613281 C 130.609375 224.496094 130.609375 224.378906 130.609375 224.261719 Z M 133.136719 220.144531 C 133.078125 220.261719 133.078125 220.320312 133.078125 220.4375 C 132.960938 220.496094 132.902344 220.496094 132.84375 220.554688 C 132.84375 220.554688 132.902344 220.378906 132.902344 220.261719 C 132.960938 220.203125 133.019531 220.144531 133.136719 220.144531 Z M 126.675781 209.148438 C 126.734375 208.96875 126.792969 208.792969 126.851562 208.617188 C 126.910156 208.558594 126.96875 208.5 127.027344 208.441406 C 126.96875 208.617188 126.910156 208.792969 126.851562 208.910156 C 126.851562 209.085938 126.734375 209.085938 126.675781 209.148438 Z M 131.257812 215.441406 C 131.257812 215.441406 131.199219 215.617188 131.199219 215.734375 C 131.136719 215.792969 131.019531 215.792969 130.960938 215.851562 C 130.960938 215.734375 131.019531 215.675781 131.019531 215.558594 C 131.078125 215.5 131.199219 215.441406 131.257812 215.441406 Z M 130.199219 214.734375 C 130.082031 214.910156 129.964844 214.96875 129.90625 215.144531 C 129.964844 215.027344 129.964844 214.910156 129.964844 214.851562 C 130.082031 214.675781 130.199219 214.558594 130.257812 214.441406 C 130.257812 214.5 130.257812 214.675781 130.199219 214.734375 Z M 124.617188 218.910156 C 124.675781 218.851562 124.792969 218.734375 124.792969 218.734375 C 124.792969 218.792969 124.792969 218.96875 124.792969 219.085938 C 124.734375 219.144531 124.675781 219.203125 124.617188 219.261719 C 124.617188 219.144531 124.675781 219.027344 124.617188 218.910156 Z M 126.792969 215.320312 C 126.851562 215.144531 126.910156 214.96875 126.96875 214.792969 C 127.027344 214.734375 127.085938 214.675781 127.144531 214.617188 C 127.085938 214.792969 127.027344 214.96875 126.96875 215.144531 C 126.96875 215.261719 126.851562 215.261719 126.792969 215.320312 Z M 124.265625 215.085938 C 124.265625 215.144531 124.207031 215.261719 124.207031 215.378906 C 124.089844 215.5 123.972656 215.617188 123.914062 215.734375 C 123.972656 215.675781 123.972656 215.5 123.972656 215.441406 C 124.03125 215.320312 124.148438 215.203125 124.265625 215.085938 Z M 126.4375 211.5 C 126.378906 211.558594 126.261719 211.675781 126.261719 211.675781 C 126.261719 211.558594 126.261719 211.441406 126.261719 211.382812 C 126.320312 211.324219 126.378906 211.265625 126.4375 211.207031 C 126.4375 211.265625 126.4375 211.382812 126.4375 211.5 Z M 124.734375 212.617188 C 124.734375 212.734375 124.734375 212.851562 124.734375 212.96875 C 124.675781 213.027344 124.558594 213.144531 124.558594 213.144531 C 124.558594 213.085938 124.558594 212.910156 124.558594 212.851562 C 124.558594 212.734375 124.617188 212.675781 124.734375 212.617188 Z M 110.109375 200.382812 C 110.167969 200.207031 110.226562 200.03125 110.285156 199.855469 C 110.34375 199.796875 110.402344 199.738281 110.460938 199.679688 C 110.402344 199.855469 110.34375 200.03125 110.285156 200.148438 C 110.285156 200.265625 110.167969 200.324219 110.109375 200.382812 Z M 114.457031 206.675781 C 114.339844 206.792969 114.222656 206.910156 114.164062 207.03125 C 114.222656 206.96875 114.222656 206.792969 114.222656 206.734375 C 114.339844 206.558594 114.457031 206.441406 114.515625 206.324219 C 114.515625 206.441406 114.515625 206.558594 114.457031 206.675781 Z M 113.929688 203.734375 C 113.988281 203.558594 114.046875 203.382812 114.105469 203.207031 C 114.105469 203.148438 114.222656 203.089844 114.28125 203.03125 C 114.222656 203.207031 114.164062 203.382812 114.105469 203.558594 C 114.046875 203.675781 113.929688 203.734375 113.929688 203.734375 Z M 109.816406 208.675781 C 109.875 208.617188 109.992188 208.5 109.992188 208.5 C 109.992188 208.558594 109.992188 208.734375 109.992188 208.851562 C 109.933594 208.910156 109.875 208.96875 109.757812 209.027344 C 109.816406 208.910156 109.816406 208.792969 109.816406 208.675781 Z M 110.578125 205.972656 C 110.578125 206.089844 110.578125 206.207031 110.578125 206.324219 C 110.519531 206.382812 110.402344 206.5 110.402344 206.5 C 110.402344 206.441406 110.402344 206.265625 110.402344 206.207031 C 110.402344 206.089844 110.460938 206.03125 110.578125 205.972656 Z M 111.519531 200.617188 C 111.460938 200.796875 111.402344 200.972656 111.34375 201.089844 C 111.285156 201.148438 111.167969 201.207031 111.167969 201.265625 C 111.226562 201.089844 111.285156 200.914062 111.34375 200.796875 C 111.34375 200.738281 111.460938 200.679688 111.519531 200.617188 Z M 133.605469 139.453125 C 134.074219 138.984375 134.488281 138.984375 134.898438 138.511719 C 135.777344 137.574219 135.898438 137.574219 136.015625 137.75 C 136.074219 137.808594 135.542969 138.453125 135.308594 138.984375 C 135.074219 139.511719 133.957031 140.628906 134.3125 140.691406 C 134.3125 140.691406 134.015625 141.160156 133.957031 141.21875 C 133.3125 141.808594 132.664062 142.453125 132.136719 142.925781 C 131.492188 143.453125 131.375 143.160156 131.902344 142.335938 C 132.84375 140.808594 132.84375 140.808594 131.667969 141.808594 C 131.433594 141.984375 131.316406 141.925781 131.199219 141.984375 C 131.492188 141.628906 131.785156 141.160156 132.078125 140.925781 C 132.546875 140.394531 132.960938 140.21875 133.605469 139.453125 Z M 140.300781 143.101562 C 140.773438 142.6875 141.183594 142.394531 141.652344 141.984375 C 141.828125 141.808594 142.300781 141.277344 142.359375 141.21875 C 142.476562 140.984375 142.535156 140.75 142.476562 140.628906 C 142.417969 140.277344 141.828125 141.101562 141.300781 141.6875 C 141.125 141.925781 140.65625 142.277344 140.714844 142.277344 C 140.773438 141.984375 140.949219 141.6875 141.066406 141.277344 C 141.066406 141.21875 141.476562 140.867188 141.652344 140.691406 C 142.242188 140.101562 142.886719 139.570312 143.472656 139.042969 C 143.769531 138.808594 143.945312 138.75 144.238281 138.511719 C 144.0625 138.867188 144.003906 139.101562 143.828125 139.394531 C 143.472656 139.984375 143.003906 140.570312 142.652344 141.101562 C 142.300781 141.628906 142.121094 142.042969 141.535156 142.453125 C 141.125 142.75 140.476562 143.453125 139.949219 143.925781 C 139.65625 144.21875 139.304688 144.511719 139.714844 143.867188 C 139.832031 143.746094 140.125 143.21875 140.300781 143.101562 Z M 149.464844 147.570312 C 149.289062 147.511719 148.820312 148.101562 148.527344 148.628906 C 148.289062 148.980469 148.113281 149.570312 147.878906 149.335938 C 147.761719 149.21875 147.703125 149.039062 148.113281 148.394531 C 148.703125 147.453125 148.9375 147.570312 149.289062 147.21875 C 149.816406 146.746094 150.347656 146.335938 150.816406 145.925781 C 150.933594 145.804688 150.992188 145.804688 151.109375 145.746094 C 150.992188 145.925781 150.816406 146.160156 150.699219 146.335938 C 150.171875 146.984375 149.699219 147.6875 149.464844 147.570312 Z M 130.023438 142.042969 C 129.847656 141.984375 130.492188 140.867188 130.902344 140.394531 C 131.136719 140.160156 131.316406 140.101562 131.316406 140.101562 C 131.785156 140.101562 131.257812 140.75 130.726562 141.394531 C 130.492188 141.6875 130.082031 142.101562 130.023438 142.042969 Z M 139.304688 140.925781 C 139.363281 140.808594 139.480469 140.511719 139.539062 140.394531 C 139.65625 139.984375 139.539062 139.691406 140.535156 138.984375 C 141.007812 138.691406 141.535156 138.160156 142.0625 137.75 C 142.242188 137.574219 142.417969 137.515625 142.59375 137.335938 C 142.359375 137.75 142.183594 138.101562 141.945312 138.453125 C 141.769531 138.691406 141.183594 139.21875 141.183594 139.21875 C 141.066406 138.984375 140.832031 139.042969 139.832031 140.277344 C 139.539062 140.75 139.421875 140.925781 139.304688 140.925781 C 139.480469 141.042969 139.597656 141.042969 139.539062 141.21875 C 139.539062 141.394531 139.128906 141.984375 139.070312 142.101562 C 138.714844 142.453125 138.363281 142.6875 138.011719 142.984375 C 138.304688 142.453125 138.65625 141.925781 139.304688 140.925781 C 139.246094 140.925781 139.246094 140.925781 139.304688 140.925781 Z M 135.25 140.453125 C 135.542969 139.925781 135.898438 139.394531 136.25 138.867188 C 136.308594 138.75 136.601562 138.574219 137.128906 138.101562 C 136.542969 138.925781 136.191406 139.394531 135.835938 139.925781 C 135.660156 140.101562 135.425781 140.277344 135.25 140.453125 Z M 137.660156 138.632812 C 137.128906 139.570312 136.953125 139.984375 136.71875 140.21875 C 136.425781 140.511719 136.132812 140.75 135.835938 140.984375 C 136.132812 140.570312 136.308594 140.160156 136.601562 139.75 C 136.894531 139.394531 137.246094 139.101562 137.660156 138.632812 Z M 136.425781 136.808594 C 136.25 136.75 136.132812 136.808594 136.074219 136.691406 C 136.015625 136.632812 136.132812 136.394531 136.191406 136.21875 C 136.425781 136.042969 136.660156 135.808594 136.835938 135.75 C 136.953125 135.691406 137.011719 135.75 136.953125 135.867188 C 136.835938 136.042969 136.660156 136.335938 136.425781 136.808594 Z M 146.46875 143.628906 C 146.527344 143.453125 146.527344 143.21875 146.585938 143.042969 C 146.882812 142.808594 147.410156 142.277344 147.410156 142.394531 C 147.410156 142.570312 147.175781 143.042969 147 143.335938 C 146.820312 143.453125 146.644531 143.570312 146.46875 143.628906 Z M 137.601562 135.75 C 137.542969 135.691406 137.894531 135.160156 138.128906 134.691406 C 138.246094 134.632812 138.480469 134.457031 138.480469 134.515625 C 138.480469 134.691406 138.421875 134.925781 138.363281 135.101562 C 138.128906 135.335938 137.601562 135.808594 137.601562 135.75 Z M 142.242188 137.042969 C 142.359375 136.808594 142.476562 136.574219 142.652344 136.277344 C 142.769531 136.101562 143.003906 135.808594 143.179688 135.691406 C 143.414062 135.457031 143.589844 135.335938 143.945312 135.101562 C 143.53125 135.632812 143.238281 135.984375 142.945312 136.394531 C 142.710938 136.574219 142.476562 136.808594 142.242188 137.042969 Z M 140.949219 137.984375 C 140.890625 137.984375 141.125 137.632812 141.183594 137.394531 C 141.417969 137.160156 141.710938 136.867188 141.886719 136.75 C 141.945312 136.691406 141.769531 137.042969 141.652344 137.394531 C 141.359375 137.691406 141.066406 137.984375 140.949219 137.984375 Z M 144.296875 137.867188 C 144.414062 137.574219 144.53125 137.394531 144.707031 137.042969 C 144.824219 136.925781 145.117188 136.632812 145.589844 136.21875 C 145.296875 136.75 145.117188 137.042969 144.941406 137.335938 C 144.765625 137.515625 144.472656 137.691406 144.296875 137.867188 Z M 143.296875 138.160156 C 143.0625 138.574219 142.886719 138.925781 142.710938 139.21875 L 141.828125 139.925781 C 142.121094 139.511719 142.417969 139.101562 142.710938 138.691406 C 142.886719 138.453125 143.121094 138.277344 143.296875 138.160156 Z M 134.015625 134.632812 C 133.957031 134.574219 134.074219 134.277344 134.132812 134.101562 C 134.429688 133.867188 134.722656 133.632812 135.074219 133.339844 L 134.488281 134.398438 C 134.371094 134.457031 134.074219 134.691406 134.015625 134.632812 Z M 146.058594 146.101562 C 146.351562 145.746094 146.703125 145.511719 147.058594 145.21875 C 146.882812 145.511719 146.703125 145.746094 146.46875 146.101562 C 146.175781 146.453125 145.882812 146.746094 145.53125 147.101562 C 145.707031 146.746094 145.882812 146.335938 146.058594 146.101562 Z M 147.234375 143.925781 C 147.234375 143.867188 147.644531 143.570312 147.878906 143.335938 C 147.820312 143.628906 147.761719 143.867188 147.703125 144.042969 C 147.410156 144.277344 147 144.628906 146.882812 144.6875 C 146.761719 144.746094 147.058594 144.21875 147.234375 143.925781 Z M 135.308594 137.160156 C 135.132812 137.394531 135.015625 137.632812 134.839844 137.867188 C 134.488281 138.277344 134.132812 138.632812 133.78125 139.042969 C 133.957031 138.75 134.132812 138.511719 134.3125 138.21875 C 134.722656 137.867188 135.015625 137.515625 135.308594 137.160156 Z M 133.722656 135.75 C 133.546875 136.101562 133.371094 136.457031 133.195312 136.75 C 133.078125 136.808594 132.785156 136.984375 132.84375 136.867188 C 133.019531 136.632812 133.253906 136.21875 133.488281 135.867188 C 133.546875 135.867188 133.664062 135.808594 133.722656 135.75 Z M 149.40625 146.335938 C 149.347656 146.277344 149.40625 145.984375 149.464844 145.863281 C 149.640625 145.804688 149.757812 145.6875 149.933594 145.570312 C 149.875 145.804688 149.816406 145.984375 149.757812 146.21875 C 149.640625 146.21875 149.464844 146.394531 149.40625 146.335938 Z M 145.175781 144.21875 C 145.234375 144.101562 145.472656 143.925781 145.648438 143.746094 C 145.472656 144.101562 145.296875 144.453125 145.058594 144.804688 C 144.882812 144.925781 144.648438 145.160156 144.648438 145.101562 C 144.824219 144.867188 145 144.570312 145.175781 144.21875 Z M 145.472656 145.804688 C 145.53125 145.628906 145.648438 145.335938 145.824219 145.042969 C 145.824219 144.984375 146.175781 144.746094 146.351562 144.570312 C 146.175781 144.925781 146 145.277344 145.824219 145.570312 C 145.648438 145.6875 145.414062 145.925781 145.472656 145.804688 Z M 147.058594 150.863281 C 147.058594 150.746094 147.175781 150.453125 147.234375 150.335938 C 147.644531 149.863281 147.761719 149.628906 147.9375 149.453125 L 147.46875 150.511719 C 147.351562 150.628906 147.058594 150.921875 147.058594 150.863281 Z M 140.183594 141.925781 C 140.007812 142.277344 139.832031 142.628906 139.597656 142.984375 C 139.539062 143.042969 139.304688 143.277344 139.246094 143.277344 C 139.304688 143.101562 139.304688 142.925781 139.480469 142.628906 C 139.597656 142.511719 139.949219 142.160156 140.183594 141.925781 Z M 148.46875 144.746094 C 148.289062 144.867188 148.054688 145.042969 148.054688 144.984375 C 148.054688 144.925781 148.113281 144.6875 148.171875 144.511719 C 148.289062 144.453125 148.46875 144.277344 148.527344 144.277344 C 148.527344 144.394531 148.46875 144.570312 148.46875 144.746094 Z M 146.941406 146.746094 C 147.175781 146.453125 147.410156 146.21875 147.703125 145.863281 C 147.644531 146.042969 147.585938 146.21875 147.527344 146.277344 C 147.292969 146.570312 147.058594 146.804688 146.820312 147.042969 C 146.882812 146.984375 146.882812 146.863281 146.941406 146.746094 Z M 151.285156 144.746094 C 151.402344 144.570312 151.519531 144.335938 151.640625 144.21875 C 151.875 143.925781 152.109375 143.746094 152.34375 143.453125 C 152.226562 143.628906 152.109375 143.808594 151.992188 144.042969 C 151.757812 144.277344 151.519531 144.511719 151.285156 144.746094 Z M 151.933594 150.160156 C 151.816406 150.394531 151.699219 150.570312 151.582031 150.746094 C 151.460938 150.921875 151.285156 151.039062 151.109375 151.21875 C 151.167969 151.097656 151.167969 150.921875 151.167969 150.863281 C 151.640625 150.453125 151.757812 150.335938 151.933594 150.160156 Z M 133.429688 133.691406 C 133.664062 133.398438 133.839844 133.160156 134.132812 132.808594 C 134.132812 132.867188 134.191406 132.925781 134.191406 132.925781 C 133.957031 133.21875 133.722656 133.457031 133.546875 133.75 C 133.488281 133.808594 133.429688 133.75 133.429688 133.691406 Z M 137.246094 130.75 C 137.304688 130.632812 137.304688 130.457031 137.304688 130.398438 C 137.71875 129.925781 137.894531 129.808594 138.070312 129.632812 C 137.953125 129.867188 137.835938 130.042969 137.71875 130.28125 C 137.542969 130.457031 137.363281 130.632812 137.246094 130.75 Z M 129.550781 143.394531 C 129.492188 143.394531 129.375 143.453125 129.257812 143.511719 C 129.375 143.335938 129.550781 143.101562 129.671875 142.984375 C 129.847656 142.808594 130.023438 142.6875 130.199219 142.511719 C 130.082031 142.6875 129.90625 142.867188 129.550781 143.394531 Z M 144.765625 138.394531 C 144.882812 138.21875 145 138.042969 145.117188 137.867188 C 145.355469 137.574219 145.589844 137.335938 145.882812 137.042969 C 145.707031 137.335938 145.589844 137.515625 145.472656 137.691406 C 145.234375 137.925781 145 138.160156 144.765625 138.394531 Z M 144.414062 141.453125 C 144.53125 141.277344 144.648438 141.042969 144.765625 140.925781 C 145 140.628906 145.234375 140.394531 145.53125 140.101562 C 145.355469 140.394531 145.234375 140.570312 145.117188 140.75 C 144.882812 140.984375 144.648438 141.21875 144.414062 141.453125 Z M 144.238281 142.453125 C 144.121094 142.628906 144.003906 142.808594 143.886719 143.042969 C 143.707031 143.21875 143.472656 143.453125 143.238281 143.6875 C 143.355469 143.511719 143.472656 143.277344 143.589844 143.160156 C 143.769531 142.925781 144.003906 142.6875 144.238281 142.453125 Z M 144.121094 143.984375 C 144.355469 143.6875 144.589844 143.453125 144.882812 143.101562 C 144.824219 143.277344 144.765625 143.453125 144.707031 143.511719 C 144.472656 143.746094 144.238281 144.042969 144.003906 144.277344 C 144.0625 144.21875 144.0625 144.101562 144.121094 143.984375 Z M 145.941406 142.867188 C 145.941406 142.808594 146 142.570312 146.058594 142.394531 C 146.175781 142.277344 146.292969 142.21875 146.46875 142.101562 C 146.410156 142.277344 146.351562 142.453125 146.292969 142.628906 C 146.117188 142.75 145.941406 142.925781 145.941406 142.867188 Z M 144.472656 146.101562 C 144.179688 146.453125 144.003906 146.746094 143.769531 147.042969 C 143.707031 147.101562 143.589844 147.160156 143.472656 147.21875 C 143.648438 146.921875 143.886719 146.628906 144.121094 146.335938 C 144.179688 146.277344 144.296875 146.21875 144.472656 146.101562 Z M 144.882812 148.628906 C 145 148.453125 145.117188 148.21875 145.234375 148.101562 C 145.414062 147.921875 145.589844 147.804688 145.765625 147.628906 C 145.648438 147.804688 145.53125 147.980469 145.175781 148.511719 C 145.175781 148.453125 145.058594 148.570312 144.882812 148.628906 Z M 138.011719 139.925781 C 137.894531 140.101562 137.777344 140.277344 137.421875 140.808594 C 137.363281 140.808594 137.246094 140.867188 137.128906 140.925781 C 137.246094 140.75 137.421875 140.511719 137.542969 140.394531 C 137.71875 140.21875 137.835938 140.042969 138.011719 139.925781 Z M 137.777344 144.160156 C 137.835938 144.21875 137.71875 144.453125 137.660156 144.570312 C 137.542969 144.6875 137.421875 144.746094 137.246094 144.867188 C 137.304688 144.746094 137.363281 144.511719 137.421875 144.394531 C 137.601562 144.21875 137.777344 144.101562 137.777344 144.160156 Z M 150.230469 153.039062 C 150.230469 153.097656 150.171875 153.214844 150.171875 153.335938 C 150.113281 153.394531 150.054688 153.453125 149.933594 153.511719 C 149.992188 153.394531 149.992188 153.335938 150.054688 153.214844 C 150.054688 153.15625 150.230469 153.039062 150.230469 153.039062 Z M 152.988281 149.6875 C 153.046875 149.570312 153.105469 149.511719 153.105469 149.394531 C 153.167969 149.335938 153.285156 149.277344 153.34375 149.277344 C 153.34375 149.277344 153.285156 149.453125 153.226562 149.511719 C 153.105469 149.570312 153.046875 149.628906 152.988281 149.6875 Z M 149.582031 152.277344 C 149.523438 152.335938 149.464844 152.453125 149.464844 152.511719 C 149.347656 152.6875 149.230469 152.804688 149.113281 152.921875 C 149.171875 152.863281 149.230469 152.746094 149.230469 152.628906 C 149.347656 152.511719 149.464844 152.394531 149.582031 152.277344 Z M 152.167969 149.101562 C 152.226562 149.039062 152.285156 148.921875 152.285156 148.863281 C 152.402344 148.6875 152.519531 148.570312 152.636719 148.453125 C 152.578125 148.511719 152.519531 148.628906 152.519531 148.746094 C 152.460938 148.863281 152.34375 148.980469 152.167969 149.101562 Z M 148.878906 151.570312 C 148.820312 151.628906 148.761719 151.746094 148.761719 151.863281 C 148.644531 151.980469 148.527344 152.097656 148.40625 152.214844 C 148.46875 152.15625 148.46875 152.039062 148.527344 151.980469 C 148.644531 151.804688 148.761719 151.6875 148.878906 151.570312 Z M 147.996094 151.21875 C 147.9375 151.277344 147.878906 151.335938 147.761719 151.394531 C 147.820312 151.277344 147.820312 151.21875 147.878906 151.097656 C 147.9375 151.039062 148.054688 150.921875 148.054688 150.921875 C 148.054688 151.039062 148.054688 151.15625 147.996094 151.21875 Z M 148.996094 149.160156 C 148.996094 149.101562 149.054688 148.980469 149.054688 148.863281 C 149.113281 148.804688 149.289062 148.6875 149.289062 148.6875 C 149.289062 148.746094 149.230469 148.863281 149.230469 148.980469 C 149.113281 149.039062 148.996094 149.160156 148.996094 149.160156 Z M 146.585938 149.863281 C 146.527344 149.921875 146.410156 150.039062 146.410156 150.039062 C 146.410156 149.980469 146.46875 149.863281 146.46875 149.746094 C 146.527344 149.6875 146.585938 149.628906 146.703125 149.570312 C 146.644531 149.628906 146.585938 149.746094 146.585938 149.863281 Z M 145.648438 149.335938 C 145.707031 149.21875 145.707031 149.160156 145.765625 149.039062 C 145.824219 148.980469 146 148.863281 146 148.863281 C 146 148.921875 145.941406 149.039062 145.941406 149.160156 C 145.824219 149.21875 145.707031 149.277344 145.648438 149.335938 Z M 148.761719 145.453125 C 148.761719 145.453125 148.820312 145.277344 148.878906 145.21875 C 148.9375 145.160156 149.054688 145.101562 149.113281 145.042969 C 149.054688 145.160156 148.996094 145.21875 148.996094 145.335938 C 148.878906 145.394531 148.820312 145.453125 148.761719 145.453125 Z M 146.820312 136.925781 C 146.941406 136.75 147 136.632812 147.117188 136.457031 C 147.175781 136.394531 147.292969 136.335938 147.351562 136.277344 C 147.234375 136.457031 147.175781 136.574219 147.058594 136.75 C 147 136.808594 146.882812 136.867188 146.820312 136.925781 Z M 148.46875 141.867188 C 148.527344 141.75 148.585938 141.6875 148.585938 141.570312 C 148.644531 141.511719 148.761719 141.453125 148.820312 141.453125 C 148.820312 141.453125 148.761719 141.628906 148.703125 141.6875 C 148.644531 141.75 148.585938 141.808594 148.46875 141.867188 Z M 147.878906 141.394531 C 147.9375 141.335938 147.9375 141.21875 147.996094 141.160156 C 148.113281 140.984375 148.230469 140.867188 148.40625 140.75 C 148.347656 140.808594 148.289062 140.925781 148.289062 140.984375 C 148.113281 141.160156 147.996094 141.277344 147.878906 141.394531 Z M 142.417969 145.394531 C 142.417969 145.453125 142.359375 145.570312 142.359375 145.6875 C 142.300781 145.746094 142.183594 145.804688 142.121094 145.863281 C 142.183594 145.746094 142.183594 145.6875 142.242188 145.570312 C 142.300781 145.511719 142.417969 145.335938 142.417969 145.394531 Z M 145.296875 141.925781 C 145.234375 141.984375 145.175781 142.042969 145.117188 142.101562 C 145.234375 141.925781 145.296875 141.808594 145.414062 141.628906 C 145.53125 141.570312 145.589844 141.511719 145.648438 141.453125 C 145.53125 141.628906 145.414062 141.808594 145.296875 141.925781 Z M 143.003906 142.335938 C 142.945312 142.394531 142.886719 142.511719 142.886719 142.628906 C 142.769531 142.75 142.652344 142.867188 142.535156 142.984375 C 142.59375 142.925781 142.59375 142.808594 142.652344 142.75 C 142.769531 142.570312 142.886719 142.453125 143.003906 142.335938 Z M 145.707031 139.101562 C 145.707031 139.042969 145.765625 138.925781 145.765625 138.808594 C 145.824219 138.75 145.882812 138.691406 146 138.632812 C 145.941406 138.75 145.941406 138.808594 145.882812 138.925781 C 145.882812 138.984375 145.707031 139.101562 145.707031 139.101562 Z M 143.828125 140.628906 C 143.828125 140.570312 143.886719 140.453125 143.886719 140.335938 C 143.945312 140.277344 144.003906 140.21875 144.121094 140.160156 C 144.0625 140.277344 144.0625 140.394531 144.003906 140.453125 C 143.945312 140.570312 143.828125 140.691406 143.828125 140.628906 Z M 135.191406 132.398438 C 135.308594 132.222656 135.367188 132.101562 135.484375 131.925781 C 135.601562 131.867188 135.660156 131.808594 135.71875 131.75 C 135.601562 131.925781 135.542969 132.042969 135.367188 132.222656 C 135.367188 132.28125 135.25 132.339844 135.191406 132.398438 Z M 137.128906 136.925781 C 137.011719 137.042969 136.894531 137.160156 136.777344 137.277344 C 136.835938 137.21875 136.835938 137.101562 136.894531 137.042969 C 137.011719 136.867188 137.128906 136.75 137.304688 136.632812 C 137.1875 136.75 137.128906 136.867188 137.128906 136.925781 Z M 137.953125 133.984375 C 137.835938 134.160156 137.777344 134.277344 137.660156 134.457031 C 137.601562 134.515625 137.484375 134.574219 137.421875 134.632812 C 137.542969 134.457031 137.601562 134.339844 137.71875 134.160156 C 137.777344 134.101562 137.894531 134.042969 137.953125 133.984375 Z M 132.429688 139.75 C 132.488281 139.632812 132.488281 139.570312 132.546875 139.453125 C 132.605469 139.394531 132.785156 139.277344 132.785156 139.277344 C 132.785156 139.335938 132.722656 139.453125 132.722656 139.570312 C 132.546875 139.632812 132.488281 139.691406 132.429688 139.75 Z M 133.664062 137.515625 C 133.664062 137.453125 133.722656 137.335938 133.722656 137.21875 C 133.78125 137.160156 133.839844 137.101562 133.957031 137.042969 C 133.898438 137.160156 133.898438 137.21875 133.839844 137.335938 C 133.78125 137.394531 133.664062 137.515625 133.664062 137.515625 Z M 135.777344 132.984375 C 135.898438 132.808594 135.957031 132.691406 136.074219 132.515625 C 136.132812 132.457031 136.191406 132.398438 136.308594 132.339844 C 136.191406 132.515625 136.132812 132.632812 136.015625 132.808594 C 135.957031 132.867188 135.835938 132.925781 135.777344 132.984375 Z M 264.242188 189.09375 C 263.714844 188.621094 263.304688 188.210938 262.832031 187.796875 C 262.773438 187.679688 262.714844 187.621094 262.65625 187.5625 C 262.890625 187.679688 263.070312 187.738281 263.246094 187.855469 C 263.832031 188.210938 264.597656 188.621094 264.476562 188.855469 C 264.417969 189.03125 265.007812 189.386719 265.59375 189.621094 C 265.945312 189.796875 266.535156 189.914062 266.359375 190.152344 C 266.242188 190.269531 266.121094 190.386719 265.476562 190.03125 C 264.535156 189.679688 264.597656 189.445312 264.242188 189.09375 Z M 259.898438 191.445312 C 260.074219 191.445312 260.542969 191.621094 260.894531 191.738281 C 261.011719 191.855469 261.070312 192.03125 261.1875 192.148438 C 261.011719 192.148438 260.835938 192.148438 260.601562 192.089844 C 260.367188 191.914062 259.835938 191.503906 259.898438 191.445312 Z M 263.539062 192.269531 C 263.128906 192.03125 262.890625 191.738281 262.539062 191.445312 C 262.832031 191.5625 263.128906 191.738281 263.480469 191.914062 C 263.832031 192.148438 264.183594 192.386719 264.535156 192.679688 C 264.183594 192.503906 263.773438 192.386719 263.539062 192.269531 Z M 260.71875 190.914062 C 261.011719 190.972656 261.246094 190.972656 261.421875 190.972656 C 261.660156 191.210938 262.070312 191.5625 262.128906 191.679688 C 262.128906 191.738281 261.660156 191.5625 261.363281 191.445312 C 261.304688 191.445312 260.953125 191.148438 260.71875 190.914062 Z M 263.304688 189.09375 C 263.246094 189.152344 263.011719 189.09375 262.832031 189.152344 C 262.714844 189.03125 262.65625 188.855469 262.539062 188.738281 C 262.714844 188.738281 262.949219 188.796875 263.128906 188.796875 C 263.1875 188.855469 263.363281 189.03125 263.304688 189.09375 Z M 261.363281 192.914062 C 261.71875 193.089844 262.070312 193.207031 262.421875 193.328125 C 262.539062 193.445312 262.773438 193.679688 262.773438 193.679688 C 262.480469 193.5625 262.1875 193.445312 261.894531 193.328125 C 261.777344 193.265625 261.601562 193.03125 261.363281 192.914062 Z M 262.597656 192.621094 C 262.539062 192.621094 262.304688 192.386719 262.128906 192.207031 C 262.480469 192.328125 262.773438 192.445312 263.128906 192.5625 C 263.246094 192.679688 263.421875 192.855469 263.363281 192.855469 C 263.1875 192.855469 262.890625 192.738281 262.597656 192.621094 Z M 267.53125 190.386719 C 267.648438 190.503906 267.945312 190.738281 267.886719 190.738281 C 267.769531 190.738281 267.53125 190.679688 267.414062 190.679688 C 266.945312 190.386719 266.710938 190.269531 266.535156 190.089844 Z M 261.777344 190.503906 C 261.660156 190.386719 261.484375 190.269531 261.542969 190.210938 C 261.601562 190.152344 261.777344 190.210938 261.894531 190.210938 C 262.011719 190.386719 262.1875 190.503906 262.1875 190.5625 C 262.1875 190.5625 261.953125 190.503906 261.777344 190.503906 Z M 263.539062 190.796875 C 263.832031 190.972656 264.125 191.210938 264.359375 191.386719 C 264.242188 191.386719 264.125 191.386719 264.066406 191.328125 C 263.773438 191.148438 263.480469 190.914062 263.128906 190.738281 C 263.304688 190.796875 263.421875 190.796875 263.539062 190.796875 Z M 260.308594 186.679688 C 260.484375 186.738281 260.660156 186.855469 260.953125 186.972656 C 261.128906 187.152344 261.421875 187.328125 261.660156 187.503906 C 261.484375 187.445312 261.246094 187.386719 261.128906 187.269531 C 260.777344 187.09375 260.542969 186.914062 260.308594 186.679688 Z M 266.652344 186.210938 C 266.886719 186.328125 267.0625 186.386719 267.296875 186.503906 C 267.472656 186.621094 267.648438 186.738281 267.828125 186.855469 C 267.707031 186.855469 267.589844 186.796875 267.472656 186.796875 C 266.945312 186.503906 266.769531 186.328125 266.652344 186.210938 Z M 259.367188 194.386719 C 259.191406 194.324219 258.957031 194.265625 258.839844 194.148438 C 258.546875 193.972656 258.3125 193.796875 257.957031 193.503906 C 258.25 193.621094 258.429688 193.679688 258.605469 193.796875 C 258.839844 194.03125 259.132812 194.207031 259.367188 194.386719 Z M 261.601562 195.265625 C 261.421875 195.207031 261.1875 195.089844 261.070312 195.03125 C 260.777344 194.855469 260.542969 194.679688 260.308594 194.445312 C 260.484375 194.503906 260.660156 194.621094 260.953125 194.738281 C 261.128906 194.914062 261.363281 195.089844 261.601562 195.265625 Z M 261.246094 193.855469 C 261.542969 194.03125 261.777344 194.265625 262.070312 194.445312 C 262.011719 194.445312 261.894531 194.445312 261.777344 194.386719 C 261.484375 194.207031 261.1875 193.972656 260.835938 193.796875 C 261.070312 193.796875 261.1875 193.796875 261.246094 193.855469 Z M 260.308594 192.503906 C 260.425781 192.621094 260.601562 192.796875 260.542969 192.796875 C 260.484375 192.855469 260.25 192.796875 260.132812 192.796875 C 260.074219 192.679688 259.957031 192.621094 259.835938 192.445312 C 259.957031 192.445312 260.132812 192.445312 260.308594 192.503906 Z M 264.714844 194.324219 C 264.832031 194.386719 264.832031 194.503906 264.949219 194.5625 C 264.65625 194.386719 264.359375 194.207031 264.066406 194.03125 C 264.007812 193.972656 263.949219 193.855469 263.832031 193.738281 C 264.125 193.972656 264.417969 194.148438 264.714844 194.324219 Z M 266.0625 193.03125 C 265.886719 192.914062 265.652344 192.855469 265.476562 192.738281 C 265.300781 192.621094 265.125 192.445312 264.949219 192.328125 C 265.125 192.386719 265.359375 192.503906 265.886719 192.796875 C 265.886719 192.855469 265.945312 192.914062 266.0625 193.03125 Z M 270.058594 187.738281 C 269.941406 187.738281 269.882812 187.679688 269.765625 187.679688 C 269.707031 187.621094 269.589844 187.503906 269.589844 187.503906 C 269.648438 187.503906 269.765625 187.503906 269.882812 187.5625 C 269.882812 187.5625 269.941406 187.679688 270.058594 187.738281 Z M 265.59375 184.976562 C 265.59375 184.917969 265.769531 185.035156 265.828125 185.035156 C 265.886719 185.09375 265.945312 185.210938 266.003906 185.269531 C 265.886719 185.210938 265.828125 185.210938 265.710938 185.152344 C 265.710938 185.152344 265.652344 185.035156 265.59375 184.976562 Z M 269.117188 188.269531 C 269.296875 188.386719 269.414062 188.503906 269.53125 188.5625 C 269.472656 188.5625 269.355469 188.503906 269.234375 188.445312 C 269.117188 188.328125 269 188.210938 268.824219 188.152344 C 269 188.152344 269.058594 188.210938 269.117188 188.269531 Z M 264.949219 185.679688 C 265.007812 185.679688 265.125 185.738281 265.242188 185.796875 C 265.359375 185.914062 265.476562 186.035156 265.652344 186.09375 C 265.535156 186.09375 265.476562 186.035156 265.417969 185.976562 C 265.183594 185.914062 265.066406 185.796875 264.949219 185.679688 Z M 268.589844 189.03125 C 268.707031 189.152344 268.882812 189.210938 269 189.328125 C 268.941406 189.328125 268.824219 189.269531 268.765625 189.210938 C 268.589844 189.09375 268.472656 188.972656 268.355469 188.914062 C 268.414062 188.914062 268.472656 188.972656 268.589844 189.03125 Z M 267.886719 189.738281 C 267.945312 189.738281 268.0625 189.738281 268.179688 189.796875 C 268.238281 189.855469 268.296875 189.914062 268.355469 189.972656 C 268.238281 189.972656 268.179688 189.914062 268.0625 189.914062 C 267.945312 189.855469 267.828125 189.738281 267.886719 189.738281 Z M 265.59375 188.914062 C 265.652344 188.914062 265.769531 188.914062 265.886719 188.972656 C 265.945312 189.03125 266.0625 189.152344 266.0625 189.152344 C 266.003906 189.152344 265.886719 189.09375 265.769531 189.09375 C 265.710938 189.03125 265.535156 188.914062 265.59375 188.914062 Z M 267.179688 191.503906 C 267.121094 191.503906 267.003906 191.503906 266.886719 191.445312 C 266.828125 191.386719 266.769531 191.328125 266.710938 191.269531 C 266.828125 191.269531 266.886719 191.328125 267.003906 191.328125 C 267.0625 191.386719 267.179688 191.503906 267.179688 191.503906 Z M 266.652344 192.269531 C 266.535156 192.269531 266.476562 192.207031 266.359375 192.207031 C 266.300781 192.148438 266.183594 192.03125 266.183594 192.03125 C 266.242188 192.03125 266.359375 192.089844 266.476562 192.089844 C 266.476562 192.089844 266.535156 192.207031 266.652344 192.269531 Z M 262.363281 189.738281 C 262.304688 189.679688 262.246094 189.5625 262.1875 189.503906 C 262.304688 189.5625 262.363281 189.5625 262.480469 189.621094 C 262.539062 189.679688 262.597656 189.796875 262.597656 189.855469 C 262.597656 189.855469 262.421875 189.796875 262.363281 189.738281 Z M 258.839844 190.210938 C 258.839844 190.210938 259.015625 190.269531 259.074219 190.269531 C 259.132812 190.328125 259.191406 190.445312 259.25 190.503906 C 259.132812 190.445312 259.074219 190.445312 258.957031 190.386719 C 258.898438 190.328125 258.839844 190.210938 258.839844 190.210938 Z M 258.605469 191.089844 C 258.429688 190.972656 258.3125 190.855469 258.191406 190.796875 C 258.25 190.796875 258.371094 190.855469 258.429688 190.914062 C 258.605469 191.03125 258.722656 191.148438 258.839844 191.210938 C 258.78125 191.148438 258.722656 191.089844 258.605469 191.089844 Z M 263.832031 196.03125 C 263.714844 196.03125 263.65625 195.972656 263.539062 195.972656 C 263.480469 195.914062 263.363281 195.796875 263.363281 195.796875 C 263.421875 195.796875 263.539062 195.796875 263.65625 195.855469 C 263.65625 195.914062 263.714844 195.972656 263.832031 196.03125 Z M 259.25 193.265625 C 259.425781 193.328125 259.542969 193.445312 259.71875 193.503906 C 259.777344 193.503906 259.835938 193.621094 259.898438 193.679688 C 259.71875 193.621094 259.601562 193.503906 259.425781 193.445312 C 259.367188 193.386719 259.308594 193.328125 259.25 193.265625 Z M 261.070312 196.03125 C 261.011719 196.03125 260.894531 195.972656 260.835938 195.914062 C 260.660156 195.796875 260.542969 195.679688 260.425781 195.621094 C 260.484375 195.679688 260.601562 195.679688 260.71875 195.738281 C 260.777344 195.796875 260.953125 195.914062 261.070312 196.03125 Z M 261.070312 196.03125 " fill-opacity="1" fill-rule="nonzero"/></g><path fill="#b94f38" d="M 64.234375 62 C 64.234375 64.292969 68.285156 69.878906 72.105469 73.113281 C 72.515625 71.292969 76.921875 55.117188 97.070312 55.117188 C 101.238281 55.117188 105.410156 55.53125 109.464844 56.351562 C 109.464844 56.351562 120.09375 55.589844 116.6875 47.472656 C 113.28125 39.296875 97.890625 47.472656 97.890625 47.472656 C 97.890625 47.472656 101.710938 40.179688 92.78125 41.003906 C 83.851562 41.828125 77.863281 55.117188 77.863281 55.117188 C 77.863281 55.117188 79.976562 46.0625 73.574219 48.648438 C 69.695312 50.238281 69.578125 54.824219 70.871094 60.292969 C 70.929688 60.292969 64.234375 58.589844 64.234375 62 Z M 96.363281 103.753906 C 96.363281 103.753906 89.433594 113.460938 82.621094 113.046875 C 75.804688 112.636719 79.449219 103.695312 79.449219 103.695312 C 79.449219 103.695312 76.863281 107.109375 73.457031 104.578125 C 70.050781 101.992188 76.214844 87.816406 76.214844 87.816406 C 76.214844 87.816406 98.246094 91.523438 96.363281 103.753906 Z M 96.363281 103.753906 " fill-opacity="1" fill-rule="nonzero"/></svg>