<svg xmlns="http://www.w3.org/2000/svg" xmlns:xlink="http://www.w3.org/1999/xlink" width="500" zoomAndPan="magnify" viewBox="0 0 375 374.999991" height="500" preserveAspectRatio="xMidYMid meet" version="1.0"><defs><clipPath id="fda511215a"><path d="M 80 48 L 297 48 L 297 327.5625 L 80 327.5625 Z M 80 48 " clip-rule="nonzero"/></clipPath></defs><path fill="#415c61" d="M 202.886719 59.914062 C 202.886719 59.914062 203.078125 57.894531 204.367188 56.292969 C 207.445312 52.464844 213.726562 49.796875 211.097656 49.421875 C 205.394531 48.601562 195.867188 54.359375 195.746094 58.804688 C 195.746094 58.804688 185.523438 48.804688 172.222656 51.519531 C 158.921875 54.234375 140.574219 77.570312 142.914062 85.71875 C 145.253906 93.867188 152.273438 102.878906 148.207031 128.5625 C 144.144531 154.242188 108.429688 167.273438 110.460938 196.222656 C 112.496094 225.171875 156.332031 252.765625 189 252.765625 C 221.667969 252.765625 264.894531 223.320312 276.347656 202.207031 C 287.804688 181.09375 285.03125 169.796875 271.363281 160.628906 C 257.691406 151.464844 232.382812 130.535156 226.65625 111.277344 C 220.929688 92.015625 231.828125 75.347656 221.484375 66.828125 C 211.140625 58.308594 202.890625 59.914062 202.890625 59.914062 Z M 202.886719 59.914062 " fill-opacity="1" fill-rule="nonzero"/><path fill="#fccfbf" d="M 139.835938 172.269531 C 134.476562 186.390625 122.058594 230.144531 121.992188 230.441406 C 121.992188 230.441406 118.035156 241.535156 108.984375 253.292969 C 99.933594 265.054688 89.035156 276.257812 83.429688 291.691406 C 77.566406 307.835938 85.402344 313.066406 86.507812 313.480469 C 87.03125 313.679688 87.503906 313.707031 87.945312 313.613281 C 88.234375 314.152344 88.714844 314.777344 89.402344 314.777344 C 90.757812 314.777344 91.867188 313.976562 91.867188 312.496094 C 91.867188 312.285156 91.859375 311.851562 91.863281 311.25 C 92.40625 312.347656 93.210938 312.769531 94.023438 312.769531 C 95.785156 312.769531 96.15625 310.703125 96.238281 308.480469 C 96.234375 308.144531 96.238281 307.8125 96.242188 307.484375 C 96.363281 307.523438 96.484375 307.566406 96.609375 307.617188 C 96.609375 307.617188 100.179688 309.65625 101.695312 298.910156 C 103.144531 288.671875 108.578125 282.316406 112.679688 277.554688 C 121.15625 267.71875 139.003906 247.5625 142.421875 236.007812 C 142.5 235.75 154.054688 199.28125 160.707031 178.105469 Z M 139.835938 172.269531 " fill-opacity="1" fill-rule="nonzero"/><path fill="#7dca7c" d="M 252.074219 326.632812 C 252.074219 326.632812 228.796875 236.503906 228.304688 233.847656 C 227.8125 231.195312 226.457031 231.6875 226.457031 231.6875 L 223.902344 229.867188 L 168.003906 229.867188 C 168.003906 229.867188 165.449219 231.6875 165.449219 231.6875 C 165.449219 231.6875 164.09375 231.195312 163.601562 233.847656 C 163.109375 236.503906 139.835938 326.632812 139.835938 326.632812 Z M 252.074219 326.632812 " fill-opacity="1" fill-rule="nonzero"/><path fill="#5e985d" d="M 228.304688 233.847656 C 227.8125 231.195312 226.457031 231.6875 226.457031 231.6875 L 223.902344 229.867188 L 212.351562 229.867188 L 185.96875 236.527344 L 193.3125 313.09375 C 193.3125 313.09375 194.929688 319.464844 210.191406 326.632812 L 252.074219 326.632812 C 252.074219 326.632812 228.796875 236.503906 228.304688 233.847656 Z M 228.304688 233.847656 " fill-opacity="1" fill-rule="nonzero"/><path fill="#ed6148" d="M 153.628906 149.089844 C 153.628906 149.089844 172.527344 141.1875 189 141.1875 C 205.476562 141.1875 219.269531 140.324219 226.65625 143.042969 C 234.046875 145.757812 244.515625 152.425781 253.996094 164.277344 C 253.996094 164.277344 248.332031 178.351562 232.324219 180.574219 L 234.757812 197.792969 C 234.757812 197.792969 230.726562 211.421875 226.460938 222.925781 C 225.976562 224.234375 226.457031 231.6875 226.042969 232.550781 C 226.042969 232.550781 186.015625 242.429688 165.449219 231.6875 L 164.957031 223.046875 C 164.957031 223.046875 159.210938 214.867188 155.367188 205.207031 C 154.5625 203.191406 154.089844 201.054688 153.957031 198.882812 C 153.835938 196.917969 153.691406 194.375 153.628906 192.457031 C 153.628906 192.457031 138.726562 191.070312 132.628906 181.714844 C 132.628906 181.714844 145.4375 153.78125 153.628906 149.089844 Z M 153.628906 149.089844 " fill-opacity="1" fill-rule="nonzero"/><path fill="#d24e3e" d="M 221.570312 160.714844 C 221.898438 155.148438 227.816406 149.652344 232.886719 145.933594 C 230.652344 144.695312 228.554688 143.738281 226.65625 143.042969 C 226.066406 142.824219 225.4375 142.632812 224.769531 142.457031 C 219.410156 147.238281 214.632812 153.679688 214.632812 153.679688 C 214.632812 153.679688 213.4375 162.042969 204.816406 164.484375 C 196.195312 166.925781 197.945312 174.652344 197.652344 181.554688 C 197.464844 185.980469 199.960938 188.449219 201.777344 189.648438 C 202.914062 190.402344 203.582031 191.695312 203.558594 193.0625 L 203.253906 212.925781 C 203.238281 214.160156 202.378906 215.222656 201.179688 215.5 L 187.925781 218.566406 C 186.78125 218.832031 185.96875 219.855469 185.96875 221.03125 L 185.96875 236.527344 C 205.273438 237.675781 226.042969 232.550781 226.042969 232.550781 C 226.457031 231.6875 225.976562 224.234375 226.460938 222.925781 C 230.726562 211.421875 234.757812 197.792969 234.757812 197.792969 L 232.320312 180.574219 C 236.234375 180.03125 239.527344 178.78125 242.273438 177.199219 Z M 221.570312 160.714844 " fill-opacity="1" fill-rule="nonzero"/><path fill="#d64f40" d="M 153.628906 192.457031 C 153.644531 193.003906 153.660156 191.300781 153.660156 191.300781 C 153.820312 186.144531 154.554688 165.191406 156.089844 157.824219 C 156.089844 157.824219 150.421875 175.140625 144.757812 190.363281 C 149.53125 192.074219 153.628906 192.457031 153.628906 192.457031 Z M 153.628906 192.457031 " fill-opacity="1" fill-rule="nonzero"/><path fill="#fccfbf" d="M 197.4375 141.3125 C 197.4375 149.242188 180.566406 149.242188 180.566406 141.3125 L 180.566406 127.917969 C 180.566406 127.917969 197.4375 127.917969 197.4375 127.917969 Z M 197.4375 141.3125 " fill-opacity="1" fill-rule="nonzero"/><path fill="#e99e85" d="M 180.566406 134.546875 C 186.347656 138.789062 194.851562 140.871094 197.4375 141.132812 L 197.4375 131.15625 C 194.910156 132.347656 192.101562 133.035156 189 133.035156 C 185.898438 133.035156 183.089844 132.351562 180.566406 131.15625 Z M 180.566406 134.546875 " fill-opacity="1" fill-rule="nonzero"/><path fill="#fccfbf" d="M 216.035156 94.144531 C 214.386719 94.144531 213.363281 94.976562 212.734375 95.894531 L 212.617188 95.90625 C 205.691406 96.082031 202.753906 91.632812 202.050781 84.054688 C 201.476562 77.875 201.105469 75.046875 198.351562 73.269531 C 195.859375 71.65625 194.417969 81.863281 179.488281 87.386719 C 162.605469 93.632812 162.742188 96.644531 162.742188 99.792969 C 163.386719 111.460938 171.609375 133.035156 189 133.035156 C 203.226562 133.035156 211.320312 118.601562 214.144531 106.957031 L 215.34375 106.910156 C 218.753906 106.910156 220.539062 103.777344 220.539062 100.59375 C 220.539062 97.414062 219.730469 94.144531 216.035156 94.144531 Z M 216.035156 94.144531 " fill-opacity="1" fill-rule="nonzero"/><path fill="#4d4d4d" d="M 179.800781 102.386719 C 179.800781 102.953125 179.738281 103.496094 179.617188 104.015625 C 179.496094 104.539062 179.320312 105 179.09375 105.398438 C 178.871094 105.796875 178.609375 106.105469 178.316406 106.320312 C 178.023438 106.539062 177.714844 106.644531 177.398438 106.644531 C 177.078125 106.644531 176.773438 106.539062 176.480469 106.320312 C 176.183594 106.105469 175.925781 105.796875 175.699219 105.398438 C 175.472656 105 175.300781 104.539062 175.179688 104.015625 C 175.058594 103.496094 174.996094 102.953125 174.996094 102.386719 C 174.996094 101.820312 175.058594 101.277344 175.179688 100.757812 C 175.300781 100.234375 175.472656 99.773438 175.699219 99.375 C 175.925781 98.976562 176.183594 98.667969 176.480469 98.453125 C 176.773438 98.234375 177.078125 98.128906 177.398438 98.128906 C 177.714844 98.128906 178.023438 98.234375 178.316406 98.453125 C 178.609375 98.667969 178.871094 98.976562 179.09375 99.375 C 179.320312 99.773438 179.496094 100.234375 179.617188 100.757812 C 179.738281 101.277344 179.800781 101.820312 179.800781 102.386719 Z M 179.800781 102.386719 " fill-opacity="1" fill-rule="nonzero"/><path fill="#4d4d4d" d="M 182.261719 97.015625 C 182.019531 97.015625 181.777344 96.917969 181.59375 96.726562 C 180.65625 95.738281 179.179688 95.160156 177.542969 95.140625 C 175.835938 95.121094 174.207031 95.71875 173.183594 96.742188 C 172.824219 97.105469 172.242188 97.105469 171.882812 96.742188 C 171.519531 96.382812 171.519531 95.796875 171.882812 95.4375 C 173.269531 94.046875 175.339844 93.261719 177.566406 93.292969 C 179.695312 93.316406 181.652344 94.105469 182.929688 95.453125 C 183.28125 95.824219 183.265625 96.40625 182.898438 96.761719 C 182.71875 96.929688 182.492188 97.015625 182.261719 97.015625 Z M 182.261719 97.015625 " fill-opacity="1" fill-rule="nonzero"/><path fill="#4d4d4d" d="M 199.839844 102.386719 C 199.839844 102.953125 199.777344 103.496094 199.65625 104.015625 C 199.535156 104.539062 199.359375 105 199.136719 105.398438 C 198.910156 105.796875 198.648438 106.105469 198.355469 106.320312 C 198.0625 106.539062 197.753906 106.644531 197.4375 106.644531 C 197.117188 106.644531 196.8125 106.539062 196.519531 106.320312 C 196.222656 106.105469 195.964844 105.796875 195.738281 105.398438 C 195.511719 105 195.339844 104.539062 195.21875 104.015625 C 195.097656 103.496094 195.035156 102.953125 195.035156 102.386719 C 195.035156 101.820312 195.097656 101.277344 195.21875 100.757812 C 195.339844 100.234375 195.511719 99.773438 195.738281 99.375 C 195.964844 98.976562 196.222656 98.667969 196.519531 98.453125 C 196.8125 98.234375 197.117188 98.128906 197.4375 98.128906 C 197.753906 98.128906 198.0625 98.234375 198.355469 98.453125 C 198.648438 98.667969 198.910156 98.976562 199.136719 99.375 C 199.359375 99.773438 199.535156 100.234375 199.65625 100.757812 C 199.777344 101.277344 199.839844 101.820312 199.839844 102.386719 Z M 199.839844 102.386719 " fill-opacity="1" fill-rule="nonzero"/><path fill="#4d4d4d" d="M 202.300781 97.015625 C 202.058594 97.015625 201.816406 96.917969 201.632812 96.726562 C 200.695312 95.738281 199.21875 95.160156 197.582031 95.140625 C 195.875 95.121094 194.246094 95.71875 193.222656 96.742188 C 192.863281 97.105469 192.28125 97.105469 191.921875 96.742188 C 191.558594 96.382812 191.558594 95.796875 191.921875 95.4375 C 193.308594 94.046875 195.378906 93.261719 197.605469 93.292969 C 199.734375 93.316406 201.691406 94.105469 202.96875 95.453125 C 203.320312 95.824219 203.304688 96.40625 202.9375 96.761719 C 202.757812 96.929688 202.53125 97.015625 202.300781 97.015625 Z M 202.300781 97.015625 " fill-opacity="1" fill-rule="nonzero"/><path fill="#4d4d4d" d="M 185.714844 114.175781 L 185.707031 114.175781 C 185.40625 114.175781 185.125 114.046875 184.917969 113.816406 C 184.613281 113.472656 184.433594 112.929688 184.429688 111.167969 C 184.429688 110.214844 184.480469 108.953125 184.585938 107.421875 C 184.765625 104.835938 185.035156 102.3125 185.039062 102.289062 C 185.09375 101.78125 185.546875 101.414062 186.054688 101.46875 C 186.5625 101.523438 186.925781 101.980469 186.871094 102.484375 C 186.464844 106.269531 186.167969 110.695312 186.304688 112.253906 C 187.164062 112.035156 187.714844 111.421875 187.71875 111.414062 C 188.050781 111.023438 188.628906 110.980469 189.015625 111.308594 C 189.40625 111.640625 189.449219 112.226562 189.121094 112.613281 C 189.066406 112.679688 187.777344 114.175781 185.714844 114.175781 Z M 186.386719 112.722656 Z M 186.386719 112.722656 " fill-opacity="1" fill-rule="nonzero"/><path fill="#4d4d4d" d="M 186.191406 121.605469 C 184.308594 121.605469 182.984375 121.15625 182.882812 121.121094 C 182.398438 120.953125 182.144531 120.425781 182.3125 119.945312 C 182.480469 119.460938 183.003906 119.207031 183.484375 119.375 C 183.664062 119.433594 187.714844 120.769531 191.519531 118.089844 C 194.6875 115.863281 195.84375 112.460938 195.855469 112.425781 C 196.015625 111.941406 196.535156 111.679688 197.019531 111.839844 C 197.503906 112 197.765625 112.519531 197.605469 113.003906 C 197.554688 113.167969 196.265625 117.011719 192.582031 119.605469 C 190.324219 121.191406 188 121.605469 186.191406 121.605469 Z M 186.191406 121.605469 " fill-opacity="1" fill-rule="nonzero"/><path fill="#f8aa9b" d="M 213.882812 107.984375 C 212.71875 107.53125 211.449219 107.28125 210.121094 107.28125 C 204.367188 107.28125 199.703125 111.957031 199.703125 117.726562 C 199.703125 121.261719 201.457031 124.386719 204.136719 126.277344 C 209 121.292969 212.203125 114.308594 213.882812 107.984375 Z M 213.882812 107.984375 " fill-opacity="1" fill-rule="nonzero"/><path fill="#f8aa9b" d="M 173.851562 126.261719 C 176.519531 124.371094 178.265625 121.253906 178.265625 117.726562 C 178.265625 111.957031 173.601562 107.28125 167.847656 107.28125 C 166.53125 107.28125 165.273438 107.527344 164.113281 107.972656 C 165.792969 114.296875 168.996094 121.277344 173.851562 126.261719 Z M 173.851562 126.261719 " fill-opacity="1" fill-rule="nonzero"/><path fill="#c98f61" d="M 230.453125 144.761719 C 230.761719 144.710938 230.828125 144.296875 230.550781 144.152344 C 229.242188 143.457031 227.992188 142.871094 226.816406 142.394531 C 225.816406 141.984375 224.695312 141.640625 223.460938 141.347656 C 222.878906 141.210938 222.265625 141.289062 221.734375 141.570312 C 214.894531 145.148438 210.5625 152.023438 208.835938 162.050781 C 205.550781 181.121094 208.566406 216.476562 209.855469 231.570312 C 209.921875 232.339844 209.984375 233.0625 210.039062 233.734375 C 210.15625 235.09375 211.34375 236.105469 212.699219 236 L 213.503906 235.9375 C 214.875 235.828125 215.898438 234.625 215.78125 233.25 C 215.726562 232.578125 215.664062 231.851562 215.597656 231.078125 C 214.328125 216.203125 211.355469 181.371094 214.511719 163.035156 C 216.714844 150.265625 223.285156 145.90625 230.453125 144.761719 Z M 230.453125 144.761719 " fill-opacity="1" fill-rule="nonzero"/><path fill="#977459" d="M 280.597656 213.910156 L 274.316406 209.589844 L 195.4375 226.375 L 202.273438 230.699219 L 255.765625 244.34375 Z M 280.597656 213.910156 " fill-opacity="1" fill-rule="nonzero"/><path fill="#eac084" d="M 218.222656 316.074219 C 218.222656 316.074219 208.921875 313.851562 203.566406 307 C 203.566406 307 198.394531 266.125 195.4375 226.375 L 202.273438 230.699219 C 202.273438 230.699219 229.761719 266.035156 218.222656 316.074219 Z M 218.222656 316.074219 " fill-opacity="1" fill-rule="nonzero"/><path fill="#f3d4b5" d="M 202.273438 230.699219 C 202.273438 230.699219 260.648438 221.195312 280.597656 213.910156 C 280.597656 213.910156 285.957031 256.070312 291.128906 272.925781 C 296.300781 289.777344 295.007812 300.148438 295.007812 300.148438 C 295.007812 300.148438 258.191406 321.445312 218.222656 316.074219 C 218.222656 316.074219 206.890625 288.667969 202.273438 230.699219 Z M 202.273438 230.699219 " fill-opacity="1" fill-rule="nonzero"/><path fill="#eac084" d="M 230.460938 144.355469 C 230.769531 144.296875 230.824219 143.878906 230.539062 143.742188 C 229.203125 143.09375 227.925781 142.554688 226.730469 142.117188 C 225.714844 141.746094 224.578125 141.441406 223.328125 141.191406 C 222.738281 141.074219 222.128906 141.175781 221.605469 141.472656 C 214.867188 145.289062 210.757812 152.308594 209.375 162.394531 C 206.742188 181.566406 211.007812 216.792969 212.828125 231.835938 C 212.921875 232.601562 213.007812 233.320312 213.089844 233.988281 C 213.25 235.34375 214.480469 236.3125 215.835938 236.160156 L 216.644531 236.070312 C 218.015625 235.914062 219 234.675781 218.835938 233.308594 C 218.753906 232.636719 218.667969 231.910156 218.574219 231.140625 C 216.777344 216.320312 212.578125 181.613281 215.105469 163.175781 C 216.867188 150.335938 223.308594 145.75 230.460938 144.355469 Z M 230.460938 144.355469 " fill-opacity="1" fill-rule="nonzero"/><path fill="#7dca7c" d="M 265.980469 243.738281 L 263.097656 245.996094 L 259.710938 241.65625 C 258.605469 240.238281 256.910156 239.410156 255.117188 239.410156 L 242.582031 239.410156 L 248.917969 243.714844 L 255.402344 252.03125 L 252.523438 254.289062 C 251.984375 254.710938 252.226562 255.574219 252.90625 255.652344 L 264.816406 257.019531 C 265.230469 257.066406 265.605469 256.769531 265.660156 256.355469 L 267.207031 244.4375 C 267.292969 243.761719 266.515625 243.316406 265.980469 243.738281 Z M 265.980469 243.738281 " fill-opacity="1" fill-rule="nonzero"/><path fill="#5e985d" d="M 239.394531 255.917969 L 248.917969 243.714844 L 247.3125 241.65625 C 246.207031 240.238281 244.511719 239.410156 242.714844 239.410156 C 240.921875 239.410156 239.226562 240.238281 238.121094 241.65625 L 231.699219 249.886719 C 231.191406 250.535156 231.308594 251.476562 231.957031 251.984375 L 237.300781 256.175781 C 237.949219 256.683594 238.886719 256.570312 239.394531 255.917969 Z M 239.394531 255.917969 " fill-opacity="1" fill-rule="nonzero"/><path fill="#7dca7c" d="M 271.199219 276.855469 L 260.765625 278.265625 L 260.273438 274.632812 C 260.183594 273.953125 259.316406 273.726562 258.910156 274.277344 L 251.714844 283.886719 C 251.464844 284.222656 251.527344 284.695312 251.859375 284.953125 L 261.335938 292.3125 C 261.875 292.730469 262.648438 292.28125 262.558594 291.605469 L 262.070312 287.972656 L 267.515625 287.234375 C 269.292969 286.996094 270.863281 285.945312 271.769531 284.394531 L 278.105469 273.550781 Z M 271.199219 276.855469 " fill-opacity="1" fill-rule="nonzero"/><path fill="#5e985d" d="M 265.503906 262.449219 L 271.199219 276.855469 L 273.78125 276.507812 C 275.5625 276.265625 277.128906 275.21875 278.035156 273.664062 C 278.945312 272.113281 279.085938 270.226562 278.425781 268.554688 L 274.585938 258.839844 C 274.28125 258.074219 273.417969 257.699219 272.652344 258.003906 L 266.339844 260.511719 C 265.578125 260.816406 265.203125 261.683594 265.503906 262.449219 Z M 265.503906 262.449219 " fill-opacity="1" fill-rule="nonzero"/><path fill="#7dca7c" d="M 239.082031 270.261719 L 233.914062 259.414062 C 233.734375 259.039062 233.289062 258.875 232.910156 259.050781 L 222.011719 264.0625 C 221.394531 264.347656 221.429688 265.242188 222.070312 265.476562 L 225.511719 266.722656 L 223.636719 271.90625 C 223.027344 273.597656 223.226562 275.476562 224.179688 277 L 230.832031 287.648438 L 231.109375 279.984375 L 234.695312 270.058594 L 238.132812 271.308594 C 238.773438 271.542969 239.375 270.878906 239.082031 270.261719 Z M 239.082031 270.261719 " fill-opacity="1" fill-rule="nonzero"/><path fill="#5e985d" d="M 246.480469 281.597656 L 231.109375 279.984375 L 230.21875 282.441406 C 229.609375 284.132812 229.808594 286.011719 230.761719 287.539062 C 231.714844 289.0625 233.3125 290.0625 235.097656 290.25 L 245.464844 291.339844 C 246.28125 291.425781 247.015625 290.828125 247.101562 290.007812 L 247.808594 283.238281 C 247.894531 282.417969 247.296875 281.683594 246.480469 281.597656 Z M 246.480469 281.597656 " fill-opacity="1" fill-rule="nonzero"/><path fill="#fccfbf" d="M 270.375 201.191406 C 265.714844 188.171875 257.28125 174.757812 252.308594 167.433594 C 249.613281 171.71875 243.484375 179.023438 232.320312 180.574219 L 232.320312 180.738281 C 234.859375 187.03125 238.257812 195.746094 242.175781 206.5 C 250.203125 228.539062 260.769531 226.996094 264.464844 225.761719 C 268.160156 224.527344 277.273438 220.453125 270.375 201.191406 Z M 270.375 201.191406 " fill-opacity="1" fill-rule="nonzero"/><path fill="#fccfbf" d="M 268 205.648438 C 267.980469 205.632812 222.222656 164.308594 214.648438 162.546875 C 214.648438 162.546875 205.761719 163.25 204.816406 164.484375 C 203.875 165.71875 201.082031 169.296875 201.574219 170.246094 C 201.804688 170.683594 202.191406 171.261719 202.539062 171.757812 C 203 172.414062 203.074219 173.265625 202.726562 173.988281 L 201.988281 175.523438 C 201.691406 176.136719 201.699219 176.859375 202.003906 177.46875 L 202.832031 179.113281 C 203.105469 179.652344 203.144531 180.277344 202.941406 180.847656 L 202.238281 182.816406 C 201.957031 183.601562 202.144531 184.480469 202.71875 185.082031 L 203.960938 186.375 C 204.316406 186.746094 204.601562 187.179688 204.800781 187.65625 C 205.230469 188.675781 206.203125 190.53125 207.628906 190.574219 C 209.113281 190.621094 212.925781 190.613281 214.714844 190.609375 C 215.324219 190.605469 215.914062 190.84375 216.355469 191.265625 C 216.523438 191.425781 250.730469 224.148438 250.878906 224.289062 C 258.789062 231.796875 272.183594 226.078125 272.140625 215.027344 C 272.140625 211.308594 270.542969 207.964844 268 205.648438 Z M 268 205.648438 " fill-opacity="1" fill-rule="nonzero"/><g clip-path="url(#fda511215a)"><path fill="#4d4d4d" d="M 292.007812 272.652344 C 286.917969 256.070312 281.566406 214.214844 281.511719 213.792969 C 281.480469 213.542969 281.351562 213.320312 281.152344 213.171875 C 281.144531 213.164062 281.132812 213.15625 281.121094 213.148438 C 281.121094 213.148438 274.839844 208.824219 274.839844 208.824219 C 274.542969 208.570312 273.925781 208.699219 273.394531 208.832031 C 273.375 208.730469 273.355469 208.628906 273.335938 208.523438 C 274.855469 206.503906 276.140625 204.527344 277.160156 202.648438 C 286.804688 184.203125 288.75 171.433594 271.875 159.863281 C 258.046875 150.589844 233.148438 129.867188 227.542969 111.011719 C 225.003906 102.472656 225.800781 94.429688 226.503906 87.332031 C 227.371094 78.617188 228.117188 71.09375 222.070312 66.113281 C 213.832031 59.332031 206.886719 58.765625 204.058594 58.875 C 204.242188 58.273438 204.558594 57.527344 205.085938 56.875 C 206.40625 55.230469 208.371094 53.800781 209.949219 52.652344 C 211.890625 51.238281 212.867188 50.527344 212.613281 49.515625 C 212.476562 48.957031 212.011719 48.617188 211.230469 48.507812 C 205.929688 47.808594 197.515625 51.96875 195.191406 57.09375 C 189.253906 52.050781 179.6875 48.816406 172.039062 50.613281 C 161.128906 53.328125 151.382812 64.398438 145.785156 73.257812 C 143.910156 76.363281 140.925781 82.144531 142.027344 85.976562 C 146.148438 98.476562 150.785156 103.90625 147.296875 128.414062 C 142.871094 154.21875 107.242188 167.292969 109.542969 196.289062 C 110.171875 205.285156 114.824219 214.695312 122.988281 223.519531 C 121.859375 227.492188 121.125 230.097656 121.109375 230.175781 C 120.777344 231.078125 116.804688 241.621094 108.253906 252.730469 C 106.375 255.171875 104.367188 257.648438 102.429688 260.039062 C 98.820312 264.492188 95.15625 269.015625 91.820312 273.871094 C 91.820312 273.875 91.816406 273.878906 91.8125 273.882812 C 91.789062 273.914062 91.769531 273.949219 91.746094 273.980469 C 88.125 279.269531 84.894531 284.957031 82.5625 291.375 C 80.015625 298.394531 79.65625 304.265625 81.5 308.832031 C 82.964844 312.457031 85.378906 314.042969 86.183594 314.347656 C 86.558594 314.488281 86.929688 314.570312 87.300781 314.585938 C 87.71875 315.203125 88.390625 315.703125 89.402344 315.703125 C 91.078125 315.714844 92.296875 314.769531 92.675781 313.386719 C 93.085938 313.589844 93.539062 313.691406 94.023438 313.691406 C 96.851562 313.683594 97.089844 310.253906 97.152344 308.691406 C 97.203125 308.695312 97.253906 308.695312 97.304688 308.695312 C 100.378906 308.507812 101.765625 304.609375 102.609375 299.039062 C 104.027344 289.007812 109.429688 282.738281 113.378906 278.160156 C 121.207031 269.113281 137.300781 250.800781 142.292969 239.078125 C 147.679688 242.378906 153.367188 245.210938 159.230469 247.503906 C 152.675781 273.214844 139.121094 325.710938 138.941406 326.398438 C 138.8125 326.894531 139.109375 327.398438 139.601562 327.527344 C 139.679688 327.546875 139.757812 327.554688 139.835938 327.554688 C 140.246094 327.554688 140.621094 327.277344 140.726562 326.863281 C 141.675781 323.179688 164.015625 236.671875 164.507812 234.019531 C 164.714844 232.910156 165.046875 232.621094 165.167969 232.582031 C 171.664062 235.929688 180.601562 237.621094 191.789062 237.621094 C 192.964844 237.621094 194.171875 237.601562 195.398438 237.566406 C 198.367188 273.117188 202.605469 306.746094 202.652344 307.117188 C 202.671875 307.28125 202.738281 307.4375 202.839844 307.570312 C 208.332031 314.597656 217.617188 316.878906 218.011719 316.972656 C 218.042969 316.980469 218.070312 316.988281 218.101562 316.992188 C 222.4375 317.574219 226.90625 317.863281 231.480469 317.863281 C 236.605469 317.863281 241.863281 317.5 247.207031 316.769531 C 247.644531 316.707031 248.085938 316.644531 248.527344 316.578125 C 250.152344 322.886719 251.179688 326.863281 251.179688 326.863281 C 251.289062 327.277344 251.664062 327.554688 252.074219 327.554688 C 252.148438 327.554688 252.226562 327.546875 252.304688 327.527344 C 252.796875 327.398438 253.09375 326.894531 252.964844 326.398438 C 252.964844 326.398438 251.957031 322.496094 250.359375 316.296875 C 257.4375 315.144531 264.667969 313.371094 271.890625 311.003906 C 286.015625 306.375 295.375 301.003906 295.46875 300.949219 C 295.71875 300.804688 295.886719 300.550781 295.921875 300.261719 C 295.976562 299.832031 297.179688 289.5 292.007812 272.652344 Z M 274.121094 210.574219 L 278.574219 213.636719 C 277.160156 214.113281 275.558594 214.609375 273.78125 215.125 C 273.90625 213.734375 273.867188 212.257812 273.671875 210.671875 Z M 202.46875 229.730469 L 197.847656 226.804688 L 210.957031 224.015625 C 211.125 225.460938 211.289062 226.859375 211.449219 228.207031 C 206.785156 229.015625 203.5 229.5625 202.46875 229.730469 Z M 207.792969 191.503906 C 207.871094 191.507812 207.957031 191.507812 208.046875 191.507812 C 208.683594 202.824219 209.742188 213.320312 210.746094 222.171875 L 208.363281 222.679688 C 207.851562 210.625 207.664062 200.402344 207.792969 191.503906 Z M 209.890625 191.53125 C 211.160156 191.539062 212.617188 191.539062 213.8125 191.535156 C 214.664062 206.742188 216.574219 222.613281 217.613281 231.21875 C 217.832031 233.199219 218.558594 235.199219 215.703125 235.242188 C 213.730469 235.429688 213.929688 233.003906 213.726562 231.722656 C 212.679688 223.027344 210.746094 206.992188 209.890625 191.53125 Z M 240.671875 215.804688 L 229.117188 218.261719 C 230.210938 215.132812 231.359375 211.703125 232.542969 208.027344 C 236.605469 211.914062 237.445312 212.71875 240.671875 215.804688 Z M 227.003906 218.710938 L 218.222656 220.582031 C 217.277344 212.203125 216.296875 202.414062 215.679688 191.902344 C 215.695312 191.914062 215.707031 191.921875 215.71875 191.933594 C 215.71875 191.933594 223.476562 199.355469 231.0625 206.609375 C 229.652344 211.015625 228.289062 215.082031 227.003906 218.710938 Z M 218.433594 222.425781 L 242.289062 217.347656 C 243.824219 218.820312 245.90625 220.8125 246.683594 221.554688 C 238.414062 223.269531 229.097656 225.058594 218.953125 226.882812 C 218.785156 225.453125 218.609375 223.964844 218.433594 222.425781 Z M 216.992188 190.597656 C 216.375 190.007812 215.5625 189.6875 214.710938 189.683594 C 213.085938 189.691406 209.148438 189.699219 207.660156 189.652344 C 206.492188 189.75 205.625 186.722656 204.625 185.734375 C 204.625 185.734375 203.386719 184.441406 203.386719 184.441406 C 202.507812 183.660156 203.613281 182.007812 203.808594 181.15625 C 204.386719 179.769531 203.472656 178.257812 202.828125 177.050781 C 202.355469 176.277344 203.292969 175.085938 203.554688 174.386719 C 204.449219 172.726562 203.28125 171.175781 202.441406 169.910156 C 202.398438 169.664062 203.191406 168.074219 205.53125 165.070312 C 205.640625 164.980469 206.414062 164.492188 210.394531 163.941406 C 219.613281 161.742188 234.257812 178.308594 263.355469 202.730469 C 264.257812 203.550781 265.460938 202.121094 264.582031 201.347656 C 260.800781 198.007812 250.132812 188.496094 239.515625 179.609375 C 244.972656 177.390625 249.445312 173.148438 252.273438 169.164062 C 259.085938 180.273438 281.066406 211.035156 267.480469 223.628906 C 263.101562 227.867188 255.601562 227.785156 251.320312 223.433594 Z M 222.003906 142.273438 C 222.335938 142.085938 222.71875 142.023438 223.085938 142.097656 C 225.183594 142.507812 226.640625 143.046875 228.480469 143.851562 C 219.929688 146.308594 216.027344 152.511719 214.390625 161.644531 C 213.566406 161.671875 212.007812 161.835938 210.347656 162.085938 C 211.738281 152.550781 215.660156 145.886719 222.003906 142.273438 Z M 229.867188 145.410156 C 234.703125 147.734375 243.828125 153.199219 252.925781 164.414062 C 250.203125 169.78125 245.695312 175.246094 237.871094 178.234375 C 228.984375 170.851562 220.386719 164.15625 216.167969 162.15625 C 217.742188 152.652344 222.230469 147.164062 229.867188 145.410156 Z M 111.382812 196.15625 C 109.511719 167.574219 144.835938 154.96875 149.121094 128.707031 C 152.679688 103.824219 147.960938 97.992188 143.800781 85.464844 C 143.136719 83.160156 144.4375 79.058594 147.363281 74.21875 C 153.015625 64.863281 163.929688 54.15625 172.40625 52.425781 C 181.320312 50.339844 191.101562 55.554688 195.101562 59.464844 C 195.363281 59.722656 195.753906 59.796875 196.09375 59.660156 C 196.429688 59.523438 196.65625 59.195312 196.667969 58.828125 C 196.699219 57.621094 197.734375 56.070312 199.503906 54.574219 C 202.585938 51.96875 206.933594 50.226562 210.0625 50.269531 C 206.640625 52.835938 202.367188 55.457031 201.972656 59.828125 C 201.898438 60.414062 202.484375 60.957031 203.0625 60.824219 C 208.054688 60.296875 214.289062 62.171875 220.898438 67.542969 C 226.183594 71.894531 225.515625 78.625 224.667969 87.148438 C 223.949219 94.417969 223.132812 102.652344 225.773438 111.539062 C 230.628906 128.933594 254.109375 150.230469 270.847656 161.398438 C 284.878906 170.808594 286.195312 182.125 275.539062 201.765625 C 274.78125 203.164062 273.863281 204.625 272.804688 206.125 C 272.394531 204.488281 271.871094 202.746094 271.242188 200.878906 C 266.609375 187.933594 258.230469 174.5625 253.417969 167.425781 C 254.011719 166.441406 254.496094 165.492188 254.851562 164.621094 C 254.976562 164.3125 254.925781 163.957031 254.714844 163.699219 C 245.800781 152.558594 236.769531 146.824219 231.542969 144.179688 C 231.597656 143.6875 231.378906 143.167969 230.851562 142.910156 C 228.296875 141.695312 226.273438 140.839844 223.449219 140.285156 C 222.648438 140.125 221.8125 140.261719 221.09375 140.667969 C 221.023438 140.707031 220.957031 140.75 220.886719 140.789062 C 215.050781 140.015625 207.441406 140.097656 198.65625 140.195312 L 198.359375 140.199219 L 198.359375 131.746094 C 207.355469 127.113281 212.867188 116.148438 214.871094 107.851562 L 215.363281 107.832031 C 219.367188 107.820312 221.460938 104.183594 221.460938 100.59375 C 221.460938 94.5 218.511719 93.222656 216.035156 93.222656 C 214.503906 93.222656 213.210938 93.828125 212.265625 94.984375 C 198.511719 94.796875 206.300781 76.953125 198.851562 72.492188 C 198.300781 72.136719 197.429688 71.898438 196.386719 72.777344 C 195.828125 73.253906 195.257812 74 194.539062 74.945312 C 186.074219 87.386719 173.210938 86.5 164.210938 94.023438 C 161.769531 96.28125 161.816406 98.101562 161.820312 99.84375 C 162.589844 110.125 167.933594 125.886719 179.640625 131.703125 L 179.640625 140.984375 C 166.105469 142.917969 153.402344 148.183594 153.273438 148.238281 C 153.238281 148.253906 153.203125 148.269531 153.171875 148.289062 C 144.820312 153.070312 132.320312 180.179688 131.792969 181.328125 C 131.660156 181.617188 131.683594 181.953125 131.859375 182.222656 C 132.542969 183.273438 133.367188 184.269531 134.316406 185.203125 C 131.6875 193.253906 126.621094 210.789062 123.585938 221.429688 C 116.175781 213.164062 111.964844 204.453125 111.382812 196.15625 Z M 213.496094 96.417969 C 214.117188 95.511719 214.945312 95.070312 216.035156 95.070312 C 217.574219 95.070312 219.617188 95.640625 219.617188 100.59375 C 219.621094 103.203125 218.257812 106.011719 215.304688 105.984375 L 214.105469 106.035156 C 213.695312 106.050781 213.347656 106.339844 213.25 106.738281 C 210.40625 118.445312 202.351562 132.113281 189 132.113281 C 171.867188 131.824219 164.589844 111.398438 163.664062 99.769531 C 163.664062 98.234375 163.644531 97.050781 165.453125 95.386719 C 167.703125 93.328125 172.398438 90.996094 179.808594 88.253906 C 189.453125 84.683594 193.714844 79.078125 196.007812 76.066406 C 196.664062 75.199219 197.480469 74.125 197.820312 74.027344 C 200.160156 75.519531 200.527344 77.699219 201.132812 84.140625 C 201.941406 92.875 205.730469 97.03125 212.6875 96.824219 C 213.007812 96.824219 213.316406 96.6875 213.496094 96.417969 Z M 181.488281 132.515625 C 183.769531 133.394531 186.269531 133.910156 189 133.960938 C 191.710938 133.996094 194.214844 133.496094 196.515625 132.582031 L 196.515625 141.3125 C 196.515625 144.765625 192.621094 146.335938 189 146.335938 C 185.382812 146.335938 181.488281 144.765625 181.488281 141.3125 Z M 83.210938 308.136719 C 81.566406 304.070312 81.941406 298.492188 84.296875 292.007812 C 84.886719 290.378906 85.539062 288.796875 86.246094 287.257812 C 85.078125 292.894531 86.445312 295.933594 86.972656 296.835938 C 87.050781 296.96875 87.128906 297.09375 87.210938 297.210938 C 86.511719 300.359375 85.886719 305.484375 86.65625 312.53125 C 86.007812 312.167969 84.304688 310.84375 83.210938 308.136719 Z M 89.402344 313.855469 C 88.679688 313.855469 88.546875 312.863281 88.535156 312.757812 C 87.796875 306.40625 88.226562 301.644531 88.824219 298.527344 C 88.933594 298.566406 89.050781 298.597656 89.164062 298.617188 C 89.355469 298.652344 89.539062 298.667969 89.71875 298.667969 C 90.261719 298.667969 90.757812 298.511719 91.195312 298.199219 C 91.652344 297.875 92.03125 297.386719 92.355469 296.726562 C 91.378906 300.863281 90.878906 306.351562 90.945312 312.496094 C 90.945312 313.757812 89.765625 313.855469 89.402344 313.855469 Z M 100.785156 298.78125 C 99.910156 304.792969 98.402344 306.957031 97.179688 306.828125 C 97.449219 297.617188 100.359375 291.542969 100.390625 291.480469 C 100.613281 291.023438 100.425781 290.46875 99.96875 290.246094 C 99.511719 290.019531 98.960938 290.207031 98.734375 290.667969 C 98.59375 290.957031 95.257812 297.886719 95.316406 308.46875 C 95.1875 311.84375 94.371094 311.84375 94.023438 311.84375 C 93.511719 311.84375 93.109375 311.574219 92.785156 311.023438 C 92.828125 302.726562 93.855469 296.234375 95.703125 292.671875 C 96.222656 291.554688 94.664062 290.761719 94.066406 291.820312 C 93.835938 292.257812 93.617188 292.742188 93.410156 293.265625 C 93.578125 292.449219 93.742188 291.535156 93.90625 290.523438 C 94.703125 285.585938 97.886719 280.902344 97.921875 280.855469 C 98.210938 280.4375 98.105469 279.863281 97.683594 279.570312 C 97.265625 279.28125 96.691406 279.386719 96.402344 279.808594 C 96.261719 280.011719 92.949219 284.867188 92.085938 290.226562 C 91.625 293.0625 91.035156 296.046875 90.128906 296.691406 C 90.007812 296.777344 89.835938 296.859375 89.488281 296.796875 C 89.269531 296.757812 88.914062 296.503906 88.5625 295.902344 C 87.464844 294.019531 87.011719 289.929688 89.035156 284.109375 C 89.132812 283.851562 91.324219 277.996094 93.203125 275.121094 C 96.542969 270.238281 100.230469 265.683594 103.859375 261.207031 C 105.808594 258.804688 107.820312 256.320312 109.714844 253.859375 C 118.640625 242.261719 122.691406 231.226562 122.859375 230.757812 C 122.859375 230.757812 131.800781 199.039062 135.820312 186.546875 C 138.300781 188.558594 141.4375 190.226562 145.121094 191.46875 C 148.46875 192.601562 151.378906 193.09375 152.734375 193.28125 C 152.796875 194.75 152.894531 196.648438 153.035156 198.941406 C 153.042969 199.066406 153.050781 199.191406 153.0625 199.316406 C 148.660156 213.269531 144.964844 224.910156 141.769531 234.902344 C 138.789062 246.199219 122.53125 264.632812 113.621094 275.050781 C 108.429688 281.226562 102.679688 286.757812 100.785156 298.78125 Z M 162.695312 233.679688 C 162.59375 234.238281 161.4375 238.832031 159.691406 245.699219 C 153.902344 243.417969 148.285156 240.605469 142.96875 237.324219 C 143.09375 236.96875 143.203125 236.621094 143.300781 236.277344 C 143.378906 236.03125 149.347656 217.210938 153.75 203.269531 C 153.960938 204.042969 154.210938 204.804688 154.507812 205.550781 C 158.003906 214.320312 163.109375 221.976562 164.050781 223.359375 L 164.480469 230.863281 C 164.390625 230.898438 164.304688 230.941406 164.214844 230.992188 C 163.457031 231.425781 162.945312 232.328125 162.695312 233.679688 Z M 166.339844 231.105469 L 165.878906 222.992188 C 165.867188 222.820312 165.808594 222.65625 165.710938 222.515625 C 165.65625 222.433594 159.980469 214.304688 156.222656 204.867188 C 155.457031 202.945312 155.003906 200.914062 154.875 198.828125 C 154.710938 196.132812 154.601562 193.988281 154.550781 192.453125 L 154.582031 191.328125 C 154.714844 187.058594 155.457031 165.390625 156.992188 158.015625 C 157.097656 157.515625 156.777344 157.027344 156.277344 156.921875 C 155.78125 156.816406 155.292969 157.136719 155.1875 157.636719 C 153.660156 164.976562 152.929688 185.238281 152.738281 191.273438 L 152.734375 191.410156 C 151.359375 191.207031 148.675781 190.722656 145.667969 189.703125 C 141.847656 188.410156 136.726562 185.964844 133.6875 181.632812 C 135.402344 177.972656 146.757812 154.167969 154.035156 149.921875 C 154.933594 149.554688 167 144.667969 179.828125 142.824219 C 180.214844 144.332031 181.191406 145.605469 182.710938 146.558594 C 184.386719 147.609375 186.621094 148.1875 189 148.1875 C 191.378906 148.1875 193.613281 147.609375 195.289062 146.558594 C 197.066406 145.445312 198.097656 143.894531 198.316406 142.050781 L 198.675781 142.046875 C 206.335938 141.960938 213.097656 141.886719 218.496094 142.382812 C 213.019531 146.613281 209.574219 153.613281 208.4375 162.402344 C 206.113281 162.832031 204.070312 163.386719 204.085938 163.921875 C 197.570312 172.191406 202.222656 169.878906 201.894531 173.585938 C 201.238281 174.851562 200.363281 176.488281 201.183594 177.886719 C 201.4375 178.515625 202.402344 179.816406 202.074219 180.535156 C 200.796875 183.75 200.691406 184.566406 203.292969 187.015625 C 204.238281 188.457031 204.910156 190.054688 205.957031 190.898438 C 205.808594 200.046875 206 210.582031 206.535156 223.066406 L 195.246094 225.46875 C 195.230469 225.472656 195.21875 225.476562 195.207031 225.480469 C 195.121094 225.5 195.039062 225.535156 194.960938 225.582031 C 194.664062 225.761719 194.492188 226.09375 194.519531 226.441406 C 194.746094 229.53125 194.992188 232.632812 195.246094 235.71875 C 182.921875 236.085938 173.203125 234.539062 166.339844 231.105469 Z M 204.449219 306.628906 C 204.011719 303.144531 199.3125 265.207031 196.496094 228.136719 L 201.390625 231.234375 C 203.789062 261 207.980469 282.515625 211.085938 295.34375 C 213.523438 305.425781 215.648438 311.773438 216.691406 314.644531 C 213.851562 313.667969 208.175781 311.257812 204.449219 306.628906 Z M 294.132812 299.578125 C 292.191406 300.648438 283.570312 305.234375 271.273438 309.261719 C 258.53125 313.433594 239.144531 317.832031 218.882812 315.230469 C 218.1875 313.425781 215.714844 306.652344 212.859375 294.839844 C 209.792969 282.140625 205.648438 260.878906 203.257812 231.472656 C 204.636719 231.246094 207.632812 230.746094 211.667969 230.046875 C 211.839844 231.460938 212.003906 232.816406 212.15625 234.097656 C 212.359375 235.824219 213.832031 237.101562 215.527344 237.101562 C 217.859375 237.191406 219.980469 235.710938 219.707031 233.195312 C 219.539062 231.785156 219.359375 230.289062 219.171875 228.71875 C 229.886719 226.796875 239.679688 224.910156 248.304688 223.105469 C 248.472656 223.265625 250.039062 224.765625 250.039062 224.765625 C 252.585938 227.253906 255.949219 228.625 259.503906 228.625 C 262.941406 228.625 266.222656 227.332031 268.738281 224.984375 C 271.285156 222.601562 272.8125 220.066406 273.46875 217.136719 C 275.894531 216.449219 278.027344 215.785156 279.832031 215.164062 C 280.730469 222.019531 285.585938 258.011719 290.246094 273.195312 C 294.695312 287.691406 294.296875 297.417969 294.132812 299.578125 Z M 294.132812 299.578125 " fill-opacity="1" fill-rule="nonzero"/></g><path fill="#4d4d4d" d="M 231.386719 252.710938 L 236.734375 256.902344 C 237.175781 257.25 237.699219 257.417969 238.21875 257.417969 C 238.933594 257.417969 239.644531 257.097656 240.121094 256.488281 L 245.632812 249.421875 C 245.945312 249.019531 245.875 248.441406 245.472656 248.125 C 245.074219 247.8125 244.492188 247.882812 244.179688 248.285156 L 238.667969 255.351562 C 238.476562 255.597656 238.117188 255.640625 237.871094 255.449219 L 232.523438 251.253906 C 232.402344 251.160156 232.328125 251.027344 232.308594 250.875 C 232.289062 250.726562 232.332031 250.574219 232.425781 250.457031 L 238.847656 242.226562 C 239.757812 241.058594 241.117188 240.375 242.589844 240.339844 C 242.59375 240.339844 242.601562 240.339844 242.609375 240.339844 L 242.675781 240.335938 C 242.6875 240.335938 242.703125 240.335938 242.714844 240.335938 C 244.238281 240.335938 245.648438 241.023438 246.585938 242.226562 L 254.109375 251.871094 L 251.957031 253.5625 C 251.414062 253.984375 251.183594 254.6875 251.371094 255.351562 C 251.558594 256.011719 252.121094 256.492188 252.800781 256.570312 L 264.710938 257.9375 C 264.773438 257.941406 264.839844 257.945312 264.902344 257.945312 C 265.734375 257.945312 266.464844 257.320312 266.574219 256.476562 L 268.121094 244.558594 C 268.210938 243.875 267.878906 243.214844 267.285156 242.875 C 266.6875 242.53125 265.953125 242.585938 265.410156 243.011719 L 263.257812 244.699219 L 260.4375 241.085938 C 259.148438 239.433594 257.210938 238.488281 255.117188 238.488281 L 242.582031 238.488281 C 242.5625 238.488281 242.539062 238.492188 242.515625 238.492188 C 240.5 238.550781 238.640625 239.488281 237.394531 241.085938 L 230.972656 249.316406 C 230.578125 249.824219 230.402344 250.460938 230.480469 251.101562 C 230.558594 251.742188 230.878906 252.3125 231.386719 252.710938 Z M 255.117188 240.335938 C 256.636719 240.335938 258.050781 241.023438 258.988281 242.226562 L 262.371094 246.566406 C 262.6875 246.96875 263.265625 247.039062 263.667969 246.726562 L 266.242188 244.707031 L 264.765625 256.082031 L 253.398438 254.777344 L 255.972656 252.757812 C 256.164062 252.605469 256.289062 252.386719 256.320312 252.140625 C 256.347656 251.898438 256.28125 251.652344 256.128906 251.460938 L 248.039062 241.085938 C 247.828125 240.816406 247.597656 240.566406 247.355469 240.335938 Z M 255.117188 240.335938 " fill-opacity="1" fill-rule="nonzero"/><path fill="#4d4d4d" d="M 246.574219 280.679688 L 237.324219 279.707031 C 236.820312 279.65625 236.363281 280.023438 236.3125 280.53125 C 236.257812 281.039062 236.625 281.496094 237.132812 281.546875 L 246.382812 282.519531 C 246.535156 282.535156 246.671875 282.605469 246.765625 282.726562 C 246.863281 282.84375 246.90625 282.992188 246.890625 283.144531 L 246.183594 289.910156 C 246.167969 290.0625 246.09375 290.199219 245.976562 290.292969 C 245.859375 290.390625 245.710938 290.433594 245.558594 290.417969 L 235.195312 289.332031 C 233.71875 289.175781 232.417969 288.378906 231.605469 287.140625 C 231.601562 287.140625 231.601562 287.136719 231.601562 287.136719 L 231.566406 287.082031 C 231.558594 287.070312 231.550781 287.058594 231.542969 287.046875 C 230.734375 285.753906 230.570312 284.191406 231.085938 282.757812 L 235.246094 271.242188 L 237.820312 272.179688 C 238.464844 272.414062 239.179688 272.234375 239.640625 271.722656 C 240.101562 271.214844 240.210938 270.484375 239.914062 269.863281 L 234.746094 259.015625 C 234.351562 258.191406 233.355469 257.828125 232.523438 258.210938 L 221.628906 263.222656 C 221.003906 263.507812 220.621094 264.136719 220.648438 264.828125 C 220.675781 265.515625 221.113281 266.109375 221.757812 266.34375 L 224.328125 267.277344 L 222.769531 271.589844 C 222.058594 273.5625 222.285156 275.714844 223.398438 277.492188 L 230.050781 288.140625 C 230.066406 288.171875 230.089844 288.199219 230.109375 288.222656 C 231.230469 289.890625 233 290.960938 235.003906 291.171875 L 245.367188 292.257812 C 245.453125 292.265625 245.539062 292.269531 245.625 292.269531 C 246.175781 292.269531 246.703125 292.082031 247.136719 291.730469 C 247.636719 291.324219 247.949219 290.746094 248.019531 290.105469 L 248.722656 283.335938 C 248.792969 282.695312 248.605469 282.0625 248.199219 281.5625 C 247.792969 281.058594 247.214844 280.746094 246.574219 280.679688 Z M 229.355469 282.125 C 229.238281 282.449219 229.144531 282.777344 229.078125 283.105469 L 224.960938 276.511719 C 224.152344 275.21875 223.988281 273.652344 224.503906 272.21875 L 226.378906 267.039062 C 226.460938 266.808594 226.449219 266.554688 226.34375 266.332031 C 226.242188 266.109375 226.054688 265.9375 225.824219 265.855469 L 222.75 264.738281 L 233.152344 259.957031 L 238.082031 270.308594 L 235.007812 269.191406 C 234.53125 269.015625 234 269.265625 233.828125 269.746094 L 229.351562 282.125 Z M 229.355469 282.125 " fill-opacity="1" fill-rule="nonzero"/><path fill="#4d4d4d" d="M 275.441406 258.5 C 274.953125 257.261719 273.546875 256.652344 272.3125 257.144531 L 266 259.652344 C 264.765625 260.144531 264.15625 261.550781 264.648438 262.789062 L 268.40625 272.296875 C 268.59375 272.773438 269.128906 273.003906 269.605469 272.816406 C 270.078125 272.628906 270.308594 272.089844 270.121094 271.617188 L 266.363281 262.109375 C 266.246094 261.816406 266.390625 261.484375 266.679688 261.371094 L 272.992188 258.863281 C 273.28125 258.746094 273.613281 258.890625 273.730469 259.183594 L 277.570312 268.894531 C 278.117188 270.277344 278.015625 271.804688 277.296875 273.101562 C 277.292969 273.101562 277.292969 273.101562 277.292969 273.105469 C 277.28125 273.125 277.269531 273.144531 277.261719 273.164062 C 277.253906 273.171875 277.25 273.183594 277.246094 273.191406 C 277.242188 273.195312 277.242188 273.195312 277.242188 273.199219 C 276.472656 274.515625 275.167969 275.386719 273.660156 275.589844 L 261.554688 277.226562 L 261.1875 274.507812 C 261.097656 273.828125 260.609375 273.273438 259.945312 273.101562 C 259.277344 272.925781 258.582031 273.171875 258.171875 273.722656 L 250.976562 283.332031 C 250.429688 284.066406 250.570312 285.121094 251.292969 285.683594 L 260.769531 293.042969 C 261.074219 293.277344 261.4375 293.398438 261.800781 293.398438 C 262.089844 293.398438 262.378906 293.324219 262.644531 293.171875 C 263.238281 292.828125 263.5625 292.164062 263.472656 291.480469 L 263.105469 288.761719 L 267.640625 288.152344 C 269.714844 287.871094 271.507812 286.671875 272.566406 284.859375 L 278.832031 274.132812 L 278.898438 274.019531 C 278.910156 273.996094 278.917969 273.976562 278.929688 273.953125 C 279.898438 272.179688 280.03125 270.101562 279.28125 268.214844 Z M 270.976562 283.925781 C 270.207031 285.242188 268.902344 286.113281 267.394531 286.320312 L 261.945312 287.054688 C 261.703125 287.089844 261.484375 287.214844 261.335938 287.410156 C 261.1875 287.605469 261.121094 287.851562 261.15625 288.09375 L 261.59375 291.34375 L 252.546875 284.316406 L 259.414062 275.140625 L 259.851562 278.390625 C 259.882812 278.632812 260.011719 278.851562 260.203125 279 C 260.398438 279.148438 260.644531 279.214844 260.886719 279.183594 L 273.90625 277.421875 C 274.242188 277.375 274.574219 277.304688 274.898438 277.210938 Z M 270.976562 283.925781 " fill-opacity="1" fill-rule="nonzero"/><path fill="#4d4d4d" d="M 214.261719 101.867188 C 214.347656 101.890625 214.429688 101.902344 214.511719 101.902344 C 214.914062 101.902344 215.285156 101.636719 215.402344 101.230469 C 215.40625 101.210938 215.921875 99.457031 217.230469 99 C 217.710938 98.832031 217.964844 98.304688 217.796875 97.820312 C 217.628906 97.339844 217.101562 97.085938 216.621094 97.253906 C 214.398438 98.035156 213.65625 100.621094 213.625 100.730469 C 213.488281 101.222656 213.773438 101.726562 214.261719 101.867188 Z M 214.261719 101.867188 " fill-opacity="1" fill-rule="nonzero"/></svg>