<svg xmlns="http://www.w3.org/2000/svg" xmlns:xlink="http://www.w3.org/1999/xlink" width="500" zoomAndPan="magnify" viewBox="0 0 375 374.999991" height="500" preserveAspectRatio="xMidYMid meet" version="1.0"><defs><clipPath id="485188eafd"><path d="M 239.703125 311.425781 L 280.757812 311.425781 L 280.757812 325.886719 L 239.703125 325.886719 Z M 239.703125 311.425781 " clip-rule="nonzero"/></clipPath><clipPath id="4ece13ffe1"><path d="M 129 320 L 164 320 L 164 326.957031 L 129 326.957031 Z M 129 320 " clip-rule="nonzero"/></clipPath></defs><path fill="#4c5053" d="M 244.359375 206.515625 C 244.359375 206.515625 247.261719 203.445312 253.429688 203.507812 C 255.957031 203.535156 260.636719 204.402344 261.449219 207.3125 C 262.6875 211.730469 256.335938 213.058594 253.429688 213.085938 C 247.265625 213.152344 244.359375 210.078125 244.359375 210.078125 L 244.359375 206.515625 " fill-opacity="1" fill-rule="nonzero"/><path fill="#4c5053" d="M 243.722656 206.515625 C 243.722656 206.515625 240.820312 203.445312 234.652344 203.507812 C 232.125 203.535156 227.445312 204.402344 226.632812 207.3125 C 225.394531 211.730469 231.746094 213.058594 234.652344 213.085938 C 240.820312 213.152344 243.722656 210.078125 243.722656 210.078125 L 243.722656 206.515625 " fill-opacity="1" fill-rule="nonzero"/><path fill="#4c5053" d="M 242.382812 226.921875 L 245.703125 226.921875 L 245.703125 206.050781 C 245.703125 205.132812 244.957031 204.390625 244.042969 204.390625 C 243.125 204.390625 242.382812 205.132812 242.382812 206.050781 L 242.382812 226.921875 " fill-opacity="1" fill-rule="nonzero"/><path fill="#77d2dc" d="M 216.34375 270.425781 C 216.683594 268.4375 217.355469 266.488281 218.257812 264.6875 C 219.253906 262.699219 220.273438 260.828125 220.894531 258.664062 C 221.316406 257.203125 221.835938 257.363281 222.042969 257.953125 C 222.742188 259.929688 223.308594 261.933594 224.117188 263.871094 C 224.933594 265.832031 225.890625 267.722656 226.925781 269.574219 C 228.621094 272.605469 230.371094 276.625 227.578125 279.605469 C 225.320312 282.019531 221.589844 281.894531 219.09375 279.933594 C 216.207031 277.664062 215.769531 273.835938 216.34375 270.425781 " fill-opacity="1" fill-rule="nonzero"/><path fill="#9ddfe6" d="M 218.980469 270.390625 C 219 270.429688 219.785156 273.050781 220.175781 274.105469 C 220.476562 274.917969 220.890625 275.777344 220.941406 276.65625 C 220.996094 277.648438 219.746094 278.671875 218.554688 277.480469 C 217.308594 276.230469 217.527344 272.769531 218.148438 271.035156 C 218.308594 270.589844 218.734375 269.941406 218.980469 270.390625 " fill-opacity="1" fill-rule="nonzero"/><path fill="#999999" d="M 221.4375 226.113281 C 212.023438 230.980469 213.414062 251.402344 213.414062 251.402344 L 231.285156 251.402344 C 231.285156 251.402344 230.121094 242.386719 234.808594 241.023438 C 236.859375 240.425781 239.855469 240.835938 246.792969 241.023438 C 248.550781 241.066406 251.828125 241.972656 251.828125 245.734375 L 251.828125 314.464844 L 268.6875 314.464844 L 268.6875 239.109375 C 268.6875 230.886719 262.542969 224.847656 253.96875 223.878906 C 242.019531 222.523438 227.871094 222.789062 221.4375 226.113281 " fill-opacity="1" fill-rule="nonzero"/><path fill="#808080" d="M 212.929688 255.042969 L 231.394531 255.042969 C 232.554688 255.042969 233.496094 254.101562 233.496094 252.9375 L 233.496094 250.308594 C 233.496094 249.148438 232.554688 248.207031 231.394531 248.207031 L 212.929688 248.207031 C 211.769531 248.207031 210.828125 249.148438 210.828125 250.308594 L 210.828125 252.9375 C 210.828125 254.101562 211.769531 255.042969 212.929688 255.042969 " fill-opacity="1" fill-rule="nonzero"/><g clip-path="url(#485188eafd)"><path fill="#808080" d="M 280.761719 325.714844 L 239.964844 325.714844 L 239.964844 316.246094 C 239.964844 313.78125 241.957031 311.785156 244.417969 311.785156 L 276.308594 311.785156 C 278.765625 311.785156 280.761719 313.78125 280.761719 316.246094 L 280.761719 325.714844 " fill-opacity="1" fill-rule="nonzero"/></g><path fill="#bdbdbd" d="M 194.535156 319.683594 L 194.535156 322.132812 C 194.535156 323.492188 193.5625 324.636719 192.230469 324.875 C 187.34375 325.753906 177.523438 326.261719 162.753906 324.738281 C 161.714844 324.628906 160.382812 324.558594 160.265625 323.519531 L 160.265625 319.683594 L 194.535156 319.683594 " fill-opacity="1" fill-rule="nonzero"/><path fill="#000000" d="M 180.714844 309.976562 C 183.34375 315.183594 194.527344 315.300781 194.535156 319.683594 C 194.539062 322.277344 168.640625 322.035156 160.265625 320.019531 C 160.265625 320.019531 160.265625 305.859375 161.484375 303.574219 C 161.59375 303.367188 178.539062 306.941406 178.953125 307.203125 C 179.089844 307.289062 180.289062 309.125 180.714844 309.976562 " fill-opacity="1" fill-rule="nonzero"/><path fill="#e6e6e6" d="M 182.71875 316.460938 C 182.820312 316.34375 182.921875 316.226562 183.023438 316.113281 C 183.082031 316.050781 183.128906 315.992188 183.179688 315.925781 C 183.191406 315.90625 183.222656 315.847656 183.242188 315.84375 C 183.226562 315.863281 183.210938 315.882812 183.195312 315.902344 C 183.210938 315.882812 183.226562 315.863281 183.242188 315.84375 C 183.261719 315.816406 183.28125 315.789062 183.304688 315.765625 C 183.382812 315.664062 183.460938 315.566406 183.539062 315.464844 C 183.601562 315.382812 183.457031 315.566406 183.519531 315.488281 C 183.546875 315.457031 183.570312 315.425781 183.597656 315.390625 C 183.695312 315.265625 183.796875 315.144531 183.902344 315.027344 C 184.105469 314.792969 184.316406 314.566406 184.535156 314.347656 C 184.820312 314.070312 185.203125 313.804688 185.269531 313.382812 C 185.300781 313.152344 185.289062 312.960938 185.140625 312.773438 C 185.015625 312.609375 184.808594 312.484375 184.59375 312.496094 C 184.414062 312.507812 184.25 312.535156 184.089844 312.628906 C 183.976562 312.691406 183.867188 312.78125 183.777344 312.875 C 183.664062 312.988281 183.558594 313.109375 183.453125 313.230469 C 183.210938 313.511719 182.976562 313.808594 182.753906 314.105469 C 182.5625 314.363281 182.375 314.621094 182.21875 314.894531 C 182.03125 315.21875 181.894531 315.554688 181.769531 315.90625 C 181.691406 316.132812 181.820312 316.4375 182.03125 316.550781 C 182.242188 316.660156 182.550781 316.65625 182.71875 316.460938 " fill-opacity="1" fill-rule="nonzero"/><path fill="#e6e6e6" d="M 179.957031 314.875 C 180.195312 314.59375 180.46875 314.347656 180.730469 314.089844 C 180.980469 313.832031 181.222656 313.566406 181.488281 313.320312 C 181.617188 313.199219 181.753906 313.082031 181.886719 312.96875 C 181.960938 312.90625 182.035156 312.84375 182.109375 312.78125 C 182.144531 312.753906 182.179688 312.726562 182.210938 312.699219 C 182.253906 312.667969 182.328125 312.578125 182.199219 312.710938 C 182.316406 312.589844 182.484375 312.492188 182.621094 312.398438 C 182.824219 312.253906 183.03125 312.128906 183.183594 311.933594 C 183.390625 311.679688 183.496094 311.324219 183.300781 311.019531 C 183.121094 310.742188 182.78125 310.578125 182.449219 310.671875 C 181.996094 310.804688 181.617188 311.148438 181.261719 311.449219 C 180.972656 311.695312 180.695312 311.953125 180.4375 312.226562 C 180.148438 312.527344 179.871094 312.839844 179.628906 313.175781 C 179.519531 313.332031 179.398438 313.488281 179.316406 313.660156 C 179.230469 313.832031 179.144531 314.003906 179.050781 314.171875 C 178.910156 314.425781 178.972656 314.742188 179.199219 314.921875 C 179.410156 315.082031 179.773438 315.097656 179.957031 314.875 " fill-opacity="1" fill-rule="nonzero"/><g clip-path="url(#4ece13ffe1)"><path fill="#e6e6e6" d="M 163.511719 320.394531 L 163.511719 322.84375 C 163.511719 324.199219 162.539062 325.34375 161.207031 325.585938 C 156.320312 326.460938 146.5 326.972656 131.734375 325.445312 C 130.691406 325.339844 129.359375 325.269531 129.246094 324.226562 L 129.246094 320.394531 L 163.511719 320.394531 " fill-opacity="1" fill-rule="nonzero"/></g><path fill="#262626" d="M 149.695312 310.683594 C 152.324219 315.894531 163.503906 316.011719 163.511719 320.394531 C 163.515625 322.988281 137.617188 322.742188 129.246094 320.726562 C 129.246094 320.726562 129.246094 306.566406 130.460938 304.28125 C 130.574219 304.078125 147.515625 307.648438 147.933594 307.910156 C 148.066406 307.996094 149.265625 309.832031 149.695312 310.683594 " fill-opacity="1" fill-rule="nonzero"/><path fill="#e6e6e6" d="M 151.695312 317.167969 C 151.796875 317.050781 151.898438 316.933594 152.003906 316.820312 C 152.058594 316.757812 152.105469 316.699219 152.160156 316.632812 C 152.171875 316.617188 152.203125 316.554688 152.21875 316.550781 C 152.203125 316.570312 152.191406 316.589844 152.175781 316.609375 C 152.191406 316.589844 152.203125 316.570312 152.222656 316.550781 C 152.238281 316.523438 152.261719 316.496094 152.28125 316.472656 C 152.363281 316.375 152.441406 316.273438 152.519531 316.171875 C 152.578125 316.09375 152.4375 316.273438 152.496094 316.199219 C 152.523438 316.164062 152.550781 316.132812 152.574219 316.101562 C 152.675781 315.972656 152.773438 315.851562 152.878906 315.734375 C 153.082031 315.5 153.292969 315.273438 153.515625 315.054688 C 153.796875 314.777344 154.183594 314.511719 154.246094 314.089844 C 154.277344 313.859375 154.265625 313.671875 154.117188 313.480469 C 153.992188 313.316406 153.785156 313.191406 153.570312 313.203125 C 153.394531 313.21875 153.226562 313.242188 153.066406 313.335938 C 152.953125 313.398438 152.847656 313.492188 152.753906 313.582031 C 152.644531 313.699219 152.535156 313.816406 152.433594 313.9375 C 152.1875 314.222656 151.953125 314.515625 151.730469 314.816406 C 151.542969 315.070312 151.355469 315.328125 151.199219 315.601562 C 151.011719 315.925781 150.871094 316.261719 150.746094 316.613281 C 150.667969 316.84375 150.796875 317.144531 151.007812 317.257812 C 151.21875 317.367188 151.53125 317.363281 151.695312 317.167969 " fill-opacity="1" fill-rule="nonzero"/><path fill="#e6e6e6" d="M 148.9375 315.582031 C 149.171875 315.300781 149.449219 315.058594 149.707031 314.796875 C 149.960938 314.542969 150.203125 314.277344 150.46875 314.027344 C 150.597656 313.910156 150.730469 313.792969 150.863281 313.675781 C 150.9375 313.613281 151.011719 313.550781 151.089844 313.492188 C 151.121094 313.464844 151.15625 313.4375 151.191406 313.40625 C 151.234375 313.375 151.308594 313.285156 151.175781 313.417969 C 151.296875 313.296875 151.464844 313.203125 151.601562 313.105469 C 151.800781 312.960938 152.007812 312.835938 152.164062 312.640625 C 152.367188 312.386719 152.472656 312.03125 152.28125 311.726562 C 152.101562 311.449219 151.757812 311.285156 151.429688 311.378906 C 150.972656 311.511719 150.59375 311.855469 150.238281 312.160156 C 149.953125 312.402344 149.675781 312.664062 149.414062 312.9375 C 149.128906 313.234375 148.847656 313.546875 148.609375 313.882812 C 148.496094 314.039062 148.378906 314.195312 148.292969 314.367188 C 148.207031 314.542969 148.125 314.710938 148.027344 314.878906 C 147.886719 315.132812 147.949219 315.453125 148.175781 315.628906 C 148.386719 315.789062 148.75 315.804688 148.9375 315.582031 " fill-opacity="1" fill-rule="nonzero"/><path fill="#348e99" d="M 186.59375 250.164062 C 186.425781 274.164062 181.5 309.941406 181.5 309.941406 L 159.46875 310.242188 L 158.757812 261.375 L 150.757812 310.636719 L 128.015625 310.636719 C 125.75 292.746094 126.875 263.683594 127.679688 249.113281 C 127.980469 243.621094 128.222656 240.1875 128.222656 240.1875 L 186.332031 240.1875 C 186.390625 240.976562 186.445312 241.800781 186.480469 242.664062 C 186.59375 244.96875 186.632812 247.480469 186.59375 250.164062 " fill-opacity="1" fill-rule="nonzero"/><path fill="#237882" d="M 186.585938 251.089844 C 159.703125 255.972656 133.796875 251.007812 127.632812 249.957031 C 127.933594 244.460938 128.222656 240.1875 128.222656 240.1875 L 144.765625 240.1875 L 186.480469 242.664062 C 186.59375 244.96875 186.625 248.410156 186.585938 251.089844 " fill-opacity="1" fill-rule="nonzero"/><path fill="#ffc094" d="M 236.199219 203.105469 C 235.9375 203.5625 234.960938 204.824219 235.117188 205.332031 C 235.265625 205.816406 235.75 206.117188 236.230469 206.261719 C 239.246094 207.160156 242.667969 202.523438 244.457031 200.402344 C 245.46875 203.289062 247.019531 208.660156 250.140625 208.660156 C 252.625 208.660156 251.480469 202.652344 250.890625 200.53125 C 251.542969 202.71875 257.097656 209.582031 259.0625 208.214844 C 260.914062 206.921875 256.871094 200.890625 255.410156 198.9375 C 256.234375 200.390625 262.625 203.777344 263.960938 201.828125 C 264.621094 200.867188 260.914062 197.019531 257.226562 195.925781 C 259.613281 196.136719 262.21875 197.945312 262.882812 196.554688 C 263.457031 195.359375 258.21875 189.902344 243.703125 190.503906 C 242.210938 190.5625 241.277344 191.007812 239.957031 191.707031 C 237.722656 192.890625 238.671875 194.863281 238.574219 196.8125 C 238.4375 199.433594 237.460938 200.910156 236.199219 203.105469 " fill-opacity="1" fill-rule="nonzero"/><path fill="#d65a47" d="M 146.445312 150.726562 C 146.445312 150.726562 126.449219 193.003906 119.898438 243.273438 C 119.898438 243.273438 151.296875 254.464844 191.007812 248.75 L 189.449219 158.5625 L 146.445312 150.726562 " fill-opacity="1" fill-rule="nonzero"/><path fill="#d65a47" d="M 186.800781 188.890625 C 197.371094 189.351562 208.292969 186.085938 236.789062 198.574219 L 250.964844 190.136719 C 250.964844 190.136719 207.984375 163.792969 185.554688 163.792969 L 186.800781 188.890625 " fill-opacity="1" fill-rule="nonzero"/><path fill="#b04a3a" d="M 121.847656 240.890625 C 120.199219 240.890625 117.929688 240.421875 115.054688 239.484375 C 114.5625 239.324219 114.292969 238.792969 114.453125 238.300781 C 114.613281 237.808594 115.136719 237.542969 115.636719 237.699219 C 122.046875 239.796875 123.148438 238.785156 123.160156 238.777344 C 123.15625 238.777344 123.101562 238.835938 123.074219 239 L 143.570312 186.210938 C 143.757812 185.730469 144.304688 185.492188 144.78125 185.679688 C 145.265625 185.867188 145.503906 186.410156 145.316406 186.894531 L 124.867188 239.5 C 124.882812 239.472656 124.777344 239.996094 124.078125 240.414062 C 123.550781 240.734375 122.804688 240.890625 121.847656 240.890625 " fill-opacity="1" fill-rule="nonzero"/><path fill="#ffc094" d="M 96.242188 242.414062 C 97.699219 245.425781 101.035156 242.171875 102.839844 242.378906 C 102.050781 243.464844 96.175781 247.710938 97.863281 249.734375 C 99.3125 251.464844 103.308594 247.859375 105.359375 246.273438 C 104.160156 248.195312 101.617188 252.804688 103.023438 254.1875 C 105.164062 256.289062 109.265625 250.097656 111.179688 248.394531 C 110.449219 249.058594 110.285156 251.796875 110.195312 252.699219 C 110.144531 253.222656 110.121094 253.78125 110.386719 254.226562 C 110.773438 254.882812 111.6875 255.078125 112.40625 254.832031 C 113.125 254.585938 113.675781 253.996094 114.105469 253.371094 C 115.050781 251.988281 117.058594 245.4375 117.566406 243.773438 C 117.347656 244.671875 119.882812 247.375 120.726562 247.746094 C 121.589844 248.128906 122.664062 248.457031 123.414062 247.882812 C 124.363281 247.15625 124.007812 245.675781 123.613281 244.550781 C 123.152344 243.238281 122.765625 241.902344 122.449219 240.550781 C 122.191406 239.441406 122.25 238.222656 121.703125 237.203125 C 120.894531 235.695312 115.140625 233.125 113.800781 232.875 C 110.847656 232.332031 108.363281 233.851562 105.832031 235.140625 C 102.863281 236.648438 95.386719 240.644531 96.242188 242.414062 " fill-opacity="1" fill-rule="nonzero"/><path fill="#d65a47" d="M 139.925781 154.125 C 139.925781 154.125 117.8125 179.226562 107.222656 234.097656 C 107.222656 234.097656 111.558594 239.753906 122.160156 239.109375 L 146.445312 177.042969 L 143.992188 159.363281 L 139.925781 154.125 " fill-opacity="1" fill-rule="nonzero"/><path fill="#ffc094" d="M 144.738281 162.792969 C 159.511719 173.105469 190.535156 176.085938 206.992188 157.820312 C 208.832031 155.785156 210.484375 153.453125 211.917969 150.855469 C 212.058594 150.601562 212.195312 150.351562 212.335938 150.101562 C 227.351562 121.429688 210.832031 100.914062 200.199219 94.957031 C 180.710938 84.019531 157.339844 85.074219 144.390625 92.925781 C 112.457031 112.285156 127.15625 150.492188 144.738281 162.792969 " fill-opacity="1" fill-rule="nonzero"/><path fill="#996844" d="M 182.019531 156.570312 C 181.988281 156.570312 181.957031 156.566406 181.917969 156.5625 C 177.546875 156.105469 175.710938 152.136719 175.804688 149.464844 C 175.824219 148.921875 176.273438 148.503906 176.8125 148.519531 C 177.347656 148.535156 177.777344 148.992188 177.757812 149.535156 C 177.707031 151.035156 178.703125 154.257812 182.121094 154.613281 C 185.367188 155.003906 187.652344 152.75 188.148438 150.507812 C 188.269531 149.980469 188.796875 149.65625 189.316406 149.765625 C 189.84375 149.882812 190.179688 150.40625 190.0625 150.933594 C 189.382812 153.976562 186.339844 156.96875 182.019531 156.570312 " fill-opacity="1" fill-rule="nonzero"/><path fill="#996844" d="M 183.941406 146.886719 C 183.457031 146.839844 183.070312 146.445312 183.050781 145.949219 C 183.027344 145.40625 183.449219 144.949219 183.988281 144.925781 C 186.378906 144.824219 188.214844 144.175781 189.171875 143.097656 C 189.691406 142.507812 189.921875 141.800781 189.855469 140.992188 C 189.800781 140.273438 189.550781 139.78125 189.074219 139.445312 C 187.796875 138.550781 185.167969 139.003906 184.351562 139.230469 C 184.039062 139.320312 183.703125 139.25 183.457031 139.042969 C 183.210938 138.835938 183.078125 138.519531 183.109375 138.195312 L 183.503906 133.886719 C 183.554688 133.34375 184.03125 132.949219 184.570312 132.996094 C 185.113281 133.046875 185.507812 133.523438 185.460938 134.066406 L 185.183594 137.0625 C 186.570312 136.859375 188.699219 136.789062 190.199219 137.835938 C 191.152344 138.503906 191.710938 139.542969 191.816406 140.839844 C 191.921875 142.179688 191.515625 143.410156 190.640625 144.402344 C 189.332031 145.882812 187 146.765625 184.074219 146.886719 C 184.027344 146.890625 183.984375 146.890625 183.941406 146.886719 " fill-opacity="1" fill-rule="nonzero"/><path fill="#ffffff" d="M 170.253906 140.921875 C 168.878906 141.957031 167.289062 142.738281 165.632812 143.226562 C 165.410156 143.300781 165.164062 143.375 164.925781 143.421875 C 164.558594 143.53125 164.171875 143.613281 163.808594 143.675781 C 156.117188 145.058594 147.734375 140.511719 146.585938 132.355469 C 146.460938 131.632812 146.433594 130.917969 146.453125 130.207031 C 146.675781 123.601562 151.980469 117.539062 158.570312 116.53125 C 163.476562 115.792969 168.746094 117.5625 172.066406 121.191406 C 173.167969 122.382812 174.058594 123.773438 174.648438 125.347656 L 174.648438 125.371094 C 176.613281 130.582031 174.765625 137.539062 170.253906 140.921875 " fill-opacity="1" fill-rule="nonzero"/><path fill="#000000" d="M 170.253906 140.921875 C 168.878906 141.957031 167.289062 142.738281 165.632812 143.226562 C 161.425781 140.964844 158.765625 136.609375 159.207031 131.832031 C 159.777344 125.59375 165.445312 120.960938 172.066406 121.191406 C 173.167969 122.382812 174.058594 123.773438 174.648438 125.347656 L 174.648438 125.371094 C 176.613281 130.582031 174.765625 137.539062 170.253906 140.921875 " fill-opacity="1" fill-rule="nonzero"/><path fill="#ffffff" d="M 214.410156 141.996094 C 213.136719 142.957031 211.660156 143.679688 210.125 144.113281 C 209.917969 144.203125 209.691406 144.269531 209.46875 144.316406 C 209.128906 144.417969 208.769531 144.492188 208.433594 144.550781 C 201.296875 145.832031 193.523438 141.613281 192.457031 134.050781 C 192.347656 133.378906 192.320312 132.71875 192.335938 132.058594 C 192.542969 125.933594 197.460938 120.308594 203.574219 119.375 C 208.125 118.691406 213.011719 120.332031 216.089844 123.699219 C 217.113281 124.804688 217.941406 126.089844 218.488281 127.550781 L 218.484375 127.574219 C 220.308594 132.40625 218.59375 138.855469 214.410156 141.996094 " fill-opacity="1" fill-rule="nonzero"/><path fill="#000000" d="M 214.410156 141.996094 C 213.136719 142.957031 211.660156 143.679688 210.125 144.113281 C 206.246094 142.035156 203.78125 137.957031 204.1875 133.546875 C 204.71875 127.761719 209.972656 123.488281 216.089844 123.699219 C 217.113281 124.804688 217.941406 126.089844 218.488281 127.550781 L 218.484375 127.574219 C 220.308594 132.40625 218.59375 138.855469 214.410156 141.996094 " fill-opacity="1" fill-rule="nonzero"/><path fill="#fb8471" d="M 164.4375 149.777344 C 165.519531 149.914062 166.550781 150.210938 167.457031 150.714844 C 170.738281 152.519531 168.523438 155.992188 166.058594 157.195312 C 163.0625 158.65625 153.617188 160.019531 152.335938 155.226562 C 152.109375 154.394531 152.445312 153.480469 153.015625 152.832031 C 153.589844 152.183594 154.375 151.761719 155.167969 151.417969 C 157.730469 150.304688 161.316406 149.382812 164.4375 149.777344 " fill-opacity="1" fill-rule="nonzero"/><path fill="#fb8471" d="M 197.027344 152.824219 C 197.261719 156.625 202.90625 157.84375 206.992188 157.820312 C 208.832031 155.785156 210.484375 153.453125 211.917969 150.855469 C 211.320312 150.46875 210.667969 150.160156 209.980469 149.929688 C 207.011719 148.902344 203.304688 149.097656 200.574219 149.65625 C 199.722656 149.84375 198.871094 150.09375 198.179688 150.613281 C 197.492188 151.132812 196.988281 151.960938 197.027344 152.824219 " fill-opacity="1" fill-rule="nonzero"/><path fill="#78411d" d="M 171.300781 65.011719 C 171.300781 65.011719 201.980469 53.554688 217.65625 76.980469 C 229.800781 95.132812 225.789062 117.644531 225.789062 117.644531 C 215.898438 124.386719 191.964844 121.175781 191.964844 121.175781 L 187.429688 105.542969 L 183.761719 121.007812 C 183.761719 121.007812 151.121094 121.285156 134.84375 104.632812 C 134.84375 104.632812 117.402344 116.929688 135.628906 150.175781 C 135.628906 150.175781 114.617188 154.21875 95.261719 140.410156 C 95.261719 140.410156 94.027344 90.535156 120.460938 69.738281 C 148.121094 47.976562 171.300781 65.011719 171.300781 65.011719 " fill-opacity="1" fill-rule="nonzero"/><path fill="#d18d5c" d="M 127.535156 126.804688 C 127.605469 127.554688 127.703125 128.355469 127.851562 129.15625 C 128.832031 129.691406 129.519531 129.960938 129.59375 129.976562 C 129.710938 130.027344 129.839844 130.039062 129.953125 130.035156 C 130.328125 130.015625 130.65625 129.792969 130.808594 129.429688 C 130.972656 128.9375 130.722656 128.402344 130.246094 128.21875 C 130.226562 128.21875 129.042969 127.765625 127.535156 126.804688 " fill-opacity="1" fill-rule="nonzero"/><path fill="#d18d5c" d="M 128.632812 114.175781 C 131.046875 114.816406 133.296875 116.023438 135.117188 117.667969 C 135.292969 117.828125 135.539062 117.910156 135.78125 117.898438 C 136.027344 117.886719 136.265625 117.78125 136.425781 117.585938 C 136.785156 117.214844 136.753906 116.613281 136.363281 116.277344 C 134.367188 114.472656 131.921875 113.140625 129.28125 112.402344 C 129.0625 112.957031 128.828125 113.546875 128.632812 114.175781 " fill-opacity="1" fill-rule="nonzero"/><path fill="#ffc094" d="M 135.472656 118.085938 C 133.996094 116.253906 129.257812 113.777344 126.632812 113.90625 C 124.390625 114.015625 122.40625 115.910156 122.191406 118.148438 C 121.625 124.015625 128.9375 128.171875 131.082031 128.28125 L 135.472656 118.085938 " fill-opacity="1" fill-rule="nonzero"/></svg>