<svg xmlns="http://www.w3.org/2000/svg" xmlns:xlink="http://www.w3.org/1999/xlink" width="500" zoomAndPan="magnify" viewBox="0 0 375 374.999991" height="500" preserveAspectRatio="xMidYMid meet" version="1.0"><path fill="#e96019" d="M 115.386719 214.4375 C 115.386719 214.4375 127.460938 225.074219 123.808594 241.496094 C 120.15625 257.914062 98.703125 293.339844 148.914062 307.628906 C 199.128906 321.921875 246.601562 309.453125 248.121094 281.480469 C 249.644531 253.507812 244.167969 254.722656 253.753906 238.605469 C 263.339844 222.492188 257.554688 205.464844 247.210938 200.144531 C 247.210938 200.144531 251.773438 229.332031 228.191406 235.871094 C 228.191406 235.871094 239.769531 213.703125 222.761719 189.496094 C 213.722656 178.316406 215.867188 169.886719 218.910156 165.632812 C 218.910156 165.632812 207.039062 171.105469 209.476562 182.660156 C 211.910156 194.214844 218.605469 200.144531 213.277344 209.722656 C 207.953125 219.300781 200.320312 223.769531 200.320312 223.769531 C 200.320312 223.769531 201.332031 201.136719 188.242188 193.472656 C 172.925781 184.5 151.75 165.84375 170.902344 145.847656 C 170.902344 145.847656 148.308594 158.941406 148.308594 175.96875 C 148.308594 192.996094 158.523438 227.632812 157.132812 231.613281 C 156.0625 234.671875 153.761719 235.226562 148.003906 226.597656 C 142.757812 218.730469 128.109375 208.660156 115.386719 214.4375 Z M 115.386719 214.4375 " fill-opacity="1" fill-rule="nonzero"/><path fill="#999999" d="M 64.847656 201.816406 C 64.847656 201.816406 59.828125 218.234375 76.261719 223.402344 C 92.695312 228.574219 97.640625 218.613281 93.300781 208.65625 C 93.289062 208.5 113.984375 200.695312 97.183594 184.484375 C 96.640625 184.484375 104.117188 167.242188 91.714844 163.265625 C 77.375 158.664062 72.777344 170.789062 72.777344 170.789062 C 72.777344 170.789062 54.960938 165.839844 51.476562 178.207031 C 46.867188 194.566406 64.964844 202.640625 64.847656 201.816406 Z M 64.847656 201.816406 " fill-opacity="1" fill-rule="nonzero"/><path fill="#e96019" d="M 130.339844 206.589844 C 130.339844 206.589844 131.417969 198.394531 125.941406 193.453125 C 120.460938 188.511719 112.777344 175.664062 126.320312 165.707031 C 126.320312 165.707031 122.988281 175.125 126.851562 180.835938 C 132.128906 188.625 141.105469 196.503906 130.339844 206.589844 Z M 130.339844 206.589844 " fill-opacity="1" fill-rule="nonzero"/><path fill="#e96019" d="M 191.671875 161.375 C 191.671875 161.375 184.421875 171.492188 188.628906 176.5 C 194.5625 183.570312 201.5625 181.976562 202.476562 193.378906 C 202.550781 193.226562 206.457031 187.988281 204.78125 183.730469 C 203.109375 179.472656 189.097656 177.332031 191.671875 161.375 Z M 191.671875 161.375 " fill-opacity="1" fill-rule="nonzero"/><path fill="#e96019" d="M 233.589844 188.664062 C 233.589844 188.664062 233.363281 179.617188 238.535156 175.210938 C 243.710938 170.800781 246.296875 161.449219 243.40625 155.75 C 243.40625 155.75 253.90625 161.148438 251.46875 171.789062 C 249.035156 182.429688 238.992188 179.085938 233.589844 188.664062 Z M 233.589844 188.664062 " fill-opacity="1" fill-rule="nonzero"/><path fill="#e9b319" d="M 134.644531 247.226562 C 134.644531 247.226562 139.632812 251.300781 138.492188 261.714844 C 137.351562 272.128906 141.960938 287.429688 152.613281 291.515625 C 163.265625 295.601562 208.992188 308.179688 229.003906 291.625 C 249.015625 275.066406 226.203125 255.503906 237.824219 241.527344 C 237.824219 241.527344 229.863281 243.246094 224.589844 253.460938 C 219.320312 263.671875 199.585938 245.753906 215.105469 226.292969 C 215.105469 226.292969 203.234375 226.824219 200.269531 238.988281 C 197.300781 251.148438 190.304688 257.839844 185.890625 257.839844 C 185.890625 257.839844 186.71875 232.070312 178.542969 220.777344 C 172.234375 212.070312 170.902344 199.816406 170.902344 199.816406 C 170.902344 199.816406 163.695312 204.332031 165.414062 215.402344 C 167.136719 226.476562 169.761719 256.394531 153.175781 264.300781 C 148.460938 266.277344 150.5 246.570312 134.644531 247.226562 Z M 134.644531 247.226562 " fill-opacity="1" fill-rule="nonzero"/><path fill="#999999" d="M 210.597656 239.332031 C 209.761719 239.386719 208.90625 239.699219 208.078125 240.1875 C 207.882812 241.011719 207.699219 241.757812 207.699219 241.957031 C 207.699219 242.171875 208.882812 242.871094 208.882812 242.871094 L 207.808594 245.183594 L 206.800781 245.796875 L 207.476562 243.015625 L 205.84375 242.03125 C 205.136719 242.808594 204.5 243.703125 203.996094 244.6875 C 201.867188 248.863281 203.714844 256.589844 198.898438 263.160156 C 196.183594 266.867188 183.835938 266.199219 180.03125 263.84375 C 176.324219 261.546875 175.484375 252.007812 173.277344 246.976562 C 173.277344 246.980469 173.269531 247.011719 173.269531 247.011719 L 172.300781 248.730469 L 172.410156 246.902344 L 171.117188 245.289062 L 171.386719 244.699219 L 171.339844 243.484375 C 169.425781 240.808594 167.367188 240.230469 164.589844 242.484375 C 159.523438 246.59375 164.589844 255.179688 164.742188 264.605469 C 164.890625 274.03125 158.046875 286.496094 158.652344 295.164062 C 159.261719 303.828125 166.109375 310.972656 173.109375 315.003906 C 173.109375 315.003906 177.621094 316.972656 183.933594 316.667969 C 192.746094 316.246094 204.757812 317.96875 212.667969 308.695312 C 220.582031 299.417969 217.1875 259.265625 216.625 254.949219 C 215.839844 248.875 216.574219 243.394531 213.683594 240.507812 C 212.777344 239.605469 211.707031 239.253906 210.597656 239.332031 Z M 209.28125 247.859375 C 210.457031 247.902344 211.695312 248.289062 212.3125 248.839844 C 215.90625 252.039062 210.375 266.476562 206.917969 266.214844 C 204.128906 264.667969 205.054688 261.886719 205.941406 259.449219 C 207.195312 255.988281 205.117188 252.417969 206.628906 248.949219 C 206.992188 248.121094 208.105469 247.816406 209.28125 247.859375 Z M 168.644531 248.699219 C 169.066406 248.691406 169.554688 248.753906 170.121094 248.902344 C 172.160156 249.433594 172.433594 251.597656 172.96875 253.355469 C 173.867188 256.296875 180.816406 266.945312 176.027344 269.53125 C 171.355469 269.210938 171.503906 264.089844 169.246094 261.367188 C 168.40625 259.785156 166.863281 257.523438 166.945312 255.785156 C 166.960938 255.46875 164.59375 248.78125 168.644531 248.699219 Z M 168.644531 248.699219 " fill-opacity="1" fill-rule="nonzero"/><path fill="#cccccc" d="M 148.519531 244.695312 L 146.710938 246.855469 L 147.355469 247.425781 L 146.558594 249.019531 L 145.300781 251.148438 L 145.417969 249.742188 L 146.214844 247.84375 L 145.339844 247.082031 L 146.824219 245.335938 L 146.453125 244.90625 C 134.042969 247.289062 149.707031 268.070312 149.21875 274.183594 C 148.9375 277.769531 147.199219 282.316406 144.433594 284.636719 C 144.492188 284.90625 145.78125 285.710938 145.78125 285.710938 L 144.972656 287.644531 L 147.71875 288.128906 C 147.71875 288.128906 148.46875 291.355469 148.46875 291.839844 C 148.46875 292.324219 146.371094 290.441406 146.371094 290.441406 L 143.199219 288.828125 L 143.414062 287.808594 L 141.476562 287.214844 L 141.511719 286.070312 C 138.835938 286.527344 135.601562 284.945312 132.015625 279.734375 C 132.015625 279.734375 126.414062 268.828125 118.023438 266.460938 C 114.695312 265.523438 110.730469 264.90625 107.621094 265.445312 C 107.785156 266.003906 107.878906 266.710938 108.046875 266.980469 C 108.316406 267.410156 111.351562 269.640625 111.40625 269.90625 C 111.457031 270.175781 109.039062 268.941406 109.039062 268.941406 L 107.421875 268.511719 L 106.105469 267.839844 L 105.972656 266.574219 L 105.820312 265.917969 C 102.277344 267.3125 100.773438 271.046875 104.777344 279.140625 C 112.15625 294.054688 110.210938 290.476562 115.828125 298.226562 C 122.609375 307.589844 126.738281 316.128906 135.453125 321.933594 C 144.167969 327.738281 153.746094 327.847656 166.976562 321.71875 C 180.210938 315.589844 187.097656 312.6875 185.484375 301.402344 C 183.871094 290.113281 177.738281 276.996094 170.3125 270.546875 C 162.976562 264.171875 159.503906 244.566406 148.519531 244.695312 Z M 151.921875 252.632812 C 153.738281 252.523438 155.910156 257.191406 157.4375 259.398438 C 158.285156 260.621094 158.542969 262.492188 159.414062 263.617188 C 159.929688 264.277344 161.183594 269.097656 160.304688 269.6875 C 158.164062 271.117188 156.59375 269.140625 155.609375 268.976562 C 153.691406 267.378906 152.050781 265.554688 150.855469 263.425781 C 149.933594 261.785156 149.890625 260.589844 149.257812 259.167969 C 148.671875 257.851562 147.925781 252.871094 151.921875 252.632812 Z M 114.035156 271.507812 C 115.429688 271.554688 116.929688 272.074219 117.246094 272.300781 C 119.605469 273.960938 121.484375 275.886719 123.21875 278.050781 C 125.4375 280.824219 129.554688 283.34375 127.921875 286.78125 C 126.660156 288.960938 121.332031 285.992188 117.316406 282.980469 C 114.402344 280.796875 111.136719 278.71875 111.136719 273.988281 C 111.136719 273.328125 111.160156 272.863281 111.917969 272.105469 C 112.402344 271.625 113.199219 271.480469 114.035156 271.507812 Z M 114.035156 271.507812 " fill-opacity="1" fill-rule="nonzero"/><path fill="#e96019" d="M 182.625 298.382812 C 181.242188 299.335938 181.601562 302.734375 182.617188 304.308594 C 184.519531 307.257812 185.71875 309.445312 190.378906 309.164062 C 195.039062 308.878906 197.992188 306.023438 198.191406 302.179688 C 198.34375 299.238281 198.1875 299.652344 197.390625 297.082031 C 196.644531 294.6875 196.007812 293.367188 193.347656 293.703125 C 193.347656 293.703125 194.988281 293.914062 195.078125 297.1875 C 195.128906 299.085938 194.253906 299.488281 191.949219 298.1875 C 189.507812 296.808594 187.65625 293.25 189.941406 291.722656 C 189.941406 291.722656 185.386719 292.746094 186.238281 295.773438 C 187.089844 298.800781 188.253906 300.101562 187.660156 301.160156 C 187.066406 302.222656 183.632812 303.097656 182.625 298.382812 Z M 182.625 298.382812 " fill-opacity="1" fill-rule="nonzero"/><path fill="#e9b319" d="M 192.375 307.253906 C 194.59375 306.703125 197.664062 304.253906 197.078125 301.058594 C 196.546875 298.140625 195.984375 297.113281 195.597656 296.738281 C 195.597656 296.738281 195.960938 300.644531 194.996094 301.257812 C 193.457031 302.230469 190.183594 301.3125 189.898438 298.28125 C 189.898438 298.28125 189.105469 300.25 190.074219 301.667969 C 191.511719 303.765625 185.433594 305.234375 184.210938 302.808594 C 185.261719 307.160156 189.859375 307.808594 192.375 307.253906 Z M 192.375 307.253906 " fill-opacity="1" fill-rule="nonzero"/><path fill="#cccccc" d="M 215.113281 240.40625 C 212.367188 240.433594 210.195312 242.769531 210.335938 246.203125 C 210.578125 251.972656 213.195312 263.925781 212.4375 267.980469 C 211.28125 272.566406 208.875 276.714844 206.183594 280.605469 C 206.296875 281.167969 206.40625 281.789062 206.40625 281.789062 L 208.34375 281.789062 L 207.589844 284.152344 L 209.792969 289.503906 L 206.832031 286.054688 L 204.898438 285.113281 L 204.957031 283.613281 L 204.691406 282.71875 C 197.589844 292.464844 189.695312 300.640625 197.074219 309.929688 C 205.816406 320.925781 227.535156 329.078125 240.898438 317.429688 C 254.035156 305.976562 254.863281 282.519531 258.574219 274.996094 C 262.050781 267.945312 275.507812 260.542969 269.234375 257.507812 C 268.816406 257.308594 268.3125 257.125 267.707031 256.964844 C 258.070312 254.375 254.648438 261.796875 251.175781 268.835938 C 249.625 271.984375 245.761719 273.289062 241.601562 273.324219 L 241 274.53125 C 241 274.53125 240.5625 275.894531 240.5625 276.273438 C 240.5625 276.648438 237.339844 277.21875 237.339844 277.21875 L 235.082031 279.53125 L 236.585938 276.464844 L 239.222656 273.832031 L 238.878906 273.167969 C 234.597656 272.664062 230.464844 270.964844 228.609375 268.628906 C 224.535156 263.507812 225.375 251.179688 221.738281 245.109375 C 219.730469 241.765625 217.25 240.386719 215.113281 240.40625 Z M 217.570312 247.773438 C 217.753906 247.789062 217.929688 247.832031 218.085938 247.902344 C 218.265625 247.980469 218.425781 248.09375 218.550781 248.25 C 218.828125 248.589844 221.441406 255.425781 221.671875 256.011719 C 224.210938 262.453125 221.671875 267.941406 219.203125 264.285156 C 217.753906 262.140625 218.085938 259.335938 217.289062 256.988281 C 216.796875 255.535156 215.464844 253.898438 215.222656 252.410156 C 215.140625 251.925781 215.15625 251.195312 215.042969 250.710938 C 214.601562 248.859375 216.296875 247.671875 217.570312 247.773438 Z M 263.402344 261.378906 C 263.484375 261.371094 263.574219 261.394531 263.667969 261.433594 C 264.070312 261.617188 264.507812 262.183594 264.46875 262.507812 C 264.292969 263.882812 261.605469 265.328125 260.828125 267.226562 C 259.734375 269.894531 257.511719 272.164062 255.792969 274.542969 C 255.164062 275.414062 254.179688 275.828125 252.976562 276.246094 C 251.746094 276.492188 249.753906 276.488281 249.625 275.050781 C 249.429688 272.871094 253.414062 272.160156 254.449219 270.882812 C 257.605469 266.96875 257.074219 261.84375 263.402344 261.378906 Z M 263.402344 261.378906 " fill-opacity="1" fill-rule="nonzero"/><path fill="#b2b2b2" d="M 256.257812 282.488281 C 251.363281 296.507812 236.933594 328.726562 209.457031 319.402344 C 219.457031 324.171875 232.015625 325.171875 240.898438 317.429688 C 250.984375 308.636719 253.808594 292.789062 256.257812 282.488281 Z M 256.257812 282.488281 " fill-opacity="1" fill-rule="nonzero"/><path fill="#999999" d="M 267.445312 166.542969 C 267.445312 166.542969 260.632812 147.460938 279.464844 143.59375 C 279.464844 143.59375 276.945312 130.367188 290.285156 128.648438 C 303.628906 126.929688 304.746094 136.496094 304.746094 136.496094 C 304.746094 136.496094 325.105469 134.320312 326.609375 148.941406 C 328.117188 163.5625 318.949219 175.628906 306.253906 174.445312 C 306.253906 174.445312 310.664062 186.054688 298.078125 191.429688 C 285.488281 196.804688 278.171875 189.171875 278.171875 189.171875 C 278.171875 189.171875 270.425781 203.257812 260.097656 193.6875 C 249.769531 184.121094 267.445312 166.542969 267.445312 166.542969 Z M 267.445312 166.542969 " fill-opacity="1" fill-rule="nonzero"/><path fill="#999999" d="M 227.582031 143.585938 C 227.582031 143.585938 236.558594 132.792969 240.058594 116.675781 C 243.558594 100.5625 269.882812 123.976562 275.816406 97.671875 C 275.816406 97.671875 286.464844 103.753906 293.617188 95.242188 C 300.769531 86.726562 295.75 81.40625 295.75 81.40625 C 295.75 81.40625 307.382812 74.058594 301.753906 62.808594 C 296.125 51.558594 278.859375 53.886719 273.835938 60.121094 C 273.835938 60.121094 269.496094 45.660156 251.46875 51.910156 C 235.566406 57.425781 240.980469 72.324219 240.515625 72.132812 C 240.515625 72.132812 218.910156 74.867188 219.210938 89.765625 C 219.515625 104.667969 241.277344 116.371094 227.582031 143.585938 Z M 227.582031 143.585938 " fill-opacity="1" fill-rule="nonzero"/><path fill="#999999" d="M 143.589844 160.160156 C 143.589844 160.160156 143.132812 152.253906 148.914062 145.5625 C 154.699219 138.875 151.214844 125.425781 152.828125 122.199219 C 154.441406 118.972656 177.824219 108.769531 168.390625 92.503906 C 168.113281 93.117188 179.304688 69.03125 164.285156 60.578125 C 149.1875 52.078125 143.4375 66.808594 143.4375 66.808594 C 143.4375 66.808594 135.832031 53.734375 124.265625 57.6875 C 112.703125 61.640625 113.917969 75.324219 113.917969 75.324219 C 113.917969 75.324219 103.441406 75.113281 101.074219 82.851562 C 98.707031 90.59375 102.90625 95.644531 102.90625 95.644531 C 102.90625 95.644531 96.449219 103.0625 100 113.167969 C 103.550781 123.273438 123.347656 119.832031 123.347656 119.832031 C 123.347656 119.832031 120.011719 129.1875 130.449219 132.195312 C 140.882812 135.207031 143.574219 134.238281 141.421875 143.269531 C 139.269531 152.300781 143.589844 160.160156 143.589844 160.160156 Z M 143.589844 160.160156 " fill-opacity="1" fill-rule="nonzero"/><path fill="#999999" d="M 181.203125 127.519531 C 181.203125 127.519531 182.429688 124.773438 185.929688 125.570312 C 189.429688 126.371094 190.757812 134.351562 185.015625 135.566406 C 182.390625 136.367188 179.917969 135.871094 179.917969 135.871094 C 179.917969 135.871094 179.917969 139.101562 175.085938 139.027344 C 170.257812 138.949219 170.332031 133.058594 173.148438 131.539062 C 174.78125 130.550781 172.648438 129.199219 175.390625 127.355469 C 178.03125 125.582031 181.203125 127.519531 181.203125 127.519531 Z M 181.203125 127.519531 " fill-opacity="1" fill-rule="nonzero"/><path fill="#999999" d="M 203.464844 157.117188 C 203.464844 156.585938 203.691406 147.386719 209.929688 147.082031 C 216.167969 146.78125 220.734375 142.445312 215.5625 136.367188 C 215.5625 136.367188 223.167969 130.132812 219.667969 124.960938 C 216.167969 119.792969 210.3125 120.628906 207.800781 124.8125 C 207.800781 124.8125 203.761719 120.464844 198.101562 125.929688 C 191.46875 132.332031 199.203125 139.027344 199.203125 139.027344 C 199.203125 139.027344 193.910156 141.855469 196.34375 147.328125 C 198.777344 152.800781 199.890625 149.820312 203.464844 157.117188 Z M 203.464844 157.117188 " fill-opacity="1" fill-rule="nonzero"/><path fill="#999999" d="M 258.429688 126.292969 C 258.429688 126.292969 254.703125 125.34375 253.296875 129.75 C 251.890625 134.160156 255.464844 137.085938 259.269531 136.328125 C 263.074219 135.566406 262.3125 130.398438 262.3125 130.398438 C 262.3125 130.398438 265.605469 129.34375 265.984375 125.425781 C 266.367188 121.511719 264.617188 120.234375 261.554688 120.679688 C 257.988281 121.199219 258.429688 126.292969 258.429688 126.292969 Z M 258.429688 126.292969 " fill-opacity="1" fill-rule="nonzero"/><path fill="#cccccc" d="M 280.246094 148.269531 C 279.503906 148.21875 278.511719 148.464844 277.414062 148.976562 C 276.316406 149.492188 275.128906 150.289062 274.105469 151.390625 C 272.0625 153.589844 270.714844 157.046875 272.167969 161.671875 C 272.203125 161.785156 272.273438 161.871094 272.378906 161.925781 C 272.484375 161.980469 272.59375 161.988281 272.707031 161.953125 C 272.820312 161.917969 272.902344 161.847656 272.957031 161.742188 C 273.011719 161.636719 273.023438 161.527344 272.988281 161.417969 C 271.613281 157.042969 272.863281 153.988281 274.738281 151.972656 C 275.671875 150.964844 276.773438 150.226562 277.777344 149.753906 C 278.785156 149.28125 279.710938 149.09375 280.1875 149.125 C 280.304688 149.136719 280.40625 149.101562 280.496094 149.023438 C 280.585938 148.945312 280.636719 148.847656 280.644531 148.730469 C 280.652344 148.609375 280.617188 148.507812 280.539062 148.417969 C 280.464844 148.328125 280.363281 148.277344 280.246094 148.269531 Z M 280.246094 148.269531 " fill-opacity="1" fill-rule="nonzero"/><path fill="#cccccc" d="M 300.621094 183.492188 C 294.601562 189.078125 287.058594 188.097656 287.058594 188.097656 C 286.941406 188.082031 286.835938 188.109375 286.742188 188.183594 C 286.648438 188.253906 286.59375 188.347656 286.578125 188.464844 C 286.5625 188.582031 286.59375 188.6875 286.664062 188.78125 C 286.738281 188.875 286.832031 188.929688 286.949219 188.945312 C 286.949219 188.945312 294.886719 189.984375 301.203125 184.125 C 301.292969 184.042969 301.335938 183.941406 301.34375 183.824219 C 301.347656 183.707031 301.308594 183.605469 301.226562 183.515625 C 301.148438 183.429688 301.046875 183.382812 300.929688 183.378906 C 300.8125 183.375 300.707031 183.414062 300.621094 183.492188 Z M 300.621094 183.492188 " fill-opacity="1" fill-rule="nonzero"/><path fill="#cccccc" d="M 313.378906 141.980469 C 313.261719 141.972656 313.15625 142.011719 313.070312 142.089844 C 312.980469 142.167969 312.933594 142.265625 312.925781 142.382812 C 312.917969 142.503906 312.953125 142.605469 313.035156 142.695312 C 313.113281 142.78125 313.210938 142.832031 313.328125 142.835938 C 313.328125 142.835938 315.074219 142.941406 317.027344 143.898438 C 318.976562 144.851562 321.089844 146.617188 321.867188 150.03125 C 321.890625 150.144531 321.957031 150.234375 322.054688 150.296875 C 322.15625 150.359375 322.265625 150.378906 322.378906 150.351562 C 322.496094 150.328125 322.585938 150.261719 322.648438 150.164062 C 322.710938 150.0625 322.730469 149.953125 322.703125 149.839844 C 321.867188 146.15625 319.515625 144.160156 317.402344 143.125 C 315.292969 142.09375 313.378906 141.980469 313.378906 141.980469 Z M 313.378906 141.980469 " fill-opacity="1" fill-rule="nonzero"/><path fill="#cccccc" d="M 268.78125 100.792969 C 268.664062 100.789062 268.5625 100.828125 268.476562 100.90625 C 265.554688 103.667969 262.671875 104.648438 260.515625 104.953125 C 258.359375 105.253906 256.972656 104.882812 256.972656 104.882812 C 256.855469 104.851562 256.746094 104.867188 256.644531 104.925781 C 256.542969 104.988281 256.476562 105.074219 256.445312 105.1875 C 256.417969 105.300781 256.429688 105.410156 256.492188 105.511719 C 256.550781 105.617188 256.636719 105.683594 256.75 105.710938 C 256.75 105.710938 258.328125 106.125 260.636719 105.800781 C 262.941406 105.476562 266.011719 104.417969 269.0625 101.53125 C 269.148438 101.449219 269.195312 101.347656 269.199219 101.230469 C 269.203125 101.113281 269.164062 101.011719 269.082031 100.925781 C 269 100.839844 268.898438 100.792969 268.78125 100.792969 Z M 268.78125 100.792969 " fill-opacity="1" fill-rule="nonzero"/><path fill="#cccccc" d="M 298.042969 64.707031 C 297.941406 64.765625 297.875 64.851562 297.84375 64.96875 C 297.8125 65.082031 297.824219 65.191406 297.882812 65.292969 C 297.882812 65.292969 298.015625 65.511719 298.128906 65.984375 C 298.246094 66.457031 298.332031 67.15625 298.199219 68.046875 C 297.9375 69.828125 296.792969 72.390625 293.117188 75.410156 C 293.023438 75.484375 292.972656 75.582031 292.960938 75.699219 C 292.949219 75.816406 292.984375 75.921875 293.058594 76.011719 C 293.132812 76.105469 293.230469 76.15625 293.347656 76.167969 C 293.464844 76.179688 293.570312 76.148438 293.660156 76.074219 C 297.457031 72.957031 298.75 70.191406 299.050781 68.171875 C 299.199219 67.164062 299.101562 66.347656 298.964844 65.78125 C 298.824219 65.210938 298.628906 64.863281 298.628906 64.863281 C 298.570312 64.761719 298.484375 64.695312 298.367188 64.664062 C 298.253906 64.632812 298.144531 64.648438 298.042969 64.707031 Z M 298.042969 64.707031 " fill-opacity="1" fill-rule="nonzero"/><path fill="#cccccc" d="M 256.847656 59.503906 C 251.097656 60.097656 246.914062 64.917969 246.914062 64.917969 C 246.835938 65.007812 246.800781 65.109375 246.808594 65.226562 C 246.816406 65.347656 246.867188 65.445312 246.957031 65.523438 C 247.042969 65.601562 247.148438 65.636719 247.265625 65.628906 C 247.382812 65.621094 247.484375 65.574219 247.5625 65.484375 C 247.5625 65.484375 252.832031 59.546875 259.289062 60.386719 C 259.410156 60.402344 259.515625 60.375 259.609375 60.300781 C 259.703125 60.230469 259.757812 60.132812 259.773438 60.015625 C 259.789062 59.898438 259.757812 59.792969 259.6875 59.699219 C 259.613281 59.605469 259.519531 59.550781 259.402344 59.535156 C 258.523438 59.421875 257.667969 59.417969 256.847656 59.503906 Z M 256.847656 59.503906 " fill-opacity="1" fill-rule="nonzero"/><path fill="#cccccc" d="M 243.765625 107.332031 C 243.765625 107.332031 241.835938 107.539062 239.820312 109.085938 C 237.808594 110.632812 235.699219 113.53125 235.203125 118.789062 C 235.191406 118.910156 235.226562 119.011719 235.300781 119.105469 C 235.375 119.195312 235.472656 119.246094 235.589844 119.257812 C 235.710938 119.269531 235.816406 119.238281 235.90625 119.160156 C 235.996094 119.085938 236.046875 118.988281 236.058594 118.871094 C 236.535156 113.808594 238.511719 111.175781 240.34375 109.765625 C 242.179688 108.355469 243.855469 108.183594 243.855469 108.183594 C 243.972656 108.171875 244.066406 108.121094 244.140625 108.027344 C 244.214844 107.9375 244.246094 107.832031 244.234375 107.714844 C 244.222656 107.597656 244.171875 107.5 244.078125 107.425781 C 243.988281 107.351562 243.882812 107.320312 243.765625 107.332031 Z M 243.765625 107.332031 " fill-opacity="1" fill-rule="nonzero"/><path fill="#cccccc" d="M 151.242188 118.617188 C 151.242188 118.617188 150.886719 118.738281 150.464844 119.066406 C 150.039062 119.394531 149.515625 119.941406 149.078125 120.808594 C 148.199219 122.542969 147.664062 125.535156 148.785156 130.636719 C 150.308594 137.566406 145.746094 141.4375 145.746094 141.4375 C 145.65625 141.515625 145.609375 141.613281 145.597656 141.730469 C 145.589844 141.847656 145.625 141.953125 145.703125 142.042969 C 145.777344 142.132812 145.875 142.179688 145.996094 142.191406 C 146.113281 142.199219 146.21875 142.164062 146.308594 142.085938 C 146.308594 142.085938 151.238281 137.804688 149.621094 130.453125 C 148.527344 125.472656 149.078125 122.703125 149.84375 121.195312 C 150.222656 120.445312 150.660156 120 150.988281 119.742188 C 151.320312 119.488281 151.511719 119.429688 151.511719 119.429688 C 151.625 119.394531 151.707031 119.320312 151.761719 119.214844 C 151.8125 119.109375 151.824219 119 151.785156 118.890625 C 151.75 118.777344 151.675781 118.695312 151.570312 118.640625 C 151.464844 118.585938 151.355469 118.578125 151.242188 118.617188 Z M 151.242188 118.617188 " fill-opacity="1" fill-rule="nonzero"/><path fill="#cccccc" d="M 104.757812 106.21875 C 104.644531 106.261719 104.566406 106.335938 104.515625 106.441406 C 104.46875 106.550781 104.464844 106.660156 104.503906 106.769531 C 105.726562 110.042969 108.824219 111.683594 111.554688 112.511719 C 114.28125 113.339844 116.714844 113.371094 116.714844 113.371094 C 116.832031 113.375 116.933594 113.332031 117.019531 113.25 C 117.101562 113.167969 117.144531 113.066406 117.148438 112.949219 C 117.148438 112.832031 117.109375 112.730469 117.027344 112.644531 C 116.945312 112.5625 116.84375 112.515625 116.726562 112.515625 C 116.726562 112.515625 114.402344 112.480469 111.800781 111.691406 C 109.203125 110.902344 106.394531 109.386719 105.308594 106.472656 C 105.265625 106.359375 105.191406 106.28125 105.085938 106.230469 C 104.976562 106.183594 104.867188 106.179688 104.757812 106.21875 Z M 104.757812 106.21875 " fill-opacity="1" fill-rule="nonzero"/><path fill="#cccccc" d="M 128.496094 65.46875 C 124.828125 67.394531 123.230469 71.144531 122.542969 74.363281 C 121.855469 77.578125 122.070312 80.328125 122.070312 80.328125 C 122.078125 80.445312 122.128906 80.542969 122.21875 80.617188 C 122.308594 80.695312 122.410156 80.730469 122.527344 80.722656 C 122.648438 80.710938 122.746094 80.664062 122.820312 80.574219 C 122.898438 80.484375 122.933594 80.378906 122.925781 80.261719 C 122.925781 80.261719 122.726562 77.628906 123.382812 74.542969 C 124.042969 71.457031 125.542969 67.988281 128.894531 66.230469 C 129 66.175781 129.070312 66.089844 129.105469 65.976562 C 129.140625 65.863281 129.128906 65.757812 129.074219 65.652344 C 129.019531 65.546875 128.9375 65.476562 128.824219 65.441406 C 128.710938 65.40625 128.601562 65.414062 128.496094 65.46875 Z M 128.496094 65.46875 " fill-opacity="1" fill-rule="nonzero"/><path fill="#cccccc" d="M 157.445312 64.3125 C 157.332031 64.28125 157.222656 64.292969 157.117188 64.351562 C 157.015625 64.40625 156.945312 64.492188 156.914062 64.605469 C 156.878906 64.722656 156.894531 64.828125 156.949219 64.933594 C 157.007812 65.035156 157.09375 65.105469 157.207031 65.136719 C 157.207031 65.136719 159.3125 65.742188 161.492188 67.054688 C 163.667969 68.363281 165.847656 70.34375 166.132812 73.035156 C 166.144531 73.152344 166.199219 73.246094 166.289062 73.320312 C 166.382812 73.394531 166.488281 73.425781 166.605469 73.414062 C 166.722656 73.402344 166.820312 73.347656 166.894531 73.257812 C 166.96875 73.164062 167 73.058594 166.988281 72.941406 C 166.660156 69.847656 164.222656 67.695312 161.933594 66.320312 C 159.648438 64.945312 157.445312 64.3125 157.445312 64.3125 Z M 157.445312 64.3125 " fill-opacity="1" fill-rule="nonzero"/><path fill="#cccccc" d="M 69.988281 210.824219 C 69.894531 210.902344 69.847656 211 69.835938 211.117188 C 69.824219 211.234375 69.859375 211.339844 69.933594 211.429688 C 69.933594 211.429688 77.519531 220.542969 86.242188 219.425781 C 86.359375 219.410156 86.453125 219.355469 86.527344 219.261719 C 86.597656 219.167969 86.628906 219.0625 86.613281 218.945312 C 86.597656 218.828125 86.542969 218.734375 86.449219 218.660156 C 86.355469 218.589844 86.25 218.5625 86.132812 218.574219 C 78.070312 219.609375 70.589844 210.875 70.589844 210.875 C 70.515625 210.785156 70.417969 210.734375 70.300781 210.726562 C 70.179688 210.714844 70.078125 210.75 69.988281 210.824219 Z M 69.988281 210.824219 " fill-opacity="1" fill-rule="nonzero"/><path fill="#cccccc" d="M 97.617188 191.46875 C 97.5 191.492188 97.410156 191.554688 97.34375 191.652344 C 97.277344 191.75 97.257812 191.859375 97.28125 191.972656 C 97.304688 192.089844 97.363281 192.179688 97.460938 192.246094 C 97.460938 192.246094 98.070312 192.636719 98.542969 193.75 C 99.011719 194.863281 99.3125 196.679688 98.472656 199.507812 C 98.4375 199.621094 98.449219 199.730469 98.507812 199.835938 C 98.5625 199.9375 98.648438 200.007812 98.761719 200.042969 C 98.875 200.074219 98.984375 200.0625 99.085938 200.007812 C 99.191406 199.949219 99.261719 199.867188 99.292969 199.753906 C 100.179688 196.773438 99.882812 194.722656 99.332031 193.417969 C 98.78125 192.109375 97.9375 191.535156 97.9375 191.535156 C 97.839844 191.46875 97.730469 191.445312 97.617188 191.46875 Z M 97.617188 191.46875 " fill-opacity="1" fill-rule="nonzero"/><path fill="#cccccc" d="M 58.699219 182.605469 C 58.582031 182.597656 58.476562 182.632812 58.386719 182.710938 C 58.296875 182.789062 58.25 182.886719 58.242188 183.003906 C 58.242188 183.003906 57.769531 189.675781 62.726562 193.164062 C 62.824219 193.234375 62.929688 193.257812 63.046875 193.238281 C 63.164062 193.21875 63.257812 193.160156 63.324219 193.0625 C 63.394531 192.964844 63.417969 192.859375 63.398438 192.742188 C 63.375 192.625 63.316406 192.53125 63.222656 192.464844 C 58.710938 189.289062 59.097656 183.0625 59.097656 183.0625 C 59.105469 182.941406 59.070312 182.839844 58.992188 182.75 C 58.914062 182.660156 58.816406 182.613281 58.699219 182.605469 Z M 58.699219 182.605469 " fill-opacity="1" fill-rule="nonzero"/><path fill="#999999" d="M 109.953125 145.902344 C 109.953125 145.902344 112.640625 149.984375 106.941406 152.570312 C 102.90625 154.394531 98.222656 150.472656 98.222656 150.472656 C 98.222656 150.472656 91.339844 151.546875 89.992188 147.945312 C 88.648438 144.34375 90.371094 141.121094 94.890625 140.636719 C 94.890625 140.636719 91.929688 136.121094 96.878906 133.324219 C 101.828125 130.53125 104.679688 137.035156 104.679688 137.035156 C 104.679688 137.035156 109.628906 134.292969 112.105469 138 C 114.578125 141.710938 109.953125 145.902344 109.953125 145.902344 Z M 109.953125 145.902344 " fill-opacity="1" fill-rule="nonzero"/><path fill="#e96019" d="M 202.988281 301.375 C 200.472656 301.675781 198.554688 306.472656 198.800781 309.289062 C 199.265625 314.566406 199.328125 318.332031 205.75 321.234375 C 212.171875 324.132812 218.132812 322.394531 221.109375 317.402344 C 223.382812 313.582031 222.882812 314.023438 223.625 310.03125 C 224.320312 306.304688 224.398438 304.097656 220.609375 302.675781 C 220.609375 302.675781 222.652344 304.109375 220.460938 308.542969 C 219.191406 311.113281 217.742188 311.039062 215.578125 307.675781 C 213.292969 304.121094 213.328125 298.0625 217.457031 297.628906 C 217.457031 297.628906 210.648438 295.796875 209.65625 300.4375 C 208.660156 305.078125 209.296875 307.632812 207.757812 308.632812 C 206.21875 309.632812 201.011719 308.386719 202.988281 301.375 Z M 202.988281 301.375 " fill-opacity="1" fill-rule="nonzero"/><path fill="#e9b319" d="M 209.757812 320.089844 C 213.109375 320.910156 218.9375 319.804688 220.410156 315.125 C 221.753906 310.851562 221.730469 309.082031 221.476562 308.3125 C 221.476562 308.3125 219.207031 313.785156 217.484375 313.921875 C 214.742188 314.140625 211.019531 310.609375 212.777344 306.363281 C 212.777344 306.363281 210.328125 308.433594 210.625 311.007812 C 211.066406 314.820312 201.910156 312.507812 201.988281 308.40625 C 200.324219 314.957031 206.011719 319.0625 209.757812 320.089844 Z M 209.757812 320.089844 " fill-opacity="1" fill-rule="nonzero"/><path fill="#e96019" d="M 205.058594 270.519531 C 204.078125 271.191406 204.332031 273.601562 205.050781 274.714844 C 206.398438 276.804688 207.25 278.355469 210.550781 278.152344 C 213.847656 277.953125 215.941406 275.929688 216.082031 273.207031 C 216.191406 271.125 216.078125 271.417969 215.511719 269.597656 C 214.984375 267.902344 214.535156 266.96875 212.652344 267.207031 C 212.652344 267.207031 213.8125 267.355469 213.875 269.675781 C 213.910156 271.015625 213.292969 271.300781 211.660156 270.378906 C 209.933594 269.40625 208.621094 266.886719 210.238281 265.800781 C 210.238281 265.800781 207.015625 266.527344 207.617188 268.671875 C 208.21875 270.816406 209.042969 271.734375 208.625 272.488281 C 208.203125 273.238281 205.769531 273.859375 205.058594 270.519531 Z M 205.058594 270.519531 " fill-opacity="1" fill-rule="nonzero"/><path fill="#e9b319" d="M 211.960938 276.804688 C 213.535156 276.410156 215.707031 274.675781 215.292969 272.414062 C 214.917969 270.347656 214.519531 269.621094 214.246094 269.355469 C 214.246094 269.355469 214.503906 272.121094 213.816406 272.554688 C 212.726562 273.246094 210.410156 272.59375 210.210938 270.449219 C 210.210938 270.449219 209.648438 271.84375 210.332031 272.84375 C 211.351562 274.332031 207.046875 275.371094 206.179688 273.65625 C 206.925781 276.734375 210.183594 277.195312 211.960938 276.804688 Z M 211.960938 276.804688 " fill-opacity="1" fill-rule="nonzero"/><path fill="#b2b2b2" d="M 166.46875 265.707031 C 167.355469 267.769531 183.242188 292.234375 179.734375 303.050781 C 174.980469 317.703125 156.996094 325.644531 136.585938 322.652344 C 145 327.734375 154.316406 327.582031 166.976562 321.71875 C 180.210938 315.589844 187.097656 312.6875 185.484375 301.402344 C 183.871094 290.113281 177.738281 276.996094 170.3125 270.546875 C 168.917969 269.335938 167.664062 267.648438 166.46875 265.707031 Z M 166.46875 265.707031 " fill-opacity="1" fill-rule="nonzero"/><path fill="#e96019" d="M 138.199219 313.519531 C 136.4375 314.0625 135.695312 317.746094 136.242188 319.726562 C 137.261719 323.4375 137.800781 326.125 142.773438 327.355469 C 147.746094 328.589844 151.78125 326.570312 153.253906 322.609375 C 154.378906 319.582031 154.078125 319.960938 154.085938 317.007812 C 154.097656 314.253906 153.863281 312.664062 150.964844 312.144531 C 150.964844 312.144531 152.617188 312.902344 151.628906 316.359375 C 151.058594 318.363281 150.011719 318.5 148.027344 316.378906 C 145.925781 314.136719 145.15625 309.796875 148.050781 308.945312 C 148.050781 308.945312 142.945312 308.527344 142.839844 311.976562 C 142.734375 315.425781 143.527344 317.167969 142.558594 318.085938 C 141.585938 319 137.699219 318.789062 138.199219 313.519531 Z M 138.199219 313.519531 " fill-opacity="1" fill-rule="nonzero"/><path fill="#e9b319" d="M 145.488281 326.015625 C 147.996094 326.164062 152.015625 324.609375 152.453125 321.070312 C 152.855469 317.839844 152.609375 316.578125 152.324219 316.0625 C 152.324219 316.0625 151.417969 320.269531 150.207031 320.59375 C 148.273438 321.109375 145.148438 319.070312 145.851562 315.804688 C 145.851562 315.804688 144.371094 317.605469 144.917969 319.40625 C 145.734375 322.078125 138.886719 321.621094 138.402344 318.679688 C 138.070312 323.578125 142.675781 325.769531 145.488281 326.015625 Z M 145.488281 326.015625 " fill-opacity="1" fill-rule="nonzero"/><path fill="#e96019" d="M 175.128906 269.371094 C 173.335938 268.988281 170.894531 271.828125 170.40625 273.816406 C 169.488281 277.542969 168.648438 280.140625 172.371094 283.632812 C 176.09375 287.121094 180.589844 287.324219 183.796875 284.597656 C 186.25 282.511719 185.804688 282.695312 187.25 280.132812 C 188.597656 277.742188 189.171875 276.246094 186.90625 274.382812 C 186.90625 274.382812 187.96875 275.84375 185.429688 278.375 C 183.957031 279.835938 182.980469 279.445312 182.285156 276.636719 C 181.550781 273.664062 182.992188 269.519531 185.925781 270.1875 C 185.925781 270.1875 181.691406 267.335938 179.917969 270.285156 C 178.148438 273.234375 177.988281 275.136719 176.699219 275.460938 C 175.410156 275.785156 172.132812 273.714844 175.128906 269.371094 Z M 175.128906 269.371094 " fill-opacity="1" fill-rule="nonzero"/><path fill="#e9b319" d="M 175.386719 283.785156 C 177.492188 285.132812 181.746094 285.734375 183.851562 282.871094 C 185.777344 280.253906 186.171875 279.039062 186.179688 278.449219 C 186.179688 278.449219 183.34375 281.671875 182.128906 281.363281 C 180.199219 280.871094 178.472656 277.578125 180.671875 275.078125 C 180.671875 275.078125 179.054688 276.136719 178.109375 277.761719 C 176.238281 280.972656 171.734375 276.769531 172.796875 273.957031 C 170.121094 278.058594 173.058594 282.203125 175.386719 283.785156 Z M 175.386719 283.785156 " fill-opacity="1" fill-rule="nonzero"/><path fill="#e96019" d="M 128.238281 290.464844 C 127.308594 290.265625 126.046875 291.734375 125.792969 292.765625 C 125.316406 294.691406 124.882812 296.035156 126.808594 297.84375 C 128.734375 299.648438 131.0625 299.753906 132.722656 298.34375 C 133.992188 297.261719 133.761719 297.359375 134.507812 296.03125 C 135.207031 294.792969 135.5 294.019531 134.328125 293.058594 C 134.328125 293.058594 134.878906 293.8125 133.566406 295.121094 C 132.804688 295.878906 132.300781 295.675781 131.9375 294.222656 C 131.558594 292.683594 132.304688 290.539062 133.824219 290.886719 C 133.824219 290.886719 131.628906 289.410156 130.714844 290.9375 C 129.800781 292.464844 129.714844 293.449219 129.046875 293.617188 C 128.382812 293.785156 126.683594 292.710938 128.238281 290.464844 Z M 128.238281 290.464844 " fill-opacity="1" fill-rule="nonzero"/><path fill="#e9b319" d="M 128.371094 297.921875 C 129.460938 298.621094 131.660156 298.929688 132.75 297.449219 C 133.746094 296.097656 133.949219 295.464844 133.953125 295.160156 C 133.953125 295.160156 132.484375 296.828125 131.859375 296.667969 C 130.859375 296.414062 129.964844 294.710938 131.105469 293.417969 C 131.105469 293.417969 130.269531 293.964844 129.777344 294.804688 C 128.808594 296.464844 126.480469 294.292969 127.03125 292.835938 C 125.644531 294.960938 127.164062 297.105469 128.371094 297.921875 Z M 128.371094 297.921875 " fill-opacity="1" fill-rule="nonzero"/><path fill="#e96019" d="M 238.832031 283.515625 C 237.804688 283.4375 236.664062 285.203125 236.542969 286.347656 C 236.316406 288.488281 236.046875 289.996094 238.382812 291.65625 C 240.71875 293.3125 243.234375 293.085938 244.8125 291.324219 C 246.019531 289.976562 245.785156 290.117188 246.394531 288.578125 C 246.960938 287.148438 247.164062 286.273438 245.765625 285.40625 C 245.765625 285.40625 246.46875 286.140625 245.246094 287.738281 C 244.539062 288.664062 243.964844 288.523438 243.367188 287.011719 C 242.730469 285.414062 243.21875 283 244.898438 283.148438 C 244.898438 283.148438 242.328125 281.886719 241.566406 283.660156 C 240.804688 285.433594 240.863281 286.503906 240.167969 286.78125 C 239.476562 287.0625 237.496094 286.15625 238.832031 283.515625 Z M 238.832031 283.515625 " fill-opacity="1" fill-rule="nonzero"/><path fill="#e9b319" d="M 240.070312 291.511719 C 241.347656 292.101562 243.757812 292.113281 244.710938 290.359375 C 245.582031 288.761719 245.710938 288.054688 245.667969 287.726562 C 245.667969 287.726562 244.335938 289.734375 243.636719 289.652344 C 242.527344 289.527344 241.316406 287.828125 242.351562 286.269531 C 242.351562 286.269531 241.210938 286.902344 241.128906 287.953125 C 241.007812 289.511719 237.53125 287.875 237.882812 286.242188 C 236.707031 288.726562 238.65625 290.808594 240.070312 291.511719 Z M 240.070312 291.511719 " fill-opacity="1" fill-rule="nonzero"/></svg>