<svg xmlns="http://www.w3.org/2000/svg" xmlns:xlink="http://www.w3.org/1999/xlink" width="500" zoomAndPan="magnify" viewBox="0 0 375 374.999991" height="500" preserveAspectRatio="xMidYMid meet" version="1.0"><defs><clipPath id="f68737e1d6"><path d="M 54.34375 142 L 108 142 L 108 220 L 54.34375 220 Z M 54.34375 142 " clip-rule="nonzero"/></clipPath></defs><path fill="#4b2f22" d="M 104.429688 291.816406 L 156.203125 321.757812 L 285.273438 247.386719 L 233.503906 217.449219 L 104.429688 291.816406 " fill-opacity="1" fill-rule="nonzero"/><path fill="#65422e" d="M 104.429688 277.296875 L 156.203125 307.234375 L 285.273438 232.863281 L 233.503906 202.929688 L 104.429688 277.296875 " fill-opacity="1" fill-rule="nonzero"/><path fill="#3b251b" d="M 220.539062 144.148438 C 220.539062 151.707031 209.039062 157.832031 194.851562 157.832031 C 180.664062 157.832031 169.164062 151.707031 169.164062 144.148438 C 169.164062 136.589844 180.664062 130.464844 194.851562 130.464844 C 209.039062 130.464844 220.539062 136.589844 220.539062 144.148438 " fill-opacity="1" fill-rule="nonzero"/><path fill="#3b251b" d="M 220.539062 255.082031 C 220.539062 262.640625 209.039062 268.765625 194.851562 268.765625 C 180.664062 268.765625 169.164062 262.640625 169.164062 255.082031 C 169.164062 247.523438 180.664062 241.394531 194.851562 241.394531 C 209.039062 241.394531 220.539062 247.523438 220.539062 255.082031 " fill-opacity="1" fill-rule="nonzero"/><path fill="#3b251b" d="M 220.539062 255.082031 L 169.164062 255.082031 L 169.164062 144.148438 L 220.539062 144.148438 L 220.539062 255.082031 " fill-opacity="1" fill-rule="nonzero"/><path fill="#4b2f22" d="M 310.183594 78.539062 C 310.183594 98.101562 298.308594 107.089844 283.660156 98.617188 C 269.011719 90.148438 257.136719 67.425781 257.136719 47.863281 C 257.136719 28.304688 269.011719 19.3125 283.660156 27.785156 C 298.308594 36.253906 310.183594 58.976562 310.183594 78.539062 " fill-opacity="1" fill-rule="nonzero"/><path fill="#4b2f22" d="M 64.8125 143.457031 L 266.753906 26.136719 L 302.007812 99.386719 L 99.210938 217.113281 L 64.8125 143.457031 " fill-opacity="1" fill-rule="nonzero"/><g clip-path="url(#f68737e1d6)"><path fill="#3b251b" d="M 107.4375 196.238281 C 107.4375 215.800781 95.5625 224.789062 80.914062 216.320312 C 66.269531 207.851562 54.394531 185.128906 54.394531 165.566406 C 54.394531 146.003906 66.269531 137.015625 80.914062 145.484375 C 95.5625 153.957031 107.4375 176.675781 107.4375 196.238281 " fill-opacity="1" fill-rule="nonzero"/></g><path fill="#4b2f22" d="M 285.273438 232.863281 L 285.273438 247.386719 L 156.203125 321.757812 L 156.203125 307.234375 L 285.273438 232.863281 " fill-opacity="1" fill-rule="nonzero"/><path fill="#3b251b" d="M 104.429688 277.296875 L 104.429688 291.816406 L 156.199219 321.757812 L 156.199219 307.234375 L 104.429688 277.296875 " fill-opacity="1" fill-rule="nonzero"/><path fill="#f4a70f" d="M 231.609375 137.277344 C 235.964844 138.296875 237.449219 152.074219 237.449219 155.6875 C 237.449219 159.296875 227.640625 140.625 227.640625 140.625 C 227.640625 140.625 230.34375 136.984375 231.609375 137.277344 " fill-opacity="1" fill-rule="nonzero"/><path fill="#fbbf2c" d="M 262.132812 37.433594 C 249.179688 29.945312 236.59375 28.980469 226.683594 34.707031 C 218.898438 39.210938 213.191406 47.933594 210.253906 58.960938 C 210.707031 58.671875 213.742188 56.894531 214.679688 56.390625 C 217.546875 47.855469 222.070312 41.160156 228.316406 37.542969 C 232.066406 35.378906 236.269531 34.300781 240.777344 34.300781 C 246.925781 34.300781 253.632812 36.304688 260.496094 40.273438 C 288.535156 56.488281 311.351562 100.214844 311.351562 137.738281 C 311.351562 157.175781 305.136719 171.914062 294.304688 178.175781 C 285.453125 183.292969 274.027344 182.324219 262.132812 175.445312 C 249.835938 168.335938 238.601562 156.148438 229.800781 141.300781 C 228.476562 142.316406 227.808594 142.511719 227.011719 142.921875 C 236.117188 158.324219 247.730469 170.902344 260.496094 178.28125 C 267.878906 182.550781 275.140625 184.699219 281.855469 184.699219 C 286.921875 184.699219 291.683594 183.476562 295.941406 181.011719 C 307.8125 174.152344 314.621094 158.375 314.621094 137.738281 C 314.621094 99.167969 291.074219 54.175781 262.132812 37.433594 " fill-opacity="1" fill-rule="nonzero"/><path fill="#f4a70f" d="M 210.253906 58.960938 C 210.253906 58.960938 212.71875 49.671875 218.242188 46.917969 C 223.765625 44.167969 231.152344 42.71875 234.949219 38.554688 C 238.75 34.386719 242.675781 31.648438 248.941406 32.90625 C 255.488281 34.214844 260.136719 38.261719 264.585938 45.039062 C 267.710938 49.792969 279.75 56.46875 279.75 56.46875 C 279.75 56.46875 270.871094 46.917969 264.585938 38.929688 C 258.890625 31.691406 251.757812 26.136719 242.882812 28.511719 C 234.011719 30.886719 233.355469 35.507812 226.179688 37.714844 C 219 39.921875 214.40625 43.15625 211.28125 47.757812 C 208.148438 52.359375 210.253906 58.960938 210.253906 58.960938 " fill-opacity="1" fill-rule="nonzero"/><path fill="#f4a70f" d="M 282.792969 55.03125 C 285.042969 55.714844 288.308594 55.921875 292.902344 62.226562 C 297.5 68.535156 299.527344 75.84375 301.132812 84.679688 C 302.546875 92.46875 303.449219 99.585938 312.21875 107.855469 C 317.890625 113.210938 313.070312 119.949219 313.070312 119.949219 C 313.070312 119.949219 312.925781 115.371094 310.449219 111.445312 C 307.574219 106.898438 302.199219 102.683594 300.265625 98.894531 C 296.042969 90.617188 295.007812 87.488281 293.007812 74.527344 C 291.640625 65.675781 282.792969 55.03125 282.792969 55.03125 " fill-opacity="1" fill-rule="nonzero"/><path fill="#f4a70f" d="M 310.03125 121.625 C 310.03125 121.625 307.316406 131.632812 308.878906 137.695312 C 311.101562 146.300781 313.316406 152.398438 312.558594 156.03125 C 311.351562 161.828125 307.316406 169.3125 307.316406 169.3125 C 307.316406 169.3125 313.671875 166.925781 315.980469 157.835938 C 318.277344 148.785156 316.871094 145.167969 313.761719 137.277344 C 311.074219 130.464844 310.03125 121.625 310.03125 121.625 " fill-opacity="1" fill-rule="nonzero"/><path fill="#f4a70f" d="M 307.316406 161.828125 C 307.316406 161.828125 299.0625 170.328125 293.214844 177.09375 C 288.324219 182.746094 278.597656 185.597656 273.746094 183.710938 C 279.433594 189.78125 291.96875 185.175781 295.941406 181.011719 C 301.152344 175.554688 307.316406 161.828125 307.316406 161.828125 " fill-opacity="1" fill-rule="nonzero"/><path fill="#f4a70f" d="M 271.796875 179.761719 C 271.796875 179.761719 271.949219 178.519531 271.234375 177.085938 C 270.457031 175.527344 268.648438 173.734375 264.492188 173.0625 C 256.523438 171.78125 255.40625 171.542969 248.316406 167.609375 C 243.734375 165.066406 237.449219 157.832031 237.449219 157.832031 C 237.449219 157.832031 237.65625 162.910156 241.570312 168.0625 C 244.886719 172.429688 251.960938 173.734375 257.503906 175.136719 C 265.210938 177.09375 271.796875 179.761719 271.796875 179.761719 " fill-opacity="1" fill-rule="nonzero"/><path fill="#fbbf2c" d="M 240.507812 48.273438 C 227.558594 40.785156 214.96875 39.820312 205.0625 45.542969 C 196.847656 50.296875 191.058594 59.320312 188.269531 71.261719 C 189.410156 70.625 190.558594 70.003906 191.738281 69.453125 C 191.871094 69.378906 192.023438 69.328125 192.160156 69.253906 C 194.925781 59.582031 199.898438 52.3125 206.695312 48.382812 C 210.441406 46.21875 214.644531 45.140625 219.152344 45.140625 C 225.300781 45.140625 232.007812 47.140625 238.871094 51.113281 C 266.914062 67.328125 289.726562 111.050781 289.726562 148.578125 C 289.726562 168.011719 283.511719 182.75 272.683594 189.011719 C 263.828125 194.132812 252.402344 193.160156 240.507812 186.28125 C 233.8125 182.410156 227.4375 176.921875 221.582031 170.367188 L 221.582031 175.183594 C 227 180.851562 232.8125 185.617188 238.871094 189.121094 C 246.253906 193.390625 253.511719 195.539062 260.230469 195.539062 C 265.300781 195.539062 270.058594 194.3125 274.316406 191.851562 C 286.1875 184.988281 292.996094 169.214844 292.996094 148.578125 C 292.996094 110.007812 269.453125 65.011719 240.507812 48.273438 " fill-opacity="1" fill-rule="nonzero"/><path fill="#fbbf2c" d="M 289.289062 86.285156 C 289.289062 93.910156 283.121094 100.089844 275.507812 100.089844 C 267.894531 100.089844 261.722656 93.910156 261.722656 86.285156 C 261.722656 78.660156 267.894531 72.480469 275.507812 72.480469 C 283.121094 72.480469 289.289062 78.660156 289.289062 86.285156 " fill-opacity="1" fill-rule="nonzero"/><path fill="#f4a70f" d="M 275.507812 72.480469 C 274.339844 72.480469 273.21875 72.671875 272.136719 72.945312 C 276.921875 74.285156 280.453125 78.640625 280.453125 83.859375 C 280.453125 90.144531 275.367188 95.242188 269.089844 95.242188 C 267.296875 95.242188 265.621094 94.785156 264.113281 94.042969 C 266.589844 97.691406 270.769531 100.089844 275.507812 100.089844 C 283.121094 100.089844 289.289062 93.910156 289.289062 86.285156 C 289.289062 78.660156 283.121094 72.480469 275.507812 72.480469 " fill-opacity="1" fill-rule="nonzero"/><path fill="#fcd36a" d="M 273.546875 84.492188 C 272.613281 87.339844 269.8125 88.976562 267.289062 88.148438 C 264.769531 87.316406 263.484375 84.335938 264.417969 81.492188 C 265.351562 78.640625 268.152344 77.007812 270.675781 77.835938 C 273.191406 78.664062 274.480469 81.644531 273.546875 84.492188 " fill-opacity="1" fill-rule="nonzero"/><path fill="#fbbf2c" d="M 304.3125 157.832031 C 304.3125 165.457031 298.140625 171.640625 290.53125 171.640625 C 282.917969 171.640625 276.746094 165.457031 276.746094 157.832031 C 276.746094 150.210938 282.917969 144.03125 290.53125 144.03125 C 298.140625 144.03125 304.3125 150.210938 304.3125 157.832031 " fill-opacity="1" fill-rule="nonzero"/><path fill="#f4a70f" d="M 290.53125 144.027344 C 289.359375 144.027344 288.238281 144.21875 287.15625 144.492188 C 291.945312 145.832031 295.476562 150.1875 295.476562 155.410156 C 295.476562 161.695312 290.386719 166.789062 284.113281 166.789062 C 282.316406 166.789062 280.640625 166.335938 279.132812 165.59375 C 281.613281 169.242188 285.792969 171.640625 290.53125 171.640625 C 298.140625 171.640625 304.3125 165.457031 304.3125 157.832031 C 304.3125 150.210938 298.140625 144.027344 290.53125 144.027344 " fill-opacity="1" fill-rule="nonzero"/><path fill="#fcd36a" d="M 288.566406 156.042969 C 287.632812 158.890625 284.832031 160.527344 282.308594 159.699219 C 279.789062 158.867188 278.507812 155.886719 279.4375 153.039062 C 280.375 150.191406 283.171875 148.558594 285.691406 149.386719 C 288.214844 150.214844 289.5 153.195312 288.566406 156.042969 " fill-opacity="1" fill-rule="nonzero"/><path fill="#fbbf2c" d="M 258.4375 52.578125 C 258.4375 60.199219 252.265625 66.382812 244.652344 66.382812 C 237.039062 66.382812 230.871094 60.199219 230.871094 52.578125 C 230.871094 44.953125 237.039062 38.773438 244.652344 38.773438 C 252.265625 38.773438 258.4375 44.953125 258.4375 52.578125 " fill-opacity="1" fill-rule="nonzero"/><path fill="#f4a70f" d="M 244.652344 38.773438 C 243.484375 38.773438 242.363281 38.960938 241.28125 39.238281 C 246.066406 40.574219 249.601562 44.929688 249.601562 50.152344 C 249.601562 56.4375 244.511719 61.53125 238.234375 61.53125 C 236.441406 61.53125 234.769531 61.078125 233.257812 60.335938 C 235.738281 63.984375 239.914062 66.382812 244.652344 66.382812 C 252.265625 66.382812 258.4375 60.199219 258.4375 52.578125 C 258.4375 44.953125 252.265625 38.773438 244.652344 38.773438 " fill-opacity="1" fill-rule="nonzero"/><path fill="#fcd36a" d="M 242.691406 50.785156 C 241.757812 53.632812 238.957031 55.269531 236.4375 54.4375 C 233.917969 53.609375 232.628906 50.628906 233.5625 47.78125 C 234.496094 44.933594 237.296875 43.296875 239.820312 44.128906 C 242.335938 44.957031 243.625 47.9375 242.691406 50.785156 " fill-opacity="1" fill-rule="nonzero"/><path fill="#fbbf2c" d="M 223.019531 58.988281 C 210.066406 51.503906 197.484375 50.535156 187.574219 56.261719 C 179.355469 61.015625 173.570312 70.039062 170.785156 81.980469 C 171.921875 81.34375 173.070312 80.722656 174.25 80.175781 C 174.382812 80.097656 174.535156 80.046875 174.671875 79.972656 C 177.4375 70.300781 182.414062 63.03125 189.207031 59.101562 C 192.953125 56.933594 197.160156 55.859375 201.664062 55.859375 C 207.8125 55.859375 214.519531 57.859375 221.382812 61.832031 C 249.425781 78.046875 272.238281 121.769531 272.238281 159.296875 C 272.238281 178.730469 266.027344 193.46875 255.195312 199.734375 C 246.339844 204.847656 234.914062 203.882812 223.019531 197 C 222.253906 196.558594 221.507812 196.039062 220.75 195.558594 L 220.75 199.4375 C 220.964844 199.5625 221.171875 199.71875 221.382812 199.84375 C 228.765625 204.109375 236.027344 206.257812 242.742188 206.257812 C 247.8125 206.257812 252.570312 205.035156 256.828125 202.570312 C 268.703125 195.703125 275.507812 179.933594 275.507812 159.296875 C 275.507812 120.726562 251.964844 75.730469 223.019531 58.988281 " fill-opacity="1" fill-rule="nonzero"/><path fill="#fbbf2c" d="M 151.851562 106 C 138.902344 98.511719 126.316406 97.546875 116.40625 103.273438 C 109.832031 107.074219 104.816406 113.621094 101.644531 122.207031 C 103.183594 121.335938 104.726562 120.472656 106.273438 119.621094 C 109.140625 113.597656 113.105469 108.964844 118.042969 106.109375 C 121.785156 103.945312 125.992188 102.867188 130.496094 102.867188 C 136.644531 102.867188 143.351562 104.871094 150.21875 108.839844 C 178.257812 125.054688 201.070312 168.777344 201.070312 206.308594 C 201.070312 225.742188 194.863281 240.480469 184.027344 246.742188 C 175.175781 251.859375 163.746094 250.890625 151.851562 244.011719 C 138.644531 236.371094 126.636719 222.597656 117.585938 206.273438 C 117.359375 206.410156 117.136719 206.554688 116.90625 206.683594 C 116.210938 207.101562 115.503906 207.496094 114.796875 207.882812 C 124.140625 224.722656 136.558594 238.953125 150.21875 246.851562 C 157.597656 251.117188 164.859375 253.269531 171.578125 253.269531 C 176.644531 253.269531 181.402344 252.042969 185.664062 249.582031 C 197.53125 242.714844 204.34375 226.945312 204.34375 206.308594 C 204.34375 167.734375 180.796875 122.738281 151.851562 106 " fill-opacity="1" fill-rule="nonzero"/><path fill="#fbbf2c" d="M 175.90625 224.589844 C 178.300781 220.835938 178.847656 215.4375 178.226562 211.398438 C 177.792969 208.570312 176.390625 204.75 173.820312 203.0625 C 175.21875 197.398438 174.925781 190.921875 172.902344 185.613281 C 172.109375 183.53125 170.566406 181.09375 168.585938 180.109375 C 168.761719 175.539062 168.742188 170.734375 166.511719 166.8125 C 165.175781 164.464844 163.191406 162.398438 160.800781 161.707031 C 161.109375 154.230469 157.402344 145.699219 149.84375 145.339844 C 149.957031 140.949219 147.371094 136.128906 144.371094 133.433594 C 140.902344 130.320312 136.511719 129.121094 132.105469 129.765625 C 132.050781 125.199219 128.597656 120.523438 124.90625 118.246094 C 120.855469 115.742188 116.273438 115.523438 112.148438 117.1875 C 104.675781 111.953125 90.734375 110.46875 90.046875 119.828125 C 81.4375 121.96875 73.238281 127.347656 73.902344 137.414062 C 79.78125 138.535156 84.769531 135.515625 87.671875 130.953125 C 89.078125 131.898438 90.914062 132.246094 92.921875 131.9375 C 95.707031 131.511719 97.785156 129.917969 100.078125 128.398438 C 102.050781 127.089844 103.953125 126.132812 105.945312 125.496094 C 106.011719 127.0625 106.679688 128.753906 107.933594 129.804688 C 111.410156 132.714844 117.636719 134.617188 123.359375 134.917969 C 122.953125 136.71875 123.140625 138.769531 124.023438 140.246094 C 125.8125 143.242188 129.402344 144.714844 132.496094 145.910156 C 134.136719 146.546875 135.832031 147.109375 137.542969 147.617188 C 135.414062 150.050781 134.539062 153.210938 137.105469 156.234375 C 139.074219 158.554688 142.191406 160.15625 144.738281 161.714844 C 145.464844 162.160156 146.21875 162.625 146.984375 163.089844 C 145.707031 165.058594 145.304688 167.671875 146.027344 170.140625 C 147.578125 175.410156 152.664062 178.472656 157.464844 181.230469 C 154.910156 182.402344 154.503906 186.816406 155.257812 189.386719 C 156.589844 193.941406 159.589844 198.292969 162.929688 202.148438 C 159.433594 204.449219 161.34375 212.535156 164.304688 218.964844 C 161.28125 219.636719 160.355469 222.949219 160.808594 226.265625 C 161.078125 228.25 161.605469 230.265625 162.164062 232.257812 C 158.3125 236.308594 158.894531 242.234375 158.164062 247.707031 C 156.449219 245.398438 152.832031 247.285156 151.335938 249.152344 C 149.847656 251.007812 149.015625 253.214844 147.695312 255.171875 C 143.265625 254.933594 138.648438 254.625 134.054688 254.582031 C 133.355469 253.875 132.410156 253.3125 131.4375 252.976562 C 128.320312 251.894531 124.769531 251.925781 121.546875 251.105469 C 120.789062 250.914062 120.058594 250.683594 119.324219 250.457031 C 119.167969 246.710938 114.929688 244.332031 111.894531 242.742188 C 107.984375 240.699219 101.039062 238.808594 97.53125 236.425781 C 96.125 233.183594 97.53125 224.082031 91.59375 219.472656 C 91.605469 219.433594 89.746094 219.417969 89.75 219.394531 C 85.816406 218.917969 80.222656 215.992188 76.207031 213.027344 C 76.828125 215.925781 79.296875 221 81.542969 222.519531 C 82.144531 222.925781 82.847656 223.191406 83.578125 223.390625 C 83.804688 230.300781 87.007812 237.769531 92.949219 239.667969 C 93.976562 244.71875 96.925781 249.753906 100.15625 252.886719 C 102.066406 254.738281 106.902344 257 110.351562 256.523438 C 111.628906 258.050781 113.070312 259.457031 114.621094 260.683594 C 117.015625 262.578125 120.535156 264 123.320312 263.273438 C 125.867188 265.625 129.261719 267.328125 132.113281 268.183594 C 134.539062 268.910156 140.207031 269.261719 142.925781 267.359375 C 149.789062 268.332031 158.371094 264.898438 160.566406 258.449219 C 164.15625 256.828125 167.871094 253.039062 169.582031 250.695312 C 171.460938 248.121094 172.824219 244.484375 172.363281 241.238281 C 175.945312 236.476562 178.433594 229.164062 175.90625 224.589844 " fill-opacity="1" fill-rule="nonzero"/><path fill="#f4a70f" d="M 172.605469 240.882812 C 172.101562 240.761719 171.589844 240.609375 171.066406 240.351562 C 166.050781 237.894531 164.121094 232.351562 164.847656 227.070312 C 165.222656 224.335938 166.460938 221.21875 168.441406 218.949219 C 166.605469 216.28125 165.4375 213.019531 164.992188 210.191406 C 164.238281 205.453125 165.800781 202.105469 168.21875 198.707031 C 163.988281 193.125 160.613281 185.574219 162.242188 179.464844 C 157.601562 175.960938 152.699219 172.199219 151.148438 166.429688 C 150.398438 163.628906 150.699219 161.355469 151.667969 159.464844 C 149.515625 158.105469 147.476562 156.597656 145.789062 154.800781 C 142.878906 151.699219 141.40625 147.707031 142.316406 144.183594 C 140.871094 143.515625 139.40625 142.867188 137.871094 142.339844 C 134.910156 141.316406 131.839844 140.175781 129.433594 138.089844 C 126.511719 135.558594 124.992188 132.113281 124.90625 128.542969 C 120.566406 128.203125 116.320312 127.671875 112.230469 124.808594 C 109.933594 123.199219 107.503906 121.132812 105.847656 118.699219 C 104.105469 119.175781 102.363281 119.777344 100.515625 120.722656 C 97.207031 122.417969 93.855469 124.644531 89.988281 124.679688 C 89.695312 124.683594 89.402344 124.664062 89.109375 124.644531 C 86.148438 127.378906 82.554688 129.570312 79.140625 130.761719 C 77.765625 131.242188 76.160156 131.652344 74.59375 131.699219 C 74.03125 133.414062 73.761719 135.304688 73.902344 137.414062 C 79.78125 138.535156 84.769531 135.515625 87.671875 130.953125 C 89.078125 131.898438 90.914062 132.246094 92.921875 131.9375 C 95.707031 131.511719 97.785156 129.917969 100.078125 128.398438 C 102.050781 127.089844 103.953125 126.132812 105.945312 125.496094 C 106.011719 127.0625 106.679688 128.753906 107.933594 129.804688 C 111.410156 132.714844 117.636719 134.617188 123.359375 134.917969 C 122.953125 136.71875 123.140625 138.769531 124.023438 140.246094 C 125.8125 143.242188 129.402344 144.714844 132.496094 145.910156 C 134.136719 146.546875 135.832031 147.109375 137.542969 147.617188 C 135.414062 150.050781 134.539062 153.210938 137.105469 156.234375 C 139.074219 158.554688 142.191406 160.15625 144.738281 161.714844 C 145.464844 162.160156 146.21875 162.625 146.984375 163.089844 C 145.707031 165.058594 145.304688 167.671875 146.027344 170.140625 C 147.578125 175.410156 152.664062 178.472656 157.464844 181.230469 C 154.910156 182.402344 154.503906 186.816406 155.257812 189.386719 C 156.589844 193.941406 159.589844 198.292969 162.929688 202.148438 C 159.433594 204.449219 161.34375 212.535156 164.304688 218.964844 C 161.28125 219.636719 160.355469 222.949219 160.808594 226.265625 C 161.078125 228.25 161.605469 230.265625 162.164062 232.257812 C 158.3125 236.308594 158.894531 242.234375 158.164062 247.707031 C 156.449219 245.398438 152.832031 247.285156 151.335938 249.152344 C 149.847656 251.007812 149.015625 253.214844 147.695312 255.171875 C 143.265625 254.933594 138.648438 254.625 134.054688 254.582031 C 133.355469 253.875 132.410156 253.3125 131.4375 252.976562 C 128.320312 251.894531 124.769531 251.925781 121.546875 251.105469 C 120.789062 250.914062 120.058594 250.683594 119.324219 250.457031 C 119.167969 246.710938 114.929688 244.332031 111.894531 242.742188 C 107.984375 240.699219 101.039062 238.808594 97.53125 236.425781 C 96.125 233.183594 97.53125 224.082031 91.59375 219.472656 C 91.605469 219.433594 89.746094 219.417969 89.75 219.394531 C 85.816406 218.917969 80.222656 215.992188 76.207031 213.027344 C 76.828125 215.925781 79.296875 221 81.542969 222.519531 C 82.144531 222.925781 82.847656 223.191406 83.578125 223.390625 C 83.804688 230.300781 87.007812 237.769531 92.949219 239.667969 C 93.976562 244.71875 96.925781 249.753906 100.15625 252.886719 C 102.066406 254.738281 106.902344 257 110.351562 256.523438 C 111.628906 258.050781 113.070312 259.457031 114.621094 260.683594 C 117.015625 262.578125 120.535156 264 123.320312 263.273438 C 125.867188 265.625 129.261719 267.328125 132.113281 268.183594 C 134.539062 268.910156 140.207031 269.261719 142.925781 267.359375 C 149.789062 268.332031 158.371094 264.898438 160.566406 258.449219 C 164.15625 256.828125 167.871094 253.039062 169.582031 250.695312 C 171.460938 248.121094 172.824219 244.484375 172.363281 241.238281 C 172.449219 241.125 172.523438 240.996094 172.605469 240.882812 " fill-opacity="1" fill-rule="nonzero"/><path fill="#fbbf2c" d="M 192.246094 133.757812 C 192.246094 141.378906 186.074219 147.5625 178.464844 147.5625 C 170.851562 147.5625 164.679688 141.378906 164.679688 133.757812 C 164.679688 126.132812 170.851562 119.949219 178.464844 119.949219 C 186.074219 119.949219 192.246094 126.132812 192.246094 133.757812 " fill-opacity="1" fill-rule="nonzero"/><path fill="#f4a70f" d="M 178.464844 119.949219 C 177.292969 119.949219 176.175781 120.140625 175.089844 120.417969 C 179.878906 121.757812 183.410156 126.109375 183.410156 131.332031 C 183.410156 137.617188 178.324219 142.710938 172.046875 142.710938 C 170.253906 142.710938 168.578125 142.257812 167.066406 141.515625 C 169.546875 145.164062 173.726562 147.5625 178.464844 147.5625 C 186.074219 147.5625 192.246094 141.378906 192.246094 133.757812 C 192.246094 126.132812 186.074219 119.949219 178.464844 119.949219 " fill-opacity="1" fill-rule="nonzero"/><path fill="#fbbf2c" d="M 139.949219 102.589844 C 139.949219 110.214844 133.777344 116.394531 126.164062 116.394531 C 118.550781 116.394531 112.378906 110.214844 112.378906 102.589844 C 112.378906 94.964844 118.550781 88.785156 126.164062 88.785156 C 133.777344 88.785156 139.949219 94.964844 139.949219 102.589844 " fill-opacity="1" fill-rule="nonzero"/><path fill="#f4a70f" d="M 126.164062 88.785156 C 124.992188 88.785156 123.875 88.976562 122.789062 89.25 C 127.578125 90.589844 131.109375 94.945312 131.109375 100.167969 C 131.109375 106.453125 126.023438 111.546875 119.746094 111.546875 C 117.953125 111.546875 116.277344 111.09375 114.769531 110.347656 C 117.25 114 121.425781 116.394531 126.164062 116.394531 C 133.777344 116.394531 139.945312 110.214844 139.945312 102.589844 C 139.945312 94.964844 133.777344 88.785156 126.164062 88.785156 " fill-opacity="1" fill-rule="nonzero"/><path fill="#fbbf2c" d="M 215.640625 190.894531 C 215.640625 198.519531 209.464844 204.703125 201.855469 204.703125 C 194.242188 204.703125 188.070312 198.519531 188.070312 190.894531 C 188.070312 183.273438 194.242188 177.09375 201.855469 177.09375 C 209.464844 177.09375 215.640625 183.273438 215.640625 190.894531 " fill-opacity="1" fill-rule="nonzero"/><path fill="#f4a70f" d="M 201.855469 177.09375 C 200.683594 177.09375 199.566406 177.28125 198.480469 177.554688 C 203.265625 178.894531 206.796875 183.25 206.796875 188.472656 C 206.796875 194.757812 201.710938 199.851562 195.4375 199.851562 C 193.640625 199.851562 191.96875 199.398438 190.457031 198.65625 C 192.9375 202.304688 197.113281 204.703125 201.855469 204.703125 C 209.464844 204.703125 215.640625 198.519531 215.640625 190.894531 C 215.640625 183.273438 209.464844 177.09375 201.855469 177.09375 " fill-opacity="1" fill-rule="nonzero"/><path fill="#fbbf2c" d="M 193.441406 250.089844 C 193.441406 257.714844 187.269531 263.894531 179.660156 263.894531 C 172.042969 263.894531 165.875 257.714844 165.875 250.089844 C 165.875 242.464844 172.042969 236.285156 179.660156 236.285156 C 187.269531 236.285156 193.441406 242.464844 193.441406 250.089844 " fill-opacity="1" fill-rule="nonzero"/><path fill="#f4a70f" d="M 179.660156 236.285156 C 178.484375 236.285156 177.371094 236.476562 176.285156 236.75 C 181.070312 238.089844 184.601562 242.445312 184.601562 247.667969 C 184.601562 253.953125 179.515625 259.046875 173.242188 259.046875 C 171.445312 259.046875 169.769531 258.589844 168.261719 257.851562 C 170.742188 261.496094 174.921875 263.894531 179.660156 263.894531 C 187.269531 263.894531 193.441406 257.714844 193.441406 250.089844 C 193.441406 242.464844 187.269531 236.285156 179.660156 236.285156 " fill-opacity="1" fill-rule="nonzero"/><path fill="#fbbf2c" d="M 142.902344 227.589844 C 142.902344 235.214844 136.730469 241.394531 129.117188 241.394531 C 121.503906 241.394531 115.335938 235.214844 115.335938 227.589844 C 115.335938 219.96875 121.503906 213.785156 129.117188 213.785156 C 136.730469 213.785156 142.902344 219.96875 142.902344 227.589844 " fill-opacity="1" fill-rule="nonzero"/><path fill="#f4a70f" d="M 129.117188 213.785156 C 127.945312 213.785156 126.828125 213.976562 125.746094 214.25 C 130.53125 215.589844 134.0625 219.945312 134.0625 225.167969 C 134.0625 231.453125 128.976562 236.546875 122.699219 236.546875 C 120.90625 236.546875 119.230469 236.09375 117.722656 235.351562 C 120.203125 238.996094 124.378906 241.394531 129.117188 241.394531 C 136.730469 241.394531 142.902344 235.214844 142.902344 227.589844 C 142.902344 219.96875 136.730469 213.785156 129.117188 213.785156 " fill-opacity="1" fill-rule="nonzero"/><path fill="#fcd36a" d="M 200.160156 188.375 C 199.230469 191.226562 196.429688 192.859375 193.90625 192.03125 C 191.386719 191.203125 190.101562 188.222656 191.035156 185.375 C 191.96875 182.527344 194.769531 180.890625 197.289062 181.71875 C 199.808594 182.546875 201.097656 185.527344 200.160156 188.375 " fill-opacity="1" fill-rule="nonzero"/><path fill="#fcd36a" d="M 176.5 131.964844 C 175.566406 134.8125 172.765625 136.449219 170.246094 135.617188 C 167.722656 134.789062 166.4375 131.808594 167.371094 128.964844 C 168.308594 126.117188 171.109375 124.480469 173.628906 125.308594 C 176.144531 126.136719 177.433594 129.117188 176.5 131.964844 " fill-opacity="1" fill-rule="nonzero"/><path fill="#fcd36a" d="M 124.289062 100.433594 C 123.355469 103.285156 120.554688 104.921875 118.035156 104.089844 C 115.515625 103.261719 114.230469 100.28125 115.164062 97.433594 C 116.097656 94.585938 118.898438 92.949219 121.417969 93.78125 C 123.9375 94.609375 125.222656 97.589844 124.289062 100.433594 " fill-opacity="1" fill-rule="nonzero"/><path fill="#fcd36a" d="M 177.886719 247.9375 C 176.953125 250.785156 174.152344 252.421875 171.632812 251.589844 C 169.113281 250.761719 167.824219 247.78125 168.757812 244.933594 C 169.691406 242.085938 172.492188 240.449219 175.011719 241.28125 C 177.535156 242.109375 178.820312 245.089844 177.886719 247.9375 " fill-opacity="1" fill-rule="nonzero"/><path fill="#fcd36a" d="M 127.800781 224.71875 C 126.863281 227.566406 124.066406 229.203125 121.542969 228.375 C 119.023438 227.542969 117.738281 224.566406 118.671875 221.714844 C 119.605469 218.871094 122.40625 217.234375 124.925781 218.0625 C 127.445312 218.890625 128.734375 221.871094 127.800781 224.71875 " fill-opacity="1" fill-rule="nonzero"/><path fill="#f0d0b8" d="M 186.28125 294.84375 C 189.085938 295.195312 191.554688 293.925781 191.792969 292.011719 C 192.03125 290.097656 189.953125 288.257812 187.148438 287.910156 C 184.34375 287.558594 181.875 288.824219 181.640625 290.742188 C 181.398438 292.65625 183.480469 294.492188 186.28125 294.84375 Z M 162.496094 291.375 C 162.496094 291.375 176.644531 285.414062 181.621094 283.75 C 185.15625 282.566406 196.339844 281.339844 196.339844 281.339844 C 203.195312 278.839844 212.792969 281.640625 217.78125 287.59375 L 253.488281 325.761719 C 259.269531 332.027344 255.410156 341.167969 248.558594 343.664062 L 215.25 355.804688 C 208.398438 358.304688 198.796875 355.503906 193.8125 349.550781 L 159.65625 308.78125 C 154.671875 302.828125 155.644531 293.875 162.496094 291.375 " fill-opacity="1" fill-rule="nonzero"/><path fill="#f0d0b8" d="M 247.121094 325.761719 L 255.933594 332.910156 L 254.390625 338.1875 L 247.121094 337.710938 L 247.121094 325.761719 " fill-opacity="1" fill-rule="nonzero"/><path fill="#f0d0b8" d="M 164.101562 292.949219 L 158.285156 295.050781 L 156.90625 299.6875 L 162.496094 305.042969 L 164.101562 292.949219 " fill-opacity="1" fill-rule="nonzero"/><path fill="#fde2d1" d="M 187.480469 290.742188 C 190.28125 291.09375 192.75 289.824219 192.988281 287.910156 C 193.230469 285.996094 191.148438 284.160156 188.34375 283.808594 C 185.539062 283.457031 183.074219 284.726562 182.835938 286.640625 C 182.59375 288.554688 184.675781 290.390625 187.480469 290.742188 Z M 164.230469 289.378906 L 197.539062 277.238281 C 204.390625 274.738281 213.988281 277.539062 218.976562 283.492188 L 253.132812 324.261719 C 258.117188 330.214844 256.605469 337.066406 249.753906 339.5625 L 216.445312 351.707031 C 209.59375 354.203125 199.996094 351.402344 195.007812 345.449219 L 160.855469 304.679688 C 155.867188 298.730469 157.378906 291.875 164.230469 289.378906 " fill-opacity="1" fill-rule="nonzero"/><path fill="#923f1d" d="M 227.523438 321.164062 C 228.6875 323.671875 228.539062 325.875 227.074219 327.769531 C 226.429688 328.71875 225.273438 329.890625 223.820312 331.011719 C 220.34375 326.867188 216.753906 322.617188 213.007812 318.433594 C 214.730469 317.996094 216.585938 317.535156 217.867188 317.347656 C 222.789062 316.613281 224.917969 317.726562 227.523438 321.164062 Z M 194.265625 309.25 C 194.625 308.265625 195.253906 307.496094 196.0625 306.886719 C 198.953125 310.078125 201.988281 313.234375 205.085938 316.382812 C 199.613281 317.1875 192.242188 314.757812 194.265625 309.25 Z M 218.359375 313.542969 C 215.269531 313.5625 212.640625 314.359375 209.980469 315.113281 C 206.808594 311.695312 203.511719 308.363281 200.058594 305.207031 C 203.613281 304.414062 207.835938 304.617188 210.175781 304.457031 C 211.164062 304.390625 210.878906 303.335938 209.984375 303.03125 C 205.507812 301.5 200.605469 301.175781 196.632812 302.195312 C 194.121094 300.058594 191.535156 298.015625 188.839844 296.132812 C 188.042969 295.570312 187.070312 296.085938 187.605469 296.792969 C 189.328125 299.082031 191.199219 301.335938 193.136719 303.578125 C 192.492188 303.960938 191.902344 304.390625 191.386719 304.886719 C 188.070312 308.066406 188.367188 313.429688 193.429688 317.167969 C 198.027344 320.566406 203.488281 320.480469 208.234375 319.570312 C 212.601562 323.964844 216.980469 328.355469 221.15625 332.792969 C 217.304688 335 212.46875 336.261719 208.722656 333.648438 C 206.597656 332.167969 204.050781 334.058594 206.191406 335.558594 C 211.746094 339.460938 218.597656 338.6875 224 335.859375 C 225.386719 337.382812 226.761719 338.910156 228.066406 340.457031 C 229.414062 342.050781 232.292969 341.003906 230.921875 339.414062 C 229.488281 337.746094 228.039062 336.035156 226.574219 334.292969 C 231.128906 331.046875 233.984375 326.34375 232.785156 322.3125 C 231.199219 316.96875 224.929688 313.496094 218.359375 313.542969 " fill-opacity="1" fill-rule="nonzero"/><path fill="#e49949" d="M 288.679688 202.34375 C 284.390625 195.859375 277.433594 188.527344 271.199219 184.699219 C 271.007812 185.171875 270.03125 187.808594 269.632812 188.234375 C 275.089844 191.601562 281.707031 197.734375 285.949219 204.152344 C 290.765625 211.421875 295.621094 223.101562 291.429688 237.4375 C 282.3125 268.585938 247.78125 270.78125 220.988281 263.210938 C 211.25 260.457031 203.234375 261.328125 197.167969 265.804688 C 186.40625 273.746094 185.863281 290.011719 185.847656 290.699219 L 189.117188 290.785156 C 189.121094 290.628906 189.621094 275.441406 199.109375 268.441406 C 204.324219 264.597656 211.386719 263.902344 220.097656 266.359375 C 257.28125 276.886719 286.515625 265.886719 294.570312 238.355469 C 299.117188 222.816406 293.875 210.195312 288.679688 202.34375 " fill-opacity="1" fill-rule="nonzero"/><path fill="#e49949" d="M 258.25 184.53125 C 260.292969 184.769531 264.335938 185.613281 266.78125 186.636719 C 266.789062 186.601562 267.632812 184.726562 268.0625 183.746094 C 265.464844 182.679688 261.082031 181.5625 258.625 181.277344 C 241.28125 179.265625 235.53125 190.605469 235.292969 191.089844 L 238.234375 192.527344 C 238.28125 192.433594 243.179688 182.785156 258.25 184.53125 " fill-opacity="1" fill-rule="nonzero"/><path fill="#e49949" d="M 260.976562 211.835938 C 249.925781 211.835938 238.644531 206.863281 235.054688 200.324219 C 233.332031 197.1875 233.453125 193.84375 235.402344 190.902344 L 238.125 192.714844 C 236.832031 194.667969 236.765625 196.640625 237.921875 198.746094 C 241.011719 204.367188 251.691406 208.769531 261.6875 208.550781 C 275.976562 208.246094 280.632812 196.296875 280.675781 196.175781 L 283.742188 197.332031 C 283.6875 197.472656 278.234375 211.472656 261.757812 211.828125 C 261.5 211.832031 261.238281 211.835938 260.976562 211.835938 " fill-opacity="1" fill-rule="nonzero"/><path fill="#e49949" d="M 176.957031 284.390625 C 175.492188 280.933594 176.214844 277.371094 178.882812 274.863281 C 182.316406 271.628906 188.0625 270.910156 192.542969 273.160156 L 191.078125 276.089844 C 187.34375 274.21875 183.242188 275.257812 181.121094 277.25 C 180.148438 278.164062 178.710938 280.136719 179.96875 283.109375 L 176.957031 284.390625 " fill-opacity="1" fill-rule="nonzero"/></svg>