<svg xmlns="http://www.w3.org/2000/svg" xmlns:xlink="http://www.w3.org/1999/xlink" width="500" zoomAndPan="magnify" viewBox="0 0 375 374.999991" height="500" preserveAspectRatio="xMidYMid meet" version="1.0"><defs><clipPath id="07e1d4f573"><path d="M 37.5 96.496094 L 337.5 96.496094 L 337.5 283.996094 L 37.5 283.996094 Z M 37.5 96.496094 " clip-rule="nonzero"/></clipPath></defs><path fill="#b3b3b3" d="M 98.726562 228.105469 L 95.550781 179.128906 L 51.769531 163.550781 L 45.054688 198.367188 Z M 98.726562 228.105469 " fill-opacity="1" fill-rule="evenodd"/><path fill="#cccccc" d="M 59.554688 160.285156 L 98.371094 174.09375 L 110.398438 170.742188 L 96.449219 164.636719 C 95.179688 164.15625 94.40625 162.824219 94.671875 161.441406 L 96.617188 151.359375 L 59.5625 160.277344 Z M 59.554688 160.285156 " fill-opacity="1" fill-rule="evenodd"/><path fill="#999999" d="M 118.628906 174.351562 L 101.238281 179.191406 L 104.449219 228.628906 L 107.738281 226.957031 L 115.105469 188.726562 C 115.132812 188.570312 115.167969 188.425781 115.222656 188.277344 C 115.578125 187.265625 116.449219 186.582031 117.4375 186.421875 L 136.003906 181.949219 L 118.636719 174.351562 Z M 118.628906 174.351562 " fill-opacity="1" fill-rule="evenodd"/><path fill="#cccccc" d="M 100.667969 160.289062 L 164.289062 188.132812 L 154.179688 140.222656 L 107.722656 123.691406 Z M 100.667969 160.289062 " fill-opacity="1" fill-rule="evenodd"/><path fill="#e6e6e6" d="M 156.851562 135.144531 L 257.25 116.101562 L 218.914062 105.300781 L 117.125 121.007812 Z M 156.851562 135.144531 " fill-opacity="1" fill-rule="evenodd"/><path fill="#b3b3b3" d="M 267.4375 119.945312 L 160 140.328125 L 170.335938 189.316406 L 275.203125 157.039062 Z M 267.4375 119.945312 " fill-opacity="1" fill-rule="evenodd"/><path fill="#cccccc" d="M 277.199219 162.371094 L 169.03125 195.660156 L 168.976562 195.675781 L 168.960938 195.683594 L 168.894531 195.703125 L 168.84375 195.714844 L 168.816406 195.722656 L 168.773438 195.730469 L 168.765625 195.730469 C 168.703125 195.746094 168.648438 195.75 168.585938 195.765625 L 168.574219 195.765625 L 168.53125 195.773438 L 168.503906 195.773438 L 168.460938 195.78125 L 168.042969 195.78125 L 167.972656 195.773438 L 167.953125 195.773438 L 167.902344 195.765625 L 167.882812 195.765625 L 167.835938 195.757812 L 167.828125 195.757812 L 167.765625 195.75 L 167.742188 195.746094 L 167.703125 195.738281 L 167.675781 195.730469 L 167.625 195.722656 C 167.582031 195.714844 167.546875 195.710938 167.507812 195.695312 L 167.492188 195.695312 L 167.457031 195.6875 L 167.421875 195.683594 C 167.382812 195.667969 167.339844 195.652344 167.296875 195.640625 L 167.292969 195.640625 L 167.234375 195.617188 L 167.226562 195.617188 L 167.1875 195.605469 L 167.164062 195.597656 L 167.117188 195.578125 L 167.101562 195.570312 L 167.054688 195.550781 L 167.039062 195.542969 L 144.574219 185.710938 L 127.820312 189.742188 L 180.878906 208.625 L 320.113281 169.84375 L 277.1875 162.371094 Z M 277.199219 162.371094 " fill-opacity="1" fill-rule="evenodd"/><path fill="#e6e6e6" d="M 330.445312 172.859375 L 183.765625 213.71875 L 188.035156 279.554688 L 332.972656 205.804688 Z M 330.445312 172.859375 " fill-opacity="1" fill-rule="evenodd"/><path fill="#b3b3b3" d="M 182.320312 279.039062 L 178.078125 213.65625 L 120.054688 193.007812 L 111.078125 239.558594 Z M 182.320312 279.039062 " fill-opacity="1" fill-rule="evenodd"/><g clip-path="url(#07e1d4f573)"><path fill="#333333" d="M 275.871094 159.390625 L 167.703125 192.679688 L 167.644531 192.695312 L 167.632812 192.703125 L 167.5625 192.722656 L 167.519531 192.738281 L 167.492188 192.742188 L 167.453125 192.75 L 167.445312 192.75 C 167.382812 192.765625 167.324219 192.773438 167.261719 192.785156 L 167.25 192.785156 L 167.207031 192.792969 L 167.179688 192.800781 L 167.136719 192.808594 L 166.71875 192.808594 L 166.652344 192.800781 L 166.628906 192.800781 L 166.582031 192.792969 L 166.558594 192.792969 L 166.511719 192.785156 L 166.503906 192.785156 L 166.441406 192.777344 L 166.421875 192.773438 L 166.378906 192.765625 L 166.351562 192.757812 L 166.308594 192.75 L 166.300781 192.75 C 166.261719 192.742188 166.226562 192.738281 166.183594 192.722656 L 166.167969 192.722656 L 166.140625 192.714844 L 166.105469 192.710938 C 166.066406 192.695312 166.023438 192.679688 165.980469 192.667969 L 165.976562 192.667969 L 165.917969 192.644531 L 165.914062 192.644531 L 165.871094 192.632812 L 165.847656 192.625 L 165.800781 192.605469 L 165.785156 192.597656 L 165.738281 192.578125 L 165.722656 192.570312 L 143.257812 182.738281 L 126.503906 186.769531 L 179.5625 205.652344 L 318.796875 166.871094 L 275.871094 159.398438 Z M 47.820312 153.984375 L 96.460938 142.273438 L 101.425781 116.527344 C 101.601562 115.3125 102.546875 114.308594 103.816406 114.117188 L 217.332031 96.605469 C 217.800781 96.535156 218.253906 96.582031 218.667969 96.722656 L 269.085938 110.921875 C 270.175781 111.230469 270.941406 112.128906 271.113281 113.175781 L 279.722656 154.28125 L 332.164062 163.417969 C 333.476562 163.640625 334.421875 164.734375 334.519531 166.011719 L 337.457031 204.292969 C 337.546875 205.527344 336.839844 206.636719 335.773438 207.109375 L 185.542969 283.550781 C 184.722656 284.007812 183.683594 284.046875 182.800781 283.558594 L 105.257812 240.589844 C 104.179688 240.023438 103.550781 238.796875 103.789062 237.542969 L 105.042969 231.042969 L 101.941406 232.621094 C 101.121094 233.074219 100.089844 233.117188 99.199219 232.628906 L 39.226562 199.402344 C 38.148438 198.835938 37.519531 197.609375 37.765625 196.351562 L 45.488281 156.300781 C 45.515625 156.144531 45.550781 156 45.605469 155.851562 C 45.960938 154.839844 46.832031 154.15625 47.820312 153.988281 Z M 95.277344 148.394531 L 58.222656 157.3125 L 97.035156 171.121094 L 109.058594 167.769531 L 95.113281 161.664062 C 93.84375 161.183594 93.070312 159.851562 93.335938 158.476562 Z M 94.21875 176.15625 L 50.4375 160.578125 L 43.726562 195.394531 L 97.394531 225.132812 L 94.214844 176.15625 Z M 117.296875 171.378906 L 99.910156 176.222656 L 103.121094 225.65625 L 106.40625 223.984375 L 113.773438 185.753906 C 113.800781 185.597656 113.835938 185.453125 113.894531 185.304688 C 114.246094 184.292969 115.117188 183.609375 116.105469 183.449219 L 134.671875 178.984375 L 117.304688 171.386719 Z M 176.746094 210.683594 L 118.726562 190.035156 L 109.75 236.59375 L 180.988281 276.074219 L 176.742188 210.691406 Z M 186.714844 276.582031 L 331.652344 202.832031 L 329.121094 169.886719 L 182.4375 210.746094 Z M 115.800781 118.035156 L 155.535156 132.171875 L 255.925781 113.128906 L 217.589844 102.332031 Z M 162.964844 185.160156 L 152.855469 137.25 L 106.398438 120.71875 L 99.34375 157.316406 Z M 169.011719 186.34375 L 273.886719 154.074219 L 266.121094 116.980469 L 158.675781 137.363281 Z M 169.011719 186.34375 " fill-opacity="1" fill-rule="nonzero"/></g></svg>