<svg xmlns="http://www.w3.org/2000/svg" xmlns:xlink="http://www.w3.org/1999/xlink" width="500" zoomAndPan="magnify" viewBox="0 0 375 374.999991" height="500" preserveAspectRatio="xMidYMid meet" version="1.0"><defs><clipPath id="2aa766f9dc"><path d="M 34.90625 230.574219 L 103.933594 230.574219 L 103.933594 284.078125 L 34.90625 284.078125 Z M 34.90625 230.574219 " clip-rule="nonzero"/></clipPath><clipPath id="e66b8dce12"><path d="M 34.90625 258.808594 L 103.933594 258.808594 L 103.933594 284.078125 L 34.90625 284.078125 Z M 34.90625 258.808594 " clip-rule="nonzero"/></clipPath><clipPath id="22d9f034aa"><path d="M 46 265.265625 L 103.214844 265.265625 L 103.214844 284.078125 L 46 284.078125 Z M 46 265.265625 " clip-rule="nonzero"/></clipPath><clipPath id="306665655c"><path d="M 240.066406 195 L 340.152344 195 L 340.152344 278.664062 L 240.066406 278.664062 Z M 240.066406 195 " clip-rule="nonzero"/></clipPath><clipPath id="62bd1ae42a"><path d="M 240.066406 195.882812 L 340.152344 195.882812 L 340.152344 278.664062 L 240.066406 278.664062 Z M 240.066406 195.882812 " clip-rule="nonzero"/></clipPath></defs><g clip-path="url(#2aa766f9dc)"><path fill="#333333" d="M 36.667969 274.101562 L 34.90625 265.882812 L 46.667969 257.078125 L 47.253906 247.6875 L 55.484375 242.988281 L 60.191406 234.183594 L 72.539062 230.660156 L 89.59375 242.402344 L 90.769531 251.792969 L 101.355469 258.839844 L 103.707031 267.644531 L 97.824219 279.382812 L 83.125 284.078125 L 75.480469 279.382812 L 63.71875 283.492188 L 49.605469 282.320312 L 46.078125 277.035156 L 36.667969 274.101562 " fill-opacity="1" fill-rule="nonzero"/></g><g clip-path="url(#e66b8dce12)"><path fill="#080808" d="M 46.078125 277.035156 L 49.605469 282.320312 L 63.71875 283.492188 L 75.480469 279.382812 L 83.125 284.078125 L 97.824219 279.382812 L 103.707031 267.644531 L 101.355469 258.839844 L 93.121094 275.277344 L 84.300781 272.925781 L 75.480469 274.6875 L 59.601562 265.292969 L 51.960938 268.816406 L 40.199219 269.992188 L 34.90625 265.882812 L 36.667969 274.101562 L 46.078125 277.035156 " fill-opacity="1" fill-rule="nonzero"/></g><g clip-path="url(#22d9f034aa)"><path fill="#000000" d="M 96.648438 269.40625 L 93.121094 275.277344 L 97.824219 279.382812 L 103.023438 269.007812 Z M 75.480469 279.382812 L 83.125 284.078125 L 84.300781 272.925781 L 75.480469 274.6875 Z M 54.898438 268.816406 L 46.078125 277.035156 L 49.605469 282.320312 L 63.71875 283.492188 L 59.601562 265.292969 L 54.898438 268.816406 " fill-opacity="1" fill-rule="nonzero"/></g><path fill="#494949" d="M 37.84375 266.46875 L 43.136719 267.054688 L 57.25 264.707031 L 47.253906 258.839844 L 37.84375 266.46875 " fill-opacity="1" fill-rule="nonzero"/><path fill="#494949" d="M 49.605469 249.445312 L 58.425781 258.839844 L 64.894531 254.140625 L 56.074219 245.339844 L 49.605469 249.445312 " fill-opacity="1" fill-rule="nonzero"/><path fill="#494949" d="M 61.367188 237.121094 L 68.421875 253.554688 L 71.953125 261.773438 L 81.359375 266.46875 L 89.59375 253.554688 L 86.652344 242.402344 L 70.777344 233.597656 L 61.367188 237.121094 " fill-opacity="1" fill-rule="nonzero"/><path fill="#494949" d="M 84.886719 267.054688 L 87.242188 271.167969 L 93.121094 270.578125 L 99 260.011719 L 91.355469 255.902344 L 84.886719 267.054688 " fill-opacity="1" fill-rule="nonzero"/><path fill="#3a3a3a" d="M 73.484375 256.617188 C 72.296875 254.777344 71.113281 252.9375 69.929688 251.105469 C 68.671875 249.15625 67.394531 247.152344 66.894531 244.886719 C 66.390625 242.625 66.820312 240.007812 68.554688 238.472656 C 68.523438 239.730469 70.273438 240.089844 71.53125 239.964844 C 72.789062 239.832031 74.511719 239.972656 74.707031 241.21875 C 74.769531 241.625 74.625 242.027344 74.519531 242.425781 C 73.605469 245.847656 76.007812 249.792969 79.476562 250.558594 C 78.707031 252.46875 75.414062 252.503906 74.96875 254.511719 C 74.777344 255.390625 75.253906 256.285156 75.183594 257.179688 C 75.113281 258.070312 73.804688 258.855469 73.390625 258.058594 C 73.269531 257.542969 73.144531 257.027344 73.019531 256.515625 L 73.484375 256.617188 " fill-opacity="1" fill-rule="nonzero"/><path fill="#333333" d="M 273.640625 265.757812 L 288.507812 251.65625 L 293.714844 230.132812 L 281.074219 208.609375 L 283.304688 190.796875 L 273.640625 161.109375 L 266.207031 153.6875 L 262.488281 137.359375 L 243.898438 96.539062 C 243.898438 96.539062 225.3125 92.085938 222.339844 91.34375 C 219.367188 90.601562 170.296875 111.386719 170.296875 111.386719 L 163.605469 136.621094 L 149.480469 145.527344 L 141.300781 171.5 L 146.507812 186.347656 L 126.429688 202.675781 L 122.714844 219.742188 L 133.121094 242.007812 L 130.148438 253.882812 L 165.835938 270.953125 L 197.0625 264.273438 L 209.699219 270.953125 L 224.570312 270.953125 L 231.261719 259.820312 L 243.15625 261.304688 L 255.054688 267.984375 L 273.640625 265.757812 " fill-opacity="1" fill-rule="nonzero"/><path fill="#080808" d="M 130.148438 253.882812 L 133.121094 242.007812 L 122.714844 219.742188 L 126.429688 202.675781 L 146.507812 186.347656 L 141.300781 171.5 L 141.457031 171.011719 L 164.347656 190.054688 L 171.039062 207.867188 L 180.703125 216.773438 L 203.007812 206.386719 L 218.625 209.351562 L 234.234375 194.507812 L 246.875 192.28125 L 267.691406 201.1875 L 281.074219 187.832031 L 281.96875 186.6875 L 283.304688 190.796875 L 281.074219 208.609375 L 293.714844 230.132812 L 288.507812 251.65625 L 273.640625 265.757812 L 255.054688 267.984375 L 243.15625 261.304688 L 231.261719 259.820312 L 224.570312 270.953125 L 209.699219 270.953125 L 197.0625 264.273438 L 165.835938 270.953125 L 130.148438 253.882812 " fill-opacity="1" fill-rule="nonzero"/><path fill="#000000" d="M 243.15625 261.304688 L 231.261719 259.820312 L 223.828125 237.554688 L 222.339844 218.257812 C 222.339844 218.257812 218.625 212.320312 218.625 209.351562 L 234.234375 194.507812 L 246.875 192.28125 L 267.691406 201.1875 L 261.742188 216.773438 L 263.230469 231.617188 L 252.824219 241.265625 L 255.054688 267.984375 L 243.15625 261.304688 " fill-opacity="1" fill-rule="nonzero"/><path fill="#000000" d="M 163.816406 269.988281 C 164.667969 263.117188 165.09375 251.65625 165.09375 251.65625 L 176.246094 237.554688 L 169.554688 222.710938 L 156.914062 211.578125 L 146.507812 186.347656 L 141.300781 171.5 L 141.457031 171.011719 L 164.347656 190.054688 L 171.039062 207.867188 L 180.703125 216.773438 L 182.191406 235.328125 L 197.0625 264.273438 L 165.835938 270.953125 L 163.816406 269.988281 " fill-opacity="1" fill-rule="nonzero"/><path fill="#000000" d="M 126.160156 203.929688 L 148.734375 231.617188 L 146.507812 245.71875 L 133.121094 242.007812 L 122.714844 219.742188 L 126.160156 203.929688 " fill-opacity="1" fill-rule="nonzero"/><path fill="#000000" d="M 269.179688 216.773438 L 270.664062 204.898438 L 275.871094 198.960938 L 281.96875 186.6875 L 281.074219 208.609375 L 269.179688 216.773438 " fill-opacity="1" fill-rule="nonzero"/><path fill="#171717" d="M 252.078125 174.46875 L 235.722656 177.4375 L 217.878906 178.179688 L 203.007812 206.386719 L 180.703125 216.773438 L 186.652344 197.476562 L 189.628906 185.601562 L 186.652344 171.5 L 173.269531 166.308594 L 165.09375 158.140625 L 163.605469 136.621094 L 170.296875 111.382812 L 182.9375 123.261719 L 182.191406 143.296875 L 193.34375 151.460938 L 204.496094 161.851562 L 204.496094 171.5 L 211.929688 171.5 L 215.648438 155.914062 C 215.648438 155.914062 236.464844 138.101562 238.695312 139.589844 C 240.925781 141.074219 258.027344 138.101562 262.488281 137.359375 L 266.207031 153.6875 L 252.078125 174.46875 " fill-opacity="1" fill-rule="nonzero"/><path fill="#494949" d="M 242.414062 98.769531 L 253.566406 127.15625 L 245.203125 132.722656 L 235.722656 131.609375 L 214.535156 151.09375 L 203.9375 151.648438 L 187.210938 141.074219 L 192.230469 134.390625 L 188.882812 131.609375 L 207.285156 124.929688 L 208.957031 121.03125 L 190.558594 123.261719 L 178.289062 113.242188 L 222.339844 94.871094 L 242.414062 98.769531 " fill-opacity="1" fill-rule="nonzero"/><path fill="#080808" d="M 173.269531 166.308594 L 182.191406 143.296875 C 181.078125 142.742188 182.191406 130.496094 182.191406 130.496094 L 173.269531 138.84375 L 163.605469 136.621094 L 165.09375 158.140625 L 173.269531 166.308594 " fill-opacity="1" fill-rule="nonzero"/><path fill="#080808" d="M 246.316406 196.734375 L 244.085938 207.867188 L 246.316406 215.664062 L 244.085938 226.792969 L 235.722656 224.566406 L 233.492188 213.433594 L 230.144531 206.199219 L 235.164062 196.734375 L 238.511719 199.519531 L 241.855469 199.519531 L 246.316406 196.734375 " fill-opacity="1" fill-rule="nonzero"/><path fill="#080808" d="M 241.296875 231.246094 L 235.164062 229.019531 L 235.164062 237.371094 L 237.953125 245.164062 L 241.296875 243.492188 L 241.296875 231.246094 " fill-opacity="1" fill-rule="nonzero"/><path fill="#000000" d="M 171.039062 236.8125 L 164.90625 229.019531 L 153.753906 231.804688 L 148.734375 245.71875 L 154.3125 247.945312 L 162.675781 249.058594 L 164.90625 241.824219 L 168.808594 242.378906 L 171.039062 236.8125 " fill-opacity="1" fill-rule="nonzero"/><path fill="#171717" d="M 155.984375 216.773438 L 155.984375 222.339844 L 148.179688 225.683594 L 134.238281 210.09375 L 133.121094 202.300781 L 143.71875 194.507812 L 148.179688 201.1875 L 145.949219 207.867188 L 149.292969 212.878906 L 155.984375 216.773438 " fill-opacity="1" fill-rule="nonzero"/><path fill="#171717" d="M 170.484375 170.015625 L 166.019531 184.488281 L 158.773438 181.148438 L 157.65625 175.027344 L 153.195312 171.132812 L 145.949219 170.574219 L 150.96875 151.09375 L 160.445312 153.875 L 162.117188 162.78125 L 170.484375 170.015625 " fill-opacity="1" fill-rule="nonzero"/><path fill="#171717" d="M 277.542969 186.714844 L 271.96875 163.894531 L 265.832031 158.882812 L 253.566406 177.253906 L 258.585938 183.933594 L 264.160156 185.046875 L 268.0625 181.148438 L 270.851562 186.714844 L 277.542969 186.714844 " fill-opacity="1" fill-rule="nonzero"/><path fill="#3a3a3a" d="M 243.625 114.042969 C 240.003906 111.945312 243.195312 105.425781 240.179688 102.523438 C 239.480469 101.851562 238.539062 101.496094 237.625 101.171875 C 232.9375 99.527344 228.109375 98.269531 223.214844 97.421875 C 222.421875 97.289062 221.570312 97.167969 220.839844 97.507812 C 219.78125 98 219.363281 99.25 218.636719 100.164062 C 216.265625 103.144531 211.296875 102.027344 208.15625 104.179688 C 206.609375 105.238281 205.652344 107 204.078125 108.019531 C 202.863281 108.804688 201.390625 109.074219 200.066406 109.660156 C 198.738281 110.25 197.453125 111.359375 197.410156 112.804688 C 200.085938 114.515625 203.859375 114.277344 206.292969 112.242188 C 207.355469 111.355469 208.839844 110.113281 209.875 111.035156 C 210.492188 111.585938 210.40625 112.578125 210.8125 113.304688 C 212.070312 115.542969 215.660156 113.195312 218.074219 114.085938 C 219.078125 114.453125 219.8125 115.390625 220.84375 115.675781 C 221.878906 115.957031 223.011719 115.527344 224.042969 115.820312 C 225.527344 116.238281 226.203125 118.332031 225.246094 119.535156 C 224.359375 120.65625 222.59375 120.820312 221.785156 122.003906 C 221.382812 122.589844 221.296875 123.332031 221.21875 124.035156 C 221.039062 125.6875 220.96875 127.632812 222.242188 128.695312 C 222.75 129.121094 223.449219 129.382812 223.71875 129.984375 C 223.960938 130.535156 223.757812 131.1875 223.90625 131.769531 C 224.375 133.570312 227.269531 132.890625 228.289062 131.335938 C 229.304688 129.78125 229.753906 127.660156 231.421875 126.839844 C 233.792969 125.679688 237.246094 127.910156 239.03125 125.96875 C 241.058594 123.765625 248.933594 117.117188 243.625 114.042969 " fill-opacity="1" fill-rule="nonzero"/><path fill="#3a3a3a" d="M 181.804688 185.53125 C 179.941406 188.828125 183.371094 192.980469 182.367188 196.628906 C 182.085938 197.652344 181.472656 198.542969 180.871094 199.417969 C 179.738281 201.0625 178.125 205.652344 175.332031 204.445312 C 172.226562 203.101562 171.191406 198.769531 170.578125 195.816406 C 170.277344 194.359375 169.511719 191.824219 170.242188 190.429688 C 171.0625 188.859375 173.675781 189.128906 174.273438 187.109375 C 174.449219 186.519531 174.371094 185.886719 174.28125 185.277344 C 173.628906 180.902344 175.402344 174.308594 181.246094 174.941406 C 183.339844 175.171875 185.089844 176.585938 185.515625 178.71875 C 186.207031 182.148438 183.226562 183.019531 181.804688 185.53125 " fill-opacity="1" fill-rule="nonzero"/><path fill="#3a3a3a" d="M 234.335938 191.464844 C 233.230469 190.628906 233.742188 188.3125 232.390625 188.015625 C 231.253906 189.414062 229.363281 189.945312 227.96875 191.097656 C 226.429688 192.367188 225.617188 194.289062 224.746094 196.085938 C 223.351562 198.96875 221.667969 201.714844 219.734375 204.269531 C 219.378906 204.738281 218.988281 205.21875 218.441406 205.425781 C 217.886719 205.632812 217.265625 205.523438 216.683594 205.410156 C 213.652344 204.808594 211.53125 204.480469 211.355469 201.050781 C 211.136719 196.835938 214.828125 190.136719 216.117188 186.058594 C 216.203125 185.785156 216.296875 185.5 216.5 185.296875 C 216.933594 184.863281 217.65625 184.96875 218.25 185.136719 C 219.496094 185.488281 220.710938 185.964844 221.867188 186.550781 C 221.550781 184.710938 222.890625 182.902344 224.574219 182.09375 C 226.261719 181.285156 228.203125 181.261719 230.070312 181.324219 C 232.074219 181.394531 233.992188 182.992188 235.738281 182.929688 C 238.054688 182.851562 240.03125 180.164062 242.269531 179.804688 C 244.871094 179.386719 246.1875 180.140625 247.257812 182.734375 C 251.535156 193.109375 234.335938 189.59375 234.335938 191.464844 " fill-opacity="1" fill-rule="nonzero"/><path fill="#000000" d="M 220.949219 236.945312 C 220.914062 236.808594 220.867188 236.652344 220.738281 236.59375 C 220.628906 236.542969 220.5 236.578125 220.382812 236.617188 C 216.378906 237.914062 212.375 239.214844 208.367188 240.511719 C 208.136719 241.195312 207.898438 241.875 207.652344 242.550781 C 207.554688 242.828125 207.414062 243.140625 207.128906 243.210938 C 206.941406 243.261719 206.746094 243.183594 206.566406 243.109375 C 204.925781 242.425781 203.285156 241.738281 201.644531 241.054688 C 201.457031 240.289062 201.273438 239.519531 201.085938 238.753906 C 198.789062 238.234375 196.492188 237.707031 194.195312 237.1875 C 192.707031 236.847656 187.191406 237.46875 185.910156 238.296875 C 188.722656 245.292969 193.238281 250.714844 196.316406 257.59375 C 198.34375 257.242188 202.632812 257.484375 204.660156 257.132812 C 205.832031 256.929688 207.238281 256.523438 207.523438 255.367188 C 207.742188 254.484375 207.160156 253.546875 207.390625 252.667969 C 207.667969 251.59375 208.964844 251.164062 210.078125 251.113281 C 211.1875 251.066406 212.394531 251.191406 213.316406 250.570312 C 213.960938 251.5625 214.757812 252.460938 215.671875 253.222656 C 217.390625 251.910156 224.085938 253.296875 226.058594 252.398438 C 225.6875 250.171875 221.757812 240.136719 220.949219 236.945312 " fill-opacity="1" fill-rule="nonzero"/><path fill="#080808" d="M 211.929688 171.132812 L 217.878906 178.179688 L 211.1875 191.167969 C 211.1875 191.167969 204.496094 189.3125 203.382812 189.3125 C 202.265625 189.3125 200.035156 186.347656 200.035156 186.347656 L 196.316406 187.457031 L 189.628906 183.746094 L 186.652344 173.355469 L 177.730469 168.902344 L 175.871094 166.675781 L 189.253906 171.890625 L 194.089844 172.617188 L 195.203125 176.695312 L 199.664062 176.695312 L 204.496094 171.875 L 211.929688 171.132812 " fill-opacity="1" fill-rule="nonzero"/><path fill="#080808" d="M 217.878906 178.179688 L 224.199219 179.292969 L 230.519531 178.179688 C 230.519531 178.179688 233.863281 179.664062 234.980469 179.292969 C 236.09375 178.921875 247.617188 175.210938 247.617188 175.210938 L 239.8125 175.210938 L 235.722656 177.4375 L 232.375 174.46875 L 224.199219 176.695312 L 216.390625 175.953125 L 217.878906 178.179688 " fill-opacity="1" fill-rule="nonzero"/><path fill="#333333" d="M 173.269531 166.308594 L 179.960938 149.421875 L 175.222656 164.171875 L 175.78125 165.84375 L 182.191406 168.902344 L 176.335938 167.792969 L 173.269531 166.308594 " fill-opacity="1" fill-rule="nonzero"/><path fill="#333333" d="M 267.691406 201.1875 C 267.785156 200.355469 278.378906 191.167969 278.378906 191.167969 L 268.34375 203.414062 L 263.324219 216.21875 C 263.324219 216.21875 263.882812 234.03125 263.601562 232.917969 C 263.324219 231.804688 260.816406 215.664062 260.816406 215.664062 L 263.882812 211.484375 L 267.691406 201.1875 " fill-opacity="1" fill-rule="nonzero"/><path fill="#333333" d="M 189.441406 250.453125 C 189.160156 249.617188 182.191406 235.328125 182.191406 235.328125 L 181.078125 224.289062 L 180.703125 216.773438 L 182.472656 224.847656 L 183.867188 234.867188 L 189.441406 250.453125 " fill-opacity="1" fill-rule="nonzero"/><path fill="#333333" d="M 223.828125 237.554688 C 223.734375 235.144531 222.339844 218.257812 222.339844 218.257812 L 218.625 209.351562 L 220.109375 218.722656 L 221.78125 227.351562 L 223.828125 237.554688 " fill-opacity="1" fill-rule="nonzero"/><path fill="#333333" d="M 135.074219 214.824219 L 148.734375 231.617188 L 153.753906 231.804688 L 164.90625 229.019531 L 153.476562 230.414062 L 150.96875 229.578125 L 148.457031 229.296875 L 135.074219 214.824219 " fill-opacity="1" fill-rule="nonzero"/><g clip-path="url(#306665655c)"><path fill="#494949" d="M 317.761719 277.503906 L 336.882812 262.429688 L 337.34375 251.933594 L 340.152344 247.414062 L 333.386719 232.359375 L 327.738281 229.316406 L 329.179688 217.949219 L 297.359375 195.914062 L 283.980469 195.023438 L 249.953125 215.773438 L 255.960938 224.722656 L 241 239.746094 L 240.304688 256.476562 L 261.582031 278.234375 L 293.933594 277.167969 L 304.351562 278.539062 L 317.761719 277.503906 " fill-opacity="1" fill-rule="nonzero"/></g><g clip-path="url(#62bd1ae42a)"><path fill="#333333" d="M 255.167969 224.152344 C 257.011719 221.792969 269.628906 207.308594 278.371094 198.566406 L 249.941406 215.910156 Z M 240.988281 239.875 L 240.296875 256.597656 L 261.566406 278.34375 L 293.914062 277.273438 L 304.335938 278.636719 L 317.742188 277.601562 L 336.859375 262.53125 L 337.320312 252.03125 L 340.128906 247.519531 L 333.359375 232.46875 L 327.714844 229.425781 L 329.15625 218.066406 L 297.335938 196.042969 L 296.183594 195.96875 C 301.4375 201.859375 318.753906 221.777344 318.753906 221.777344 L 310.324219 240.8125 L 293.511719 245.933594 C 293.511719 245.933594 270.378906 240.753906 268.640625 238.980469 C 267.226562 237.535156 259.148438 228.78125 255.894531 224.847656 L 240.988281 239.875 " fill-opacity="1" fill-rule="nonzero"/></g><path fill="#080808" d="M 339.011719 249.25 L 339.277344 248.820312 L 338.972656 248.71875 C 338.972656 248.71875 338.984375 248.917969 339.011719 249.25 Z M 250.003906 258.886719 C 250.003906 258.886719 242.71875 256.640625 240.335938 255.808594 L 240.304688 256.476562 L 261.582031 278.234375 L 293.933594 277.167969 L 304.351562 278.535156 L 317.761719 277.503906 L 336.882812 262.429688 L 337.34375 251.933594 L 338.003906 250.871094 C 333.433594 254.808594 322.808594 263.800781 322.808594 263.800781 L 305.859375 264.070312 L 299.609375 260.4375 L 285.28125 265.75 L 261.101562 263.953125 L 250.003906 258.886719 " fill-opacity="1" fill-rule="nonzero"/><path fill="#000000" d="M 305.859375 264.070312 L 304.351562 278.535156 L 293.933594 277.167969 L 299.609375 260.4375 L 305.859375 264.070312 " fill-opacity="1" fill-rule="nonzero"/><path fill="#171717" d="M 255.6875 225 L 241 239.746094 L 249.714844 247.097656 L 258.824219 243.394531 L 263.4375 245.347656 L 262.394531 253.636719 L 289.953125 250.179688 L 307.113281 250.625 L 306.234375 246.410156 L 311.535156 248.261719 L 314.429688 245.21875 C 314.429688 245.21875 333.691406 232.390625 333.386719 232.359375 C 333.082031 232.328125 327.738281 229.316406 327.738281 229.316406 L 318.777344 221.660156 L 310.34375 240.703125 L 293.53125 245.820312 L 268.65625 238.855469 L 255.6875 225 " fill-opacity="1" fill-rule="nonzero"/><path fill="#000000" d="M 260.941406 264.0625 L 261.070312 277.796875 L 251.9375 267.945312 L 250.113281 258.8125 L 260.941406 264.0625 " fill-opacity="1" fill-rule="nonzero"/><path fill="#000000" d="M 285.28125 265.75 L 286.144531 277.425781 L 277.394531 277.683594 L 276.429688 272.242188 L 280.394531 274.292969 L 276.027344 265.203125 L 285.28125 265.75 " fill-opacity="1" fill-rule="nonzero"/><path fill="#171717" d="M 319.640625 275.691406 L 322.808594 263.800781 L 335.589844 253.199219 L 328.847656 262.125 C 328.847656 262.125 334.6875 258.328125 333.929688 259.105469 C 333.167969 259.878906 326.773438 270.035156 326.773438 270.035156 L 319.640625 275.691406 " fill-opacity="1" fill-rule="nonzero"/><path fill="#171717" d="M 298.660156 260.113281 L 305.859375 264.070312 L 311.535156 248.261719 L 306.234375 246.410156 L 307.113281 250.625 L 299.609375 260.4375 L 298.660156 260.113281 " fill-opacity="1" fill-rule="nonzero"/><path fill="#171717" d="M 262.445312 254.035156 L 261.132812 264.066406 L 250.113281 258.8125 L 249.671875 247.007812 L 258.824219 243.394531 L 263.4375 245.347656 L 262.445312 254.035156 " fill-opacity="1" fill-rule="nonzero"/><path fill="#080808" d="M 291.101562 250.246094 L 293.40625 246.042969 L 310.34375 240.703125 L 311.535156 248.261719 L 307.113281 250.625 L 291.101562 250.246094 " fill-opacity="1" fill-rule="nonzero"/><path fill="#080808" d="M 268.65625 238.855469 L 263.4375 245.347656 L 258.824219 243.394531 L 255.960938 224.722656 L 268.65625 238.855469 " fill-opacity="1" fill-rule="nonzero"/><path fill="#080808" d="M 327.101562 229.1875 C 326.96875 229.769531 326.339844 230.285156 325.136719 231.316406 C 324.113281 232.199219 323.125 233.125 322.148438 234.050781 L 320.832031 230.929688 L 317.667969 236.800781 L 315.0625 239.96875 L 310.34375 240.703125 C 311.601562 237.863281 312.863281 235.015625 314.132812 232.148438 C 315.515625 229.023438 316.644531 224.5625 318.886719 221.875 C 319.835938 222.664062 321 222.851562 322.210938 223.140625 C 322.625 223.238281 323.058594 223.347656 323.332031 223.644531 C 323.871094 224.230469 323.625 225.378906 324.375 225.699219 C 324.691406 225.835938 325.085938 225.757812 325.40625 225.894531 C 325.691406 226.011719 325.859375 226.28125 326.015625 226.535156 C 326.847656 227.921875 327.238281 228.589844 327.101562 229.1875 " fill-opacity="1" fill-rule="nonzero"/><path fill="#080808" d="M 249.953125 215.773438 L 255.871094 225.066406 L 244.867188 235.90625 Z M 249.953125 215.773438 " fill-opacity="1" fill-rule="nonzero"/><path fill="#080808" d="M 329.179688 217.949219 C 328.355469 219.261719 326.589844 221.375 327.144531 222.96875 C 327.734375 224.667969 326.878906 226.375 326.707031 228.261719 C 326.667969 228.710938 326.636719 229.203125 326.902344 229.554688 C 327.640625 230.527344 329.242188 231.261719 330.316406 231.726562 C 331.28125 232.144531 332.464844 231.902344 333.40625 232.367188 C 332.632812 230.023438 331.992188 227.582031 331.28125 225.148438 C 330.996094 224.171875 328.589844 218.886719 329.179688 217.949219 " fill-opacity="1" fill-rule="nonzero"/><path fill="#3a3a3a" d="M 299.726562 213.269531 C 300.011719 213.488281 300.320312 213.703125 300.476562 214.011719 C 300.828125 214.714844 300.136719 215.5625 299.316406 215.761719 C 298.492188 215.964844 297.625 215.714844 296.808594 215.46875 C 298.296875 218.871094 300.34375 221.996094 302.839844 224.691406 C 302.210938 224.859375 301.546875 224.648438 300.957031 224.410156 C 297.125 222.855469 293.867188 220.039062 291.910156 216.523438 C 291.328125 215.472656 291.0625 213.863281 292.265625 213.410156 C 292.953125 213.152344 293.882812 213.433594 294.382812 212.941406 C 292.949219 211.054688 292.667969 208.46875 293.691406 206.363281 C 294.25 205.195312 296.597656 208.285156 296.730469 208.484375 C 297.894531 210.195312 297.882812 211.855469 299.726562 213.269531 " fill-opacity="1" fill-rule="nonzero"/><path fill="#3a3a3a" d="M 276.179688 220.160156 C 277.253906 222.398438 280.851562 223.605469 280.71875 225.96875 C 280.667969 226.917969 279.964844 227.78125 279.972656 228.730469 C 279.988281 230.253906 281.796875 231.359375 281.96875 232.855469 C 278.429688 233.296875 274.660156 232.480469 271.738281 230.601562 C 271.117188 230.207031 270.511719 229.738281 270.214844 229.125 C 269.917969 228.507812 270.019531 227.710938 270.632812 227.300781 C 270.820312 227.175781 271.042969 227.089844 271.214844 226.949219 C 271.769531 226.492188 271.515625 225.664062 271.019531 225.148438 C 270.523438 224.625 269.828125 224.234375 269.445312 223.644531 C 269 222.960938 269.058594 222.117188 269.324219 221.378906 C 269.804688 220.050781 271.96875 217.34375 273.773438 217.210938 C 276.484375 217.011719 275.34375 218.410156 276.179688 220.160156 " fill-opacity="1" fill-rule="nonzero"/><path fill="#494949" d="M 332.941406 241.765625 C 332.90625 242.015625 332.835938 242.300781 332.597656 242.441406 C 332.339844 242.589844 332.039062 242.488281 331.761719 242.441406 C 330.464844 242.226562 329.210938 243.363281 328.351562 244.421875 C 327.492188 245.484375 326.503906 246.714844 325.132812 246.878906 C 324.574219 246.945312 323.902344 246.863281 323.53125 247.28125 C 323.21875 247.625 323.335938 248.105469 323.214844 248.523438 C 323.050781 249.09375 322.4375 249.523438 321.816406 249.722656 C 321.191406 249.921875 320.542969 249.9375 319.894531 250.015625 C 318.140625 250.21875 316.386719 250.871094 314.902344 251.871094 C 315.355469 249.382812 315.96875 246.621094 318.195312 244.890625 C 320.21875 243.324219 323.199219 242.9375 324.753906 241.003906 C 325.335938 240.277344 325.769531 239.304688 326.683594 239.035156 C 327.078125 238.917969 327.492188 238.964844 327.890625 238.851562 C 329.507812 238.390625 330.042969 236.148438 331.914062 237.050781 C 333.25 237.691406 333.105469 240.558594 332.941406 241.765625 " fill-opacity="1" fill-rule="nonzero"/><path fill="#333333" d="M 176.234375 275.109375 L 183.007812 268.347656 L 184.855469 256.667969 L 193.476562 244.375 C 193.476562 244.375 196.554688 232.078125 196.554688 230.234375 C 196.554688 228.390625 180.546875 207.488281 180.546875 207.488281 L 170.074219 205.644531 L 163.917969 188.433594 L 138.667969 181.671875 L 116.5 183.515625 L 105.417969 195.195312 L 101.722656 211.179688 L 86.328125 222.242188 L 83.863281 240.683594 L 94.945312 260.355469 L 96.792969 268.964844 L 115.269531 278.183594 C 115.269531 278.183594 141.132812 280.027344 142.980469 279.414062 C 144.828125 278.800781 152.21875 271.421875 152.21875 271.421875 L 162.070312 276.339844 L 176.234375 275.109375 " fill-opacity="1" fill-rule="nonzero"/><path fill="#080808" d="M 96.792969 268.964844 L 115.269531 278.183594 C 115.269531 278.183594 141.132812 280.027344 142.980469 279.414062 C 144.828125 278.800781 152.21875 271.421875 152.21875 271.421875 L 162.070312 276.339844 L 176.234375 275.109375 L 183.007812 268.347656 L 184.855469 256.667969 L 193.476562 244.375 C 193.476562 244.375 196.554688 232.078125 196.554688 230.234375 C 196.554688 230.105469 196.46875 229.875 196.324219 229.570312 L 187.445312 233.429688 C 187.445312 233.429688 174.792969 249.089844 173.273438 249.59375 C 171.757812 250.097656 160.621094 250.097656 159.105469 250.605469 C 157.585938 251.109375 152.523438 255.152344 152.523438 255.152344 L 145.4375 250.097656 L 130.761719 248.582031 C 130.761719 248.582031 119.628906 257.171875 118.109375 256.667969 C 116.589844 256.160156 106.46875 254.140625 104.949219 253.636719 C 103.433594 253.132812 93.816406 239.996094 93.816406 239.996094 L 83.863281 240.683594 L 94.945312 260.355469 L 96.792969 268.964844 " fill-opacity="1" fill-rule="nonzero"/><path fill="#494949" d="M 118.613281 186.945312 L 109.503906 198.058594 L 116.085938 227.871094 L 128.230469 241.003906 L 144.425781 246.5625 C 144.425781 246.5625 162.648438 233.929688 163.152344 232.414062 C 163.660156 230.898438 167.707031 207.152344 167.707031 207.152344 L 160.621094 190.484375 L 138.859375 184.925781 L 118.613281 186.945312 " fill-opacity="1" fill-rule="nonzero"/><path fill="#494949" d="M 171.757812 244.539062 L 165.683594 233.429688 L 173.273438 209.679688 L 179.347656 210.691406 L 185.421875 229.890625 L 171.757812 244.539062 " fill-opacity="1" fill-rule="nonzero"/><path fill="#494949" d="M 118.613281 252.625 L 123.675781 243.023438 L 112.542969 230.394531 L 102.421875 215.746094 L 95.335938 236.457031 L 105.457031 250.097656 L 118.613281 252.625 " fill-opacity="1" fill-rule="nonzero"/><path fill="#000000" d="M 118.109375 256.667969 L 115.269531 278.183594 L 142.980469 279.414062 L 138.183594 269.296875 L 132.449219 266.265625 L 132.113281 262.558594 L 134.136719 258.855469 L 131.773438 254.816406 L 130.761719 248.582031 L 118.109375 256.667969 " fill-opacity="1" fill-rule="nonzero"/><path fill="#000000" d="M 94.945312 260.355469 L 99.71875 253.464844 L 96.007812 246.730469 L 92.636719 244.375 L 93.816406 239.996094 L 86.222656 244.375 L 94.945312 260.355469 " fill-opacity="1" fill-rule="nonzero"/><path fill="#000000" d="M 152.21875 271.421875 L 149.320312 264.582031 L 151.679688 259.867188 L 152.523438 255.152344 L 156.742188 249.425781 L 160.453125 250.773438 L 164.503906 257.84375 L 162.140625 265.929688 L 164.164062 270.644531 L 162.070312 276.339844 L 152.21875 271.421875 " fill-opacity="1" fill-rule="nonzero"/><path fill="#000000" d="M 176.234375 275.109375 L 175.636719 267.613281 L 172.261719 265.253906 L 172.9375 260.203125 L 176.3125 256.835938 L 173.273438 249.59375 L 180.699219 238.984375 L 187.445312 233.429688 L 187.785156 242.691406 L 185.082031 247.742188 L 186.097656 252.792969 L 184.410156 257.84375 L 183.007812 268.347656 L 176.234375 275.109375 " fill-opacity="1" fill-rule="nonzero"/><path fill="#000000" d="M 153.707031 256.835938 C 152.691406 256.5 145.4375 250.097656 145.4375 250.097656 L 137.511719 249.089844 L 142.910156 253.132812 L 144.257812 256.160156 L 148.644531 257.171875 L 151.003906 264.246094 L 153.707031 256.835938 " fill-opacity="1" fill-rule="nonzero"/><path fill="#000000" d="M 116.929688 266.601562 L 114.566406 263.570312 L 114.230469 260.203125 L 109.167969 257.84375 L 104.949219 253.636719 L 113.554688 254.476562 L 119.964844 256.160156 L 116.929688 266.601562 " fill-opacity="1" fill-rule="nonzero"/><path fill="#171717" d="M 116.085938 227.871094 L 114.230469 212.375 L 111.867188 208.335938 L 110.855469 201.933594 L 109.503906 198.058594 L 105.417969 195.195312 L 101.722656 211.179688 L 105.457031 215.746094 L 107.480469 218.773438 L 109.84375 221.46875 L 112.203125 226.523438 L 116.085938 227.871094 " fill-opacity="1" fill-rule="nonzero"/><path fill="#171717" d="M 152.523438 255.152344 L 145.4375 250.097656 L 145.1875 246.816406 L 152.691406 238.648438 L 163.152344 232.414062 L 165.683594 233.429688 L 169.902344 236.625 L 171.757812 244.539062 L 173.949219 250.773438 L 156.066406 250.773438 L 152.523438 255.152344 " fill-opacity="1" fill-rule="nonzero"/><path fill="#171717" d="M 196.304688 229.511719 L 190.484375 227.871094 C 190.484375 227.871094 185.167969 230.394531 185.421875 229.890625 C 185.675781 229.382812 181.625 222.566406 181.625 222.566406 L 181.371094 217.511719 L 179.347656 214.734375 L 179.347656 210.691406 L 180.546875 207.488281 L 196.304688 229.511719 " fill-opacity="1" fill-rule="nonzero"/><path fill="#3a3a3a" d="M 135.570312 187.957031 L 129.75 195.535156 L 131.773438 196.796875 L 127.472656 201.847656 L 128.992188 203.617188 L 117.097656 223.574219 C 117.097656 223.574219 121.90625 221.554688 122.410156 220.542969 C 122.917969 219.53125 136.078125 201.347656 136.078125 201.347656 C 136.078125 201.347656 133.039062 202.355469 133.546875 201.597656 C 134.050781 200.839844 138.101562 196.039062 138.101562 196.039062 L 136.078125 194.523438 L 140.378906 186.691406 L 135.570312 187.957031 " fill-opacity="1" fill-rule="nonzero"/><path fill="#3a3a3a" d="M 162.140625 208.164062 L 155.308594 220.289062 C 155.308594 220.289062 153.789062 218.015625 153.535156 218.773438 C 153.285156 219.53125 146.449219 231.40625 146.449219 231.40625 L 146.957031 235.449219 L 152.523438 227.871094 L 155.308594 229.636719 L 156.320312 224.585938 L 159.863281 223.320312 L 159.609375 218.523438 L 163.40625 213.46875 L 162.140625 208.164062 " fill-opacity="1" fill-rule="nonzero"/><path fill="#3a3a3a" d="M 102.5625 232.597656 C 103.011719 233.484375 103.460938 234.371094 103.90625 235.253906 C 104.902344 232.601562 106.253906 230.082031 107.910156 227.78125 C 107.191406 232.613281 106.277344 237.417969 105.160156 242.175781 C 104.546875 240.917969 104.105469 239.582031 103.855469 238.207031 C 103.058594 239.65625 102.199219 241.144531 101.125 242.394531 C 100 241.066406 100.019531 239.886719 100.300781 238.28125 C 100.46875 237.300781 102.859375 233.1875 102.5625 232.597656 " fill-opacity="1" fill-rule="nonzero"/><path fill="#3a3a3a" d="M 113.429688 239.5 C 113.710938 239.824219 114.355469 239.832031 114.488281 239.425781 C 114.980469 242.710938 115.222656 246.039062 115.210938 249.363281 C 116.808594 246.328125 118.167969 243.167969 119.28125 239.921875 C 118.5625 239.765625 117.84375 239.609375 117.125 239.453125 C 116.976562 238.554688 116.828125 237.648438 116.679688 236.75 C 116.457031 235.382812 114.808594 234.945312 113.929688 234.003906 C 112.832031 234.628906 112.527344 238.460938 113.429688 239.5 " fill-opacity="1" fill-rule="nonzero"/><path fill="#3a3a3a" d="M 112.039062 202.050781 C 112.023438 202.601562 111.929688 203.171875 112.125 203.691406 C 112.292969 204.148438 112.667969 204.496094 112.972656 204.882812 C 113.808594 205.941406 114.132812 207.300781 114.4375 208.613281 C 115.070312 211.371094 115.707031 214.125 116.34375 216.882812 C 117.90625 212.4375 120.457031 208.34375 123.761719 204.980469 C 123.242188 204.316406 122.273438 204.234375 121.558594 203.78125 C 120.367188 203.023438 120.105469 201.308594 120.609375 199.992188 C 121.113281 198.671875 122.191406 197.667969 123.257812 196.746094 C 123.625 196.433594 124.015625 196.085938 124.105469 195.613281 C 124.199219 195.125 123.9375 194.640625 123.683594 194.207031 C 122.636719 192.40625 121.589844 190.609375 120.542969 188.8125 C 120.390625 188.542969 120.191406 188.25 119.886719 188.210938 C 119.625 188.179688 119.382812 188.351562 119.179688 188.523438 C 117.269531 190.132812 115.855469 192.324219 115.1875 194.730469 C 114.964844 195.527344 114.765625 196.433594 114.066406 196.882812 C 113.019531 197.546875 111.457031 197.070312 111.019531 198.394531 C 110.816406 199.019531 112.0625 201.128906 112.039062 202.050781 " fill-opacity="1" fill-rule="nonzero"/><path fill="#3a3a3a" d="M 167.808594 229.414062 C 167.511719 230.0625 167.230469 230.863281 167.652344 231.4375 C 168.152344 232.117188 169.199219 231.929688 170.003906 231.667969 C 169.859375 232.511719 169.71875 233.355469 169.574219 234.199219 C 173.070312 229.304688 176.058594 224.050781 178.480469 218.546875 C 176.6875 221.234375 173.605469 218.453125 171.59375 220.671875 C 169.839844 222.613281 168.894531 227.023438 167.808594 229.414062 " fill-opacity="1" fill-rule="nonzero"/><path fill="#080808" d="M 145.691406 246.308594 L 152.691406 238.648438 L 163.152344 232.414062 L 165.683594 233.429688 L 169.902344 236.625 L 171.757812 244.539062 L 161.886719 245.550781 L 157.839844 243.023438 L 153.285156 245.804688 L 147.210938 247.320312 L 145.691406 246.308594 " fill-opacity="1" fill-rule="nonzero"/><path fill="#080808" d="M 170.074219 205.644531 L 167.707031 207.152344 L 166.441406 213.722656 L 164.417969 217.511719 L 164.671875 223.828125 L 167.203125 228.375 L 173.273438 209.679688 L 170.074219 205.644531 " fill-opacity="1" fill-rule="nonzero"/><path fill="#171717" d="M 94.070312 234.691406 L 90.273438 230.648438 L 87.234375 229.636719 L 87.742188 223.070312 L 92.042969 221.554688 L 93.5625 219.027344 L 102.421875 215.746094 L 95.585938 226.101562 L 96.09375 228.878906 L 94.320312 230.898438 L 94.070312 234.691406 " fill-opacity="1" fill-rule="nonzero"/><path fill="#171717" d="M 132.535156 256.414062 L 132.113281 262.558594 L 132.449219 266.265625 L 138.183594 269.296875 L 140.632812 275.105469 L 141.390625 263.488281 L 138.351562 262.226562 L 137.089844 259.445312 L 132.535156 256.414062 " fill-opacity="1" fill-rule="nonzero"/><path fill="#171717" d="M 164.503906 257.84375 L 161.128906 266.011719 L 164.164062 270.644531 L 163.152344 274.097656 L 169.226562 268.285156 L 164.925781 264.496094 L 164.503906 257.84375 " fill-opacity="1" fill-rule="nonzero"/><path fill="#171717" d="M 115.832031 273.339844 C 116.085938 272.582031 116.929688 266.601562 116.929688 266.601562 L 114.230469 260.203125 L 109.167969 257.84375 L 111.023438 266.519531 L 112.542969 268.035156 L 112.542969 271.066406 L 115.832031 273.339844 " fill-opacity="1" fill-rule="nonzero"/><path fill="#494949" d="M 173.949219 250.773438 L 180.699219 238.984375 L 173.273438 249.339844 Z M 173.949219 250.773438 " fill-opacity="1" fill-rule="nonzero"/><path fill="#494949" d="M 173.273438 249.339844 L 167.203125 250.855469 L 173.949219 250.773438 Z M 173.273438 249.339844 " fill-opacity="1" fill-rule="nonzero"/><path fill="#171717" d="M 173.949219 250.773438 L 160.453125 250.773438 L 166.820312 255.402344 L 170.492188 255.65625 L 172.9375 260.203125 L 176.3125 256.835938 L 173.949219 250.773438 " fill-opacity="1" fill-rule="nonzero"/><path fill="#171717" d="M 187.785156 242.691406 C 188.078125 242.015625 196.175781 229.636719 196.175781 229.636719 L 190.484375 230.269531 L 187.191406 233.550781 L 187.785156 242.691406 " fill-opacity="1" fill-rule="nonzero"/><path fill="#000000" d="M 115.269531 278.183594 L 115.832031 275.738281 L 115.832031 273.339844 L 112.542969 271.066406 L 104.0625 269.421875 L 101.789062 266.265625 L 96.21875 265.886719 L 96.792969 268.964844 L 115.269531 278.183594 " fill-opacity="1" fill-rule="nonzero"/><path fill="#080808" d="M 112.542969 271.066406 L 110.011719 275.613281 L 115.269531 278.183594 L 122.285156 278.644531 L 121.527344 271.570312 L 117.097656 267.023438 L 112.542969 271.066406 " fill-opacity="1" fill-rule="nonzero"/><path fill="#080808" d="M 138.183594 269.296875 L 134.8125 279.277344 C 134.8125 279.277344 140.25 280.160156 140.25 279.527344 C 140.25 278.894531 140.882812 274.980469 140.882812 274.980469 L 138.183594 269.296875 " fill-opacity="1" fill-rule="nonzero"/></svg>