<svg xmlns="http://www.w3.org/2000/svg" xmlns:xlink="http://www.w3.org/1999/xlink" width="500" zoomAndPan="magnify" viewBox="0 0 375 374.999991" height="500" preserveAspectRatio="xMidYMid meet" version="1.0"><defs><clipPath id="3f18d8b653"><path d="M 57.511719 92 L 320.054688 92 L 320.054688 323 L 57.511719 323 Z M 57.511719 92 " clip-rule="nonzero"/></clipPath><clipPath id="7094c51444"><path d="M 68 92 L 310.828125 92 L 310.828125 323 L 68 323 Z M 68 92 " clip-rule="nonzero"/></clipPath><clipPath id="cf3ecb3b05"><path d="M 57.511719 136 L 307 136 L 307 323 L 57.511719 323 Z M 57.511719 136 " clip-rule="nonzero"/></clipPath><clipPath id="da638794f3"><path d="M 57.511719 195.117188 L 209 195.117188 L 209 323 L 57.511719 323 Z M 57.511719 195.117188 " clip-rule="nonzero"/></clipPath><clipPath id="d9dba03bf8"><path d="M 59 119 L 315.652344 119 L 315.652344 323 L 59 323 Z M 59 119 " clip-rule="nonzero"/></clipPath><clipPath id="9dfed1dc42"><path d="M 306.003906 154.027344 L 320.054688 154.027344 L 320.054688 217 L 306.003906 217 Z M 306.003906 154.027344 " clip-rule="nonzero"/></clipPath><clipPath id="d3155e8c9d"><path d="M 310 203.578125 L 320.054688 203.578125 L 320.054688 250.714844 L 310 250.714844 Z M 310 203.578125 " clip-rule="nonzero"/></clipPath><clipPath id="48c69096b3"><path d="M 74 146.773438 L 320.054688 146.773438 L 320.054688 267 L 74 267 Z M 74 146.773438 " clip-rule="nonzero"/></clipPath><clipPath id="ab182e2a74"><path d="M 74 188 L 320.054688 188 L 320.054688 272 L 74 272 Z M 74 188 " clip-rule="nonzero"/></clipPath><clipPath id="72738b75cf"><path d="M 74.398438 147 L 320.054688 147 L 320.054688 323 L 74.398438 323 Z M 74.398438 147 " clip-rule="nonzero"/></clipPath></defs><g clip-path="url(#3f18d8b653)"><path fill="#ff0e16" d="M 178.679688 322.585938 C 108.253906 317.667969 69.070312 273.953125 59.769531 225.957031 C 52.140625 187.0625 64.105469 145.34375 94.773438 119.0625 C 96.183594 117.859375 97.597656 116.707031 99.058594 115.609375 C 100.363281 114.613281 101.722656 113.617188 103.082031 112.679688 C 105.640625 110.898438 108.253906 109.222656 111.019531 107.707031 C 112.015625 107.125 113.007812 106.554688 114.050781 106.03125 C 114.417969 105.820312 114.785156 105.664062 115.148438 105.457031 C 122.410156 101.683594 130.40625 98.648438 139.074219 96.394531 C 139.390625 96.292969 139.753906 96.238281 140.070312 96.1875 C 142.472656 95.558594 144.929688 95.035156 147.433594 94.617188 C 148.902344 94.304688 150.359375 94.039062 151.878906 93.832031 C 152.976562 93.675781 154.074219 93.519531 155.222656 93.417969 C 163.476562 92.367188 172.304688 92 181.660156 92.472656 C 194.300781 93.046875 205.953125 94.511719 216.765625 96.710938 C 217.8125 96.917969 218.808594 97.183594 219.847656 97.390625 C 220.007812 97.445312 220.214844 97.445312 220.371094 97.496094 C 221.625 97.761719 222.828125 98.019531 224.035156 98.335938 C 224.34375 98.386719 224.65625 98.492188 224.972656 98.59375 C 230.617188 99.902344 235.945312 101.527344 241.011719 103.359375 C 241.167969 103.410156 241.378906 103.464844 241.535156 103.570312 C 244.5625 104.5625 247.4375 105.714844 250.253906 106.972656 C 250.675781 107.125 251.042969 107.285156 251.40625 107.441406 C 252.453125 107.914062 253.496094 108.382812 254.542969 108.910156 C 371.988281 163.402344 322.304688 332.796875 178.679688 322.585938 " fill-opacity="1" fill-rule="nonzero"/></g><path fill="#ebbaba" d="M 292.78125 136.058594 C 287.34375 130.199219 281.0625 124.746094 273.898438 119.816406 C 273.949219 119.875 273.988281 119.929688 274.03125 119.992188 C 268.136719 115.921875 261.644531 112.207031 254.542969 108.910156 C 253.496094 108.382812 252.453125 107.914062 251.40625 107.441406 C 251.042969 107.285156 250.675781 107.125 250.253906 106.972656 C 249.90625 106.816406 249.558594 106.664062 249.210938 106.511719 C 249.222656 106.492188 249.238281 106.476562 249.25 106.460938 C 267.375 114.035156 281.796875 124.21875 292.78125 136.058594 M 97.210938 117.046875 C 101.449219 113.617188 106.039062 110.476562 110.953125 107.667969 C 110.96875 107.6875 110.976562 107.707031 110.992188 107.722656 C 108.230469 109.238281 105.628906 110.902344 103.082031 112.679688 C 101.722656 113.617188 100.363281 114.613281 99.058594 115.609375 C 98.433594 116.078125 97.816406 116.554688 97.210938 117.046875 M 120.863281 102.703125 C 120.855469 102.699219 120.84375 102.695312 120.832031 102.695312 C 125.511719 100.625 130.445312 98.832031 135.632812 97.34375 C 130.449219 98.847656 125.523438 100.636719 120.863281 102.703125 M 235.257812 101.414062 C 231.945312 100.367188 228.519531 99.417969 224.972656 98.59375 C 224.65625 98.492188 224.34375 98.386719 224.035156 98.335938 C 222.828125 98.019531 221.625 97.761719 220.371094 97.496094 C 220.214844 97.445312 220.007812 97.445312 219.847656 97.390625 C 218.808594 97.183594 217.8125 96.917969 216.765625 96.710938 C 215.429688 96.4375 214.082031 96.179688 212.71875 95.929688 C 212.722656 95.914062 212.734375 95.894531 212.738281 95.875 C 220.746094 97.332031 228.265625 99.1875 235.320312 101.390625 C 235.300781 101.398438 235.28125 101.40625 235.257812 101.414062 M 139.730469 96.246094 C 142.78125 95.484375 145.914062 94.824219 149.125 94.277344 C 149.125 94.277344 149.125 94.277344 149.132812 94.28125 C 148.5625 94.382812 148 94.496094 147.433594 94.617188 C 144.929688 95.035156 142.472656 95.558594 140.070312 96.1875 C 139.960938 96.207031 139.847656 96.226562 139.730469 96.246094 M 195.53125 93.492188 C 194.332031 93.371094 193.128906 93.257812 191.90625 93.148438 C 191.90625 93.136719 191.902344 93.125 191.902344 93.109375 C 193.132812 93.21875 194.355469 93.335938 195.566406 93.460938 C 195.558594 93.46875 195.542969 93.484375 195.53125 93.492188 M 157.476562 93.148438 C 157.460938 93.132812 157.453125 93.125 157.4375 93.113281 C 162.128906 92.601562 166.984375 92.3125 171.992188 92.253906 C 171.992188 92.261719 171.992188 92.269531 171.992188 92.277344 C 166.984375 92.332031 162.140625 92.632812 157.476562 93.148438 " fill-opacity="1" fill-rule="nonzero"/><g clip-path="url(#7094c51444)"><path fill="#ea0a10" d="M 208.460938 322.082031 C 237.644531 318.84375 261.796875 307.578125 280.078125 291.660156 C 293.609375 279.875 303.929688 265.53125 310.691406 250.003906 C 294.808594 286.523438 259.253906 316.464844 208.460938 322.082031 M 162.714844 320.730469 C 132.921875 315.832031 109.566406 303.472656 92.515625 286.894531 C 109.570312 303.457031 132.917969 315.808594 162.714844 320.730469 M 176.246094 293.777344 C 172.054688 293.777344 167.757812 293.628906 163.355469 293.316406 C 111.855469 289.644531 82.207031 267.894531 68 237.78125 C 88.238281 261.753906 127.347656 281.738281 167.332031 281.738281 C 185.824219 281.738281 204.507812 277.46875 221.597656 267.339844 C 285.726562 229.34375 279.414062 146.914062 252.734375 146.914062 C 249.585938 146.914062 246.15625 148.0625 242.527344 150.570312 C 233.542969 156.757812 225.1875 158.945312 217.648438 158.945312 C 200.035156 158.949219 186.871094 147.019531 180.460938 146.363281 C 179.84375 146.300781 179.230469 146.277344 178.628906 146.277344 C 169.625 146.277344 162.09375 152.488281 153.40625 155.054688 C 150.816406 155.824219 147.75 156.363281 144.542969 156.363281 C 136.527344 156.363281 127.605469 153.03125 122.941406 141.683594 C 123.3125 142.105469 123.71875 142.542969 124.164062 143 C 124.167969 143 124.171875 143.007812 124.175781 143.011719 C 125.632812 144.5 127.492188 146.128906 129.945312 147.636719 C 130.023438 147.683594 130.101562 147.726562 130.179688 147.773438 C 131.363281 148.832031 137.679688 153.988281 146.242188 153.988281 C 149.488281 153.988281 153.054688 153.246094 156.789062 151.257812 C 158.617188 150.261719 160.339844 149.214844 162.015625 148.21875 C 162.167969 148.113281 162.273438 148.0625 162.433594 147.960938 C 166.089844 145.863281 169.121094 143.5625 171.523438 141.363281 C 177.21875 136.757812 180.457031 133.09375 180.457031 133.09375 C 180.457031 133.09375 196.128906 153.195312 209.296875 153.976562 C 209.988281 154.015625 210.675781 154.035156 211.359375 154.035156 C 220.929688 154.035156 230.105469 150.484375 233.804688 148.828125 C 236.890625 147.738281 238.054688 146.21875 238.625 143.859375 C 238.988281 142.371094 239.113281 140.550781 239.328125 138.289062 C 239.328125 138.289062 237.546875 138.636719 234.699219 138.636719 C 230.582031 138.636719 224.230469 137.914062 217.832031 134.351562 C 216.160156 133.421875 213.050781 130.898438 209.839844 128.121094 C 220.609375 126.703125 244.09375 124.703125 254.542969 108.910156 C 253.496094 108.382812 252.453125 107.914062 251.40625 107.441406 C 251.042969 107.285156 250.675781 107.125 250.253906 106.972656 C 249.90625 106.816406 249.558594 106.664062 249.210938 106.511719 C 249.558594 106.664062 249.90625 106.816406 250.253906 106.972656 C 250.675781 107.125 251.042969 107.285156 251.40625 107.441406 C 252.453125 107.914062 253.496094 108.382812 254.542969 108.910156 C 261.644531 112.207031 268.136719 115.921875 274.03125 119.992188 C 276.402344 123.117188 278.589844 126.332031 280.582031 129.605469 C 273.476562 122.726562 265.8125 117.40625 259.570312 117.40625 C 257.894531 117.40625 256.320312 117.785156 254.886719 118.628906 C 245.878906 123.890625 266.710938 129.417969 280.238281 141.539062 C 284.230469 145.117188 287.9375 148.988281 291.167969 152.5625 C 312.363281 217.21875 270.398438 293.777344 176.246094 293.777344 M 263.847656 237.792969 C 259.765625 237.792969 253.722656 245.863281 246.363281 253.222656 C 237.988281 261.605469 228.066406 269.171875 233.675781 273.613281 C 234.488281 274.261719 235.558594 274.558594 236.816406 274.558594 C 249.140625 274.558594 279.539062 245.988281 265.1875 238.132812 C 264.769531 237.898438 264.320312 237.792969 263.847656 237.792969 M 280.238281 214.308594 C 279.628906 214.308594 278.894531 214.535156 278.003906 215.03125 C 273.070312 217.785156 269.179688 233.414062 273.371094 234.050781 C 273.5 234.070312 273.625 234.082031 273.753906 234.082031 C 276.683594 234.082031 279.722656 229.136719 281.316406 224.195312 C 282.914062 219.25 283.070312 214.308594 280.238281 214.308594 M 128.417969 139.121094 C 125.777344 139.121094 123.441406 138.808594 121.816406 138.511719 C 121.414062 137.203125 121.070312 135.808594 120.78125 134.316406 C 118.125 120.835938 108.777344 118.527344 101.628906 118.527344 C 98.839844 118.527344 96.386719 118.882812 94.796875 119.058594 C 95.589844 118.375 96.390625 117.707031 97.210938 117.046875 C 97.816406 116.554688 98.433594 116.078125 99.058594 115.609375 C 100.363281 114.613281 101.722656 113.617188 103.082031 112.679688 C 105.628906 110.902344 108.230469 109.238281 110.992188 107.722656 C 108.230469 109.238281 105.628906 110.902344 103.082031 112.679688 C 111.492188 114.140625 118.28125 119.0625 120.792969 122.101562 C 123.515625 125.414062 132.324219 128.597656 141.8125 128.597656 C 144.425781 128.597656 147.085938 128.355469 149.683594 127.8125 C 148.050781 129.488281 146.128906 131.425781 143.867188 133.648438 C 139.410156 138.019531 133.375 139.121094 128.417969 139.121094 M 155.15625 108.269531 C 148.769531 108.121094 140.226562 107.292969 134.769531 106.921875 C 132.015625 106.734375 126.769531 105.210938 120.863281 102.703125 C 125.523438 100.636719 130.449219 98.847656 135.632812 97.34375 C 136.980469 96.957031 138.34375 96.589844 139.730469 96.246094 C 139.847656 96.226562 139.960938 96.207031 140.070312 96.1875 C 142.472656 95.558594 144.929688 95.035156 147.433594 94.617188 C 148 94.496094 148.5625 94.382812 149.132812 94.28125 C 148.5625 94.382812 148 94.496094 147.433594 94.617188 C 144.929688 95.035156 142.472656 95.558594 140.070312 96.1875 C 143.832031 100.0625 148.847656 104.511719 154.648438 107.757812 C 154.8125 107.929688 154.984375 108.097656 155.15625 108.269531 M 218.5 104.539062 C 220.847656 102.824219 223.15625 100.820312 224.972656 98.59375 C 224.65625 98.492188 224.34375 98.386719 224.035156 98.335938 C 222.828125 98.019531 221.625 97.761719 220.371094 97.496094 C 220.214844 97.445312 220.007812 97.445312 219.847656 97.390625 C 218.808594 97.183594 217.8125 96.917969 216.765625 96.710938 L 210.769531 100.183594 C 211.460938 98.832031 212.125 97.402344 212.71875 95.929688 C 214.082031 96.179688 215.429688 96.4375 216.765625 96.710938 C 217.8125 96.917969 218.808594 97.183594 219.847656 97.390625 C 220.007812 97.445312 220.214844 97.445312 220.371094 97.496094 C 221.625 97.761719 222.828125 98.019531 224.035156 98.335938 C 224.34375 98.386719 224.65625 98.492188 224.972656 98.59375 C 228.519531 99.417969 231.945312 100.367188 235.257812 101.414062 C 235.046875 101.476562 234.847656 101.527344 234.667969 101.566406 C 233.710938 101.753906 231.84375 102.101562 229.484375 102.542969 C 229.707031 102.492188 229.929688 102.441406 230.144531 102.402344 C 228.410156 102.730469 226.367188 103.109375 224.203125 103.503906 C 222.355469 103.84375 220.414062 104.195312 218.5 104.539062 M 170.5 100.945312 C 169.328125 100.46875 168.117188 99.914062 166.886719 99.289062 C 164.691406 98.140625 162.417969 96.753906 160.179688 95.214844 C 159.273438 94.5625 158.367188 93.875 157.476562 93.148438 C 162.140625 92.632812 166.984375 92.332031 171.992188 92.277344 C 171.863281 95.488281 171.269531 98.417969 170.5 100.945312 M 192.496094 95.726562 C 192.316406 94.878906 192.117188 94.019531 191.90625 93.148438 C 193.128906 93.257812 194.332031 93.371094 195.53125 93.492188 C 194.550781 94.308594 193.53125 95.046875 192.496094 95.726562 " fill-opacity="1" fill-rule="nonzero"/></g><g clip-path="url(#cf3ecb3b05)"><path fill="#db8585" d="M 190.914062 323.035156 C 186.914062 323.035156 182.839844 322.894531 178.679688 322.597656 C 175.082031 322.339844 171.550781 321.988281 168.117188 321.535156 C 171.554688 321.980469 175.074219 322.335938 178.679688 322.585938 C 182.859375 322.882812 186.964844 323.03125 190.984375 323.03125 C 195.394531 323.03125 199.714844 322.855469 203.921875 322.515625 C 199.6875 322.859375 195.351562 323.035156 190.914062 323.035156 M 81.792969 274.902344 C 63.894531 251.792969 55.984375 223.175781 57.75 195.515625 C 57.757812 195.546875 57.757812 195.589844 57.761719 195.621094 C 57.140625 205.710938 57.804688 215.929688 59.769531 225.957031 C 59.765625 225.949219 59.757812 225.941406 59.753906 225.933594 C 60.433594 229.40625 61.261719 232.851562 62.25 236.269531 C 65.035156 245.925781 69.078125 255.300781 74.390625 264.097656 C 74.375 264.078125 74.355469 264.054688 74.34375 264.03125 C 74.890625 264.933594 75.445312 265.828125 76.019531 266.71875 C 77.8125 269.511719 79.734375 272.246094 81.792969 274.902344 M 306.730469 154.984375 C 305.136719 152.203125 303.394531 149.46875 301.507812 146.800781 C 301.507812 146.808594 301.511719 146.816406 301.515625 146.820312 C 298.898438 143.109375 295.980469 139.507812 292.78125 136.058594 C 298.285156 141.988281 302.925781 148.339844 306.730469 154.984375 " fill-opacity="1" fill-rule="nonzero"/></g><g clip-path="url(#da638794f3)"><path fill="#db070b" d="M 190.984375 323.03125 C 186.964844 323.03125 182.859375 322.882812 178.679688 322.585938 C 175.074219 322.335938 171.554688 321.980469 168.117188 321.535156 C 166.292969 321.292969 164.496094 321.023438 162.714844 320.730469 C 167.851562 321.574219 173.171875 322.199219 178.691406 322.585938 C 182.875 322.882812 186.972656 323.03125 190.992188 323.03125 C 196.996094 323.03125 202.824219 322.703125 208.460938 322.082031 C 206.964844 322.246094 205.445312 322.394531 203.921875 322.515625 C 199.714844 322.855469 195.394531 323.03125 190.984375 323.03125 M 92.515625 286.894531 C 88.609375 283.109375 85.035156 279.089844 81.792969 274.902344 C 79.734375 272.246094 77.8125 269.511719 76.019531 266.71875 C 77.140625 268.464844 78.320312 270.1875 79.550781 271.882812 C 83.367188 277.179688 87.6875 282.207031 92.515625 286.894531 M 74.464844 264.207031 C 74.441406 264.171875 74.414062 264.136719 74.390625 264.097656 C 69.078125 255.300781 65.035156 245.925781 62.25 236.269531 C 65.054688 245.96875 69.121094 255.382812 74.464844 264.207031 M 68 237.78125 C 64.746094 233.921875 61.972656 229.953125 59.769531 225.957031 C 57.804688 215.929688 57.140625 205.710938 57.761719 195.621094 C 58.71875 210.6875 61.96875 224.988281 68 237.78125 " fill-opacity="1" fill-rule="nonzero"/></g><path fill="#d06161" d="M 62.25 236.269531 C 61.261719 232.851562 60.433594 229.40625 59.753906 225.933594 C 59.757812 225.941406 59.765625 225.949219 59.769531 225.957031 C 60.4375 229.421875 61.265625 232.863281 62.25 236.269531 M 301.75 147.214844 C 294.671875 137.121094 285.472656 127.890625 274.03125 119.992188 C 273.988281 119.929688 273.949219 119.875 273.898438 119.816406 C 281.0625 124.746094 287.34375 130.199219 292.78125 136.058594 C 295.980469 139.507812 298.898438 143.109375 301.515625 146.820312 C 301.597656 146.953125 301.667969 147.082031 301.75 147.214844 " fill-opacity="1" fill-rule="nonzero"/><g clip-path="url(#d9dba03bf8)"><path fill="#d00508" d="M 190.992188 323.03125 C 186.972656 323.03125 182.875 322.882812 178.691406 322.585938 C 173.171875 322.199219 167.851562 321.574219 162.714844 320.730469 C 132.917969 315.808594 109.570312 303.457031 92.515625 286.894531 C 87.6875 282.207031 83.367188 277.179688 79.550781 271.882812 C 99.21875 299.046875 132.128906 319.28125 178.714844 322.585938 C 182.875 322.878906 186.945312 323.019531 190.941406 323.019531 C 228.070312 323.019531 258.25 310.660156 280.078125 291.660156 C 261.796875 307.578125 237.644531 318.84375 208.460938 322.082031 C 202.824219 322.703125 196.996094 323.03125 190.992188 323.03125 M 186.425781 316.101562 C 182.421875 316.101562 178.332031 315.957031 174.171875 315.660156 C 127.15625 312.304688 94.085938 291.742188 74.464844 264.207031 C 69.121094 255.382812 65.054688 245.96875 62.25 236.269531 C 61.265625 232.863281 60.4375 229.421875 59.769531 225.957031 C 61.972656 229.953125 64.746094 233.921875 68 237.78125 C 82.207031 267.894531 111.855469 289.644531 163.355469 293.316406 C 167.757812 293.628906 172.054688 293.777344 176.246094 293.777344 C 270.398438 293.777344 312.363281 217.21875 291.167969 152.5625 C 297.675781 159.757812 302.261719 165.757812 303.394531 165.757812 C 303.582031 165.757812 303.671875 165.585938 303.660156 165.230469 C 303.546875 161.964844 297.398438 148.914062 289.875 139.75 C 287.023438 136.285156 283.863281 132.777344 280.582031 129.605469 C 278.589844 126.332031 276.402344 123.117188 274.03125 119.992188 C 285.472656 127.890625 294.671875 137.121094 301.75 147.214844 C 341.726562 215.589844 292.273438 316.101562 186.425781 316.101562 M 119.460938 292.554688 C 115.945312 292.554688 121.242188 297.757812 132.808594 302.960938 C 144.371094 308.164062 162.203125 313.367188 183.75 313.367188 C 200.769531 313.367188 220.101562 310.121094 240.5 301.066406 C 312.628906 269.054688 311.140625 200.816406 306.542969 200.816406 C 306 200.816406 305.414062 201.769531 304.902344 203.84375 C 299.183594 226.9375 284.863281 271.425781 236.488281 291.964844 C 214.636719 301.238281 195.121094 304.644531 177.855469 304.644531 C 156.886719 304.644531 139.246094 299.625 124.773438 293.984375 C 122.226562 292.988281 120.476562 292.554688 119.460938 292.554688 " fill-opacity="1" fill-rule="nonzero"/></g><g clip-path="url(#9dfed1dc42)"><path fill="#ab2121" d="M 319.46875 216.878906 C 319.921875 212.539062 320.109375 208.179688 320.035156 203.832031 C 319.746094 186.953125 315.433594 170.199219 306.730469 154.984375 C 317.683594 174.113281 321.6875 195.703125 319.46875 216.878906 " fill-opacity="1" fill-rule="nonzero"/></g><g clip-path="url(#d3155e8c9d)"><path fill="#ab0203" d="M 310.691406 250.003906 C 313.035156 244.628906 314.945312 239.105469 316.417969 233.5 C 318.976562 223.773438 320.203125 213.78125 320.035156 203.832031 C 320.109375 208.179688 319.921875 212.539062 319.46875 216.878906 C 318.28125 228.183594 315.320312 239.371094 310.691406 250.003906 " fill-opacity="1" fill-rule="nonzero"/></g><path fill="#a90102" d="M 280.078125 291.660156 C 298.300781 275.785156 310.691406 255.296875 316.417969 233.5 C 314.945312 239.105469 313.035156 244.628906 310.691406 250.003906 C 303.929688 265.53125 293.609375 279.875 280.078125 291.660156 " fill-opacity="1" fill-rule="nonzero"/><g clip-path="url(#48c69096b3)"><path fill="#a61111" d="M 76.019531 266.71875 C 75.445312 265.828125 74.890625 264.933594 74.34375 264.03125 C 74.355469 264.054688 74.375 264.078125 74.390625 264.097656 C 74.917969 264.976562 75.464844 265.847656 76.019531 266.71875 M 320.035156 203.832031 C 319.945312 198.734375 319.488281 193.640625 318.648438 188.605469 C 316.222656 173.929688 310.59375 159.671875 301.515625 146.820312 C 301.511719 146.816406 301.507812 146.808594 301.507812 146.800781 C 303.394531 149.46875 305.136719 152.203125 306.730469 154.984375 C 315.433594 170.199219 319.746094 186.953125 320.035156 203.832031 " fill-opacity="1" fill-rule="nonzero"/></g><g clip-path="url(#ab182e2a74)"><path fill="#a70101" d="M 79.550781 271.882812 C 78.320312 270.1875 77.140625 268.464844 76.019531 266.71875 C 75.464844 265.847656 74.917969 264.976562 74.390625 264.097656 C 74.414062 264.136719 74.441406 264.171875 74.464844 264.207031 C 76.046875 266.816406 77.746094 269.378906 79.550781 271.882812 M 316.417969 233.5 C 320.285156 218.78125 321.113281 203.484375 318.648438 188.605469 C 319.488281 193.640625 319.945312 198.734375 320.035156 203.832031 C 320.203125 213.78125 318.976562 223.773438 316.417969 233.5 " fill-opacity="1" fill-rule="nonzero"/></g><path fill="#a60d0d" d="M 318.648438 188.605469 C 316.238281 174.070312 310.6875 159.960938 301.75 147.214844 C 301.667969 147.082031 301.597656 146.953125 301.515625 146.820312 C 310.59375 159.671875 316.222656 173.929688 318.648438 188.605469 " fill-opacity="1" fill-rule="nonzero"/><g clip-path="url(#72738b75cf)"><path fill="#a50101" d="M 190.941406 323.019531 C 186.945312 323.019531 182.875 322.878906 178.714844 322.585938 C 132.128906 319.28125 99.21875 299.046875 79.550781 271.882812 C 77.746094 269.378906 76.046875 266.816406 74.464844 264.207031 C 94.085938 291.742188 127.15625 312.304688 174.171875 315.660156 C 178.332031 315.957031 182.421875 316.101562 186.425781 316.101562 C 292.273438 316.101562 341.726562 215.589844 301.75 147.214844 C 310.6875 159.960938 316.238281 174.070312 318.648438 188.605469 C 321.113281 203.484375 320.285156 218.78125 316.417969 233.5 C 310.691406 255.296875 298.300781 275.785156 280.078125 291.660156 C 258.25 310.660156 228.070312 323.019531 190.941406 323.019531 " fill-opacity="1" fill-rule="nonzero"/></g><path fill="#ef4438" d="M 236.816406 274.558594 C 235.558594 274.558594 234.488281 274.261719 233.675781 273.613281 C 228.066406 269.171875 237.988281 261.605469 246.363281 253.222656 C 253.722656 245.863281 259.765625 237.792969 263.847656 237.792969 C 264.320312 237.792969 264.769531 237.898438 265.1875 238.132812 C 279.539062 245.988281 249.140625 274.558594 236.816406 274.558594 " fill-opacity="1" fill-rule="nonzero"/><path fill="#ef4438" d="M 273.753906 234.082031 C 273.625 234.082031 273.5 234.070312 273.371094 234.050781 C 269.179688 233.414062 273.070312 217.785156 278.003906 215.03125 C 278.894531 214.535156 279.628906 214.308594 280.238281 214.308594 C 283.070312 214.308594 282.914062 219.25 281.316406 224.195312 C 279.722656 229.136719 276.683594 234.082031 273.753906 234.082031 " fill-opacity="1" fill-rule="nonzero"/><path fill="#db4032" d="M 183.75 313.367188 C 162.203125 313.367188 144.371094 308.164062 132.808594 302.960938 C 121.242188 297.757812 115.945312 292.554688 119.460938 292.554688 C 120.476562 292.554688 122.226562 292.988281 124.773438 293.984375 C 139.246094 299.625 156.886719 304.644531 177.855469 304.644531 C 195.121094 304.644531 214.636719 301.238281 236.488281 291.964844 C 284.863281 271.425781 299.183594 226.9375 304.902344 203.84375 C 305.414062 201.769531 306 200.816406 306.542969 200.816406 C 311.140625 200.816406 312.628906 269.054688 240.5 301.066406 C 220.101562 310.121094 200.769531 313.367188 183.75 313.367188 " fill-opacity="1" fill-rule="nonzero"/><path fill="#ef4438" d="M 291.167969 152.5625 C 287.9375 148.988281 284.230469 145.117188 280.238281 141.539062 C 266.710938 129.417969 245.878906 123.890625 254.886719 118.628906 C 256.320312 117.785156 257.894531 117.40625 259.570312 117.40625 C 265.8125 117.40625 273.476562 122.726562 280.582031 129.605469 C 285.0625 136.972656 288.585938 144.679688 291.167969 152.5625 " fill-opacity="1" fill-rule="nonzero"/><path fill="#db4032" d="M 303.394531 165.757812 C 302.261719 165.757812 297.675781 159.757812 291.167969 152.5625 C 288.585938 144.679688 285.0625 136.972656 280.582031 129.605469 C 283.863281 132.777344 287.023438 136.285156 289.875 139.75 C 297.398438 148.914062 303.546875 161.964844 303.660156 165.230469 C 303.671875 165.585938 303.582031 165.757812 303.394531 165.757812 " fill-opacity="1" fill-rule="nonzero"/><path fill="#ff2c2a" d="M 165.824219 259.171875 C 157.230469 259.171875 148.046875 258.238281 138.289062 256.175781 C 80.949219 244.046875 54.597656 170.625 83.207031 146.566406 C 87.210938 143.195312 90.546875 141.8125 93.765625 141.8125 C 107.25 141.8125 118.554688 166.207031 167.53125 171.128906 C 172.457031 171.625 177.175781 171.824219 181.699219 171.824219 C 191.117188 171.824219 199.667969 170.960938 207.40625 170.097656 C 215.140625 169.230469 222.058594 168.367188 228.203125 168.367188 C 238.820312 168.367188 247.113281 170.957031 253.285156 180.585938 C 265.558594 199.757812 234.386719 259.171875 165.824219 259.171875 M 95.246094 151.363281 C 92.6875 151.363281 90.230469 152.242188 87.761719 154.316406 C 67.363281 171.476562 99.046875 225.957031 140.742188 233.582031 C 147.167969 234.753906 153.417969 235.289062 159.460938 235.289062 C 212.460938 235.289062 248.929688 194.046875 238.667969 181.257812 C 235.402344 177.1875 227.582031 176.027344 217.480469 176.027344 C 210.777344 176.027344 203.074219 176.535156 195.027344 177.046875 C 186.976562 177.554688 178.585938 178.066406 170.507812 178.066406 C 165.175781 178.066406 159.972656 177.84375 155.105469 177.25 C 123.273438 173.367188 108.027344 151.363281 95.246094 151.363281 " fill-opacity="1" fill-rule="nonzero"/><path fill="#ff463b" d="M 159.460938 235.289062 C 153.417969 235.289062 147.167969 234.753906 140.742188 233.582031 C 99.046875 225.957031 67.363281 171.476562 87.761719 154.316406 C 90.230469 152.242188 92.6875 151.363281 95.246094 151.363281 C 108.027344 151.363281 123.273438 173.367188 155.105469 177.25 C 159.972656 177.84375 165.175781 178.066406 170.507812 178.066406 C 178.585938 178.066406 186.976562 177.554688 195.027344 177.046875 C 203.074219 176.535156 210.777344 176.027344 217.480469 176.027344 C 227.582031 176.027344 235.402344 177.1875 238.667969 181.257812 C 248.929688 194.046875 212.460938 235.289062 159.460938 235.289062 M 119.914062 176.078125 C 117.019531 176.078125 114.746094 177.207031 113.234375 180.242188 C 109.101562 188.527344 123.113281 216.578125 150.058594 219.753906 C 152.082031 219.988281 154.089844 220.101562 156.066406 220.101562 C 180.441406 220.101562 200.667969 202.996094 197.5625 192.730469 C 195.71875 186.632812 186.855469 186.175781 175.738281 186.175781 C 174.761719 186.175781 173.765625 186.179688 172.757812 186.183594 C 171.75 186.183594 170.726562 186.191406 169.691406 186.191406 C 161.339844 186.191406 152.273438 185.964844 144.203125 183.648438 C 134.335938 180.816406 125.832031 176.078125 119.914062 176.078125 M 96.851562 156.585938 C 89.171875 156.585938 82.800781 181.84375 95.222656 183.367188 C 95.488281 183.398438 95.757812 183.414062 96.019531 183.414062 C 105.789062 183.417969 109.558594 160.847656 98.042969 156.792969 C 97.644531 156.652344 97.246094 156.585938 96.851562 156.585938 " fill-opacity="1" fill-rule="nonzero"/><path fill="#fe7158" d="M 96.019531 183.414062 C 95.757812 183.414062 95.488281 183.398438 95.222656 183.367188 C 82.800781 181.84375 89.171875 156.585938 96.851562 156.585938 C 97.246094 156.585938 97.644531 156.652344 98.042969 156.792969 C 109.558594 160.847656 105.789062 183.417969 96.019531 183.414062 M 96.859375 160.488281 C 92.347656 160.488281 89.136719 173.15625 96.277344 174.035156 C 96.410156 174.046875 96.546875 174.058594 96.675781 174.058594 C 101.605469 174.058594 103.503906 162.675781 97.699219 160.636719 C 97.417969 160.535156 97.132812 160.488281 96.859375 160.488281 " fill-opacity="1" fill-rule="nonzero"/><path fill="#fea57b" d="M 96.675781 174.058594 C 96.546875 174.058594 96.410156 174.046875 96.277344 174.035156 C 89.136719 173.15625 92.347656 160.488281 96.859375 160.488281 C 97.132812 160.488281 97.417969 160.535156 97.699219 160.636719 C 103.503906 162.675781 101.605469 174.058594 96.675781 174.058594 " fill-opacity="1" fill-rule="nonzero"/><path fill="#fe7158" d="M 156.066406 220.101562 C 154.089844 220.101562 152.082031 219.988281 150.058594 219.753906 C 123.113281 216.578125 109.101562 188.527344 113.234375 180.242188 C 114.746094 177.207031 117.019531 176.078125 119.914062 176.078125 C 125.832031 176.078125 134.335938 180.816406 144.203125 183.648438 C 152.273438 185.964844 161.339844 186.191406 169.691406 186.191406 C 170.726562 186.191406 171.75 186.183594 172.757812 186.183594 C 173.765625 186.179688 174.761719 186.175781 175.738281 186.175781 C 186.855469 186.175781 195.71875 186.632812 197.5625 192.730469 C 200.667969 202.996094 180.441406 220.101562 156.066406 220.101562 M 132.390625 186.890625 C 131.800781 186.890625 131.398438 187.039062 131.226562 187.390625 C 129.386719 191.070312 135.613281 203.542969 147.589844 204.957031 C 148.492188 205.058594 149.382812 205.113281 150.261719 205.113281 C 161.101562 205.113281 170.089844 197.507812 168.710938 192.941406 C 168.398438 191.917969 166.734375 191.675781 164.28125 191.675781 C 163.214844 191.675781 162 191.71875 160.683594 191.765625 C 159.367188 191.808594 157.941406 191.855469 156.464844 191.855469 C 154.34375 191.855469 152.105469 191.765625 149.878906 191.449219 C 142.484375 190.402344 135.234375 186.890625 132.390625 186.890625 " fill-opacity="1" fill-rule="nonzero"/><path fill="#fea57b" d="M 150.261719 205.113281 C 149.382812 205.113281 148.492188 205.058594 147.589844 204.957031 C 135.613281 203.542969 129.386719 191.070312 131.226562 187.390625 C 131.398438 187.039062 131.800781 186.890625 132.390625 186.890625 C 135.234375 186.890625 142.484375 190.402344 149.878906 191.449219 C 152.105469 191.765625 154.34375 191.855469 156.464844 191.855469 C 157.941406 191.855469 159.367188 191.808594 160.683594 191.765625 C 162 191.71875 163.214844 191.675781 164.28125 191.675781 C 166.734375 191.675781 168.398438 191.917969 168.710938 192.941406 C 170.089844 197.507812 161.101562 205.113281 150.261719 205.113281 " fill-opacity="1" fill-rule="nonzero"/><path fill="#d00508" d="M 211.359375 154.035156 C 210.675781 154.035156 209.988281 154.015625 209.296875 153.976562 C 196.128906 153.195312 180.457031 133.09375 180.457031 133.09375 C 180.457031 133.09375 177.21875 136.757812 171.523438 141.363281 C 178.054688 135.5 180.457031 130.160156 180.457031 130.160156 C 180.457031 130.160156 196.128906 151.152344 209.351562 151.992188 C 210.300781 152.042969 211.253906 152.066406 212.203125 152.066406 C 218.066406 152.066406 223.722656 151.121094 227.996094 150.148438 C 229.042969 149.984375 229.992188 149.8125 230.808594 149.644531 C 231.972656 149.398438 232.960938 149.128906 233.804688 148.828125 C 230.105469 150.484375 220.929688 154.035156 211.359375 154.035156 M 146.242188 153.988281 C 137.679688 153.988281 131.363281 148.832031 130.179688 147.773438 C 131.179688 148.359375 132.324219 148.84375 133.566406 149.234375 C 136.796875 150.476562 141.921875 151.996094 147.683594 151.996094 C 151.933594 151.996094 156.527344 151.167969 160.96875 148.800781 C 161.335938 148.585938 161.644531 148.429688 162.015625 148.21875 C 160.339844 149.214844 158.617188 150.261719 156.789062 151.257812 C 153.054688 153.246094 149.488281 153.988281 146.242188 153.988281 M 141.8125 128.597656 C 132.324219 128.597656 123.515625 125.414062 120.792969 122.101562 C 118.28125 119.0625 111.492188 114.140625 103.082031 112.679688 C 105.628906 110.902344 108.230469 109.238281 110.992188 107.722656 C 111.027344 107.773438 111.058594 107.820312 111.097656 107.867188 C 114.585938 115.664062 123.058594 125.109375 138.730469 125.109375 C 143.453125 125.109375 148.828125 124.25 154.921875 122.234375 C 153.648438 123.65625 151.949219 125.488281 149.683594 127.8125 C 147.085938 128.355469 144.425781 128.597656 141.8125 128.597656 M 209.839844 128.121094 C 208.535156 126.996094 207.214844 125.832031 205.972656 124.710938 C 216.351562 124.175781 239.949219 123.851562 250.253906 106.972656 C 249.90625 106.816406 249.558594 106.664062 249.210938 106.511719 C 249.558594 106.664062 249.90625 106.816406 250.253906 106.972656 C 250.675781 107.125 251.042969 107.285156 251.40625 107.441406 C 252.453125 107.914062 253.496094 108.382812 254.542969 108.910156 C 244.09375 124.703125 220.609375 126.703125 209.839844 128.121094 M 211.519531 105.800781 C 214.601562 103.289062 217.996094 100.285156 220.371094 97.496094 C 220.214844 97.445312 220.007812 97.445312 219.847656 97.390625 C 218.808594 97.183594 217.8125 96.917969 216.765625 96.710938 L 210.769531 100.183594 L 216.765625 96.710938 C 217.8125 96.917969 218.808594 97.183594 219.847656 97.390625 C 220.007812 97.445312 220.214844 97.445312 220.371094 97.496094 C 221.625 97.761719 222.828125 98.019531 224.035156 98.335938 C 224.34375 98.386719 224.65625 98.492188 224.972656 98.59375 C 223.15625 100.820312 220.847656 102.824219 218.5 104.539062 C 216.050781 104.984375 213.644531 105.417969 211.519531 105.800781 " fill-opacity="1" fill-rule="nonzero"/><path fill="#d00508" d="M 154.648438 107.757812 C 148.847656 104.511719 143.832031 100.0625 140.070312 96.1875 C 142.472656 95.558594 144.929688 95.035156 147.433594 94.617188 C 148 94.496094 148.5625 94.382812 149.132812 94.28125 C 148.5625 94.382812 148 94.496094 147.433594 94.617188 C 147.800781 98.492188 150.519531 103.625 154.648438 107.757812 " fill-opacity="1" fill-rule="nonzero"/><path fill="#a50101" d="M 138.730469 125.109375 C 123.058594 125.109375 114.585938 115.664062 111.097656 107.867188 C 115.742188 114.449219 121.65625 119.269531 129.625 121.148438 C 132.023438 121.820312 135.113281 122.070312 138.375 122.070312 C 145.390625 122.070312 153.199219 120.917969 156.554688 120.363281 C 156.109375 120.886719 155.574219 121.507812 154.921875 122.234375 C 148.828125 124.25 143.453125 125.109375 138.730469 125.109375 " fill-opacity="1" fill-rule="nonzero"/><path fill="#a90102" d="M 162.015625 148.21875 C 162.167969 148.113281 162.273438 148.0625 162.433594 147.960938 C 165.933594 145.707031 168.964844 143.460938 171.523438 141.363281 C 169.121094 143.5625 166.089844 145.863281 162.433594 147.960938 C 162.273438 148.0625 162.167969 148.113281 162.015625 148.21875 " fill-opacity="1" fill-rule="nonzero"/><path fill="#a50101" d="M 212.203125 152.066406 C 211.253906 152.066406 210.300781 152.042969 209.351562 151.992188 C 196.128906 151.152344 180.457031 130.160156 180.457031 130.160156 C 180.457031 130.160156 178.054688 135.5 171.523438 141.363281 C 168.964844 143.460938 165.933594 145.707031 162.433594 147.960938 C 162.273438 148.0625 162.167969 148.113281 162.015625 148.21875 C 161.644531 148.429688 161.335938 148.585938 160.96875 148.800781 C 156.527344 151.167969 151.933594 151.996094 147.683594 151.996094 C 141.921875 151.996094 136.796875 150.476562 133.566406 149.234375 C 137.265625 150.410156 141.792969 150.816406 145.644531 150.816406 C 149.328125 150.816406 152.390625 150.445312 153.523438 150.03125 C 157.070312 148.949219 160.015625 146.960938 162.566406 144.535156 C 170.101562 137.980469 174.640625 128.820312 180.523438 126.109375 C 190.402344 133.808594 195.460938 141.835938 206.859375 149.964844 C 208.152344 150.886719 211.210938 151.230469 214.824219 151.230469 C 219.117188 151.230469 224.195312 150.746094 227.996094 150.148438 C 223.722656 151.121094 218.066406 152.066406 212.203125 152.066406 " fill-opacity="1" fill-rule="nonzero"/><path fill="#a50101" d="M 205.972656 124.710938 C 204.648438 123.527344 203.402344 122.394531 202.347656 121.429688 C 203.492188 121.464844 204.792969 121.492188 206.226562 121.492188 C 214.402344 121.492188 226.71875 120.671875 236.375 116.472656 C 241.378906 114.296875 245.726562 110.550781 249.210938 106.511719 C 249.558594 106.664062 249.90625 106.816406 250.253906 106.972656 C 239.949219 123.851562 216.351562 124.175781 205.972656 124.710938 " fill-opacity="1" fill-rule="nonzero"/><path fill="#a90102" d="M 155.554688 108.277344 C 155.421875 108.273438 155.289062 108.273438 155.15625 108.269531 C 154.984375 108.097656 154.8125 107.929688 154.648438 107.757812 C 154.945312 107.933594 155.246094 108.109375 155.554688 108.277344 " fill-opacity="1" fill-rule="nonzero"/><path fill="#a50101" d="M 157 108.292969 C 156.535156 108.292969 156.046875 108.289062 155.554688 108.277344 C 155.246094 108.109375 154.945312 107.933594 154.648438 107.757812 C 150.519531 103.625 147.800781 98.492188 147.433594 94.617188 C 148 94.496094 148.5625 94.382812 149.132812 94.28125 C 153.554688 103.679688 160.378906 108.167969 160.378906 108.167969 C 159.410156 108.253906 158.269531 108.292969 157 108.292969 M 206.976562 106.613281 C 208.148438 104.855469 209.5 102.644531 210.769531 100.183594 L 216.765625 96.710938 C 217.8125 96.917969 218.808594 97.183594 219.847656 97.390625 C 220.007812 97.445312 220.214844 97.445312 220.371094 97.496094 C 217.996094 100.285156 214.601562 103.289062 211.519531 105.800781 C 210.933594 105.902344 210.367188 106.007812 209.832031 106.101562 C 208.765625 106.296875 207.800781 106.464844 206.976562 106.613281 " fill-opacity="1" fill-rule="nonzero"/><path fill="#45711e" d="M 180.523438 126.109375 C 190.402344 133.808594 195.460938 141.835938 206.859375 149.964844 C 210.113281 152.285156 224.5625 150.960938 230.808594 149.644531 C 238.878906 147.941406 238.667969 145.113281 239.328125 138.289062 C 239.328125 138.289062 224.964844 142.886719 220.785156 140.09375 C 216.601562 137.300781 197.390625 121.148438 197.390625 121.148438 C 197.390625 121.148438 220.484375 123.375 236.375 116.472656 C 250.824219 110.191406 259.757812 90.851562 258.363281 88.992188 C 249.699219 102.164062 239.234375 104.320312 234.589844 105.253906 C 229.9375 106.1875 203.917969 110.84375 203.917969 110.84375 C 203.917969 110.84375 213.515625 99.089844 214.910156 87.917969 C 216.304688 76.742188 214.695312 66.214844 211.90625 60.128906 C 212.546875 75.191406 202.777344 96.304688 197.664062 100.03125 C 192.558594 103.753906 170.027344 111.550781 170.027344 111.550781 C 170.027344 111.550781 133.105469 108.933594 125.382812 105.847656 C 117.660156 102.753906 114.800781 99.558594 103.285156 92.796875 C 108.804688 106.757812 116.503906 117.480469 129.625 121.148438 C 138.820312 123.722656 158.234375 120.070312 158.234375 120.070312 C 158.234375 120.070312 147.476562 133.007812 140.164062 138.675781 C 137.398438 140.816406 128.515625 142.902344 119.433594 137.980469 C 121.046875 138.699219 123.390625 143.605469 129.945312 147.636719 C 136.667969 151.773438 150.78125 151.03125 153.523438 150.03125 C 167.117188 145.058594 172.617188 129.757812 180.523438 126.109375 " fill-opacity="1" fill-rule="nonzero"/><path fill="#3e6a1b" d="M 208.320312 150.296875 C 207.679688 150.296875 207.179688 150.191406 206.859375 149.964844 C 195.460938 141.835938 189.839844 131.011719 179.957031 123.304688 C 189.203125 128.003906 197.457031 140.253906 206.140625 146.226562 C 207.894531 147.433594 211 148.054688 214.675781 148.054688 C 215.820312 148.054688 217.015625 147.992188 218.25 147.871094 C 214.105469 149.1875 210.429688 150.296875 208.320312 150.296875 " fill-opacity="1" fill-rule="nonzero"/><path fill="#940602" d="M 153.523438 150.03125 C 157.011719 148.757812 159.964844 146.800781 162.566406 144.535156 C 160.015625 146.960938 157.070312 148.949219 153.523438 150.03125 " fill-opacity="1" fill-rule="nonzero"/><path fill="#3e6a1b" d="M 153.523438 150.03125 C 152.46875 149.214844 151.113281 148.519531 149.558594 147.921875 C 151.425781 147.691406 153.113281 147.207031 154.515625 146.4375 C 166.199219 140.046875 172.121094 127.910156 179.347656 123.644531 C 173.878906 126.988281 169.863281 137.578125 162.566406 144.535156 C 159.964844 146.800781 157.011719 148.757812 153.523438 150.03125 " fill-opacity="1" fill-rule="nonzero"/><path fill="#e41214" d="M 122.941406 141.683594 C 121.9375 140.554688 121.171875 139.578125 120.539062 138.894531 C 121.171875 139.578125 121.9375 140.554688 122.941406 141.683594 " fill-opacity="1" fill-rule="nonzero"/><path fill="#d10e0f" d="M 124.175781 143.011719 C 124.171875 143.007812 124.167969 143 124.164062 143 C 123.71875 142.542969 123.3125 142.105469 122.941406 141.683594 C 123.320312 142.109375 123.730469 142.554688 124.175781 143.011719 " fill-opacity="1" fill-rule="nonzero"/><path fill="#3e6a1b" d="M 129.578125 144.113281 C 126.699219 143.753906 124.628906 143.441406 124.175781 143.011719 C 123.730469 142.554688 123.320312 142.109375 122.941406 141.683594 C 121.9375 140.554688 121.171875 139.578125 120.539062 138.894531 C 123 140.824219 126.144531 142.625 129.578125 144.113281 " fill-opacity="1" fill-rule="nonzero"/><path fill="#d10e0f" d="M 238.625 143.859375 C 238.988281 142.371094 239.113281 140.550781 239.328125 138.289062 C 239.113281 140.550781 238.988281 142.371094 238.625 143.859375 " fill-opacity="1" fill-rule="nonzero"/><path fill="#3e6a1b" d="M 232.089844 143.96875 C 234.988281 142.492188 237.527344 140.605469 239.328125 138.289062 C 239.113281 140.550781 238.988281 142.371094 238.625 143.859375 C 237.914062 143.640625 237.070312 143.539062 236.128906 143.539062 C 234.925781 143.539062 233.5625 143.695312 232.089844 143.96875 " fill-opacity="1" fill-rule="nonzero"/><path fill="#e4e8e4" d="M 110.953125 107.667969 C 107.933594 103.351562 105.453125 98.285156 103.285156 92.796875 C 105.46875 98.320312 107.996094 103.335938 111.0625 107.609375 C 111.027344 107.632812 110.992188 107.652344 110.953125 107.667969 " fill-opacity="1" fill-rule="nonzero"/><path fill="#d2aba7" d="M 110.992188 107.722656 C 110.976562 107.707031 110.96875 107.6875 110.953125 107.667969 C 110.992188 107.652344 111.027344 107.632812 111.0625 107.609375 C 111.074219 107.628906 111.085938 107.640625 111.097656 107.660156 C 111.074219 107.675781 111.050781 107.6875 111.019531 107.707031 C 111.011719 107.710938 111.003906 107.714844 110.992188 107.722656 " fill-opacity="1" fill-rule="nonzero"/><path fill="#ba0a08" d="M 111.097656 107.867188 C 111.058594 107.820312 111.027344 107.773438 110.992188 107.722656 C 111.003906 107.714844 111.011719 107.710938 111.019531 107.707031 C 111.050781 107.6875 111.074219 107.675781 111.097656 107.660156 C 111.074219 107.675781 111.050781 107.6875 111.019531 107.707031 C 111.042969 107.757812 111.074219 107.816406 111.097656 107.867188 " fill-opacity="1" fill-rule="nonzero"/><path fill="#940602" d="M 129.625 121.148438 C 121.65625 119.269531 115.742188 114.449219 111.097656 107.867188 C 111.074219 107.816406 111.042969 107.757812 111.019531 107.707031 C 111.050781 107.6875 111.074219 107.675781 111.097656 107.660156 C 115.773438 114.160156 121.71875 118.9375 129.625 121.148438 " fill-opacity="1" fill-rule="nonzero"/><path fill="#3e6a1b" d="M 137.695312 121.871094 C 134.683594 121.871094 131.855469 121.671875 129.625 121.148438 C 121.71875 118.9375 115.773438 114.160156 111.097656 107.660156 C 111.085938 107.640625 111.074219 107.628906 111.0625 107.609375 C 107.996094 103.335938 105.46875 98.320312 103.285156 92.796875 C 110.503906 104.195312 117.597656 115.429688 129.46875 118.253906 C 131.769531 118.800781 135.304688 118.996094 139.128906 118.996094 C 148.015625 118.996094 158.4375 117.960938 158.4375 117.960938 C 158.4375 117.960938 158.035156 118.601562 156.640625 120.261719 C 155.371094 120.429688 153.425781 120.699219 151.101562 120.96875 C 147.199219 121.421875 142.242188 121.871094 137.695312 121.871094 " fill-opacity="1" fill-rule="nonzero"/><path fill="#3e6a1b" d="M 206.226562 121.492188 C 204.792969 121.492188 203.492188 121.464844 202.347656 121.429688 C 200.425781 119.664062 199.136719 118.453125 199.136719 118.453125 C 199.136719 118.453125 201.425781 118.640625 205.136719 118.640625 C 212.019531 118.640625 223.792969 117.984375 235.015625 114.253906 C 249.945312 109.292969 258.363281 88.992188 258.363281 88.992188 C 258.464844 89.121094 258.511719 89.328125 258.511719 89.613281 C 258.515625 93.433594 249.835938 110.621094 236.375 116.472656 C 226.71875 120.671875 214.402344 121.492188 206.226562 121.492188 " fill-opacity="1" fill-rule="nonzero"/><path fill="#3e6a1b" d="M 204.019531 107.136719 C 204.019531 107.136719 204.289062 106.804688 204.738281 106.195312 C 206.867188 103.339844 212.984375 94.460938 214.132812 85.269531 C 215.523438 74.09375 211.90625 60.128906 211.90625 60.128906 C 213.992188 64.6875 215.417969 71.738281 215.417969 79.683594 C 215.417969 82.351562 215.257812 85.113281 214.910156 87.917969 C 214.035156 94.941406 209.917969 102.191406 206.976562 106.613281 C 205.148438 106.9375 204.019531 107.136719 204.019531 107.136719 " fill-opacity="1" fill-rule="nonzero"/><path fill="#559127" d="M 179.957031 123.304688 C 189.203125 128.003906 197.457031 140.253906 206.140625 146.226562 C 211.859375 150.160156 231.894531 147.835938 239.328125 138.289062 C 239.328125 138.289062 228.652344 140.367188 217.832031 134.351562 C 213.4375 131.914062 199.136719 118.453125 199.136719 118.453125 C 199.136719 118.453125 217.734375 120 235.015625 114.253906 C 249.945312 109.292969 258.363281 88.992188 258.363281 88.992188 C 258.363281 88.992188 239.320312 100.628906 234.667969 101.566406 C 230.023438 102.496094 204.003906 107.148438 204.003906 107.148438 C 204.003906 107.148438 212.738281 96.441406 214.132812 85.269531 C 215.523438 74.09375 211.90625 60.128906 211.90625 60.128906 C 209.792969 60.921875 207.566406 77.285156 200.382812 88.160156 C 194.917969 96.449219 184.839844 99.503906 179.960938 102.132812 C 174.398438 105.128906 153.257812 94.492188 145.445312 78.640625 C 146.074219 98.746094 160.378906 108.167969 160.378906 108.167969 C 154.441406 108.6875 141.9375 107.410156 134.769531 106.921875 C 129.3125 106.550781 114.035156 100.917969 103.285156 92.796875 C 110.503906 104.195312 117.597656 115.429688 129.46875 118.253906 C 137.105469 120.070312 158.4375 117.960938 158.4375 117.960938 C 158.4375 117.960938 156.191406 121.554688 143.867188 133.648438 C 134.871094 142.472656 119.433594 137.980469 119.433594 137.980469 C 127.644531 145.207031 146.054688 151.070312 154.515625 146.4375 C 166.523438 139.867188 172.445312 127.230469 179.957031 123.304688 " fill-opacity="1" fill-rule="nonzero"/><path fill="#64992d" d="M 218.761719 145.765625 C 214.679688 145.765625 210.839844 144.566406 208.59375 143.015625 C 202.738281 138.988281 193.042969 127.976562 185.46875 121.832031 C 186.632812 121.667969 187.808594 121.421875 188.988281 121.113281 C 194.667969 127.910156 208.257812 142.605469 219.664062 142.605469 C 221.035156 142.605469 222.375 142.394531 223.664062 141.929688 C 214.34375 140.800781 200.4375 126.789062 193.792969 119.535156 C 194.316406 119.324219 194.835938 119.113281 195.367188 118.890625 C 201.515625 124.824219 211.714844 134.5 214.230469 135.898438 C 220.953125 139.636719 227.234375 140.109375 230 140.109375 C 230.945312 140.109375 231.484375 140.054688 231.484375 140.054688 C 228.207031 144.257812 223.335938 145.765625 218.761719 145.765625 M 139.707031 144.402344 C 134.992188 144.402344 130.46875 143.367188 127.457031 140.71875 C 127.457031 140.71875 127.941406 140.75 128.78125 140.75 C 132.289062 140.75 141.980469 140.179688 148.035156 134.234375 C 156.449219 125.972656 163.296875 117.839844 165.492188 115.171875 C 166.164062 116.039062 167.011719 116.902344 168.015625 117.710938 C 162.226562 124.824219 147.449219 141.359375 135.023438 141.753906 C 135.917969 141.875 136.820312 141.929688 137.71875 141.929688 C 152.082031 141.933594 166.222656 127.347656 172.253906 120.25 C 173.515625 120.804688 174.90625 121.261719 176.414062 121.582031 C 170.804688 126.875 163.988281 136.199219 156.039062 140.550781 C 152.082031 142.71875 145.734375 144.402344 139.707031 144.402344 M 137.121094 116.804688 C 135.050781 116.804688 133.355469 116.699219 132.273438 116.441406 C 122.375 114.085938 115.726562 108.246094 109.707031 98.746094 C 118.679688 105.515625 130.871094 109.992188 135.425781 110.300781 C 139.824219 110.597656 151.726562 110.964844 159.671875 110.964844 C 160.921875 110.964844 162.070312 110.957031 163.078125 110.9375 C 155.996094 111.886719 149.964844 112.253906 144.867188 112.253906 C 127.253906 112.253906 120.808594 107.855469 120.808594 107.855469 C 126.597656 112.863281 138.890625 114.113281 149.742188 114.113281 C 155.394531 114.113281 160.652344 113.773438 164.394531 113.449219 C 164.558594 113.773438 164.746094 114.09375 164.957031 114.421875 C 160.535156 114.988281 145.652344 116.804688 137.121094 116.804688 M 204.421875 114.769531 C 204.214844 114.769531 204.007812 114.769531 203.800781 114.765625 C 208.652344 112.15625 213.492188 109.28125 218.191406 106.914062 C 224.320312 106.21875 230.011719 105.535156 231.609375 105.214844 C 235.488281 104.4375 251.226562 95.839844 251.226562 95.839844 C 251.226562 95.839844 243.105469 109.769531 225.511719 113.128906 C 218.746094 114.414062 210.9375 114.769531 204.421875 114.769531 M 163.722656 109.554688 C 159.054688 106.871094 149.257812 99.738281 148.863281 86.988281 C 151.742188 92.832031 157.222656 97.46875 162.839844 100.601562 C 164.234375 104.0625 164.816406 107.199219 163.9375 108.996094 C 163.847656 109.175781 163.777344 109.359375 163.722656 109.554688 M 208.808594 89.4375 C 207.988281 87.976562 207.101562 86.527344 206.132812 85.167969 C 209.828125 77.113281 209.789062 71.988281 210.910156 71.566406 C 210.910156 71.566406 212.023438 81.121094 208.808594 89.4375 " fill-opacity="1" fill-rule="nonzero"/><path fill="#346819" d="M 181.535156 122.117188 C 179.703125 122.117188 177.992188 121.921875 176.414062 121.582031 C 176.691406 121.324219 176.96875 121.066406 177.242188 120.824219 C 177.269531 120.828125 177.300781 120.832031 177.328125 120.835938 C 179.011719 121.050781 180.582031 121.148438 182.054688 121.148438 C 182.898438 121.148438 183.707031 121.113281 184.484375 121.050781 C 184.804688 121.300781 185.136719 121.5625 185.46875 121.832031 C 185.371094 121.847656 185.273438 121.859375 185.171875 121.871094 C 183.914062 122.035156 182.699219 122.117188 181.535156 122.117188 " fill-opacity="1" fill-rule="nonzero"/><path fill="#3d6d1d" d="M 185.46875 121.832031 C 185.136719 121.5625 184.804688 121.300781 184.484375 121.050781 C 185.910156 120.929688 187.210938 120.710938 188.394531 120.394531 C 188.585938 120.625 188.78125 120.859375 188.988281 121.113281 C 187.808594 121.421875 186.632812 121.667969 185.46875 121.832031 M 176.414062 121.582031 C 174.90625 121.261719 173.515625 120.804688 172.253906 120.25 C 172.425781 120.042969 172.597656 119.84375 172.757812 119.652344 C 174.101562 120.203125 175.597656 120.609375 177.242188 120.824219 C 176.96875 121.066406 176.691406 121.324219 176.414062 121.582031 " fill-opacity="1" fill-rule="nonzero"/><path fill="#346819" d="M 195.367188 118.890625 C 194.890625 118.433594 194.4375 117.996094 194.011719 117.589844 C 195.039062 116.710938 195.835938 115.699219 196.402344 114.601562 C 198.484375 114.683594 201.015625 114.753906 203.800781 114.765625 C 200.980469 116.285156 198.160156 117.710938 195.367188 118.890625 " fill-opacity="1" fill-rule="nonzero"/><path fill="#641403" d="M 206.976562 106.617188 C 206.976562 106.617188 206.976562 106.613281 206.976562 106.613281 C 207.800781 106.464844 208.765625 106.296875 209.832031 106.101562 C 208.765625 106.296875 207.800781 106.46875 206.976562 106.617188 " fill-opacity="1" fill-rule="nonzero"/><path fill="#8c190c" d="M 224.203125 103.503906 C 226.367188 103.109375 228.410156 102.730469 230.144531 102.402344 C 229.929688 102.441406 229.707031 102.492188 229.484375 102.542969 C 227.90625 102.832031 226.101562 103.160156 224.203125 103.503906 " fill-opacity="1" fill-rule="nonzero"/><path fill="#275112" d="M 204.003906 107.148438 C 204.003906 107.148438 204.28125 106.816406 204.738281 106.195312 C 204.289062 106.804688 204.019531 107.136719 204.019531 107.136719 C 204.019531 107.136719 205.148438 106.9375 206.976562 106.613281 C 206.976562 106.613281 206.976562 106.617188 206.976562 106.617188 C 205.136719 106.945312 204.003906 107.148438 204.003906 107.148438 " fill-opacity="1" fill-rule="nonzero"/><path fill="#346819" d="M 199.851562 108.910156 C 199.851562 108.910156 203.445312 101.488281 208.296875 90.664062 C 208.480469 90.257812 208.648438 89.847656 208.808594 89.4375 C 209.773438 91.152344 210.652344 92.875 211.472656 94.484375 C 209.175781 99.894531 206.109375 104.335938 204.738281 106.195312 C 204.28125 106.816406 204.003906 107.148438 204.003906 107.148438 C 204.003906 107.148438 205.136719 106.945312 206.976562 106.617188 C 207.800781 106.46875 208.765625 106.296875 209.832031 106.101562 C 213.855469 105.382812 219.335938 104.402344 224.203125 103.503906 C 226.101562 103.160156 227.90625 102.832031 229.484375 102.542969 C 225.871094 103.351562 222.082031 104.953125 218.191406 106.914062 C 209.46875 107.90625 199.851562 108.910156 199.851562 108.910156 M 196.691406 99.835938 C 196.9375 96.382812 197.777344 92.972656 199.101562 89.933594 C 199.558594 89.367188 199.996094 88.769531 200.410156 88.144531 C 201.65625 86.28125 202.730469 84.25 203.691406 82.175781 C 204.5625 83.089844 205.375 84.105469 206.132812 85.167969 C 204.214844 89.351562 201.296875 94.324219 196.691406 99.835938 " fill-opacity="1" fill-rule="nonzero"/><path fill="#3d6d1d" d="M 193.792969 119.535156 C 193.453125 119.160156 193.132812 118.804688 192.832031 118.476562 C 193.253906 118.199219 193.648438 117.898438 194.011719 117.589844 C 194.4375 117.996094 194.890625 118.433594 195.367188 118.890625 C 194.835938 119.113281 194.316406 119.324219 193.792969 119.535156 M 203.800781 114.765625 C 201.015625 114.753906 198.484375 114.683594 196.402344 114.601562 C 197.460938 112.535156 197.714844 110.152344 197.195312 107.691406 C 196.652344 105.140625 196.496094 102.472656 196.691406 99.835938 C 201.296875 94.324219 204.214844 89.351562 206.132812 85.167969 C 207.101562 86.527344 207.988281 87.976562 208.808594 89.4375 C 208.648438 89.847656 208.480469 90.257812 208.296875 90.664062 C 203.445312 101.488281 199.851562 108.910156 199.851562 108.910156 C 199.851562 108.910156 209.46875 107.90625 218.191406 106.914062 C 213.492188 109.28125 208.652344 112.15625 203.800781 114.765625 " fill-opacity="1" fill-rule="nonzero"/><path fill="#346819" d="M 165.492188 115.171875 C 165.304688 114.921875 165.125 114.671875 164.957031 114.421875 C 165.683594 114.332031 166.128906 114.269531 166.222656 114.261719 C 166.222656 114.261719 166.226562 114.265625 166.226562 114.269531 C 166.175781 114.335938 165.921875 114.652344 165.492188 115.171875 " fill-opacity="1" fill-rule="nonzero"/><path fill="#3d6d1d" d="M 168.015625 117.710938 C 167.011719 116.902344 166.164062 116.039062 165.492188 115.171875 C 165.921875 114.652344 166.175781 114.335938 166.226562 114.269531 C 166.8125 115.25 167.59375 116.195312 168.554688 117.054688 C 168.382812 117.261719 168.207031 117.484375 168.015625 117.710938 M 164.957031 114.421875 C 164.746094 114.09375 164.558594 113.773438 164.394531 113.449219 C 164.863281 113.410156 165.308594 113.367188 165.730469 113.324219 C 165.875 113.640625 166.039062 113.953125 166.222656 114.261719 C 166.128906 114.269531 165.683594 114.332031 164.957031 114.421875 " fill-opacity="1" fill-rule="nonzero"/><path fill="#346819" d="M 163.605469 110.859375 C 163.574219 110.398438 163.613281 109.960938 163.722656 109.554688 C 164.191406 109.824219 164.605469 110.050781 164.953125 110.226562 C 164.957031 110.375 164.96875 110.519531 164.984375 110.667969 C 164.519531 110.738281 164.0625 110.800781 163.605469 110.859375 " fill-opacity="1" fill-rule="nonzero"/><path fill="#8c190c" d="M 166.882812 99.332031 C 164.695312 98.214844 162.425781 96.828125 160.179688 95.214844 C 162.417969 96.753906 164.691406 98.140625 166.886719 99.289062 C 166.886719 99.304688 166.882812 99.316406 166.882812 99.332031 " fill-opacity="1" fill-rule="nonzero"/><path fill="#346819" d="M 166.703125 102.523438 C 165.429688 101.964844 164.128906 101.324219 162.839844 100.601562 C 162.132812 98.847656 161.21875 97.003906 160.179688 95.214844 C 162.425781 96.828125 164.695312 98.214844 166.882812 99.332031 C 166.75 100.289062 166.765625 101.375 166.703125 102.523438 " fill-opacity="1" fill-rule="nonzero"/><path fill="#3d6d1d" d="M 164.953125 110.226562 C 164.605469 110.050781 164.191406 109.824219 163.722656 109.554688 C 163.777344 109.359375 163.847656 109.175781 163.9375 108.996094 C 164.816406 107.199219 164.234375 104.0625 162.839844 100.601562 C 164.128906 101.324219 165.429688 101.964844 166.703125 102.523438 C 166.621094 104.007812 166.417969 105.601562 165.609375 107.164062 C 165.128906 108.105469 164.910156 109.148438 164.953125 110.226562 " fill-opacity="1" fill-rule="nonzero"/><path fill="#8c190c" d="M 170.492188 100.980469 C 170.332031 100.917969 170.175781 100.851562 170.015625 100.785156 C 169 100.351562 167.949219 99.851562 166.886719 99.289062 C 168.117188 99.914062 169.328125 100.46875 170.5 100.945312 C 170.496094 100.957031 170.492188 100.96875 170.492188 100.980469 " fill-opacity="1" fill-rule="nonzero"/><path fill="#346819" d="M 170.484375 100.988281 C 170.332031 100.921875 170.175781 100.855469 170.015625 100.785156 C 170.175781 100.851562 170.332031 100.917969 170.492188 100.980469 C 170.484375 100.984375 170.484375 100.984375 170.484375 100.988281 " fill-opacity="1" fill-rule="nonzero"/><path fill="#98a998" d="M 195.585938 93.460938 L 195.566406 93.460938 C 196.851562 92.390625 198.054688 91.199219 199.136719 89.847656 C 199.128906 89.867188 199.121094 89.878906 199.117188 89.898438 C 198.042969 91.226562 196.851562 92.40625 195.585938 93.460938 " fill-opacity="1" fill-rule="nonzero"/><path fill="#8c806f" d="M 195.542969 93.492188 C 195.539062 93.492188 195.535156 93.492188 195.53125 93.492188 C 195.542969 93.484375 195.558594 93.46875 195.566406 93.460938 L 195.585938 93.460938 C 195.574219 93.472656 195.558594 93.484375 195.542969 93.492188 " fill-opacity="1" fill-rule="nonzero"/><path fill="#8c190c" d="M 192.496094 95.734375 C 192.496094 95.730469 192.496094 95.730469 192.496094 95.726562 C 193.53125 95.046875 194.550781 94.308594 195.53125 93.492188 C 195.535156 93.492188 195.539062 93.492188 195.542969 93.492188 C 194.558594 94.3125 193.539062 95.054688 192.496094 95.734375 " fill-opacity="1" fill-rule="nonzero"/><path fill="#346819" d="M 192.496094 95.734375 C 193.539062 95.054688 194.558594 94.3125 195.542969 93.492188 C 195.558594 93.484375 195.574219 93.472656 195.585938 93.460938 C 196.851562 92.40625 198.042969 91.226562 199.117188 89.898438 C 199.113281 89.910156 199.105469 89.921875 199.101562 89.933594 C 197.179688 92.300781 194.878906 94.179688 192.496094 95.734375 " fill-opacity="1" fill-rule="nonzero"/><path fill="#215011" d="M 182.054688 121.148438 C 180.582031 121.148438 179.011719 121.050781 177.328125 120.835938 C 177.300781 120.832031 177.269531 120.828125 177.242188 120.824219 C 177.644531 120.46875 178.039062 120.136719 178.425781 119.832031 C 179.3125 119.992188 180.175781 120.070312 180.980469 120.070312 C 181.035156 120.070312 181.09375 120.070312 181.148438 120.070312 C 181.757812 120.058594 182.371094 120.011719 182.972656 119.941406 C 183.464844 120.28125 183.96875 120.652344 184.484375 121.050781 C 183.707031 121.113281 182.898438 121.148438 182.054688 121.148438 " fill-opacity="1" fill-rule="nonzero"/><path fill="#265314" d="M 184.484375 121.050781 C 183.96875 120.652344 183.464844 120.28125 182.972656 119.941406 C 184.441406 119.761719 185.878906 119.414062 187.214844 118.929688 C 187.53125 119.332031 187.929688 119.828125 188.394531 120.394531 C 187.210938 120.710938 185.910156 120.929688 184.484375 121.050781 M 177.242188 120.824219 C 175.597656 120.609375 174.101562 120.203125 172.757812 119.652344 C 173.144531 119.195312 173.484375 118.773438 173.785156 118.402344 C 175.066406 118.96875 176.410156 119.410156 177.722656 119.695312 C 177.960938 119.746094 178.195312 119.792969 178.425781 119.832031 C 178.039062 120.136719 177.644531 120.46875 177.242188 120.824219 " fill-opacity="1" fill-rule="nonzero"/><path fill="#215011" d="M 194.011719 117.589844 C 193.339844 116.9375 192.742188 116.355469 192.242188 115.867188 C 192.683594 115.421875 193.070312 114.945312 193.386719 114.449219 C 194.230469 114.496094 195.246094 114.546875 196.402344 114.601562 C 195.835938 115.699219 195.039062 116.710938 194.011719 117.589844 M 193.726562 102.929688 C 193.4375 100.691406 193.039062 98.285156 192.496094 95.734375 C 194.878906 94.179688 197.179688 92.300781 199.101562 89.933594 C 197.777344 92.972656 196.9375 96.382812 196.691406 99.835938 C 196.246094 100.359375 195.792969 100.894531 195.324219 101.429688 C 194.796875 102.027344 194.261719 102.523438 193.726562 102.929688 " fill-opacity="1" fill-rule="nonzero"/><path fill="#265314" d="M 192.832031 118.476562 C 192.222656 117.800781 191.699219 117.210938 191.277344 116.722656 C 191.625 116.449219 191.945312 116.167969 192.242188 115.867188 C 192.742188 116.355469 193.339844 116.9375 194.011719 117.589844 C 193.648438 117.898438 193.253906 118.199219 192.832031 118.476562 M 196.402344 114.601562 C 195.246094 114.546875 194.230469 114.496094 193.386719 114.449219 C 194.003906 113.460938 194.347656 112.386719 194.34375 111.238281 C 194.34375 111.210938 194.34375 111.1875 194.339844 111.164062 C 194.304688 108.796875 194.125 106.027344 193.726562 102.929688 C 194.261719 102.523438 194.796875 102.027344 195.324219 101.429688 C 195.792969 100.894531 196.246094 100.359375 196.691406 99.835938 C 196.496094 102.472656 196.652344 105.140625 197.195312 107.691406 C 197.714844 110.152344 197.460938 112.535156 196.402344 114.601562 " fill-opacity="1" fill-rule="nonzero"/><path fill="#215011" d="M 166.226562 114.269531 C 166.226562 114.265625 166.222656 114.261719 166.222656 114.261719 C 166.230469 114.253906 166.234375 114.253906 166.234375 114.253906 C 166.234375 114.253906 166.234375 114.261719 166.226562 114.269531 " fill-opacity="1" fill-rule="nonzero"/><path fill="#265314" d="M 168.554688 117.054688 C 167.59375 116.195312 166.8125 115.25 166.226562 114.269531 C 166.234375 114.261719 166.234375 114.253906 166.234375 114.253906 C 166.234375 114.253906 166.230469 114.253906 166.222656 114.261719 C 166.039062 113.953125 165.875 113.640625 165.730469 113.324219 C 166.359375 113.269531 166.929688 113.210938 167.433594 113.160156 C 167.921875 114.09375 168.65625 114.972656 169.566406 115.769531 C 169.285156 116.132812 168.945312 116.5625 168.554688 117.054688 " fill-opacity="1" fill-rule="nonzero"/><path fill="#215011" d="M 164.984375 110.667969 C 164.96875 110.519531 164.957031 110.375 164.953125 110.226562 C 165.226562 110.371094 165.457031 110.484375 165.648438 110.574219 C 165.425781 110.605469 165.203125 110.640625 164.984375 110.667969 " fill-opacity="1" fill-rule="nonzero"/><path fill="#55220a" d="M 170.015625 100.785156 C 169 100.371094 167.949219 99.878906 166.882812 99.332031 C 166.882812 99.316406 166.886719 99.304688 166.886719 99.289062 C 167.949219 99.851562 169 100.351562 170.015625 100.785156 " fill-opacity="1" fill-rule="nonzero"/><path fill="#215011" d="M 169.5625 103.652344 C 168.628906 103.324219 167.671875 102.949219 166.703125 102.523438 C 166.765625 101.375 166.75 100.289062 166.882812 99.332031 C 167.949219 99.878906 169 100.371094 170.015625 100.785156 C 170.175781 100.855469 170.332031 100.921875 170.484375 100.988281 C 170.199219 101.933594 169.882812 102.824219 169.5625 103.652344 " fill-opacity="1" fill-rule="nonzero"/><path fill="#265314" d="M 165.648438 110.574219 C 165.457031 110.484375 165.226562 110.371094 164.953125 110.226562 C 164.910156 109.148438 165.128906 108.105469 165.609375 107.164062 C 166.417969 105.601562 166.621094 104.007812 166.703125 102.523438 C 167.671875 102.949219 168.628906 103.324219 169.5625 103.652344 C 168.863281 105.449219 168.125 106.945312 167.5 108.074219 C 167.066406 108.863281 166.84375 109.636719 166.796875 110.398438 C 166.410156 110.453125 166.027344 110.515625 165.648438 110.574219 " fill-opacity="1" fill-rule="nonzero"/><path fill="#8bae3b" d="M 137.71875 141.929688 C 136.820312 141.929688 135.917969 141.875 135.023438 141.753906 C 147.449219 141.359375 162.226562 124.824219 168.015625 117.710938 C 169.210938 118.664062 170.628906 119.539062 172.253906 120.25 C 166.222656 127.347656 152.082031 141.933594 137.71875 141.929688 " fill-opacity="1" fill-rule="nonzero"/><path fill="#6e8d2f" d="M 172.253906 120.25 C 170.628906 119.539062 169.210938 118.664062 168.015625 117.710938 C 168.207031 117.484375 168.382812 117.261719 168.554688 117.054688 C 169.703125 118.078125 171.113281 118.972656 172.757812 119.652344 C 172.597656 119.84375 172.425781 120.042969 172.253906 120.25 " fill-opacity="1" fill-rule="nonzero"/><path fill="#5c7a28" d="M 172.757812 119.652344 C 171.113281 118.972656 169.703125 118.078125 168.554688 117.054688 C 168.945312 116.5625 169.285156 116.132812 169.566406 115.769531 C 170.75 116.804688 172.214844 117.703125 173.785156 118.402344 C 173.484375 118.773438 173.144531 119.195312 172.757812 119.652344 " fill-opacity="1" fill-rule="nonzero"/><path fill="#8bae3b" d="M 219.664062 142.605469 C 208.257812 142.605469 194.667969 127.910156 188.988281 121.113281 C 190.578125 120.699219 192.179688 120.160156 193.792969 119.535156 C 200.4375 126.789062 214.34375 140.800781 223.664062 141.929688 C 222.375 142.394531 221.035156 142.605469 219.664062 142.605469 " fill-opacity="1" fill-rule="nonzero"/><path fill="#6e8d2f" d="M 188.988281 121.113281 C 188.78125 120.859375 188.585938 120.625 188.394531 120.394531 C 190.125 119.933594 191.601562 119.285156 192.832031 118.476562 C 193.132812 118.804688 193.453125 119.160156 193.792969 119.535156 C 192.179688 120.160156 190.578125 120.699219 188.988281 121.113281 " fill-opacity="1" fill-rule="nonzero"/><path fill="#5c7a28" d="M 188.394531 120.394531 C 187.929688 119.828125 187.53125 119.332031 187.214844 118.929688 C 188.082031 118.609375 188.90625 118.230469 189.664062 117.796875 C 190.238281 117.46875 190.78125 117.113281 191.277344 116.722656 C 191.699219 117.210938 192.222656 117.800781 192.832031 118.476562 C 191.601562 119.285156 190.125 119.933594 188.394531 120.394531 " fill-opacity="1" fill-rule="nonzero"/><path fill="#80a836" d="M 163.078125 110.9375 C 163.253906 110.914062 163.433594 110.890625 163.605469 110.859375 C 163.613281 110.882812 163.613281 110.902344 163.613281 110.921875 C 163.441406 110.925781 163.261719 110.933594 163.078125 110.9375 " fill-opacity="1" fill-rule="nonzero"/><path fill="#8bae3b" d="M 149.742188 114.113281 C 138.890625 114.113281 126.597656 112.863281 120.808594 107.855469 C 120.808594 107.855469 127.253906 112.253906 144.867188 112.253906 C 149.964844 112.253906 155.996094 111.886719 163.078125 110.9375 C 163.261719 110.933594 163.441406 110.925781 163.613281 110.921875 C 163.675781 111.710938 163.941406 112.566406 164.394531 113.449219 C 160.652344 113.773438 155.394531 114.113281 149.742188 114.113281 " fill-opacity="1" fill-rule="nonzero"/><path fill="#67892c" d="M 163.613281 110.921875 C 163.613281 110.902344 163.613281 110.882812 163.605469 110.859375 C 164.0625 110.800781 164.519531 110.738281 164.984375 110.667969 C 164.992188 110.738281 165 110.804688 165.007812 110.875 C 164.589844 110.894531 164.125 110.90625 163.613281 110.921875 " fill-opacity="1" fill-rule="nonzero"/><path fill="#6e8d2f" d="M 164.394531 113.449219 C 163.941406 112.566406 163.675781 111.710938 163.613281 110.921875 C 164.125 110.90625 164.589844 110.894531 165.007812 110.875 C 165.113281 111.6875 165.355469 112.511719 165.730469 113.324219 C 165.308594 113.367188 164.863281 113.410156 164.394531 113.449219 " fill-opacity="1" fill-rule="nonzero"/><path fill="#597726" d="M 165.007812 110.875 C 165 110.804688 164.992188 110.738281 164.984375 110.667969 C 165.203125 110.640625 165.425781 110.605469 165.648438 110.574219 C 165.972656 110.730469 166.152344 110.804688 166.152344 110.804688 C 165.832031 110.832031 165.445312 110.855469 165.007812 110.875 " fill-opacity="1" fill-rule="nonzero"/><path fill="#5c7a28" d="M 165.730469 113.324219 C 165.355469 112.511719 165.113281 111.6875 165.007812 110.875 C 165.445312 110.855469 165.832031 110.832031 166.152344 110.804688 C 166.152344 110.804688 165.972656 110.730469 165.648438 110.574219 C 166.027344 110.515625 166.410156 110.453125 166.796875 110.398438 C 166.746094 111.355469 166.980469 112.28125 167.433594 113.160156 C 166.929688 113.210938 166.359375 113.269531 165.730469 113.324219 " fill-opacity="1" fill-rule="nonzero"/><path fill="#559127" d="M 167.5 108.074219 C 163.96875 114.457031 174.46875 120.195312 181.140625 120.054688 C 187.808594 119.90625 194.429688 116.164062 194.339844 111.183594 C 194.195312 102.992188 192.367188 89.964844 185.765625 75.367188 C 182.652344 68.492188 172.25 55.585938 169.511719 53.933594 C 166.777344 52.28125 156.886719 60.128906 159.234375 64.414062 C 161.585938 68.703125 170.039062 76.886719 171.542969 85.40625 C 173.335938 95.554688 169.703125 104.089844 167.5 108.074219 " fill-opacity="1" fill-rule="nonzero"/><path fill="#16420c" d="M 180.980469 120.070312 C 180.175781 120.070312 179.3125 119.992188 178.425781 119.832031 C 178.425781 119.832031 178.429688 119.832031 178.429688 119.832031 C 179.277344 119.976562 180.113281 120.054688 180.890625 120.054688 C 180.976562 120.054688 181.054688 120.054688 181.140625 120.054688 C 181.742188 120.039062 182.351562 119.996094 182.953125 119.925781 C 182.957031 119.929688 182.96875 119.933594 182.972656 119.941406 C 182.371094 120.011719 181.757812 120.058594 181.148438 120.070312 C 181.09375 120.070312 181.035156 120.070312 180.980469 120.070312 " fill-opacity="1" fill-rule="nonzero"/><path fill="#19440e" d="M 182.972656 119.941406 C 182.96875 119.933594 182.957031 119.929688 182.953125 119.925781 C 184.429688 119.75 185.871094 119.40625 187.210938 118.917969 C 187.210938 118.925781 187.214844 118.925781 187.214844 118.929688 C 185.878906 119.414062 184.441406 119.761719 182.972656 119.941406 M 178.425781 119.832031 C 178.195312 119.792969 177.960938 119.746094 177.722656 119.695312 C 177.960938 119.746094 178.199219 119.789062 178.429688 119.832031 C 178.429688 119.832031 178.425781 119.832031 178.425781 119.832031 " fill-opacity="1" fill-rule="nonzero"/><path fill="#395b1a" d="M 187.214844 118.929688 C 187.214844 118.925781 187.210938 118.925781 187.210938 118.917969 C 188.082031 118.601562 188.90625 118.230469 189.664062 117.796875 C 188.90625 118.230469 188.082031 118.609375 187.214844 118.929688 " fill-opacity="1" fill-rule="nonzero"/><path fill="#98a998" d="M 191.902344 93.109375 L 191.894531 93.109375 C 190.574219 87.660156 188.613281 81.660156 185.765625 75.367188 C 185.367188 74.484375 184.847656 73.507812 184.242188 72.464844 C 184.851562 73.511719 185.378906 74.496094 185.785156 75.378906 C 188.621094 81.671875 190.582031 87.667969 191.902344 93.109375 " fill-opacity="1" fill-rule="nonzero"/><path fill="#8c806f" d="M 191.90625 93.148438 C 191.90625 93.148438 191.902344 93.148438 191.898438 93.148438 C 191.898438 93.132812 191.894531 93.125 191.894531 93.109375 L 191.902344 93.109375 C 191.902344 93.125 191.90625 93.136719 191.90625 93.148438 " fill-opacity="1" fill-rule="nonzero"/><path fill="#8c190c" d="M 192.488281 95.730469 C 192.308594 94.886719 192.113281 94.019531 191.898438 93.148438 C 191.902344 93.148438 191.90625 93.148438 191.90625 93.148438 C 192.117188 94.019531 192.316406 94.878906 192.496094 95.726562 C 192.492188 95.726562 192.492188 95.730469 192.488281 95.730469 " fill-opacity="1" fill-rule="nonzero"/><path fill="#55220a" d="M 192.488281 95.738281 C 192.488281 95.734375 192.488281 95.734375 192.488281 95.730469 C 192.492188 95.730469 192.492188 95.726562 192.496094 95.726562 C 192.496094 95.730469 192.496094 95.730469 192.496094 95.734375 C 192.496094 95.734375 192.492188 95.738281 192.488281 95.738281 " fill-opacity="1" fill-rule="nonzero"/><path fill="#215011" d="M 192.488281 95.738281 C 192.492188 95.738281 192.496094 95.734375 192.496094 95.734375 C 192.496094 95.734375 192.492188 95.738281 192.488281 95.738281 " fill-opacity="1" fill-rule="nonzero"/><path fill="#16420c" d="M 193.714844 102.9375 C 193.429688 100.695312 193.027344 98.289062 192.488281 95.738281 C 192.492188 95.738281 192.496094 95.734375 192.496094 95.734375 C 193.039062 98.285156 193.4375 100.691406 193.726562 102.929688 C 193.726562 102.933594 193.722656 102.933594 193.714844 102.9375 " fill-opacity="1" fill-rule="nonzero"/><path fill="#19440e" d="M 194.34375 111.238281 C 194.34375 111.21875 194.34375 111.199219 194.339844 111.183594 C 194.300781 108.8125 194.117188 106.035156 193.714844 102.9375 C 193.722656 102.933594 193.726562 102.933594 193.726562 102.929688 C 194.125 106.027344 194.304688 108.796875 194.339844 111.164062 C 194.34375 111.1875 194.34375 111.210938 194.34375 111.238281 " fill-opacity="1" fill-rule="nonzero"/><path fill="#346819" d="M 180.890625 120.054688 C 180.113281 120.054688 179.277344 119.976562 178.429688 119.832031 C 178.199219 119.789062 177.960938 119.746094 177.722656 119.695312 C 173.042969 118.667969 167.949219 115.671875 166.984375 111.96875 C 170.589844 115.851562 174.808594 117.277344 178.699219 117.277344 C 183.5625 117.277344 187.910156 115.046875 189.894531 112.621094 C 192.753906 109.113281 191.675781 97.414062 188.25 85.746094 C 184.859375 74.113281 179.332031 66.597656 174.636719 64.136719 C 171.488281 62.484375 164.011719 63.675781 166.621094 62.242188 C 169.191406 60.835938 171.101562 57.980469 171.222656 55.449219 C 174.640625 58.835938 180.820312 66.632812 184.242188 72.464844 C 184.847656 73.507812 185.367188 74.484375 185.765625 75.367188 C 188.613281 81.660156 190.574219 87.660156 191.894531 93.109375 C 191.894531 93.125 191.898438 93.132812 191.898438 93.148438 C 192.113281 94.019531 192.308594 94.886719 192.488281 95.730469 C 192.488281 95.734375 192.488281 95.734375 192.488281 95.738281 C 193.027344 98.289062 193.429688 100.695312 193.714844 102.9375 C 194.117188 106.035156 194.300781 108.8125 194.339844 111.183594 C 194.34375 111.199219 194.34375 111.21875 194.34375 111.238281 C 194.347656 113.902344 192.449219 116.210938 189.664062 117.796875 C 188.90625 118.230469 188.082031 118.601562 187.210938 118.917969 C 185.871094 119.40625 184.429688 119.75 182.953125 119.925781 C 182.351562 119.996094 181.742188 120.039062 181.140625 120.054688 C 181.054688 120.054688 180.976562 120.054688 180.890625 120.054688 " fill-opacity="1" fill-rule="nonzero"/><path fill="#386d1b" d="M 161.792969 62.941406 C 162.113281 62.796875 162.476562 62.597656 162.859375 62.363281 C 162.253906 60.328125 165.605469 55.792969 168.871094 55.410156 C 168.789062 55.257812 168.710938 55.144531 168.550781 55.023438 C 168.332031 54.882812 168.070312 54.816406 167.773438 54.816406 C 166.199219 54.816406 163.648438 56.6875 161.941406 58.710938 C 163.644531 56.675781 166.199219 54.796875 167.773438 54.796875 C 168.0625 54.796875 168.324219 54.863281 168.539062 55.007812 C 170.566406 56.355469 164.632812 61.707031 161.792969 62.941406 " fill-opacity="1" fill-rule="nonzero"/><path fill="#386d1b" d="M 160.832031 63.210938 C 160.652344 63.210938 160.519531 63.160156 160.441406 63.050781 C 159.714844 62.125 160.546875 60.371094 161.941406 58.710938 C 160.554688 60.371094 159.730469 62.125 160.453125 63.046875 C 160.535156 63.148438 160.671875 63.195312 160.84375 63.195312 C 161.085938 63.195312 161.410156 63.105469 161.792969 62.941406 C 161.40625 63.113281 161.078125 63.210938 160.832031 63.210938 " fill-opacity="1" fill-rule="nonzero"/><path fill="#265613" d="M 160.84375 63.195312 C 160.671875 63.195312 160.535156 63.148438 160.453125 63.046875 C 159.730469 62.125 160.554688 60.371094 161.941406 58.710938 C 163.648438 56.6875 166.199219 54.816406 167.773438 54.816406 C 168.070312 54.816406 168.332031 54.882812 168.550781 55.023438 C 168.710938 55.144531 168.789062 55.257812 168.871094 55.410156 C 165.605469 55.792969 162.253906 60.328125 162.859375 62.363281 C 162.476562 62.597656 162.113281 62.796875 161.792969 62.941406 C 161.410156 63.105469 161.085938 63.195312 160.84375 63.195312 " fill-opacity="1" fill-rule="nonzero"/><path fill="#80a836" d="M 176.523438 112.621094 C 172.171875 112.621094 168.160156 110.023438 168.953125 108.386719 C 170.117188 106 175.347656 99.28125 173.234375 86.882812 C 171.664062 77.664062 165.144531 70.160156 164.566406 69.234375 C 163.910156 68.171875 165.191406 67.242188 167 67.242188 C 167.605469 67.242188 168.28125 67.347656 168.953125 67.585938 C 174.195312 69.464844 179.414062 75.484375 181.859375 82.117188 C 185.417969 91.765625 187.707031 105.988281 182.3125 110.605469 C 180.609375 112.066406 178.53125 112.621094 176.523438 112.621094 M 167.875 70.605469 C 170.363281 73.945312 180.210938 93.652344 170.867188 107.972656 C 170.207031 108.980469 173.449219 110.648438 175.367188 110.648438 C 175.960938 110.648438 176.429688 110.488281 176.613281 110.097656 C 179.105469 104.808594 181.152344 84.917969 167.875 70.605469 M 172.324219 72.074219 C 174.40625 74.6875 183.914062 95.136719 178.15625 109.578125 C 177.984375 110.019531 178.234375 110.222656 178.703125 110.222656 C 179.816406 110.222656 182.171875 109.089844 183.195312 107.214844 C 184.660156 104.539062 184.722656 83.96875 172.324219 72.074219 " fill-opacity="1" fill-rule="nonzero"/><path fill="#8eb03b" d="M 175.367188 110.648438 C 173.449219 110.648438 170.207031 108.980469 170.867188 107.972656 C 180.210938 93.652344 170.363281 73.945312 167.875 70.605469 C 181.152344 84.917969 179.105469 104.808594 176.613281 110.097656 C 176.429688 110.488281 175.960938 110.648438 175.367188 110.648438 " fill-opacity="1" fill-rule="nonzero"/><path fill="#8eb03b" d="M 178.703125 110.222656 C 178.234375 110.222656 177.984375 110.019531 178.15625 109.578125 C 183.914062 95.136719 174.40625 74.6875 172.324219 72.074219 C 184.722656 83.96875 184.660156 104.539062 183.195312 107.214844 C 182.171875 109.089844 179.816406 110.222656 178.703125 110.222656 " fill-opacity="1" fill-rule="nonzero"/></svg>