<svg xmlns="http://www.w3.org/2000/svg" xmlns:xlink="http://www.w3.org/1999/xlink" width="500" zoomAndPan="magnify" viewBox="0 0 375 374.999991" height="500" preserveAspectRatio="xMidYMid meet" version="1.0"><defs><clipPath id="364b14c75b"><path d="M 191 113.324219 L 311.605469 113.324219 L 311.605469 261.824219 L 191 261.824219 Z M 191 113.324219 " clip-rule="nonzero"/></clipPath><clipPath id="bccb6020f9"><path d="M 152 113.324219 L 239 113.324219 L 239 261.824219 L 152 261.824219 Z M 152 113.324219 " clip-rule="nonzero"/></clipPath><clipPath id="7e75323cb4"><path d="M 234 238 L 311.605469 238 L 311.605469 246 L 234 246 Z M 234 238 " clip-rule="nonzero"/></clipPath><clipPath id="daf77e40f8"><path d="M 63.355469 152 L 87 152 L 87 176 L 63.355469 176 Z M 63.355469 152 " clip-rule="nonzero"/></clipPath><clipPath id="3bf74cb2a4"><path d="M 63.355469 168 L 87 168 L 87 192 L 63.355469 192 Z M 63.355469 168 " clip-rule="nonzero"/></clipPath><clipPath id="f47c0ca01f"><path d="M 63.355469 183 L 87 183 L 87 207 L 63.355469 207 Z M 63.355469 183 " clip-rule="nonzero"/></clipPath><clipPath id="cba33f8f99"><path d="M 63.355469 199 L 87 199 L 87 223 L 63.355469 223 Z M 63.355469 199 " clip-rule="nonzero"/></clipPath></defs><path fill="#4c4c4c" d="M 307.921875 257.488281 L 195.414062 257.488281 L 195.414062 117.660156 L 307.921875 117.660156 L 307.921875 257.488281 " fill-opacity="1" fill-rule="nonzero"/><g clip-path="url(#364b14c75b)"><path fill="#000000" d="M 311.792969 261.363281 L 191.527344 261.363281 L 191.527344 113.769531 L 311.792969 113.769531 L 311.792969 121.539062 L 199.289062 121.539062 L 199.289062 253.609375 L 311.792969 253.609375 L 311.792969 261.363281 " fill-opacity="1" fill-rule="nonzero"/></g><path fill="#7f7f7f" d="M 234.203125 187.574219 C 234.203125 226.191406 216.839844 257.488281 195.414062 257.488281 C 173.988281 257.488281 156.609375 226.191406 156.609375 187.574219 C 156.609375 148.953125 173.988281 117.660156 195.414062 117.660156 C 216.839844 117.660156 234.203125 148.953125 234.203125 187.574219 " fill-opacity="1" fill-rule="nonzero"/><g clip-path="url(#bccb6020f9)"><path fill="#000000" d="M 195.414062 121.539062 C 176.488281 121.539062 160.5 151.78125 160.5 187.574219 C 160.5 223.363281 176.488281 253.609375 195.414062 253.609375 C 214.335938 253.609375 230.328125 223.363281 230.328125 187.574219 C 230.328125 151.78125 214.335938 121.539062 195.414062 121.539062 Z M 195.414062 261.363281 C 171.488281 261.363281 152.738281 228.953125 152.738281 187.574219 C 152.738281 146.195312 171.488281 113.769531 195.414062 113.769531 C 219.339844 113.769531 238.089844 146.195312 238.089844 187.574219 C 238.089844 228.953125 219.339844 261.363281 195.414062 261.363281 " fill-opacity="1" fill-rule="nonzero"/></g><path fill="#ffa757" d="M 207.046875 148.726562 L 106.1875 148.726562 L 106.1875 164.265625 L 210.382812 164.265625 C 213.046875 164.265625 214.941406 161.613281 214.054688 159.082031 C 213.007812 156.105469 211.808594 153.304688 210.464844 150.746094 C 209.804688 149.480469 208.472656 148.726562 207.046875 148.726562 " fill-opacity="1" fill-rule="nonzero"/><path fill="#000000" d="M 110.0625 160.386719 L 210.382812 160.386719 C 209.414062 157.558594 208.285156 154.933594 207.035156 152.550781 L 207.046875 152.617188 L 110.0625 152.617188 Z M 210.382812 168.15625 L 102.300781 168.15625 L 102.300781 144.847656 L 207.046875 144.847656 C 209.953125 144.847656 212.574219 146.410156 213.90625 148.929688 C 215.320312 151.648438 216.609375 154.636719 217.714844 157.800781 C 218.546875 160.171875 218.171875 162.8125 216.71875 164.871094 C 215.265625 166.929688 212.898438 168.15625 210.382812 168.15625 " fill-opacity="1" fill-rule="nonzero"/><path fill="#ff8500" d="M 212.628906 164.265625 L 106.1875 164.265625 L 106.1875 179.804688 L 214.015625 179.804688 C 216.394531 179.804688 218.171875 177.691406 217.863281 175.347656 C 217.5 172.546875 217 169.828125 216.394531 167.214844 C 216.003906 165.476562 214.40625 164.265625 212.628906 164.265625 " fill-opacity="1" fill-rule="nonzero"/><path fill="#000000" d="M 110.0625 175.925781 L 214.015625 175.925781 C 213.679688 173.234375 213.207031 170.621094 212.617188 168.089844 L 212.628906 168.15625 L 110.0625 168.15625 Z M 214.015625 183.695312 L 102.300781 183.695312 L 102.300781 160.386719 L 212.628906 160.386719 C 216.261719 160.386719 219.367188 162.835938 220.1875 166.339844 C 220.820312 169.113281 221.332031 171.96875 221.707031 174.835938 C 222.003906 177.097656 221.316406 179.359375 219.824219 181.058594 C 218.359375 182.726562 216.246094 183.695312 214.015625 183.695312 " fill-opacity="1" fill-rule="nonzero"/><path fill="#ff8500" d="M 218.695312 187.574219 C 218.695312 186.171875 218.65625 184.800781 218.574219 183.425781 C 218.480469 181.394531 216.746094 179.804688 214.699219 179.804688 L 106.1875 179.804688 L 106.1875 195.34375 L 214.699219 195.34375 C 216.746094 195.34375 218.480469 193.753906 218.574219 191.722656 C 218.65625 190.347656 218.695312 188.972656 218.695312 187.574219 " fill-opacity="1" fill-rule="nonzero"/><path fill="#000000" d="M 110.0625 191.453125 L 214.699219 191.453125 C 214.769531 190.226562 214.808594 188.90625 214.808594 187.574219 C 214.808594 186.242188 214.769531 184.921875 214.699219 183.628906 L 110.0625 183.683594 Z M 214.699219 199.222656 L 102.300781 199.222656 L 102.300781 175.925781 L 214.699219 175.925781 C 218.84375 175.925781 222.246094 179.132812 222.460938 183.238281 C 222.527344 184.664062 222.570312 186.121094 222.570312 187.574219 C 222.570312 189.027344 222.527344 190.484375 222.460938 191.910156 C 222.246094 196.015625 218.84375 199.222656 214.699219 199.222656 " fill-opacity="1" fill-rule="nonzero"/><path fill="#ff8500" d="M 214.015625 195.34375 L 106.1875 195.34375 L 106.1875 210.882812 L 212.628906 210.882812 C 214.40625 210.882812 216.003906 209.671875 216.394531 207.933594 C 217 205.320312 217.5 202.601562 217.863281 199.800781 C 218.171875 197.457031 216.394531 195.34375 214.015625 195.34375 " fill-opacity="1" fill-rule="nonzero"/><path fill="#000000" d="M 110.0625 206.992188 L 212.628906 206.992188 C 213.207031 204.527344 213.679688 201.914062 214.015625 199.300781 L 214.015625 199.222656 L 110.0625 199.222656 Z M 212.628906 214.761719 L 102.300781 214.761719 L 102.300781 191.453125 L 214.015625 191.453125 C 216.246094 191.453125 218.359375 192.421875 219.824219 194.089844 C 221.316406 195.789062 222.003906 198.050781 221.707031 200.3125 C 221.332031 203.179688 220.820312 206.035156 220.1875 208.808594 C 219.367188 212.308594 216.261719 214.761719 212.628906 214.761719 " fill-opacity="1" fill-rule="nonzero"/><path fill="#875430" d="M 106.1875 210.882812 L 106.1875 226.421875 L 207.046875 226.421875 C 208.472656 226.421875 209.804688 225.667969 210.464844 224.402344 C 211.808594 221.84375 213.007812 219.042969 214.054688 216.066406 C 214.941406 213.535156 213.046875 210.882812 210.382812 210.882812 L 106.1875 210.882812 " fill-opacity="1" fill-rule="nonzero"/><path fill="#000000" d="M 110.0625 222.53125 L 207.046875 222.53125 C 208.285156 220.214844 209.414062 217.589844 210.398438 214.773438 L 110.0625 214.761719 Z M 207.046875 230.300781 L 102.300781 230.300781 L 102.300781 206.992188 L 210.382812 206.992188 C 212.898438 206.992188 215.265625 208.214844 216.71875 210.277344 C 218.171875 212.335938 218.546875 214.976562 217.714844 217.347656 C 216.609375 220.511719 215.320312 223.5 213.90625 226.207031 C 212.574219 228.738281 209.953125 230.300781 207.046875 230.300781 " fill-opacity="1" fill-rule="nonzero"/><path fill="#ffa757" d="M 187.652344 133.199219 L 102.300781 133.199219 L 106.1875 148.726562 L 201.898438 148.726562 C 205.152344 148.726562 207.035156 144.886719 204.921875 142.410156 C 199.988281 136.59375 194.054688 133.199219 187.652344 133.199219 " fill-opacity="1" fill-rule="nonzero"/><path fill="#000000" d="M 109.214844 144.847656 L 201.898438 144.847656 C 198.925781 141.347656 193.976562 137.078125 187.652344 137.078125 L 107.277344 137.078125 Z M 201.898438 152.617188 L 103.148438 152.617188 L 97.339844 129.308594 L 187.652344 129.308594 C 195.011719 129.308594 202.003906 132.972656 207.882812 139.894531 C 209.820312 142.183594 210.25 145.320312 208.972656 148.066406 C 207.679688 150.878906 204.964844 152.617188 201.898438 152.617188 " fill-opacity="1" fill-rule="nonzero"/><path fill="#875430" d="M 201.898438 226.421875 L 106.1875 226.421875 L 102.300781 241.949219 L 187.652344 241.949219 C 194.054688 241.949219 199.988281 238.554688 204.921875 232.738281 C 207.035156 230.257812 205.152344 226.421875 201.898438 226.421875 " fill-opacity="1" fill-rule="nonzero"/><path fill="#000000" d="M 107.277344 238.070312 L 187.652344 238.070312 C 193.976562 238.070312 198.925781 233.800781 201.964844 230.21875 L 201.898438 230.300781 L 109.214844 230.300781 Z M 187.652344 245.839844 L 97.339844 245.839844 L 103.148438 222.53125 L 201.898438 222.53125 C 204.964844 222.53125 207.679688 224.265625 208.972656 227.082031 C 210.25 229.828125 209.820312 232.964844 207.882812 235.253906 C 202.003906 242.175781 195.011719 245.839844 187.652344 245.839844 " fill-opacity="1" fill-rule="nonzero"/><g clip-path="url(#7e75323cb4)"><path fill="#000000" d="M 311.792969 245.839844 L 234.203125 245.839844 L 234.203125 238.070312 L 311.792969 238.070312 L 311.792969 245.839844 " fill-opacity="1" fill-rule="nonzero"/></g><path fill="#ffa757" d="M 67.386719 164.265625 C 67.386719 159.984375 70.855469 156.496094 75.144531 156.496094 C 79.4375 156.496094 82.90625 159.984375 82.90625 164.265625 C 82.90625 168.5625 79.4375 172.035156 75.144531 172.035156 C 70.855469 172.035156 67.386719 168.5625 67.386719 164.265625 " fill-opacity="1" fill-rule="nonzero"/><g clip-path="url(#daf77e40f8)"><path fill="#000000" d="M 75.144531 160.386719 C 73.007812 160.386719 71.273438 162.125 71.273438 164.265625 C 71.273438 166.40625 73.007812 168.15625 75.144531 168.15625 C 77.285156 168.15625 79.019531 166.40625 79.019531 164.265625 C 79.019531 162.125 77.285156 160.386719 75.144531 160.386719 Z M 75.144531 175.925781 C 68.730469 175.925781 63.511719 170.6875 63.511719 164.265625 C 63.511719 157.84375 68.730469 152.617188 75.144531 152.617188 C 81.5625 152.617188 86.78125 157.84375 86.78125 164.265625 C 86.78125 170.6875 81.5625 175.925781 75.144531 175.925781 " fill-opacity="1" fill-rule="nonzero"/></g><path fill="#ffa757" d="M 67.386719 179.804688 C 67.386719 175.507812 70.855469 172.035156 75.144531 172.035156 C 79.4375 172.035156 82.90625 175.507812 82.90625 179.804688 C 82.90625 184.101562 79.4375 187.574219 75.144531 187.574219 C 70.855469 187.574219 67.386719 184.101562 67.386719 179.804688 " fill-opacity="1" fill-rule="nonzero"/><g clip-path="url(#3bf74cb2a4)"><path fill="#000000" d="M 75.144531 175.925781 C 73.007812 175.925781 71.273438 177.664062 71.273438 179.804688 C 71.273438 181.945312 73.007812 183.695312 75.144531 183.695312 C 77.285156 183.695312 79.019531 181.945312 79.019531 179.804688 C 79.019531 177.664062 77.285156 175.925781 75.144531 175.925781 Z M 75.144531 191.453125 C 68.730469 191.453125 63.511719 186.226562 63.511719 179.804688 C 63.511719 173.382812 68.730469 168.15625 75.144531 168.15625 C 81.5625 168.15625 86.78125 173.382812 86.78125 179.804688 C 86.78125 186.226562 81.5625 191.453125 75.144531 191.453125 " fill-opacity="1" fill-rule="nonzero"/></g><path fill="#ffa757" d="M 67.386719 195.34375 C 67.386719 191.046875 70.855469 187.574219 75.144531 187.574219 C 79.4375 187.574219 82.90625 191.046875 82.90625 195.34375 C 82.90625 199.640625 79.4375 203.113281 75.144531 203.113281 C 70.855469 203.113281 67.386719 199.640625 67.386719 195.34375 " fill-opacity="1" fill-rule="nonzero"/><g clip-path="url(#f47c0ca01f)"><path fill="#000000" d="M 75.144531 191.453125 C 73.007812 191.453125 71.273438 193.203125 71.273438 195.34375 C 71.273438 197.484375 73.007812 199.222656 75.144531 199.222656 C 77.285156 199.222656 79.019531 197.484375 79.019531 195.34375 C 79.019531 193.203125 77.285156 191.453125 75.144531 191.453125 Z M 75.144531 206.992188 C 68.730469 206.992188 63.511719 201.765625 63.511719 195.34375 C 63.511719 188.921875 68.730469 183.695312 75.144531 183.695312 C 81.5625 183.695312 86.78125 188.921875 86.78125 195.34375 C 86.78125 201.765625 81.5625 206.992188 75.144531 206.992188 " fill-opacity="1" fill-rule="nonzero"/></g><path fill="#ffa757" d="M 67.386719 210.882812 C 67.386719 206.585938 70.855469 203.113281 75.144531 203.113281 C 79.4375 203.113281 82.90625 206.585938 82.90625 210.882812 C 82.90625 215.164062 79.4375 218.652344 75.144531 218.652344 C 70.855469 218.652344 67.386719 215.164062 67.386719 210.882812 " fill-opacity="1" fill-rule="nonzero"/><g clip-path="url(#cba33f8f99)"><path fill="#000000" d="M 75.144531 206.992188 C 73.007812 206.992188 71.273438 208.742188 71.273438 210.882812 C 71.273438 213.023438 73.007812 214.761719 75.144531 214.761719 C 77.285156 214.761719 79.019531 213.023438 79.019531 210.882812 C 79.019531 208.742188 77.285156 206.992188 75.144531 206.992188 Z M 75.144531 222.53125 C 68.730469 222.53125 63.511719 217.304688 63.511719 210.882812 C 63.511719 204.460938 68.730469 199.222656 75.144531 199.222656 C 81.5625 199.222656 86.78125 204.460938 86.78125 210.882812 C 86.78125 217.304688 81.5625 222.53125 75.144531 222.53125 " fill-opacity="1" fill-rule="nonzero"/></g><path fill="#ffa757" d="M 79.019531 148.726562 C 79.019531 144.445312 82.503906 140.96875 86.78125 140.96875 C 91.070312 140.96875 94.539062 144.445312 94.539062 148.726562 C 94.539062 153.023438 91.070312 156.496094 86.78125 156.496094 C 82.503906 156.496094 79.019531 153.023438 79.019531 148.726562 " fill-opacity="1" fill-rule="nonzero"/><path fill="#000000" d="M 86.78125 144.847656 C 84.640625 144.847656 82.90625 146.585938 82.90625 148.726562 C 82.90625 150.878906 84.640625 152.617188 86.78125 152.617188 C 88.933594 152.617188 90.667969 150.878906 90.667969 148.726562 C 90.667969 146.585938 88.933594 144.847656 86.78125 144.847656 Z M 86.78125 160.386719 C 80.363281 160.386719 75.144531 155.164062 75.144531 148.726562 C 75.144531 142.304688 80.363281 137.078125 86.78125 137.078125 C 93.210938 137.078125 98.425781 142.304688 98.425781 148.726562 C 98.425781 155.164062 93.210938 160.386719 86.78125 160.386719 " fill-opacity="1" fill-rule="nonzero"/><path fill="#ffa757" d="M 90.667969 140.96875 C 90.667969 136.675781 94.136719 133.199219 98.425781 133.199219 C 102.703125 133.199219 106.1875 136.675781 106.1875 140.96875 C 106.1875 145.253906 102.703125 148.726562 98.425781 148.726562 C 94.136719 148.726562 90.667969 145.253906 90.667969 140.96875 " fill-opacity="1" fill-rule="nonzero"/><path fill="#000000" d="M 98.425781 137.078125 C 96.289062 137.078125 94.539062 138.816406 94.539062 140.96875 C 94.539062 143.109375 96.289062 144.847656 98.425781 144.847656 C 100.566406 144.847656 102.300781 143.109375 102.300781 140.96875 C 102.300781 138.816406 100.566406 137.078125 98.425781 137.078125 Z M 98.425781 152.617188 C 92.011719 152.617188 86.78125 147.394531 86.78125 140.96875 C 86.78125 134.535156 92.011719 129.308594 98.425781 129.308594 C 104.84375 129.308594 110.0625 134.535156 110.0625 140.96875 C 110.0625 147.394531 104.84375 152.617188 98.425781 152.617188 " fill-opacity="1" fill-rule="nonzero"/><path fill="#ffa757" d="M 79.019531 164.265625 C 79.019531 159.984375 82.503906 156.496094 86.78125 156.496094 C 91.070312 156.496094 94.539062 159.984375 94.539062 164.265625 C 94.539062 168.5625 91.070312 172.035156 86.78125 172.035156 C 82.503906 172.035156 79.019531 168.5625 79.019531 164.265625 " fill-opacity="1" fill-rule="nonzero"/><path fill="#000000" d="M 86.78125 160.386719 C 84.640625 160.386719 82.90625 162.125 82.90625 164.265625 C 82.90625 166.40625 84.640625 168.15625 86.78125 168.15625 C 88.933594 168.15625 90.667969 166.40625 90.667969 164.265625 C 90.667969 162.125 88.933594 160.386719 86.78125 160.386719 Z M 86.78125 175.925781 C 80.363281 175.925781 75.144531 170.6875 75.144531 164.265625 C 75.144531 157.84375 80.363281 152.617188 86.78125 152.617188 C 93.210938 152.617188 98.425781 157.84375 98.425781 164.265625 C 98.425781 170.6875 93.210938 175.925781 86.78125 175.925781 " fill-opacity="1" fill-rule="nonzero"/><path fill="#ffa757" d="M 90.667969 156.496094 C 90.667969 152.214844 94.136719 148.726562 98.425781 148.726562 C 102.703125 148.726562 106.1875 152.214844 106.1875 156.496094 C 106.1875 160.792969 102.703125 164.265625 98.425781 164.265625 C 94.136719 164.265625 90.667969 160.792969 90.667969 156.496094 " fill-opacity="1" fill-rule="nonzero"/><path fill="#000000" d="M 98.425781 152.617188 C 96.289062 152.617188 94.539062 154.355469 94.539062 156.496094 C 94.539062 158.648438 96.289062 160.386719 98.425781 160.386719 C 100.566406 160.386719 102.300781 158.648438 102.300781 156.496094 C 102.300781 154.355469 100.566406 152.617188 98.425781 152.617188 Z M 98.425781 168.15625 C 92.011719 168.15625 86.78125 162.917969 86.78125 156.496094 C 86.78125 150.074219 92.011719 144.847656 98.425781 144.847656 C 104.84375 144.847656 110.0625 150.074219 110.0625 156.496094 C 110.0625 162.917969 104.84375 168.15625 98.425781 168.15625 " fill-opacity="1" fill-rule="nonzero"/><path fill="#ffa757" d="M 79.019531 179.804688 C 79.019531 175.507812 82.503906 172.035156 86.78125 172.035156 C 91.070312 172.035156 94.539062 175.507812 94.539062 179.804688 C 94.539062 184.101562 91.070312 187.574219 86.78125 187.574219 C 82.503906 187.574219 79.019531 184.101562 79.019531 179.804688 " fill-opacity="1" fill-rule="nonzero"/><path fill="#000000" d="M 86.78125 175.925781 C 84.640625 175.925781 82.90625 177.664062 82.90625 179.804688 C 82.90625 181.945312 84.640625 183.695312 86.78125 183.695312 C 88.933594 183.695312 90.667969 181.945312 90.667969 179.804688 C 90.667969 177.664062 88.933594 175.925781 86.78125 175.925781 Z M 86.78125 191.453125 C 80.363281 191.453125 75.144531 186.226562 75.144531 179.804688 C 75.144531 173.382812 80.363281 168.15625 86.78125 168.15625 C 93.210938 168.15625 98.425781 173.382812 98.425781 179.804688 C 98.425781 186.226562 93.210938 191.453125 86.78125 191.453125 " fill-opacity="1" fill-rule="nonzero"/><path fill="#ffa757" d="M 90.667969 172.035156 C 90.667969 167.753906 94.136719 164.265625 98.425781 164.265625 C 102.703125 164.265625 106.1875 167.753906 106.1875 172.035156 C 106.1875 176.332031 102.703125 179.804688 98.425781 179.804688 C 94.136719 179.804688 90.667969 176.332031 90.667969 172.035156 " fill-opacity="1" fill-rule="nonzero"/><path fill="#000000" d="M 98.425781 168.15625 C 96.289062 168.15625 94.539062 169.894531 94.539062 172.035156 C 94.539062 174.175781 96.289062 175.925781 98.425781 175.925781 C 100.566406 175.925781 102.300781 174.175781 102.300781 172.035156 C 102.300781 169.894531 100.566406 168.15625 98.425781 168.15625 Z M 98.425781 183.695312 C 92.011719 183.695312 86.78125 178.457031 86.78125 172.035156 C 86.78125 165.613281 92.011719 160.386719 98.425781 160.386719 C 104.84375 160.386719 110.0625 165.613281 110.0625 172.035156 C 110.0625 178.457031 104.84375 183.695312 98.425781 183.695312 " fill-opacity="1" fill-rule="nonzero"/><path fill="#ffa757" d="M 79.019531 195.34375 C 79.019531 191.046875 82.503906 187.574219 86.78125 187.574219 C 91.070312 187.574219 94.539062 191.046875 94.539062 195.34375 C 94.539062 199.640625 91.070312 203.113281 86.78125 203.113281 C 82.503906 203.113281 79.019531 199.640625 79.019531 195.34375 " fill-opacity="1" fill-rule="nonzero"/><path fill="#000000" d="M 86.78125 191.453125 C 84.640625 191.453125 82.90625 193.203125 82.90625 195.34375 C 82.90625 197.484375 84.640625 199.222656 86.78125 199.222656 C 88.933594 199.222656 90.667969 197.484375 90.667969 195.34375 C 90.667969 193.203125 88.933594 191.453125 86.78125 191.453125 Z M 86.78125 206.992188 C 80.363281 206.992188 75.144531 201.765625 75.144531 195.34375 C 75.144531 188.921875 80.363281 183.695312 86.78125 183.695312 C 93.210938 183.695312 98.425781 188.921875 98.425781 195.34375 C 98.425781 201.765625 93.210938 206.992188 86.78125 206.992188 " fill-opacity="1" fill-rule="nonzero"/><path fill="#ffa757" d="M 90.667969 187.574219 C 90.667969 183.277344 94.136719 179.804688 98.425781 179.804688 C 102.703125 179.804688 106.1875 183.277344 106.1875 187.574219 C 106.1875 191.871094 102.703125 195.34375 98.425781 195.34375 C 94.136719 195.34375 90.667969 191.871094 90.667969 187.574219 " fill-opacity="1" fill-rule="nonzero"/><path fill="#000000" d="M 98.425781 183.695312 C 96.289062 183.695312 94.539062 185.433594 94.539062 187.574219 C 94.539062 189.714844 96.289062 191.453125 98.425781 191.453125 C 100.566406 191.453125 102.300781 189.714844 102.300781 187.574219 C 102.300781 185.433594 100.566406 183.695312 98.425781 183.695312 Z M 98.425781 199.222656 C 92.011719 199.222656 86.78125 193.996094 86.78125 187.574219 C 86.78125 181.152344 92.011719 175.925781 98.425781 175.925781 C 104.84375 175.925781 110.0625 181.152344 110.0625 187.574219 C 110.0625 193.996094 104.84375 199.222656 98.425781 199.222656 " fill-opacity="1" fill-rule="nonzero"/><path fill="#ffa757" d="M 79.019531 210.882812 C 79.019531 206.585938 82.503906 203.113281 86.78125 203.113281 C 91.070312 203.113281 94.539062 206.585938 94.539062 210.882812 C 94.539062 215.164062 91.070312 218.652344 86.78125 218.652344 C 82.503906 218.652344 79.019531 215.164062 79.019531 210.882812 " fill-opacity="1" fill-rule="nonzero"/><path fill="#000000" d="M 86.78125 206.992188 C 84.640625 206.992188 82.90625 208.742188 82.90625 210.882812 C 82.90625 213.023438 84.640625 214.761719 86.78125 214.761719 C 88.933594 214.761719 90.667969 213.023438 90.667969 210.882812 C 90.667969 208.742188 88.933594 206.992188 86.78125 206.992188 Z M 86.78125 222.53125 C 80.363281 222.53125 75.144531 217.304688 75.144531 210.882812 C 75.144531 204.460938 80.363281 199.222656 86.78125 199.222656 C 93.210938 199.222656 98.425781 204.460938 98.425781 210.882812 C 98.425781 217.304688 93.210938 222.53125 86.78125 222.53125 " fill-opacity="1" fill-rule="nonzero"/><path fill="#ffa757" d="M 90.667969 203.113281 C 90.667969 198.816406 94.136719 195.34375 98.425781 195.34375 C 102.703125 195.34375 106.1875 198.816406 106.1875 203.113281 C 106.1875 207.394531 102.703125 210.882812 98.425781 210.882812 C 94.136719 210.882812 90.667969 207.394531 90.667969 203.113281 " fill-opacity="1" fill-rule="nonzero"/><path fill="#000000" d="M 98.425781 199.222656 C 96.289062 199.222656 94.539062 200.972656 94.539062 203.113281 C 94.539062 205.253906 96.289062 206.992188 98.425781 206.992188 C 100.566406 206.992188 102.300781 205.253906 102.300781 203.113281 C 102.300781 200.972656 100.566406 199.222656 98.425781 199.222656 Z M 98.425781 214.761719 C 92.011719 214.761719 86.78125 209.535156 86.78125 203.113281 C 86.78125 196.691406 92.011719 191.453125 98.425781 191.453125 C 104.84375 191.453125 110.0625 196.691406 110.0625 203.113281 C 110.0625 209.535156 104.84375 214.761719 98.425781 214.761719 " fill-opacity="1" fill-rule="nonzero"/><path fill="#ffa757" d="M 79.019531 226.421875 C 79.019531 222.125 82.503906 218.652344 86.78125 218.652344 C 91.070312 218.652344 94.539062 222.125 94.539062 226.421875 C 94.539062 230.703125 91.070312 234.179688 86.78125 234.179688 C 82.503906 234.179688 79.019531 230.703125 79.019531 226.421875 " fill-opacity="1" fill-rule="nonzero"/><path fill="#000000" d="M 86.78125 222.53125 C 84.640625 222.53125 82.90625 224.265625 82.90625 226.421875 C 82.90625 228.5625 84.640625 230.300781 86.78125 230.300781 C 88.933594 230.300781 90.667969 228.5625 90.667969 226.421875 C 90.667969 224.265625 88.933594 222.53125 86.78125 222.53125 Z M 86.78125 238.070312 C 80.363281 238.070312 75.144531 232.84375 75.144531 226.421875 C 75.144531 219.984375 80.363281 214.761719 86.78125 214.761719 C 93.210938 214.761719 98.425781 219.984375 98.425781 226.421875 C 98.425781 232.84375 93.210938 238.070312 86.78125 238.070312 " fill-opacity="1" fill-rule="nonzero"/><path fill="#ffa757" d="M 90.667969 218.652344 C 90.667969 214.355469 94.136719 210.882812 98.425781 210.882812 C 102.703125 210.882812 106.1875 214.355469 106.1875 218.652344 C 106.1875 222.933594 102.703125 226.421875 98.425781 226.421875 C 94.136719 226.421875 90.667969 222.933594 90.667969 218.652344 " fill-opacity="1" fill-rule="nonzero"/><path fill="#000000" d="M 98.425781 214.761719 C 96.289062 214.761719 94.539062 216.496094 94.539062 218.652344 C 94.539062 220.792969 96.289062 222.53125 98.425781 222.53125 C 100.566406 222.53125 102.300781 220.792969 102.300781 218.652344 C 102.300781 216.496094 100.566406 214.761719 98.425781 214.761719 Z M 98.425781 230.300781 C 92.011719 230.300781 86.78125 225.074219 86.78125 218.652344 C 86.78125 212.230469 92.011719 206.992188 98.425781 206.992188 C 104.84375 206.992188 110.0625 212.230469 110.0625 218.652344 C 110.0625 225.074219 104.84375 230.300781 98.425781 230.300781 " fill-opacity="1" fill-rule="nonzero"/><path fill="#ffa757" d="M 90.667969 234.179688 C 90.667969 229.894531 94.136719 226.421875 98.425781 226.421875 C 102.703125 226.421875 106.1875 229.894531 106.1875 234.179688 C 106.1875 238.472656 102.703125 241.949219 98.425781 241.949219 C 94.136719 241.949219 90.667969 238.472656 90.667969 234.179688 " fill-opacity="1" fill-rule="nonzero"/><path fill="#000000" d="M 98.425781 230.300781 C 96.289062 230.300781 94.539062 232.035156 94.539062 234.179688 C 94.539062 236.332031 96.289062 238.070312 98.425781 238.070312 C 100.566406 238.070312 102.300781 236.332031 102.300781 234.179688 C 102.300781 232.035156 100.566406 230.300781 98.425781 230.300781 Z M 98.425781 245.839844 C 92.011719 245.839844 86.78125 240.613281 86.78125 234.179688 C 86.78125 227.753906 92.011719 222.53125 98.425781 222.53125 C 104.84375 222.53125 110.0625 227.753906 110.0625 234.179688 C 110.0625 240.613281 104.84375 245.839844 98.425781 245.839844 " fill-opacity="1" fill-rule="nonzero"/><path fill="#ffa757" d="M 117.820312 226.421875 C 117.820312 230.703125 114.351562 234.179688 110.0625 234.179688 C 105.769531 234.179688 102.300781 230.703125 102.300781 226.421875 C 102.300781 222.125 105.769531 218.652344 110.0625 218.652344 C 114.351562 218.652344 117.820312 222.125 117.820312 226.421875 " fill-opacity="1" fill-rule="nonzero"/><path fill="#000000" d="M 110.0625 222.53125 C 107.921875 222.53125 106.1875 224.265625 106.1875 226.421875 C 106.1875 228.5625 107.921875 230.300781 110.0625 230.300781 C 112.199219 230.300781 113.949219 228.5625 113.949219 226.421875 C 113.949219 224.265625 112.199219 222.53125 110.0625 222.53125 Z M 110.0625 238.070312 C 103.644531 238.070312 98.425781 232.84375 98.425781 226.421875 C 98.425781 219.984375 103.644531 214.761719 110.0625 214.761719 C 116.476562 214.761719 121.695312 219.984375 121.695312 226.421875 C 121.695312 232.84375 116.476562 238.070312 110.0625 238.070312 " fill-opacity="1" fill-rule="nonzero"/><path fill="#ffa757" d="M 117.820312 210.882812 C 117.820312 215.164062 114.351562 218.652344 110.0625 218.652344 C 105.769531 218.652344 102.300781 215.164062 102.300781 210.882812 C 102.300781 206.585938 105.769531 203.113281 110.0625 203.113281 C 114.351562 203.113281 117.820312 206.585938 117.820312 210.882812 " fill-opacity="1" fill-rule="nonzero"/><path fill="#000000" d="M 110.0625 206.992188 C 107.921875 206.992188 106.1875 208.742188 106.1875 210.882812 C 106.1875 213.023438 107.921875 214.761719 110.0625 214.761719 C 112.199219 214.761719 113.949219 213.023438 113.949219 210.882812 C 113.949219 208.742188 112.199219 206.992188 110.0625 206.992188 Z M 110.0625 222.53125 C 103.644531 222.53125 98.425781 217.304688 98.425781 210.882812 C 98.425781 204.460938 103.644531 199.222656 110.0625 199.222656 C 116.476562 199.222656 121.695312 204.460938 121.695312 210.882812 C 121.695312 217.304688 116.476562 222.53125 110.0625 222.53125 " fill-opacity="1" fill-rule="nonzero"/><path fill="#ffa757" d="M 117.820312 195.34375 C 117.820312 199.640625 114.351562 203.113281 110.0625 203.113281 C 105.769531 203.113281 102.300781 199.640625 102.300781 195.34375 C 102.300781 191.046875 105.769531 187.574219 110.0625 187.574219 C 114.351562 187.574219 117.820312 191.046875 117.820312 195.34375 " fill-opacity="1" fill-rule="nonzero"/><path fill="#000000" d="M 110.0625 191.453125 C 107.921875 191.453125 106.1875 193.203125 106.1875 195.34375 C 106.1875 197.484375 107.921875 199.222656 110.0625 199.222656 C 112.199219 199.222656 113.949219 197.484375 113.949219 195.34375 C 113.949219 193.203125 112.199219 191.453125 110.0625 191.453125 Z M 110.0625 206.992188 C 103.644531 206.992188 98.425781 201.765625 98.425781 195.34375 C 98.425781 188.921875 103.644531 183.695312 110.0625 183.695312 C 116.476562 183.695312 121.695312 188.921875 121.695312 195.34375 C 121.695312 201.765625 116.476562 206.992188 110.0625 206.992188 " fill-opacity="1" fill-rule="nonzero"/><path fill="#ffa757" d="M 117.820312 179.804688 C 117.820312 184.101562 114.351562 187.574219 110.0625 187.574219 C 105.769531 187.574219 102.300781 184.101562 102.300781 179.804688 C 102.300781 175.507812 105.769531 172.035156 110.0625 172.035156 C 114.351562 172.035156 117.820312 175.507812 117.820312 179.804688 " fill-opacity="1" fill-rule="nonzero"/><path fill="#000000" d="M 110.0625 175.925781 C 107.921875 175.925781 106.1875 177.664062 106.1875 179.804688 C 106.1875 181.945312 107.921875 183.695312 110.0625 183.695312 C 112.199219 183.695312 113.949219 181.945312 113.949219 179.804688 C 113.949219 177.664062 112.199219 175.925781 110.0625 175.925781 Z M 110.0625 191.453125 C 103.644531 191.453125 98.425781 186.226562 98.425781 179.804688 C 98.425781 173.382812 103.644531 168.15625 110.0625 168.15625 C 116.476562 168.15625 121.695312 173.382812 121.695312 179.804688 C 121.695312 186.226562 116.476562 191.453125 110.0625 191.453125 " fill-opacity="1" fill-rule="nonzero"/><path fill="#ffa757" d="M 117.820312 164.265625 C 117.820312 168.5625 114.351562 172.035156 110.0625 172.035156 C 105.769531 172.035156 102.300781 168.5625 102.300781 164.265625 C 102.300781 159.984375 105.769531 156.496094 110.0625 156.496094 C 114.351562 156.496094 117.820312 159.984375 117.820312 164.265625 " fill-opacity="1" fill-rule="nonzero"/><path fill="#000000" d="M 110.0625 160.386719 C 107.921875 160.386719 106.1875 162.125 106.1875 164.265625 C 106.1875 166.40625 107.921875 168.15625 110.0625 168.15625 C 112.199219 168.15625 113.949219 166.40625 113.949219 164.265625 C 113.949219 162.125 112.199219 160.386719 110.0625 160.386719 Z M 110.0625 175.925781 C 103.644531 175.925781 98.425781 170.6875 98.425781 164.265625 C 98.425781 157.84375 103.644531 152.617188 110.0625 152.617188 C 116.476562 152.617188 121.695312 157.84375 121.695312 164.265625 C 121.695312 170.6875 116.476562 175.925781 110.0625 175.925781 " fill-opacity="1" fill-rule="nonzero"/><path fill="#ffa757" d="M 117.820312 148.726562 C 117.820312 153.023438 114.351562 156.496094 110.0625 156.496094 C 105.769531 156.496094 102.300781 153.023438 102.300781 148.726562 C 102.300781 144.445312 105.769531 140.96875 110.0625 140.96875 C 114.351562 140.96875 117.820312 144.445312 117.820312 148.726562 " fill-opacity="1" fill-rule="nonzero"/><path fill="#000000" d="M 110.0625 144.847656 C 107.921875 144.847656 106.1875 146.585938 106.1875 148.726562 C 106.1875 150.878906 107.921875 152.617188 110.0625 152.617188 C 112.199219 152.617188 113.949219 150.878906 113.949219 148.726562 C 113.949219 146.585938 112.199219 144.847656 110.0625 144.847656 Z M 110.0625 160.386719 C 103.644531 160.386719 98.425781 155.164062 98.425781 148.726562 C 98.425781 142.304688 103.644531 137.078125 110.0625 137.078125 C 116.476562 137.078125 121.695312 142.304688 121.695312 148.726562 C 121.695312 155.164062 116.476562 160.386719 110.0625 160.386719 " fill-opacity="1" fill-rule="nonzero"/><path fill="#ffa757" d="M 129.457031 210.882812 C 129.457031 215.164062 125.984375 218.652344 121.695312 218.652344 C 117.417969 218.652344 113.949219 215.164062 113.949219 210.882812 C 113.949219 206.585938 117.417969 203.113281 121.695312 203.113281 C 125.984375 203.113281 129.457031 206.585938 129.457031 210.882812 " fill-opacity="1" fill-rule="nonzero"/><path fill="#000000" d="M 121.695312 206.992188 C 119.558594 206.992188 117.820312 208.742188 117.820312 210.882812 C 117.820312 213.023438 119.558594 214.761719 121.695312 214.761719 C 123.847656 214.761719 125.582031 213.023438 125.582031 210.882812 C 125.582031 208.742188 123.847656 206.992188 121.695312 206.992188 Z M 121.695312 222.53125 C 115.28125 222.53125 110.0625 217.304688 110.0625 210.882812 C 110.0625 204.460938 115.28125 199.222656 121.695312 199.222656 C 128.125 199.222656 133.34375 204.460938 133.34375 210.882812 C 133.34375 217.304688 128.125 222.53125 121.695312 222.53125 " fill-opacity="1" fill-rule="nonzero"/><path fill="#ffa757" d="M 129.457031 195.34375 C 129.457031 199.640625 125.984375 203.113281 121.695312 203.113281 C 117.417969 203.113281 113.949219 199.640625 113.949219 195.34375 C 113.949219 191.046875 117.417969 187.574219 121.695312 187.574219 C 125.984375 187.574219 129.457031 191.046875 129.457031 195.34375 " fill-opacity="1" fill-rule="nonzero"/><path fill="#000000" d="M 121.695312 191.453125 C 119.558594 191.453125 117.820312 193.203125 117.820312 195.34375 C 117.820312 197.484375 119.558594 199.222656 121.695312 199.222656 C 123.847656 199.222656 125.582031 197.484375 125.582031 195.34375 C 125.582031 193.203125 123.847656 191.453125 121.695312 191.453125 Z M 121.695312 206.992188 C 115.28125 206.992188 110.0625 201.765625 110.0625 195.34375 C 110.0625 188.921875 115.28125 183.695312 121.695312 183.695312 C 128.125 183.695312 133.34375 188.921875 133.34375 195.34375 C 133.34375 201.765625 128.125 206.992188 121.695312 206.992188 " fill-opacity="1" fill-rule="nonzero"/><path fill="#ffa757" d="M 129.457031 179.804688 C 129.457031 184.101562 125.984375 187.574219 121.695312 187.574219 C 117.417969 187.574219 113.949219 184.101562 113.949219 179.804688 C 113.949219 175.507812 117.417969 172.035156 121.695312 172.035156 C 125.984375 172.035156 129.457031 175.507812 129.457031 179.804688 " fill-opacity="1" fill-rule="nonzero"/><path fill="#000000" d="M 121.695312 175.925781 C 119.558594 175.925781 117.820312 177.664062 117.820312 179.804688 C 117.820312 181.945312 119.558594 183.695312 121.695312 183.695312 C 123.847656 183.695312 125.582031 181.945312 125.582031 179.804688 C 125.582031 177.664062 123.847656 175.925781 121.695312 175.925781 Z M 121.695312 191.453125 C 115.28125 191.453125 110.0625 186.226562 110.0625 179.804688 C 110.0625 173.382812 115.28125 168.15625 121.695312 168.15625 C 128.125 168.15625 133.34375 173.382812 133.34375 179.804688 C 133.34375 186.226562 128.125 191.453125 121.695312 191.453125 " fill-opacity="1" fill-rule="nonzero"/><path fill="#ffa757" d="M 129.457031 164.265625 C 129.457031 168.5625 125.984375 172.035156 121.695312 172.035156 C 117.417969 172.035156 113.949219 168.5625 113.949219 164.265625 C 113.949219 159.984375 117.417969 156.496094 121.695312 156.496094 C 125.984375 156.496094 129.457031 159.984375 129.457031 164.265625 " fill-opacity="1" fill-rule="nonzero"/><path fill="#000000" d="M 121.695312 160.386719 C 119.558594 160.386719 117.820312 162.125 117.820312 164.265625 C 117.820312 166.40625 119.558594 168.15625 121.695312 168.15625 C 123.847656 168.15625 125.582031 166.40625 125.582031 164.265625 C 125.582031 162.125 123.847656 160.386719 121.695312 160.386719 Z M 121.695312 175.925781 C 115.28125 175.925781 110.0625 170.6875 110.0625 164.265625 C 110.0625 157.84375 115.28125 152.617188 121.695312 152.617188 C 128.125 152.617188 133.34375 157.84375 133.34375 164.265625 C 133.34375 170.6875 128.125 175.925781 121.695312 175.925781 " fill-opacity="1" fill-rule="nonzero"/></svg>