<svg xmlns="http://www.w3.org/2000/svg" xmlns:xlink="http://www.w3.org/1999/xlink" width="500" zoomAndPan="magnify" viewBox="0 0 375 374.999991" height="500" preserveAspectRatio="xMidYMid meet" version="1.0"><defs><clipPath id="d9cbaa706d"><path d="M 162 308 L 213 308 L 213 374.855469 L 162 374.855469 Z M 162 308 " clip-rule="nonzero"/></clipPath></defs><path fill="#82a7c9" d="M 265.023438 69.699219 C 266.378906 69.5 267.75 69.175781 268.902344 68.796875 C 272.714844 67.53125 275.804688 65.25 277.34375 61.4375 C 279.554688 55.949219 280.207031 50.703125 282.367188 46.5625 C 276.664062 47.261719 271.167969 49.257812 267.835938 53.773438 C 264.492188 58.300781 264.179688 64.234375 265.023438 69.699219 M 245.886719 113.925781 C 237.050781 113.921875 226.980469 115.816406 221.363281 122.921875 C 217.695312 127.578125 216.734375 133.460938 217.148438 139.316406 C 219.5 137.347656 222.371094 136.074219 225.191406 134.914062 C 229.292969 133.238281 233.253906 131.71875 237.195312 129.65625 C 241.773438 127.261719 244.546875 123.503906 245.519531 118.449219 C 245.769531 117.128906 245.90625 115.503906 245.886719 113.925781 Z M 339.261719 181.039062 C 334.707031 182.691406 329.53125 185.695312 326.59375 189.007812 C 323.863281 192.09375 322.761719 195.515625 323.710938 199.613281 C 325.023438 205.234375 327.601562 210.019531 330.328125 215.035156 C 332.519531 219.082031 335.011719 223.632812 335.183594 228.355469 C 343.179688 223.3125 350.453125 216.25 351.460938 206.96875 C 352.550781 197.03125 346.09375 187.800781 339.261719 181.039062 Z M 267.113281 188.25 C 265.21875 183.09375 262.105469 178.21875 257.117188 175.699219 C 252.378906 173.300781 247.039062 173.558594 241.957031 175.03125 C 243.449219 176.164062 244.765625 177.527344 246.046875 178.902344 C 248.28125 181.289062 250.386719 183.601562 252.855469 185.753906 C 256.066406 188.542969 259.960938 189.363281 264.101562 188.847656 C 265.003906 188.738281 266.0625 188.535156 267.113281 188.25 Z M 264.332031 228.414062 C 255.34375 232.933594 245.820312 240.066406 243.859375 250.289062 C 242.320312 258.335938 245.890625 266.167969 250.890625 272.757812 C 251.960938 268.90625 254.449219 265.636719 256.9375 262.574219 C 260.085938 258.695312 263.179688 255.042969 265.925781 250.839844 C 269.34375 245.625 269.648438 240.019531 267.445312 234.28125 C 266.738281 232.441406 265.613281 230.273438 264.332031 228.414062 Z M 229.507812 11.015625 C 222.707031 13.203125 215.363281 17.128906 212.828125 23.9375 C 211.15625 28.433594 211.949219 33.25 213.789062 37.707031 C 215.152344 35.765625 216.960938 34.148438 218.785156 32.601562 C 221.628906 30.191406 224.425781 27.941406 227.039062 25.246094 C 230.039062 22.15625 231.085938 18.464844 230.378906 14.257812 C 230.214844 13.277344 229.902344 12.125 229.507812 11.015625 Z M 237.425781 78.011719 C 236.9375 82.078125 237.320312 86.386719 239.761719 89.699219 C 242.167969 92.949219 246.023438 94.550781 250.125 95.226562 C 248.34375 91.605469 247.996094 87.800781 246.46875 84.007812 C 245.828125 82.429688 244.980469 81.003906 243.542969 80.035156 C 242.042969 79.035156 239.683594 78.441406 237.425781 78.011719 Z M 258.335938 75.480469 C 258.226562 75.234375 258.136719 74.976562 258.070312 74.699219 C 256.035156 66.105469 256.109375 56.535156 261.566406 49.15625 C 269.03125 39.027344 282.921875 37.628906 294.496094 38.839844 C 295.339844 38.925781 296.089844 39.285156 296.679688 39.8125 C 297.265625 40.332031 297.710938 41.042969 297.894531 41.871094 C 297.910156 41.941406 297.925781 42.011719 297.9375 42.085938 C 297.960938 42.21875 297.96875 42.355469 297.984375 42.492188 C 297.996094 42.621094 297.996094 42.765625 297.984375 42.898438 C 297.984375 42.96875 297.96875 43.046875 297.96875 43.121094 C 297.875 43.960938 297.53125 44.71875 297 45.304688 C 296.46875 45.890625 295.761719 46.335938 294.941406 46.515625 C 293.109375 46.921875 291.054688 47.566406 289.867188 49.125 C 288.820312 50.503906 288.210938 52.757812 287.75 54.40625 C 286.785156 57.8125 285.898438 61.054688 284.5625 64.351562 C 282.15625 70.316406 277.359375 74.203125 271.355469 76.1875 C 270.070312 76.617188 268.652344 76.976562 267.203125 77.238281 C 271.914062 88.464844 281.476562 93.617188 294.199219 94.359375 C 299.582031 94.671875 305.113281 94.160156 310.402344 93.144531 C 311.996094 92.832031 313.699219 92.476562 315.332031 92.035156 C 317.679688 79.066406 317.726562 64.683594 311.4375 52.84375 C 306.570312 43.703125 298.589844 37.445312 288.777344 34.332031 C 282.703125 32.410156 276.132812 31.757812 269.707031 32.320312 C 269.632812 32.328125 269.5625 32.335938 269.503906 32.335938 C 266.1875 32.640625 262.925781 33.273438 259.789062 34.203125 C 251.585938 36.652344 243.472656 41.53125 239.085938 49.09375 C 235.234375 55.722656 235.09375 62.992188 237.234375 70.085938 C 244.667969 71.40625 250.414062 72.949219 253.699219 81.097656 C 254.386719 82.808594 254.875 84.585938 255.347656 86.367188 C 256.421875 90.40625 257.148438 94.417969 261.800781 95.453125 C 262.632812 95.636719 263.332031 96.074219 263.859375 96.667969 C 264.390625 97.257812 264.742188 98.011719 264.832031 98.851562 C 264.839844 98.925781 264.84375 98.996094 264.84375 99.070312 C 264.851562 99.207031 264.851562 99.34375 264.84375 99.476562 C 264.832031 99.617188 264.820312 99.75 264.800781 99.886719 C 264.785156 99.957031 264.773438 100.027344 264.753906 100.101562 C 264.570312 100.925781 264.136719 101.632812 263.546875 102.160156 C 262.953125 102.683594 262.195312 103.035156 261.355469 103.125 C 251.519531 104.148438 239.835938 102.917969 233.5 94.324219 C 229.101562 88.371094 228.78125 80.773438 230.238281 73.769531 C 229.851562 72.636719 229.515625 71.488281 229.226562 70.351562 C 226.355469 72.910156 222.804688 74.527344 218.765625 75.167969 C 216.652344 75.503906 214.644531 74.054688 214.3125 71.933594 C 213.972656 69.816406 215.425781 67.8125 217.546875 67.472656 C 221.304688 66.882812 224.289062 65.050781 226.3125 61.816406 C 227.164062 60.460938 228.050781 58.441406 228.289062 56.828125 C 228.320312 56.589844 228.375 56.359375 228.449219 56.136719 C 229.039062 52.386719 230.304688 48.707031 232.34375 45.179688 C 237.757812 35.859375 247.410156 29.769531 257.554688 26.738281 C 259.664062 26.109375 261.816406 25.601562 264.003906 25.21875 C 261.867188 20.644531 258.21875 16.539062 254.230469 13.773438 C 249.0625 10.183594 243.195312 8.574219 237.144531 9.28125 C 237.558594 10.542969 237.867188 11.816406 238.0625 12.984375 C 239.175781 19.625 237.34375 25.8125 232.617188 30.675781 C 229.820312 33.5625 226.867188 35.960938 223.816406 38.550781 C 222.421875 39.726562 220.375 41.445312 219.613281 43.140625 C 218.910156 44.675781 219.207031 46.472656 219.628906 48.046875 C 219.835938 48.832031 219.792969 49.628906 219.535156 50.34375 C 219.289062 51.0625 218.824219 51.714844 218.167969 52.199219 C 217.972656 52.339844 217.765625 52.464844 217.550781 52.566406 C 217.335938 52.667969 217.109375 52.75 216.878906 52.8125 C 216.089844 53.027344 215.292969 52.980469 214.574219 52.726562 C 213.859375 52.472656 213.207031 52.011719 212.726562 51.355469 C 206.492188 42.835938 201.601562 31.769531 205.523438 21.214844 C 209.445312 10.695312 220.414062 5.226562 230.632812 2.578125 C 230.9375 2.5 231.253906 2.457031 231.554688 2.449219 C 241.046875 -0.101562 250.609375 1.769531 258.671875 7.375 C 264.515625 11.425781 269.585938 17.558594 272.078125 24.371094 C 278.539062 24.136719 285.039062 24.964844 291.132812 26.90625 C 302.886719 30.636719 312.5 38.242188 318.3125 49.183594 C 325.355469 62.441406 325.652344 78.121094 323.136719 92.660156 C 337.609375 99.109375 345.472656 112.734375 344.863281 128.835938 C 344.601562 135.757812 342.710938 142.945312 339.144531 148.90625 C 337.15625 152.230469 334.554688 155.292969 331.378906 157.503906 C 336.960938 162.167969 341.4375 167.832031 343.679688 174.472656 C 352.738281 183.101562 360.628906 194.742188 359.203125 207.808594 C 357.441406 223.898438 342.519531 234.347656 328.953125 240.46875 C 328.1875 240.8125 327.367188 240.898438 326.605469 240.742188 C 325.839844 240.597656 325.109375 240.21875 324.535156 239.617188 C 324.445312 239.523438 324.355469 239.421875 324.28125 239.324219 C 324.226562 239.253906 324.175781 239.175781 324.121094 239.101562 C 324.066406 239.027344 324.019531 238.949219 323.972656 238.875 C 323.90625 238.765625 323.847656 238.648438 323.792969 238.53125 C 323.449219 237.765625 323.371094 236.949219 323.523438 236.1875 C 323.671875 235.421875 324.046875 234.691406 324.648438 234.113281 C 326.035156 232.777344 327.261719 231.1875 327.382812 229.199219 C 327.578125 226.03125 324.941406 221.457031 323.472656 218.746094 C 320.386719 213.054688 317.609375 207.765625 316.125 201.382812 C 314.789062 195.636719 315.988281 190.089844 319.511719 185.378906 C 323.050781 180.632812 329.230469 176.644531 335.171875 174.261719 C 332.804688 169.453125 328.808594 165.3125 324.667969 162.117188 C 317.738281 156.769531 309.265625 153.050781 300.851562 150.796875 C 298.96875 150.296875 297.085938 149.859375 295.1875 149.488281 C 295.125 149.476562 295.070312 149.464844 295.007812 149.453125 C 288.574219 148.207031 282.039062 147.71875 275.523438 147.945312 C 283.320312 152.28125 288.679688 159.183594 291.0625 168.285156 C 291.605469 170.359375 290.351562 172.496094 288.277344 173.039062 C 286.199219 173.578125 284.066406 172.332031 283.527344 170.253906 C 281.316406 161.804688 275.96875 156.039062 267.863281 152.964844 C 264.578125 151.722656 259.921875 150.695312 256.261719 150.707031 C 249.28125 152.480469 242.492188 155.105469 236.101562 158.492188 C 218.207031 167.988281 209.980469 183.144531 211.328125 203.175781 C 211.785156 210.015625 213.339844 216.886719 215.578125 223.363281 C 215.960938 224.472656 216.382812 225.632812 216.828125 226.792969 C 220.007812 223.929688 223.515625 221.453125 227.183594 219.25 C 236.023438 213.945312 245.429688 210.496094 254.824219 206.414062 C 258.59375 204.773438 267.472656 201 268.875 196.726562 C 268.980469 196.417969 269.039062 196.113281 269.070312 195.796875 C 267.695312 196.164062 266.308594 196.425781 265.050781 196.585938 C 258.703125 197.367188 252.625 195.886719 247.738281 191.625 C 245.058594 189.296875 242.773438 186.8125 240.355469 184.230469 C 239.152344 182.9375 237.578125 181.226562 235.980469 180.433594 C 234.222656 179.5625 232.183594 179.777344 230.324219 180.160156 C 229.496094 180.332031 228.679688 180.226562 227.957031 179.90625 C 227.234375 179.585938 226.605469 179.050781 226.179688 178.324219 C 226.132812 178.246094 226.085938 178.164062 226.046875 178.082031 C 225.992188 177.976562 225.941406 177.863281 225.894531 177.753906 C 225.851562 177.640625 225.816406 177.523438 225.785156 177.40625 C 225.757812 177.320312 225.734375 177.226562 225.714844 177.132812 C 225.542969 176.308594 225.648438 175.492188 225.972656 174.769531 C 226.289062 174.054688 226.824219 173.421875 227.542969 172.996094 C 237.351562 167.195312 249.789062 163.273438 260.628906 168.753906 C 268.714844 172.84375 273.308594 180.902344 275.628906 189.367188 C 276.921875 192.523438 277.363281 195.863281 276.273438 199.160156 C 273.847656 206.527344 264.5 210.707031 257.929688 213.554688 C 248.890625 217.488281 239.679688 220.832031 231.1875 225.9375 C 222.625 231.070312 215.390625 237.660156 211.800781 247.203125 C 207.285156 259.199219 206.980469 271.796875 214.175781 282.808594 C 224.6875 298.90625 246.691406 305.378906 265.019531 303.601562 C 287.832031 301.394531 305.378906 287.605469 311.941406 265.453125 C 315.363281 253.914062 314.699219 242.296875 305.15625 233.984375 C 302.636719 231.796875 299.757812 230.046875 296.714844 228.699219 C 291.585938 226.414062 285.78125 225.160156 280.175781 224.964844 C 277.597656 224.878906 274.582031 225.015625 271.769531 225.582031 C 272.929688 227.472656 273.929688 229.46875 274.640625 231.292969 C 277.824219 239.414062 277.28125 247.726562 272.449219 255.109375 C 269.539062 259.554688 266.3125 263.394531 262.980469 267.492188 C 261.292969 269.574219 258.992188 272.402344 258.34375 275.050781 C 257.695312 277.695312 258.683594 280.375 259.863281 282.71875 C 260.226562 283.464844 260.34375 284.261719 260.238281 285.015625 C 260.128906 285.785156 259.800781 286.515625 259.242188 287.117188 C 259.078125 287.296875 258.910156 287.453125 258.726562 287.582031 C 258.546875 287.722656 258.339844 287.839844 258.136719 287.949219 C 257.398438 288.324219 256.597656 288.429688 255.839844 288.324219 C 255.078125 288.21875 254.335938 287.894531 253.738281 287.335938 C 247.84375 281.878906 242.300781 275.382812 238.9375 268.039062 C 236.15625 261.96875 234.9375 255.433594 236.210938 248.820312 C 238.898438 234.804688 251.5625 225.597656 263.789062 220.046875 C 268.734375 217.648438 275.003906 216.988281 280.441406 217.175781 C 287.042969 217.398438 293.828125 218.886719 299.871094 221.570312 C 319.175781 230.144531 325.355469 247.617188 319.410156 267.660156 C 311.949219 292.867188 291.746094 308.832031 265.785156 311.351562 C 244.503906 313.414062 219.792969 305.65625 207.660156 287.0625 C 199.089844 273.9375 199.105469 258.804688 204.515625 244.453125 C 206.097656 240.253906 208.28125 236.445312 210.992188 233 C 209.945312 230.6875 209.023438 228.21875 208.21875 225.90625 C 205.753906 218.777344 204.0625 211.234375 203.554688 203.699219 C 202.003906 180.605469 211.84375 162.550781 232.457031 151.613281 C 239.375 147.941406 246.710938 145.113281 254.261719 143.179688 C 254.542969 143.078125 254.847656 143 255.148438 142.957031 C 266.335938 140.203125 277.976562 139.410156 289.433594 140.726562 C 287.296875 136.59375 284.578125 132.480469 282.011719 129.328125 C 274.640625 120.261719 265.1875 114.320312 253.679688 113.925781 C 253.707031 115.910156 253.539062 117.925781 253.226562 119.636719 C 251.875 127.144531 247.59375 133.019531 240.808594 136.566406 C 236.640625 138.75 232.476562 140.355469 228.15625 142.128906 C 226.011719 143.003906 223.09375 144.195312 221.496094 145.921875 C 220.039062 147.484375 219.59375 149.617188 219.425781 151.679688 C 219.359375 152.484375 219.046875 153.21875 218.574219 153.808594 C 218.097656 154.394531 217.445312 154.855469 216.671875 155.085938 C 216.429688 155.152344 216.1875 155.203125 215.953125 155.230469 C 215.710938 155.257812 215.464844 155.257812 215.21875 155.242188 C 214.40625 155.171875 213.683594 154.859375 213.089844 154.386719 C 212.5 153.910156 212.046875 153.265625 211.816406 152.484375 C 208.386719 141.144531 207.484375 127.9375 215.257812 118.101562 C 223.273438 107.945312 237.152344 105.644531 249.347656 106.222656 C 265.09375 105.132812 278.3125 112.425781 288.058594 124.410156 C 292.054688 129.320312 296.21875 136.058594 298.722656 142.261719 C 300.113281 142.566406 301.492188 142.902344 302.867188 143.269531 C 309.832031 145.136719 317.503906 148.207031 324.394531 152.484375 C 327.867188 151.144531 330.609375 148.011719 332.460938 144.921875 C 335.351562 140.078125 336.871094 134.160156 337.089844 128.550781 C 337.59375 115.128906 331.09375 104.132812 318.605469 99.21875 C 316.40625 99.863281 314.074219 100.375 311.882812 100.796875 C 305.953125 101.9375 299.789062 102.488281 293.757812 102.140625 C 276.3125 101.125 263.292969 92.652344 258.335938 75.480469 Z M 258.335938 75.480469 " fill-opacity="1" fill-rule="nonzero"/><path fill="#82a7c9" d="M 109.910156 69.699219 C 108.542969 69.5 107.183594 69.175781 106.023438 68.796875 C 102.214844 67.53125 99.125 65.25 97.589844 61.4375 C 95.375 55.949219 94.722656 50.703125 92.566406 46.5625 C 98.265625 47.261719 103.761719 49.257812 107.09375 53.773438 C 110.433594 58.300781 110.75 64.234375 109.910156 69.699219 M 129.042969 113.925781 C 137.875 113.921875 147.945312 115.816406 153.5625 122.921875 C 157.238281 127.578125 158.191406 133.460938 157.785156 139.316406 C 155.429688 137.347656 152.5625 136.074219 149.734375 134.914062 C 145.640625 133.238281 141.675781 131.71875 137.738281 129.65625 C 133.160156 127.261719 130.375 123.503906 129.410156 118.449219 C 129.164062 117.128906 129.019531 115.503906 129.042969 113.925781 Z M 35.675781 181.039062 C 40.222656 182.691406 45.40625 185.695312 48.339844 189.007812 C 51.074219 192.09375 52.175781 195.515625 51.222656 199.613281 C 49.914062 205.234375 47.328125 210.019531 44.605469 215.035156 C 42.414062 219.082031 39.917969 223.632812 39.753906 228.355469 C 31.761719 223.3125 24.484375 216.25 23.46875 206.96875 C 22.386719 197.03125 28.839844 187.800781 35.675781 181.039062 Z M 107.820312 188.25 C 109.710938 183.09375 112.820312 178.21875 117.8125 175.699219 C 122.546875 173.300781 127.890625 173.558594 132.972656 175.03125 C 131.480469 176.164062 130.167969 177.527344 128.878906 178.902344 C 126.652344 181.289062 124.539062 183.601562 122.074219 185.753906 C 118.867188 188.542969 114.96875 189.363281 110.832031 188.847656 C 109.925781 188.738281 108.867188 188.535156 107.820312 188.25 Z M 110.597656 228.414062 C 119.589844 232.933594 129.109375 240.066406 131.070312 250.289062 C 132.617188 258.335938 129.039062 266.167969 124.039062 272.757812 C 122.976562 268.90625 120.476562 265.636719 117.996094 262.574219 C 114.84375 258.695312 111.753906 255.042969 109 250.839844 C 105.589844 245.625 105.28125 240.019531 107.488281 234.28125 C 108.183594 232.441406 109.320312 230.273438 110.597656 228.414062 Z M 145.425781 11.015625 C 152.21875 13.203125 159.5625 17.128906 162.097656 23.9375 C 163.769531 28.433594 162.980469 33.25 161.144531 37.707031 C 159.773438 35.765625 157.96875 34.148438 156.148438 32.601562 C 153.300781 30.191406 150.507812 27.941406 147.890625 25.246094 C 144.898438 22.15625 143.847656 18.464844 144.554688 14.257812 C 144.722656 13.277344 145.027344 12.125 145.425781 11.015625 Z M 137.507812 78.011719 C 137.992188 82.078125 137.613281 86.386719 135.167969 89.699219 C 132.769531 92.949219 128.910156 94.550781 124.800781 95.226562 C 126.585938 91.605469 126.9375 87.800781 128.464844 84.007812 C 129.105469 82.429688 129.953125 81.003906 131.390625 80.035156 C 132.878906 79.035156 135.246094 78.441406 137.507812 78.011719 Z M 116.59375 75.480469 C 116.707031 75.234375 116.796875 74.976562 116.863281 74.699219 C 118.894531 66.105469 118.8125 56.535156 113.363281 49.15625 C 105.894531 39.027344 92.003906 37.628906 80.433594 38.839844 C 79.589844 38.925781 78.835938 39.285156 78.253906 39.8125 C 77.660156 40.332031 77.222656 41.042969 77.035156 41.871094 C 77.019531 41.941406 77.003906 42.011719 76.992188 42.085938 C 76.972656 42.21875 76.953125 42.355469 76.949219 42.492188 C 76.941406 42.621094 76.941406 42.765625 76.945312 42.898438 C 76.949219 42.96875 76.953125 43.046875 76.964844 43.121094 C 77.054688 43.960938 77.402344 44.71875 77.929688 45.304688 C 78.457031 45.890625 79.171875 46.335938 79.992188 46.515625 C 81.824219 46.921875 83.875 47.566406 85.0625 49.125 C 86.113281 50.503906 86.71875 52.757812 87.1875 54.40625 C 88.144531 57.8125 89.03125 61.054688 90.367188 64.351562 C 92.769531 70.316406 97.574219 74.203125 103.574219 76.1875 C 104.859375 76.617188 106.277344 76.976562 107.730469 77.238281 C 103.015625 88.464844 93.453125 93.617188 80.730469 94.359375 C 75.351562 94.671875 69.816406 94.160156 64.527344 93.144531 C 62.933594 92.832031 61.234375 92.476562 59.597656 92.035156 C 57.253906 79.066406 57.203125 64.683594 63.5 52.84375 C 68.359375 43.703125 76.335938 37.445312 86.148438 34.332031 C 92.226562 32.410156 98.800781 31.757812 105.226562 32.320312 C 105.292969 32.328125 105.363281 32.335938 105.429688 32.335938 C 108.738281 32.640625 112.007812 33.273438 115.144531 34.203125 C 123.34375 36.652344 131.457031 41.53125 135.847656 49.09375 C 139.691406 55.722656 139.839844 62.992188 137.695312 70.085938 C 130.269531 71.40625 124.523438 72.949219 121.234375 81.097656 C 120.542969 82.808594 120.0625 84.585938 119.585938 86.367188 C 118.507812 90.40625 117.78125 94.417969 113.132812 95.453125 C 112.304688 95.636719 111.59375 96.074219 111.070312 96.667969 C 110.542969 97.257812 110.195312 98.011719 110.101562 98.851562 C 110.09375 98.925781 110.085938 98.996094 110.082031 99.070312 C 110.078125 99.207031 110.078125 99.34375 110.085938 99.476562 C 110.09375 99.617188 110.109375 99.75 110.132812 99.886719 C 110.144531 99.957031 110.15625 100.027344 110.175781 100.101562 C 110.363281 100.925781 110.796875 101.632812 111.386719 102.160156 C 111.980469 102.683594 112.734375 103.035156 113.574219 103.125 C 123.414062 104.148438 135.09375 102.917969 141.433594 94.324219 C 145.832031 88.371094 146.148438 80.773438 144.695312 73.769531 C 145.078125 72.636719 145.417969 71.488281 145.703125 70.351562 C 148.574219 72.910156 152.125 74.527344 156.164062 75.167969 C 158.285156 75.503906 160.285156 74.054688 160.621094 71.933594 C 160.957031 69.816406 159.507812 67.8125 157.386719 67.472656 C 153.625 66.882812 150.636719 65.050781 148.613281 61.816406 C 147.757812 60.460938 146.878906 58.441406 146.640625 56.828125 C 146.605469 56.589844 146.554688 56.359375 146.484375 56.136719 C 145.894531 52.386719 144.628906 48.707031 142.582031 45.179688 C 137.171875 35.859375 127.519531 29.769531 117.375 26.738281 C 115.269531 26.109375 113.109375 25.601562 110.925781 25.21875 C 113.0625 20.644531 116.714844 16.539062 120.703125 13.773438 C 125.863281 10.183594 131.742188 8.574219 137.78125 9.28125 C 137.375 10.542969 137.0625 11.816406 136.867188 12.984375 C 135.753906 19.625 137.582031 25.8125 142.304688 30.675781 C 145.113281 33.5625 148.066406 35.960938 151.113281 38.550781 C 152.507812 39.726562 154.554688 41.445312 155.320312 43.140625 C 156.019531 44.675781 155.722656 46.472656 155.300781 48.046875 C 155.09375 48.832031 155.136719 49.628906 155.390625 50.34375 C 155.644531 51.0625 156.109375 51.714844 156.761719 52.199219 C 156.960938 52.339844 157.164062 52.464844 157.378906 52.566406 C 157.589844 52.667969 157.820312 52.75 158.054688 52.8125 C 158.839844 53.027344 159.640625 52.980469 160.351562 52.726562 C 161.074219 52.472656 161.722656 52.011719 162.203125 51.355469 C 168.445312 42.835938 173.324219 31.769531 169.398438 21.214844 C 165.484375 10.695312 154.519531 5.226562 144.300781 2.578125 C 143.988281 2.5 143.679688 2.457031 143.375 2.449219 C 133.882812 -0.101562 124.320312 1.769531 116.257812 7.375 C 110.414062 11.425781 105.347656 17.558594 102.851562 24.371094 C 96.390625 24.136719 89.890625 24.964844 83.796875 26.90625 C 72.039062 30.636719 62.4375 38.242188 56.621094 49.183594 C 49.570312 62.441406 49.273438 78.121094 51.796875 92.660156 C 37.316406 99.109375 29.457031 112.734375 30.066406 128.835938 C 30.328125 135.757812 32.226562 142.945312 35.789062 148.90625 C 37.773438 152.230469 40.375 155.292969 43.546875 157.503906 C 37.96875 162.167969 33.492188 167.832031 31.25 174.472656 C 22.195312 183.101562 14.300781 194.742188 15.722656 207.808594 C 17.484375 223.898438 32.40625 234.347656 45.980469 240.46875 C 46.742188 240.8125 47.558594 240.898438 48.324219 240.742188 C 49.089844 240.597656 49.820312 240.21875 50.394531 239.617188 C 50.484375 239.523438 50.570312 239.421875 50.648438 239.324219 C 50.703125 239.253906 50.757812 239.175781 50.8125 239.101562 C 50.863281 239.027344 50.90625 238.949219 50.957031 238.875 C 51.023438 238.765625 51.078125 238.648438 51.136719 238.53125 C 51.476562 237.765625 51.554688 236.949219 51.410156 236.1875 C 51.257812 235.421875 50.882812 234.691406 50.28125 234.113281 C 48.894531 232.777344 47.671875 231.1875 47.546875 229.199219 C 47.347656 226.03125 49.984375 221.457031 51.457031 218.746094 C 54.539062 213.054688 57.320312 207.765625 58.808594 201.382812 C 60.144531 195.636719 58.941406 190.089844 55.425781 185.378906 C 51.878906 180.632812 45.699219 176.644531 39.753906 174.261719 C 42.125 169.453125 46.121094 165.3125 50.265625 162.117188 C 57.191406 156.769531 65.664062 153.050781 74.085938 150.796875 C 75.957031 150.296875 77.84375 149.859375 79.742188 149.488281 C 79.800781 149.476562 79.859375 149.464844 79.921875 149.453125 C 86.355469 148.207031 92.894531 147.71875 99.410156 147.945312 C 91.609375 152.28125 86.246094 159.183594 83.871094 168.285156 C 83.324219 170.359375 84.578125 172.496094 86.652344 173.039062 C 88.730469 173.578125 90.863281 172.332031 91.40625 170.253906 C 93.613281 161.804688 98.957031 156.039062 107.0625 152.964844 C 110.351562 151.722656 115.003906 150.695312 118.667969 150.707031 C 125.65625 152.480469 132.433594 155.105469 138.832031 158.492188 C 156.726562 167.988281 164.957031 183.144531 163.605469 203.175781 C 163.144531 210.015625 161.59375 216.886719 159.351562 223.363281 C 158.96875 224.472656 158.550781 225.632812 158.097656 226.792969 C 154.921875 223.929688 151.414062 221.453125 147.75 219.25 C 138.90625 213.945312 129.5 210.496094 120.105469 206.414062 C 116.34375 204.773438 107.460938 201 106.050781 196.726562 C 105.953125 196.417969 105.890625 196.113281 105.855469 195.796875 C 107.234375 196.164062 108.617188 196.425781 109.875 196.585938 C 116.226562 197.367188 122.304688 195.886719 127.195312 191.625 C 129.871094 189.296875 132.160156 186.8125 134.574219 184.230469 C 135.78125 182.9375 137.355469 181.226562 138.953125 180.433594 C 140.710938 179.5625 142.75 179.777344 144.609375 180.160156 C 145.433594 180.332031 146.253906 180.226562 146.972656 179.90625 C 147.695312 179.585938 148.324219 179.050781 148.746094 178.324219 C 148.796875 178.246094 148.84375 178.164062 148.882812 178.082031 C 148.9375 177.976562 148.988281 177.863281 149.027344 177.753906 C 149.074219 177.640625 149.113281 177.523438 149.144531 177.40625 C 149.171875 177.320312 149.195312 177.226562 149.210938 177.132812 C 149.378906 176.308594 149.277344 175.492188 148.957031 174.769531 C 148.636719 174.054688 148.105469 173.421875 147.378906 172.996094 C 137.570312 167.195312 125.136719 163.273438 114.296875 168.753906 C 106.210938 172.84375 101.621094 180.902344 99.296875 189.367188 C 98 192.523438 97.5625 195.863281 98.648438 199.160156 C 101.074219 206.527344 110.429688 210.707031 116.992188 213.554688 C 126.035156 217.488281 135.242188 220.832031 143.738281 225.9375 C 152.296875 231.070312 159.535156 237.660156 163.125 247.203125 C 167.640625 259.199219 167.941406 271.796875 160.746094 282.808594 C 150.238281 298.90625 128.230469 305.378906 109.898438 303.601562 C 87.085938 301.394531 69.542969 287.605469 62.984375 265.453125 C 59.558594 253.914062 60.230469 242.296875 69.769531 233.984375 C 72.28125 231.796875 75.167969 230.046875 78.210938 228.699219 C 83.347656 226.414062 89.140625 225.160156 94.75 224.964844 C 97.328125 224.878906 100.339844 225.015625 103.15625 225.582031 C 101.996094 227.472656 101 229.46875 100.28125 231.292969 C 97.097656 239.414062 97.644531 247.726562 102.476562 255.109375 C 105.386719 259.554688 108.613281 263.394531 111.941406 267.492188 C 113.628906 269.574219 115.929688 272.402344 116.578125 275.050781 C 117.226562 277.695312 116.242188 280.375 115.0625 282.71875 C 114.695312 283.464844 114.582031 284.261719 114.6875 285.015625 C 114.792969 285.785156 115.125 286.515625 115.679688 287.117188 C 115.84375 287.296875 116.015625 287.453125 116.199219 287.582031 C 116.382812 287.722656 116.578125 287.839844 116.789062 287.949219 C 117.527344 288.324219 118.324219 288.429688 119.089844 288.324219 C 119.84375 288.21875 120.582031 287.894531 121.191406 287.335938 C 127.082031 281.878906 132.621094 275.382812 135.988281 268.039062 C 138.765625 261.96875 139.988281 255.433594 138.71875 248.820312 C 136.023438 234.804688 123.359375 225.597656 111.136719 220.046875 C 106.191406 217.648438 99.917969 216.988281 94.484375 217.175781 C 87.875 217.398438 81.097656 218.886719 75.050781 221.570312 C 55.742188 230.144531 49.570312 247.617188 55.511719 267.660156 C 62.976562 292.867188 83.171875 308.832031 109.148438 311.351562 C 130.425781 313.414062 155.132812 305.65625 167.265625 287.0625 C 175.84375 273.9375 175.816406 258.804688 170.414062 244.453125 C 168.828125 240.253906 166.644531 236.445312 163.9375 233 C 164.984375 230.6875 165.90625 228.21875 166.707031 225.90625 C 169.171875 218.777344 170.859375 211.234375 171.367188 203.699219 C 172.925781 180.605469 163.089844 162.550781 142.472656 151.613281 C 135.550781 147.941406 128.214844 145.113281 120.660156 143.179688 C 120.382812 143.078125 120.085938 143 119.773438 142.957031 C 108.589844 140.203125 96.949219 139.410156 85.492188 140.726562 C 87.628906 136.59375 90.347656 132.480469 92.910156 129.328125 C 100.289062 120.261719 109.742188 114.320312 121.246094 113.925781 C 121.222656 115.910156 121.390625 117.925781 121.703125 119.636719 C 123.058594 127.144531 127.332031 133.019531 134.121094 136.566406 C 138.285156 138.75 142.449219 140.355469 146.773438 142.128906 C 148.914062 143.003906 151.835938 144.195312 153.433594 145.921875 C 154.886719 147.484375 155.332031 149.617188 155.503906 151.679688 C 155.570312 152.484375 155.878906 153.21875 156.359375 153.808594 C 156.832031 154.394531 157.480469 154.855469 158.261719 155.085938 C 158.5 155.152344 158.738281 155.203125 158.980469 155.230469 C 159.21875 155.257812 159.464844 155.257812 159.714844 155.242188 C 160.515625 155.171875 161.25 154.859375 161.835938 154.386719 C 162.429688 153.910156 162.878906 153.265625 163.113281 152.484375 C 166.546875 141.144531 167.441406 127.9375 159.671875 118.101562 C 151.652344 107.945312 137.78125 105.644531 125.582031 106.222656 C 109.839844 105.132812 96.617188 112.425781 86.871094 124.410156 C 82.875 129.320312 78.710938 136.058594 76.203125 142.261719 C 74.816406 142.566406 73.433594 142.902344 72.0625 143.269531 C 65.097656 145.136719 57.421875 148.207031 50.53125 152.484375 C 47.066406 151.144531 44.320312 148.011719 42.46875 144.921875 C 39.578125 140.078125 38.054688 134.160156 37.84375 128.550781 C 37.335938 115.128906 43.839844 104.132812 56.324219 99.21875 C 58.519531 99.863281 60.851562 100.375 63.050781 100.796875 C 68.976562 101.9375 75.148438 102.488281 81.175781 102.140625 C 98.613281 101.125 111.636719 92.652344 116.59375 75.480469 Z M 116.59375 75.480469 " fill-opacity="1" fill-rule="nonzero"/><g clip-path="url(#d9cbaa706d)"><path fill="#d6be6a" d="M 186.269531 375.03125 C 186.269531 375.03125 186.726562 375.050781 187.464844 375.007812 C 188.203125 375.050781 188.660156 375.03125 188.660156 375.03125 L 188.660156 374.886719 C 190.589844 374.644531 192.53125 374.617188 195.558594 372.113281 C 198.597656 369.601562 211.621094 364.8125 210.292969 357.910156 C 208.964844 351.007812 205.25 355.960938 208.300781 351.050781 C 211.359375 346.140625 215.597656 343.488281 209.367188 336.3125 C 203.132812 329.152344 209.101562 326.894531 209.894531 325.175781 C 210.695312 323.445312 214.410156 320.523438 204.1875 311.894531 C 199.078125 307.589844 175.851562 307.589844 170.746094 311.894531 C 160.523438 320.523438 164.238281 323.445312 165.035156 325.175781 C 165.828125 326.894531 171.800781 329.152344 165.566406 336.3125 C 159.332031 343.484375 163.570312 346.140625 166.625 351.050781 C 169.679688 355.960938 165.960938 351.003906 164.636719 357.910156 C 163.308594 364.8125 176.335938 369.601562 179.371094 372.113281 C 182.402344 374.617188 184.339844 374.644531 186.273438 374.886719 L 186.273438 375.03125 Z M 186.269531 375.03125 " fill-opacity="1" fill-rule="nonzero"/></g><path fill="#d6be6a" d="M 177.238281 102.089844 C 176.496094 99.539062 175.09375 95.621094 173.421875 95.1875 C 172.234375 94.878906 170.699219 94.652344 169.492188 94.976562 C 169.203125 95.050781 168.648438 95.261719 168.507812 95.566406 C 168.117188 96.453125 169.925781 98.226562 170.472656 98.675781 C 172.28125 100.179688 174.71875 101.28125 177.238281 102.089844 M 194.046875 108.171875 C 193.414062 113.011719 193.226562 117.585938 193.15625 120.328125 C 192.964844 128.132812 193.296875 292.105469 193.933594 299.882812 C 194.222656 303.464844 194.558594 307.109375 195.042969 310.679688 C 195.238281 312.167969 194.1875 313.535156 192.699219 313.742188 C 191.203125 313.941406 189.835938 312.890625 189.632812 311.40625 C 189.148438 307.738281 188.792969 304.003906 188.496094 300.328125 C 187.851562 292.359375 187.507812 128.191406 187.707031 120.191406 C 187.785156 117.226562 187.941406 113.351562 188.398438 109.226562 C 187.042969 109.316406 185.664062 109.300781 184.277344 109.160156 C 185.015625 114 185.40625 118.988281 185.671875 123.722656 C 186.09375 131.070312 186.191406 294.554688 186.113281 301.90625 C 186.074219 305.304688 186.011719 308.714844 185.859375 312.101562 C 185.796875 313.597656 184.511719 314.765625 183.015625 314.695312 C 181.519531 314.632812 180.347656 313.347656 180.414062 311.851562 C 180.566406 308.527344 180.621094 305.175781 180.664062 301.855469 C 180.742188 294.617188 180.640625 131.257812 180.230469 124.03125 C 179.9375 118.871094 179.503906 113.355469 178.585938 108.121094 C 174.425781 107.109375 170.140625 105.472656 167 102.875 C 164.285156 100.625 161.933594 96.917969 163.539062 93.332031 C 165.453125 89.050781 170.898438 88.890625 174.804688 89.914062 C 179.8125 91.226562 181.933594 98.113281 182.996094 102.523438 C 183.074219 102.851562 183.15625 103.183594 183.226562 103.511719 C 183.34375 103.535156 183.460938 103.554688 183.570312 103.570312 C 185.472656 103.882812 187.359375 103.902344 189.191406 103.664062 C 190.695312 95.296875 193.761719 87.105469 200.066406 84.285156 C 203.183594 82.894531 207.628906 81.734375 210.261719 84.699219 C 212.234375 86.929688 211.886719 90.167969 210.960938 92.765625 C 209.878906 95.800781 207.847656 98.6875 205.613281 100.992188 C 202.355469 104.367188 198.375 106.847656 194.046875 108.171875 Z M 206.195312 88.34375 C 205.414062 88.011719 202.929688 88.980469 202.296875 89.265625 C 198.632812 90.90625 196.449219 96.09375 195.132812 101.933594 C 197.40625 100.863281 199.507812 99.378906 201.359375 97.550781 C 203.082031 95.84375 204.730469 93.667969 205.648438 91.402344 C 205.871094 90.855469 206.492188 88.980469 206.195312 88.34375 Z M 206.195312 88.34375 " fill-opacity="1" fill-rule="nonzero"/></svg>