<svg xmlns="http://www.w3.org/2000/svg" xmlns:xlink="http://www.w3.org/1999/xlink" width="500" zoomAndPan="magnify" viewBox="0 0 375 95.999999" height="128" preserveAspectRatio="xMidYMid meet" version="1.0"><defs><g/><clipPath id="8c8b5fd60e"><path d="M 48 0 L 89.261719 0 L 89.261719 80 L 48 80 Z M 48 0 " clip-rule="nonzero"/></clipPath><clipPath id="0e650f4030"><path d="M 38 79 L 52 79 L 52 95.960938 L 38 95.960938 Z M 38 79 " clip-rule="nonzero"/></clipPath></defs><g clip-path="url(#8c8b5fd60e)"><path fill="#badefc" d="M 64.929688 17.839844 C 65.277344 17.789062 65.628906 17.707031 65.921875 17.609375 C 66.898438 17.285156 67.691406 16.703125 68.085938 15.726562 C 68.648438 14.324219 68.816406 12.980469 69.371094 11.917969 C 67.910156 12.097656 66.503906 12.609375 65.652344 13.765625 C 64.796875 14.925781 64.714844 16.441406 64.929688 17.839844 M 60.03125 29.160156 C 57.769531 29.160156 55.195312 29.644531 53.757812 31.464844 C 52.816406 32.65625 52.570312 34.160156 52.675781 35.660156 C 53.277344 35.15625 54.011719 34.832031 54.734375 34.535156 C 55.785156 34.105469 56.800781 33.714844 57.808594 33.1875 C 58.980469 32.574219 59.691406 31.613281 59.9375 30.320312 C 60.003906 29.980469 60.039062 29.566406 60.03125 29.160156 Z M 83.933594 46.339844 C 82.765625 46.761719 81.441406 47.53125 80.691406 48.378906 C 79.992188 49.167969 79.710938 50.046875 79.953125 51.09375 C 80.289062 52.53125 80.949219 53.757812 81.644531 55.042969 C 82.207031 56.078125 82.84375 57.242188 82.886719 58.449219 C 84.9375 57.160156 86.796875 55.351562 87.054688 52.976562 C 87.332031 50.433594 85.683594 48.070312 83.933594 46.339844 Z M 65.464844 48.1875 C 64.980469 46.867188 64.183594 45.617188 62.90625 44.972656 C 61.695312 44.359375 60.328125 44.425781 59.027344 44.800781 C 59.410156 45.09375 59.746094 45.441406 60.074219 45.792969 C 60.644531 46.402344 61.183594 46.996094 61.816406 47.546875 C 62.636719 48.261719 63.632812 48.46875 64.695312 48.339844 C 64.925781 48.308594 65.195312 48.257812 65.464844 48.1875 Z M 64.753906 58.464844 C 62.453125 59.621094 60.015625 61.449219 59.515625 64.0625 C 59.121094 66.125 60.035156 68.128906 61.3125 69.816406 C 61.585938 68.828125 62.226562 67.992188 62.859375 67.210938 C 63.667969 66.214844 64.457031 65.28125 65.164062 64.203125 C 66.035156 62.871094 66.113281 61.433594 65.550781 59.96875 C 65.371094 59.496094 65.082031 58.941406 64.753906 58.464844 Z M 55.839844 2.820312 C 54.101562 3.382812 52.21875 4.386719 51.570312 6.128906 C 51.144531 7.28125 51.347656 8.511719 51.816406 9.652344 C 52.167969 9.15625 52.628906 8.742188 53.09375 8.347656 C 53.824219 7.730469 54.539062 7.152344 55.207031 6.464844 C 55.976562 5.671875 56.246094 4.726562 56.0625 3.652344 C 56.019531 3.402344 55.941406 3.105469 55.839844 2.820312 Z M 57.867188 19.96875 C 57.742188 21.011719 57.839844 22.113281 58.464844 22.960938 C 59.082031 23.792969 60.066406 24.203125 61.117188 24.375 C 60.660156 23.449219 60.574219 22.476562 60.179688 21.503906 C 60.015625 21.101562 59.800781 20.734375 59.433594 20.488281 C 59.050781 20.230469 58.445312 20.078125 57.867188 19.96875 Z M 63.21875 19.320312 C 63.191406 19.257812 63.167969 19.191406 63.152344 19.121094 C 62.628906 16.921875 62.648438 14.472656 64.046875 12.582031 C 65.957031 9.992188 69.511719 9.632812 72.472656 9.941406 C 72.691406 9.964844 72.882812 10.054688 73.035156 10.191406 C 73.183594 10.324219 73.296875 10.507812 73.34375 10.71875 C 73.347656 10.738281 73.351562 10.753906 73.355469 10.773438 C 73.363281 10.808594 73.363281 10.84375 73.367188 10.878906 C 73.371094 10.910156 73.371094 10.949219 73.367188 10.980469 C 73.367188 11 73.363281 11.019531 73.363281 11.039062 C 73.339844 11.253906 73.25 11.449219 73.117188 11.597656 C 72.980469 11.746094 72.800781 11.859375 72.589844 11.90625 C 72.121094 12.011719 71.59375 12.175781 71.289062 12.574219 C 71.023438 12.929688 70.867188 13.503906 70.746094 13.925781 C 70.5 14.800781 70.273438 15.628906 69.933594 16.472656 C 69.316406 18 68.089844 18.996094 66.550781 19.503906 C 66.222656 19.613281 65.859375 19.703125 65.488281 19.769531 C 66.695312 22.644531 69.140625 23.964844 72.398438 24.152344 C 73.777344 24.234375 75.191406 24.101562 76.546875 23.84375 C 76.953125 23.761719 77.390625 23.671875 77.808594 23.558594 C 78.410156 20.238281 78.421875 16.558594 76.808594 13.527344 C 75.566406 11.1875 73.523438 9.585938 71.011719 8.789062 C 69.457031 8.296875 67.773438 8.128906 66.128906 8.273438 C 66.109375 8.277344 66.09375 8.277344 66.078125 8.277344 C 65.230469 8.355469 64.394531 8.519531 63.589844 8.757812 C 61.492188 9.382812 59.414062 10.632812 58.292969 12.566406 C 57.304688 14.265625 57.269531 16.125 57.820312 17.941406 C 59.71875 18.277344 61.191406 18.671875 62.03125 20.757812 C 62.207031 21.195312 62.332031 21.652344 62.453125 22.109375 C 62.730469 23.140625 62.914062 24.167969 64.105469 24.433594 C 64.320312 24.480469 64.5 24.59375 64.632812 24.746094 C 64.769531 24.894531 64.859375 25.089844 64.882812 25.304688 C 64.882812 25.320312 64.886719 25.339844 64.886719 25.359375 C 64.886719 25.394531 64.886719 25.429688 64.886719 25.460938 C 64.882812 25.5 64.878906 25.535156 64.875 25.566406 C 64.871094 25.585938 64.867188 25.605469 64.863281 25.621094 C 64.816406 25.835938 64.703125 26.015625 64.554688 26.148438 C 64.402344 26.285156 64.207031 26.375 63.992188 26.398438 C 61.472656 26.660156 58.484375 26.34375 56.863281 24.144531 C 55.738281 22.621094 55.65625 20.675781 56.027344 18.882812 C 55.929688 18.59375 55.84375 18.300781 55.769531 18.007812 C 55.035156 18.664062 54.125 19.078125 53.089844 19.242188 C 52.550781 19.328125 52.035156 18.957031 51.949219 18.414062 C 51.863281 17.871094 52.234375 17.359375 52.777344 17.273438 C 53.742188 17.121094 54.503906 16.652344 55.023438 15.824219 C 55.242188 15.476562 55.46875 14.960938 55.527344 14.546875 C 55.535156 14.488281 55.550781 14.425781 55.570312 14.371094 C 55.71875 13.410156 56.042969 12.46875 56.566406 11.566406 C 57.953125 9.179688 60.421875 7.621094 63.019531 6.847656 C 63.558594 6.683594 64.109375 6.554688 64.671875 6.457031 C 64.121094 5.285156 63.1875 4.234375 62.167969 3.527344 C 60.847656 2.609375 59.34375 2.195312 57.796875 2.378906 C 57.902344 2.699219 57.980469 3.027344 58.03125 3.324219 C 58.316406 5.023438 57.847656 6.609375 56.636719 7.851562 C 55.921875 8.59375 55.164062 9.207031 54.382812 9.867188 C 54.027344 10.167969 53.503906 10.609375 53.308594 11.042969 C 53.128906 11.4375 53.203125 11.898438 53.3125 12.300781 C 53.363281 12.5 53.355469 12.703125 53.289062 12.886719 C 53.226562 13.070312 53.105469 13.238281 52.9375 13.363281 C 52.886719 13.398438 52.835938 13.429688 52.78125 13.457031 C 52.726562 13.484375 52.667969 13.503906 52.609375 13.519531 C 52.40625 13.574219 52.203125 13.5625 52.019531 13.496094 C 51.835938 13.433594 51.667969 13.316406 51.546875 13.148438 C 49.949219 10.964844 48.699219 8.132812 49.703125 5.433594 C 50.707031 2.738281 53.511719 1.339844 56.128906 0.660156 C 56.207031 0.640625 56.289062 0.628906 56.363281 0.628906 C 58.792969 -0.0234375 61.242188 0.453125 63.304688 1.890625 C 64.800781 2.925781 66.097656 4.496094 66.738281 6.238281 C 68.390625 6.179688 70.054688 6.390625 71.613281 6.886719 C 74.621094 7.84375 77.082031 9.789062 78.570312 12.589844 C 80.375 15.984375 80.449219 19.996094 79.804688 23.71875 C 83.511719 25.371094 85.523438 28.855469 85.367188 32.976562 C 85.300781 34.75 84.816406 36.589844 83.902344 38.117188 C 83.394531 38.964844 82.726562 39.75 81.914062 40.316406 C 83.34375 41.507812 84.488281 42.960938 85.0625 44.660156 C 87.382812 46.867188 89.402344 49.847656 89.035156 53.191406 C 88.585938 57.308594 84.765625 59.984375 81.292969 61.550781 C 81.097656 61.636719 80.886719 61.660156 80.691406 61.621094 C 80.496094 61.582031 80.308594 61.488281 80.164062 61.332031 C 80.140625 61.308594 80.117188 61.28125 80.097656 61.257812 C 80.085938 61.238281 80.070312 61.21875 80.058594 61.199219 C 80.042969 61.183594 80.03125 61.164062 80.019531 61.144531 C 80 61.113281 79.988281 61.085938 79.972656 61.054688 C 79.886719 60.859375 79.867188 60.648438 79.902344 60.457031 C 79.941406 60.257812 80.039062 60.074219 80.191406 59.925781 C 80.546875 59.582031 80.859375 59.175781 80.890625 58.667969 C 80.941406 57.855469 80.265625 56.683594 79.890625 55.992188 C 79.101562 54.535156 78.390625 53.179688 78.011719 51.546875 C 77.667969 50.074219 77.976562 48.65625 78.878906 47.449219 C 79.785156 46.234375 81.363281 45.214844 82.886719 44.605469 C 82.28125 43.375 81.257812 42.3125 80.195312 41.496094 C 78.425781 40.128906 76.253906 39.175781 74.101562 38.597656 C 73.621094 38.472656 73.136719 38.359375 72.652344 38.265625 C 72.636719 38.261719 72.621094 38.257812 72.605469 38.253906 C 70.957031 37.9375 69.285156 37.8125 67.617188 37.867188 C 69.613281 38.980469 70.984375 40.746094 71.59375 43.074219 C 71.734375 43.605469 71.414062 44.152344 70.882812 44.292969 C 70.351562 44.429688 69.804688 44.109375 69.667969 43.578125 C 69.101562 41.417969 67.734375 39.941406 65.65625 39.152344 C 64.816406 38.835938 63.625 38.574219 62.6875 38.574219 C 60.902344 39.03125 59.164062 39.703125 57.527344 40.570312 C 52.949219 43 50.84375 46.878906 51.1875 52.003906 C 51.304688 53.757812 51.703125 55.515625 52.273438 57.171875 C 52.371094 57.457031 52.480469 57.753906 52.59375 58.050781 C 53.410156 57.316406 54.304688 56.683594 55.246094 56.121094 C 57.507812 54.761719 59.914062 53.878906 62.320312 52.835938 C 63.285156 52.414062 65.558594 51.449219 65.917969 50.355469 C 65.941406 50.277344 65.957031 50.199219 65.96875 50.117188 C 65.613281 50.210938 65.257812 50.277344 64.9375 50.320312 C 63.3125 50.519531 61.757812 50.140625 60.507812 49.050781 C 59.820312 48.453125 59.234375 47.816406 58.617188 47.15625 C 58.308594 46.824219 57.90625 46.386719 57.496094 46.183594 C 57.046875 45.960938 56.523438 46.015625 56.050781 46.113281 C 55.835938 46.160156 55.628906 46.132812 55.441406 46.050781 C 55.257812 45.96875 55.097656 45.832031 54.988281 45.644531 C 54.976562 45.625 54.964844 45.601562 54.953125 45.582031 C 54.941406 45.554688 54.925781 45.527344 54.914062 45.5 C 54.90625 45.46875 54.894531 45.441406 54.886719 45.410156 C 54.882812 45.386719 54.875 45.363281 54.871094 45.339844 C 54.824219 45.128906 54.851562 44.921875 54.933594 44.734375 C 55.015625 44.550781 55.152344 44.390625 55.335938 44.28125 C 57.847656 42.796875 61.03125 41.792969 63.804688 43.195312 C 65.875 44.242188 67.050781 46.304688 67.644531 48.472656 C 67.976562 49.277344 68.089844 50.132812 67.808594 50.976562 C 67.1875 52.863281 64.796875 53.933594 63.113281 54.664062 C 60.800781 55.667969 58.445312 56.523438 56.269531 57.832031 C 54.078125 59.144531 52.226562 60.832031 51.308594 63.273438 C 50.152344 66.34375 50.074219 69.570312 51.917969 72.386719 C 54.605469 76.507812 60.238281 78.164062 64.929688 77.710938 C 70.769531 77.144531 75.261719 73.617188 76.941406 67.945312 C 77.816406 64.992188 77.644531 62.019531 75.203125 59.890625 C 74.558594 59.332031 73.820312 58.882812 73.042969 58.539062 C 71.730469 57.953125 70.242188 57.632812 68.808594 57.582031 C 68.148438 57.5625 67.378906 57.59375 66.65625 57.742188 C 66.953125 58.226562 67.210938 58.734375 67.390625 59.203125 C 68.207031 61.28125 68.070312 63.410156 66.832031 65.296875 C 66.085938 66.4375 65.261719 67.417969 64.40625 68.46875 C 63.976562 69 63.386719 69.726562 63.222656 70.402344 C 63.054688 71.078125 63.308594 71.765625 63.609375 72.367188 C 63.703125 72.554688 63.734375 72.757812 63.707031 72.953125 C 63.679688 73.148438 63.59375 73.335938 63.453125 73.492188 C 63.410156 73.535156 63.367188 73.578125 63.320312 73.609375 C 63.273438 73.644531 63.21875 73.675781 63.167969 73.703125 C 62.980469 73.800781 62.773438 73.828125 62.582031 73.800781 C 62.386719 73.773438 62.195312 73.691406 62.042969 73.546875 C 60.535156 72.148438 59.113281 70.488281 58.253906 68.609375 C 57.542969 67.054688 57.230469 65.382812 57.554688 63.6875 C 58.242188 60.101562 61.484375 57.746094 64.613281 56.324219 C 65.878906 55.710938 67.484375 55.539062 68.878906 55.589844 C 70.566406 55.644531 72.304688 56.027344 73.851562 56.714844 C 78.792969 58.90625 80.371094 63.378906 78.851562 68.511719 C 76.941406 74.960938 71.769531 79.046875 65.125 79.695312 C 59.679688 80.222656 53.355469 78.238281 50.25 73.476562 C 48.054688 70.117188 48.058594 66.246094 49.445312 62.570312 C 49.847656 61.496094 50.40625 60.519531 51.101562 59.640625 C 50.832031 59.046875 50.597656 58.414062 50.390625 57.824219 C 49.761719 56 49.328125 54.066406 49.199219 52.140625 C 48.800781 46.226562 51.320312 41.609375 56.59375 38.808594 C 58.367188 37.867188 60.242188 37.144531 62.175781 36.648438 C 62.246094 36.621094 62.324219 36.605469 62.402344 36.59375 C 65.265625 35.886719 68.246094 35.683594 71.179688 36.019531 C 70.632812 34.964844 69.9375 33.910156 69.28125 33.101562 C 67.390625 30.785156 64.972656 29.261719 62.027344 29.160156 C 62.035156 29.667969 61.992188 30.183594 61.910156 30.625 C 61.566406 32.542969 60.46875 34.046875 58.734375 34.957031 C 57.667969 35.515625 56.601562 35.925781 55.496094 36.378906 C 54.945312 36.605469 54.199219 36.910156 53.789062 37.351562 C 53.417969 37.75 53.304688 38.296875 53.257812 38.824219 C 53.242188 39.03125 53.164062 39.21875 53.042969 39.371094 C 52.917969 39.519531 52.753906 39.636719 52.554688 39.695312 C 52.492188 39.714844 52.429688 39.726562 52.371094 39.734375 C 52.308594 39.742188 52.246094 39.742188 52.183594 39.738281 C 51.976562 39.71875 51.789062 39.640625 51.636719 39.519531 C 51.488281 39.394531 51.371094 39.230469 51.3125 39.03125 C 50.433594 36.128906 50.203125 32.746094 52.191406 30.230469 C 54.246094 27.632812 57.796875 27.042969 60.917969 27.191406 C 64.949219 26.910156 68.332031 28.777344 70.828125 31.84375 C 71.851562 33.101562 72.914062 34.828125 73.554688 36.414062 C 73.914062 36.492188 74.265625 36.578125 74.617188 36.671875 C 76.398438 37.148438 78.363281 37.9375 80.128906 39.03125 C 81.015625 38.6875 81.71875 37.886719 82.191406 37.09375 C 82.933594 35.855469 83.320312 34.339844 83.375 32.90625 C 83.503906 29.46875 81.839844 26.65625 78.644531 25.398438 C 78.082031 25.5625 77.484375 25.695312 76.925781 25.800781 C 75.40625 26.09375 73.828125 26.234375 72.285156 26.144531 C 67.820312 25.886719 64.488281 23.714844 63.21875 19.320312 Z M 63.21875 19.320312 " fill-opacity="1" fill-rule="nonzero"/></g><path fill="#badefc" d="M 25.230469 17.839844 C 24.878906 17.789062 24.53125 17.707031 24.234375 17.609375 C 23.257812 17.285156 22.46875 16.703125 22.074219 15.726562 C 21.507812 14.324219 21.339844 12.980469 20.789062 11.917969 C 22.25 12.097656 23.65625 12.609375 24.507812 13.765625 C 25.363281 14.925781 25.445312 16.441406 25.230469 17.839844 M 30.125 29.160156 C 32.386719 29.160156 34.964844 29.644531 36.402344 31.464844 C 37.34375 32.65625 37.585938 34.160156 37.480469 35.660156 C 36.878906 35.15625 36.144531 34.832031 35.421875 34.535156 C 34.375 34.105469 33.359375 33.714844 32.351562 33.1875 C 31.179688 32.574219 30.46875 31.613281 30.21875 30.320312 C 30.15625 29.980469 30.121094 29.566406 30.125 29.160156 Z M 6.226562 46.339844 C 7.390625 46.761719 8.71875 47.53125 9.46875 48.378906 C 10.167969 49.167969 10.453125 50.046875 10.207031 51.09375 C 9.871094 52.53125 9.210938 53.757812 8.515625 55.042969 C 7.953125 56.078125 7.3125 57.242188 7.273438 58.449219 C 5.226562 57.160156 3.363281 55.351562 3.105469 52.976562 C 2.828125 50.433594 4.476562 48.070312 6.226562 46.339844 Z M 24.695312 48.1875 C 25.175781 46.867188 25.972656 45.617188 27.25 44.972656 C 28.464844 44.359375 29.832031 44.425781 31.132812 44.800781 C 30.75 45.09375 30.414062 45.441406 30.085938 45.792969 C 29.515625 46.402344 28.972656 46.996094 28.34375 47.546875 C 27.519531 48.261719 26.523438 48.46875 25.464844 48.339844 C 25.234375 48.308594 24.960938 48.257812 24.695312 48.1875 Z M 25.40625 58.464844 C 27.707031 59.621094 30.144531 61.449219 30.644531 64.0625 C 31.039062 66.125 30.125 68.128906 28.84375 69.816406 C 28.574219 68.828125 27.933594 67.992188 27.296875 67.210938 C 26.492188 66.214844 25.699219 65.28125 24.996094 64.203125 C 24.125 62.871094 24.042969 61.433594 24.609375 59.96875 C 24.789062 59.496094 25.078125 58.941406 25.40625 58.464844 Z M 34.320312 2.820312 C 36.058594 3.382812 37.9375 4.386719 38.585938 6.128906 C 39.015625 7.28125 38.8125 8.511719 38.34375 9.652344 C 37.992188 9.15625 37.53125 8.742188 37.0625 8.347656 C 36.335938 7.730469 35.621094 7.152344 34.949219 6.464844 C 34.183594 5.671875 33.914062 4.726562 34.097656 3.652344 C 34.140625 3.402344 34.21875 3.105469 34.320312 2.820312 Z M 32.292969 19.96875 C 32.417969 21.011719 32.320312 22.113281 31.695312 22.960938 C 31.078125 23.792969 30.089844 24.203125 29.039062 24.375 C 29.496094 23.449219 29.585938 22.476562 29.976562 21.503906 C 30.140625 21.101562 30.359375 20.734375 30.726562 20.488281 C 31.109375 20.230469 31.714844 20.078125 32.292969 19.96875 Z M 26.9375 19.320312 C 26.96875 19.257812 26.992188 19.191406 27.007812 19.121094 C 27.527344 16.921875 27.507812 14.472656 26.113281 12.582031 C 24.203125 9.992188 20.644531 9.632812 17.683594 9.941406 C 17.46875 9.964844 17.277344 10.054688 17.125 10.191406 C 16.972656 10.324219 16.863281 10.507812 16.816406 10.71875 C 16.8125 10.738281 16.804688 10.753906 16.804688 10.773438 C 16.796875 10.808594 16.792969 10.84375 16.792969 10.878906 C 16.789062 10.910156 16.789062 10.949219 16.792969 10.980469 C 16.792969 11 16.792969 11.019531 16.796875 11.039062 C 16.820312 11.253906 16.910156 11.449219 17.042969 11.597656 C 17.179688 11.75 17.359375 11.859375 17.570312 11.90625 C 18.039062 12.011719 18.566406 12.175781 18.871094 12.574219 C 19.136719 12.929688 19.292969 13.503906 19.414062 13.925781 C 19.65625 14.800781 19.886719 15.628906 20.226562 16.472656 C 20.839844 18 22.070312 18.996094 23.609375 19.503906 C 23.9375 19.613281 24.300781 19.703125 24.671875 19.769531 C 23.464844 22.644531 21.015625 23.964844 17.761719 24.152344 C 16.382812 24.234375 14.96875 24.101562 13.613281 23.84375 C 13.203125 23.761719 12.769531 23.671875 12.351562 23.558594 C 11.75 20.238281 11.738281 16.558594 13.347656 13.527344 C 14.59375 11.1875 16.636719 9.585938 19.148438 8.789062 C 20.703125 8.296875 22.386719 8.128906 24.03125 8.273438 C 24.046875 8.277344 24.066406 8.277344 24.082031 8.277344 C 24.929688 8.355469 25.765625 8.519531 26.570312 8.757812 C 28.667969 9.382812 30.746094 10.632812 31.867188 12.566406 C 32.851562 14.265625 32.890625 16.125 32.339844 17.941406 C 30.441406 18.277344 28.96875 18.671875 28.128906 20.757812 C 27.949219 21.195312 27.828125 21.652344 27.707031 22.109375 C 27.429688 23.140625 27.242188 24.167969 26.054688 24.433594 C 25.839844 24.480469 25.660156 24.59375 25.523438 24.746094 C 25.390625 24.894531 25.300781 25.089844 25.277344 25.304688 C 25.277344 25.320312 25.273438 25.339844 25.273438 25.359375 C 25.273438 25.394531 25.273438 25.429688 25.273438 25.460938 C 25.277344 25.5 25.28125 25.535156 25.285156 25.566406 C 25.289062 25.585938 25.292969 25.605469 25.296875 25.621094 C 25.34375 25.835938 25.457031 26.015625 25.605469 26.148438 C 25.757812 26.285156 25.953125 26.375 26.167969 26.398438 C 28.683594 26.660156 31.675781 26.34375 33.296875 24.144531 C 34.421875 22.621094 34.503906 20.675781 34.132812 18.882812 C 34.230469 18.59375 34.316406 18.300781 34.390625 18.007812 C 35.125 18.664062 36.035156 19.078125 37.066406 19.242188 C 37.609375 19.328125 38.121094 18.957031 38.207031 18.414062 C 38.292969 17.871094 37.921875 17.359375 37.378906 17.273438 C 36.417969 17.121094 35.652344 16.652344 35.136719 15.824219 C 34.917969 15.476562 34.691406 14.960938 34.628906 14.546875 C 34.621094 14.488281 34.609375 14.425781 34.589844 14.371094 C 34.4375 13.410156 34.113281 12.46875 33.589844 11.566406 C 32.207031 9.179688 29.734375 7.621094 27.140625 6.847656 C 26.601562 6.683594 26.046875 6.554688 25.488281 6.457031 C 26.035156 5.285156 26.96875 4.234375 27.992188 3.527344 C 29.3125 2.609375 30.816406 2.195312 32.363281 2.378906 C 32.257812 2.699219 32.179688 3.027344 32.128906 3.324219 C 31.84375 5.023438 32.3125 6.609375 33.519531 7.851562 C 34.238281 8.59375 34.996094 9.207031 35.773438 9.867188 C 36.132812 10.167969 36.65625 10.609375 36.851562 11.042969 C 37.03125 11.4375 36.953125 11.898438 36.847656 12.300781 C 36.792969 12.5 36.804688 12.703125 36.871094 12.886719 C 36.933594 13.070312 37.054688 13.238281 37.222656 13.363281 C 37.273438 13.398438 37.324219 13.429688 37.378906 13.457031 C 37.433594 13.484375 37.492188 13.503906 37.550781 13.519531 C 37.753906 13.574219 37.957031 13.5625 38.140625 13.496094 C 38.324219 13.433594 38.492188 13.316406 38.613281 13.148438 C 40.210938 10.964844 41.460938 8.132812 40.457031 5.433594 C 39.453125 2.738281 36.648438 1.339844 34.03125 0.660156 C 33.953125 0.640625 33.871094 0.628906 33.792969 0.628906 C 31.363281 -0.0234375 28.917969 0.453125 26.851562 1.890625 C 25.359375 2.925781 24.0625 4.496094 23.421875 6.238281 C 21.769531 6.179688 20.105469 6.390625 18.542969 6.886719 C 15.535156 7.84375 13.078125 9.789062 11.589844 12.589844 C 9.785156 15.984375 9.710938 19.996094 10.355469 23.71875 C 6.648438 25.371094 4.636719 28.855469 4.792969 32.976562 C 4.859375 34.75 5.34375 36.589844 6.257812 38.117188 C 6.765625 38.964844 7.429688 39.75 8.242188 40.316406 C 6.816406 41.507812 5.667969 42.960938 5.097656 44.660156 C 2.777344 46.867188 0.757812 49.847656 1.121094 53.191406 C 1.570312 57.308594 5.390625 59.984375 8.867188 61.550781 C 9.0625 61.636719 9.269531 61.660156 9.464844 61.621094 C 9.660156 61.582031 9.847656 61.488281 9.996094 61.332031 C 10.019531 61.308594 10.039062 61.28125 10.0625 61.257812 C 10.074219 61.238281 10.089844 61.21875 10.101562 61.199219 C 10.113281 61.183594 10.125 61.164062 10.140625 61.144531 C 10.15625 61.113281 10.171875 61.085938 10.183594 61.054688 C 10.273438 60.859375 10.292969 60.648438 10.253906 60.457031 C 10.21875 60.257812 10.121094 60.074219 9.964844 59.925781 C 9.609375 59.582031 9.296875 59.175781 9.265625 58.667969 C 9.214844 57.855469 9.890625 56.683594 10.265625 55.992188 C 11.058594 54.535156 11.769531 53.179688 12.148438 51.546875 C 12.492188 50.074219 12.183594 48.65625 11.28125 47.449219 C 10.375 46.234375 8.792969 45.214844 7.273438 44.605469 C 7.878906 43.375 8.902344 42.3125 9.960938 41.496094 C 11.734375 40.128906 13.902344 39.175781 16.058594 38.597656 C 16.539062 38.472656 17.019531 38.359375 17.507812 38.265625 C 17.523438 38.261719 17.539062 38.257812 17.554688 38.253906 C 19.199219 37.9375 20.875 37.8125 22.542969 37.867188 C 20.542969 38.980469 19.171875 40.746094 18.5625 43.074219 C 18.425781 43.605469 18.746094 44.152344 19.277344 44.292969 C 19.808594 44.429688 20.355469 44.109375 20.492188 43.578125 C 21.058594 41.417969 22.425781 39.941406 24.5 39.152344 C 25.339844 38.835938 26.53125 38.574219 27.472656 38.574219 C 29.257812 39.03125 30.996094 39.703125 32.632812 40.570312 C 37.210938 43 39.316406 46.878906 38.972656 52.003906 C 38.855469 53.757812 38.457031 55.515625 37.882812 57.171875 C 37.785156 57.457031 37.679688 57.753906 37.5625 58.050781 C 36.75 57.316406 35.851562 56.683594 34.914062 56.121094 C 32.652344 54.761719 30.242188 53.878906 27.839844 52.835938 C 26.875 52.414062 24.601562 51.449219 24.242188 50.355469 C 24.214844 50.277344 24.199219 50.199219 24.191406 50.117188 C 24.542969 50.210938 24.898438 50.277344 25.21875 50.320312 C 26.84375 50.519531 28.402344 50.140625 29.652344 49.050781 C 30.339844 48.453125 30.925781 47.816406 31.542969 47.15625 C 31.851562 46.824219 32.253906 46.386719 32.664062 46.183594 C 33.113281 45.960938 33.632812 46.015625 34.109375 46.113281 C 34.320312 46.160156 34.53125 46.132812 34.714844 46.050781 C 34.898438 45.96875 35.0625 45.832031 35.167969 45.644531 C 35.183594 45.625 35.195312 45.601562 35.203125 45.582031 C 35.21875 45.554688 35.230469 45.527344 35.242188 45.5 C 35.253906 45.46875 35.261719 45.441406 35.269531 45.410156 C 35.277344 45.386719 35.285156 45.363281 35.289062 45.339844 C 35.332031 45.128906 35.304688 44.921875 35.222656 44.734375 C 35.140625 44.550781 35.003906 44.390625 34.820312 44.28125 C 32.308594 42.796875 29.125 41.792969 26.351562 43.195312 C 24.28125 44.242188 23.105469 46.304688 22.511719 48.472656 C 22.179688 49.277344 22.066406 50.132812 22.347656 50.976562 C 22.96875 52.863281 25.363281 53.933594 27.042969 54.664062 C 29.355469 55.667969 31.710938 56.523438 33.886719 57.832031 C 36.078125 59.144531 37.929688 60.832031 38.847656 63.273438 C 40.003906 66.34375 40.082031 69.570312 38.242188 72.386719 C 35.550781 76.507812 29.917969 78.164062 25.226562 77.710938 C 19.386719 77.144531 14.898438 73.617188 13.21875 67.945312 C 12.339844 64.992188 12.511719 62.019531 14.953125 59.890625 C 15.597656 59.332031 16.335938 58.882812 17.117188 58.539062 C 18.429688 57.953125 19.914062 57.632812 21.347656 57.582031 C 22.007812 57.5625 22.777344 57.59375 23.5 57.742188 C 23.203125 58.226562 22.949219 58.734375 22.765625 59.203125 C 21.949219 61.28125 22.089844 63.410156 23.328125 65.296875 C 24.070312 66.4375 24.898438 67.417969 25.75 68.46875 C 26.179688 69 26.769531 69.726562 26.933594 70.402344 C 27.101562 71.078125 26.851562 71.765625 26.546875 72.367188 C 26.453125 72.554688 26.425781 72.757812 26.453125 72.953125 C 26.476562 73.148438 26.5625 73.335938 26.707031 73.492188 C 26.746094 73.535156 26.792969 73.578125 26.839844 73.609375 C 26.886719 73.644531 26.933594 73.675781 26.988281 73.703125 C 27.179688 73.800781 27.382812 73.828125 27.578125 73.800781 C 27.769531 73.773438 27.960938 73.691406 28.117188 73.546875 C 29.625 72.148438 31.042969 70.488281 31.902344 68.609375 C 32.613281 67.054688 32.925781 65.382812 32.601562 63.6875 C 31.914062 60.101562 28.671875 57.746094 25.542969 56.324219 C 24.277344 55.710938 22.671875 55.539062 21.28125 55.589844 C 19.589844 55.644531 17.855469 56.027344 16.304688 56.714844 C 11.363281 58.90625 9.785156 63.378906 11.304688 68.511719 C 13.214844 74.960938 18.386719 79.046875 25.035156 79.695312 C 30.480469 80.222656 36.804688 78.238281 39.910156 73.476562 C 42.105469 70.117188 42.097656 66.246094 40.714844 62.570312 C 40.308594 61.496094 39.75 60.519531 39.058594 59.640625 C 39.324219 59.046875 39.5625 58.414062 39.765625 57.824219 C 40.398438 56 40.828125 54.066406 40.960938 52.140625 C 41.359375 46.226562 38.839844 41.609375 33.5625 38.808594 C 31.792969 37.867188 29.914062 37.144531 27.980469 36.648438 C 27.910156 36.621094 27.832031 36.605469 27.753906 36.59375 C 24.890625 35.886719 21.910156 35.683594 18.980469 36.019531 C 19.527344 34.964844 20.222656 33.910156 20.878906 33.101562 C 22.765625 30.785156 25.183594 29.261719 28.128906 29.160156 C 28.125 29.667969 28.167969 30.183594 28.246094 30.625 C 28.59375 32.542969 29.6875 34.046875 31.425781 34.957031 C 32.492188 35.515625 33.558594 35.925781 34.664062 36.378906 C 35.210938 36.605469 35.960938 36.910156 36.367188 37.351562 C 36.742188 37.75 36.855469 38.296875 36.898438 38.824219 C 36.914062 39.03125 36.996094 39.21875 37.117188 39.371094 C 37.238281 39.519531 37.40625 39.636719 37.605469 39.695312 C 37.664062 39.714844 37.726562 39.726562 37.789062 39.734375 C 37.851562 39.742188 37.914062 39.742188 37.976562 39.738281 C 38.183594 39.71875 38.371094 39.640625 38.519531 39.519531 C 38.671875 39.394531 38.785156 39.230469 38.847656 39.03125 C 39.726562 36.128906 39.953125 32.746094 37.964844 30.230469 C 35.914062 27.632812 32.363281 27.042969 29.238281 27.191406 C 25.210938 26.910156 21.828125 28.777344 19.332031 31.84375 C 18.308594 33.101562 17.242188 34.828125 16.601562 36.414062 C 16.246094 36.492188 15.894531 36.578125 15.542969 36.671875 C 13.757812 37.148438 11.792969 37.9375 10.03125 39.03125 C 9.144531 38.6875 8.441406 37.886719 7.96875 37.09375 C 7.226562 35.855469 6.835938 34.339844 6.78125 32.90625 C 6.652344 29.46875 8.316406 26.65625 11.511719 25.398438 C 12.074219 25.5625 12.671875 25.695312 13.234375 25.800781 C 14.75 26.09375 16.332031 26.234375 17.875 26.144531 C 22.335938 25.886719 25.671875 23.714844 26.9375 19.320312 Z M 26.9375 19.320312 " fill-opacity="1" fill-rule="nonzero"/><g clip-path="url(#0e650f4030)"><path fill="#fddf7d" d="M 44.773438 95.992188 C 44.773438 95.992188 44.890625 95.996094 45.078125 95.988281 C 45.269531 95.996094 45.386719 95.992188 45.386719 95.992188 L 45.386719 95.957031 C 45.878906 95.894531 46.375 95.886719 47.152344 95.246094 C 47.929688 94.601562 51.261719 93.378906 50.921875 91.609375 C 50.582031 89.84375 49.632812 91.113281 50.414062 89.855469 C 51.195312 88.597656 52.28125 87.917969 50.683594 86.082031 C 49.089844 84.25 50.617188 83.671875 50.820312 83.230469 C 51.023438 82.789062 51.976562 82.039062 49.359375 79.832031 C 48.050781 78.730469 42.105469 78.730469 40.800781 79.832031 C 38.183594 82.039062 39.132812 82.789062 39.339844 83.230469 C 39.542969 83.671875 41.070312 84.25 39.472656 86.082031 C 37.878906 87.917969 38.964844 88.597656 39.746094 89.855469 C 40.527344 91.113281 39.574219 89.84375 39.234375 91.609375 C 38.898438 93.378906 42.230469 94.601562 43.007812 95.246094 C 43.78125 95.886719 44.28125 95.894531 44.773438 95.957031 Z M 44.773438 95.992188 " fill-opacity="1" fill-rule="nonzero"/></g><path fill="#fddf7d" d="M 42.460938 26.132812 C 42.273438 25.480469 41.914062 24.476562 41.484375 24.367188 C 41.179688 24.285156 40.789062 24.230469 40.480469 24.3125 C 40.40625 24.332031 40.261719 24.382812 40.226562 24.460938 C 40.128906 24.6875 40.589844 25.144531 40.730469 25.257812 C 41.195312 25.644531 41.816406 25.925781 42.460938 26.132812 M 46.765625 27.6875 C 46.601562 28.925781 46.554688 30.097656 46.535156 30.800781 C 46.488281 32.796875 46.574219 74.769531 46.734375 76.757812 C 46.808594 77.675781 46.894531 78.609375 47.019531 79.523438 C 47.070312 79.902344 46.800781 80.253906 46.417969 80.304688 C 46.035156 80.355469 45.6875 80.085938 45.632812 79.707031 C 45.511719 78.769531 45.417969 77.8125 45.34375 76.871094 C 45.179688 74.832031 45.089844 32.8125 45.140625 30.765625 C 45.160156 30.007812 45.203125 29.015625 45.316406 27.957031 C 44.972656 27.980469 44.617188 27.976562 44.261719 27.941406 C 44.453125 29.179688 44.550781 30.457031 44.621094 31.667969 C 44.730469 33.550781 44.753906 75.394531 44.734375 77.277344 C 44.722656 78.144531 44.707031 79.019531 44.667969 79.886719 C 44.652344 80.269531 44.324219 80.566406 43.941406 80.550781 C 43.558594 80.535156 43.257812 80.203125 43.273438 79.820312 C 43.3125 78.96875 43.328125 78.113281 43.339844 77.261719 C 43.359375 75.410156 43.332031 33.597656 43.226562 31.746094 C 43.152344 30.425781 43.042969 29.015625 42.808594 27.675781 C 41.742188 27.417969 40.644531 26.996094 39.839844 26.332031 C 39.144531 25.757812 38.542969 24.808594 38.953125 23.890625 C 39.445312 22.792969 40.839844 22.753906 41.839844 23.015625 C 43.121094 23.351562 43.664062 25.113281 43.9375 26.242188 C 43.957031 26.328125 43.976562 26.410156 43.996094 26.496094 C 44.023438 26.5 44.054688 26.507812 44.082031 26.511719 C 44.570312 26.589844 45.050781 26.597656 45.519531 26.535156 C 45.90625 24.394531 46.691406 22.296875 48.304688 21.574219 C 49.101562 21.21875 50.238281 20.921875 50.914062 21.679688 C 51.417969 22.25 51.332031 23.082031 51.09375 23.746094 C 50.816406 24.523438 50.296875 25.261719 49.722656 25.851562 C 48.890625 26.714844 47.871094 27.351562 46.765625 27.6875 Z M 49.875 22.613281 C 49.671875 22.527344 49.039062 22.777344 48.875 22.851562 C 47.9375 23.269531 47.378906 24.597656 47.042969 26.089844 C 47.625 25.820312 48.160156 25.4375 48.636719 24.96875 C 49.078125 24.535156 49.5 23.976562 49.734375 23.398438 C 49.789062 23.257812 49.949219 22.777344 49.875 22.613281 Z M 49.875 22.613281 " fill-opacity="1" fill-rule="nonzero"/><g fill="#ffffff" fill-opacity="1"><g transform="translate(96.087165, 82.39054)"><g><path d="M 21.921875 -18.375 C 21.742188 -18.59375 21.613281 -18.773438 21.53125 -18.921875 C 21.457031 -19.078125 21.5 -19.285156 21.65625 -19.546875 C 22.394531 -20.796875 23.03125 -22.160156 23.5625 -23.640625 C 24.101562 -25.128906 24.375 -26.648438 24.375 -28.203125 C 24.375 -30.273438 24.039062 -32.019531 23.375 -33.4375 C 22.707031 -34.863281 21.800781 -36.03125 20.65625 -36.9375 C 19.507812 -37.851562 18.1875 -38.515625 16.6875 -38.921875 C 15.1875 -39.328125 13.617188 -39.566406 11.984375 -39.640625 C 10.359375 -39.710938 8.710938 -39.632812 7.046875 -39.40625 C 5.378906 -39.1875 3.804688 -38.875 2.328125 -38.46875 L 2.28125 -38.421875 C 2.382812 -31.972656 2.378906 -25.59375 2.265625 -19.28125 C 2.160156 -12.976562 2.21875 -6.625 2.4375 -0.21875 C 2.625 -0.144531 2.816406 -0.109375 3.015625 -0.109375 C 3.222656 -0.109375 3.4375 -0.109375 3.65625 -0.109375 C 4.988281 -0.078125 6.421875 -0.00390625 7.953125 0.109375 C 9.492188 0.222656 11.03125 0.269531 12.5625 0.25 C 14.101562 0.226562 15.59375 0.117188 17.03125 -0.078125 C 18.476562 -0.285156 19.796875 -0.6875 20.984375 -1.28125 C 22.171875 -1.875 23.179688 -2.710938 24.015625 -3.796875 C 24.847656 -4.890625 25.410156 -6.304688 25.703125 -8.046875 C 25.921875 -9.234375 25.957031 -10.304688 25.8125 -11.265625 C 25.664062 -12.234375 25.394531 -13.113281 25 -13.90625 C 24.613281 -14.695312 24.148438 -15.453125 23.609375 -16.171875 C 23.078125 -16.898438 22.515625 -17.632812 21.921875 -18.375 Z M 16.703125 -9.15625 C 16.335938 -8.71875 15.90625 -8.394531 15.40625 -8.1875 C 14.90625 -7.988281 14.367188 -7.859375 13.796875 -7.796875 C 13.222656 -7.742188 12.648438 -7.722656 12.078125 -7.734375 C 11.503906 -7.753906 10.957031 -7.765625 10.4375 -7.765625 L 10.328125 -7.828125 C 10.023438 -8.273438 9.816406 -8.832031 9.703125 -9.5 C 9.597656 -10.164062 9.554688 -10.859375 9.578125 -11.578125 C 9.597656 -12.296875 9.660156 -13.003906 9.765625 -13.703125 C 9.878906 -14.410156 10.007812 -15.039062 10.15625 -15.59375 C 10.863281 -15.519531 11.585938 -15.472656 12.328125 -15.453125 C 13.066406 -15.441406 13.785156 -15.34375 14.484375 -15.15625 C 14.972656 -15.039062 15.4375 -14.804688 15.875 -14.453125 C 16.320312 -14.109375 16.65625 -13.710938 16.875 -13.265625 C 17.132812 -12.640625 17.273438 -11.9375 17.296875 -11.15625 C 17.316406 -10.382812 17.117188 -9.71875 16.703125 -9.15625 Z M 16.65625 -24.984375 C 16.351562 -24.429688 15.953125 -24.015625 15.453125 -23.734375 C 14.960938 -23.453125 14.421875 -23.273438 13.828125 -23.203125 C 13.234375 -23.128906 12.617188 -23.109375 11.984375 -23.140625 C 11.359375 -23.179688 10.769531 -23.238281 10.21875 -23.3125 C 9.882812 -24.613281 9.78125 -25.875 9.90625 -27.09375 C 10.039062 -28.3125 10.070312 -29.347656 10 -30.203125 C 10.550781 -30.492188 11.242188 -30.628906 12.078125 -30.609375 C 12.910156 -30.597656 13.695312 -30.515625 14.4375 -30.359375 C 15.03125 -30.210938 15.554688 -29.984375 16.015625 -29.671875 C 16.472656 -29.359375 16.851562 -28.90625 17.15625 -28.3125 C 17.445312 -27.71875 17.5 -27.125 17.3125 -26.53125 C 17.132812 -25.9375 16.914062 -25.421875 16.65625 -24.984375 Z M 16.65625 -24.984375 "/></g></g></g><g fill="#ffffff" fill-opacity="1"><g transform="translate(122.566845, 82.39054)"><g><path d="M 28.640625 -0.171875 C 28.085938 -1.679688 27.40625 -3.148438 26.59375 -4.578125 C 25.78125 -6.003906 24.925781 -7.398438 24.03125 -8.765625 C 23.144531 -10.140625 22.238281 -11.5 21.3125 -12.84375 C 20.394531 -14.195312 19.546875 -15.5625 18.765625 -16.9375 L 18.765625 -16.984375 L 19.046875 -16.984375 C 20.816406 -17.097656 22.285156 -17.597656 23.453125 -18.484375 C 24.617188 -19.367188 25.554688 -20.476562 26.265625 -21.8125 C 27.410156 -23.738281 27.953125 -25.726562 27.890625 -27.78125 C 27.835938 -29.832031 27.328125 -31.707031 26.359375 -33.40625 C 25.398438 -35.113281 24.050781 -36.539062 22.3125 -37.6875 C 20.570312 -38.84375 18.613281 -39.472656 16.4375 -39.578125 C 13.726562 -39.878906 11.132812 -39.898438 8.65625 -39.640625 C 6.175781 -39.378906 3.898438 -39.101562 1.828125 -38.8125 C 1.898438 -38.320312 1.960938 -37.398438 2.015625 -36.046875 C 2.078125 -34.703125 2.125 -33.078125 2.15625 -31.171875 C 2.195312 -29.265625 2.242188 -27.171875 2.296875 -24.890625 C 2.359375 -22.617188 2.394531 -20.328125 2.40625 -18.015625 C 2.425781 -15.703125 2.4375 -13.460938 2.4375 -11.296875 C 2.4375 -9.128906 2.4375 -7.210938 2.4375 -5.546875 C 2.4375 -3.878906 2.414062 -2.535156 2.375 -1.515625 C 2.34375 -0.503906 2.289062 0 2.21875 0 C 2.40625 -0.0390625 2.894531 -0.0390625 3.6875 0 C 4.488281 0.0390625 5.390625 0.0507812 6.390625 0.03125 C 7.390625 0.0078125 8.394531 -0.0351562 9.40625 -0.109375 C 10.425781 -0.179688 11.25 -0.347656 11.875 -0.609375 C 11.84375 -1.316406 11.789062 -2.257812 11.71875 -3.4375 C 11.644531 -4.625 11.578125 -5.875 11.515625 -7.1875 C 11.460938 -8.5 11.4375 -9.773438 11.4375 -11.015625 C 11.4375 -12.253906 11.492188 -13.300781 11.609375 -14.15625 L 11.71875 -13.984375 C 12.488281 -13.023438 13.265625 -11.914062 14.046875 -10.65625 C 14.828125 -9.394531 15.546875 -8.117188 16.203125 -6.828125 C 16.867188 -5.535156 17.476562 -4.296875 18.03125 -3.109375 C 18.59375 -1.921875 19.0625 -0.90625 19.4375 -0.0625 L 19.484375 -0.0625 C 21.148438 0.0507812 22.78125 0.0625 24.375 -0.03125 C 25.96875 -0.125 27.410156 -0.171875 28.703125 -0.171875 Z M 9.9375 -31.03125 C 11.226562 -31.550781 12.503906 -31.835938 13.765625 -31.890625 C 15.023438 -31.953125 16.0625 -31.609375 16.875 -30.859375 C 17.394531 -30.453125 17.765625 -29.90625 17.984375 -29.21875 C 18.203125 -28.539062 18.273438 -27.859375 18.203125 -27.171875 C 18.128906 -26.484375 17.898438 -25.851562 17.515625 -25.28125 C 17.128906 -24.707031 16.582031 -24.347656 15.875 -24.203125 C 14.988281 -24.054688 14.046875 -24 13.046875 -24.03125 C 12.046875 -24.070312 11.117188 -24.128906 10.265625 -24.203125 L 10.21875 -24.203125 C 10.144531 -24.609375 10.097656 -25.109375 10.078125 -25.703125 C 10.054688 -26.296875 10.046875 -26.90625 10.046875 -27.53125 C 10.046875 -28.164062 10.035156 -28.785156 10.015625 -29.390625 C 10.003906 -30.003906 9.976562 -30.550781 9.9375 -31.03125 Z M 9.9375 -31.03125 "/></g></g></g><g fill="#ffffff" fill-opacity="1"><g transform="translate(151.322558, 82.39054)"><g><path d="M 10.984375 -39.03125 C 9.328125 -38.988281 8.0625 -38.992188 7.1875 -39.046875 C 6.320312 -39.109375 5.554688 -39.15625 4.890625 -39.1875 C 4.628906 -39.1875 4.226562 -39.210938 3.6875 -39.265625 C 3.15625 -39.328125 2.796875 -39.34375 2.609375 -39.3125 L 2.609375 -39.1875 C 2.273438 -36.082031 2.117188 -32.910156 2.140625 -29.671875 C 2.160156 -26.429688 2.210938 -23.15625 2.296875 -19.84375 C 2.390625 -16.53125 2.453125 -13.191406 2.484375 -9.828125 C 2.523438 -6.460938 2.421875 -3.113281 2.171875 0.21875 C 2.535156 0.113281 3.21875 0.0859375 4.21875 0.140625 C 5.21875 0.191406 6.265625 0.234375 7.359375 0.265625 C 8.453125 0.304688 9.46875 0.300781 10.40625 0.25 C 11.351562 0.195312 11.972656 0.0195312 12.265625 -0.28125 C 12.078125 -3.425781 11.960938 -6.609375 11.921875 -9.828125 C 11.890625 -13.046875 11.898438 -16.273438 11.953125 -19.515625 C 12.015625 -22.753906 12.09375 -25.984375 12.1875 -29.203125 C 12.28125 -32.421875 12.328125 -35.625 12.328125 -38.8125 L 12.328125 -39.03125 Z M 10.984375 -39.03125 "/></g></g></g><g fill="#ffffff" fill-opacity="1"><g transform="translate(165.755934, 82.39054)"><g><path d="M 13.484375 -19.3125 C 13.410156 -19.28125 13.375 -19.265625 13.375 -19.265625 C 13.34375 -19.265625 13.328125 -19.242188 13.328125 -19.203125 L 13.328125 -19.15625 C 13.398438 -18.488281 13.4375 -17.929688 13.4375 -17.484375 C 13.4375 -17.046875 13.425781 -16.613281 13.40625 -16.1875 C 13.382812 -15.757812 13.382812 -15.320312 13.40625 -14.875 C 13.425781 -14.4375 13.472656 -13.921875 13.546875 -13.328125 C 13.734375 -13.253906 14 -13.207031 14.34375 -13.1875 C 14.695312 -13.164062 15.085938 -13.164062 15.515625 -13.1875 C 15.941406 -13.207031 16.347656 -13.222656 16.734375 -13.234375 C 17.128906 -13.253906 17.4375 -13.25 17.65625 -13.21875 C 17.769531 -13.175781 17.832031 -13.003906 17.84375 -12.703125 C 17.863281 -12.410156 17.863281 -12.078125 17.84375 -11.703125 C 17.832031 -11.335938 17.796875 -10.976562 17.734375 -10.625 C 17.679688 -10.28125 17.632812 -10.03125 17.59375 -9.875 C 17.445312 -9.363281 17.222656 -8.945312 16.921875 -8.625 C 16.628906 -8.3125 16.28125 -8.066406 15.875 -7.890625 C 15.351562 -7.703125 14.785156 -7.550781 14.171875 -7.4375 C 13.566406 -7.320312 12.988281 -7.304688 12.4375 -7.390625 C 11.914062 -7.492188 11.488281 -7.660156 11.15625 -7.890625 C 10.457031 -8.441406 9.992188 -9.195312 9.765625 -10.15625 C 9.546875 -11.125 9.398438 -12.015625 9.328125 -12.828125 C 9.210938 -14.191406 9.132812 -15.632812 9.09375 -17.15625 C 9.0625 -18.675781 9.082031 -20.144531 9.15625 -21.5625 C 9.226562 -22.988281 9.347656 -24.332031 9.515625 -25.59375 C 9.679688 -26.851562 9.894531 -27.925781 10.15625 -28.8125 C 10.226562 -29.101562 10.328125 -29.40625 10.453125 -29.71875 C 10.585938 -30.039062 10.691406 -30.238281 10.765625 -30.3125 C 11.210938 -30.757812 11.734375 -30.984375 12.328125 -30.984375 C 12.921875 -30.984375 13.53125 -30.960938 14.15625 -30.921875 C 14.707031 -30.921875 15.1875 -30.742188 15.59375 -30.390625 C 16 -30.046875 16.359375 -29.640625 16.671875 -29.171875 C 16.992188 -28.710938 17.253906 -28.210938 17.453125 -27.671875 C 17.660156 -27.140625 17.820312 -26.6875 17.9375 -26.3125 C 18.488281 -26.238281 18.96875 -26.179688 19.375 -26.140625 C 19.78125 -26.109375 20.175781 -26.09375 20.5625 -26.09375 C 20.957031 -26.09375 21.347656 -26.097656 21.734375 -26.109375 C 22.117188 -26.128906 22.59375 -26.140625 23.15625 -26.140625 C 23.738281 -26.179688 24.160156 -26.203125 24.421875 -26.203125 C 24.679688 -26.203125 24.847656 -26.257812 24.921875 -26.375 L 24.984375 -26.703125 C 25.242188 -28.960938 25.039062 -30.914062 24.375 -32.5625 C 23.707031 -34.207031 22.707031 -35.53125 21.375 -36.53125 C 20.039062 -37.53125 18.445312 -38.222656 16.59375 -38.609375 C 14.75 -38.992188 12.804688 -39.0625 10.765625 -38.8125 C 9.765625 -38.65625 8.800781 -38.425781 7.875 -38.125 C 6.957031 -37.832031 6.128906 -37.375 5.390625 -36.75 C 4.316406 -36.007812 3.546875 -35.066406 3.078125 -33.921875 C 2.617188 -32.773438 2.296875 -31.585938 2.109375 -30.359375 C 1.921875 -29.179688 1.789062 -27.972656 1.71875 -26.734375 C 1.644531 -25.492188 1.585938 -24.28125 1.546875 -23.09375 C 1.515625 -21.726562 1.503906 -20.515625 1.515625 -19.453125 C 1.535156 -18.398438 1.570312 -17.398438 1.625 -16.453125 C 1.6875 -15.515625 1.753906 -14.5625 1.828125 -13.59375 C 1.898438 -12.632812 1.992188 -11.5625 2.109375 -10.375 C 2.179688 -9.632812 2.28125 -8.90625 2.40625 -8.1875 C 2.539062 -7.46875 2.664062 -6.90625 2.78125 -6.5 C 3.21875 -4.90625 3.828125 -3.570312 4.609375 -2.5 C 5.390625 -1.425781 6.519531 -0.570312 8 0.0625 C 8.882812 0.425781 9.816406 0.660156 10.796875 0.765625 C 11.773438 0.878906 12.78125 0.890625 13.8125 0.796875 C 14.851562 0.710938 15.875 0.566406 16.875 0.359375 C 17.875 0.160156 18.835938 -0.0664062 19.765625 -0.328125 C 21.171875 -0.847656 22.351562 -1.609375 23.3125 -2.609375 C 24.28125 -3.609375 24.851562 -5.050781 25.03125 -6.9375 C 25.40625 -8.9375 25.554688 -11.035156 25.484375 -13.234375 C 25.410156 -15.441406 25.257812 -17.523438 25.03125 -19.484375 L 24.984375 -19.546875 L 24.875 -19.546875 C 24.5 -19.546875 23.785156 -19.585938 22.734375 -19.671875 C 21.679688 -19.765625 20.539062 -19.832031 19.3125 -19.875 C 18.09375 -19.914062 16.9375 -19.90625 15.84375 -19.84375 C 14.757812 -19.789062 13.972656 -19.613281 13.484375 -19.3125 Z M 13.484375 -19.3125 "/></g></g></g><g fill="#ffffff" fill-opacity="1"><g transform="translate(192.457673, 82.39054)"><g><path d="M 24.53125 -39.1875 C 23.976562 -39.226562 23.359375 -39.257812 22.671875 -39.28125 C 21.992188 -39.300781 21.300781 -39.28125 20.59375 -39.21875 C 19.894531 -39.164062 19.21875 -39.082031 18.5625 -38.96875 C 17.914062 -38.863281 17.375 -38.734375 16.9375 -38.578125 C 17.039062 -35.921875 17.082031 -33.476562 17.0625 -31.25 C 17.050781 -29.03125 16.929688 -26.644531 16.703125 -24.09375 L 16.65625 -24.09375 C 15.726562 -24.019531 14.726562 -23.9375 13.65625 -23.84375 C 12.582031 -23.75 11.582031 -23.8125 10.65625 -24.03125 L 10.609375 -24.03125 C 10.160156 -26.40625 9.9375 -28.796875 9.9375 -31.203125 C 9.9375 -33.609375 9.769531 -36.085938 9.4375 -38.640625 C 8.914062 -38.785156 8.359375 -38.859375 7.765625 -38.859375 C 7.179688 -38.859375 6.582031 -38.835938 5.96875 -38.796875 C 5.351562 -38.765625 4.738281 -38.726562 4.125 -38.6875 C 3.519531 -38.65625 2.941406 -38.695312 2.390625 -38.8125 L 2.21875 -38.8125 L 2.21875 -38.75 C 2.1875 -36.863281 2.160156 -34.742188 2.140625 -32.390625 C 2.117188 -30.046875 2.125 -27.601562 2.15625 -25.0625 C 2.195312 -22.53125 2.242188 -20.003906 2.296875 -17.484375 C 2.359375 -14.972656 2.425781 -12.597656 2.5 -10.359375 C 2.570312 -8.117188 2.65625 -6.097656 2.75 -4.296875 C 2.84375 -2.503906 2.925781 -1.09375 3 -0.0625 C 3.332031 -0.238281 3.820312 -0.304688 4.46875 -0.265625 C 5.113281 -0.234375 5.804688 -0.179688 6.546875 -0.109375 C 7.285156 -0.0351562 8.023438 0 8.765625 0 C 9.503906 0 10.097656 -0.128906 10.546875 -0.390625 C 10.734375 -1.578125 10.832031 -2.769531 10.84375 -3.96875 C 10.863281 -5.175781 10.851562 -6.40625 10.8125 -7.65625 C 10.78125 -8.914062 10.753906 -10.175781 10.734375 -11.4375 C 10.722656 -12.695312 10.769531 -13.972656 10.875 -15.265625 C 11.945312 -15.523438 13.019531 -15.65625 14.09375 -15.65625 C 15.164062 -15.65625 16.242188 -15.5625 17.328125 -15.375 L 17.375 -15.328125 C 17.519531 -14.140625 17.609375 -12.894531 17.640625 -11.59375 C 17.679688 -10.300781 17.710938 -9.007812 17.734375 -7.71875 C 17.753906 -6.425781 17.789062 -5.117188 17.84375 -3.796875 C 17.90625 -2.484375 18.023438 -1.21875 18.203125 0 L 18.265625 0 C 18.710938 -0.0390625 19.257812 -0.0625 19.90625 -0.0625 C 20.550781 -0.0625 21.210938 -0.0625 21.890625 -0.0625 C 22.578125 -0.0625 23.28125 -0.078125 24 -0.109375 C 24.726562 -0.148438 25.40625 -0.222656 26.03125 -0.328125 Z M 24.53125 -39.1875 "/></g></g></g><g fill="#ffffff" fill-opacity="1"><g transform="translate(220.158644, 82.39054)"><g><path d="M 23.984375 -38.578125 C 20.171875 -38.984375 16.253906 -39.175781 12.234375 -39.15625 C 8.222656 -39.144531 4.332031 -39.117188 0.5625 -39.078125 C 0.5625 -39.046875 0.566406 -39.03125 0.578125 -39.03125 C 0.597656 -39.03125 0.609375 -39.007812 0.609375 -38.96875 C 0.535156 -38.082031 0.5 -37.15625 0.5 -36.1875 C 0.5 -35.226562 0.507812 -34.332031 0.53125 -33.5 C 0.550781 -32.664062 0.585938 -31.953125 0.640625 -31.359375 C 0.691406 -30.773438 0.753906 -30.40625 0.828125 -30.25 C 1.054688 -30.175781 1.445312 -30.140625 2 -30.140625 C 2.550781 -30.140625 3.160156 -30.128906 3.828125 -30.109375 C 4.492188 -30.097656 5.160156 -30.0625 5.828125 -30 C 6.492188 -29.945312 7.050781 -29.8125 7.5 -29.59375 L 7.546875 -29.53125 C 7.773438 -24.351562 7.914062 -19.929688 7.96875 -16.265625 C 8.019531 -12.597656 8.035156 -9.585938 8.015625 -7.234375 C 8.003906 -4.890625 7.976562 -3.125 7.9375 -1.9375 C 7.90625 -0.757812 7.90625 -0.09375 7.9375 0.0625 C 8.601562 -0.0507812 9.320312 -0.109375 10.09375 -0.109375 C 10.875 -0.109375 11.660156 -0.109375 12.453125 -0.109375 C 13.253906 -0.109375 14.050781 -0.117188 14.84375 -0.140625 C 15.644531 -0.160156 16.378906 -0.222656 17.046875 -0.328125 L 17.046875 -0.4375 C 16.972656 -4.476562 16.914062 -7.988281 16.875 -10.96875 C 16.84375 -13.945312 16.804688 -16.5 16.765625 -18.625 C 16.722656 -20.75 16.691406 -22.488281 16.671875 -23.84375 C 16.660156 -25.195312 16.65625 -26.289062 16.65625 -27.125 C 16.65625 -27.957031 16.660156 -28.566406 16.671875 -28.953125 C 16.691406 -29.335938 16.722656 -29.625 16.765625 -29.8125 C 16.765625 -29.851562 16.773438 -29.878906 16.796875 -29.890625 C 16.816406 -29.910156 16.828125 -29.941406 16.828125 -29.984375 L 16.984375 -29.984375 C 18.722656 -30.054688 20.109375 -30.109375 21.140625 -30.140625 C 22.179688 -30.179688 23.054688 -30.128906 23.765625 -29.984375 C 23.941406 -31.316406 24.039062 -32.773438 24.0625 -34.359375 C 24.082031 -35.953125 24.054688 -37.359375 23.984375 -38.578125 Z M 23.984375 -38.578125 "/></g></g></g><g fill="#ffffff" fill-opacity="1"><g transform="translate(244.750887, 82.39054)"><g><path d="M 25.484375 -17.65625 C 25.671875 -21.207031 25.6875 -24.710938 25.53125 -28.171875 C 25.382812 -31.628906 25.382812 -35.132812 25.53125 -38.6875 C 24.945312 -38.6875 24.238281 -38.675781 23.40625 -38.65625 C 22.570312 -38.644531 21.753906 -38.617188 20.953125 -38.578125 C 20.160156 -38.546875 19.421875 -38.507812 18.734375 -38.46875 C 18.046875 -38.4375 17.578125 -38.4375 17.328125 -38.46875 C 16.992188 -38.03125 16.648438 -37.328125 16.296875 -36.359375 C 15.941406 -35.398438 15.625 -34.429688 15.34375 -33.453125 C 15.070312 -32.472656 14.816406 -31.609375 14.578125 -30.859375 C 14.335938 -30.117188 14.160156 -29.769531 14.046875 -29.8125 C 13.929688 -29.8125 13.820312 -29.867188 13.71875 -29.984375 C 13.414062 -30.421875 13.125 -31.023438 12.84375 -31.796875 C 12.570312 -32.578125 12.285156 -33.394531 11.984375 -34.25 C 11.691406 -35.101562 11.378906 -35.910156 11.046875 -36.671875 C 10.710938 -37.429688 10.378906 -37.992188 10.046875 -38.359375 L 10 -38.359375 C 9.363281 -38.328125 8.710938 -38.316406 8.046875 -38.328125 C 7.378906 -38.347656 6.710938 -38.367188 6.046875 -38.390625 C 5.378906 -38.410156 4.734375 -38.398438 4.109375 -38.359375 C 3.484375 -38.328125 2.925781 -38.234375 2.4375 -38.078125 C 2.40625 -33.046875 2.378906 -28.640625 2.359375 -24.859375 C 2.335938 -21.085938 2.316406 -17.832031 2.296875 -15.09375 C 2.285156 -12.351562 2.28125 -10.054688 2.28125 -8.203125 C 2.28125 -6.359375 2.285156 -4.867188 2.296875 -3.734375 C 2.316406 -2.609375 2.34375 -1.769531 2.375 -1.21875 C 2.414062 -0.664062 2.457031 -0.316406 2.5 -0.171875 C 2.53125 -0.0546875 2.585938 0 2.671875 0 C 3.847656 0 5.140625 0.015625 6.546875 0.046875 C 7.953125 0.0859375 9.25 0.015625 10.4375 -0.171875 C 10.21875 -3.609375 10.0625 -7.101562 9.96875 -10.65625 C 9.875 -14.207031 9.972656 -17.722656 10.265625 -21.203125 C 10.265625 -21.203125 10.328125 -21.015625 10.453125 -20.640625 C 10.585938 -20.273438 10.75 -19.816406 10.9375 -19.265625 C 11.125 -18.710938 11.34375 -18.101562 11.59375 -17.4375 C 11.851562 -16.769531 12.101562 -16.140625 12.34375 -15.546875 C 12.59375 -14.953125 12.835938 -14.457031 13.078125 -14.0625 C 13.316406 -13.675781 13.53125 -13.484375 13.71875 -13.484375 C 13.863281 -13.484375 14.082031 -13.832031 14.375 -14.53125 C 14.675781 -15.238281 14.992188 -16.054688 15.328125 -16.984375 C 15.660156 -17.910156 15.992188 -18.804688 16.328125 -19.671875 C 16.660156 -20.546875 16.953125 -21.1875 17.203125 -21.59375 C 17.390625 -20.039062 17.53125 -18.335938 17.625 -16.484375 C 17.71875 -14.640625 17.773438 -12.753906 17.796875 -10.828125 C 17.816406 -8.898438 17.832031 -7.007812 17.84375 -5.15625 C 17.863281 -3.3125 17.910156 -1.59375 17.984375 0 C 18.429688 0 18.957031 -0.0078125 19.5625 -0.03125 C 20.175781 -0.0507812 20.816406 -0.0625 21.484375 -0.0625 C 22.148438 -0.0625 22.816406 -0.0625 23.484375 -0.0625 C 24.148438 -0.0625 24.757812 -0.0195312 25.3125 0.0625 Z M 25.484375 -17.65625 "/></g></g></g><g fill="#ffffff" fill-opacity="1"><g transform="translate(272.562886, 82.39054)"><g><path d="M 10.984375 -39.03125 C 9.328125 -38.988281 8.0625 -38.992188 7.1875 -39.046875 C 6.320312 -39.109375 5.554688 -39.15625 4.890625 -39.1875 C 4.628906 -39.1875 4.226562 -39.210938 3.6875 -39.265625 C 3.15625 -39.328125 2.796875 -39.34375 2.609375 -39.3125 L 2.609375 -39.1875 C 2.273438 -36.082031 2.117188 -32.910156 2.140625 -29.671875 C 2.160156 -26.429688 2.210938 -23.15625 2.296875 -19.84375 C 2.390625 -16.53125 2.453125 -13.191406 2.484375 -9.828125 C 2.523438 -6.460938 2.421875 -3.113281 2.171875 0.21875 C 2.535156 0.113281 3.21875 0.0859375 4.21875 0.140625 C 5.21875 0.191406 6.265625 0.234375 7.359375 0.265625 C 8.453125 0.304688 9.46875 0.300781 10.40625 0.25 C 11.351562 0.195312 11.972656 0.0195312 12.265625 -0.28125 C 12.078125 -3.425781 11.960938 -6.609375 11.921875 -9.828125 C 11.890625 -13.046875 11.898438 -16.273438 11.953125 -19.515625 C 12.015625 -22.753906 12.09375 -25.984375 12.1875 -29.203125 C 12.28125 -32.421875 12.328125 -35.625 12.328125 -38.8125 L 12.328125 -39.03125 Z M 10.984375 -39.03125 "/></g></g></g><g fill="#ffffff" fill-opacity="1"><g transform="translate(286.996263, 82.39054)"><g><path d="M 23.53125 0.28125 C 24.164062 0.28125 24.613281 0.242188 24.875 0.171875 C 25.132812 0.0976562 25.300781 0.0390625 25.375 0 L 25.375 -1.109375 C 25.375 -1.847656 25.363281 -2.585938 25.34375 -3.328125 C 25.320312 -4.066406 25.3125 -4.804688 25.3125 -5.546875 C 25.3125 -6.585938 25.320312 -7.609375 25.34375 -8.609375 C 25.363281 -9.609375 25.375 -10.644531 25.375 -11.71875 C 25.375 -13.300781 25.375 -14.890625 25.375 -16.484375 C 25.375 -18.078125 25.351562 -19.648438 25.3125 -21.203125 L 25.3125 -39.078125 C 24.238281 -39.304688 23.019531 -39.421875 21.65625 -39.421875 C 20.25 -39.421875 18.914062 -39.304688 17.65625 -39.078125 C 17.613281 -38.148438 17.582031 -37.289062 17.5625 -36.5 C 17.550781 -35.707031 17.546875 -34.921875 17.546875 -34.140625 C 17.546875 -32.804688 17.570312 -31.5 17.625 -30.21875 C 17.675781 -28.945312 17.703125 -27.570312 17.703125 -26.09375 C 17.703125 -25.46875 17.664062 -24.820312 17.59375 -24.15625 C 17.519531 -23.488281 17.429688 -23.113281 17.328125 -23.03125 C 17.285156 -23.03125 17.148438 -23.242188 16.921875 -23.671875 C 16.703125 -24.097656 16.4375 -24.613281 16.125 -25.21875 C 15.8125 -25.832031 15.46875 -26.519531 15.09375 -27.28125 C 14.726562 -28.039062 14.378906 -28.765625 14.046875 -29.453125 C 13.710938 -30.140625 13.414062 -30.738281 13.15625 -31.25 C 12.894531 -31.769531 12.726562 -32.125 12.65625 -32.3125 C 12.320312 -33.082031 12.035156 -33.71875 11.796875 -34.21875 C 11.554688 -34.71875 11.332031 -35.171875 11.125 -35.578125 C 10.925781 -35.992188 10.710938 -36.421875 10.484375 -36.859375 C 10.265625 -37.304688 10.023438 -37.863281 9.765625 -38.53125 C 9.765625 -38.601562 9.570312 -38.675781 9.1875 -38.75 C 8.800781 -38.820312 8.347656 -38.882812 7.828125 -38.9375 C 7.304688 -39 6.785156 -39.035156 6.265625 -39.046875 C 5.753906 -39.066406 5.382812 -39.078125 5.15625 -39.078125 C 4.71875 -39.078125 4.285156 -39.054688 3.859375 -39.015625 C 3.429688 -38.984375 3.035156 -38.929688 2.671875 -38.859375 C 2.484375 -36.492188 2.351562 -34.0625 2.28125 -31.5625 C 2.207031 -29.0625 2.171875 -26.535156 2.171875 -23.984375 C 2.171875 -20.503906 2.195312 -17.171875 2.25 -13.984375 C 2.300781 -10.804688 2.328125 -7.457031 2.328125 -3.9375 L 2.328125 -0.0625 C 3.179688 -0.0625 4.0625 -0.00390625 4.96875 0.109375 C 5.875 0.222656 6.769531 0.28125 7.65625 0.28125 C 8.0625 0.28125 8.46875 0.257812 8.875 0.21875 C 9.289062 0.1875 9.703125 0.113281 10.109375 0 C 10.066406 -0.625 10.046875 -1.332031 10.046875 -2.125 C 10.046875 -2.925781 10.046875 -3.753906 10.046875 -4.609375 C 10.046875 -6.160156 10.054688 -7.769531 10.078125 -9.4375 C 10.097656 -11.101562 10.125 -12.617188 10.15625 -13.984375 C 10.195312 -15.359375 10.242188 -16.488281 10.296875 -17.375 C 10.347656 -18.257812 10.394531 -18.703125 10.4375 -18.703125 C 10.507812 -18.703125 10.609375 -18.523438 10.734375 -18.171875 C 10.867188 -17.828125 11.007812 -17.453125 11.15625 -17.046875 L 11.71875 -15.375 C 12.5625 -13.007812 13.582031 -10.539062 14.78125 -7.96875 C 15.988281 -5.394531 17.207031 -2.738281 18.4375 0 C 19.175781 0 20.023438 0.046875 20.984375 0.140625 C 21.941406 0.234375 22.789062 0.28125 23.53125 0.28125 Z M 23.53125 0.28125 "/></g></g></g><g fill="#ffffff" fill-opacity="1"><g transform="translate(314.641739, 82.39054)"><g><path d="M 21.8125 -34.25 C 21.144531 -35.320312 20.265625 -36.289062 19.171875 -37.15625 C 18.085938 -38.03125 16.953125 -38.617188 15.765625 -38.921875 C 14.691406 -38.878906 13.585938 -38.875 12.453125 -38.90625 C 11.328125 -38.945312 10.191406 -38.976562 9.046875 -39 C 7.898438 -39.019531 6.757812 -38.984375 5.625 -38.890625 C 4.5 -38.796875 3.421875 -38.617188 2.390625 -38.359375 C 2.347656 -38.328125 2.316406 -38.289062 2.296875 -38.25 C 2.285156 -38.207031 2.257812 -38.171875 2.21875 -38.140625 C 2.289062 -34.921875 2.300781 -31.671875 2.25 -28.390625 C 2.195312 -25.117188 2.171875 -21.875 2.171875 -18.65625 C 2.171875 -15.4375 2.222656 -12.257812 2.328125 -9.125 C 2.441406 -6 2.703125 -2.976562 3.109375 -0.0625 C 3.148438 -0.09375 3.171875 -0.109375 3.171875 -0.109375 C 5.492188 -0.109375 7.894531 -0.117188 10.375 -0.140625 C 12.851562 -0.160156 15.316406 -0.207031 17.765625 -0.28125 C 19.171875 -2.019531 20.507812 -3.867188 21.78125 -5.828125 C 23.0625 -7.785156 24.070312 -9.859375 24.8125 -12.046875 C 24.8125 -12.085938 24.820312 -12.109375 24.84375 -12.109375 C 24.863281 -12.109375 24.875 -12.125 24.875 -12.15625 C 25.207031 -13.863281 25.398438 -15.59375 25.453125 -17.34375 C 25.503906 -19.101562 25.566406 -20.851562 25.640625 -22.59375 C 25.609375 -23.1875 25.5625 -23.769531 25.5 -24.34375 C 25.445312 -24.914062 25.332031 -25.5 25.15625 -26.09375 C 24.820312 -27.570312 24.382812 -28.984375 23.84375 -30.328125 C 23.300781 -31.679688 22.625 -32.988281 21.8125 -34.25 Z M 16.703125 -14.09375 C 16.484375 -13.757812 16.234375 -13.4375 15.953125 -13.125 C 15.679688 -12.8125 15.359375 -12.546875 14.984375 -12.328125 C 14.804688 -12.253906 14.640625 -12.171875 14.484375 -12.078125 C 14.335938 -11.984375 14.171875 -11.953125 13.984375 -11.984375 C 13.316406 -11.910156 12.625 -11.851562 11.90625 -11.8125 C 11.1875 -11.78125 10.625 -11.953125 10.21875 -12.328125 C 10.144531 -13.585938 10.109375 -14.851562 10.109375 -16.125 C 10.109375 -17.40625 10.125 -18.664062 10.15625 -19.90625 C 10.195312 -21.144531 10.21875 -22.335938 10.21875 -23.484375 C 10.21875 -24.628906 10.179688 -25.703125 10.109375 -26.703125 L 10.109375 -26.921875 L 10.265625 -26.921875 C 10.929688 -27.066406 11.632812 -27.128906 12.375 -27.109375 C 13.113281 -27.097656 13.800781 -27.054688 14.4375 -26.984375 C 15.0625 -26.753906 15.578125 -26.425781 15.984375 -26 C 16.390625 -25.582031 16.734375 -25.09375 17.015625 -24.53125 C 17.296875 -23.976562 17.507812 -23.394531 17.65625 -22.78125 C 17.800781 -22.175781 17.929688 -21.597656 18.046875 -21.046875 C 18.335938 -19.671875 18.34375 -18.410156 18.0625 -17.265625 C 17.789062 -16.117188 17.335938 -15.0625 16.703125 -14.09375 Z M 16.703125 -14.09375 "/></g></g></g><g fill="#ffffff" fill-opacity="1"><g transform="translate(341.398985, 82.39054)"><g><path d="M 25.703125 -26.3125 C 26.222656 -29.09375 26 -31.390625 25.03125 -33.203125 C 24.070312 -35.015625 22.703125 -36.382812 20.921875 -37.3125 C 20.035156 -37.71875 19.066406 -38.046875 18.015625 -38.296875 C 16.960938 -38.554688 15.890625 -38.710938 14.796875 -38.765625 C 13.703125 -38.828125 12.617188 -38.789062 11.546875 -38.65625 C 10.472656 -38.53125 9.492188 -38.285156 8.609375 -37.921875 C 6.828125 -37.179688 5.316406 -36.050781 4.078125 -34.53125 C 2.835938 -33.007812 1.992188 -31.320312 1.546875 -29.46875 C 1.109375 -27.625 1.140625 -25.71875 1.640625 -23.75 C 2.140625 -21.789062 3.238281 -20 4.9375 -18.375 C 5.457031 -17.925781 6.03125 -17.535156 6.65625 -17.203125 C 7.289062 -16.867188 7.976562 -16.628906 8.71875 -16.484375 C 9.488281 -16.335938 10.316406 -16.179688 11.203125 -16.015625 C 12.097656 -15.847656 12.925781 -15.597656 13.6875 -15.265625 C 14.445312 -14.929688 15.101562 -14.492188 15.65625 -13.953125 C 16.207031 -13.421875 16.539062 -12.710938 16.65625 -11.828125 C 16.875 -10.523438 16.625 -9.5625 15.90625 -8.9375 C 15.1875 -8.3125 14.332031 -7.988281 13.34375 -7.96875 C 12.363281 -7.945312 11.4375 -8.234375 10.5625 -8.828125 C 9.695312 -9.421875 9.226562 -10.304688 9.15625 -11.484375 C 7.894531 -11.453125 6.488281 -11.484375 4.9375 -11.578125 C 3.382812 -11.671875 1.960938 -11.625 0.671875 -11.4375 L 0.671875 -11.109375 C 0.554688 -9.328125 0.867188 -7.742188 1.609375 -6.359375 C 2.347656 -4.972656 3.347656 -3.796875 4.609375 -2.828125 C 5.867188 -1.867188 7.300781 -1.117188 8.90625 -0.578125 C 10.519531 -0.046875 12.140625 0.238281 13.765625 0.28125 C 14.910156 0.3125 16.03125 0.207031 17.125 -0.03125 C 18.21875 -0.269531 19.234375 -0.644531 20.171875 -1.15625 C 21.117188 -1.675781 21.960938 -2.34375 22.703125 -3.15625 C 23.441406 -3.976562 24.035156 -4.960938 24.484375 -6.109375 C 24.929688 -7.066406 25.253906 -8.070312 25.453125 -9.125 C 25.660156 -10.1875 25.734375 -11.234375 25.671875 -12.265625 C 25.617188 -13.304688 25.425781 -14.316406 25.09375 -15.296875 C 24.757812 -16.273438 24.257812 -17.191406 23.59375 -18.046875 C 22.519531 -19.640625 21.140625 -20.953125 19.453125 -21.984375 C 17.773438 -23.015625 15.953125 -23.644531 13.984375 -23.875 C 13.210938 -23.976562 12.492188 -24.175781 11.828125 -24.46875 C 11.160156 -24.769531 10.675781 -25.367188 10.375 -26.265625 C 10.34375 -26.515625 10.316406 -26.757812 10.296875 -27 C 10.273438 -27.25 10.300781 -27.5 10.375 -27.75 C 10.53125 -28.789062 11.023438 -29.492188 11.859375 -29.859375 C 12.691406 -30.234375 13.550781 -30.328125 14.4375 -30.140625 C 15.320312 -29.960938 16.078125 -29.539062 16.703125 -28.875 C 17.335938 -28.207031 17.546875 -27.375 17.328125 -26.375 C 18.617188 -26 20.003906 -25.835938 21.484375 -25.890625 C 22.960938 -25.953125 24.347656 -26.09375 25.640625 -26.3125 Z M 25.703125 -26.3125 "/></g></g></g></svg>