<svg xmlns="http://www.w3.org/2000/svg" xmlns:xlink="http://www.w3.org/1999/xlink" width="500" zoomAndPan="magnify" viewBox="0 0 375 103.92" height="128" preserveAspectRatio="xMidYMid meet" version="1.0"><defs><g/><clipPath id="ef7b5c6bc2"><path d="M 48 0 L 89.335938 0 L 89.335938 80 L 48 80 Z M 48 0 " clip-rule="nonzero"/></clipPath><clipPath id="961728477b"><path d="M 38 78 L 52 78 L 52 95.890625 L 38 95.890625 Z M 38 78 " clip-rule="nonzero"/></clipPath></defs><g clip-path="url(#ef7b5c6bc2)"><path fill="#badefc" d="M 64.914062 17.796875 C 65.261719 17.746094 65.609375 17.664062 65.90625 17.566406 C 66.878906 17.242188 67.667969 16.660156 68.0625 15.6875 C 68.625 14.285156 68.792969 12.945312 69.34375 11.890625 C 67.886719 12.066406 66.484375 12.578125 65.632812 13.730469 C 64.78125 14.886719 64.699219 16.402344 64.914062 17.796875 M 60.027344 29.089844 C 57.773438 29.089844 55.203125 29.570312 53.769531 31.386719 C 52.832031 32.574219 52.585938 34.078125 52.691406 35.570312 C 53.292969 35.070312 54.023438 34.742188 54.746094 34.449219 C 55.792969 34.019531 56.804688 33.632812 57.808594 33.105469 C 58.980469 32.492188 59.6875 31.535156 59.933594 30.246094 C 60 29.90625 60.035156 29.492188 60.027344 29.089844 Z M 83.871094 46.226562 C 82.707031 46.648438 81.386719 47.414062 80.636719 48.257812 C 79.9375 49.046875 79.65625 49.921875 79.898438 50.96875 C 80.234375 52.402344 80.890625 53.625 81.589844 54.902344 C 82.148438 55.9375 82.785156 57.097656 82.828125 58.304688 C 84.871094 57.019531 86.726562 55.214844 86.984375 52.84375 C 87.261719 50.308594 85.613281 47.949219 83.871094 46.226562 Z M 65.449219 48.066406 C 64.964844 46.75 64.171875 45.503906 62.894531 44.859375 C 61.6875 44.25 60.324219 44.3125 59.027344 44.691406 C 59.40625 44.980469 59.742188 45.328125 60.070312 45.679688 C 60.640625 46.289062 61.179688 46.878906 61.808594 47.429688 C 62.628906 48.140625 63.621094 48.351562 64.679688 48.21875 C 64.910156 48.191406 65.179688 48.136719 65.449219 48.066406 Z M 64.738281 58.320312 C 62.445312 59.472656 60.011719 61.296875 59.511719 63.90625 C 59.117188 65.960938 60.03125 67.957031 61.308594 69.640625 C 61.578125 68.660156 62.214844 67.824219 62.851562 67.042969 C 63.65625 66.050781 64.445312 65.117188 65.144531 64.046875 C 66.019531 62.714844 66.097656 61.28125 65.535156 59.820312 C 65.351562 59.347656 65.066406 58.796875 64.738281 58.320312 Z M 55.847656 2.8125 C 54.109375 3.371094 52.234375 4.375 51.589844 6.113281 C 51.160156 7.261719 51.363281 8.492188 51.832031 9.628906 C 52.183594 9.132812 52.644531 8.71875 53.109375 8.324219 C 53.835938 7.710938 54.550781 7.136719 55.21875 6.449219 C 55.984375 5.660156 56.25 4.714844 56.070312 3.640625 C 56.027344 3.390625 55.949219 3.097656 55.847656 2.8125 Z M 57.867188 19.917969 C 57.746094 20.957031 57.839844 22.058594 58.464844 22.902344 C 59.078125 23.734375 60.0625 24.140625 61.109375 24.316406 C 60.65625 23.390625 60.566406 22.417969 60.175781 21.449219 C 60.015625 21.046875 59.796875 20.683594 59.429688 20.4375 C 59.046875 20.179688 58.445312 20.027344 57.867188 19.917969 Z M 63.207031 19.273438 C 63.179688 19.210938 63.15625 19.144531 63.140625 19.074219 C 62.621094 16.878906 62.640625 14.4375 64.03125 12.550781 C 65.9375 9.964844 69.484375 9.609375 72.441406 9.917969 C 72.65625 9.941406 72.847656 10.03125 72.996094 10.167969 C 73.148438 10.300781 73.261719 10.480469 73.308594 10.691406 C 73.3125 10.710938 73.316406 10.726562 73.320312 10.746094 C 73.324219 10.78125 73.328125 10.816406 73.332031 10.851562 C 73.332031 10.882812 73.332031 10.921875 73.332031 10.953125 C 73.332031 10.972656 73.328125 10.992188 73.328125 11.011719 C 73.304688 11.226562 73.214844 11.417969 73.078125 11.570312 C 72.945312 11.71875 72.761719 11.832031 72.554688 11.878906 C 72.085938 11.980469 71.5625 12.144531 71.257812 12.542969 C 70.992188 12.894531 70.835938 13.472656 70.71875 13.894531 C 70.472656 14.761719 70.246094 15.589844 69.902344 16.429688 C 69.289062 17.953125 68.0625 18.945312 66.53125 19.453125 C 66.203125 19.5625 65.839844 19.65625 65.472656 19.722656 C 66.675781 22.589844 69.117188 23.902344 72.363281 24.09375 C 73.738281 24.171875 75.152344 24.042969 76.5 23.78125 C 76.90625 23.703125 77.34375 23.613281 77.761719 23.5 C 78.359375 20.1875 78.371094 16.515625 76.765625 13.492188 C 75.523438 11.160156 73.484375 9.5625 70.980469 8.769531 C 69.429688 8.277344 67.75 8.109375 66.109375 8.253906 C 66.09375 8.253906 66.074219 8.257812 66.058594 8.257812 C 65.210938 8.335938 64.378906 8.496094 63.578125 8.734375 C 61.484375 9.359375 59.414062 10.605469 58.292969 12.535156 C 57.308594 14.226562 57.273438 16.085938 57.820312 17.894531 C 59.71875 18.234375 61.183594 18.625 62.023438 20.707031 C 62.199219 21.144531 62.324219 21.597656 62.445312 22.054688 C 62.71875 23.082031 62.90625 24.109375 64.09375 24.371094 C 64.304688 24.417969 64.484375 24.53125 64.617188 24.683594 C 64.753906 24.832031 64.84375 25.027344 64.867188 25.238281 C 64.867188 25.257812 64.871094 25.277344 64.871094 25.296875 C 64.871094 25.332031 64.871094 25.367188 64.871094 25.398438 C 64.867188 25.4375 64.863281 25.46875 64.859375 25.503906 C 64.855469 25.523438 64.851562 25.539062 64.847656 25.558594 C 64.800781 25.769531 64.6875 25.949219 64.539062 26.085938 C 64.386719 26.21875 64.195312 26.308594 63.980469 26.332031 C 61.46875 26.59375 58.484375 26.277344 56.867188 24.085938 C 55.742188 22.5625 55.660156 20.625 56.035156 18.835938 C 55.933594 18.546875 55.847656 18.253906 55.777344 17.964844 C 55.042969 18.617188 54.136719 19.03125 53.105469 19.195312 C 52.566406 19.28125 52.050781 18.910156 51.96875 18.367188 C 51.878906 17.828125 52.25 17.316406 52.792969 17.230469 C 53.753906 17.078125 54.515625 16.609375 55.03125 15.785156 C 55.25 15.4375 55.476562 14.921875 55.535156 14.511719 C 55.542969 14.449219 55.558594 14.390625 55.578125 14.335938 C 55.726562 13.375 56.050781 12.4375 56.570312 11.535156 C 57.953125 9.15625 60.417969 7.601562 63.007812 6.828125 C 63.546875 6.667969 64.097656 6.539062 64.65625 6.441406 C 64.109375 5.273438 63.175781 4.226562 62.160156 3.519531 C 60.839844 2.601562 59.339844 2.191406 57.796875 2.371094 C 57.902344 2.695312 57.980469 3.019531 58.03125 3.316406 C 58.316406 5.011719 57.847656 6.59375 56.640625 7.832031 C 55.925781 8.570312 55.171875 9.183594 54.394531 9.84375 C 54.039062 10.144531 53.515625 10.582031 53.320312 11.015625 C 53.140625 11.410156 53.21875 11.867188 53.324219 12.269531 C 53.378906 12.46875 53.367188 12.671875 53.300781 12.855469 C 53.238281 13.039062 53.121094 13.207031 52.953125 13.328125 C 52.902344 13.367188 52.851562 13.398438 52.792969 13.421875 C 52.738281 13.449219 52.679688 13.46875 52.621094 13.484375 C 52.421875 13.539062 52.21875 13.527344 52.035156 13.464844 C 51.851562 13.398438 51.683594 13.28125 51.5625 13.113281 C 49.96875 10.9375 48.722656 8.113281 49.722656 5.417969 C 50.726562 2.734375 53.523438 1.335938 56.132812 0.660156 C 56.210938 0.640625 56.292969 0.628906 56.371094 0.628906 C 58.792969 -0.0234375 61.234375 0.453125 63.292969 1.882812 C 64.785156 2.917969 66.082031 4.484375 66.714844 6.222656 C 68.367188 6.164062 70.023438 6.375 71.582031 6.871094 C 74.582031 7.824219 77.035156 9.765625 78.519531 12.558594 C 80.320312 15.945312 80.394531 19.949219 79.75 23.660156 C 83.449219 25.304688 85.457031 28.785156 85.300781 32.894531 C 85.230469 34.664062 84.75 36.5 83.839844 38.019531 C 83.332031 38.871094 82.667969 39.652344 81.855469 40.214844 C 83.28125 41.40625 84.425781 42.851562 84.996094 44.546875 C 87.308594 46.75 89.324219 49.722656 88.960938 53.058594 C 88.511719 57.167969 84.703125 59.835938 81.238281 61.398438 C 81.042969 61.484375 80.832031 61.507812 80.636719 61.46875 C 80.441406 61.429688 80.257812 61.332031 80.109375 61.179688 C 80.085938 61.15625 80.0625 61.128906 80.042969 61.105469 C 80.03125 61.085938 80.015625 61.066406 80.003906 61.046875 C 79.988281 61.03125 79.976562 61.011719 79.964844 60.992188 C 79.949219 60.960938 79.933594 60.933594 79.921875 60.902344 C 79.832031 60.707031 79.8125 60.5 79.851562 60.304688 C 79.890625 60.109375 79.984375 59.921875 80.136719 59.777344 C 80.492188 59.433594 80.804688 59.027344 80.835938 58.519531 C 80.886719 57.710938 80.214844 56.542969 79.839844 55.851562 C 79.050781 54.398438 78.339844 53.046875 77.960938 51.417969 C 77.621094 49.953125 77.925781 48.535156 78.828125 47.332031 C 79.730469 46.121094 81.308594 45.101562 82.824219 44.492188 C 82.21875 43.265625 81.199219 42.210938 80.144531 41.394531 C 78.375 40.027344 76.210938 39.078125 74.0625 38.503906 C 73.582031 38.375 73.101562 38.261719 72.617188 38.167969 C 72.601562 38.164062 72.585938 38.164062 72.570312 38.160156 C 70.925781 37.839844 69.257812 37.714844 67.597656 37.773438 C 69.585938 38.882812 70.957031 40.644531 71.5625 42.96875 C 71.703125 43.496094 71.382812 44.042969 70.851562 44.183594 C 70.320312 44.320312 69.777344 44 69.640625 43.472656 C 69.074219 41.3125 67.710938 39.839844 65.640625 39.058594 C 64.800781 38.738281 63.613281 38.476562 62.679688 38.480469 C 60.894531 38.933594 59.164062 39.601562 57.53125 40.46875 C 52.960938 42.890625 50.863281 46.761719 51.207031 51.875 C 51.324219 53.621094 51.71875 55.378906 52.289062 57.03125 C 52.386719 57.3125 52.496094 57.609375 52.609375 57.90625 C 53.421875 57.175781 54.316406 56.542969 55.253906 55.980469 C 57.511719 54.625 59.910156 53.746094 62.3125 52.703125 C 63.273438 52.285156 65.539062 51.320312 65.898438 50.230469 C 65.925781 50.152344 65.941406 50.074219 65.949219 49.992188 C 65.597656 50.085938 65.242188 50.152344 64.921875 50.191406 C 63.300781 50.394531 61.75 50.015625 60.5 48.925781 C 59.816406 48.332031 59.234375 47.699219 58.617188 47.039062 C 58.308594 46.707031 57.90625 46.273438 57.5 46.070312 C 57.050781 45.847656 56.53125 45.902344 56.054688 46 C 55.84375 46.042969 55.636719 46.015625 55.449219 45.933594 C 55.265625 45.851562 55.105469 45.71875 54.996094 45.53125 C 54.984375 45.511719 54.972656 45.488281 54.964844 45.46875 C 54.949219 45.441406 54.9375 45.414062 54.925781 45.386719 C 54.914062 45.355469 54.90625 45.328125 54.894531 45.296875 C 54.890625 45.273438 54.882812 45.25 54.878906 45.226562 C 54.835938 45.015625 54.863281 44.808594 54.945312 44.625 C 55.023438 44.441406 55.160156 44.28125 55.34375 44.171875 C 57.851562 42.691406 61.023438 41.6875 63.792969 43.085938 C 65.855469 44.132812 67.03125 46.191406 67.621094 48.351562 C 67.953125 49.15625 68.066406 50.007812 67.789062 50.851562 C 67.167969 52.730469 64.78125 53.796875 63.101562 54.527344 C 60.796875 55.53125 58.445312 56.382812 56.277344 57.6875 C 54.089844 59 52.242188 60.679688 51.324219 63.117188 C 50.171875 66.179688 50.097656 69.394531 51.933594 72.207031 C 54.617188 76.316406 60.234375 77.972656 64.914062 77.515625 C 70.738281 76.953125 75.21875 73.433594 76.894531 67.777344 C 77.769531 64.832031 77.597656 61.863281 75.160156 59.742188 C 74.519531 59.183594 73.78125 58.738281 73.007812 58.394531 C 71.695312 57.808594 70.214844 57.488281 68.78125 57.4375 C 68.125 57.417969 67.355469 57.453125 66.636719 57.597656 C 66.933594 58.078125 67.1875 58.589844 67.371094 59.054688 C 68.183594 61.128906 68.046875 63.25 66.8125 65.136719 C 66.066406 66.269531 65.246094 67.25 64.394531 68.296875 C 63.960938 68.828125 63.375 69.550781 63.210938 70.226562 C 63.042969 70.902344 63.296875 71.585938 63.597656 72.183594 C 63.691406 72.375 63.71875 72.578125 63.691406 72.769531 C 63.664062 72.96875 63.582031 73.15625 63.4375 73.308594 C 63.398438 73.351562 63.355469 73.394531 63.308594 73.425781 C 63.261719 73.460938 63.207031 73.492188 63.15625 73.519531 C 62.96875 73.617188 62.765625 73.644531 62.570312 73.617188 C 62.375 73.589844 62.1875 73.507812 62.035156 73.363281 C 60.527344 71.96875 59.113281 70.3125 58.253906 68.4375 C 57.542969 66.886719 57.234375 65.21875 57.558594 63.53125 C 58.246094 59.953125 61.476562 57.601562 64.601562 56.183594 C 65.863281 55.570312 67.464844 55.402344 68.851562 55.449219 C 70.539062 55.507812 72.269531 55.886719 73.8125 56.574219 C 78.742188 58.761719 80.320312 63.222656 78.800781 68.339844 C 76.894531 74.777344 71.738281 78.851562 65.109375 79.496094 C 59.675781 80.023438 53.367188 78.042969 50.269531 73.292969 C 48.082031 69.941406 48.085938 66.078125 49.464844 62.414062 C 49.871094 61.34375 50.425781 60.371094 51.121094 59.492188 C 50.851562 58.902344 50.617188 58.269531 50.410156 57.679688 C 49.78125 55.859375 49.351562 53.933594 49.222656 52.011719 C 48.824219 46.113281 51.335938 41.503906 56.601562 38.710938 C 58.367188 37.773438 60.238281 37.050781 62.167969 36.558594 C 62.238281 36.53125 62.316406 36.511719 62.394531 36.5 C 65.25 35.796875 68.222656 35.59375 71.148438 35.933594 C 70.601562 34.875 69.90625 33.828125 69.253906 33.019531 C 67.371094 30.707031 64.957031 29.191406 62.019531 29.089844 C 62.027344 29.597656 61.984375 30.109375 61.902344 30.546875 C 61.558594 32.464844 60.464844 33.964844 58.730469 34.871094 C 57.667969 35.425781 56.605469 35.835938 55.5 36.289062 C 54.953125 36.511719 54.210938 36.816406 53.800781 37.257812 C 53.429688 37.65625 53.316406 38.203125 53.273438 38.730469 C 53.257812 38.933594 53.175781 39.121094 53.054688 39.273438 C 52.933594 39.421875 52.765625 39.539062 52.570312 39.597656 C 52.507812 39.613281 52.445312 39.628906 52.386719 39.636719 C 52.324219 39.640625 52.261719 39.640625 52.199219 39.636719 C 51.992188 39.621094 51.804688 39.539062 51.65625 39.417969 C 51.503906 39.296875 51.386719 39.132812 51.328125 38.933594 C 50.453125 36.039062 50.222656 32.667969 52.207031 30.15625 C 54.253906 27.5625 57.800781 26.972656 60.914062 27.121094 C 64.933594 26.84375 68.308594 28.707031 70.796875 31.765625 C 71.816406 33.019531 72.878906 34.738281 73.519531 36.324219 C 73.875 36.402344 74.226562 36.488281 74.578125 36.582031 C 76.355469 37.058594 78.316406 37.839844 80.074219 38.933594 C 80.960938 38.589844 81.660156 37.792969 82.132812 37.003906 C 82.871094 35.765625 83.257812 34.253906 83.316406 32.824219 C 83.441406 29.394531 81.785156 26.589844 78.59375 25.332031 C 78.035156 25.5 77.4375 25.628906 76.878906 25.738281 C 75.363281 26.027344 73.789062 26.167969 72.25 26.078125 C 67.796875 25.820312 64.472656 23.65625 63.207031 19.273438 Z M 63.207031 19.273438 " fill-opacity="1" fill-rule="nonzero"/></g><path fill="#badefc" d="M 25.3125 17.796875 C 24.964844 17.746094 24.617188 17.664062 24.320312 17.566406 C 23.347656 17.242188 22.558594 16.660156 22.164062 15.6875 C 21.601562 14.285156 21.433594 12.945312 20.882812 11.890625 C 22.339844 12.066406 23.742188 12.578125 24.59375 13.730469 C 25.445312 14.886719 25.527344 16.402344 25.3125 17.796875 M 30.195312 29.089844 C 32.453125 29.089844 35.023438 29.570312 36.457031 31.386719 C 37.394531 32.574219 37.640625 34.078125 37.535156 35.570312 C 36.933594 35.070312 36.199219 34.742188 35.480469 34.449219 C 34.433594 34.019531 33.421875 33.632812 32.417969 33.105469 C 31.246094 32.492188 30.535156 31.535156 30.289062 30.246094 C 30.226562 29.90625 30.191406 29.492188 30.195312 29.089844 Z M 6.359375 46.226562 C 7.519531 46.648438 8.84375 47.414062 9.589844 48.257812 C 10.289062 49.046875 10.570312 49.921875 10.328125 50.96875 C 9.992188 52.402344 9.332031 53.625 8.636719 54.902344 C 8.078125 55.9375 7.441406 57.097656 7.398438 58.304688 C 5.359375 57.019531 3.5 55.214844 3.242188 52.84375 C 2.964844 50.308594 4.613281 47.949219 6.359375 46.226562 Z M 24.777344 48.066406 C 25.261719 46.75 26.054688 45.503906 27.328125 44.859375 C 28.539062 44.25 29.902344 44.3125 31.199219 44.691406 C 30.820312 44.980469 30.484375 45.328125 30.15625 45.679688 C 29.585938 46.289062 29.046875 46.878906 28.417969 47.429688 C 27.597656 48.140625 26.605469 48.351562 25.546875 48.21875 C 25.316406 48.191406 25.046875 48.136719 24.777344 48.066406 Z M 25.488281 58.320312 C 27.78125 59.472656 30.214844 61.296875 30.714844 63.90625 C 31.109375 65.960938 30.195312 67.957031 28.917969 69.640625 C 28.648438 68.660156 28.007812 67.824219 27.375 67.042969 C 26.570312 66.050781 25.78125 65.117188 25.078125 64.046875 C 24.207031 62.714844 24.128906 61.28125 24.695312 59.820312 C 24.871094 59.347656 25.160156 58.796875 25.488281 58.320312 Z M 34.378906 2.8125 C 36.113281 3.371094 37.988281 4.375 38.636719 6.113281 C 39.0625 7.261719 38.863281 8.492188 38.390625 9.628906 C 38.042969 9.132812 37.582031 8.71875 37.117188 8.324219 C 36.390625 7.710938 35.675781 7.136719 35.007812 6.449219 C 34.246094 5.660156 33.976562 4.714844 34.15625 3.640625 C 34.199219 3.390625 34.277344 3.097656 34.378906 2.8125 Z M 32.359375 19.917969 C 32.480469 20.957031 32.382812 22.058594 31.761719 22.902344 C 31.148438 23.734375 30.164062 24.140625 29.113281 24.316406 C 29.570312 23.390625 29.660156 22.417969 30.050781 21.449219 C 30.210938 21.046875 30.429688 20.683594 30.796875 20.4375 C 31.175781 20.179688 31.78125 20.027344 32.359375 19.917969 Z M 27.019531 19.273438 C 27.046875 19.210938 27.070312 19.144531 27.085938 19.074219 C 27.605469 16.878906 27.585938 14.4375 26.195312 12.550781 C 24.285156 9.964844 20.742188 9.609375 17.785156 9.917969 C 17.570312 9.941406 17.378906 10.03125 17.230469 10.167969 C 17.078125 10.300781 16.964844 10.480469 16.917969 10.691406 C 16.914062 10.710938 16.910156 10.726562 16.90625 10.746094 C 16.902344 10.78125 16.898438 10.816406 16.894531 10.851562 C 16.894531 10.882812 16.894531 10.921875 16.894531 10.953125 C 16.894531 10.972656 16.898438 10.992188 16.898438 11.011719 C 16.921875 11.226562 17.011719 11.417969 17.148438 11.570312 C 17.28125 11.71875 17.464844 11.832031 17.671875 11.878906 C 18.140625 11.980469 18.664062 12.144531 18.96875 12.542969 C 19.234375 12.894531 19.390625 13.472656 19.511719 13.894531 C 19.753906 14.761719 19.980469 15.589844 20.320312 16.429688 C 20.933594 17.953125 22.164062 18.945312 23.695312 19.453125 C 24.023438 19.5625 24.382812 19.65625 24.753906 19.722656 C 23.550781 22.589844 21.109375 23.902344 17.863281 24.09375 C 16.488281 24.171875 15.074219 24.042969 13.726562 23.78125 C 13.316406 23.703125 12.882812 23.613281 12.464844 23.5 C 11.867188 20.1875 11.855469 16.515625 13.460938 13.492188 C 14.703125 11.160156 16.738281 9.5625 19.246094 8.769531 C 20.796875 8.277344 22.476562 8.109375 24.117188 8.253906 C 24.132812 8.253906 24.152344 8.257812 24.167969 8.257812 C 25.011719 8.335938 25.847656 8.496094 26.648438 8.734375 C 28.742188 9.359375 30.8125 10.605469 31.933594 12.535156 C 32.914062 14.226562 32.953125 16.085938 32.40625 17.894531 C 30.507812 18.234375 29.042969 18.625 28.203125 20.707031 C 28.027344 21.144531 27.902344 21.597656 27.78125 22.054688 C 27.507812 23.082031 27.320312 24.109375 26.132812 24.371094 C 25.921875 24.417969 25.742188 24.53125 25.605469 24.683594 C 25.472656 24.832031 25.382812 25.027344 25.359375 25.238281 C 25.359375 25.257812 25.355469 25.277344 25.355469 25.296875 C 25.355469 25.332031 25.355469 25.367188 25.355469 25.398438 C 25.359375 25.4375 25.363281 25.46875 25.367188 25.503906 C 25.371094 25.523438 25.375 25.539062 25.378906 25.558594 C 25.425781 25.769531 25.539062 25.949219 25.6875 26.085938 C 25.839844 26.21875 26.03125 26.308594 26.246094 26.332031 C 28.757812 26.59375 31.742188 26.277344 33.359375 24.085938 C 34.484375 22.5625 34.5625 20.625 34.191406 18.835938 C 34.289062 18.546875 34.378906 18.253906 34.449219 17.964844 C 35.183594 18.617188 36.089844 19.03125 37.121094 19.195312 C 37.664062 19.28125 38.171875 18.910156 38.257812 18.367188 C 38.34375 17.828125 37.976562 17.316406 37.433594 17.230469 C 36.472656 17.078125 35.710938 16.609375 35.191406 15.785156 C 34.976562 15.4375 34.75 14.921875 34.691406 14.511719 C 34.679688 14.449219 34.667969 14.390625 34.648438 14.335938 C 34.5 13.375 34.175781 12.4375 33.652344 11.535156 C 32.273438 9.15625 29.808594 7.601562 27.21875 6.828125 C 26.679688 6.667969 26.128906 6.539062 25.570312 6.441406 C 26.117188 5.273438 27.046875 4.226562 28.066406 3.519531 C 29.386719 2.601562 30.886719 2.191406 32.425781 2.371094 C 32.324219 2.695312 32.242188 3.019531 32.195312 3.316406 C 31.910156 5.011719 32.375 6.59375 33.582031 7.832031 C 34.300781 8.570312 35.054688 9.183594 35.832031 9.84375 C 36.1875 10.144531 36.710938 10.582031 36.90625 11.015625 C 37.082031 11.410156 37.007812 11.867188 36.902344 12.269531 C 36.847656 12.46875 36.859375 12.671875 36.921875 12.855469 C 36.988281 13.039062 37.105469 13.207031 37.273438 13.328125 C 37.324219 13.367188 37.375 13.398438 37.429688 13.421875 C 37.484375 13.449219 37.542969 13.46875 37.605469 13.484375 C 37.804688 13.539062 38.007812 13.527344 38.191406 13.464844 C 38.375 13.398438 38.539062 13.28125 38.664062 13.113281 C 40.257812 10.9375 41.503906 8.113281 40.5 5.417969 C 39.5 2.734375 36.703125 1.335938 34.089844 0.660156 C 34.011719 0.640625 33.933594 0.628906 33.855469 0.628906 C 31.433594 -0.0234375 28.992188 0.453125 26.933594 1.882812 C 25.441406 2.917969 24.148438 4.484375 23.507812 6.222656 C 21.859375 6.164062 20.199219 6.375 18.644531 6.871094 C 15.640625 7.824219 13.191406 9.765625 11.707031 12.558594 C 9.90625 15.945312 9.832031 19.949219 10.476562 23.660156 C 6.777344 25.304688 4.769531 28.785156 4.925781 32.894531 C 4.992188 34.664062 5.476562 36.5 6.386719 38.019531 C 6.894531 38.871094 7.558594 39.652344 8.367188 40.214844 C 6.945312 41.40625 5.800781 42.851562 5.230469 44.546875 C 2.917969 46.75 0.902344 49.722656 1.265625 53.058594 C 1.714844 57.167969 5.523438 59.835938 8.988281 61.398438 C 9.183594 61.484375 9.390625 61.507812 9.585938 61.46875 C 9.78125 61.429688 9.96875 61.332031 10.117188 61.179688 C 10.140625 61.15625 10.160156 61.128906 10.179688 61.105469 C 10.195312 61.085938 10.207031 61.066406 10.222656 61.046875 C 10.234375 61.03125 10.246094 61.011719 10.257812 60.992188 C 10.277344 60.960938 10.289062 60.933594 10.304688 60.902344 C 10.390625 60.707031 10.414062 60.5 10.375 60.304688 C 10.335938 60.109375 10.242188 59.921875 10.085938 59.777344 C 9.734375 59.433594 9.421875 59.027344 9.390625 58.519531 C 9.339844 57.710938 10.011719 56.542969 10.386719 55.851562 C 11.175781 54.398438 11.882812 53.046875 12.265625 51.417969 C 12.605469 49.953125 12.296875 48.535156 11.402344 47.332031 C 10.496094 46.121094 8.917969 45.101562 7.398438 44.492188 C 8.003906 43.265625 9.023438 42.210938 10.082031 41.394531 C 11.851562 40.027344 14.015625 39.078125 16.164062 38.503906 C 16.644531 38.375 17.125 38.261719 17.609375 38.167969 C 17.625 38.164062 17.640625 38.164062 17.65625 38.160156 C 19.296875 37.839844 20.96875 37.714844 22.632812 37.773438 C 20.640625 38.882812 19.269531 40.644531 18.664062 42.96875 C 18.523438 43.496094 18.84375 44.042969 19.375 44.183594 C 19.902344 44.320312 20.449219 44 20.585938 43.472656 C 21.152344 41.3125 22.515625 39.839844 24.585938 39.058594 C 25.425781 38.738281 26.613281 38.476562 27.546875 38.480469 C 29.332031 38.933594 31.0625 39.601562 32.695312 40.46875 C 37.265625 42.890625 39.367188 46.761719 39.019531 51.875 C 38.902344 53.621094 38.507812 55.378906 37.933594 57.03125 C 37.835938 57.3125 37.730469 57.609375 37.617188 57.90625 C 36.804688 57.175781 35.910156 56.542969 34.972656 55.980469 C 32.714844 54.625 30.3125 53.746094 27.914062 52.703125 C 26.953125 52.285156 24.6875 51.320312 24.328125 50.230469 C 24.300781 50.152344 24.285156 50.074219 24.277344 49.992188 C 24.628906 50.085938 24.980469 50.152344 25.300781 50.191406 C 26.925781 50.394531 28.476562 50.015625 29.722656 48.925781 C 30.40625 48.332031 30.992188 47.699219 31.609375 47.039062 C 31.917969 46.707031 32.320312 46.273438 32.726562 46.070312 C 33.175781 45.847656 33.695312 45.902344 34.171875 46 C 34.382812 46.042969 34.589844 46.015625 34.773438 45.933594 C 34.957031 45.851562 35.121094 45.71875 35.226562 45.53125 C 35.242188 45.511719 35.25 45.488281 35.261719 45.46875 C 35.277344 45.441406 35.289062 45.414062 35.300781 45.386719 C 35.3125 45.355469 35.320312 45.328125 35.328125 45.296875 C 35.335938 45.273438 35.339844 45.25 35.34375 45.226562 C 35.390625 45.015625 35.363281 44.808594 35.28125 44.625 C 35.199219 44.441406 35.0625 44.28125 34.878906 44.171875 C 32.375 42.691406 29.199219 41.6875 26.429688 43.085938 C 24.367188 44.132812 23.195312 46.191406 22.601562 48.351562 C 22.269531 49.15625 22.160156 50.007812 22.4375 50.851562 C 23.054688 52.730469 25.445312 53.796875 27.121094 54.527344 C 29.429688 55.53125 31.777344 56.382812 33.949219 57.6875 C 36.132812 59 37.980469 60.679688 38.898438 63.117188 C 40.050781 66.179688 40.128906 69.394531 38.292969 72.207031 C 35.609375 76.316406 29.988281 77.972656 25.308594 77.515625 C 19.484375 76.953125 15.003906 73.433594 13.332031 67.777344 C 12.457031 64.832031 12.628906 61.863281 15.0625 59.742188 C 15.703125 59.183594 16.441406 58.738281 17.21875 58.394531 C 18.53125 57.808594 20.007812 57.488281 21.441406 57.4375 C 22.097656 57.417969 22.867188 57.453125 23.585938 57.597656 C 23.289062 58.078125 23.035156 58.589844 22.855469 59.054688 C 22.039062 61.128906 22.179688 63.25 23.414062 65.136719 C 24.15625 66.269531 24.980469 67.25 25.832031 68.296875 C 26.261719 68.828125 26.847656 69.550781 27.015625 70.226562 C 27.179688 70.902344 26.929688 71.585938 26.628906 72.183594 C 26.53125 72.375 26.503906 72.578125 26.53125 72.769531 C 26.558594 72.96875 26.644531 73.15625 26.785156 73.308594 C 26.828125 73.351562 26.871094 73.394531 26.917969 73.425781 C 26.964844 73.460938 27.015625 73.492188 27.070312 73.519531 C 27.257812 73.617188 27.460938 73.644531 27.65625 73.617188 C 27.847656 73.589844 28.035156 73.507812 28.191406 73.363281 C 29.695312 71.96875 31.109375 70.3125 31.96875 68.4375 C 32.679688 66.886719 32.992188 65.21875 32.667969 63.53125 C 31.980469 59.953125 28.746094 57.601562 25.625 56.183594 C 24.363281 55.570312 22.761719 55.402344 21.375 55.449219 C 19.6875 55.507812 17.957031 55.886719 16.410156 56.574219 C 11.480469 58.761719 9.90625 63.222656 11.421875 68.339844 C 13.328125 74.777344 18.484375 78.851562 25.117188 79.496094 C 30.550781 80.023438 36.859375 78.042969 39.957031 73.292969 C 42.144531 69.941406 42.136719 66.078125 40.757812 62.414062 C 40.355469 61.34375 39.796875 60.371094 39.105469 59.492188 C 39.371094 58.902344 39.609375 58.269531 39.8125 57.679688 C 40.441406 55.859375 40.875 53.933594 41.003906 52.011719 C 41.402344 46.113281 38.890625 41.503906 33.625 38.710938 C 31.859375 37.773438 29.984375 37.050781 28.058594 36.558594 C 27.984375 36.53125 27.910156 36.511719 27.832031 36.5 C 24.976562 35.796875 22.003906 35.59375 19.078125 35.933594 C 19.625 34.875 20.316406 33.828125 20.972656 33.019531 C 22.855469 30.707031 25.269531 29.191406 28.207031 29.089844 C 28.199219 29.597656 28.242188 30.109375 28.324219 30.546875 C 28.667969 32.464844 29.761719 33.964844 31.492188 34.871094 C 32.554688 35.425781 33.621094 35.835938 34.722656 36.289062 C 35.269531 36.511719 36.015625 36.816406 36.421875 37.257812 C 36.796875 37.65625 36.910156 38.203125 36.953125 38.730469 C 36.96875 38.933594 37.046875 39.121094 37.171875 39.273438 C 37.292969 39.421875 37.457031 39.539062 37.65625 39.597656 C 37.71875 39.613281 37.777344 39.628906 37.839844 39.636719 C 37.902344 39.640625 37.964844 39.640625 38.027344 39.636719 C 38.234375 39.621094 38.417969 39.539062 38.570312 39.417969 C 38.71875 39.296875 38.835938 39.132812 38.894531 38.933594 C 39.773438 36.039062 40 32.667969 38.015625 30.15625 C 35.96875 27.5625 32.425781 26.972656 29.3125 27.121094 C 25.292969 26.84375 21.917969 28.707031 19.429688 31.765625 C 18.410156 33.019531 17.34375 34.738281 16.707031 36.324219 C 16.351562 36.402344 16 36.488281 15.648438 36.582031 C 13.871094 37.058594 11.910156 37.839844 10.152344 38.933594 C 9.265625 38.589844 8.566406 37.792969 8.09375 37.003906 C 7.355469 35.765625 6.964844 34.253906 6.910156 32.824219 C 6.78125 29.394531 8.441406 26.589844 11.628906 25.332031 C 12.191406 25.5 12.785156 25.628906 13.347656 25.738281 C 14.859375 26.027344 16.4375 26.167969 17.976562 26.078125 C 22.425781 25.820312 25.753906 23.65625 27.019531 19.273438 Z M 27.019531 19.273438 " fill-opacity="1" fill-rule="nonzero"/><g clip-path="url(#961728477b)"><path fill="#fddf7d" d="M 44.808594 95.753906 C 44.808594 95.753906 44.925781 95.757812 45.113281 95.746094 C 45.300781 95.757812 45.417969 95.753906 45.417969 95.753906 L 45.417969 95.71875 C 45.910156 95.65625 46.40625 95.648438 47.179688 95.007812 C 47.957031 94.367188 51.28125 93.144531 50.941406 91.382812 C 50.601562 89.621094 49.652344 90.886719 50.433594 89.632812 C 51.214844 88.378906 52.296875 87.699219 50.703125 85.867188 C 49.113281 84.039062 50.636719 83.464844 50.839844 83.023438 C 51.042969 82.582031 51.992188 81.835938 49.382812 79.632812 C 48.078125 78.535156 42.148438 78.535156 40.84375 79.632812 C 38.234375 81.835938 39.183594 82.582031 39.386719 83.023438 C 39.589844 83.464844 41.113281 84.039062 39.523438 85.867188 C 37.929688 87.699219 39.011719 88.378906 39.792969 89.632812 C 40.570312 90.886719 39.621094 89.621094 39.285156 91.382812 C 38.945312 93.144531 42.269531 94.367188 43.046875 95.007812 C 43.820312 95.648438 44.316406 95.65625 44.808594 95.71875 Z M 44.808594 95.753906 " fill-opacity="1" fill-rule="nonzero"/></g><path fill="#fddf7d" d="M 42.5 26.066406 C 42.3125 25.417969 41.953125 24.414062 41.527344 24.304688 C 41.222656 24.226562 40.832031 24.167969 40.523438 24.25 C 40.449219 24.269531 40.308594 24.324219 40.273438 24.402344 C 40.171875 24.628906 40.636719 25.082031 40.773438 25.195312 C 41.238281 25.578125 41.859375 25.859375 42.5 26.066406 M 46.792969 27.621094 C 46.632812 28.855469 46.585938 30.023438 46.566406 30.722656 C 46.515625 32.714844 46.601562 74.582031 46.765625 76.566406 C 46.839844 77.480469 46.925781 78.414062 47.046875 79.324219 C 47.097656 79.703125 46.828125 80.054688 46.449219 80.105469 C 46.066406 80.15625 45.71875 79.886719 45.667969 79.507812 C 45.542969 78.574219 45.453125 77.621094 45.375 76.679688 C 45.210938 74.644531 45.125 32.730469 45.175781 30.6875 C 45.195312 29.933594 45.234375 28.941406 45.351562 27.890625 C 45.003906 27.914062 44.652344 27.90625 44.300781 27.871094 C 44.488281 29.109375 44.585938 30.382812 44.65625 31.589844 C 44.761719 33.464844 44.789062 75.207031 44.769531 77.085938 C 44.757812 77.953125 44.742188 78.820312 44.703125 79.6875 C 44.6875 80.070312 44.359375 80.367188 43.976562 80.347656 C 43.59375 80.332031 43.296875 80.003906 43.3125 79.625 C 43.351562 78.773438 43.367188 77.917969 43.375 77.070312 C 43.394531 75.222656 43.371094 33.515625 43.265625 31.667969 C 43.191406 30.351562 43.082031 28.945312 42.847656 27.605469 C 41.785156 27.347656 40.691406 26.929688 39.886719 26.265625 C 39.195312 25.691406 38.59375 24.746094 39.003906 23.832031 C 39.492188 22.738281 40.882812 22.699219 41.878906 22.957031 C 43.160156 23.292969 43.699219 25.050781 43.972656 26.179688 C 43.992188 26.261719 44.011719 26.347656 44.03125 26.429688 C 44.0625 26.4375 44.089844 26.441406 44.117188 26.445312 C 44.605469 26.527344 45.085938 26.53125 45.554688 26.46875 C 45.9375 24.332031 46.71875 22.242188 48.332031 21.519531 C 49.125 21.167969 50.261719 20.871094 50.933594 21.625 C 51.4375 22.195312 51.347656 23.023438 51.113281 23.6875 C 50.835938 24.460938 50.316406 25.199219 49.746094 25.789062 C 48.914062 26.648438 47.898438 27.28125 46.792969 27.621094 Z M 49.894531 22.558594 C 49.695312 22.472656 49.0625 22.71875 48.898438 22.792969 C 47.964844 23.210938 47.40625 24.535156 47.070312 26.027344 C 47.652344 25.753906 48.1875 25.375 48.660156 24.90625 C 49.101562 24.472656 49.519531 23.917969 49.753906 23.339844 C 49.8125 23.199219 49.96875 22.71875 49.894531 22.558594 Z M 49.894531 22.558594 " fill-opacity="1" fill-rule="nonzero"/><g fill="#ffffff" fill-opacity="1"><g transform="translate(96.157482, 82.32716)"><g><path d="M 21.910156 -18.363281 C 21.726562 -18.582031 21.597656 -18.769531 21.523438 -18.917969 C 21.449219 -19.0625 21.488281 -19.269531 21.632812 -19.527344 C 22.375 -20.785156 23.011719 -22.152344 23.546875 -23.632812 C 24.085938 -25.109375 24.351562 -26.628906 24.351562 -28.179688 C 24.351562 -30.25 24.019531 -32 23.355469 -33.421875 C 22.6875 -34.847656 21.78125 -36.011719 20.636719 -36.917969 C 19.488281 -37.824219 18.167969 -38.480469 16.667969 -38.886719 C 15.171875 -39.292969 13.609375 -39.535156 11.980469 -39.609375 C 10.355469 -39.683594 8.710938 -39.609375 7.046875 -39.386719 C 5.382812 -39.164062 3.808594 -38.851562 2.328125 -38.441406 L 2.273438 -38.386719 C 2.386719 -31.953125 2.386719 -25.582031 2.273438 -19.277344 C 2.164062 -12.972656 2.21875 -6.621094 2.441406 -0.222656 C 2.625 -0.148438 2.820312 -0.109375 3.023438 -0.109375 C 3.226562 -0.109375 3.4375 -0.109375 3.660156 -0.109375 C 4.992188 -0.0742188 6.425781 0 7.960938 0.109375 C 9.496094 0.222656 11.03125 0.269531 12.566406 0.25 C 14.097656 0.230469 15.589844 0.121094 17.03125 -0.0820312 C 18.472656 -0.285156 19.785156 -0.683594 20.96875 -1.277344 C 22.152344 -1.867188 23.160156 -2.707031 23.992188 -3.800781 C 24.824219 -4.890625 25.386719 -6.304688 25.683594 -8.042969 C 25.90625 -9.226562 25.941406 -10.300781 25.796875 -11.261719 C 25.648438 -12.222656 25.378906 -13.101562 24.992188 -13.894531 C 24.601562 -14.691406 24.140625 -15.449219 23.605469 -16.171875 C 23.066406 -16.890625 22.503906 -17.621094 21.910156 -18.363281 Z M 16.699219 -9.152344 C 16.328125 -8.710938 15.894531 -8.386719 15.394531 -8.183594 C 14.894531 -7.980469 14.359375 -7.847656 13.785156 -7.792969 C 13.210938 -7.738281 12.636719 -7.71875 12.066406 -7.738281 C 11.492188 -7.757812 10.945312 -7.765625 10.429688 -7.765625 L 10.316406 -7.820312 C 10.023438 -8.265625 9.820312 -8.820312 9.707031 -9.484375 C 9.597656 -10.152344 9.550781 -10.84375 9.570312 -11.566406 C 9.585938 -12.289062 9.652344 -13 9.761719 -13.703125 C 9.875 -14.40625 10.003906 -15.035156 10.152344 -15.589844 C 10.855469 -15.515625 11.574219 -15.46875 12.316406 -15.449219 C 13.054688 -15.429688 13.777344 -15.328125 14.480469 -15.144531 C 14.960938 -15.035156 15.421875 -14.800781 15.867188 -14.449219 C 16.308594 -14.097656 16.640625 -13.703125 16.863281 -13.257812 C 17.121094 -12.628906 17.261719 -11.925781 17.28125 -11.148438 C 17.296875 -10.375 17.105469 -9.707031 16.699219 -9.152344 Z M 16.640625 -24.964844 C 16.347656 -24.410156 15.949219 -23.992188 15.449219 -23.714844 C 14.949219 -23.4375 14.40625 -23.261719 13.8125 -23.1875 C 13.222656 -23.113281 12.609375 -23.09375 11.980469 -23.132812 C 11.355469 -23.167969 10.761719 -23.226562 10.207031 -23.296875 C 9.875 -24.59375 9.773438 -25.851562 9.902344 -27.070312 C 10.03125 -28.292969 10.058594 -29.328125 9.984375 -30.175781 C 10.539062 -30.472656 11.234375 -30.613281 12.066406 -30.59375 C 12.898438 -30.574219 13.683594 -30.492188 14.421875 -30.34375 C 15.015625 -30.195312 15.542969 -29.964844 16.003906 -29.652344 C 16.464844 -29.335938 16.84375 -28.882812 17.140625 -28.292969 C 17.4375 -27.699219 17.492188 -27.109375 17.308594 -26.515625 C 17.121094 -25.925781 16.902344 -25.40625 16.640625 -24.964844 Z M 16.640625 -24.964844 "/></g></g></g><g fill="#ffffff" fill-opacity="1"><g transform="translate(122.616793, 82.32716)"><g><path d="M 28.625 -0.167969 C 28.070312 -1.683594 27.386719 -3.152344 26.570312 -4.578125 C 25.757812 -6 24.90625 -7.394531 24.019531 -8.765625 C 23.132812 -10.132812 22.226562 -11.492188 21.300781 -12.84375 C 20.378906 -14.191406 19.527344 -15.550781 18.75 -16.917969 L 18.75 -16.976562 L 19.027344 -16.976562 C 20.800781 -17.085938 22.273438 -17.585938 23.4375 -18.472656 C 24.601562 -19.359375 25.535156 -20.46875 26.238281 -21.800781 C 27.386719 -23.722656 27.929688 -25.710938 27.875 -27.765625 C 27.820312 -29.816406 27.3125 -31.695312 26.351562 -33.394531 C 25.386719 -35.097656 24.039062 -36.519531 22.300781 -37.667969 C 20.5625 -38.8125 18.601562 -39.441406 16.421875 -39.550781 C 13.71875 -39.847656 11.132812 -39.867188 8.652344 -39.609375 C 6.175781 -39.347656 3.902344 -39.070312 1.832031 -38.777344 C 1.90625 -38.296875 1.96875 -37.378906 2.023438 -36.03125 C 2.082031 -34.679688 2.125 -33.054688 2.164062 -31.148438 C 2.199219 -29.242188 2.246094 -27.152344 2.300781 -24.878906 C 2.359375 -22.605469 2.394531 -20.3125 2.414062 -18 C 2.429688 -15.691406 2.441406 -13.453125 2.441406 -11.289062 C 2.441406 -9.125 2.441406 -7.210938 2.441406 -5.546875 C 2.441406 -3.882812 2.421875 -2.542969 2.386719 -1.527344 C 2.347656 -0.507812 2.292969 0 2.21875 0 C 2.402344 -0.0351562 2.894531 -0.0351562 3.6875 0 C 4.484375 0.0351562 5.382812 0.046875 6.378906 0.0273438 C 7.378906 0.0078125 8.386719 -0.0351562 9.402344 -0.109375 C 10.417969 -0.183594 11.242188 -0.351562 11.871094 -0.609375 C 11.835938 -1.3125 11.777344 -2.257812 11.703125 -3.4375 C 11.632812 -4.621094 11.566406 -5.871094 11.511719 -7.183594 C 11.457031 -8.496094 11.425781 -9.773438 11.425781 -11.011719 C 11.425781 -12.25 11.484375 -13.296875 11.59375 -14.144531 L 11.703125 -13.980469 C 12.480469 -13.019531 13.257812 -11.910156 14.035156 -10.652344 C 14.8125 -9.394531 15.53125 -8.117188 16.199219 -6.824219 C 16.863281 -5.527344 17.472656 -4.289062 18.027344 -3.105469 C 18.582031 -1.921875 19.046875 -0.90625 19.414062 -0.0546875 L 19.472656 -0.0546875 C 21.136719 0.0546875 22.761719 0.0664062 24.351562 -0.0273438 C 25.941406 -0.121094 27.386719 -0.167969 28.679688 -0.167969 Z M 9.929688 -31.007812 C 11.222656 -31.527344 12.5 -31.8125 13.757812 -31.871094 C 15.015625 -31.925781 16.050781 -31.582031 16.863281 -30.84375 C 17.382812 -30.4375 17.75 -29.890625 17.972656 -29.207031 C 18.195312 -28.523438 18.269531 -27.839844 18.195312 -27.152344 C 18.121094 -26.46875 17.890625 -25.839844 17.5 -25.269531 C 17.113281 -24.695312 16.566406 -24.335938 15.867188 -24.1875 C 14.976562 -24.039062 14.035156 -23.984375 13.035156 -24.019531 C 12.039062 -24.058594 11.113281 -24.113281 10.261719 -24.1875 L 10.207031 -24.1875 C 10.132812 -24.59375 10.085938 -25.09375 10.070312 -25.683594 C 10.050781 -26.277344 10.039062 -26.886719 10.039062 -27.515625 C 10.039062 -28.144531 10.03125 -28.761719 10.011719 -29.375 C 9.996094 -29.984375 9.964844 -30.527344 9.929688 -31.007812 Z M 9.929688 -31.007812 "/></g></g></g><g fill="#ffffff" fill-opacity="1"><g transform="translate(151.350386, 82.32716)"><g><path d="M 10.984375 -38.996094 C 9.320312 -38.960938 8.054688 -38.96875 7.183594 -39.027344 C 6.316406 -39.082031 5.546875 -39.128906 4.882812 -39.164062 C 4.621094 -39.164062 4.226562 -39.191406 3.6875 -39.246094 C 3.152344 -39.304688 2.792969 -39.3125 2.605469 -39.273438 L 2.605469 -39.164062 C 2.273438 -36.058594 2.117188 -32.886719 2.136719 -29.652344 C 2.152344 -26.414062 2.210938 -23.140625 2.300781 -19.832031 C 2.394531 -16.523438 2.460938 -13.183594 2.496094 -9.820312 C 2.535156 -6.453125 2.421875 -3.105469 2.164062 0.222656 C 2.535156 0.109375 3.21875 0.0820312 4.214844 0.140625 C 5.214844 0.195312 6.257812 0.242188 7.351562 0.277344 C 8.441406 0.3125 9.457031 0.304688 10.402344 0.25 C 11.34375 0.195312 11.964844 0.0195312 12.257812 -0.277344 C 12.074219 -3.421875 11.964844 -6.601562 11.925781 -9.820312 C 11.890625 -13.035156 11.898438 -16.261719 11.953125 -19.5 C 12.011719 -22.734375 12.082031 -25.960938 12.175781 -29.179688 C 12.269531 -32.394531 12.316406 -35.59375 12.316406 -38.777344 L 12.316406 -38.996094 Z M 10.984375 -38.996094 "/></g></g></g><g fill="#ffffff" fill-opacity="1"><g transform="translate(165.77266, 82.32716)"><g><path d="M 13.480469 -19.304688 C 13.40625 -19.269531 13.367188 -19.25 13.367188 -19.25 C 13.332031 -19.25 13.3125 -19.230469 13.3125 -19.195312 L 13.3125 -19.136719 C 13.386719 -18.472656 13.425781 -17.917969 13.425781 -17.472656 C 13.425781 -17.03125 13.414062 -16.597656 13.398438 -16.171875 C 13.378906 -15.746094 13.378906 -15.3125 13.398438 -14.867188 C 13.414062 -14.421875 13.460938 -13.90625 13.535156 -13.3125 C 13.71875 -13.238281 13.988281 -13.195312 14.339844 -13.175781 C 14.691406 -13.15625 15.078125 -13.15625 15.503906 -13.175781 C 15.929688 -13.195312 16.335938 -13.210938 16.726562 -13.230469 C 17.113281 -13.25 17.417969 -13.238281 17.640625 -13.203125 C 17.75 -13.164062 17.816406 -13 17.835938 -12.703125 C 17.851562 -12.40625 17.851562 -12.074219 17.835938 -11.703125 C 17.816406 -11.335938 17.777344 -10.972656 17.722656 -10.625 C 17.667969 -10.273438 17.621094 -10.023438 17.585938 -9.875 C 17.4375 -9.355469 17.214844 -8.941406 16.917969 -8.625 C 16.625 -8.3125 16.273438 -8.0625 15.867188 -7.878906 C 15.347656 -7.691406 14.785156 -7.542969 14.171875 -7.433594 C 13.5625 -7.324219 12.980469 -7.304688 12.425781 -7.378906 C 11.910156 -7.488281 11.484375 -7.65625 11.148438 -7.878906 C 10.449219 -8.433594 9.984375 -9.191406 9.761719 -10.152344 C 9.542969 -11.113281 9.394531 -12 9.320312 -12.8125 C 9.207031 -14.183594 9.132812 -15.625 9.097656 -17.140625 C 9.0625 -18.65625 9.078125 -20.128906 9.152344 -21.550781 C 9.226562 -22.976562 9.347656 -24.316406 9.515625 -25.574219 C 9.679688 -26.832031 9.894531 -27.902344 10.152344 -28.789062 C 10.226562 -29.085938 10.328125 -29.390625 10.457031 -29.707031 C 10.585938 -30.019531 10.6875 -30.214844 10.761719 -30.289062 C 11.207031 -30.730469 11.722656 -30.953125 12.316406 -30.953125 C 12.90625 -30.953125 13.515625 -30.9375 14.144531 -30.898438 C 14.699219 -30.898438 15.179688 -30.722656 15.589844 -30.371094 C 15.996094 -30.019531 16.355469 -29.613281 16.667969 -29.152344 C 16.984375 -28.6875 17.242188 -28.191406 17.445312 -27.652344 C 17.648438 -27.117188 17.808594 -26.664062 17.917969 -26.292969 C 18.472656 -26.21875 18.953125 -26.164062 19.359375 -26.128906 C 19.765625 -26.089844 20.164062 -26.074219 20.554688 -26.074219 C 20.941406 -26.074219 21.328125 -26.082031 21.71875 -26.101562 C 22.105469 -26.117188 22.578125 -26.128906 23.132812 -26.128906 C 23.722656 -26.164062 24.148438 -26.183594 24.410156 -26.183594 C 24.667969 -26.183594 24.832031 -26.238281 24.90625 -26.351562 L 24.964844 -26.683594 C 25.222656 -28.9375 25.019531 -30.890625 24.351562 -32.535156 C 23.6875 -34.179688 22.6875 -35.503906 21.355469 -36.5 C 20.027344 -37.5 18.4375 -38.195312 16.585938 -38.582031 C 14.738281 -38.96875 12.796875 -39.035156 10.761719 -38.777344 C 9.761719 -38.628906 8.800781 -38.40625 7.878906 -38.109375 C 6.953125 -37.8125 6.121094 -37.351562 5.382812 -36.722656 C 4.308594 -35.984375 3.542969 -35.039062 3.078125 -33.894531 C 2.617188 -32.746094 2.292969 -31.5625 2.109375 -30.34375 C 1.921875 -29.160156 1.792969 -27.949219 1.71875 -26.710938 C 1.644531 -25.472656 1.589844 -24.261719 1.554688 -23.078125 C 1.515625 -21.707031 1.507812 -20.496094 1.527344 -19.445312 C 1.542969 -18.390625 1.582031 -17.390625 1.636719 -16.449219 C 1.691406 -15.503906 1.757812 -14.550781 1.832031 -13.589844 C 1.90625 -12.628906 1.996094 -11.558594 2.109375 -10.375 C 2.183594 -9.632812 2.285156 -8.902344 2.414062 -8.183594 C 2.542969 -7.460938 2.664062 -6.898438 2.773438 -6.492188 C 3.21875 -4.898438 3.828125 -3.570312 4.605469 -2.496094 C 5.382812 -1.421875 6.507812 -0.574219 7.988281 0.0546875 C 8.875 0.425781 9.808594 0.664062 10.789062 0.777344 C 11.769531 0.886719 12.777344 0.898438 13.8125 0.804688 C 14.847656 0.710938 15.867188 0.5625 16.863281 0.359375 C 17.863281 0.15625 18.824219 -0.0742188 19.75 -0.332031 C 21.152344 -0.851562 22.335938 -1.609375 23.296875 -2.605469 C 24.261719 -3.605469 24.832031 -5.046875 25.019531 -6.933594 C 25.386719 -8.929688 25.535156 -11.03125 25.460938 -13.230469 C 25.386719 -15.429688 25.242188 -17.511719 25.019531 -19.472656 L 24.964844 -19.527344 L 24.851562 -19.527344 C 24.480469 -19.527344 23.769531 -19.574219 22.714844 -19.664062 C 21.664062 -19.757812 20.523438 -19.824219 19.304688 -19.859375 C 18.085938 -19.894531 16.929688 -19.886719 15.835938 -19.832031 C 14.746094 -19.777344 13.960938 -19.601562 13.480469 -19.304688 Z M 13.480469 -19.304688 "/></g></g></g><g fill="#ffffff" fill-opacity="1"><g transform="translate(192.453859, 82.32716)"><g><path d="M 24.519531 -39.164062 C 23.964844 -39.199219 23.34375 -39.230469 22.660156 -39.246094 C 21.976562 -39.265625 21.285156 -39.246094 20.582031 -39.191406 C 19.878906 -39.136719 19.203125 -39.054688 18.554688 -38.941406 C 17.910156 -38.832031 17.363281 -38.703125 16.917969 -38.554688 C 17.03125 -35.890625 17.078125 -33.449219 17.058594 -31.230469 C 17.039062 -29.011719 16.917969 -26.628906 16.699219 -24.074219 L 16.640625 -24.074219 C 15.71875 -24 14.71875 -23.917969 13.644531 -23.824219 C 12.574219 -23.734375 11.574219 -23.796875 10.652344 -24.019531 L 10.59375 -24.019531 C 10.152344 -26.386719 9.929688 -28.773438 9.929688 -31.175781 C 9.929688 -33.578125 9.761719 -36.058594 9.429688 -38.609375 C 8.914062 -38.757812 8.359375 -38.832031 7.765625 -38.832031 C 7.175781 -38.832031 6.574219 -38.8125 5.964844 -38.777344 C 5.351562 -38.738281 4.742188 -38.703125 4.132812 -38.664062 C 3.523438 -38.628906 2.941406 -38.664062 2.386719 -38.777344 L 2.21875 -38.777344 L 2.21875 -38.71875 C 2.183594 -36.835938 2.152344 -34.71875 2.136719 -32.367188 C 2.117188 -30.019531 2.125 -27.578125 2.164062 -25.046875 C 2.199219 -22.511719 2.246094 -19.988281 2.300781 -17.472656 C 2.359375 -14.960938 2.421875 -12.582031 2.496094 -10.347656 C 2.570312 -8.109375 2.652344 -6.09375 2.746094 -4.300781 C 2.839844 -2.503906 2.921875 -1.089844 2.996094 -0.0546875 C 3.328125 -0.242188 3.820312 -0.3125 4.464844 -0.277344 C 5.113281 -0.242188 5.804688 -0.183594 6.546875 -0.109375 C 7.285156 -0.0351562 8.023438 0 8.765625 0 C 9.503906 0 10.097656 -0.128906 10.539062 -0.386719 C 10.726562 -1.570312 10.828125 -2.765625 10.84375 -3.964844 C 10.863281 -5.167969 10.855469 -6.398438 10.816406 -7.65625 C 10.78125 -8.914062 10.753906 -10.171875 10.734375 -11.425781 C 10.714844 -12.683594 10.761719 -13.960938 10.871094 -15.253906 C 11.945312 -15.515625 13.019531 -15.644531 14.089844 -15.644531 C 15.164062 -15.644531 16.234375 -15.550781 17.308594 -15.367188 L 17.363281 -15.3125 C 17.511719 -14.128906 17.605469 -12.886719 17.640625 -11.59375 C 17.675781 -10.300781 17.707031 -9.003906 17.722656 -7.710938 C 17.742188 -6.417969 17.777344 -5.113281 17.835938 -3.800781 C 17.890625 -2.488281 18.011719 -1.21875 18.195312 0 L 18.25 0 C 18.695312 -0.0351562 19.238281 -0.0546875 19.886719 -0.0546875 C 20.535156 -0.0546875 21.199219 -0.0546875 21.882812 -0.0546875 C 22.570312 -0.0546875 23.269531 -0.0742188 23.992188 -0.109375 C 24.714844 -0.148438 25.386719 -0.222656 26.015625 -0.332031 Z M 24.519531 -39.164062 "/></g></g></g><g fill="#ffffff" fill-opacity="1"><g transform="translate(220.133522, 82.32716)"><g><path d="M 23.964844 -38.554688 C 20.15625 -38.960938 16.246094 -39.15625 12.230469 -39.136719 C 8.21875 -39.117188 4.328125 -39.089844 0.554688 -39.054688 C 0.554688 -39.015625 0.5625 -38.996094 0.582031 -38.996094 C 0.601562 -38.996094 0.609375 -38.980469 0.609375 -38.941406 C 0.535156 -38.054688 0.5 -37.128906 0.5 -36.167969 C 0.5 -35.207031 0.507812 -34.308594 0.527344 -33.476562 C 0.546875 -32.644531 0.582031 -31.933594 0.636719 -31.34375 C 0.695312 -30.75 0.757812 -30.382812 0.832031 -30.234375 C 1.054688 -30.160156 1.441406 -30.121094 1.996094 -30.121094 C 2.550781 -30.121094 3.160156 -30.113281 3.828125 -30.09375 C 4.492188 -30.074219 5.160156 -30.039062 5.824219 -29.984375 C 6.492188 -29.929688 7.046875 -29.789062 7.488281 -29.566406 L 7.542969 -29.511719 C 7.765625 -24.335938 7.90625 -19.914062 7.960938 -16.253906 C 8.015625 -12.59375 8.035156 -9.585938 8.015625 -7.238281 C 7.996094 -4.890625 7.96875 -3.125 7.933594 -1.941406 C 7.894531 -0.757812 7.894531 -0.09375 7.933594 0.0546875 C 8.597656 -0.0546875 9.320312 -0.109375 10.097656 -0.109375 C 10.871094 -0.109375 11.660156 -0.109375 12.453125 -0.109375 C 13.25 -0.109375 14.042969 -0.121094 14.839844 -0.140625 C 15.632812 -0.15625 16.363281 -0.222656 17.03125 -0.332031 L 17.03125 -0.445312 C 16.957031 -4.476562 16.902344 -7.980469 16.863281 -10.957031 C 16.828125 -13.933594 16.789062 -16.484375 16.753906 -18.609375 C 16.714844 -20.738281 16.6875 -22.476562 16.667969 -23.824219 C 16.652344 -25.175781 16.640625 -26.265625 16.640625 -27.097656 C 16.640625 -27.929688 16.652344 -28.542969 16.667969 -28.929688 C 16.6875 -29.316406 16.714844 -29.605469 16.753906 -29.789062 C 16.753906 -29.824219 16.761719 -29.855469 16.78125 -29.871094 C 16.800781 -29.890625 16.808594 -29.917969 16.808594 -29.957031 L 16.976562 -29.957031 C 18.714844 -30.03125 20.101562 -30.085938 21.136719 -30.121094 C 22.171875 -30.160156 23.039062 -30.105469 23.742188 -29.957031 C 23.925781 -31.285156 24.027344 -32.746094 24.046875 -34.339844 C 24.066406 -35.929688 24.039062 -37.332031 23.964844 -38.554688 Z M 23.964844 -38.554688 "/></g></g></g><g fill="#ffffff" fill-opacity="1"><g transform="translate(244.706848, 82.32716)"><g><path d="M 25.460938 -17.640625 C 25.648438 -21.191406 25.664062 -24.695312 25.519531 -28.152344 C 25.371094 -31.609375 25.371094 -35.113281 25.519531 -38.664062 C 24.925781 -38.664062 24.214844 -38.65625 23.382812 -38.636719 C 22.550781 -38.617188 21.734375 -38.589844 20.941406 -38.554688 C 20.144531 -38.515625 19.40625 -38.480469 18.722656 -38.441406 C 18.039062 -38.40625 17.566406 -38.40625 17.308594 -38.441406 C 16.976562 -38 16.632812 -37.296875 16.28125 -36.335938 C 15.929688 -35.375 15.617188 -34.402344 15.339844 -33.421875 C 15.0625 -32.441406 14.800781 -31.582031 14.5625 -30.84375 C 14.320312 -30.105469 14.144531 -29.753906 14.035156 -29.789062 C 13.921875 -29.789062 13.8125 -29.84375 13.703125 -29.957031 C 13.40625 -30.398438 13.121094 -31.007812 12.84375 -31.785156 C 12.566406 -32.5625 12.277344 -33.375 11.980469 -34.226562 C 11.6875 -35.078125 11.371094 -35.882812 11.039062 -36.640625 C 10.707031 -37.398438 10.375 -37.960938 10.039062 -38.332031 L 9.984375 -38.332031 C 9.355469 -38.296875 8.710938 -38.285156 8.042969 -38.304688 C 7.378906 -38.324219 6.710938 -38.339844 6.046875 -38.359375 C 5.382812 -38.378906 4.734375 -38.367188 4.105469 -38.332031 C 3.476562 -38.296875 2.921875 -38.203125 2.441406 -38.054688 C 2.402344 -33.023438 2.375 -28.625 2.359375 -24.851562 C 2.339844 -21.078125 2.320312 -17.824219 2.300781 -15.089844 C 2.285156 -12.351562 2.273438 -10.058594 2.273438 -8.210938 C 2.273438 -6.359375 2.285156 -4.871094 2.300781 -3.746094 C 2.320312 -2.617188 2.347656 -1.773438 2.386719 -1.21875 C 2.421875 -0.664062 2.460938 -0.3125 2.496094 -0.167969 C 2.535156 -0.0546875 2.589844 0 2.664062 0 C 3.847656 0 5.140625 0.0195312 6.546875 0.0546875 C 7.953125 0.09375 9.246094 0.0195312 10.429688 -0.167969 C 10.207031 -3.605469 10.050781 -7.101562 9.957031 -10.652344 C 9.863281 -14.199219 9.964844 -17.714844 10.261719 -21.191406 C 10.261719 -21.191406 10.328125 -21.007812 10.457031 -20.636719 C 10.585938 -20.265625 10.742188 -19.804688 10.929688 -19.25 C 11.113281 -18.695312 11.335938 -18.085938 11.59375 -17.417969 C 11.851562 -16.753906 12.101562 -16.125 12.34375 -15.53125 C 12.582031 -14.941406 12.824219 -14.449219 13.0625 -14.0625 C 13.304688 -13.675781 13.515625 -13.480469 13.703125 -13.480469 C 13.851562 -13.480469 14.070312 -13.832031 14.367188 -14.535156 C 14.664062 -15.238281 14.976562 -16.050781 15.3125 -16.976562 C 15.644531 -17.898438 15.976562 -18.796875 16.308594 -19.664062 C 16.640625 -20.535156 16.9375 -21.171875 17.195312 -21.578125 C 17.382812 -20.027344 17.519531 -18.324219 17.613281 -16.476562 C 17.707031 -14.625 17.761719 -12.742188 17.777344 -10.816406 C 17.796875 -8.894531 17.816406 -7.007812 17.835938 -5.160156 C 17.851562 -3.308594 17.898438 -1.589844 17.972656 0 C 18.417969 0 18.945312 -0.0078125 19.554688 -0.0273438 C 20.164062 -0.046875 20.800781 -0.0546875 21.46875 -0.0546875 C 22.132812 -0.0546875 22.800781 -0.0546875 23.464844 -0.0546875 C 24.132812 -0.0546875 24.742188 -0.0195312 25.296875 0.0546875 Z M 25.460938 -17.640625 "/></g></g></g><g fill="#ffffff" fill-opacity="1"><g transform="translate(272.497454, 82.32716)"><g><path d="M 10.984375 -38.996094 C 9.320312 -38.960938 8.054688 -38.96875 7.183594 -39.027344 C 6.316406 -39.082031 5.546875 -39.128906 4.882812 -39.164062 C 4.621094 -39.164062 4.226562 -39.191406 3.6875 -39.246094 C 3.152344 -39.304688 2.792969 -39.3125 2.605469 -39.273438 L 2.605469 -39.164062 C 2.273438 -36.058594 2.117188 -32.886719 2.136719 -29.652344 C 2.152344 -26.414062 2.210938 -23.140625 2.300781 -19.832031 C 2.394531 -16.523438 2.460938 -13.183594 2.496094 -9.820312 C 2.535156 -6.453125 2.421875 -3.105469 2.164062 0.222656 C 2.535156 0.109375 3.21875 0.0820312 4.214844 0.140625 C 5.214844 0.195312 6.257812 0.242188 7.351562 0.277344 C 8.441406 0.3125 9.457031 0.304688 10.402344 0.25 C 11.34375 0.195312 11.964844 0.0195312 12.257812 -0.277344 C 12.074219 -3.421875 11.964844 -6.601562 11.925781 -9.820312 C 11.890625 -13.035156 11.898438 -16.261719 11.953125 -19.5 C 12.011719 -22.734375 12.082031 -25.960938 12.175781 -29.179688 C 12.269531 -32.394531 12.316406 -35.59375 12.316406 -38.777344 L 12.316406 -38.996094 Z M 10.984375 -38.996094 "/></g></g></g><g fill="#ffffff" fill-opacity="1"><g transform="translate(286.919729, 82.32716)"><g><path d="M 23.519531 0.277344 C 24.148438 0.277344 24.59375 0.242188 24.851562 0.167969 C 25.109375 0.09375 25.277344 0.0351562 25.351562 0 L 25.351562 -1.109375 C 25.351562 -1.847656 25.34375 -2.589844 25.324219 -3.328125 C 25.304688 -4.066406 25.296875 -4.808594 25.296875 -5.546875 C 25.296875 -6.582031 25.304688 -7.601562 25.324219 -8.597656 C 25.34375 -9.597656 25.351562 -10.632812 25.351562 -11.703125 C 25.351562 -13.296875 25.351562 -14.886719 25.351562 -16.476562 C 25.351562 -18.066406 25.332031 -19.636719 25.296875 -21.191406 L 25.296875 -39.054688 C 24.222656 -39.273438 23.003906 -39.386719 21.632812 -39.386719 C 20.230469 -39.386719 18.898438 -39.273438 17.640625 -39.054688 C 17.605469 -38.128906 17.574219 -37.269531 17.558594 -36.472656 C 17.539062 -35.679688 17.53125 -34.894531 17.53125 -34.117188 C 17.53125 -32.785156 17.558594 -31.480469 17.613281 -30.207031 C 17.667969 -28.929688 17.695312 -27.550781 17.695312 -26.074219 C 17.695312 -25.445312 17.660156 -24.796875 17.585938 -24.132812 C 17.511719 -23.464844 17.417969 -23.09375 17.308594 -23.019531 C 17.269531 -23.019531 17.140625 -23.234375 16.917969 -23.660156 C 16.699219 -24.085938 16.429688 -24.601562 16.113281 -25.210938 C 15.800781 -25.824219 15.457031 -26.507812 15.089844 -27.265625 C 14.71875 -28.023438 14.367188 -28.746094 14.035156 -29.429688 C 13.703125 -30.113281 13.40625 -30.714844 13.148438 -31.230469 C 12.886719 -31.75 12.722656 -32.101562 12.648438 -32.285156 C 12.316406 -33.0625 12.027344 -33.699219 11.789062 -34.199219 C 11.546875 -34.699219 11.324219 -35.152344 11.121094 -35.558594 C 10.917969 -35.964844 10.707031 -36.390625 10.484375 -36.835938 C 10.261719 -37.277344 10.023438 -37.832031 9.761719 -38.5 C 9.761719 -38.574219 9.570312 -38.644531 9.179688 -38.71875 C 8.792969 -38.792969 8.339844 -38.859375 7.820312 -38.914062 C 7.304688 -38.96875 6.785156 -39.007812 6.269531 -39.027344 C 5.75 -39.042969 5.382812 -39.054688 5.160156 -39.054688 C 4.714844 -39.054688 4.28125 -39.035156 3.855469 -38.996094 C 3.429688 -38.960938 3.03125 -38.90625 2.664062 -38.832031 C 2.476562 -36.464844 2.347656 -34.03125 2.273438 -31.535156 C 2.199219 -29.039062 2.164062 -26.515625 2.164062 -23.964844 C 2.164062 -20.488281 2.191406 -17.160156 2.246094 -13.980469 C 2.300781 -10.796875 2.328125 -7.453125 2.328125 -3.9375 L 2.328125 -0.0546875 C 3.179688 -0.0546875 4.058594 0 4.964844 0.109375 C 5.871094 0.222656 6.769531 0.277344 7.65625 0.277344 C 8.0625 0.277344 8.46875 0.257812 8.875 0.222656 C 9.28125 0.183594 9.6875 0.109375 10.097656 0 C 10.058594 -0.628906 10.039062 -1.339844 10.039062 -2.136719 C 10.039062 -2.929688 10.039062 -3.753906 10.039062 -4.605469 C 10.039062 -6.15625 10.050781 -7.765625 10.070312 -9.429688 C 10.085938 -11.09375 10.113281 -12.609375 10.152344 -13.980469 C 10.1875 -15.347656 10.234375 -16.476562 10.289062 -17.363281 C 10.347656 -18.25 10.390625 -18.695312 10.429688 -18.695312 C 10.503906 -18.695312 10.605469 -18.519531 10.734375 -18.167969 C 10.863281 -17.816406 11.003906 -17.4375 11.148438 -17.03125 L 11.703125 -15.367188 C 12.554688 -13 13.582031 -10.53125 14.785156 -7.960938 C 15.984375 -5.390625 17.195312 -2.738281 18.417969 0 C 19.15625 0 20.007812 0.046875 20.96875 0.140625 C 21.929688 0.230469 22.78125 0.277344 23.519531 0.277344 Z M 23.519531 0.277344 "/></g></g></g><g fill="#ffffff" fill-opacity="1"><g transform="translate(314.543939, 82.32716)"><g><path d="M 21.800781 -34.226562 C 21.136719 -35.300781 20.257812 -36.269531 19.167969 -37.140625 C 18.074219 -38.007812 16.9375 -38.589844 15.753906 -38.886719 C 14.683594 -38.851562 13.582031 -38.851562 12.453125 -38.886719 C 11.324219 -38.921875 10.1875 -38.953125 9.042969 -38.96875 C 7.894531 -38.988281 6.757812 -38.953125 5.628906 -38.859375 C 4.503906 -38.765625 3.421875 -38.589844 2.386719 -38.332031 C 2.347656 -38.296875 2.320312 -38.257812 2.300781 -38.222656 C 2.285156 -38.183594 2.257812 -38.148438 2.21875 -38.109375 C 2.292969 -34.894531 2.300781 -31.648438 2.246094 -28.375 C 2.191406 -25.101562 2.164062 -21.855469 2.164062 -18.640625 C 2.164062 -15.421875 2.21875 -12.25 2.328125 -9.125 C 2.441406 -6 2.699219 -2.976562 3.105469 -0.0546875 C 3.144531 -0.09375 3.160156 -0.109375 3.160156 -0.109375 C 5.492188 -0.109375 7.894531 -0.121094 10.375 -0.140625 C 12.851562 -0.15625 15.3125 -0.203125 17.75 -0.277344 C 19.15625 -2.015625 20.496094 -3.863281 21.773438 -5.824219 C 23.050781 -7.785156 24.058594 -9.855469 24.796875 -12.039062 C 24.796875 -12.074219 24.804688 -12.09375 24.824219 -12.09375 C 24.84375 -12.09375 24.851562 -12.113281 24.851562 -12.148438 C 25.183594 -13.851562 25.378906 -15.578125 25.433594 -17.335938 C 25.488281 -19.09375 25.554688 -20.839844 25.628906 -22.578125 C 25.589844 -23.167969 25.546875 -23.75 25.488281 -24.324219 C 25.433594 -24.898438 25.3125 -25.480469 25.128906 -26.074219 C 24.796875 -27.550781 24.363281 -28.964844 23.824219 -30.316406 C 23.289062 -31.664062 22.613281 -32.96875 21.800781 -34.226562 Z M 16.699219 -14.089844 C 16.476562 -13.757812 16.226562 -13.433594 15.949219 -13.121094 C 15.671875 -12.804688 15.347656 -12.535156 14.976562 -12.316406 C 14.792969 -12.242188 14.625 -12.15625 14.480469 -12.066406 C 14.332031 -11.972656 14.164062 -11.945312 13.980469 -11.980469 C 13.3125 -11.910156 12.621094 -11.851562 11.898438 -11.816406 C 11.179688 -11.777344 10.613281 -11.945312 10.207031 -12.316406 C 10.132812 -13.574219 10.097656 -14.839844 10.097656 -16.113281 C 10.097656 -17.390625 10.113281 -18.648438 10.152344 -19.886719 C 10.1875 -21.125 10.207031 -22.320312 10.207031 -23.464844 C 10.207031 -24.613281 10.171875 -25.683594 10.097656 -26.683594 L 10.097656 -26.90625 L 10.261719 -26.90625 C 10.929688 -27.050781 11.632812 -27.117188 12.371094 -27.097656 C 13.109375 -27.082031 13.792969 -27.035156 14.421875 -26.960938 C 15.050781 -26.738281 15.570312 -26.414062 15.976562 -25.988281 C 16.382812 -25.5625 16.726562 -25.074219 17.003906 -24.519531 C 17.28125 -23.964844 17.492188 -23.382812 17.640625 -22.773438 C 17.789062 -22.160156 17.917969 -21.578125 18.027344 -21.023438 C 18.324219 -19.65625 18.332031 -18.398438 18.054688 -17.253906 C 17.777344 -16.105469 17.324219 -15.050781 16.699219 -14.089844 Z M 16.699219 -14.089844 "/></g></g></g><g fill="#ffffff" fill-opacity="1"><g transform="translate(341.280603, 82.32716)"><g><path d="M 25.683594 -26.292969 C 26.203125 -29.066406 25.980469 -31.359375 25.019531 -33.171875 C 24.058594 -34.984375 22.6875 -36.351562 20.914062 -37.277344 C 20.027344 -37.683594 19.054688 -38.019531 18 -38.277344 C 16.945312 -38.535156 15.875 -38.691406 14.785156 -38.75 C 13.691406 -38.804688 12.609375 -38.765625 11.539062 -38.636719 C 10.464844 -38.507812 9.484375 -38.257812 8.597656 -37.886719 C 6.824219 -37.148438 5.316406 -36.019531 4.078125 -34.503906 C 2.839844 -32.988281 1.996094 -31.304688 1.554688 -29.457031 C 1.109375 -27.605469 1.136719 -25.703125 1.636719 -23.742188 C 2.136719 -21.78125 3.234375 -19.988281 4.9375 -18.363281 C 5.453125 -17.917969 6.027344 -17.53125 6.65625 -17.195312 C 7.285156 -16.863281 7.96875 -16.625 8.710938 -16.476562 C 9.484375 -16.328125 10.316406 -16.171875 11.207031 -16.003906 C 12.09375 -15.835938 12.917969 -15.589844 13.675781 -15.253906 C 14.433594 -14.921875 15.089844 -14.488281 15.644531 -13.953125 C 16.199219 -13.414062 16.53125 -12.703125 16.640625 -11.816406 C 16.863281 -10.519531 16.613281 -9.558594 15.894531 -8.929688 C 15.171875 -8.300781 14.320312 -7.980469 13.339844 -7.960938 C 12.359375 -7.941406 11.4375 -8.230469 10.566406 -8.820312 C 9.699219 -9.410156 9.226562 -10.300781 9.152344 -11.484375 C 7.894531 -11.445312 6.492188 -11.472656 4.9375 -11.566406 C 3.382812 -11.660156 1.960938 -11.613281 0.664062 -11.425781 L 0.664062 -11.09375 C 0.554688 -9.320312 0.867188 -7.738281 1.609375 -6.351562 C 2.347656 -4.964844 3.347656 -3.789062 4.605469 -2.828125 C 5.863281 -1.867188 7.292969 -1.117188 8.902344 -0.582031 C 10.511719 -0.046875 12.128906 0.242188 13.757812 0.277344 C 14.902344 0.3125 16.023438 0.210938 17.113281 -0.0273438 C 18.203125 -0.269531 19.222656 -0.648438 20.164062 -1.164062 C 21.109375 -1.683594 21.949219 -2.347656 22.6875 -3.160156 C 23.429688 -3.976562 24.019531 -4.957031 24.464844 -6.101562 C 24.90625 -7.0625 25.230469 -8.070312 25.433594 -9.125 C 25.636719 -10.179688 25.710938 -11.222656 25.65625 -12.257812 C 25.601562 -13.296875 25.40625 -14.304688 25.074219 -15.28125 C 24.742188 -16.261719 24.242188 -17.179688 23.574219 -18.027344 C 22.503906 -19.617188 21.125 -20.933594 19.445312 -21.96875 C 17.761719 -23.003906 15.9375 -23.632812 13.980469 -23.855469 C 13.203125 -23.964844 12.480469 -24.167969 11.816406 -24.464844 C 11.148438 -24.757812 10.667969 -25.351562 10.375 -26.238281 C 10.335938 -26.496094 10.308594 -26.746094 10.289062 -26.988281 C 10.273438 -27.226562 10.300781 -27.476562 10.375 -27.738281 C 10.519531 -28.773438 11.011719 -29.476562 11.84375 -29.84375 C 12.675781 -30.214844 13.535156 -30.308594 14.421875 -30.121094 C 15.3125 -29.9375 16.070312 -29.511719 16.699219 -28.847656 C 17.324219 -28.179688 17.53125 -27.347656 17.308594 -26.351562 C 18.601562 -25.980469 19.988281 -25.824219 21.46875 -25.878906 C 22.949219 -25.933594 24.335938 -26.074219 25.628906 -26.292969 Z M 25.683594 -26.292969 "/></g></g></g></svg>