<svg xmlns="http://www.w3.org/2000/svg" xmlns:xlink="http://www.w3.org/1999/xlink" width="500" zoomAndPan="magnify" viewBox="0 0 375 374.999991" height="500" preserveAspectRatio="xMidYMid meet" version="1.0"><defs><clipPath id="20d5f5babc"><path d="M 162 308 L 213 308 L 213 374.855469 L 162 374.855469 Z M 162 308 " clip-rule="nonzero"/></clipPath></defs><path fill="#badefc" d="M 264.835938 69.648438 C 266.191406 69.449219 267.558594 69.125 268.710938 68.742188 C 272.519531 67.480469 275.609375 65.203125 277.148438 61.390625 C 279.355469 55.90625 280.007812 50.664062 282.164062 46.527344 C 276.464844 47.222656 270.976562 49.222656 267.648438 53.734375 C 264.304688 58.257812 263.992188 64.183594 264.835938 69.648438 M 245.714844 113.84375 C 236.882812 113.835938 226.820312 115.730469 221.210938 122.828125 C 217.542969 127.480469 216.582031 133.359375 216.996094 139.210938 C 219.347656 137.242188 222.214844 135.972656 225.03125 134.8125 C 229.128906 133.140625 233.089844 131.621094 237.03125 129.5625 C 241.601562 127.164062 244.375 123.410156 245.34375 118.359375 C 245.597656 117.042969 245.734375 115.414062 245.714844 113.84375 Z M 339.019531 180.90625 C 334.46875 182.554688 329.296875 185.554688 326.359375 188.867188 C 323.628906 191.949219 322.53125 195.367188 323.480469 199.464844 C 324.789062 205.078125 327.367188 209.859375 330.089844 214.875 C 332.28125 218.917969 334.773438 223.464844 334.941406 228.1875 C 342.933594 223.144531 350.199219 216.085938 351.207031 206.8125 C 352.296875 196.882812 345.847656 187.65625 339.019531 180.90625 Z M 266.925781 188.109375 C 265.03125 182.957031 261.921875 178.085938 256.9375 175.566406 C 252.203125 173.171875 246.867188 173.425781 241.789062 174.902344 C 243.277344 176.03125 244.589844 177.394531 245.875 178.769531 C 248.105469 181.152344 250.210938 183.460938 252.679688 185.613281 C 255.882812 188.402344 259.777344 189.222656 263.914062 188.707031 C 264.816406 188.597656 265.875 188.390625 266.925781 188.109375 Z M 264.144531 228.242188 C 255.164062 232.757812 245.648438 239.886719 243.6875 250.101562 C 242.152344 258.144531 245.714844 265.964844 250.714844 272.554688 C 251.78125 268.703125 254.269531 265.4375 256.753906 262.378906 C 259.902344 258.5 262.992188 254.851562 265.738281 250.648438 C 269.152344 245.441406 269.457031 239.835938 267.257812 234.105469 C 266.550781 232.269531 265.425781 230.101562 264.144531 228.242188 Z M 229.347656 11.003906 C 222.550781 13.191406 215.210938 17.113281 212.679688 23.917969 C 211.007812 28.414062 211.800781 33.226562 213.636719 37.679688 C 215.003906 35.738281 216.808594 34.121094 218.628906 32.578125 C 221.472656 30.167969 224.265625 27.921875 226.878906 25.226562 C 229.878906 22.140625 230.921875 18.449219 230.21875 14.246094 C 230.050781 13.269531 229.742188 12.117188 229.347656 11.003906 Z M 237.257812 77.953125 C 236.773438 82.015625 237.152344 86.324219 239.59375 89.628906 C 241.996094 92.878906 245.847656 94.480469 249.949219 95.15625 C 248.167969 91.535156 247.820312 87.738281 246.292969 83.945312 C 245.652344 82.367188 244.808594 80.945312 243.371094 79.976562 C 241.875 78.976562 239.511719 78.382812 237.257812 77.953125 Z M 258.152344 75.425781 C 258.046875 75.175781 257.953125 74.917969 257.886719 74.644531 C 255.851562 66.054688 255.925781 56.492188 261.378906 49.121094 C 268.839844 38.996094 282.722656 37.601562 294.285156 38.8125 C 295.128906 38.894531 295.878906 39.253906 296.46875 39.78125 C 297.054688 40.300781 297.496094 41.011719 297.679688 41.839844 C 297.695312 41.910156 297.710938 41.980469 297.726562 42.054688 C 297.75 42.1875 297.753906 42.324219 297.769531 42.457031 C 297.785156 42.589844 297.785156 42.730469 297.769531 42.867188 C 297.769531 42.9375 297.753906 43.011719 297.753906 43.089844 C 297.664062 43.929688 297.320312 44.683594 296.789062 45.269531 C 296.257812 45.855469 295.550781 46.300781 294.730469 46.480469 C 292.898438 46.886719 290.847656 47.53125 289.660156 49.089844 C 288.613281 50.464844 288.007812 52.71875 287.546875 54.367188 C 286.578125 57.769531 285.695312 61.011719 284.359375 64.300781 C 281.957031 70.261719 277.160156 74.148438 271.160156 76.132812 C 269.878906 76.558594 268.460938 76.917969 267.011719 77.179688 C 271.722656 88.398438 281.277344 93.546875 293.988281 94.289062 C 299.367188 94.601562 304.894531 94.089844 310.179688 93.074219 C 311.773438 92.765625 313.476562 92.40625 315.109375 91.96875 C 317.453125 79.007812 317.5 64.632812 311.214844 52.804688 C 306.351562 43.667969 298.375 37.417969 288.570312 34.308594 C 282.503906 32.386719 275.9375 31.734375 269.515625 32.296875 C 269.441406 32.300781 269.375 32.3125 269.3125 32.3125 C 266 32.613281 262.738281 33.246094 259.605469 34.179688 C 251.410156 36.625 243.300781 41.5 238.917969 49.058594 C 235.070312 55.679688 234.929688 62.945312 237.070312 70.03125 C 244.496094 71.351562 250.234375 72.894531 253.519531 81.039062 C 254.207031 82.746094 254.691406 84.523438 255.164062 86.300781 C 256.242188 90.335938 256.96875 94.347656 261.613281 95.382812 C 262.445312 95.566406 263.144531 96 263.675781 96.59375 C 264.203125 97.183594 264.554688 97.9375 264.640625 98.777344 C 264.652344 98.851562 264.65625 98.921875 264.65625 98.996094 C 264.664062 99.132812 264.664062 99.269531 264.65625 99.398438 C 264.640625 99.542969 264.632812 99.675781 264.613281 99.8125 C 264.597656 99.882812 264.582031 99.953125 264.566406 100.027344 C 264.382812 100.851562 263.949219 101.554688 263.359375 102.082031 C 262.769531 102.605469 262.011719 102.960938 261.171875 103.046875 C 251.34375 104.070312 239.667969 102.839844 233.335938 94.253906 C 228.941406 88.304688 228.621094 80.714844 230.078125 73.710938 C 229.691406 72.582031 229.355469 71.4375 229.066406 70.296875 C 226.199219 72.855469 222.648438 74.46875 218.613281 75.113281 C 216.5 75.449219 214.492188 73.996094 214.160156 71.878906 C 213.824219 69.761719 215.273438 67.761719 217.394531 67.421875 C 221.152344 66.832031 224.132812 65.003906 226.15625 61.769531 C 227.007812 60.417969 227.890625 58.398438 228.128906 56.785156 C 228.160156 56.546875 228.214844 56.316406 228.289062 56.09375 C 228.878906 52.347656 230.144531 48.671875 232.179688 45.144531 C 237.589844 35.832031 247.234375 29.746094 257.371094 26.71875 C 259.480469 26.089844 261.632812 25.582031 263.816406 25.203125 C 261.679688 20.628906 258.035156 16.527344 254.050781 13.761719 C 248.886719 10.175781 243.023438 8.566406 236.976562 9.273438 C 237.390625 10.535156 237.699219 11.808594 237.894531 12.972656 C 239.007812 19.613281 237.175781 25.792969 232.457031 30.652344 C 229.660156 33.535156 226.707031 35.9375 223.65625 38.523438 C 222.265625 39.695312 220.222656 41.414062 219.460938 43.109375 C 218.757812 44.644531 219.054688 46.4375 219.476562 48.011719 C 219.679688 48.796875 219.640625 49.589844 219.382812 50.304688 C 219.136719 51.023438 218.671875 51.675781 218.015625 52.160156 C 217.816406 52.300781 217.613281 52.425781 217.398438 52.527344 C 217.183594 52.628906 216.957031 52.710938 216.726562 52.773438 C 215.941406 52.988281 215.144531 52.941406 214.425781 52.6875 C 213.707031 52.433594 213.054688 51.972656 212.578125 51.320312 C 206.347656 42.804688 201.460938 31.746094 205.382812 21.199219 C 209.300781 10.6875 220.257812 5.222656 230.46875 2.578125 C 230.777344 2.5 231.089844 2.453125 231.390625 2.449219 C 240.878906 -0.101562 250.429688 1.769531 258.488281 7.367188 C 264.328125 11.417969 269.394531 17.546875 271.886719 24.351562 C 278.339844 24.121094 284.835938 24.945312 290.925781 26.886719 C 302.671875 30.613281 312.273438 38.210938 318.082031 49.144531 C 325.121094 62.394531 325.417969 78.0625 322.902344 92.589844 C 337.367188 99.035156 345.226562 112.648438 344.613281 128.738281 C 344.351562 135.65625 342.464844 142.839844 338.898438 148.796875 C 336.914062 152.117188 334.3125 155.175781 331.140625 157.386719 C 336.722656 162.046875 341.191406 167.707031 343.433594 174.339844 C 352.484375 182.964844 360.371094 194.597656 358.945312 207.65625 C 357.1875 223.730469 342.273438 234.171875 328.714844 240.289062 C 327.953125 240.628906 327.132812 240.71875 326.371094 240.5625 C 325.605469 240.417969 324.878906 240.039062 324.300781 239.4375 C 324.214844 239.34375 324.121094 239.242188 324.046875 239.144531 C 323.996094 239.074219 323.941406 238.996094 323.886719 238.921875 C 323.832031 238.847656 323.789062 238.769531 323.742188 238.695312 C 323.671875 238.585938 323.617188 238.472656 323.5625 238.351562 C 323.21875 237.589844 323.140625 236.773438 323.292969 236.011719 C 323.4375 235.246094 323.8125 234.515625 324.417969 233.9375 C 325.800781 232.601562 327.027344 231.011719 327.148438 229.027344 C 327.34375 225.859375 324.707031 221.289062 323.242188 218.582031 C 320.15625 212.894531 317.382812 207.609375 315.898438 201.230469 C 314.5625 195.488281 315.765625 189.949219 319.28125 185.242188 C 322.820312 180.496094 328.992188 176.515625 334.929688 174.128906 C 332.566406 169.324219 328.570312 165.1875 324.433594 161.996094 C 317.511719 156.652344 309.042969 152.933594 300.636719 150.683594 C 298.757812 150.183594 296.875 149.746094 294.976562 149.375 C 294.914062 149.363281 294.859375 149.351562 294.796875 149.339844 C 288.367188 148.09375 281.839844 147.605469 275.328125 147.832031 C 283.121094 152.167969 288.476562 159.0625 290.855469 168.160156 C 291.398438 170.230469 290.144531 172.363281 288.070312 172.910156 C 285.996094 173.449219 283.863281 172.203125 283.328125 170.128906 C 281.117188 161.683594 275.773438 155.921875 267.675781 152.851562 C 264.390625 151.605469 259.738281 150.585938 256.082031 150.59375 C 249.101562 152.367188 242.324219 154.988281 235.933594 158.375 C 218.050781 167.863281 209.832031 183.007812 211.179688 203.023438 C 211.636719 209.859375 213.191406 216.722656 215.429688 223.195312 C 215.808594 224.304688 216.230469 225.464844 216.675781 226.625 C 219.855469 223.761719 223.359375 221.285156 227.023438 219.085938 C 235.859375 213.785156 245.253906 210.339844 254.644531 206.261719 C 258.410156 204.621094 267.28125 200.851562 268.6875 196.578125 C 268.789062 196.269531 268.847656 195.964844 268.878906 195.648438 C 267.503906 196.019531 266.117188 196.28125 264.863281 196.4375 C 258.519531 197.21875 252.449219 195.742188 247.5625 191.480469 C 244.886719 189.152344 242.601562 186.671875 240.1875 184.09375 C 238.984375 182.800781 237.410156 181.089844 235.8125 180.296875 C 234.058594 179.429688 232.019531 179.640625 230.164062 180.023438 C 229.335938 180.199219 228.519531 180.089844 227.796875 179.769531 C 227.078125 179.449219 226.445312 178.917969 226.019531 178.191406 C 225.976562 178.113281 225.925781 178.027344 225.890625 177.949219 C 225.835938 177.84375 225.78125 177.730469 225.734375 177.621094 C 225.691406 177.507812 225.660156 177.390625 225.625 177.273438 C 225.601562 177.1875 225.578125 177.089844 225.558594 177 C 225.386719 176.175781 225.488281 175.359375 225.8125 174.640625 C 226.128906 173.925781 226.664062 173.292969 227.382812 172.867188 C 237.183594 167.070312 249.613281 163.148438 260.445312 168.628906 C 268.523438 172.714844 273.113281 180.769531 275.433594 189.226562 C 276.722656 192.378906 277.164062 195.714844 276.078125 199.011719 C 273.652344 206.371094 264.3125 210.546875 257.746094 213.394531 C 248.714844 217.324219 239.511719 220.667969 231.023438 225.765625 C 222.472656 230.898438 215.242188 237.480469 211.652344 247.015625 C 207.140625 259.003906 206.835938 271.589844 214.027344 282.59375 C 224.53125 298.683594 246.515625 305.152344 264.832031 303.375 C 287.628906 301.167969 305.160156 287.390625 311.71875 265.253906 C 315.136719 253.722656 314.476562 242.117188 304.941406 233.808594 C 302.421875 231.621094 299.542969 229.875 296.503906 228.527344 C 291.378906 226.246094 285.578125 224.992188 279.976562 224.792969 C 277.398438 224.710938 274.386719 224.84375 271.578125 225.414062 C 272.734375 227.300781 273.734375 229.296875 274.445312 231.121094 C 277.625 239.238281 277.085938 247.539062 272.253906 254.917969 C 269.347656 259.359375 266.125 263.195312 262.792969 267.289062 C 261.105469 269.371094 258.808594 272.199219 258.160156 274.84375 C 257.515625 277.484375 258.5 280.167969 259.679688 282.507812 C 260.042969 283.25 260.160156 284.046875 260.050781 284.800781 C 259.945312 285.570312 259.617188 286.300781 259.058594 286.902344 C 258.894531 287.078125 258.726562 287.234375 258.542969 287.367188 C 258.367188 287.507812 258.15625 287.625 257.953125 287.734375 C 257.214844 288.109375 256.417969 288.214844 255.660156 288.109375 C 254.898438 288 254.15625 287.679688 253.558594 287.121094 C 247.667969 281.664062 242.128906 275.175781 238.769531 267.835938 C 235.988281 261.773438 234.773438 255.242188 236.042969 248.636719 C 238.730469 234.628906 251.386719 225.429688 263.601562 219.882812 C 268.542969 217.484375 274.808594 216.824219 280.242188 217.011719 C 286.839844 217.234375 293.617188 218.722656 299.660156 221.40625 C 318.945312 229.96875 325.121094 247.433594 319.183594 267.460938 C 311.726562 292.644531 291.539062 308.597656 265.59375 311.117188 C 244.332031 313.179688 219.640625 305.429688 207.515625 286.847656 C 198.949219 273.734375 198.96875 258.613281 204.371094 244.269531 C 205.953125 240.074219 208.136719 236.265625 210.84375 232.828125 C 209.796875 230.515625 208.878906 228.046875 208.074219 225.734375 C 205.609375 218.609375 203.921875 211.074219 203.414062 203.546875 C 201.863281 180.46875 211.695312 162.429688 232.292969 151.5 C 239.203125 147.832031 246.535156 145.003906 254.082031 143.070312 C 254.359375 142.96875 254.664062 142.894531 254.964844 142.847656 C 266.148438 140.097656 277.78125 139.304688 289.226562 140.621094 C 287.09375 136.492188 284.375 132.378906 281.8125 129.230469 C 274.445312 120.171875 265 114.234375 253.5 113.84375 C 253.527344 115.824219 253.359375 117.835938 253.046875 119.546875 C 251.695312 127.046875 247.421875 132.917969 240.636719 136.464844 C 236.476562 138.644531 232.3125 140.253906 227.996094 142.023438 C 225.851562 142.894531 222.9375 144.089844 221.339844 145.8125 C 219.886719 147.375 219.441406 149.507812 219.269531 151.566406 C 219.207031 152.371094 218.894531 153.105469 218.417969 153.691406 C 217.945312 154.28125 217.292969 154.738281 216.519531 154.96875 C 216.28125 155.035156 216.035156 155.085938 215.800781 155.113281 C 215.558594 155.140625 215.316406 155.140625 215.066406 155.125 C 214.257812 155.054688 213.53125 154.742188 212.941406 154.269531 C 212.351562 153.796875 211.898438 153.148438 211.667969 152.371094 C 208.238281 141.039062 207.339844 127.839844 215.105469 118.011719 C 223.117188 107.863281 236.984375 105.5625 249.171875 106.140625 C 264.90625 105.054688 278.117188 112.339844 287.851562 124.316406 C 291.847656 129.222656 296.007812 135.957031 298.511719 142.152344 C 299.898438 142.460938 301.277344 142.796875 302.648438 143.160156 C 309.609375 145.027344 317.277344 148.09375 324.164062 152.371094 C 327.632812 151.03125 330.371094 147.898438 332.222656 144.8125 C 335.113281 139.972656 336.628906 134.0625 336.847656 128.453125 C 337.351562 115.042969 330.855469 104.054688 318.375 99.144531 C 316.179688 99.789062 313.847656 100.300781 311.660156 100.722656 C 305.734375 101.863281 299.574219 102.414062 293.550781 102.0625 C 276.117188 101.050781 263.105469 92.582031 258.152344 75.425781 Z M 258.152344 75.425781 " fill-opacity="1" fill-rule="nonzero"/><path fill="#badefc" d="M 109.835938 69.648438 C 108.472656 69.449219 107.113281 69.125 105.957031 68.742188 C 102.148438 67.480469 99.0625 65.203125 97.527344 61.390625 C 95.3125 55.90625 94.664062 50.664062 92.507812 46.527344 C 98.203125 47.222656 103.695312 49.222656 107.023438 53.734375 C 110.359375 58.257812 110.675781 64.183594 109.835938 69.648438 M 128.957031 113.84375 C 137.78125 113.835938 147.847656 115.730469 153.457031 122.828125 C 157.132812 127.480469 158.085938 133.359375 157.675781 139.210938 C 155.324219 137.242188 152.457031 135.972656 149.632812 134.8125 C 145.542969 133.140625 141.582031 131.621094 137.644531 129.5625 C 133.070312 127.164062 130.289062 123.410156 129.324219 118.359375 C 129.078125 117.042969 128.933594 115.414062 128.957031 113.84375 Z M 35.65625 180.90625 C 40.203125 182.554688 45.382812 185.554688 48.3125 188.867188 C 51.046875 191.949219 52.148438 195.367188 51.195312 199.464844 C 49.886719 205.078125 47.304688 209.859375 44.582031 214.875 C 42.394531 218.917969 39.898438 223.464844 39.734375 228.1875 C 31.75 223.144531 24.476562 216.085938 23.464844 206.8125 C 22.378906 196.882812 28.828125 187.65625 35.65625 180.90625 Z M 107.75 188.109375 C 109.636719 182.957031 112.746094 178.085938 117.734375 175.566406 C 122.464844 173.171875 127.808594 173.425781 132.882812 174.902344 C 131.394531 176.03125 130.082031 177.394531 128.792969 178.769531 C 126.570312 181.152344 124.457031 183.460938 121.992188 185.613281 C 118.789062 188.402344 114.894531 189.222656 110.757812 188.707031 C 109.855469 188.597656 108.796875 188.390625 107.75 188.109375 Z M 110.527344 228.242188 C 119.507812 232.757812 129.023438 239.886719 130.980469 250.101562 C 132.527344 258.144531 128.953125 265.964844 123.957031 272.554688 C 122.894531 268.703125 120.398438 265.4375 117.917969 262.378906 C 114.769531 258.5 111.683594 254.851562 108.929688 250.648438 C 105.523438 245.441406 105.210938 239.835938 107.417969 234.105469 C 108.113281 232.269531 109.25 230.101562 110.527344 228.242188 Z M 145.324219 11.003906 C 152.113281 13.191406 159.453125 17.113281 161.988281 23.917969 C 163.660156 28.414062 162.867188 33.226562 161.035156 37.679688 C 159.664062 35.738281 157.859375 34.121094 156.042969 32.578125 C 153.195312 30.167969 150.40625 27.921875 147.792969 25.226562 C 144.800781 22.140625 143.75 18.449219 144.457031 14.246094 C 144.625 13.269531 144.929688 12.117188 145.324219 11.003906 Z M 137.414062 77.953125 C 137.902344 82.015625 137.519531 86.324219 135.078125 89.628906 C 132.679688 92.878906 128.824219 94.480469 124.71875 95.15625 C 126.503906 91.535156 126.851562 87.738281 128.378906 83.945312 C 129.015625 82.367188 129.863281 80.945312 131.304688 79.976562 C 132.789062 78.976562 135.15625 78.382812 137.414062 77.953125 Z M 116.515625 75.425781 C 116.628906 75.175781 116.71875 74.917969 116.789062 74.644531 C 118.816406 66.054688 118.734375 56.492188 113.289062 49.121094 C 105.828125 38.996094 91.945312 37.601562 80.386719 38.8125 C 79.542969 38.894531 78.789062 39.253906 78.203125 39.78125 C 77.613281 40.300781 77.175781 41.011719 76.988281 41.839844 C 76.972656 41.910156 76.957031 41.980469 76.945312 42.054688 C 76.925781 42.1875 76.90625 42.324219 76.902344 42.457031 C 76.894531 42.589844 76.894531 42.730469 76.898438 42.867188 C 76.902344 42.9375 76.90625 43.011719 76.917969 43.089844 C 77.003906 43.929688 77.355469 44.683594 77.882812 45.269531 C 78.410156 45.859375 79.121094 46.300781 79.941406 46.480469 C 81.773438 46.886719 83.824219 47.53125 85.011719 49.089844 C 86.058594 50.464844 86.664062 52.71875 87.132812 54.367188 C 88.089844 57.769531 88.976562 61.011719 90.308594 64.300781 C 92.710938 70.261719 97.511719 74.148438 103.507812 76.132812 C 104.792969 76.558594 106.207031 76.917969 107.660156 77.179688 C 102.949219 88.398438 93.394531 93.546875 80.683594 94.289062 C 75.304688 94.601562 69.777344 94.089844 64.492188 93.074219 C 62.894531 92.765625 61.199219 92.40625 59.566406 91.96875 C 57.222656 79.007812 57.171875 64.632812 63.460938 52.804688 C 68.316406 43.667969 76.292969 37.417969 86.09375 34.308594 C 92.167969 32.386719 98.734375 31.734375 105.160156 32.296875 C 105.226562 32.300781 105.296875 32.3125 105.363281 32.3125 C 108.667969 32.613281 111.933594 33.246094 115.070312 34.179688 C 123.261719 36.625 131.371094 41.5 135.757812 49.058594 C 139.597656 55.679688 139.746094 62.945312 137.601562 70.03125 C 130.179688 71.351562 124.4375 72.894531 121.152344 81.039062 C 120.464844 82.746094 119.980469 84.523438 119.507812 86.300781 C 118.429688 90.335938 117.703125 94.347656 113.058594 95.382812 C 112.230469 95.566406 111.523438 96 110.996094 96.59375 C 110.46875 97.183594 110.121094 97.9375 110.027344 98.777344 C 110.023438 98.851562 110.015625 98.921875 110.011719 98.996094 C 110.007812 99.132812 110.007812 99.269531 110.011719 99.398438 C 110.023438 99.542969 110.039062 99.675781 110.0625 99.8125 C 110.074219 99.882812 110.085938 99.953125 110.101562 100.027344 C 110.289062 100.851562 110.726562 101.554688 111.3125 102.082031 C 111.90625 102.605469 112.660156 102.960938 113.5 103.046875 C 123.332031 104.070312 135.003906 102.839844 141.339844 94.253906 C 145.734375 88.304688 146.046875 80.714844 144.597656 73.710938 C 144.980469 72.582031 145.316406 71.4375 145.605469 70.296875 C 148.472656 72.855469 152.023438 74.46875 156.054688 75.113281 C 158.175781 75.449219 160.175781 73.996094 160.511719 71.878906 C 160.847656 69.761719 159.398438 67.761719 157.277344 67.421875 C 153.519531 66.832031 150.535156 65.003906 148.511719 61.769531 C 147.660156 60.417969 146.78125 58.398438 146.542969 56.785156 C 146.507812 56.546875 146.457031 56.316406 146.382812 56.09375 C 145.796875 52.347656 144.53125 48.671875 142.488281 45.144531 C 137.082031 35.832031 127.433594 29.746094 117.296875 26.71875 C 115.191406 26.089844 113.035156 25.582031 110.855469 25.203125 C 112.988281 20.628906 116.636719 16.527344 120.621094 13.761719 C 125.78125 10.175781 131.652344 8.566406 137.6875 9.273438 C 137.285156 10.535156 136.96875 11.808594 136.777344 12.972656 C 135.664062 19.613281 137.488281 25.792969 142.210938 30.652344 C 145.015625 33.535156 147.964844 35.9375 151.011719 38.523438 C 152.402344 39.695312 154.449219 41.414062 155.214844 43.109375 C 155.910156 44.644531 155.617188 46.4375 155.195312 48.011719 C 154.988281 48.796875 155.03125 49.589844 155.285156 50.304688 C 155.539062 51.023438 156 51.675781 156.65625 52.160156 C 156.855469 52.300781 157.058594 52.425781 157.273438 52.527344 C 157.484375 52.628906 157.710938 52.710938 157.945312 52.773438 C 158.734375 52.988281 159.53125 52.941406 160.242188 52.6875 C 160.964844 52.433594 161.613281 51.972656 162.09375 51.320312 C 168.332031 42.804688 173.207031 31.746094 169.285156 21.199219 C 165.371094 10.6875 154.414062 5.222656 144.203125 2.578125 C 143.890625 2.5 143.582031 2.453125 143.28125 2.449219 C 133.792969 -0.101562 124.238281 1.769531 116.179688 7.367188 C 110.34375 11.417969 105.277344 17.546875 102.785156 24.351562 C 96.332031 24.121094 89.832031 24.945312 83.742188 26.886719 C 71.996094 30.613281 62.402344 38.210938 56.589844 49.144531 C 49.542969 62.394531 49.25 78.0625 51.769531 92.589844 C 37.300781 99.035156 29.445312 112.648438 30.054688 128.738281 C 30.316406 135.65625 32.210938 142.839844 35.773438 148.796875 C 37.757812 152.117188 40.355469 155.175781 43.527344 157.386719 C 37.953125 162.046875 33.476562 167.707031 31.238281 174.339844 C 22.1875 182.964844 14.300781 194.597656 15.722656 207.65625 C 17.480469 223.730469 32.390625 234.171875 45.957031 240.289062 C 46.71875 240.628906 47.53125 240.71875 48.296875 240.5625 C 49.0625 240.417969 49.792969 240.039062 50.367188 239.4375 C 50.457031 239.34375 50.542969 239.242188 50.621094 239.144531 C 50.675781 239.074219 50.730469 238.996094 50.785156 238.921875 C 50.835938 238.847656 50.878906 238.769531 50.929688 238.695312 C 50.996094 238.585938 51.050781 238.472656 51.109375 238.351562 C 51.449219 237.589844 51.527344 236.773438 51.382812 236.011719 C 51.230469 235.246094 50.855469 234.515625 50.253906 233.9375 C 48.867188 232.601562 47.644531 231.011719 47.523438 229.027344 C 47.324219 225.859375 49.957031 221.289062 51.429688 218.582031 C 54.511719 212.894531 57.289062 207.609375 58.773438 201.230469 C 60.109375 195.488281 58.90625 189.949219 55.394531 185.242188 C 51.851562 180.496094 45.675781 176.515625 39.734375 174.128906 C 42.101562 169.324219 46.097656 165.1875 50.238281 161.996094 C 57.160156 156.652344 65.625 152.933594 74.039062 150.683594 C 75.914062 150.183594 77.796875 149.746094 79.695312 149.375 C 79.753906 149.363281 79.808594 149.351562 79.875 149.339844 C 86.300781 148.09375 92.835938 147.605469 99.347656 147.832031 C 91.550781 152.167969 86.191406 159.0625 83.816406 168.160156 C 83.273438 170.230469 84.527344 172.363281 86.597656 172.910156 C 88.675781 173.449219 90.808594 172.203125 91.351562 170.128906 C 93.554688 161.683594 98.894531 155.921875 106.992188 152.851562 C 110.277344 151.605469 114.925781 150.585938 118.589844 150.59375 C 125.574219 152.367188 132.347656 154.988281 138.738281 158.375 C 156.621094 167.863281 164.84375 183.007812 163.496094 203.023438 C 163.035156 209.859375 161.480469 216.722656 159.246094 223.195312 C 158.859375 224.304688 158.441406 225.464844 157.992188 226.625 C 154.816406 223.761719 151.3125 221.285156 147.652344 219.085938 C 138.8125 213.785156 129.414062 210.339844 120.027344 206.261719 C 116.265625 204.621094 107.390625 200.851562 105.980469 196.578125 C 105.882812 196.269531 105.820312 195.964844 105.785156 195.648438 C 107.164062 196.019531 108.546875 196.28125 109.804688 196.4375 C 116.148438 197.21875 122.226562 195.742188 127.109375 191.480469 C 129.785156 189.152344 132.074219 186.671875 134.480469 184.09375 C 135.691406 182.800781 137.261719 181.089844 138.859375 180.296875 C 140.613281 179.429688 142.652344 179.640625 144.511719 180.023438 C 145.335938 180.199219 146.152344 180.089844 146.875 179.769531 C 147.59375 179.449219 148.222656 178.917969 148.644531 178.191406 C 148.695312 178.113281 148.742188 178.027344 148.78125 177.949219 C 148.839844 177.84375 148.886719 177.730469 148.925781 177.621094 C 148.972656 177.507812 149.011719 177.390625 149.042969 177.273438 C 149.070312 177.1875 149.09375 177.089844 149.109375 177 C 149.277344 176.175781 149.175781 175.359375 148.859375 174.640625 C 148.539062 173.925781 148.003906 173.292969 147.277344 172.867188 C 137.480469 167.070312 125.054688 163.148438 114.222656 168.628906 C 106.140625 172.714844 101.554688 180.769531 99.234375 189.226562 C 97.9375 192.378906 97.5 195.714844 98.585938 199.011719 C 101.007812 206.371094 110.355469 210.546875 116.917969 213.394531 C 125.953125 217.324219 135.152344 220.667969 143.640625 225.765625 C 152.195312 230.898438 159.425781 237.480469 163.011719 247.015625 C 167.523438 259.003906 167.828125 271.589844 160.636719 282.59375 C 150.132812 298.683594 128.144531 305.152344 109.828125 303.375 C 87.03125 301.167969 69.503906 287.390625 62.945312 265.253906 C 59.527344 253.722656 60.195312 242.117188 69.726562 233.808594 C 72.238281 231.621094 75.121094 229.875 78.164062 228.527344 C 83.292969 226.246094 89.085938 224.992188 94.6875 224.792969 C 97.265625 224.710938 100.273438 224.84375 103.089844 225.414062 C 101.929688 227.300781 100.933594 229.296875 100.21875 231.121094 C 97.035156 239.238281 97.582031 247.539062 102.410156 254.917969 C 105.316406 259.359375 108.542969 263.195312 111.867188 267.289062 C 113.554688 269.371094 115.851562 272.199219 116.5 274.84375 C 117.148438 277.484375 116.167969 280.167969 114.988281 282.507812 C 114.617188 283.25 114.503906 284.046875 114.613281 284.800781 C 114.714844 285.570312 115.050781 286.300781 115.605469 286.902344 C 115.765625 287.078125 115.9375 287.234375 116.121094 287.367188 C 116.304688 287.507812 116.5 287.625 116.714844 287.734375 C 117.449219 288.109375 118.246094 288.214844 119.007812 288.109375 C 119.765625 288 120.5 287.679688 121.109375 287.121094 C 126.996094 281.664062 132.53125 275.175781 135.894531 267.835938 C 138.671875 261.773438 139.894531 255.242188 138.625 248.636719 C 135.933594 234.628906 123.277344 225.429688 111.066406 219.882812 C 106.125 217.484375 99.851562 216.824219 94.425781 217.011719 C 87.820312 217.234375 81.046875 218.722656 75.003906 221.40625 C 55.710938 229.96875 49.542969 247.433594 55.480469 267.460938 C 62.941406 292.644531 83.121094 308.597656 109.074219 311.117188 C 130.335938 313.179688 155.027344 305.429688 167.152344 286.847656 C 175.722656 273.734375 175.695312 258.613281 170.296875 244.269531 C 168.710938 240.074219 166.527344 236.265625 163.824219 232.828125 C 164.871094 230.515625 165.792969 228.046875 166.59375 225.734375 C 169.054688 218.609375 170.742188 211.074219 171.25 203.546875 C 172.808594 180.46875 162.976562 162.429688 142.375 151.5 C 135.460938 147.832031 128.128906 145.003906 120.582031 143.070312 C 120.304688 142.96875 120.003906 142.894531 119.695312 142.847656 C 108.519531 140.097656 96.890625 139.304688 85.4375 140.621094 C 87.574219 136.492188 90.292969 132.378906 92.851562 129.230469 C 100.222656 120.171875 109.667969 114.234375 121.167969 113.84375 C 121.140625 115.824219 121.308594 117.835938 121.621094 119.546875 C 122.976562 127.046875 127.25 132.917969 134.03125 136.464844 C 138.191406 138.644531 142.355469 140.253906 146.671875 142.023438 C 148.8125 142.894531 151.734375 144.089844 153.328125 145.8125 C 154.78125 147.375 155.226562 149.507812 155.398438 151.566406 C 155.464844 152.371094 155.773438 153.105469 156.253906 153.691406 C 156.726562 154.28125 157.375 154.738281 158.152344 154.96875 C 158.390625 155.035156 158.628906 155.085938 158.871094 155.113281 C 159.109375 155.140625 159.355469 155.140625 159.605469 155.125 C 160.40625 155.054688 161.140625 154.742188 161.726562 154.269531 C 162.316406 153.796875 162.769531 153.148438 163.003906 152.371094 C 166.433594 141.039062 167.328125 127.839844 159.5625 118.011719 C 151.550781 107.863281 137.6875 105.5625 125.496094 106.140625 C 109.769531 105.054688 96.554688 112.339844 86.816406 124.316406 C 82.824219 129.222656 78.660156 135.957031 76.15625 142.152344 C 74.773438 142.460938 73.390625 142.796875 72.019531 143.160156 C 65.058594 145.027344 57.386719 148.09375 50.503906 152.371094 C 47.042969 151.03125 44.296875 147.898438 42.449219 144.8125 C 39.558594 139.972656 38.039062 134.0625 37.824219 128.453125 C 37.320312 115.042969 43.816406 104.054688 56.292969 99.144531 C 58.488281 99.789062 60.816406 100.300781 63.011719 100.722656 C 68.9375 101.863281 75.101562 102.414062 81.125 102.0625 C 98.550781 101.050781 111.566406 92.582031 116.515625 75.425781 Z M 116.515625 75.425781 " fill-opacity="1" fill-rule="nonzero"/><g clip-path="url(#20d5f5babc)"><path fill="#fddf7d" d="M 186.140625 374.75 C 186.140625 374.75 186.597656 374.769531 187.335938 374.726562 C 188.070312 374.769531 188.53125 374.75 188.53125 374.75 L 188.53125 374.605469 C 190.457031 374.363281 192.398438 374.335938 195.421875 371.835938 C 198.460938 369.324219 211.476562 364.539062 210.148438 357.640625 C 208.820312 350.742188 205.105469 355.691406 208.15625 350.785156 C 211.210938 345.878906 215.445312 343.230469 209.21875 336.058594 C 202.992188 328.90625 208.957031 326.652344 209.75 324.929688 C 210.546875 323.203125 214.261719 320.28125 204.046875 311.660156 C 198.9375 307.359375 175.730469 307.359375 170.628906 311.660156 C 160.414062 320.28125 164.125 323.203125 164.921875 324.929688 C 165.714844 326.652344 171.683594 328.90625 165.453125 336.058594 C 159.222656 343.226562 163.460938 345.878906 166.511719 350.785156 C 169.5625 355.691406 165.847656 350.742188 164.523438 357.640625 C 163.199219 364.539062 176.214844 369.324219 179.246094 371.835938 C 182.273438 374.335938 184.214844 374.363281 186.144531 374.605469 L 186.144531 374.75 Z M 186.140625 374.75 " fill-opacity="1" fill-rule="nonzero"/></g><path fill="#fddf7d" d="M 177.117188 102.011719 C 176.375 99.464844 174.972656 95.550781 173.304688 95.117188 C 172.117188 94.808594 170.582031 94.582031 169.375 94.90625 C 169.089844 94.980469 168.53125 95.1875 168.394531 95.492188 C 168 96.378906 169.808594 98.152344 170.355469 98.601562 C 172.164062 100.101562 174.601562 101.203125 177.117188 102.011719 M 193.910156 108.089844 C 193.28125 112.925781 193.09375 117.5 193.023438 120.238281 C 192.828125 128.035156 193.164062 291.886719 193.796875 299.65625 C 194.089844 303.234375 194.425781 306.878906 194.90625 310.445312 C 195.101562 311.933594 194.050781 313.300781 192.566406 313.507812 C 191.070312 313.703125 189.707031 312.65625 189.503906 311.171875 C 189.019531 307.507812 188.664062 303.777344 188.367188 300.101562 C 187.71875 292.140625 187.378906 128.09375 187.578125 120.101562 C 187.65625 117.140625 187.8125 113.265625 188.265625 109.144531 C 186.914062 109.234375 185.539062 109.21875 184.148438 109.078125 C 184.886719 113.914062 185.277344 118.898438 185.542969 123.632812 C 185.964844 130.972656 186.0625 294.332031 185.984375 301.679688 C 185.945312 305.078125 185.882812 308.484375 185.734375 311.867188 C 185.667969 313.363281 184.382812 314.527344 182.890625 314.460938 C 181.394531 314.394531 180.222656 313.113281 180.289062 311.617188 C 180.441406 308.292969 180.496094 304.949219 180.539062 301.628906 C 180.617188 294.394531 180.515625 131.160156 180.105469 123.9375 C 179.8125 118.78125 179.378906 113.273438 178.464844 108.039062 C 174.304688 107.027344 170.023438 105.394531 166.886719 102.796875 C 164.171875 100.550781 161.824219 96.84375 163.425781 93.261719 C 165.339844 88.984375 170.78125 88.824219 174.683594 89.847656 C 179.6875 91.15625 181.804688 98.042969 182.871094 102.445312 C 182.949219 102.773438 183.027344 103.105469 183.101562 103.433594 C 183.21875 103.457031 183.332031 103.476562 183.441406 103.492188 C 185.34375 103.808594 187.230469 103.824219 189.058594 103.585938 C 190.566406 95.226562 193.625 87.039062 199.925781 84.222656 C 203.042969 82.832031 207.484375 81.671875 210.113281 84.632812 C 212.085938 86.863281 211.738281 90.097656 210.816406 92.695312 C 209.734375 95.730469 207.699219 98.613281 205.46875 100.917969 C 202.214844 104.289062 198.238281 106.765625 193.910156 108.089844 Z M 206.050781 88.277344 C 205.273438 87.945312 202.789062 88.914062 202.15625 89.199219 C 198.492188 90.839844 196.3125 96.019531 194.996094 101.855469 C 197.265625 100.789062 199.371094 99.304688 201.21875 97.476562 C 202.941406 95.769531 204.589844 93.597656 205.503906 91.335938 C 205.730469 90.789062 206.347656 88.914062 206.050781 88.277344 Z M 206.050781 88.277344 " fill-opacity="1" fill-rule="nonzero"/></svg>