<svg xmlns="http://www.w3.org/2000/svg" xmlns:xlink="http://www.w3.org/1999/xlink" width="500" zoomAndPan="magnify" viewBox="0 0 375 307.91998" height="400" preserveAspectRatio="xMidYMid meet" version="1.0"><defs><clipPath id="a9d5b9c661"><path d="M 0.046875 0 L 374.949219 0 L 374.949219 299.921875 L 0.046875 299.921875 Z M 0.046875 0 " clip-rule="nonzero"/></clipPath><clipPath id="c3bb7cc12e"><path d="M 1.472656 40.769531 L 373.53125 40.769531 L 373.53125 258.964844 L 1.472656 258.964844 Z M 1.472656 40.769531 " clip-rule="nonzero"/></clipPath><clipPath id="2f998d2ea2"><path d="M 1.472656 247 L 373.53125 247 L 373.53125 258.964844 L 1.472656 258.964844 Z M 1.472656 247 " clip-rule="nonzero"/></clipPath></defs><g clip-path="url(#a9d5b9c661)"><path fill="#ffffff" d="M 0.046875 0 L 374.953125 0 L 374.953125 299.921875 L 0.046875 299.921875 Z M 0.046875 0 " fill-opacity="1" fill-rule="nonzero"/><path fill="#ffffff" d="M 0.046875 0 L 374.953125 0 L 374.953125 299.921875 L 0.046875 299.921875 Z M 0.046875 0 " fill-opacity="1" fill-rule="nonzero"/></g><path fill="#23673a" d="M 358.949219 247.765625 C 358.949219 250.691406 356.59375 253.046875 353.675781 253.046875 L 21.328125 253.046875 C 18.410156 253.046875 16.054688 250.691406 16.054688 247.765625 L 16.054688 48.46875 C 16.054688 45.554688 18.410156 43.1875 21.328125 43.1875 L 353.675781 43.1875 C 356.59375 43.1875 358.949219 45.554688 358.949219 48.46875 L 358.949219 247.765625 " fill-opacity="1" fill-rule="nonzero"/><g clip-path="url(#c3bb7cc12e)"><path stroke-linecap="butt" transform="matrix(0.311084, 0, 0, -0.310817, 1.471949, 259.088274)" fill="none" stroke-linejoin="miter" d="M 1149.135381 36.428704 C 1149.135381 27.015498 1141.563564 19.437176 1132.183552 19.437176 L 63.82905 19.437176 C 54.449037 19.437176 46.87722 27.015498 46.87722 36.428704 L 46.87722 677.632632 C 46.87722 687.008134 54.449037 694.624159 63.82905 694.624159 L 1132.183552 694.624159 C 1141.563564 694.624159 1149.135381 687.008134 1149.135381 677.632632 Z M 1149.135381 36.428704 " stroke="#a37547" stroke-width="15.546" stroke-opacity="1" stroke-miterlimit="10"/></g><g clip-path="url(#2f998d2ea2)"><path fill="#a37547" d="M 367.492188 259.082031 L 7.523438 259.082031 C 4.183594 259.082031 1.472656 256.386719 1.472656 253.046875 C 1.472656 249.722656 4.183594 247.015625 7.523438 247.015625 L 367.492188 247.015625 C 370.824219 247.015625 373.53125 249.722656 373.53125 253.046875 C 373.53125 256.386719 370.824219 259.082031 367.492188 259.082031 " fill-opacity="1" fill-rule="nonzero"/></g><path fill="#f470a4" d="M 90.773438 247.015625 L 61.355469 247.015625 L 61.355469 239.765625 L 90.773438 239.765625 L 90.773438 247.015625 " fill-opacity="1" fill-rule="nonzero"/><path fill="#ffffff" d="M 54.769531 247.015625 L 30.867188 247.015625 L 30.867188 239.765625 L 54.769531 239.765625 L 54.769531 247.015625 " fill-opacity="1" fill-rule="nonzero"/><path fill="#bcaf8f" d="M 300.039062 237.570312 L 300.039062 243.421875 C 300.039062 245.398438 301.644531 247.015625 303.636719 247.015625 L 339.75 247.015625 C 341.742188 247.015625 343.347656 245.398438 343.347656 243.421875 L 343.347656 237.570312 L 300.039062 237.570312 " fill-opacity="1" fill-rule="nonzero"/><path stroke-linecap="butt" transform="matrix(0.311084, 0, 0, -0.310817, 1.471949, 259.088245)" fill="none" stroke-linejoin="miter" d="M 979.340838 70.487071 L 979.340838 38.841609 " stroke="#6e6356" stroke-width="3.886" stroke-opacity="1" stroke-miterlimit="10"/><path stroke-linecap="butt" transform="matrix(0.311084, 0, 0, -0.310817, 1.471949, 259.088245)" fill="none" stroke-linejoin="miter" d="M 999.36911 70.487071 L 999.36911 38.841609 " stroke="#6e6356" stroke-width="3.886" stroke-opacity="1" stroke-miterlimit="10"/><path stroke-linecap="butt" transform="matrix(0.311084, 0, 0, -0.310817, 1.471949, 259.088245)" fill="none" stroke-linejoin="miter" d="M 1019.372268 70.487071 L 1019.372268 38.841609 " stroke="#6e6356" stroke-width="3.886" stroke-opacity="1" stroke-miterlimit="10"/><path stroke-linecap="butt" transform="matrix(0.311084, 0, 0, -0.310817, 1.471949, 259.088245)" fill="none" stroke-linejoin="miter" d="M 1039.413097 70.487071 L 1039.413097 38.841609 " stroke="#6e6356" stroke-width="3.886" stroke-opacity="1" stroke-miterlimit="10"/><path stroke-linecap="butt" transform="matrix(0.311084, 0, 0, -0.310817, 1.471949, 259.088245)" fill="none" stroke-linejoin="miter" d="M 1059.416256 70.487071 L 1059.416256 38.841609 " stroke="#6e6356" stroke-width="3.886" stroke-opacity="1" stroke-miterlimit="10"/><path stroke-linecap="butt" transform="matrix(0.311084, 0, 0, -0.310817, 1.471949, 259.088245)" fill="none" stroke-linejoin="miter" d="M 1079.419414 70.487071 L 1079.419414 38.841609 " stroke="#6e6356" stroke-width="3.886" stroke-opacity="1" stroke-miterlimit="10"/><path fill="#704725" d="M 347.832031 234.460938 C 347.832031 236.863281 345.875 238.792969 343.480469 238.792969 L 299.90625 238.792969 C 297.5 238.792969 295.566406 236.863281 295.566406 234.460938 L 295.566406 230.855469 C 295.566406 228.460938 297.5 226.519531 299.90625 226.519531 L 343.480469 226.519531 C 345.875 226.519531 347.832031 228.460938 347.832031 230.855469 L 347.832031 234.460938 " fill-opacity="1" fill-rule="nonzero"/></svg>