<svg xmlns="http://www.w3.org/2000/svg" xmlns:xlink="http://www.w3.org/1999/xlink" width="500" zoomAndPan="magnify" viewBox="0 0 375 307.91998" height="400" preserveAspectRatio="xMidYMid meet" version="1.0"><defs><clipPath id="4d43d2c879"><path d="M 0.046875 0 L 374.949219 0 L 374.949219 299.921875 L 0.046875 299.921875 Z M 0.046875 0 " clip-rule="nonzero"/></clipPath><clipPath id="3afb5989af"><path d="M 285 88 L 374.949219 88 L 374.949219 127 L 285 127 Z M 285 88 " clip-rule="nonzero"/></clipPath><clipPath id="6fe7b5c83f"><path d="M 106 45.222656 L 372 45.222656 L 372 108 L 106 108 Z M 106 45.222656 " clip-rule="nonzero"/></clipPath><clipPath id="55e544d219"><path d="M 0.046875 90 L 14 90 L 14 116 L 0.046875 116 Z M 0.046875 90 " clip-rule="nonzero"/></clipPath><clipPath id="8eb2ebfd13"><path d="M 3 215 L 90 215 L 90 254.417969 L 3 254.417969 Z M 3 215 " clip-rule="nonzero"/></clipPath><clipPath id="0d6a69d3bf"><path d="M 35 166 L 90 166 L 90 254.417969 L 35 254.417969 Z M 35 166 " clip-rule="nonzero"/></clipPath></defs><g clip-path="url(#4d43d2c879)"><path fill="#ffffff" d="M 0.046875 0 L 374.953125 0 L 374.953125 299.921875 L 0.046875 299.921875 Z M 0.046875 0 " fill-opacity="1" fill-rule="nonzero"/><path fill="#ffffff" d="M 0.046875 0 L 374.953125 0 L 374.953125 299.921875 L 0.046875 299.921875 Z M 0.046875 0 " fill-opacity="1" fill-rule="nonzero"/></g><path fill="#d9b6b0" d="M 265.699219 238.109375 L 272.574219 242.195312 C 274.976562 242.59375 277.289062 242.25 279.515625 241.15625 C 289.652344 235.707031 319.28125 222.417969 368.402344 201.292969 L 368.617188 197.925781 L 340.441406 197.296875 L 264.445312 217.105469 Z M 265.699219 238.109375 " fill-opacity="1" fill-rule="nonzero"/><path fill="#faf2eb" d="M 251.316406 189.046875 L 360.664062 150.558594 C 360.753906 167.109375 360.839844 183.65625 360.925781 200.207031 L 270.917969 238.804688 Z M 251.316406 189.046875 " fill-opacity="1" fill-rule="nonzero"/><path fill="#d9b6b0" d="M 55.203125 186.492188 L 54.421875 188.25 C 50.785156 195.769531 49.078125 202.644531 49.300781 208.875 C 49.304688 214.335938 52 223.535156 57.394531 236.464844 L 274.652344 242.351562 C 270.886719 229.332031 269.167969 219.636719 269.496094 213.261719 C 269.433594 206.863281 271.542969 197.402344 275.835938 184.871094 Z M 55.203125 186.492188 " fill-opacity="1" fill-rule="nonzero"/><path fill="#d9b6b0" d="M 74.792969 220.007812 L 55.195312 186.511719 L 153.375 147.21875 L 364.679688 148.851562 L 365.042969 152.808594 L 248.964844 200.527344 Z M 74.792969 220.007812 " fill-opacity="1" fill-rule="nonzero"/><path fill="#0f1d25" d="M 282.085938 194.011719 L 283.070312 193.726562 C 287.367188 192.402344 299.539062 187.6875 319.585938 179.589844 C 339.558594 171.585938 352.050781 166.351562 357.0625 163.894531 C 346.96875 167.46875 333.367188 172.707031 316.265625 179.609375 C 303.03125 184.871094 291.640625 189.671875 282.085938 194.011719 Z M 282.085938 194.011719 " fill-opacity="0.11" fill-rule="nonzero"/><path fill="#0f1d25" d="M 278.515625 202.949219 L 279.5 202.667969 C 283.792969 201.355469 295.957031 196.683594 315.996094 188.652344 C 335.957031 180.710938 348.441406 175.523438 353.449219 173.078125 C 343.363281 176.625 329.773438 181.816406 312.679688 188.660156 C 299.453125 193.878906 288.066406 198.640625 278.515625 202.949219 Z M 278.515625 202.949219 " fill-opacity="0.11" fill-rule="nonzero"/><path fill="#0f1d25" d="M 279.265625 212.464844 L 280.328125 212.15625 C 284.949219 210.707031 298.070312 205.617188 319.691406 196.890625 C 341.234375 188.285156 354.710938 182.664062 360.117188 180.027344 C 349.246094 183.914062 334.589844 189.570312 316.144531 197 C 301.875 202.671875 289.582031 207.824219 279.265625 212.464844 Z M 279.265625 212.464844 " fill-opacity="0.11" fill-rule="nonzero"/><path fill="#0f1d25" d="M 279.199219 223.714844 L 280.222656 223.378906 C 284.683594 221.808594 297.308594 216.398438 318.09375 207.144531 C 338.808594 198 351.757812 192.050781 356.941406 189.289062 C 346.46875 193.441406 332.363281 199.460938 314.628906 207.34375 C 300.90625 213.367188 289.097656 218.824219 279.199219 223.714844 Z M 279.199219 223.714844 " fill-opacity="0.11" fill-rule="nonzero"/><path fill="#0f1d25" d="M 281.273438 230.339844 L 282.273438 230.015625 C 286.640625 228.503906 298.996094 223.261719 319.335938 214.292969 C 339.601562 205.425781 352.273438 199.652344 357.34375 196.964844 C 347.089844 200.980469 333.289062 206.808594 315.9375 214.449219 C 302.507812 220.285156 290.953125 225.582031 281.273438 230.339844 Z M 281.273438 230.339844 " fill-opacity="0.11" fill-rule="nonzero"/><path fill="#0f1d25" d="M 55.84375 186.453125 L 271.894531 189.570312 C 272.328125 189.578125 272.671875 189.933594 272.667969 190.363281 C 272.660156 190.796875 272.304688 191.140625 271.871094 191.136719 L 55.820312 188.019531 C 55.386719 188.011719 55.042969 187.65625 55.046875 187.226562 C 55.054688 186.792969 55.410156 186.449219 55.84375 186.453125 Z M 55.84375 186.453125 " fill-opacity="0.353" fill-rule="nonzero"/><path fill="#a65c1d" d="M 285.605469 171.964844 L 291.488281 175.460938 C 293.539062 175.800781 295.519531 175.503906 297.421875 174.566406 C 306.089844 169.90625 331.425781 158.53125 373.425781 140.449219 L 373.609375 137.566406 L 349.511719 137.039062 L 284.527344 154.007812 Z M 285.605469 171.964844 " fill-opacity="1" fill-rule="nonzero"/><path fill="#faf2eb" d="M 273.289062 130.015625 C 304.457031 119.03125 335.625 108.046875 366.792969 97.0625 C 366.875 111.214844 366.953125 125.371094 367.035156 139.523438 C 341.378906 150.535156 315.726562 161.546875 290.070312 172.558594 Z M 273.289062 130.015625 " fill-opacity="1" fill-rule="nonzero"/><path fill="#a65c1d" d="M 105.574219 127.898438 L 104.90625 129.402344 C 101.796875 135.835938 100.339844 141.714844 100.535156 147.039062 C 100.539062 151.710938 102.847656 159.574219 107.464844 170.632812 L 293.261719 175.589844 C 290.039062 164.460938 288.566406 156.171875 288.847656 150.71875 C 288.789062 145.246094 290.589844 137.152344 294.257812 126.4375 Z M 105.574219 127.898438 " fill-opacity="1" fill-rule="nonzero"/><path fill="#a65c1d" d="M 122.339844 156.554688 L 105.566406 127.914062 L 189.515625 94.28125 L 370.226562 95.601562 L 370.539062 98.988281 L 271.28125 139.835938 Z M 122.339844 156.554688 " fill-opacity="1" fill-rule="nonzero"/><path fill="#0f1d25" d="M 299.605469 134.25 L 300.445312 134.007812 C 304.121094 132.871094 314.53125 128.835938 331.671875 121.902344 C 348.75 115.050781 359.433594 110.574219 363.71875 108.46875 C 355.085938 111.53125 343.457031 116.015625 328.832031 121.921875 C 317.515625 126.425781 307.773438 130.535156 299.605469 134.25 Z M 299.605469 134.25 " fill-opacity="0.11" fill-rule="nonzero"/><path fill="#0f1d25" d="M 296.554688 141.894531 L 297.394531 141.65625 C 301.066406 140.53125 311.46875 136.53125 328.605469 129.65625 C 345.671875 122.859375 356.347656 118.414062 360.632812 116.324219 C 352.003906 119.359375 340.382812 123.804688 325.765625 129.664062 C 314.457031 134.128906 304.722656 138.207031 296.554688 141.894531 Z M 296.554688 141.894531 " fill-opacity="0.11" fill-rule="nonzero"/><path fill="#0f1d25" d="M 297.203125 150.035156 L 298.105469 149.769531 C 301.398438 148.792969 313.28125 144.171875 333.753906 135.898438 C 346.660156 130.683594 353.484375 127.902344 354.226562 127.566406 C 358.660156 125.722656 362.695312 123.957031 366.335938 122.265625 C 357.039062 125.589844 344.503906 130.433594 328.734375 136.792969 C 316.535156 141.648438 306.023438 146.0625 297.203125 150.035156 Z M 297.203125 150.035156 " fill-opacity="0.11" fill-rule="nonzero"/><path fill="#0f1d25" d="M 297.148438 159.652344 L 298.023438 159.363281 C 301.839844 158.023438 312.632812 153.390625 330.40625 145.46875 C 348.121094 137.640625 359.191406 132.546875 363.625 130.183594 C 354.664062 133.742188 342.605469 138.894531 327.441406 145.640625 C 315.707031 150.796875 305.609375 155.464844 297.148438 159.652344 Z M 297.148438 159.652344 " fill-opacity="0.11" fill-rule="nonzero"/><path fill="#0f1d25" d="M 298.921875 165.316406 L 299.777344 165.039062 C 303.511719 163.746094 314.078125 159.261719 331.46875 151.582031 C 348.800781 143.992188 359.632812 139.050781 363.96875 136.75 C 355.203125 140.1875 343.398438 145.175781 328.5625 151.71875 C 317.082031 156.714844 307.199219 161.246094 298.921875 165.316406 Z M 298.921875 165.316406 " fill-opacity="0.11" fill-rule="nonzero"/><path fill="#0f1d25" d="M 106.121094 127.867188 L 290.890625 130.457031 C 291.257812 130.460938 291.554688 130.765625 291.550781 131.136719 C 291.542969 131.503906 291.238281 131.800781 290.871094 131.792969 L 106.101562 129.203125 C 105.730469 129.199219 105.433594 128.894531 105.441406 128.523438 C 105.445312 128.15625 105.75 127.859375 106.121094 127.867188 Z M 106.121094 127.867188 " fill-opacity="0.353" fill-rule="nonzero"/><g clip-path="url(#3afb5989af)"><path fill="#1a3b40" d="M 286.945312 122.996094 L 292.828125 126.488281 C 294.878906 126.828125 296.855469 126.53125 298.761719 125.59375 C 307.429688 120.933594 332.765625 109.558594 374.765625 91.476562 L 374.949219 88.59375 L 350.851562 88.066406 L 285.867188 105.035156 Z M 286.945312 122.996094 " fill-opacity="1" fill-rule="nonzero"/></g><path fill="#faf2eb" d="M 274.628906 81.042969 L 368.132812 48.089844 C 368.214844 62.242188 368.292969 76.398438 368.375 90.550781 C 342.71875 101.5625 317.066406 112.574219 291.410156 123.585938 Z M 274.628906 81.042969 " fill-opacity="1" fill-rule="nonzero"/><path fill="#1a3b40" d="M 106.914062 78.925781 L 106.246094 80.429688 C 103.136719 86.863281 101.679688 92.742188 101.875 98.066406 C 101.878906 102.738281 104.1875 110.601562 108.800781 121.660156 L 294.601562 126.617188 C 291.378906 115.488281 289.90625 107.199219 290.183594 101.746094 C 290.128906 96.273438 291.929688 88.179688 295.597656 77.464844 Z M 106.914062 78.925781 " fill-opacity="1" fill-rule="nonzero"/><g clip-path="url(#6fe7b5c83f)"><path fill="#1a3b40" d="M 123.675781 107.582031 L 106.90625 78.945312 L 190.855469 45.308594 L 371.566406 46.628906 L 371.878906 50.015625 L 272.621094 90.863281 Z M 123.675781 107.582031 " fill-opacity="1" fill-rule="nonzero"/></g><path fill="#0f1d25" d="M 300.945312 85.277344 L 301.785156 85.035156 C 305.460938 83.898438 315.867188 79.863281 333.011719 72.929688 C 350.089844 66.078125 360.773438 61.601562 365.054688 59.496094 C 356.425781 62.558594 344.796875 67.042969 330.171875 72.949219 C 318.855469 77.453125 309.113281 81.5625 300.945312 85.277344 Z M 300.945312 85.277344 " fill-opacity="0.11" fill-rule="nonzero"/><path fill="#0f1d25" d="M 297.894531 92.921875 L 298.734375 92.683594 C 302.40625 91.558594 312.808594 87.558594 329.941406 80.683594 C 347.011719 73.886719 357.6875 69.445312 361.972656 67.351562 C 353.34375 70.386719 341.722656 74.832031 327.105469 80.691406 C 315.796875 85.15625 306.058594 89.234375 297.894531 92.921875 Z M 297.894531 92.921875 " fill-opacity="0.11" fill-rule="nonzero"/><path fill="#0f1d25" d="M 298.539062 101.0625 L 299.445312 100.796875 C 303.398438 99.554688 314.621094 95.199219 333.105469 87.726562 C 351.527344 80.359375 363.050781 75.546875 367.675781 73.292969 C 358.378906 76.617188 345.84375 81.460938 330.074219 87.820312 C 317.871094 92.675781 307.363281 97.089844 298.539062 101.0625 Z M 298.539062 101.0625 " fill-opacity="0.11" fill-rule="nonzero"/><path fill="#0f1d25" d="M 298.488281 110.679688 L 299.359375 110.394531 C 303.175781 109.050781 313.972656 104.417969 331.746094 96.496094 C 349.457031 88.671875 360.53125 83.574219 364.960938 81.210938 C 356.003906 84.769531 343.945312 89.921875 328.78125 96.667969 C 317.046875 101.824219 306.949219 106.496094 298.488281 110.679688 Z M 298.488281 110.679688 " fill-opacity="0.11" fill-rule="nonzero"/><path fill="#0f1d25" d="M 300.261719 116.34375 L 301.117188 116.066406 C 304.851562 114.773438 315.417969 110.289062 332.808594 102.609375 C 350.136719 95.019531 360.972656 90.078125 365.308594 87.78125 C 356.542969 91.214844 344.738281 96.203125 329.902344 102.746094 C 318.421875 107.742188 308.539062 112.273438 300.261719 116.34375 Z M 300.261719 116.34375 " fill-opacity="0.11" fill-rule="nonzero"/><path fill="#0f1d25" d="M 107.460938 78.894531 L 292.226562 81.484375 C 292.597656 81.488281 292.894531 81.792969 292.886719 82.164062 C 292.882812 82.53125 292.578125 82.828125 292.210938 82.820312 L 107.441406 80.230469 C 107.070312 80.226562 106.773438 79.921875 106.78125 79.550781 C 106.785156 79.183594 107.089844 78.886719 107.460938 78.894531 Z M 107.460938 78.894531 " fill-opacity="0.353" fill-rule="nonzero"/><path fill="#faf2eb" d="M 46.421875 128.835938 L 45.785156 128.839844 C 38.988281 128.890625 33.8125 129.15625 30.265625 129.636719 C 25.96875 130.125 21.792969 130.839844 17.738281 131.78125 C 13.992188 132.546875 10.523438 133.714844 7.332031 135.292969 L 3.398438 137.410156 L 3.285156 138.878906 C 3.300781 139.855469 3.5 140.820312 3.886719 141.78125 C 5.171875 144.171875 6.164062 145.59375 6.867188 146.054688 C 7.804688 146.992188 8.929688 147.921875 10.234375 148.84375 C 12.328125 150.335938 14 151.289062 15.253906 151.707031 C 23.597656 155.546875 34.046875 157.527344 46.601562 157.644531 C 50.726562 157.609375 53.996094 157.457031 56.40625 157.191406 C 60.378906 156.6875 63.25 156.269531 65.019531 155.9375 C 70.597656 154.675781 75.019531 153.238281 78.28125 151.636719 C 86.054688 147.820312 89.988281 143.445312 90.078125 138.507812 L 89.839844 136.78125 C 84.75 134.378906 80.1875 132.710938 76.160156 131.769531 C 71.5 130.675781 67.382812 129.96875 63.804688 129.644531 C 58.519531 129.183594 55.210938 128.957031 53.882812 128.964844 C 51.507812 128.878906 49.019531 128.835938 46.421875 128.835938 Z M 46.421875 128.835938 " fill-opacity="1" fill-rule="nonzero"/><path fill="#0f1d25" d="M 46.421875 128.835938 L 46.101562 128.835938 C 37.75 128.714844 29.316406 129.472656 20.800781 131.117188 C 15.925781 132.152344 12.691406 133 11.105469 133.664062 C 6.929688 135.382812 4.347656 136.703125 3.363281 137.621094 C 2.875 137.976562 5.375 139.527344 10.863281 142.273438 C 13.527344 143.359375 16.867188 144.511719 20.878906 145.726562 C 28.675781 147.707031 36.15625 148.753906 43.316406 148.863281 C 46.550781 148.84375 49.878906 148.769531 53.300781 148.636719 C 54.679688 148.542969 56.042969 148.425781 57.386719 148.28125 C 62.386719 147.691406 66.539062 146.945312 69.851562 146.039062 C 71.71875 145.625 74.632812 144.675781 78.59375 143.1875 C 84.621094 140.550781 88.386719 138.511719 89.902344 137.066406 C 90.304688 136.839844 87.308594 135.53125 80.914062 133.136719 C 79.523438 132.574219 76.621094 131.832031 72.210938 130.902344 C 65.414062 129.527344 56.820312 128.835938 46.421875 128.835938 Z M 46.421875 128.835938 " fill-opacity="0.427" fill-rule="nonzero"/><path fill="#a65c1d" d="M 3.617188 136.734375 C 7.800781 134.339844 12.097656 131.878906 18.152344 130.113281 C 24.183594 128.355469 31.910156 127.300781 40.859375 127.097656 C 41.972656 127.074219 43.101562 127.0625 44.242188 127.0625 C 52.269531 127.0625 60.78125 127.644531 66.3125 128.324219 C 72.691406 129.105469 75.167969 130.027344 78.390625 131.324219 C 81.535156 132.59375 85.445312 134.234375 89.347656 135.875 C 89.992188 136.144531 90.296875 136.890625 90.023438 137.535156 C 89.753906 138.179688 89.007812 138.484375 88.359375 138.210938 C 84.453125 136.570312 80.5625 134.9375 77.4375 133.675781 C 74.390625 132.449219 72.128906 131.59375 66.003906 130.84375 C 60.578125 130.175781 52.167969 129.601562 44.242188 129.601562 C 43.121094 129.601562 42.007812 129.613281 40.917969 129.636719 C 32.117188 129.832031 24.625 130.871094 18.863281 132.550781 C 13.128906 134.222656 9.058594 136.542969 4.878906 138.9375 C 4.269531 139.285156 3.496094 139.074219 3.144531 138.464844 C 2.796875 137.855469 3.007812 137.082031 3.617188 136.734375 Z M 3.617188 136.734375 " fill-opacity="1" fill-rule="nonzero"/><path fill="#a65c1d" d="M 83.296875 71.054688 C 83.296875 71.195312 83.289062 71.335938 83.273438 71.480469 L 69.566406 205.035156 C 69.332031 207.328125 67.277344 208.996094 64.984375 208.761719 C 62.6875 208.523438 61.015625 206.476562 61.253906 204.183594 L 74.960938 70.628906 L 74.9375 71.054688 C 74.9375 68.75 76.808594 66.878906 79.117188 66.878906 C 81.425781 66.878906 83.296875 68.75 83.296875 71.054688 Z M 83.296875 71.054688 " fill-opacity="1" fill-rule="nonzero"/><path fill="#a65c1d" d="M 65.539062 199.847656 L 61.300781 205.332031 C 61.636719 208.726562 61.898438 211.007812 62.082031 212.164062 C 62.316406 213.804688 62.59375 215.078125 62.925781 215.988281 L 63.183594 216.550781 L 63.472656 216.917969 L 63.8125 217.074219 L 64.1875 216.964844 C 64.425781 216.816406 64.683594 216.542969 64.957031 216.144531 C 65.910156 214.75 67.332031 211.449219 69.226562 206.25 L 65.539062 199.847656 " fill-opacity="1" fill-rule="nonzero"/><path fill="#1a3b40" d="M 75.402344 69.207031 C 76.039062 69.144531 76.714844 69.078125 77.492188 69.078125 C 78.035156 69.078125 78.625 69.109375 79.292969 69.195312 C 80.902344 69.402344 82.972656 69.917969 84.976562 70.421875 C 85.351562 70.511719 85.601562 70.863281 85.566406 71.246094 L 84.136719 87.757812 C 84.109375 88.089844 83.871094 88.367188 83.546875 88.449219 C 83.222656 88.53125 82.882812 88.398438 82.703125 88.117188 L 81.882812 86.859375 C 81.648438 86.496094 81.75 86.011719 82.113281 85.777344 C 82.476562 85.542969 82.960938 85.644531 83.195312 86.007812 L 84.015625 87.265625 L 82.578125 87.625 L 84.007812 71.113281 L 84.597656 71.9375 C 82.558594 71.429688 80.589844 70.9375 79.09375 70.746094 C 78.492188 70.667969 77.96875 70.640625 77.492188 70.640625 C 76.800781 70.640625 76.195312 70.699219 75.554688 70.761719 C 75.125 70.804688 74.742188 70.492188 74.699219 70.0625 C 74.65625 69.632812 74.972656 69.25 75.402344 69.207031 Z M 75.402344 69.207031 " fill-opacity="1" fill-rule="nonzero"/><path fill="#d9b6b0" d="M 57.457031 78.167969 L 57.441406 77.808594 L 69.019531 196.738281 C 69.21875 198.777344 67.722656 200.59375 65.675781 200.792969 C 63.632812 200.992188 61.816406 199.496094 61.617188 197.457031 L 50.039062 78.527344 C 50.027344 78.410156 50.019531 78.289062 50.019531 78.167969 C 50.019531 76.117188 51.683594 74.457031 53.738281 74.457031 C 55.792969 74.457031 57.457031 76.117188 57.457031 78.167969 Z M 57.457031 78.167969 " fill-opacity="1" fill-rule="nonzero"/><path fill="#1a3b40" d="M 50.171875 77.210938 C 51.105469 76.925781 52.09375 76.621094 53.566406 76.519531 C 54.03125 76.484375 54.542969 76.472656 55.078125 76.472656 C 56.210938 76.472656 57.484375 76.53125 58.738281 76.585938 C 59.082031 76.601562 59.363281 76.863281 59.398438 77.203125 L 61.0625 91.859375 C 61.097656 92.15625 60.9375 92.441406 60.671875 92.566406 C 60.402344 92.695312 60.082031 92.640625 59.875 92.425781 L 58.9375 91.472656 C 58.667969 91.199219 58.671875 90.757812 58.949219 90.488281 C 59.222656 90.21875 59.664062 90.222656 59.933594 90.5 L 60.867188 91.453125 L 59.679688 92.019531 L 58.015625 77.359375 L 58.675781 77.976562 C 57.414062 77.921875 56.171875 77.863281 55.078125 77.863281 C 54.5625 77.863281 54.089844 77.875 53.664062 77.90625 C 52.359375 78 51.496094 78.261719 50.582031 78.542969 C 50.210938 78.65625 49.824219 78.449219 49.710938 78.082031 C 49.597656 77.714844 49.804688 77.324219 50.171875 77.210938 Z M 50.171875 77.210938 " fill-opacity="1" fill-rule="nonzero"/><path fill="#1a3b40" d="M 100.625 81.078125 C 100.625 81.421875 100.582031 81.761719 100.5 82.09375 L 67.734375 213.367188 C 67.171875 215.617188 64.886719 216.988281 62.628906 216.429688 C 60.375 215.867188 59 213.585938 59.5625 211.332031 L 92.328125 80.0625 L 92.203125 81.078125 C 92.203125 78.753906 94.089844 76.875 96.414062 76.875 C 98.742188 76.875 100.625 78.753906 100.625 81.078125 Z M 100.625 81.078125 " fill-opacity="1" fill-rule="nonzero"/><path fill="#d9b6b0" d="M 92.972656 78.707031 C 94.078125 78.753906 95.246094 78.804688 96.855469 79.25 C 98.429688 79.683594 100.421875 80.496094 102.351562 81.28125 C 102.710938 81.429688 102.910156 81.8125 102.820312 82.191406 L 99.035156 98.457031 C 98.960938 98.785156 98.683594 99.027344 98.347656 99.0625 C 98.011719 99.097656 97.691406 98.914062 97.550781 98.609375 L 96.914062 97.238281 C 96.730469 96.84375 96.902344 96.375 97.300781 96.191406 C 97.695312 96.007812 98.164062 96.179688 98.347656 96.578125 L 98.984375 97.949219 L 97.496094 98.101562 L 101.285156 81.832031 L 101.753906 82.742188 C 99.792969 81.945312 97.898438 81.175781 96.433594 80.769531 C 95.007812 80.375 93.988281 80.328125 92.902344 80.28125 C 92.46875 80.261719 92.128906 79.894531 92.148438 79.460938 C 92.167969 79.023438 92.539062 78.6875 92.972656 78.707031 Z M 92.972656 78.707031 " fill-opacity="1" fill-rule="nonzero"/><path fill="#1a3b40" d="M 43.546875 54.984375 L 43.527344 54.589844 L 56.195312 188.0625 C 56.414062 190.355469 54.730469 192.386719 52.4375 192.605469 C 50.140625 192.824219 48.105469 191.140625 47.890625 188.851562 L 35.21875 55.375 C 35.207031 55.246094 35.199219 55.113281 35.199219 54.984375 C 35.199219 52.679688 37.070312 50.816406 39.371094 50.816406 C 41.675781 50.816406 43.546875 52.679688 43.546875 54.984375 Z M 43.546875 54.984375 " fill-opacity="1" fill-rule="nonzero"/><path fill="#d9b6b0" d="M 35.375 53.898438 C 36.421875 53.582031 37.53125 53.242188 39.183594 53.128906 C 39.683594 53.09375 40.226562 53.082031 40.792969 53.082031 C 42.085938 53.082031 43.550781 53.152344 44.988281 53.222656 C 45.371094 53.238281 45.683594 53.535156 45.726562 53.914062 L 47.554688 70.367188 C 47.589844 70.695312 47.414062 71.015625 47.109375 71.15625 C 46.808594 71.300781 46.449219 71.234375 46.21875 70.996094 L 45.167969 69.921875 C 44.867188 69.613281 44.875 69.121094 45.183594 68.820312 C 45.492188 68.519531 45.988281 68.523438 46.289062 68.832031 L 47.335938 69.90625 L 46 70.539062 L 44.171875 54.085938 L 44.914062 54.78125 C 43.464844 54.710938 42.039062 54.644531 40.792969 54.644531 C 40.246094 54.644531 39.742188 54.65625 39.289062 54.6875 C 37.824219 54.789062 36.859375 55.082031 35.828125 55.394531 C 35.414062 55.519531 34.976562 55.285156 34.851562 54.871094 C 34.726562 54.460938 34.960938 54.023438 35.375 53.898438 Z M 35.375 53.898438 " fill-opacity="1" fill-rule="nonzero"/><path fill="#0f1d25" d="M 12.988281 93.511719 L 12.859375 92.382812 L 47.15625 243.054688 C 47.78125 245.789062 46.0625 248.511719 43.324219 249.136719 C 40.582031 249.757812 37.859375 248.042969 37.234375 245.308594 L 2.9375 94.636719 C 2.851562 94.265625 2.8125 93.890625 2.8125 93.511719 C 2.8125 90.703125 5.089844 88.429688 7.898438 88.429688 C 10.707031 88.429688 12.988281 90.703125 12.988281 93.511719 Z M 12.988281 93.511719 " fill-opacity="1" fill-rule="nonzero"/><g clip-path="url(#55e544d219)"><path fill="#1a3b40" d="M 12.152344 92.589844 C 10.839844 92.632812 9.609375 92.675781 7.878906 93.136719 C 6.105469 93.609375 3.804688 94.515625 1.429688 95.457031 L 2.007812 94.363281 L 6.386719 114.0625 L 4.59375 113.859375 L 5.378906 112.210938 C 5.605469 111.734375 6.171875 111.53125 6.648438 111.757812 C 7.125 111.984375 7.328125 112.550781 7.101562 113.027344 L 6.316406 114.675781 C 6.140625 115.042969 5.75 115.261719 5.347656 115.214844 C 4.941406 115.167969 4.613281 114.871094 4.523438 114.476562 L 0.144531 94.777344 C 0.046875 94.320312 0.289062 93.855469 0.726562 93.683594 C 3.0625 92.761719 5.480469 91.800781 7.386719 91.296875 C 9.335938 90.777344 10.75 90.730469 12.085938 90.6875 C 12.613281 90.667969 13.054688 91.078125 13.070312 91.605469 C 13.089844 92.132812 12.675781 92.570312 12.152344 92.589844 Z M 12.152344 92.589844 " fill-opacity="1" fill-rule="nonzero"/></g><path fill="#faf2eb" d="M 34.601562 73.648438 L 34.601562 73.53125 L 38.132812 223.976562 C 38.195312 226.710938 36.03125 228.976562 33.292969 229.039062 C 30.558594 229.105469 28.289062 226.941406 28.222656 224.210938 L 24.695312 73.765625 C 24.691406 73.726562 24.691406 73.6875 24.691406 73.648438 C 24.691406 70.914062 26.910156 68.699219 29.648438 68.699219 C 32.382812 68.699219 34.601562 70.914062 34.601562 73.648438 Z M 34.601562 73.648438 " fill-opacity="1" fill-rule="nonzero"/><path fill="#d9b6b0" d="M 33.882812 73.589844 C 32.855469 73.417969 31.890625 73.257812 30.636719 73.257812 C 30.34375 73.257812 30.03125 73.269531 29.699219 73.289062 C 27.914062 73.394531 25.546875 73.816406 23.09375 74.253906 L 23.859375 73.324219 L 24.21875 92.972656 L 22.546875 92.433594 L 23.617188 91.011719 C 23.925781 90.601562 24.507812 90.515625 24.917969 90.824219 C 25.328125 91.132812 25.410156 91.714844 25.101562 92.125 L 24.03125 93.546875 C 23.796875 93.863281 23.382812 93.996094 23.003906 93.871094 C 22.628906 93.75 22.367188 93.402344 22.363281 93.007812 L 22.003906 73.359375 C 21.992188 72.902344 22.320312 72.507812 22.765625 72.429688 C 25.179688 71.996094 27.671875 71.550781 29.589844 71.4375 C 29.957031 71.414062 30.304688 71.402344 30.636719 71.402344 C 32.0625 71.402344 33.160156 71.589844 34.191406 71.761719 C 34.695312 71.847656 35.039062 72.324219 34.953125 72.828125 C 34.867188 73.335938 34.390625 73.675781 33.882812 73.589844 Z M 33.882812 73.589844 " fill-opacity="1" fill-rule="nonzero"/><g clip-path="url(#8eb2ebfd13)"><path fill="#faf2eb" d="M 47.140625 215.792969 L 46.886719 215.792969 C 39.019531 216.082031 33.136719 216.644531 29.238281 217.492188 C 24.617188 218.359375 20.53125 219.550781 16.988281 221.066406 C 13.042969 222.640625 9.457031 225.039062 6.234375 228.265625 C 4.371094 230.9375 3.492188 233.320312 3.597656 235.40625 C 3.902344 240.820312 8.851562 245.484375 18.4375 249.398438 C 25.980469 252.492188 35.78125 254.054688 47.84375 254.09375 C 60.535156 254.035156 71.378906 251.722656 80.378906 247.152344 C 84.140625 245.3125 87.167969 242.449219 89.46875 238.574219 L 89.851562 237.652344 L 89.851562 232.511719 C 88.652344 229.699219 87.347656 227.699219 85.9375 226.515625 C 83.640625 224.394531 80.023438 222.351562 75.089844 220.390625 C 72.660156 219.371094 68.839844 218.320312 63.617188 217.238281 C 58.738281 216.386719 53.246094 215.90625 47.140625 215.792969 Z M 47.140625 215.792969 " fill-opacity="1" fill-rule="nonzero"/></g><path fill="#faf2eb" d="M 89.851562 136.328125 L 88.714844 137.101562 C 84.007812 139.820312 78.523438 141.9375 72.261719 143.460938 C 69.132812 144.222656 65.808594 144.832031 62.292969 145.292969 C 53.15625 146.183594 47.441406 146.539062 45.148438 146.355469 C 37.398438 146.296875 30.351562 145.722656 24.011719 144.632812 C 22.207031 144.523438 17.847656 143.417969 10.941406 141.316406 C 8.300781 140.390625 5.839844 139.332031 3.554688 138.144531 L 3.554688 236.238281 L 89.851562 236.238281 Z M 89.851562 136.328125 " fill-opacity="1" fill-rule="nonzero"/><g clip-path="url(#0d6a69d3bf)"><path fill="#a65c1d" d="M 89.851562 166.332031 L 89.417969 168.6875 C 84.960938 191.917969 78.308594 210.75 69.464844 225.179688 C 64.269531 232.910156 59.667969 238.277344 55.664062 241.285156 C 51.28125 245.0625 44.550781 249.105469 35.46875 253.414062 L 44.46875 254.335938 L 51.21875 254.015625 C 59.160156 253.582031 65.191406 252.75 69.320312 251.515625 C 76.320312 249.285156 80.949219 247.292969 83.207031 245.542969 C 85.539062 243.894531 87.753906 241.371094 89.851562 237.96875 Z M 89.851562 166.332031 " fill-opacity="0.129" fill-rule="nonzero"/></g><path fill="#a65c1d" d="M 4.683594 136.742188 C 11.820312 139.851562 18.832031 142.90625 30.042969 144.273438 C 34.800781 144.851562 40.328125 145.128906 45.925781 145.128906 C 53.566406 145.128906 61.285156 144.613281 67.300781 143.664062 C 77.652344 142.035156 82.988281 139.125 88.425781 136.164062 C 89.042969 135.828125 89.8125 136.054688 90.148438 136.667969 C 90.484375 137.285156 90.257812 138.054688 89.644531 138.390625 C 84.109375 141.40625 78.472656 144.476562 67.695312 146.171875 C 61.515625 147.144531 53.660156 147.667969 45.925781 147.667969 C 40.253906 147.667969 34.617188 147.386719 29.734375 146.792969 C 18.140625 145.378906 10.84375 142.195312 3.667969 139.066406 C 3.023438 138.785156 2.730469 138.039062 3.011719 137.398438 C 3.292969 136.753906 4.039062 136.460938 4.683594 136.742188 Z M 4.683594 136.742188 " fill-opacity="1" fill-rule="nonzero"/></svg>