<svg xmlns="http://www.w3.org/2000/svg" xmlns:xlink="http://www.w3.org/1999/xlink" width="500" zoomAndPan="magnify" viewBox="0 0 375 307.91998" height="400" preserveAspectRatio="xMidYMid meet" version="1.0"><defs><clipPath id="42c6205ad1"><path d="M 0.046875 0 L 374.949219 0 L 374.949219 299.921875 L 0.046875 299.921875 Z M 0.046875 0 " clip-rule="nonzero"/></clipPath><clipPath id="ba73683fe6"><path d="M 45 14 L 332 14 L 332 299.921875 L 45 299.921875 Z M 45 14 " clip-rule="nonzero"/></clipPath><clipPath id="7c0a18c169"><path d="M 45 190 L 328 190 L 328 299.921875 L 45 299.921875 Z M 45 190 " clip-rule="nonzero"/></clipPath><clipPath id="a2efc106d0"><path d="M 50 213 L 324 213 L 324 299.921875 L 50 299.921875 Z M 50 213 " clip-rule="nonzero"/></clipPath></defs><g clip-path="url(#42c6205ad1)"><path fill="#ffffff" d="M 0.046875 0 L 374.953125 0 L 374.953125 299.921875 L 0.046875 299.921875 Z M 0.046875 0 " fill-opacity="1" fill-rule="nonzero"/><path fill="#ffffff" d="M 0.046875 0 L 374.953125 0 L 374.953125 299.921875 L 0.046875 299.921875 Z M 0.046875 0 " fill-opacity="1" fill-rule="nonzero"/></g><g clip-path="url(#ba73683fe6)"><path fill="#afd4eb" d="M 182.539062 17.308594 C 174.15625 19.546875 166.480469 22.945312 159.464844 27.160156 C 88.972656 27.75 38.183594 89.652344 48.011719 152.121094 C 48.011719 152.121094 49.667969 163.703125 55.09375 180.378906 C 34.679688 225.691406 42.75 267.730469 118.199219 279.324219 C 122.585938 280 126.957031 280.574219 131.3125 281.050781 C 151.628906 292.527344 176.746094 299.917969 207.730469 299.917969 C 266.875 299.917969 329.570312 248.511719 327.664062 181.398438 C 329.535156 173.675781 330.691406 165.53125 331.074219 156.96875 C 335.320312 61.804688 247.378906 0.0078125 182.539062 17.308594 Z M 182.539062 17.308594 " fill-opacity="1" fill-rule="nonzero"/></g><path fill="#6e9745" d="M 276.402344 162.859375 C 276.402344 162.859375 317.972656 141.070312 329.289062 121.800781 C 340.601562 102.53125 299.566406 119.792969 276.402344 162.859375 Z M 276.402344 162.859375 " fill-opacity="1" fill-rule="nonzero"/><path fill="#0f3d61" d="M 276.402344 162.859375 C 276.507812 162.664062 276.621094 162.476562 276.726562 162.277344 C 280.890625 158.394531 285.105469 154.523438 289.363281 150.671875 C 290.59375 146.765625 292.398438 143.035156 294.769531 139.703125 C 293.113281 142.894531 291.683594 146.183594 290.589844 149.570312 C 294.449219 146.085938 298.335938 142.628906 302.234375 139.191406 C 303.46875 135.207031 305.035156 131.324219 306.972656 127.644531 C 305.707031 131.117188 304.511719 134.597656 303.457031 138.109375 C 306.832031 135.140625 310.214844 132.183594 313.597656 129.253906 C 314.835938 125.652344 316.554688 122.195312 318.84375 119.148438 C 317.328125 122.042969 316.027344 125.015625 314.953125 128.054688 C 314.96875 128.050781 314.980469 128.046875 314.992188 128.046875 C 320.199219 123.542969 325.398438 119.09375 330.554688 114.71875 C 326.269531 118.675781 321.445312 123.0625 316.347656 127.664062 C 319.320312 126.835938 322.273438 125.953125 325.214844 124.984375 C 323.535156 125.964844 321.742188 126.734375 319.929688 127.429688 C 318.296875 128.03125 316.621094 128.519531 314.925781 128.949219 C 311.441406 132.085938 307.839844 135.316406 304.1875 138.574219 L 314.933594 135.71875 C 312.984375 136.65625 310.957031 137.394531 308.917969 138.09375 C 306.902344 138.753906 304.859375 139.320312 302.796875 139.820312 C 299.113281 143.109375 295.394531 146.414062 291.710938 149.6875 C 294.875 148.449219 298.601562 146.996094 301.394531 145.980469 C 297.730469 148.140625 293.839844 149.855469 289.855469 151.332031 C 285.648438 155.070312 281.507812 158.738281 277.539062 162.25 C 276.8125 162.644531 276.402344 162.859375 276.402344 162.859375 Z M 276.402344 162.859375 " fill-opacity="1" fill-rule="nonzero"/><path fill="#ecbe43" d="M 291.679688 72.890625 C 291.679688 72.890625 301.914062 113.191406 272.40625 143.703125 C 272.40625 143.703125 267.863281 127.367188 280.027344 109.003906 C 289.960938 94.011719 290.730469 85.429688 291.679688 72.890625 Z M 291.679688 72.890625 " fill-opacity="1" fill-rule="nonzero"/><path fill="#6e9745" d="M 274.652344 155.371094 C 274.652344 155.371094 245.945312 92.136719 264.410156 80.25 C 282.878906 68.363281 283.453125 134.28125 274.652344 155.371094 Z M 274.652344 155.371094 " fill-opacity="1" fill-rule="nonzero"/><path fill="#ecbe43" d="M 277.203125 162.441406 C 277.203125 162.441406 296.210938 134.0625 328.796875 140.609375 C 328.796875 140.609375 314.671875 141.398438 307.300781 151.253906 C 298.824219 162.582031 283.820312 164.789062 277.203125 162.441406 Z M 277.203125 162.441406 " fill-opacity="1" fill-rule="nonzero"/><path fill="#0f3d61" d="M 273.878906 153.617188 C 273.214844 147.25 272.578125 140.792969 271.984375 134.285156 C 269.566406 130.636719 267.515625 126.753906 266.015625 122.660156 C 267.90625 125.710938 269.777344 128.746094 271.753906 131.6875 C 271.363281 127.304688 270.992188 122.914062 270.640625 118.519531 C 268.214844 114.863281 266.15625 110.96875 264.648438 106.863281 C 266.558594 109.9375 268.441406 112.996094 270.4375 115.957031 C 270.042969 110.984375 269.667969 106.023438 269.328125 101.097656 C 267.332031 97.761719 265.515625 94.320312 264.082031 90.699219 C 265.847656 93.25 267.503906 95.847656 269.152344 98.441406 C 268.710938 91.832031 268.308594 85.285156 267.972656 78.894531 C 268.703125 85.265625 269.394531 91.800781 270.054688 98.40625 L 273.832031 89.78125 C 273.617188 91.722656 273.167969 93.636719 272.566406 95.484375 C 271.960938 97.351562 271.175781 99.171875 270.3125 100.949219 C 270.765625 105.582031 271.195312 110.253906 271.609375 114.933594 C 272.878906 111.820312 274.269531 108.753906 275.941406 105.800781 C 274.917969 109.929688 273.449219 113.886719 271.859375 117.792969 C 272.234375 122.136719 272.597656 126.484375 272.9375 130.828125 C 274.21875 127.683594 275.617188 124.582031 277.308594 121.597656 C 276.269531 125.773438 274.78125 129.777344 273.167969 133.730469 C 273.722656 141.011719 274.214844 148.242188 274.648438 155.363281 C 274.632812 155.328125 274.351562 154.710938 273.878906 153.617188 Z M 273.878906 153.617188 " fill-opacity="1" fill-rule="nonzero"/><path fill="#8cb63e" d="M 278.949219 159.207031 C 278.949219 159.207031 266.210938 143.78125 270.277344 133.117188 C 273.796875 123.894531 280.875 126.765625 282.847656 121.5 C 285.09375 115.496094 279.324219 110.332031 291.425781 104.164062 C 302.203125 98.671875 298.804688 90.792969 304.402344 90.066406 C 306.421875 89.804688 308.46875 90.722656 309.691406 92.347656 C 313.019531 96.765625 307.734375 101 310.042969 113.175781 C 312.636719 126.832031 305.605469 125.375 302.613281 130.792969 C 300.429688 134.742188 305.980469 140.007812 300.398438 148.894531 C 294.589844 158.128906 278.949219 159.207031 278.949219 159.207031 Z M 278.949219 159.207031 " fill-opacity="1" fill-rule="nonzero"/><path fill="#0f3d61" d="M 283.503906 147.726562 C 281.375 142.710938 279.804688 137.496094 278.609375 132.1875 C 280.203125 136.269531 282.347656 141.964844 284.207031 146.214844 C 286.085938 142.183594 287.882812 138.257812 289.613281 134.402344 C 288.722656 130.289062 288.070312 126.128906 287.746094 121.929688 C 288.578125 124.976562 289.570312 129.0625 290.4375 132.5625 C 292.3125 128.347656 294.109375 124.207031 295.835938 120.089844 C 294.597656 116.335938 294.320312 112.359375 294.132812 108.433594 C 294.992188 111.671875 295.625 115.078125 296.59375 118.273438 C 300.40625 109.097656 303.898438 100.011719 307.21875 90.464844 C 307.195312 90.566406 304.433594 101.007812 297.953125 117.828125 C 301.0625 115.136719 305.40625 111.429688 307.824219 109.410156 C 304.714844 113.550781 300.890625 117.066406 296.949219 120.398438 C 295.34375 124.488281 293.523438 128.921875 291.488281 133.640625 L 296.4375 130.042969 C 298.570312 128.503906 300.65625 126.921875 302.691406 125.21875 C 299.433594 129.433594 295.144531 132.707031 290.796875 135.734375 C 290.796875 135.734375 290.636719 135.839844 290.492188 135.9375 C 289.058594 139.214844 287.519531 142.621094 285.875 146.144531 C 290.132812 143.925781 294.277344 141.492188 298.304688 138.835938 C 296.351562 140.855469 294.117188 142.585938 291.800781 144.175781 C 289.621094 145.628906 287.34375 146.933594 284.972656 148.070312 C 283.277344 151.65625 281.476562 155.355469 279.558594 159.152344 C 279.175781 159.191406 278.949219 159.207031 278.949219 159.207031 C 278.949219 159.207031 278.746094 158.960938 278.398438 158.511719 C 280.167969 154.816406 281.863281 151.234375 283.503906 147.726562 Z M 283.503906 147.726562 " fill-opacity="1" fill-rule="nonzero"/><path fill="#ffffff" d="M 68.585938 88.460938 C 68.585938 88.460938 71.433594 72.238281 91 77.53125 C 91 77.53125 88.667969 70.191406 95.449219 65.394531 C 102.230469 60.59375 108.730469 64.972656 110.285156 66.945312 C 110.285156 66.945312 115.957031 50.574219 134.464844 53 C 154.832031 55.667969 152.941406 75.484375 152.941406 75.484375 C 152.941406 75.484375 167.664062 70.171875 168.339844 88.460938 Z M 68.585938 88.460938 " fill-opacity="1" fill-rule="nonzero"/><path fill="#ffffff" d="M 295.347656 70.382812 C 295.347656 70.382812 291.902344 50.746094 268.214844 57.152344 C 268.214844 57.152344 271.035156 48.265625 262.824219 42.457031 C 254.617188 36.648438 246.75 41.945312 244.867188 44.335938 C 244.867188 44.335938 238 24.515625 215.589844 27.453125 C 190.933594 30.679688 193.21875 54.671875 193.21875 54.671875 C 193.21875 54.671875 175.398438 48.242188 174.578125 70.382812 Z M 295.347656 70.382812 " fill-opacity="1" fill-rule="nonzero"/><path fill="#6e9745" d="M 100.28125 162.859375 C 100.28125 162.859375 58.707031 141.070312 47.394531 121.800781 C 36.082031 102.53125 77.117188 119.792969 100.28125 162.859375 Z M 100.28125 162.859375 " fill-opacity="1" fill-rule="nonzero"/><path fill="#0f3d61" d="M 100.28125 162.859375 C 100.171875 162.664062 100.0625 162.476562 99.953125 162.277344 C 95.792969 158.394531 91.578125 154.523438 87.320312 150.671875 C 86.085938 146.765625 84.285156 143.035156 81.914062 139.703125 C 83.570312 142.894531 85 146.183594 86.089844 149.570312 C 82.234375 146.085938 78.347656 142.628906 74.445312 139.191406 C 73.210938 135.207031 71.648438 131.324219 69.710938 127.644531 C 70.976562 131.117188 72.171875 134.597656 73.222656 138.109375 C 69.847656 135.140625 66.46875 132.183594 63.085938 129.253906 C 61.84375 125.652344 60.125 122.195312 57.835938 119.148438 C 59.351562 122.042969 60.652344 125.015625 61.726562 128.054688 C 61.714844 128.050781 61.703125 128.046875 61.691406 128.046875 C 56.484375 123.542969 51.28125 119.09375 46.125 114.71875 C 50.414062 118.675781 55.234375 123.0625 60.332031 127.664062 C 57.363281 126.835938 54.40625 125.953125 51.46875 124.984375 C 53.148438 125.964844 54.9375 126.734375 56.753906 127.429688 C 58.386719 128.03125 60.0625 128.519531 61.757812 128.949219 C 65.238281 132.085938 68.84375 135.316406 72.492188 138.574219 L 61.75 135.71875 C 63.695312 136.65625 65.726562 137.394531 67.765625 138.09375 C 69.777344 138.753906 71.824219 139.320312 73.882812 139.820312 C 77.570312 143.109375 81.285156 146.414062 84.972656 149.6875 C 81.808594 148.449219 78.082031 146.996094 75.289062 145.980469 C 78.949219 148.140625 82.84375 149.855469 86.824219 151.332031 C 91.035156 155.070312 95.175781 158.738281 99.144531 162.25 C 99.871094 162.644531 100.28125 162.859375 100.28125 162.859375 Z M 100.28125 162.859375 " fill-opacity="1" fill-rule="nonzero"/><path fill="#ecbe43" d="M 85.003906 72.890625 C 85.003906 72.890625 74.769531 113.191406 104.273438 143.703125 C 104.273438 143.703125 108.820312 127.367188 96.65625 109.003906 C 86.722656 94.011719 85.953125 85.429688 85.003906 72.890625 Z M 85.003906 72.890625 " fill-opacity="1" fill-rule="nonzero"/><path fill="#6e9745" d="M 102.03125 155.371094 C 102.03125 155.371094 130.738281 92.136719 112.269531 80.25 C 93.800781 68.363281 93.230469 134.28125 102.03125 155.371094 Z M 102.03125 155.371094 " fill-opacity="1" fill-rule="nonzero"/><path fill="#ecbe43" d="M 99.476562 162.441406 C 99.476562 162.441406 80.472656 134.0625 47.886719 140.609375 C 47.886719 140.609375 62.007812 141.398438 69.382812 151.253906 C 77.855469 162.582031 92.863281 164.789062 99.476562 162.441406 Z M 99.476562 162.441406 " fill-opacity="1" fill-rule="nonzero"/><path fill="#0f3d61" d="M 102.800781 153.617188 C 103.46875 147.25 104.105469 140.792969 104.695312 134.285156 C 107.113281 130.636719 109.164062 126.753906 110.667969 122.660156 C 108.773438 125.710938 106.90625 128.746094 104.925781 131.6875 C 105.316406 127.304688 105.6875 122.914062 106.042969 118.519531 C 108.46875 114.863281 110.527344 110.96875 112.03125 106.863281 C 110.125 109.9375 108.242188 112.996094 106.246094 115.957031 C 106.636719 110.984375 107.011719 106.023438 107.351562 101.097656 C 109.351562 97.761719 111.164062 94.320312 112.601562 90.699219 C 110.832031 93.25 109.179688 95.847656 107.527344 98.441406 C 107.972656 91.832031 108.371094 85.285156 108.710938 78.894531 C 108.707031 78.894531 108.707031 78.894531 108.707031 78.894531 C 107.980469 85.265625 107.285156 91.800781 106.628906 98.40625 L 102.851562 89.78125 C 103.0625 91.722656 103.515625 93.636719 104.117188 95.484375 C 104.722656 97.351562 105.503906 99.171875 106.371094 100.949219 C 105.917969 105.582031 105.488281 110.253906 105.070312 114.933594 C 103.800781 111.820312 102.410156 108.753906 100.738281 105.800781 C 101.761719 109.929688 103.230469 113.886719 104.824219 117.792969 C 104.445312 122.136719 104.085938 126.484375 103.746094 130.828125 C 102.464844 127.683594 101.0625 124.582031 99.375 121.597656 C 100.410156 125.773438 101.902344 129.777344 103.515625 133.730469 C 102.960938 141.011719 102.46875 148.242188 102.035156 155.363281 C 102.050781 155.328125 102.328125 154.710938 102.804688 153.617188 Z M 102.800781 153.617188 " fill-opacity="1" fill-rule="nonzero"/><path fill="#8cb63e" d="M 97.734375 159.207031 C 97.734375 159.207031 110.472656 143.78125 106.40625 133.117188 C 102.882812 123.894531 95.804688 126.765625 93.835938 121.5 C 91.585938 115.496094 97.359375 110.332031 85.253906 104.164062 C 74.480469 98.671875 77.878906 90.792969 72.28125 90.066406 C 70.257812 89.804688 68.214844 90.722656 66.988281 92.347656 C 63.660156 96.765625 68.949219 101 66.636719 113.175781 C 64.042969 126.832031 71.078125 125.375 74.070312 130.792969 C 76.25 134.742188 70.703125 140.007812 76.285156 148.894531 C 82.089844 158.128906 97.734375 159.207031 97.734375 159.207031 Z M 97.734375 159.207031 " fill-opacity="1" fill-rule="nonzero"/><path fill="#0f3d61" d="M 93.179688 147.726562 C 95.304688 142.710938 96.875 137.496094 98.070312 132.1875 C 96.476562 136.269531 94.335938 141.964844 92.472656 146.214844 C 90.597656 142.183594 88.796875 138.257812 87.070312 134.402344 C 87.960938 130.289062 88.613281 126.128906 88.9375 121.929688 C 88.101562 124.976562 87.109375 129.0625 86.246094 132.5625 C 84.371094 128.347656 82.574219 124.207031 80.847656 120.089844 C 82.085938 116.335938 82.359375 112.359375 82.546875 108.433594 C 81.691406 111.671875 81.054688 115.078125 80.089844 118.273438 C 76.273438 109.097656 72.78125 100.011719 69.460938 90.464844 C 69.488281 90.566406 72.25 101.007812 78.730469 117.828125 C 75.621094 115.136719 71.277344 111.429688 68.859375 109.410156 C 71.96875 113.550781 75.789062 117.066406 79.730469 120.398438 C 81.339844 124.488281 83.15625 128.921875 85.191406 133.640625 L 80.246094 130.042969 C 78.109375 128.503906 76.023438 126.921875 73.992188 125.21875 C 77.246094 129.433594 81.539062 132.707031 85.886719 135.734375 C 85.886719 135.734375 86.046875 135.839844 86.191406 135.9375 C 87.625 139.214844 89.164062 142.621094 90.808594 146.144531 C 86.550781 143.925781 82.402344 141.492188 78.378906 138.835938 C 80.332031 140.855469 82.566406 142.585938 84.878906 144.175781 C 87.0625 145.628906 89.335938 146.933594 91.710938 148.070312 C 93.40625 151.65625 95.207031 155.355469 97.125 159.152344 C 97.503906 159.191406 97.734375 159.207031 97.734375 159.207031 C 97.734375 159.207031 97.9375 158.960938 98.28125 158.511719 C 96.511719 154.816406 94.820312 151.234375 93.179688 147.726562 Z M 93.179688 147.726562 " fill-opacity="1" fill-rule="nonzero"/><path fill="#8bc2ec" d="M 323.636719 213.019531 C 326.511719 202.980469 327.972656 192.371094 327.648438 181.324219 C 329.511719 173.617188 330.691406 165.507812 331.074219 156.96875 C 331.144531 155.398438 331.121094 153.863281 331.140625 152.3125 C 289.945312 149.90625 236.800781 158.441406 197.074219 154.953125 C 163.070312 151.96875 139.867188 153.875 107.09375 151.226562 C 74.625 148.601562 48.011719 152.121094 48.011719 152.121094 C 48.011719 152.121094 49.671875 163.714844 55.101562 180.402344 C 50.054688 191.613281 46.757812 202.621094 45.785156 213.019531 Z M 323.636719 213.019531 " fill-opacity="1" fill-rule="nonzero"/><path fill="#bcdbf2" d="M 207.148438 163.648438 C 180.671875 166.316406 161.167969 167.523438 128.449219 161.722656 C 104.070312 157.402344 69.039062 156.257812 48.6875 155.96875 C 49.039062 157.785156 49.542969 160.195312 50.230469 163.105469 C 86.136719 161.488281 162.660156 171.066406 189.796875 171.066406 C 209.71875 171.066406 278.117188 167.292969 284.613281 167.003906 C 301.496094 166.257812 316.117188 169.539062 329.148438 174.082031 C 330 169.339844 330.589844 164.441406 330.90625 159.398438 C 286.382812 156.230469 231.769531 161.164062 207.148438 163.648438 Z M 207.148438 163.648438 " fill-opacity="1" fill-rule="nonzero"/><path fill="#bcdbf2" d="M 168.339844 178.710938 C 117.640625 173.898438 75.941406 174.128906 53.375 174.847656 C 53.90625 176.628906 54.476562 178.476562 55.101562 180.402344 C 91.976562 176.40625 156.953125 180.605469 175.957031 182.179688 C 194.957031 183.757812 267.828125 184.464844 277.402344 182.179688 C 286.976562 179.898438 327.648438 181.324219 327.648438 181.324219 C 285.480469 175.78125 245.3125 186.019531 168.339844 178.710938 Z M 168.339844 178.710938 " fill-opacity="1" fill-rule="nonzero"/><path fill="#ebebeb" d="M 152.195312 81.894531 C 149.648438 78.1875 142.472656 80.378906 142.472656 80.378906 C 142.472656 80.378906 148.441406 71.503906 142.472656 63.097656 C 136.503906 54.691406 118.585938 52.6875 110.285156 66.945312 C 110.285156 66.945312 115.957031 50.574219 134.464844 53 C 154.832031 55.667969 152.941406 75.484375 152.941406 75.484375 C 152.941406 75.484375 167.664062 70.171875 168.339844 88.460938 L 151.761719 88.460938 C 151.761719 88.460938 154.476562 85.214844 152.195312 81.894531 Z M 152.195312 81.894531 " fill-opacity="1" fill-rule="nonzero"/><path fill="#bcdbf2" d="M 192.667969 192.992188 C 121.148438 182.75 65.214844 183.363281 53.488281 184.144531 C 49.355469 194.058594 46.648438 203.78125 45.785156 213.019531 L 323.636719 213.019531 C 326.136719 204.296875 327.5625 195.140625 327.679688 185.644531 C 279.886719 183.335938 230.734375 198.445312 192.667969 192.992188 Z M 192.667969 192.992188 " fill-opacity="1" fill-rule="nonzero"/><g clip-path="url(#7c0a18c169)"><path fill="#bf8100" d="M 327.09375 195.21875 C 254.972656 191.570312 225.566406 207.578125 170.824219 197.667969 C 103.425781 185.46875 55.476562 192.464844 50.054688 193.332031 C 36.878906 233.492188 50.007812 268.84375 118.199219 279.324219 C 122.578125 280 126.933594 280.535156 131.277344 281.011719 C 151.605469 292.503906 176.722656 299.917969 207.730469 299.917969 C 262.738281 299.917969 320.777344 255.4375 327.09375 195.21875 Z M 327.09375 195.21875 " fill-opacity="1" fill-rule="nonzero"/></g><g clip-path="url(#a2efc106d0)"><path fill="#ac6600" d="M 250.46875 253.957031 C 205.128906 257.359375 209.171875 245.234375 144.125 251.441406 C 106.066406 255.070312 85.964844 263.328125 50.273438 241.601562 C 58.90625 259.664062 79.839844 273.429688 118.199219 279.324219 C 122.578125 280 126.933594 280.535156 131.277344 281.011719 C 151.605469 292.503906 176.722656 299.917969 207.730469 299.917969 C 257.160156 299.917969 309.039062 263.996094 323.636719 213.019531 C 323.636719 213.019531 294.363281 250.660156 250.46875 253.957031 Z M 250.46875 253.957031 " fill-opacity="1" fill-rule="nonzero"/></g><path fill="#ebebeb" d="M 198.203125 36.765625 C 201.703125 33.5 206.234375 31.070312 211.835938 30.335938 C 234.246094 27.402344 240.445312 48.753906 240.445312 48.753906 C 242.328125 46.363281 250.195312 41.066406 258.402344 46.875 C 266.613281 52.683594 263.792969 61.570312 263.792969 61.570312 C 280.019531 57.179688 286.746094 65.015625 289.375 70.382812 L 295.347656 70.382812 C 295.347656 70.382812 291.902344 50.746094 268.214844 57.152344 C 268.214844 57.152344 271.035156 48.265625 262.824219 42.457031 C 254.617188 36.648438 246.75 41.945312 244.867188 44.335938 C 244.867188 44.335938 238 24.515625 215.589844 27.453125 C 206.820312 28.601562 201.46875 32.378906 198.203125 36.765625 Z M 198.203125 36.765625 " fill-opacity="1" fill-rule="nonzero"/><path fill="#ffffff" d="M 197.699219 270.140625 C 197.699219 270.140625 195.484375 275.15625 187.027344 271.179688 C 178.570312 267.203125 171.851562 269.828125 183.292969 276.660156 C 194.738281 283.496094 195.960938 289.398438 203.421875 288.40625 C 210.882812 287.410156 220.585938 279.832031 217.101562 274.488281 C 213.621094 269.144531 193.65625 257.417969 191.171875 261.765625 C 188.683594 266.117188 200.0625 266.785156 197.699219 270.140625 Z M 197.699219 270.140625 " fill-opacity="1" fill-rule="nonzero"/><path fill="#c4c4c4" d="M 186.289062 273.164062 C 186.289062 273.164062 181.742188 270.433594 181.394531 272.628906 C 181.042969 274.820312 188.835938 277.234375 190.046875 276.003906 C 191.257812 274.769531 186.289062 273.164062 186.289062 273.164062 Z M 186.289062 273.164062 " fill-opacity="1" fill-rule="nonzero"/><path fill="#ffffff" d="M 207.039062 212.636719 C 207.039062 212.636719 208.417969 215.761719 213.6875 213.285156 C 218.953125 210.808594 223.136719 212.441406 216.011719 216.699219 C 208.882812 220.953125 208.125 224.632812 203.476562 224.011719 C 198.828125 223.394531 192.785156 218.671875 194.957031 215.34375 C 197.125 212.019531 209.554688 204.714844 211.105469 207.421875 C 212.65625 210.128906 205.566406 210.546875 207.039062 212.636719 Z M 207.039062 212.636719 " fill-opacity="1" fill-rule="nonzero"/><path fill="#c4c4c4" d="M 214.144531 214.519531 C 214.144531 214.519531 216.976562 212.820312 217.195312 214.1875 C 217.414062 215.550781 212.558594 217.054688 211.804688 216.289062 C 211.050781 215.519531 214.144531 214.519531 214.144531 214.519531 Z M 214.144531 214.519531 " fill-opacity="1" fill-rule="nonzero"/><path fill="#0f3d61" d="M 84.371094 212.664062 L 85.976562 211.964844 C 85.976562 211.964844 87.285156 212.632812 87.5625 214.300781 L 86.339844 215.1875 Z M 84.371094 212.664062 " fill-opacity="1" fill-rule="nonzero"/><path fill="#ffffff" d="M 64.402344 217.984375 C 64.402344 217.417969 64.851562 216.933594 65.414062 216.847656 C 67.808594 216.492188 74.023438 215.621094 75.902344 215.863281 C 78.246094 216.160156 77.527344 216.402344 78.96875 214.539062 C 80.410156 212.679688 81.613281 211.71875 82.933594 212.019531 C 84.257812 212.320312 86.898438 214.058594 86.300781 216.28125 C 85.699219 218.503906 83.839844 219.164062 82.699219 219.222656 C 81.554688 219.285156 79.632812 219.164062 79.332031 220.246094 C 79.03125 221.324219 76.929688 222.164062 74.945312 221.386719 C 72.964844 220.605469 73.144531 221.984375 71.460938 222.40625 C 70.546875 222.632812 69.464844 223.167969 68.667969 223.605469 C 67.925781 224.011719 67.003906 223.882812 66.4375 223.246094 C 65.535156 222.226562 64.398438 220.453125 64.402344 217.984375 Z M 64.402344 217.984375 " fill-opacity="1" fill-rule="nonzero"/><path fill="#ac6600" d="M 243.691406 217.820312 C 247.035156 217.851562 250.367188 217.648438 253.679688 217.179688 C 263.160156 215.84375 284.371094 213.292969 296.503906 215.1875 C 312.476562 217.683594 267.277344 232.828125 243.589844 228.230469 C 220.894531 223.824219 206.34375 217.484375 243.691406 217.820312 Z M 243.691406 217.820312 " fill-opacity="1" fill-rule="nonzero"/><path fill="#ac6600" d="M 153.144531 212.074219 C 153.503906 212.132812 153.851562 212.207031 154.195312 212.300781 C 154.539062 212.390625 154.871094 212.496094 155.1875 212.613281 C 155.507812 212.730469 155.804688 212.855469 156.085938 212.996094 C 156.367188 213.136719 156.621094 213.285156 156.855469 213.441406 C 157.085938 213.597656 157.289062 213.757812 157.464844 213.925781 C 157.640625 214.089844 157.785156 214.261719 157.894531 214.433594 C 158.003906 214.601562 158.082031 214.773438 158.125 214.941406 C 158.167969 215.109375 158.175781 215.277344 158.148438 215.4375 C 158.121094 215.597656 158.058594 215.75 157.960938 215.894531 C 157.867188 216.039062 157.738281 216.175781 157.574219 216.300781 C 157.414062 216.425781 157.222656 216.535156 157.003906 216.636719 C 156.78125 216.734375 156.535156 216.820312 156.265625 216.890625 C 155.996094 216.960938 155.703125 217.015625 155.394531 217.054688 C 155.082031 217.09375 154.757812 217.113281 154.417969 217.121094 C 154.078125 217.125 153.730469 217.113281 153.378906 217.085938 C 153.023438 217.058594 152.667969 217.011719 152.3125 216.953125 C 151.957031 216.890625 151.609375 216.816406 151.265625 216.726562 C 150.921875 216.632812 150.589844 216.53125 150.269531 216.414062 C 149.953125 216.296875 149.652344 216.167969 149.375 216.027344 C 149.09375 215.886719 148.835938 215.742188 148.605469 215.585938 C 148.371094 215.429688 148.167969 215.265625 147.992188 215.101562 C 147.820312 214.933594 147.675781 214.765625 147.566406 214.59375 C 147.453125 214.421875 147.378906 214.25 147.335938 214.082031 C 147.292969 213.914062 147.285156 213.75 147.3125 213.589844 C 147.339844 213.429688 147.402344 213.277344 147.496094 213.128906 C 147.59375 212.984375 147.722656 212.851562 147.882812 212.726562 C 148.046875 212.601562 148.234375 212.488281 148.457031 212.390625 C 148.675781 212.289062 148.921875 212.203125 149.195312 212.132812 C 149.464844 212.0625 149.753906 212.007812 150.066406 211.96875 C 150.378906 211.933594 150.703125 211.910156 151.042969 211.90625 C 151.378906 211.898438 151.726562 211.910156 152.082031 211.9375 C 152.4375 211.96875 152.789062 212.011719 153.144531 212.074219 Z M 153.144531 212.074219 " fill-opacity="1" fill-rule="nonzero"/><path fill="#ac6600" d="M 313.402344 206.132812 C 313.414062 206.308594 313.386719 206.492188 313.316406 206.671875 C 313.246094 206.855469 313.132812 207.035156 312.976562 207.214844 C 312.824219 207.394531 312.632812 207.566406 312.402344 207.734375 C 312.167969 207.902344 311.90625 208.0625 311.605469 208.214844 C 311.304688 208.367188 310.976562 208.507812 310.621094 208.636719 C 310.265625 208.765625 309.890625 208.878906 309.492188 208.980469 C 309.089844 209.082031 308.679688 209.167969 308.253906 209.238281 C 307.824219 209.308594 307.394531 209.359375 306.957031 209.398438 C 306.519531 209.433594 306.082031 209.449219 305.652344 209.449219 C 305.21875 209.449219 304.796875 209.433594 304.386719 209.398438 C 303.976562 209.363281 303.585938 209.308594 303.214844 209.238281 C 302.84375 209.167969 302.496094 209.085938 302.175781 208.984375 C 301.855469 208.882812 301.570312 208.765625 301.3125 208.636719 C 301.058594 208.507812 300.839844 208.367188 300.660156 208.21875 C 300.480469 208.066406 300.339844 207.90625 300.238281 207.738281 C 300.140625 207.570312 300.082031 207.394531 300.066406 207.214844 C 300.054688 207.039062 300.082031 206.855469 300.152344 206.675781 C 300.222656 206.492188 300.335938 206.3125 300.488281 206.132812 C 300.644531 205.953125 300.835938 205.78125 301.066406 205.613281 C 301.296875 205.445312 301.5625 205.285156 301.863281 205.132812 C 302.164062 204.980469 302.488281 204.839844 302.84375 204.710938 C 303.203125 204.582031 303.578125 204.46875 303.976562 204.367188 C 304.375 204.265625 304.789062 204.179688 305.214844 204.109375 C 305.640625 204.039062 306.074219 203.988281 306.511719 203.949219 C 306.949219 203.914062 307.382812 203.898438 307.816406 203.898438 C 308.25 203.898438 308.671875 203.914062 309.078125 203.949219 C 309.488281 203.984375 309.882812 204.039062 310.253906 204.109375 C 310.625 204.179688 310.972656 204.261719 311.292969 204.363281 C 311.609375 204.464844 311.898438 204.582031 312.152344 204.710938 C 312.410156 204.839844 312.628906 204.980469 312.808594 205.128906 C 312.988281 205.28125 313.128906 205.441406 313.230469 205.609375 C 313.328125 205.777344 313.386719 205.953125 313.402344 206.132812 Z M 313.402344 206.132812 " fill-opacity="1" fill-rule="nonzero"/><path fill="#ac6600" d="M 89.121094 235.597656 C 89.847656 235.722656 90.566406 235.875 91.273438 236.050781 C 91.980469 236.226562 92.660156 236.425781 93.316406 236.648438 C 93.972656 236.871094 94.589844 237.113281 95.167969 237.375 C 95.75 237.632812 96.28125 237.90625 96.761719 238.191406 C 97.242188 238.480469 97.667969 238.773438 98.03125 239.078125 C 98.398438 239.378906 98.699219 239.683594 98.933594 239.992188 C 99.167969 240.300781 99.332031 240.605469 99.429688 240.902344 C 99.523438 241.203125 99.546875 241.496094 99.5 241.777344 C 99.449219 242.058594 99.332031 242.324219 99.144531 242.574219 C 98.953125 242.828125 98.695312 243.058594 98.375 243.269531 C 98.050781 243.484375 97.664062 243.671875 97.21875 243.835938 C 96.773438 244 96.277344 244.136719 95.726562 244.25 C 95.179688 244.359375 94.585938 244.441406 93.953125 244.496094 C 93.320312 244.546875 92.65625 244.570312 91.964844 244.5625 C 91.273438 244.554688 90.5625 244.519531 89.839844 244.449219 C 89.113281 244.382812 88.386719 244.289062 87.65625 244.164062 C 86.925781 244.039062 86.210938 243.886719 85.503906 243.710938 C 84.796875 243.535156 84.117188 243.335938 83.460938 243.113281 C 82.804688 242.890625 82.1875 242.648438 81.605469 242.390625 C 81.027344 242.128906 80.496094 241.855469 80.015625 241.570312 C 79.53125 241.28125 79.109375 240.988281 78.742188 240.683594 C 78.378906 240.382812 78.078125 240.078125 77.84375 239.769531 C 77.609375 239.460938 77.441406 239.160156 77.347656 238.859375 C 77.253906 238.558594 77.230469 238.269531 77.277344 237.988281 C 77.324219 237.707031 77.445312 237.441406 77.632812 237.1875 C 77.824219 236.9375 78.078125 236.703125 78.402344 236.492188 C 78.726562 236.28125 79.109375 236.09375 79.554688 235.925781 C 80 235.761719 80.5 235.625 81.046875 235.515625 C 81.597656 235.402344 82.191406 235.320312 82.824219 235.269531 C 83.457031 235.214844 84.121094 235.191406 84.8125 235.199219 C 85.503906 235.207031 86.210938 235.246094 86.9375 235.3125 C 87.664062 235.378906 88.390625 235.476562 89.121094 235.597656 Z M 89.121094 235.597656 " fill-opacity="1" fill-rule="nonzero"/><path fill="#ac6600" d="M 96.761719 203 C 96.796875 203.25 96.746094 203.5 96.605469 203.753906 C 96.464844 204.011719 96.25 204.246094 95.957031 204.46875 C 95.664062 204.6875 95.316406 204.875 94.914062 205.03125 C 94.511719 205.183594 94.085938 205.289062 93.636719 205.351562 C 93.1875 205.414062 92.746094 205.429688 92.320312 205.390625 C 91.890625 205.351562 91.503906 205.269531 91.164062 205.136719 C 90.820312 205.003906 90.546875 204.832031 90.34375 204.628906 C 90.136719 204.421875 90.019531 204.191406 89.984375 203.941406 C 89.949219 203.695312 90.003906 203.441406 90.140625 203.1875 C 90.28125 202.933594 90.5 202.695312 90.792969 202.472656 C 91.085938 202.253906 91.433594 202.066406 91.835938 201.914062 C 92.234375 201.761719 92.660156 201.652344 93.113281 201.589844 C 93.5625 201.527344 94 201.515625 94.429688 201.550781 C 94.855469 201.589844 95.242188 201.675781 95.585938 201.808594 C 95.925781 201.9375 96.199219 202.109375 96.40625 202.316406 C 96.609375 202.523438 96.730469 202.75 96.761719 203 Z M 96.761719 203 " fill-opacity="1" fill-rule="nonzero"/><path fill="#ffffff" d="M 258.964844 180.9375 L 274.03125 255.875 L 266.101562 257.320312 L 248.398438 202.589844 L 246.582031 190.550781 Z M 258.964844 180.9375 " fill-opacity="1" fill-rule="nonzero"/><path fill="#ebebeb" d="M 258.964844 180.9375 L 246.582031 190.550781 L 248.398438 202.589844 L 258.964844 235.261719 L 269.058594 231.144531 C 269.058594 231.144531 257.914062 228.582031 254.660156 212.988281 C 252.007812 200.292969 260.832031 199.136719 258.964844 180.9375 " fill-opacity="1" fill-rule="nonzero"/><path fill="#ffffff" d="M 234.960938 179.980469 L 222.402344 258.980469 L 229.277344 261.050781 L 250.46875 196.417969 C 250.46875 196.417969 256.488281 192.492188 258.96875 180.9375 Z M 234.960938 179.980469 " fill-opacity="1" fill-rule="nonzero"/><path fill="#b7ce7a" d="M 239.980469 146.992188 L 214.496094 145.453125 C 212.949219 145.359375 211.765625 144.046875 211.835938 142.5 L 211.921875 140.515625 C 211.988281 139 213.238281 137.808594 214.753906 137.808594 L 218.625 137.808594 C 218.769531 137.808594 218.914062 137.820312 219.058594 137.839844 L 240.921875 141.21875 Z M 239.980469 146.992188 " fill-opacity="1" fill-rule="nonzero"/><path fill="#8cb63e" d="M 234.613281 182.171875 C 224.464844 184.6875 215.921875 182.714844 211.5625 181.234375 C 210.082031 180.730469 209.675781 178.839844 210.820312 177.773438 L 211.832031 176.832031 C 207.90625 167.46875 213.414062 160.628906 213.414062 160.628906 L 214.199219 153.664062 L 213.5625 151.289062 C 213.324219 150.398438 213.300781 149.460938 213.496094 148.554688 L 214.199219 145.285156 L 241.902344 146.992188 Z M 234.613281 182.171875 " fill-opacity="1" fill-rule="nonzero"/><path fill="#6e9745" d="M 217.050781 149.476562 C 217.050781 149.476562 225.78125 152.570312 236.261719 150.519531 C 236.261719 150.519531 225.097656 153.578125 218.417969 152.65625 C 218.417969 152.65625 216.140625 151.230469 217.050781 149.476562 Z M 217.050781 149.476562 " fill-opacity="1" fill-rule="nonzero"/><path fill="#6e9745" d="M 213.78125 172.730469 C 213.78125 172.730469 215.316406 175.90625 218.28125 176.222656 C 218.28125 176.222656 216.042969 177.746094 213.78125 178.488281 C 213.78125 178.488281 223.554688 179.980469 230.871094 175.242188 C 230.871094 175.242188 220.886719 176.496094 213.78125 172.730469 Z M 213.78125 172.730469 " fill-opacity="1" fill-rule="nonzero"/><path fill="#6e9745" d="M 221.21875 171.46875 C 221.21875 171.46875 230.871094 176.816406 235.644531 166.257812 C 235.644531 166.257812 229.058594 172.730469 221.21875 171.46875 Z M 221.21875 171.46875 " fill-opacity="1" fill-rule="nonzero"/><path fill="#0f3d61" d="M 255.074219 128.226562 C 261.472656 130.855469 259.871094 122.167969 262.285156 119.132812 C 264.699219 116.097656 260.027344 112.828125 257.523438 111.738281 C 255.019531 110.648438 257.457031 107.066406 252.863281 105.976562 C 248.269531 104.886719 247.949219 110.492188 242.417969 108.3125 C 236.886719 106.132812 235.71875 112.75 238.679688 115.394531 C 239.566406 116.1875 240.433594 116.601562 241.210938 116.789062 Z M 255.074219 128.226562 " fill-opacity="1" fill-rule="nonzero"/><path fill="#ffffff" d="M 253.746094 120.746094 C 250.25 122.566406 250.714844 119.089844 249.101562 117.109375 C 247.300781 114.902344 244.351562 116.453125 244.351562 116.453125 C 244.351562 116.453125 243.015625 117.214844 241.210938 116.789062 C 239.054688 122.519531 241.605469 127.507812 242.859375 129.460938 C 243.234375 130.042969 243.925781 130.324219 244.609375 130.214844 C 246.449219 129.925781 247.5625 129.308594 247.5625 129.308594 L 247.5625 134.910156 L 255.648438 134.195312 L 254.761719 124.945312 C 254.761719 124.945312 258.566406 122.835938 256.933594 120.023438 C 255.191406 117.027344 253.746094 120.746094 253.746094 120.746094 Z M 253.746094 120.746094 " fill-opacity="1" fill-rule="nonzero"/><path fill="#0f3d61" d="M 271.238281 231.074219 L 273.9375 251.699219 L 277.402344 259.628906 C 277.402344 259.628906 263.800781 264.082031 253.4375 262.496094 C 243.070312 260.914062 263.1875 253.472656 263.1875 253.472656 L 256.636719 235.136719 C 256.636719 235.136719 263.539062 230.910156 271.238281 231.074219 Z M 271.238281 231.074219 " fill-opacity="1" fill-rule="nonzero"/><path fill="#0f3d61" d="M 239.550781 236.734375 L 233.304688 254.910156 L 233.191406 262.835938 C 233.191406 262.835938 222.371094 263.070312 211.949219 259.785156 C 201.945312 256.636719 222.175781 252.6875 222.175781 252.6875 L 225.09375 233.890625 C 225.09375 233.890625 232.933594 233.683594 239.550781 236.734375 Z M 239.550781 236.734375 " fill-opacity="1" fill-rule="nonzero"/><path fill="#4a86c6" d="M 240.671875 142.425781 L 234.960938 179.980469 C 234.960938 179.980469 245.148438 186.84375 258.96875 180.9375 L 259.878906 139.234375 C 259.945312 136.304688 258.035156 133.644531 255.199219 132.890625 C 255.136719 132.871094 255.070312 132.855469 255.007812 132.839844 C 248.359375 131.125 241.703125 135.644531 240.671875 142.425781 Z M 240.671875 142.425781 " fill-opacity="1" fill-rule="nonzero"/><path fill="#ffffff" d="M 220.265625 160.746094 L 244.921875 162.9375 C 247.628906 163.175781 250.144531 161.519531 250.992188 158.9375 L 253.050781 152.65625 C 246.46875 152.625 243.640625 149.929688 243.640625 149.929688 L 242.109375 156.308594 L 220.519531 155.238281 L 214.199219 153.664062 C 213.171875 153.410156 212.15625 154.128906 212.058594 155.179688 L 211.71875 158.738281 C 211.625 159.742188 212.402344 160.613281 213.414062 160.628906 Z M 220.265625 160.746094 " fill-opacity="1" fill-rule="nonzero"/><path fill="#0f3d61" d="M 252.394531 136.226562 C 252.394531 136.226562 255.101562 137.988281 255.101562 141.636719 C 255.101562 145.285156 253.910156 150.03125 253.050781 152.65625 C 253.050781 152.65625 257.046875 145.816406 256.75 141.226562 C 256.457031 136.636719 252.394531 136.226562 252.394531 136.226562 Z M 252.394531 136.226562 " fill-opacity="1" fill-rule="nonzero"/><path fill="#0f3d61" d="M 243.640625 149.929688 C 243.640625 149.929688 244.640625 144.941406 245.488281 142.210938 C 245.488281 142.210938 243.242188 144.441406 243.640625 149.929688 Z M 243.640625 149.929688 " fill-opacity="1" fill-rule="nonzero"/><path fill="#ebebeb" d="M 247.5625 129.308594 C 247.5625 129.308594 250.132812 128.402344 252.394531 126.015625 C 252.394531 126.015625 251.457031 128.535156 247.5625 131.15625 Z M 247.5625 129.308594 " fill-opacity="1" fill-rule="nonzero"/><path fill="#ffffff" d="M 137.035156 180.15625 L 143.117188 251.144531 C 143.117188 251.144531 139.269531 255.292969 133.613281 252.277344 L 123.164062 196.210938 L 105.765625 253.230469 C 99.660156 255.507812 96.648438 251.699219 96.648438 251.699219 L 108.074219 185 C 108.835938 180.550781 110.136719 176.214844 111.949219 172.082031 C 111.949219 172.082031 137.035156 180.15625 137.035156 180.15625 Z M 137.035156 180.15625 " fill-opacity="1" fill-rule="nonzero"/><path fill="#4a86c6" d="M 158.875 154.417969 L 156.085938 143.5 C 155.4375 140.96875 154.128906 138.652344 152.296875 136.789062 L 148.957031 133.398438 L 141.511719 128.96875 L 134.449219 129.554688 C 129.882812 129.933594 125.960938 132.945312 124.417969 137.257812 L 111.949219 172.082031 C 111.949219 172.082031 120.03125 184.054688 137.035156 180.15625 L 149.789062 150.355469 L 151.769531 156.292969 Z M 158.875 154.417969 " fill-opacity="1" fill-rule="nonzero"/><path fill="#0f3d61" d="M 98.359375 231.074219 L 95.660156 251.699219 L 92.191406 259.628906 C 92.191406 259.628906 105.796875 264.082031 116.160156 262.496094 C 126.527344 260.914062 106.410156 253.472656 106.410156 253.472656 L 112.960938 235.136719 C 112.960938 235.136719 106.058594 230.910156 98.359375 231.074219 Z M 98.359375 231.074219 " fill-opacity="1" fill-rule="nonzero"/><path fill="#ffffff" d="M 146.28125 121.039062 L 141.511719 128.96875 C 141.511719 128.96875 142.6875 135.417969 148.957031 133.398438 L 149.371094 132.726562 C 150.453125 133.820312 152.136719 134.054688 153.460938 133.226562 C 156.441406 131.363281 161.625 127.261719 163.800781 120.308594 L 142.960938 113.488281 L 143.523438 120.898438 Z M 146.28125 121.039062 " fill-opacity="1" fill-rule="nonzero"/><path fill="#0f3d61" d="M 144.3125 124.3125 C 144.3125 124.3125 139.125 116.34375 144.046875 110.316406 C 147.019531 106.671875 151.015625 109.199219 151.015625 109.199219 C 158.207031 101.324219 176.167969 119.226562 164.5 121.308594 C 155.835938 122.855469 150.394531 117.308594 150.394531 117.308594 C 150.292969 119.390625 147.757812 119.636719 147.757812 119.636719 C 148.71875 117.617188 148.191406 116.207031 148.191406 116.207031 C 147.242188 114.121094 143.636719 114.3125 143.636719 117.441406 C 143.636719 120.566406 146.28125 121.039062 146.28125 121.039062 Z M 144.3125 124.3125 " fill-opacity="1" fill-rule="nonzero"/><path fill="#0f3d61" d="M 184.476562 251.535156 L 163.800781 231.601562 L 143.089844 142.628906 C 142.898438 141.800781 142.066406 141.28125 141.234375 141.476562 C 140.40625 141.667969 139.886719 142.5 140.082031 143.332031 L 160.855469 232.570312 L 160.855469 261.785156 C 160.855469 262.636719 161.546875 263.328125 162.398438 263.328125 C 163.253906 263.328125 163.945312 262.636719 163.945312 261.785156 L 163.945312 243.082031 L 169.148438 260.691406 C 169.347656 261.363281 169.960938 261.796875 170.628906 261.796875 C 170.773438 261.796875 170.921875 261.777344 171.066406 261.734375 C 171.886719 261.492188 172.355469 260.636719 172.113281 259.816406 L 167.007812 242.546875 L 176.484375 257.476562 C 176.941406 258.195312 177.894531 258.414062 178.617188 257.957031 C 179.335938 257.5 179.550781 256.546875 179.09375 255.824219 L 170.617188 242.460938 L 182.332031 253.757812 C 182.945312 254.351562 183.925781 254.332031 184.519531 253.71875 C 185.109375 253.105469 185.09375 252.125 184.476562 251.535156 Z M 184.476562 251.535156 " fill-opacity="1" fill-rule="nonzero"/><path fill="#ffffff" d="M 151.769531 156.292969 L 152.847656 159.523438 L 151.441406 172.765625 L 150.191406 173.109375 L 149.988281 176.804688 C 149.96875 177.136719 149.816406 177.449219 149.570312 177.671875 L 148.0625 179.007812 C 147.714844 179.320312 147.566406 179.796875 147.679688 180.25 L 148.25 182.539062 C 148.421875 183.230469 149.136719 183.640625 149.820312 183.441406 L 151.984375 182.808594 C 152.261719 182.726562 152.503906 182.550781 152.667969 182.308594 L 153.996094 180.355469 C 154.160156 180.117188 154.273438 179.84375 154.320312 179.554688 L 154.890625 176.230469 L 159.394531 159.261719 C 159.636719 158.355469 159.640625 157.402344 159.40625 156.496094 L 158.875 154.417969 C 158.875 154.417969 154.34375 153.847656 151.769531 156.292969 Z M 151.769531 156.292969 " fill-opacity="1" fill-rule="nonzero"/><path fill="#4a86c6" d="M 125.152344 153.523438 L 131.179688 143.332031 L 125.246094 135.445312 L 119.617188 145.640625 Z M 125.152344 153.523438 " fill-opacity="1" fill-rule="nonzero"/><path fill="#ffffff" d="M 127.449219 149.640625 L 125.152344 153.523438 L 143.097656 160.710938 L 146.9375 160.289062 C 147.597656 160.214844 148.246094 160.496094 148.644531 161.027344 L 149.585938 162.292969 C 149.964844 162.796875 150.0625 163.457031 149.84375 164.050781 L 148.765625 167.003906 L 147.589844 166.035156 C 147.125 165.652344 146.511719 165.515625 145.929688 165.664062 L 143.484375 166.292969 C 142.863281 166.449219 142.203125 166.28125 141.734375 165.839844 L 140.441406 164.617188 L 120.242188 159.804688 C 116.488281 158.910156 114.617188 154.683594 116.484375 151.308594 L 119.613281 145.640625 C 119.613281 145.640625 123.699219 145.023438 127.449219 149.640625 Z M 127.449219 149.640625 " fill-opacity="1" fill-rule="nonzero"/><path fill="#ebebeb" d="M 123.164062 196.210938 L 126.457031 187.183594 C 126.457031 187.183594 126.207031 223.507812 141.503906 232.3125 L 130.492188 235.535156 Z M 123.164062 196.210938 " fill-opacity="1" fill-rule="nonzero"/><path fill="#0f3d61" d="M 128.449219 233.820312 L 132.828125 252.53125 L 132.140625 260.425781 C 132.140625 260.425781 142.882812 261.75 153.585938 259.53125 C 163.855469 257.40625 144.125 251.441406 144.125 251.441406 L 143.117188 232.445312 C 143.117188 232.445312 135.339844 231.449219 128.449219 233.820312 Z M 128.449219 233.820312 " fill-opacity="1" fill-rule="nonzero"/><path fill="#ebebeb" d="M 149.371094 132.726562 C 149.371094 132.726562 146.824219 130.21875 146.523438 124.3125 C 146.523438 124.3125 145.621094 130.007812 148.957031 133.398438 Z M 149.371094 132.726562 " fill-opacity="1" fill-rule="nonzero"/><path fill="#0f3d61" d="M 127.449219 149.640625 C 127.449219 149.640625 131.675781 143.257812 132.492188 141.433594 C 132.492188 141.433594 131.40625 147.757812 127.449219 149.640625 Z M 127.449219 149.640625 " fill-opacity="1" fill-rule="nonzero"/><path fill="#0f3d61" d="M 149.789062 150.355469 C 149.789062 150.355469 151.109375 147.707031 151.609375 145.859375 C 151.609375 145.859375 151.941406 149.03125 149.789062 150.355469 Z M 149.789062 150.355469 " fill-opacity="1" fill-rule="nonzero"/></svg>