<svg xmlns="http://www.w3.org/2000/svg" xmlns:xlink="http://www.w3.org/1999/xlink" width="500" zoomAndPan="magnify" viewBox="0 0 375 299.999988" height="400" preserveAspectRatio="xMidYMid meet" version="1.0"><rect x="-37.5" width="450" fill="#ffffff" y="-29.999999" height="359.999986" fill-opacity="1"/><rect x="-37.5" width="450" fill="#ffffff" y="-29.999999" height="359.999986" fill-opacity="1"/><path fill="#868d25" d="M 119.359375 225.699219 C 123.78125 247.8125 125.992188 258.871094 125.992188 258.871094 C 125.992188 258.871094 131.738281 258.722656 143.085938 258.722656 C 148.980469 236.757812 151.929688 225.699219 151.929688 225.699219 C 143.234375 238.820312 138.8125 245.308594 138.8125 245.308594 C 145.148438 224.375 148.246094 213.90625 148.246094 213.90625 C 142.203125 230.121094 139.253906 238.378906 139.253906 238.378906 C 139.402344 205.503906 139.402344 189.140625 139.402344 189.140625 C 134.6875 221.277344 132.179688 237.347656 132.179688 237.347656 C 129.675781 216.414062 128.496094 205.945312 128.496094 205.945312 C 126.726562 226.878906 125.992188 237.347656 125.992188 237.347656 C 120.980469 228.648438 118.476562 224.226562 118.476562 224.226562 Z M 119.359375 225.699219 " fill-opacity="1" fill-rule="evenodd"/><path fill="#868d25" d="M 44.492188 260.050781 C 44.492188 260.050781 54.367188 260.050781 74.261719 260.050781 C 78.980469 232.628906 81.1875 218.769531 81.1875 218.769531 C 71.90625 238.96875 67.1875 248.992188 67.1875 248.992188 C 70.136719 220.394531 71.757812 206.09375 71.757812 206.09375 C 62.621094 230.710938 58.199219 242.949219 58.199219 242.949219 C 60.261719 195.921875 60.410156 204.621094 54.515625 244.570312 C 51.566406 217.59375 50.09375 204.175781 50.09375 204.175781 C 47.144531 229.976562 45.820312 242.949219 45.820312 242.949219 C 43.3125 223.636719 41.839844 214.644531 41.25 216.265625 C 43.460938 245.453125 44.492188 260.050781 44.492188 260.050781 Z M 44.492188 260.050781 " fill-opacity="1" fill-rule="evenodd"/><path fill="#f9b246" d="M 250.375 191.941406 C 240.648438 198.28125 235.636719 201.523438 235.636719 201.523438 C 235.636719 201.523438 245.21875 206.976562 264.230469 217.738281 C 265.113281 224.816406 271.007812 230.566406 281.914062 234.691406 C 283.828125 236.316406 285.746094 236.609375 287.515625 235.28125 C 287.957031 232.921875 288.691406 233.070312 289.722656 235.578125 C 292.378906 236.902344 293.554688 236.460938 293.410156 233.957031 C 292.671875 233.367188 292.523438 232.480469 293.261719 231.007812 C 296.210938 234.691406 298.714844 236.167969 300.925781 235.578125 C 301.074219 233.511719 299.746094 231.15625 296.945312 228.207031 C 295.175781 226.140625 296.355469 225.699219 300.484375 227.320312 C 302.398438 229.828125 305.347656 231.300781 309.324219 231.746094 C 315.515625 230.710938 317.285156 225.554688 314.628906 216.265625 C 313.894531 207.566406 312.125 202.554688 309.179688 201.375 C 309.179688 201.375 309.179688 197.25 309.03125 189.140625 C 309.03125 189.140625 305.492188 187.8125 298.273438 185.308594 C 297.976562 194.300781 297.535156 200.492188 296.945312 204.03125 C 294.441406 204.324219 293.851562 208.894531 295.175781 217.738281 C 295.03125 217.886719 293.851562 217.003906 291.640625 215.234375 C 289.429688 214.347656 289.722656 213.316406 292.523438 212.285156 C 294.441406 210.957031 290.902344 207.421875 281.914062 201.816406 C 277.933594 199.460938 273.808594 200.050781 269.386719 203.882812 C 269.386719 203.882812 263.050781 199.902344 250.375 191.941406 Z M 250.375 191.941406 " fill-opacity="1" fill-rule="evenodd"/><path fill="#ecdfab" d="M 318.167969 147.421875 C 319.640625 161.574219 318.019531 177.050781 313.597656 193.859375 C 313.597656 193.859375 307.851562 191.792969 296.652344 187.519531 C 295.324219 161.425781 293.261719 143.734375 290.167969 134.742188 C 308.882812 143.144531 318.167969 147.421875 318.167969 147.421875 Z M 318.167969 147.421875 " fill-opacity="1" fill-rule="evenodd"/><path fill="#f9b246" d="M 85.609375 258.574219 C 85.316406 265.355469 90.472656 267.273438 101.378906 264.472656 C 101.378906 264.472656 110.8125 245.601562 129.824219 208.011719 C 129.824219 208.011719 121.570312 200.933594 104.917969 186.78125 C 101.378906 196.214844 95.042969 220.097656 85.609375 258.574219 Z M 85.609375 258.574219 " fill-opacity="1" fill-rule="evenodd"/><path fill="#f9b246" d="M 227.679688 262.996094 C 239.765625 261.964844 245.953125 261.375 245.953125 261.375 C 245.953125 261.375 245.21875 246.339844 244.039062 216.265625 C 244.039062 216.265625 237.703125 213.316406 225.320312 207.421875 C 226.796875 244.421875 227.679688 262.996094 227.679688 262.996094 Z M 227.679688 262.996094 " fill-opacity="1" fill-rule="evenodd"/><path fill="#868d25" d="M 291.789062 222.164062 C 296.652344 246.632812 299.15625 258.871094 299.15625 258.871094 C 299.15625 258.871094 305.492188 258.871094 318.167969 258.722656 C 324.652344 234.398438 327.894531 222.164062 327.894531 222.164062 C 318.167969 236.757812 313.453125 243.980469 313.453125 243.980469 C 320.378906 220.6875 323.769531 209.042969 323.769531 209.042969 C 317.136719 227.175781 313.894531 236.167969 313.894531 236.167969 C 314.042969 199.753906 314.042969 181.472656 314.042969 181.472656 C 308.734375 217.148438 306.082031 234.988281 306.082031 234.988281 C 303.28125 211.84375 301.808594 200.195312 301.808594 200.195312 C 300.039062 223.488281 299.15625 234.988281 299.15625 234.988281 C 293.554688 225.40625 290.757812 220.539062 290.757812 220.539062 Z M 291.789062 222.164062 " fill-opacity="1" fill-rule="evenodd"/><path fill="#52666f" d="M 192.605469 105.40625 C 220.3125 109.386719 234.164062 111.300781 234.164062 111.300781 C 237.996094 119.558594 242.121094 133.269531 246.25 152.578125 C 252.4375 169.238281 251.703125 191.792969 244.1875 220.246094 C 244.1875 220.246094 232.691406 215.824219 209.699219 206.832031 C 211.171875 190.171875 209.847656 174.839844 205.722656 160.835938 C 191.574219 144.621094 179.046875 130.46875 168.433594 118.230469 C 170.5 106.730469 178.605469 102.457031 192.605469 105.40625 Z M 192.605469 105.40625 " fill-opacity="1" fill-rule="evenodd"/><path fill="#52666f" d="M 164.308594 169.53125 C 150.601562 202.996094 143.675781 219.804688 143.675781 219.804688 C 143.675781 219.804688 128.347656 210.515625 97.84375 192.089844 C 98.433594 182.800781 100.054688 177.050781 102.558594 174.839844 C 104.769531 171.007812 104.769531 168.355469 102.265625 166.585938 C 105.0625 160.246094 106.539062 157.003906 106.539062 157.003906 C 89.589844 102.308594 81.632812 60.148438 82.808594 30.222656 C 85.609375 9.582031 100.9375 0 128.644531 1.472656 C 148.980469 85.652344 159.296875 127.8125 159.296875 127.8125 C 162.6875 155.527344 164.308594 169.53125 164.308594 169.53125 Z M 164.308594 169.53125 " fill-opacity="1" fill-rule="evenodd"/><path fill="#4b4239" d="M 128.644531 1.472656 C 149.570312 77.542969 161.359375 133.5625 164.308594 169.53125 C 135.128906 112.628906 120.390625 84.324219 120.390625 84.324219 C 125.105469 85.0625 127.464844 85.355469 127.464844 85.355469 C 115.234375 36.558594 115.675781 8.699219 128.644531 1.472656 Z M 128.644531 1.472656 " fill-opacity="1" fill-rule="evenodd"/><path fill="#ecdfab" d="M 120.980469 54.691406 C 131.296875 86.683594 141.613281 112.777344 152.078125 132.679688 C 166.078125 120.292969 173.152344 113.957031 173.152344 113.957031 C 186.855469 134.300781 193.785156 144.472656 193.785156 144.472656 C 194.078125 162.164062 194.226562 171.15625 194.226562 171.15625 C 193.929688 175.136719 195.109375 178.671875 197.46875 181.472656 C 202.921875 187.960938 236.082031 205.945312 246.542969 212.578125 C 250.226562 203.441406 251.996094 193.710938 251.703125 183.242188 C 243.742188 181.328125 239.765625 180.441406 239.765625 180.441406 C 238.289062 180.292969 238.144531 179.261719 239.46875 177.347656 C 241.53125 174.839844 241.386719 172.921875 238.734375 171.449219 C 232.984375 168.5 230.039062 167.175781 230.039062 167.175781 C 228.859375 166.585938 228.5625 165.109375 229.300781 162.605469 C 229.890625 137.835938 230.183594 125.453125 230.183594 125.453125 C 232.394531 120.148438 239.910156 117.640625 252.734375 118.230469 C 261.871094 117.199219 266.4375 116.609375 266.4375 116.609375 C 253.617188 69.730469 247.28125 46.4375 247.28125 46.4375 C 199.089844 22.851562 159.445312 7.8125 128.644531 1.472656 C 118.179688 9.289062 115.527344 27.125 120.980469 54.691406 Z M 120.980469 54.691406 " fill-opacity="1" fill-rule="evenodd"/><path fill="#cfbd95" d="M 173.152344 113.957031 C 186.855469 134.300781 193.785156 144.472656 193.785156 144.472656 C 193.339844 113.070312 192.164062 91.105469 190.097656 78.28125 C 192.605469 71.054688 177.867188 72.089844 145.738281 81.375 C 142.203125 83.734375 141.171875 80.050781 142.792969 70.613281 C 142.792969 70.613281 137.339844 70.613281 126.285156 70.613281 C 133.210938 91.253906 141.761719 112.039062 152.078125 132.679688 C 166.078125 120.292969 173.152344 113.957031 173.152344 113.957031 Z M 173.152344 113.957031 " fill-opacity="1" fill-rule="evenodd"/><path fill="#4b4239" d="M 172.121094 85.796875 C 172.265625 85.652344 172.5625 85.652344 172.707031 85.796875 C 172.855469 85.945312 172.855469 86.242188 172.707031 86.386719 L 154.582031 102.457031 C 154.433594 102.605469 154.140625 102.457031 153.992188 102.308594 C 153.84375 102.164062 153.84375 101.867188 153.992188 101.71875 Z M 172.121094 85.796875 " fill-opacity="1" fill-rule="nonzero"/><path fill="#4b4239" d="M 185.234375 83.144531 C 185.382812 82.996094 185.53125 82.851562 185.824219 82.996094 C 185.972656 83.144531 185.972656 83.441406 185.824219 83.585938 L 166.078125 111.15625 C 165.929688 111.449219 165.78125 111.449219 165.488281 111.300781 C 165.339844 111.15625 165.339844 110.859375 165.488281 110.710938 Z M 185.234375 83.144531 " fill-opacity="1" fill-rule="nonzero"/><path fill="#4b4239" d="M 185.382812 96.117188 C 185.234375 95.96875 185.382812 95.675781 185.679688 95.675781 C 185.824219 95.527344 186.121094 95.675781 186.121094 95.824219 L 191.71875 111.746094 C 191.71875 112.039062 191.574219 112.1875 191.425781 112.335938 C 191.128906 112.335938 190.984375 112.1875 190.835938 112.039062 Z M 185.382812 96.117188 " fill-opacity="1" fill-rule="nonzero"/><path fill="#cfbd95" d="M 223.257812 160.6875 C 223.40625 160.6875 223.554688 160.984375 223.554688 161.128906 C 223.554688 161.425781 223.40625 161.574219 223.257812 161.574219 L 207.34375 161.71875 L 212.648438 164.519531 L 221.636719 164.667969 C 221.933594 164.667969 222.078125 164.816406 222.078125 164.964844 C 222.078125 165.257812 221.933594 165.40625 221.636719 165.40625 L 212.5 165.257812 C 212.5 165.257812 212.351562 165.257812 212.351562 165.257812 L 205.574219 161.574219 C 205.425781 161.574219 205.425781 161.425781 205.425781 161.277344 C 205.425781 160.984375 205.574219 160.835938 205.722656 160.835938 Z M 223.257812 160.6875 " fill-opacity="1" fill-rule="nonzero"/><path fill="#cfbd95" d="M 204.835938 168.796875 C 204.542969 168.796875 204.394531 168.648438 204.394531 168.355469 C 204.394531 168.207031 204.6875 167.910156 204.835938 168.058594 L 223.40625 168.796875 C 223.699219 168.796875 223.847656 168.945312 223.847656 169.238281 C 223.847656 169.53125 223.699219 169.679688 223.40625 169.679688 Z M 204.835938 168.796875 " fill-opacity="1" fill-rule="nonzero"/><path fill="#cfbd95" d="M 252.734375 118.230469 C 261.871094 117.199219 266.4375 116.609375 266.4375 116.609375 C 266.4375 116.609375 260.101562 93.167969 247.28125 46.4375 C 247.28125 46.4375 244.921875 45.257812 240.058594 42.898438 C 235.492188 49.238281 233.574219 58.378906 234.457031 70.46875 C 235.492188 76.804688 235.046875 82.996094 233.28125 89.042969 C 227.089844 100.246094 226.058594 112.480469 230.183594 125.453125 C 231.953125 120.292969 239.46875 117.9375 252.734375 118.230469 Z M 252.734375 118.230469 " fill-opacity="1" fill-rule="evenodd"/><path fill="#cfbd95" d="M 228.5625 52.628906 C 228.859375 52.921875 228.710938 53.511719 228.417969 53.808594 C 227.972656 53.957031 227.53125 53.957031 227.238281 53.511719 C 225.617188 51.300781 222.964844 49.679688 219.132812 48.796875 C 215.152344 47.910156 210.140625 47.765625 203.804688 48.355469 L 170.5 48.207031 C 170.054688 48.207031 169.761719 47.765625 169.761719 47.320312 C 169.761719 46.878906 170.054688 46.4375 170.644531 46.4375 L 203.804688 46.730469 C 210.140625 46.140625 215.300781 46.289062 219.425781 47.175781 C 223.699219 48.207031 226.648438 49.976562 228.5625 52.628906 Z M 228.5625 52.628906 " fill-opacity="1" fill-rule="nonzero"/><path fill="#cfbd95" d="M 145.003906 17.101562 C 144.558594 16.953125 144.265625 16.511719 144.414062 16.070312 C 144.414062 15.625 144.855469 15.332031 145.296875 15.332031 C 153.109375 16.660156 160.035156 18.28125 166.222656 20.492188 C 172.414062 22.703125 177.71875 25.355469 182.4375 28.597656 C 182.730469 28.894531 182.878906 29.484375 182.582031 29.777344 C 182.289062 30.222656 181.847656 30.222656 181.402344 30.074219 C 176.984375 26.832031 171.675781 24.175781 165.636719 22.113281 C 159.59375 19.902344 152.664062 18.28125 145.003906 17.101562 Z M 145.003906 17.101562 " fill-opacity="1" fill-rule="nonzero"/><path fill="#d17e48" d="M 252.734375 118.230469 C 257.300781 117.640625 260.839844 117.199219 263.492188 116.902344 C 260.101562 114.101562 256.859375 109.238281 253.914062 102.308594 C 253.914062 102.308594 253.46875 107.617188 252.734375 118.230469 Z M 252.734375 118.230469 " fill-opacity="1" fill-rule="evenodd"/><path fill="#feb63e" d="M 349.558594 63.832031 C 356.042969 92.578125 358.695312 114.546875 357.515625 129.878906 C 352.800781 150.222656 338.359375 156.855469 314.042969 149.925781 C 285.007812 141.523438 264.964844 125.75 253.914062 102.308594 C 245.660156 83.292969 242.859375 64.421875 245.511719 45.554688 C 247.871094 18.132812 253.765625 4.273438 263.34375 3.980469 C 281.324219 6.042969 301.957031 15.480469 325.535156 32.433594 C 337.472656 41.867188 343.515625 46.585938 343.515625 46.585938 C 346.90625 49.386719 348.820312 55.136719 349.558594 63.832031 Z M 349.558594 63.832031 " fill-opacity="1" fill-rule="evenodd"/><path fill="#dd9421" d="M 260.839844 7.960938 C 260.398438 7.8125 260.101562 7.371094 260.25 6.929688 C 260.542969 6.488281 260.988281 6.339844 261.429688 6.488281 C 264.964844 7.8125 268.355469 9.289062 271.746094 10.613281 C 272.039062 10.320312 272.335938 10.320312 272.628906 10.46875 C 272.921875 10.613281 273.070312 10.910156 273.070312 11.203125 C 282.652344 15.035156 291.199219 18.574219 298.863281 21.964844 C 298.863281 21.964844 298.863281 21.964844 298.863281 22.113281 C 300.335938 22.703125 301.660156 23.292969 303.136719 23.882812 C 313.007812 28.453125 321.117188 32.433594 327.453125 35.96875 C 327.601562 35.527344 327.746094 35.085938 327.894531 34.644531 C 328.042969 34.203125 328.484375 34.054688 328.925781 34.203125 C 329.367188 34.347656 329.664062 34.792969 329.515625 35.234375 C 329.222656 35.824219 329.074219 36.265625 328.925781 36.855469 C 329.367188 37.148438 329.808594 37.296875 330.253906 37.59375 C 330.695312 37.886719 330.84375 38.328125 330.546875 38.773438 C 330.253906 39.214844 329.808594 39.214844 329.367188 39.066406 C 329.074219 38.917969 328.777344 38.625 328.484375 38.476562 C 327.746094 41.277344 327.304688 43.929688 327.304688 46.585938 L 343.515625 45.699219 C 343.957031 45.699219 344.402344 45.996094 344.402344 46.4375 C 344.402344 46.878906 343.957031 47.320312 343.515625 47.320312 L 327.453125 48.207031 C 327.601562 50.566406 328.1875 52.777344 329.074219 54.988281 L 331.578125 53.511719 C 331.875 53.367188 332.464844 53.367188 332.609375 53.808594 C 332.90625 54.25 332.757812 54.691406 332.464844 54.839844 C 331.578125 55.578125 330.695312 56.167969 329.957031 56.902344 C 330.253906 57.347656 330.546875 57.789062 330.84375 58.378906 C 330.988281 58.527344 330.988281 58.527344 330.988281 58.527344 C 331.578125 59.410156 332.316406 60.292969 333.050781 61.03125 C 333.347656 60 333.640625 58.96875 333.9375 57.9375 C 334.085938 57.492188 334.527344 57.347656 334.96875 57.492188 C 335.410156 57.492188 335.707031 57.9375 335.558594 58.378906 L 334.378906 62.359375 C 335.851562 63.539062 337.472656 64.570312 339.242188 65.160156 C 340.273438 65.601562 341.304688 65.75 342.335938 65.898438 L 342.335938 64.71875 C 342.335938 64.273438 342.78125 63.980469 343.222656 63.980469 C 343.664062 63.980469 343.957031 64.273438 343.957031 64.71875 L 343.957031 65.898438 C 344.988281 65.898438 346.167969 65.601562 347.199219 65.308594 L 347.054688 64.863281 C 347.054688 64.421875 347.347656 63.980469 347.789062 63.832031 C 348.230469 63.832031 348.527344 64.128906 348.675781 64.421875 C 348.820312 64.421875 348.96875 64.273438 349.117188 64.273438 C 349.265625 64.128906 349.265625 64.128906 349.265625 64.128906 C 349.558594 63.832031 350.148438 63.980469 350.441406 64.421875 C 350.589844 64.71875 350.589844 65.308594 350.148438 65.453125 C 350 65.601562 350 65.601562 350 65.601562 C 349.707031 65.898438 349.265625 66.042969 348.96875 66.191406 L 357.074219 125.308594 C 357.074219 125.75 356.78125 126.191406 356.339844 126.191406 C 355.894531 126.339844 355.453125 126.042969 355.453125 125.601562 L 352.359375 103.636719 C 349.851562 105.996094 347.199219 107.46875 344.695312 108.355469 C 344.253906 108.5 343.664062 108.648438 343.074219 108.648438 L 342.484375 136.511719 C 345.726562 135.773438 348.675781 134.445312 351.621094 132.824219 C 352.0625 132.679688 352.507812 132.679688 352.800781 133.121094 C 352.949219 133.5625 352.800781 134.003906 352.507812 134.300781 C 349.265625 136.070312 345.875 137.394531 342.484375 138.28125 L 342.191406 150.8125 C 342.191406 151.402344 341.746094 151.695312 341.304688 151.695312 C 340.863281 151.695312 340.570312 151.253906 340.570312 150.8125 L 340.863281 138.574219 C 334.96875 139.753906 328.632812 139.605469 321.851562 138.28125 C 319.199219 137.691406 316.253906 136.804688 313.453125 135.773438 C 311.976562 140.933594 311.242188 143.585938 311.386719 143.585938 C 311.683594 143.882812 311.832031 144.324219 311.535156 144.765625 C 311.386719 145.207031 310.800781 145.207031 310.503906 145.0625 C 310.210938 144.765625 310.800781 141.523438 312.273438 135.332031 C 303.726562 132.089844 294.585938 126.929688 284.714844 119.707031 C 284.417969 119.558594 284.273438 119.117188 284.417969 118.671875 C 289.722656 106.730469 295.472656 96.117188 301.515625 86.832031 C 299.15625 84.175781 297.242188 81.226562 295.472656 77.984375 C 295.472656 77.984375 295.472656 77.984375 295.324219 77.835938 C 295.175781 77.394531 295.03125 76.953125 294.882812 76.511719 L 267.914062 92.136719 C 270.269531 96.117188 273.367188 99.804688 277.050781 103.195312 C 277.34375 103.488281 277.492188 104.078125 277.199219 104.375 C 276.753906 104.667969 276.3125 104.816406 276.019531 104.375 C 272.1875 100.984375 268.945312 97.148438 266.4375 93.023438 L 257.746094 98.035156 C 257.300781 98.183594 256.859375 98.035156 256.566406 97.738281 C 256.417969 97.296875 256.566406 96.855469 256.859375 96.558594 L 265.554688 91.546875 C 261.132812 84.03125 258.777344 75.332031 258.332031 65.601562 C 258.039062 61.03125 258.332031 56.019531 259.070312 50.859375 C 259.070312 50.859375 259.070312 50.859375 259.070312 50.710938 C 259.808594 44.964844 261.28125 39.066406 263.195312 32.726562 C 258.921875 31.402344 254.945312 29.777344 250.816406 27.566406 C 250.523438 27.421875 250.375 26.832031 250.523438 26.535156 C 250.671875 26.09375 251.257812 25.945312 251.703125 26.09375 C 255.535156 28.15625 259.511719 29.925781 263.640625 31.105469 C 265.554688 25.0625 268.058594 18.722656 271.007812 12.089844 C 267.765625 10.761719 264.230469 9.433594 260.839844 7.960938 Z M 302.398438 25.503906 C 301.367188 24.914062 300.1875 24.472656 299.007812 23.882812 C 297.535156 28.011719 296.355469 31.988281 295.472656 35.96875 C 295.914062 35.96875 296.210938 36.117188 296.503906 36.117188 C 302.839844 37.59375 309.179688 39.359375 315.367188 41.71875 C 315.808594 41.867188 316.105469 42.457031 315.957031 42.898438 C 315.664062 43.195312 315.21875 43.488281 314.777344 43.339844 C 308.589844 40.984375 302.398438 39.066406 296.210938 37.738281 C 295.914062 37.738281 295.472656 37.59375 295.175781 37.59375 C 294.292969 41.277344 293.851562 44.816406 293.554688 48.355469 L 325.683594 46.585938 C 325.683594 43.785156 326.125 40.835938 327.011719 37.59375 C 320.671875 34.054688 312.421875 30.074219 302.398438 25.503906 Z M 297.386719 23.292969 C 290.019531 19.902344 281.765625 16.511719 272.480469 12.679688 C 269.535156 19.3125 267.175781 25.503906 265.261719 31.546875 C 269.238281 32.578125 273.367188 33.316406 277.492188 33.464844 C 282.945312 33.90625 288.398438 34.496094 293.851562 35.675781 C 294.734375 31.546875 295.914062 27.421875 297.386719 23.292969 Z M 264.816406 33.167969 C 262.902344 39.066406 261.722656 44.667969 260.839844 49.976562 L 291.789062 48.355469 C 292.230469 44.816406 292.671875 40.984375 293.554688 37.296875 C 288.101562 36.117188 282.796875 35.527344 277.34375 35.234375 C 273.070312 34.9375 268.945312 34.203125 264.816406 33.167969 Z M 260.691406 51.746094 C 259.953125 56.609375 259.808594 61.179688 259.953125 65.601562 C 260.398438 75.035156 262.753906 83.441406 267.027344 90.8125 L 294.441406 74.890625 C 292.230469 67.519531 291.34375 59.851562 291.640625 51.597656 C 291.640625 51.15625 291.640625 50.566406 291.789062 50.121094 Z M 293.410156 49.976562 C 293.410156 50.566406 293.261719 51.15625 293.261719 51.746094 C 292.964844 59.558594 293.851562 67.074219 295.914062 74.152344 L 327.601562 55.871094 C 326.566406 53.511719 325.980469 51.007812 325.683594 48.355469 Z M 296.355469 75.773438 C 296.503906 76.214844 296.796875 76.804688 296.945312 77.25 C 298.566406 80.195312 300.335938 82.851562 302.398438 85.355469 C 303.726562 83.441406 305.050781 81.671875 306.378906 79.753906 C 311.976562 72.089844 317.726562 65.453125 323.769531 59.851562 Z M 303.578125 86.683594 C 305.789062 89.335938 308.292969 91.84375 311.09375 94.054688 C 314.335938 96.707031 317.726562 99.066406 321.558594 101.128906 C 324.652344 90.367188 328.335938 77.691406 332.609375 62.949219 C 331.429688 61.917969 330.398438 60.738281 329.664062 59.410156 C 329.515625 59.261719 329.515625 59.261719 329.515625 59.261719 C 329.222656 58.820312 328.925781 58.378906 328.632812 57.9375 C 321.261719 63.980469 314.335938 71.644531 307.703125 80.785156 C 306.230469 82.703125 304.902344 84.621094 303.578125 86.683594 Z M 310.0625 95.378906 C 307.410156 93.167969 304.902344 90.8125 302.695312 88.15625 C 296.796875 97.148438 291.34375 107.320312 286.1875 118.820312 C 295.621094 125.601562 304.460938 130.613281 312.714844 133.710938 C 314.484375 126.78125 317.285156 116.460938 321.117188 102.898438 C 317.136719 100.539062 313.453125 98.183594 310.0625 95.378906 Z M 323.03125 102.015625 C 325.980469 103.488281 329.074219 104.964844 332.464844 106.289062 C 332.90625 106.585938 333.050781 107.027344 332.90625 107.46875 C 332.757812 107.910156 332.316406 108.058594 331.875 107.910156 C 328.632812 106.585938 325.535156 105.109375 322.589844 103.636719 C 318.609375 117.347656 315.664062 127.519531 313.894531 134.152344 C 316.695312 135.183594 319.496094 136.070312 322.292969 136.660156 C 328.925781 137.984375 335.117188 138.132812 340.863281 136.953125 L 341.453125 108.796875 C 339.980469 108.796875 338.652344 108.648438 337.328125 108.058594 C 336.882812 107.910156 336.589844 107.46875 336.738281 107.027344 C 336.882812 106.585938 337.472656 106.4375 337.917969 106.585938 C 339.09375 107.027344 340.273438 107.175781 341.453125 107.175781 L 342.335938 67.519531 C 341.011719 67.519531 339.832031 67.222656 338.652344 66.78125 C 337.03125 66.191406 335.410156 65.160156 333.9375 64.128906 C 329.664062 78.722656 325.980469 91.402344 323.03125 102.015625 Z M 347.347656 66.929688 C 346.316406 67.371094 345.136719 67.519531 343.957031 67.664062 L 343.074219 107.027344 C 343.515625 106.878906 343.8125 106.878906 344.253906 106.730469 C 346.609375 105.996094 348.96875 104.519531 351.328125 102.457031 C 351.621094 102.164062 351.917969 102.164062 352.210938 102.164062 Z M 347.347656 66.929688 " fill-opacity="1" fill-rule="nonzero"/><path fill="#52666f" d="M 47.144531 269.335938 C 44.933594 269.632812 40.070312 269.925781 32.703125 270.664062 C 21.355469 271.546875 16.195312 273.167969 17.230469 275.527344 C 20.324219 283.046875 53.335938 275.96875 54.957031 281.867188 C 55.25 283.195312 51.273438 284.667969 42.871094 286.140625 C 25.480469 291.007812 26.511719 293.808594 45.671875 294.546875 C 74.703125 295.28125 116.707031 296.316406 171.824219 297.789062 C 217.804688 299.707031 270.269531 300 329.222656 298.820312 C 348.96875 296.757812 357.960938 293.660156 356.042969 289.238281 C 354.273438 286.140625 344.84375 284.519531 327.746094 284.667969 C 318.90625 283.195312 319.199219 281.867188 328.335938 280.539062 C 343.367188 280.097656 350.589844 278.035156 349.851562 274.203125 C 346.609375 271.546875 340.273438 269.777344 330.695312 269.042969 C 319.199219 268.746094 317.726562 267.421875 325.980469 265.0625 C 332.90625 262.851562 334.085938 260.785156 329.367188 258.871094 C 329.367188 258.871094 231.953125 258.722656 36.976562 258.574219 C 30.199219 258.574219 28.871094 259.460938 32.851562 261.082031 C 36.828125 262.996094 40.070312 264.472656 42.28125 265.503906 C 45.378906 266.976562 54.957031 268.746094 47.144531 269.335938 Z M 47.144531 269.335938 " fill-opacity="1" fill-rule="evenodd"/><path fill="#354a4f" d="M 91.503906 288.648438 C 181.847656 284.375 237.257812 284.964844 257.890625 290.417969 C 208.078125 289.089844 149.71875 288.5 82.664062 288.796875 Z M 91.503906 288.648438 " fill-opacity="1" fill-rule="evenodd"/><path fill="#d8faff" d="M 106.683594 272.433594 C 106.683594 272.527344 106.625 272.625 106.503906 272.71875 C 106.382812 272.816406 106.203125 272.90625 105.96875 272.996094 C 105.730469 273.085938 105.441406 273.171875 105.09375 273.25 C 104.75 273.332031 104.359375 273.40625 103.921875 273.476562 C 103.484375 273.542969 103.007812 273.605469 102.492188 273.65625 C 101.976562 273.710938 101.433594 273.757812 100.863281 273.792969 C 100.289062 273.832031 99.699219 273.859375 99.09375 273.878906 C 98.484375 273.898438 97.871094 273.90625 97.253906 273.90625 C 96.632812 273.90625 96.019531 273.898438 95.414062 273.878906 C 94.804688 273.859375 94.214844 273.832031 93.644531 273.792969 C 93.070312 273.757812 92.527344 273.710938 92.011719 273.65625 C 91.496094 273.605469 91.023438 273.542969 90.582031 273.476562 C 90.144531 273.40625 89.753906 273.332031 89.410156 273.25 C 89.066406 273.171875 88.777344 273.085938 88.539062 272.996094 C 88.300781 272.90625 88.125 272.816406 88.003906 272.71875 C 87.882812 272.625 87.820312 272.527344 87.820312 272.433594 C 87.820312 272.335938 87.882812 272.238281 88.003906 272.144531 C 88.125 272.050781 88.300781 271.957031 88.539062 271.867188 C 88.777344 271.777344 89.066406 271.695312 89.410156 271.613281 C 89.753906 271.53125 90.144531 271.457031 90.582031 271.390625 C 91.023438 271.320312 91.496094 271.261719 92.011719 271.207031 C 92.527344 271.152344 93.070312 271.109375 93.644531 271.070312 C 94.214844 271.035156 94.804688 271.003906 95.414062 270.988281 C 96.019531 270.96875 96.632812 270.957031 97.253906 270.957031 C 97.871094 270.957031 98.484375 270.96875 99.09375 270.988281 C 99.699219 271.003906 100.289062 271.035156 100.863281 271.070312 C 101.433594 271.109375 101.976562 271.152344 102.492188 271.207031 C 103.007812 271.261719 103.484375 271.320312 103.921875 271.390625 C 104.359375 271.457031 104.75 271.53125 105.09375 271.613281 C 105.441406 271.695312 105.730469 271.777344 105.96875 271.867188 C 106.203125 271.957031 106.382812 272.050781 106.503906 272.144531 C 106.625 272.238281 106.683594 272.335938 106.683594 272.433594 Z M 106.683594 272.433594 " fill-opacity="1" fill-rule="nonzero"/><path fill="#d8faff" d="M 163.277344 268.15625 C 163.277344 268.253906 163.226562 268.351562 163.121094 268.445312 C 163.015625 268.539062 162.863281 268.632812 162.660156 268.722656 C 162.457031 268.8125 162.207031 268.894531 161.910156 268.976562 C 161.613281 269.058594 161.277344 269.132812 160.902344 269.199219 C 160.527344 269.269531 160.117188 269.328125 159.675781 269.382812 C 159.230469 269.4375 158.765625 269.480469 158.273438 269.519531 C 157.78125 269.554688 157.273438 269.585938 156.753906 269.601562 C 156.230469 269.621094 155.703125 269.632812 155.171875 269.632812 C 154.640625 269.632812 154.113281 269.621094 153.589844 269.601562 C 153.066406 269.585938 152.5625 269.554688 152.070312 269.519531 C 151.578125 269.480469 151.109375 269.4375 150.667969 269.382812 C 150.226562 269.328125 149.816406 269.269531 149.441406 269.199219 C 149.0625 269.132812 148.726562 269.058594 148.433594 268.976562 C 148.136719 268.894531 147.886719 268.8125 147.683594 268.722656 C 147.480469 268.632812 147.324219 268.539062 147.222656 268.445312 C 147.117188 268.351562 147.066406 268.253906 147.066406 268.15625 C 147.066406 268.058594 147.117188 267.964844 147.222656 267.871094 C 147.324219 267.773438 147.480469 267.683594 147.683594 267.59375 C 147.886719 267.503906 148.136719 267.417969 148.433594 267.339844 C 148.726562 267.257812 149.0625 267.183594 149.441406 267.113281 C 149.816406 267.046875 150.226562 266.984375 150.667969 266.929688 C 151.109375 266.878906 151.578125 266.832031 152.070312 266.796875 C 152.5625 266.757812 153.066406 266.730469 153.589844 266.710938 C 154.113281 266.691406 154.640625 266.683594 155.171875 266.683594 C 155.703125 266.683594 156.230469 266.691406 156.753906 266.710938 C 157.273438 266.730469 157.78125 266.757812 158.273438 266.796875 C 158.765625 266.832031 159.230469 266.878906 159.675781 266.929688 C 160.117188 266.984375 160.527344 267.046875 160.902344 267.113281 C 161.277344 267.183594 161.613281 267.257812 161.910156 267.339844 C 162.207031 267.417969 162.457031 267.503906 162.660156 267.59375 C 162.863281 267.683594 163.015625 267.773438 163.121094 267.871094 C 163.226562 267.964844 163.277344 268.058594 163.277344 268.15625 Z M 163.277344 268.15625 " fill-opacity="1" fill-rule="nonzero"/><path fill="#d8faff" d="M 222.226562 280.835938 C 222.226562 280.914062 222.140625 280.988281 221.96875 281.066406 C 221.796875 281.140625 221.542969 281.214844 221.207031 281.285156 C 220.867188 281.359375 220.457031 281.425781 219.964844 281.492188 C 219.476562 281.554688 218.921875 281.613281 218.296875 281.667969 C 217.675781 281.722656 217 281.773438 216.265625 281.816406 C 215.535156 281.859375 214.761719 281.894531 213.949219 281.925781 C 213.132812 281.953125 212.296875 281.976562 211.433594 281.992188 C 210.570312 282.007812 209.695312 282.015625 208.816406 282.015625 C 207.933594 282.015625 207.0625 282.007812 206.199219 281.992188 C 205.335938 281.976562 204.496094 281.953125 203.683594 281.925781 C 202.871094 281.894531 202.097656 281.859375 201.363281 281.816406 C 200.632812 281.773438 199.957031 281.722656 199.332031 281.667969 C 198.710938 281.613281 198.152344 281.554688 197.664062 281.492188 C 197.175781 281.425781 196.761719 281.359375 196.425781 281.285156 C 196.089844 281.214844 195.835938 281.140625 195.664062 281.066406 C 195.492188 280.988281 195.40625 280.914062 195.40625 280.835938 C 195.40625 280.757812 195.492188 280.679688 195.664062 280.605469 C 195.835938 280.527344 196.089844 280.457031 196.425781 280.382812 C 196.761719 280.3125 197.175781 280.246094 197.664062 280.179688 C 198.152344 280.117188 198.710938 280.054688 199.332031 280 C 199.957031 279.945312 200.632812 279.898438 201.363281 279.855469 C 202.097656 279.8125 202.871094 279.773438 203.683594 279.746094 C 204.496094 279.714844 205.335938 279.695312 206.199219 279.679688 C 207.0625 279.664062 207.933594 279.65625 208.816406 279.65625 C 209.695312 279.65625 210.570312 279.664062 211.433594 279.679688 C 212.296875 279.695312 213.132812 279.714844 213.949219 279.746094 C 214.761719 279.773438 215.535156 279.8125 216.265625 279.855469 C 217 279.898438 217.675781 279.945312 218.296875 280 C 218.921875 280.054688 219.476562 280.117188 219.964844 280.179688 C 220.457031 280.246094 220.867188 280.3125 221.207031 280.382812 C 221.542969 280.457031 221.796875 280.527344 221.96875 280.605469 C 222.140625 280.679688 222.226562 280.757812 222.226562 280.835938 Z M 222.226562 280.835938 " fill-opacity="1" fill-rule="nonzero"/><path fill="#354a4f" d="M 315.515625 277.148438 C 325.535156 275.96875 330.546875 275.378906 330.546875 275.378906 C 317.136719 274.347656 307.851562 273.757812 302.546875 273.464844 C 246.101562 271.546875 185.824219 271.253906 121.863281 272.726562 C 184.5 274.9375 249.050781 276.414062 315.515625 277.148438 Z M 315.515625 277.148438 " fill-opacity="1" fill-rule="evenodd"/><path fill="#354a4f" d="M 145.886719 265.503906 C 186.414062 264.765625 235.046875 264.324219 291.789062 264.175781 C 278.964844 259.753906 235.636719 259.460938 161.507812 263.585938 C 142.792969 263.441406 116.558594 264.914062 82.808594 267.863281 C 97.402344 267.273438 118.476562 266.535156 145.886719 265.503906 Z M 145.886719 265.503906 " fill-opacity="1" fill-rule="evenodd"/><path fill="#a2ab3e" d="M 84.578125 281.128906 C 84.578125 281.128906 76.03125 281.128906 58.640625 281.128906 C 54.660156 257.101562 52.597656 245.160156 52.597656 245.160156 C 60.703125 262.703125 64.832031 271.402344 64.832031 271.402344 C 62.179688 246.488281 60.851562 234.101562 60.851562 234.101562 C 68.808594 255.480469 72.640625 266.242188 72.640625 266.242188 C 70.871094 225.257812 70.726562 232.921875 75.882812 267.566406 C 78.390625 244.128906 79.714844 232.335938 79.714844 232.335938 C 82.222656 254.890625 83.546875 266.242188 83.546875 266.242188 C 85.609375 249.289062 86.9375 241.621094 87.378906 242.949219 C 85.609375 268.304688 84.578125 281.128906 84.578125 281.128906 Z M 84.578125 281.128906 " fill-opacity="1" fill-rule="evenodd"/><path fill="#a2ab3e" d="M 136.308594 250.023438 C 132.035156 271.253906 129.96875 281.71875 129.96875 281.71875 C 129.96875 281.71875 124.515625 281.71875 113.613281 281.574219 C 108.011719 260.492188 105.210938 250.023438 105.210938 250.023438 C 113.464844 262.554688 117.589844 268.894531 117.589844 268.894531 C 111.695312 248.699219 108.601562 238.671875 108.601562 238.671875 C 114.347656 254.300781 117.148438 262.113281 117.148438 262.113281 C 117.148438 230.710938 117.148438 214.9375 117.148438 214.9375 C 121.71875 245.75 123.929688 261.082031 123.929688 261.082031 C 126.433594 241.03125 127.613281 231.15625 127.613281 231.15625 C 129.234375 251.054688 129.96875 261.082031 129.96875 261.082031 C 134.832031 252.824219 137.191406 248.699219 137.191406 248.699219 Z M 136.308594 250.023438 " fill-opacity="1" fill-rule="evenodd"/><path fill="#a2ab3e" d="M 195.550781 250.46875 C 191.277344 271.546875 189.214844 282.164062 189.214844 282.164062 C 189.214844 282.164062 183.761719 282.164062 172.855469 282.015625 C 167.109375 260.933594 164.308594 250.46875 164.308594 250.46875 C 172.707031 262.996094 176.835938 269.335938 176.835938 269.335938 C 170.941406 249.140625 167.84375 239.117188 167.84375 239.117188 C 173.59375 254.742188 176.394531 262.554688 176.394531 262.554688 C 176.394531 231.15625 176.246094 215.378906 176.246094 215.378906 C 180.816406 246.191406 183.171875 261.523438 183.171875 261.523438 C 185.679688 241.472656 186.855469 231.449219 186.855469 231.449219 C 188.476562 251.5 189.214844 261.523438 189.214844 261.523438 C 193.929688 253.269531 196.4375 248.992188 196.4375 248.992188 Z M 195.550781 250.46875 " fill-opacity="1" fill-rule="evenodd"/><path fill="#a2ab3e" d="M 341.746094 244.273438 C 336.882812 268.746094 334.378906 280.984375 334.378906 280.984375 C 334.378906 280.984375 328.042969 280.835938 315.367188 280.835938 C 308.882812 256.363281 305.640625 244.273438 305.640625 244.273438 C 315.367188 258.722656 320.082031 265.945312 320.082031 265.945312 C 313.15625 242.652344 309.765625 231.007812 309.765625 231.007812 C 316.398438 249.140625 319.640625 258.132812 319.640625 258.132812 C 319.496094 221.71875 319.496094 203.585938 319.496094 203.585938 C 324.800781 239.261719 327.453125 257.101562 327.453125 257.101562 C 330.253906 233.808594 331.726562 222.308594 331.726562 222.308594 C 333.496094 245.453125 334.378906 257.101562 334.378906 257.101562 C 339.980469 247.371094 342.78125 242.652344 342.78125 242.652344 Z M 341.746094 244.273438 " fill-opacity="1" fill-rule="evenodd"/><path fill="#868d25" d="M 277.199219 223.785156 C 272.480469 247.222656 270.125 258.871094 270.125 258.871094 C 270.125 258.871094 264.082031 258.871094 251.996094 258.722656 C 245.660156 235.429688 242.566406 223.636719 242.566406 223.636719 C 251.847656 237.640625 256.417969 244.570312 256.417969 244.570312 C 249.785156 222.308594 246.542969 211.105469 246.542969 211.105469 C 252.878906 228.355469 255.976562 237.050781 255.976562 237.050781 C 255.828125 202.261719 255.828125 184.71875 255.828125 184.71875 C 260.988281 218.917969 263.492188 236.019531 263.492188 236.019531 C 266.144531 213.757812 267.472656 202.703125 267.472656 202.703125 C 269.238281 224.964844 270.125 236.019531 270.125 236.019531 C 275.429688 226.730469 278.082031 222.164062 278.082031 222.164062 Z M 277.199219 223.785156 " fill-opacity="1" fill-rule="evenodd"/><path fill="#d8faff" d="M 307.410156 292.777344 C 307.410156 292.863281 307.304688 292.949219 307.101562 293.035156 C 306.894531 293.121094 306.589844 293.203125 306.1875 293.285156 C 305.78125 293.363281 305.289062 293.441406 304.703125 293.511719 C 304.117188 293.585938 303.449219 293.652344 302.703125 293.714844 C 301.957031 293.777344 301.148438 293.832031 300.269531 293.878906 C 299.394531 293.929688 298.46875 293.96875 297.492188 294.003906 C 296.519531 294.035156 295.515625 294.0625 294.480469 294.078125 C 293.445312 294.09375 292.402344 294.101562 291.34375 294.101562 C 290.289062 294.101562 289.246094 294.09375 288.210938 294.078125 C 287.175781 294.0625 286.171875 294.035156 285.199219 294.003906 C 284.222656 293.96875 283.296875 293.929688 282.421875 293.878906 C 281.542969 293.832031 280.734375 293.777344 279.988281 293.714844 C 279.242188 293.652344 278.574219 293.585938 277.988281 293.511719 C 277.402344 293.441406 276.910156 293.363281 276.503906 293.285156 C 276.101562 293.203125 275.796875 293.121094 275.589844 293.035156 C 275.382812 292.949219 275.28125 292.863281 275.28125 292.777344 C 275.28125 292.6875 275.382812 292.601562 275.589844 292.515625 C 275.796875 292.433594 276.101562 292.347656 276.503906 292.269531 C 276.90625 292.1875 277.402344 292.113281 277.988281 292.039062 C 278.574219 291.964844 279.242188 291.898438 279.988281 291.839844 C 280.734375 291.777344 281.542969 291.722656 282.421875 291.671875 C 283.296875 291.625 284.222656 291.582031 285.199219 291.550781 C 286.171875 291.515625 287.175781 291.492188 288.210938 291.476562 C 289.246094 291.457031 290.289062 291.449219 291.34375 291.449219 C 292.402344 291.449219 293.445312 291.457031 294.480469 291.476562 C 295.515625 291.492188 296.519531 291.515625 297.492188 291.550781 C 298.46875 291.582031 299.394531 291.625 300.269531 291.671875 C 301.148438 291.722656 301.957031 291.777344 302.703125 291.839844 C 303.449219 291.898438 304.117188 291.964844 304.703125 292.039062 C 305.289062 292.113281 305.78125 292.1875 306.1875 292.269531 C 306.589844 292.347656 306.894531 292.433594 307.101562 292.515625 C 307.304688 292.601562 307.410156 292.6875 307.410156 292.777344 Z M 307.410156 292.777344 " fill-opacity="1" fill-rule="nonzero"/><path fill="#868d25" d="M 185.234375 227.617188 C 189.507812 248.699219 191.574219 259.3125 191.574219 259.3125 C 191.574219 259.3125 197.027344 259.3125 208.078125 259.164062 C 213.679688 238.082031 216.480469 227.617188 216.480469 227.617188 C 208.078125 240.148438 203.953125 246.339844 203.953125 246.339844 C 209.996094 226.289062 212.941406 216.265625 212.941406 216.265625 C 207.195312 231.890625 204.394531 239.707031 204.394531 239.707031 C 204.394531 208.15625 204.542969 192.53125 204.542969 192.53125 C 199.972656 223.339844 197.617188 238.671875 197.617188 238.671875 C 195.257812 218.625 193.929688 208.597656 193.929688 208.597656 C 192.457031 228.648438 191.574219 238.671875 191.574219 238.671875 C 186.855469 230.269531 184.5 226.140625 184.5 226.140625 Z M 185.234375 227.617188 " fill-opacity="1" fill-rule="evenodd"/><path fill="#a2ab3e" d="M 260.542969 253.269531 C 256.859375 271.988281 254.945312 281.425781 254.945312 281.425781 C 254.945312 281.425781 250.082031 281.425781 240.355469 281.277344 C 235.492188 262.554688 232.984375 253.269531 232.984375 253.269531 C 240.355469 264.324219 244.039062 269.925781 244.039062 269.925781 C 238.734375 252.089844 236.082031 243.097656 236.082031 243.097656 C 241.089844 256.953125 243.597656 264.03125 243.597656 264.03125 C 243.597656 236.019531 243.449219 222.164062 243.449219 222.164062 C 247.574219 249.433594 249.636719 263.144531 249.636719 263.144531 C 251.703125 245.308594 252.878906 236.460938 252.878906 236.460938 C 254.207031 254.152344 254.945312 263.144531 254.945312 263.144531 C 259.21875 255.625 261.28125 251.941406 261.28125 251.941406 Z M 260.542969 253.269531 " fill-opacity="1" fill-rule="evenodd"/></svg>