<svg xmlns="http://www.w3.org/2000/svg" xmlns:xlink="http://www.w3.org/1999/xlink" width="500" zoomAndPan="magnify" viewBox="0 0 375 299.999988" height="400" preserveAspectRatio="xMidYMid meet" version="1.0"><defs><clipPath id="0fe1969424"><path d="M 19.65625 223 L 355.65625 223 L 355.65625 297 L 19.65625 297 Z M 19.65625 223 " clip-rule="nonzero"/></clipPath></defs><rect x="-37.5" width="450" fill="#ffffff" y="-29.999999" height="359.999986" fill-opacity="1"/><rect x="-37.5" width="450" fill="#ffffff" y="-29.999999" height="359.999986" fill-opacity="1"/><path fill="#e1cfba" d="M 46.425781 279.417969 C 24.5 146.992188 32.738281 143.394531 72.449219 99.734375 C 107.605469 61.082031 75.6875 35.503906 128.25 20.007812 C 195.921875 0.0546875 226.621094 38.199219 251.453125 40.40625 C 265.523438 41.65625 324.371094 38.054688 321.394531 90.164062 C 320.074219 113.21875 292.40625 135.324219 311.714844 165.515625 C 330.117188 194.285156 333.640625 195.726562 321.75 227.332031 C 310.097656 258.3125 335.597656 291.070312 272.769531 288.136719 C 157.210938 282.734375 156.109375 299.949219 95.949219 286.195312 C 70.011719 280.265625 69.53125 283.292969 44.371094 274.511719 " fill-opacity="1" fill-rule="evenodd"/><g clip-path="url(#0fe1969424)"><path fill="#9db4c1" d="M 355.65625 259.859375 C 355.65625 260.460938 355.585938 261.066406 355.453125 261.667969 C 355.316406 262.269531 355.113281 262.871094 354.84375 263.472656 C 354.578125 264.074219 354.238281 264.671875 353.835938 265.269531 C 353.433594 265.863281 352.964844 266.457031 352.425781 267.050781 C 351.890625 267.640625 351.289062 268.230469 350.621094 268.816406 C 349.953125 269.402344 349.21875 269.980469 348.421875 270.558594 C 347.621094 271.136719 346.761719 271.707031 345.832031 272.277344 C 344.90625 272.84375 343.917969 273.40625 342.867188 273.964844 C 341.8125 274.523438 340.699219 275.074219 339.523438 275.617188 C 338.347656 276.164062 337.113281 276.703125 335.816406 277.234375 C 334.519531 277.765625 333.167969 278.292969 331.753906 278.808594 C 330.339844 279.324219 328.867188 279.835938 327.339844 280.335938 C 325.8125 280.839844 324.230469 281.332031 322.59375 281.816406 C 320.957031 282.300781 319.265625 282.777344 317.519531 283.242188 C 315.777344 283.707031 313.980469 284.164062 312.132812 284.613281 C 310.289062 285.058594 308.390625 285.496094 306.449219 285.921875 C 304.503906 286.347656 302.511719 286.765625 300.476562 287.167969 C 298.4375 287.574219 296.355469 287.96875 294.230469 288.351562 C 292.105469 288.734375 289.941406 289.105469 287.730469 289.464844 C 285.523438 289.824219 283.277344 290.171875 280.988281 290.507812 C 278.703125 290.839844 276.382812 291.164062 274.023438 291.472656 C 271.664062 291.785156 269.273438 292.082031 266.847656 292.367188 C 264.421875 292.648438 261.96875 292.921875 259.484375 293.179688 C 256.996094 293.4375 254.484375 293.679688 251.945312 293.914062 C 249.402344 294.144531 246.839844 294.359375 244.25 294.5625 C 241.660156 294.765625 239.050781 294.957031 236.421875 295.128906 C 233.789062 295.304688 231.140625 295.464844 228.472656 295.613281 C 225.804688 295.761719 223.125 295.890625 220.429688 296.007812 C 217.730469 296.128906 215.023438 296.230469 212.304688 296.320312 C 209.582031 296.40625 206.855469 296.480469 204.121094 296.539062 C 201.382812 296.597656 198.640625 296.644531 195.894531 296.671875 C 193.148438 296.703125 190.402344 296.71875 187.652344 296.71875 C 184.902344 296.71875 182.15625 296.703125 179.410156 296.671875 C 176.664062 296.644531 173.921875 296.597656 171.183594 296.539062 C 168.449219 296.480469 165.722656 296.40625 163 296.320312 C 160.28125 296.230469 157.574219 296.128906 154.875 296.007812 C 152.179688 295.890625 149.496094 295.761719 146.832031 295.613281 C 144.164062 295.464844 141.515625 295.304688 138.882812 295.128906 C 136.253906 294.957031 133.644531 294.765625 131.054688 294.5625 C 128.464844 294.359375 125.902344 294.144531 123.359375 293.914062 C 120.820312 293.679688 118.308594 293.4375 115.820312 293.179688 C 113.335938 292.921875 110.882812 292.648438 108.457031 292.367188 C 106.03125 292.082031 103.640625 291.785156 101.28125 291.472656 C 98.921875 291.164062 96.601562 290.839844 94.316406 290.507812 C 92.027344 290.171875 89.78125 289.824219 87.574219 289.464844 C 85.363281 289.105469 83.199219 288.734375 81.074219 288.351562 C 78.945312 287.96875 76.867188 287.574219 74.828125 287.167969 C 72.792969 286.765625 70.800781 286.347656 68.855469 285.921875 C 66.914062 285.496094 65.015625 285.058594 63.171875 284.613281 C 61.324219 284.164062 59.527344 283.707031 57.785156 283.242188 C 56.039062 282.777344 54.347656 282.300781 52.710938 281.816406 C 51.074219 281.332031 49.492188 280.839844 47.964844 280.335938 C 46.4375 279.835938 44.964844 279.324219 43.550781 278.808594 C 42.136719 278.292969 40.785156 277.765625 39.488281 277.234375 C 38.191406 276.703125 36.957031 276.164062 35.78125 275.617188 C 34.605469 275.074219 33.492188 274.523438 32.4375 273.964844 C 31.386719 273.40625 30.398438 272.84375 29.46875 272.277344 C 28.542969 271.707031 27.683594 271.136719 26.882812 270.558594 C 26.085938 269.980469 25.351562 269.402344 24.683594 268.816406 C 24.015625 268.230469 23.414062 267.640625 22.878906 267.050781 C 22.339844 266.457031 21.871094 265.863281 21.46875 265.269531 C 21.066406 264.671875 20.726562 264.074219 20.457031 263.472656 C 20.1875 262.871094 19.988281 262.269531 19.851562 261.667969 C 19.71875 261.066406 19.648438 260.460938 19.648438 259.859375 C 19.648438 259.257812 19.71875 258.652344 19.851562 258.050781 C 19.988281 257.449219 20.1875 256.847656 20.457031 256.246094 C 20.726562 255.644531 21.066406 255.046875 21.46875 254.453125 C 21.871094 253.855469 22.339844 253.261719 22.878906 252.667969 C 23.414062 252.078125 24.015625 251.488281 24.683594 250.902344 C 25.351562 250.320312 26.085938 249.738281 26.882812 249.160156 C 27.683594 248.582031 28.542969 248.011719 29.46875 247.441406 C 30.398438 246.875 31.386719 246.3125 32.4375 245.753906 C 33.492188 245.195312 34.605469 244.644531 35.78125 244.101562 C 36.957031 243.554688 38.191406 243.015625 39.488281 242.484375 C 40.785156 241.953125 42.136719 241.429688 43.550781 240.910156 C 44.964844 240.394531 46.4375 239.882812 47.964844 239.382812 C 49.492188 238.878906 51.074219 238.386719 52.710938 237.902344 C 54.347656 237.417969 56.039062 236.941406 57.785156 236.476562 C 59.527344 236.011719 61.324219 235.554688 63.171875 235.105469 C 65.015625 234.660156 66.914062 234.222656 68.855469 233.796875 C 70.800781 233.371094 72.792969 232.953125 74.828125 232.550781 C 76.867188 232.144531 78.945312 231.75 81.074219 231.367188 C 83.199219 230.984375 85.363281 230.613281 87.574219 230.253906 C 89.78125 229.894531 92.027344 229.546875 94.316406 229.214844 C 96.601562 228.878906 98.921875 228.554688 101.28125 228.246094 C 103.640625 227.933594 106.03125 227.636719 108.457031 227.351562 C 110.882812 227.070312 113.335938 226.796875 115.820312 226.539062 C 118.308594 226.28125 120.820312 226.039062 123.359375 225.808594 C 125.902344 225.574219 128.464844 225.359375 131.054688 225.15625 C 133.644531 224.953125 136.253906 224.761719 138.882812 224.589844 C 141.515625 224.414062 144.164062 224.253906 146.832031 224.105469 C 149.5 223.960938 152.179688 223.828125 154.875 223.710938 C 157.574219 223.589844 160.28125 223.488281 163 223.398438 C 165.722656 223.3125 168.449219 223.238281 171.183594 223.179688 C 173.921875 223.121094 176.664062 223.074219 179.410156 223.046875 C 182.15625 223.015625 184.902344 223 187.652344 223 C 190.402344 223 193.148438 223.015625 195.894531 223.046875 C 198.640625 223.074219 201.382812 223.121094 204.121094 223.179688 C 206.855469 223.238281 209.582031 223.3125 212.304688 223.398438 C 215.023438 223.488281 217.730469 223.589844 220.429688 223.710938 C 223.125 223.828125 225.804688 223.960938 228.472656 224.105469 C 231.140625 224.253906 233.789062 224.414062 236.421875 224.589844 C 239.050781 224.761719 241.660156 224.953125 244.25 225.15625 C 246.839844 225.359375 249.402344 225.574219 251.945312 225.808594 C 254.484375 226.039062 256.996094 226.28125 259.484375 226.539062 C 261.96875 226.796875 264.421875 227.070312 266.847656 227.351562 C 269.273438 227.636719 271.664062 227.933594 274.023438 228.246094 C 276.382812 228.554688 278.703125 228.878906 280.988281 229.214844 C 283.277344 229.546875 285.523438 229.894531 287.730469 230.253906 C 289.941406 230.613281 292.105469 230.984375 294.230469 231.367188 C 296.355469 231.75 298.4375 232.144531 300.476562 232.550781 C 302.511719 232.953125 304.503906 233.371094 306.449219 233.796875 C 308.390625 234.222656 310.289062 234.660156 312.132812 235.105469 C 313.980469 235.554688 315.777344 236.011719 317.519531 236.476562 C 319.265625 236.941406 320.957031 237.417969 322.59375 237.902344 C 324.230469 238.386719 325.8125 238.878906 327.339844 239.382812 C 328.867188 239.882812 330.339844 240.394531 331.753906 240.910156 C 333.167969 241.429688 334.519531 241.953125 335.816406 242.484375 C 337.113281 243.015625 338.347656 243.554688 339.523438 244.101562 C 340.699219 244.644531 341.8125 245.195312 342.867188 245.753906 C 343.917969 246.3125 344.90625 246.875 345.832031 247.441406 C 346.761719 248.011719 347.621094 248.582031 348.421875 249.160156 C 349.21875 249.738281 349.953125 250.320312 350.621094 250.902344 C 351.289062 251.488281 351.890625 252.078125 352.425781 252.667969 C 352.964844 253.261719 353.433594 253.855469 353.835938 254.453125 C 354.238281 255.046875 354.574219 255.644531 354.84375 256.246094 C 355.113281 256.847656 355.316406 257.449219 355.453125 258.050781 C 355.585938 258.652344 355.65625 259.257812 355.65625 259.859375 Z M 355.65625 259.859375 " fill-opacity="1" fill-rule="nonzero"/></g><path fill="#9a7257" d="M 63.898438 178.863281 C 69.070312 160.75 61.070312 154.546875 64.445312 145.542969 C 69.117188 133.074219 69.929688 163.167969 70.746094 169.308594 C 77.453125 165.929688 78.699219 174.863281 84.433594 178.40625 C 103.304688 190.054688 131.003906 190.917969 145.785156 193.675781 C 217.113281 206.980469 253.925781 209.140625 259.324219 208.53125 C 302.242188 203.667969 301.523438 197.09375 312.078125 173.214844 C 318.734375 158.152344 325.453125 153.027344 326.636719 160.476562 C 326.886719 162.035156 325.648438 186.601562 320.78125 202.007812 C 319.691406 205.457031 313.292969 225.714844 303.71875 243.851562 C 299.425781 251.976562 296.605469 257.605469 292.601562 260.292969 C 285.136719 265.304688 275.109375 262.261719 254.617188 261.492188 C 240.816406 260.972656 236.40625 259.566406 217.445312 258.519531 C 209.042969 258.054688 197.925781 256.375 181.421875 257.535156 C 151.410156 259.640625 149.222656 262.097656 117.03125 253.898438 C 111.15625 252.402344 74.996094 249.054688 62.472656 228.085938 C 44.984375 198.800781 58.066406 186.609375 64.140625 178.40625 " fill-opacity="1" fill-rule="evenodd"/><path fill="#604837" d="M 75.527344 207.046875 C 65.972656 204.457031 60.285156 202.980469 61.03125 196.261719 C 62.054688 187.019531 72.085938 179.855469 77.277344 179.894531 C 80.664062 179.917969 79.839844 184.28125 134.695312 191.476562 C 147.875 193.203125 204.851562 204.871094 226.691406 206.023438 C 233.058594 206.359375 250.382812 208.503906 258.058594 208.605469 C 272.179688 208.796875 278.683594 207.042969 291.8125 202.898438 C 279.785156 216.121094 224.003906 221.074219 206.753906 218.53125 C 203.996094 218.125 200.988281 217.980469 200.484375 217.957031 C 198.789062 217.875 197.089844 217.917969 195.390625 217.914062 C 190.96875 217.90625 158.738281 216.839844 145.433594 216.035156 C 98.003906 213.164062 80.453125 208.503906 74.953125 207.042969 " fill-opacity="1" fill-rule="evenodd"/><path fill="#7c5e49" d="M 96.492188 210.863281 C 103.8125 209.050781 110.089844 207.734375 133.394531 204.578125 C 145.847656 202.890625 145.707031 205.195312 158.832031 206.507812 C 145.886719 210.984375 145.34375 207.722656 123.351562 211.585938 C 110.132812 213.910156 110.015625 214.191406 96.855469 211.214844 " fill-opacity="1" fill-rule="evenodd"/><path fill="#b3b3b3" d="M 166.78125 92.023438 C 164.667969 108.757812 152.445312 107.875 158.867188 116.433594 C 161.878906 120.441406 163.5625 119.882812 162.851562 122.621094 C 149.796875 172.839844 156.417969 187.535156 152.273438 204.121094 C 143.714844 238.339844 148.117188 239.46875 137.910156 264.726562 C 160.140625 265.308594 168.949219 267.355469 191.9375 277.585938 C 201.429688 281.808594 201.703125 280.804688 233.785156 282.789062 C 223.675781 266.566406 220.300781 264.65625 203.777344 215.230469 C 186.679688 164.097656 191.675781 156.9375 186.679688 143.140625 C 184.324219 136.632812 188.324219 125.316406 183.152344 103.214844 C 182.570312 100.730469 181.769531 97.308594 192.675781 72.757812 C 180.664062 71.089844 185.546875 78.84375 179.410156 87.480469 C 177.980469 89.492188 175.808594 87.40625 174.636719 87.109375 C 172.648438 86.601562 166.738281 90.855469 166.121094 91.300781 " fill-opacity="1" fill-rule="evenodd"/><path fill="#223a54" d="M 188.410156 146.125 C 188.269531 171.222656 203.375 216.457031 205.136719 217.808594 C 206.0625 218.519531 206.167969 218.601562 219.726562 218.644531 C 221.4375 218.648438 222.007812 218.742188 221.804688 217.035156 C 218.171875 186.601562 215.757812 187.066406 214.796875 179.167969 C 213.429688 167.960938 218.210938 163.628906 218.710938 156.472656 C 219.386719 146.8125 213.3125 135.683594 213.191406 135.421875 C 201.542969 142.570312 201.738281 143.316406 188.242188 145.535156 " fill-opacity="1" fill-rule="evenodd"/><path fill="#c5b394" d="M 159.097656 140.945312 C 158.957031 157.792969 168.917969 148.035156 171.578125 145.617188 C 184.050781 134.300781 185.933594 128.078125 184.960938 111.164062 C 186.625 126.828125 184.824219 146.742188 189.421875 146.515625 C 189.523438 146.507812 216.183594 138.121094 214.625 130.707031 C 208.171875 99.941406 200.648438 92.675781 205.875 91.335938 C 208.773438 90.59375 220.605469 92.644531 216.292969 83.09375 C 215.421875 81.164062 206.675781 72.359375 197.921875 68.519531 C 195.1875 67.320312 195.714844 75.066406 195.730469 75.652344 C 189.351562 77.605469 185.707031 75.128906 183.601562 80.394531 C 180.839844 87.300781 180.039062 86.816406 177.628906 90.746094 C 171.527344 100.695312 174.636719 116.808594 173.15625 124.105469 C 171.738281 131.09375 165.09375 134.429688 159.226562 141.03125 " fill-opacity="1" fill-rule="evenodd"/><path fill="#f88c62" d="M 158.554688 141.039062 C 146.519531 151.683594 155.691406 160.953125 160.140625 155.394531 C 163.226562 151.535156 160.9375 149.167969 160.75 148.773438 C 159.75 146.644531 160.539062 144.929688 158.90625 141.113281 " fill-opacity="1" fill-rule="evenodd"/><path fill="#f88c62" d="M 175.355469 86.707031 C 177.574219 88.105469 179.136719 89.652344 179.890625 88.371094 C 183.894531 81.570312 185.617188 79.277344 183.003906 78.15625 C 182.445312 77.917969 179.140625 82.398438 178.84375 82.800781 C 177.257812 84.953125 176.796875 84.542969 175.347656 86.757812 " fill-opacity="1" fill-rule="evenodd"/><path fill="#f88c62" d="M 181.84375 65.820312 C 187.714844 61.886719 188.285156 61.511719 192.410156 63.832031 C 195.304688 65.457031 196.574219 69.777344 196.519531 70.210938 C 196.101562 73.457031 194.589844 73.363281 194.28125 73.34375 C 191.648438 73.179688 191.628906 72.757812 189.09375 73.484375 C 187.320312 73.992188 184.574219 73.625 185.300781 71.53125 C 186.660156 67.640625 181.878906 67.757812 181.8125 65.71875 " fill-opacity="1" fill-rule="evenodd"/><path fill="#9a7257" d="M 154.222656 92.523438 C 150.351562 86.523438 154.519531 86.136719 156.011719 74.609375 C 156.882812 67.839844 157.074219 65.902344 166.234375 65.753906 C 167.574219 65.730469 179.390625 65.539062 182.953125 67.042969 C 191.386719 70.609375 176.832031 86.316406 170.152344 89.78125 C 163.90625 93.023438 155.6875 97.761719 154.222656 92.523438 Z M 154.222656 92.523438 " fill-opacity="1" fill-rule="evenodd"/><path fill="#000000" d="M 163.558594 120.804688 C 163.523438 120.835938 163.328125 121.019531 163.019531 121.007812 C 162.921875 121.003906 162.824219 120.984375 162.734375 120.941406 C 162.53125 120.847656 162.550781 120.820312 162.390625 120.660156 C 161.105469 119.363281 157.121094 116.777344 156.40625 113.199219 C 156.351562 112.921875 155.9375 111.347656 158.117188 107.910156 C 159.222656 106.171875 160.710938 104.441406 161.957031 103.488281 C 163.496094 102.3125 164.148438 100.289062 165.8125 93.964844 C 165.960938 93.390625 166.570312 91.066406 166.574219 91.0625 C 166.617188 90.96875 166.648438 90.863281 166.710938 90.78125 C 166.738281 90.742188 166.902344 90.519531 167.222656 90.476562 C 167.269531 90.46875 167.550781 90.425781 167.824219 90.632812 C 167.859375 90.660156 168.085938 90.828125 168.125 91.148438 C 168.136719 91.25 168.113281 91.355469 168.097656 91.457031 C 168.089844 91.515625 167.289062 94.742188 167.21875 95.027344 C 165.773438 100.851562 165.035156 103.363281 163.023438 104.910156 C 161.050781 106.429688 158.0625 110.636719 158.058594 112.601562 C 158.058594 112.710938 158.105469 113.582031 158.90625 114.847656 C 160.207031 116.910156 162.507812 118.550781 163.597656 119.726562 C 163.808594 119.953125 163.800781 120.226562 163.796875 120.273438 C 163.789062 120.59375 163.59375 120.773438 163.558594 120.804688 Z M 163.558594 120.804688 " fill-opacity="1" fill-rule="evenodd"/><path fill="#000000" d="M 158.554688 141.226562 C 158.511719 141.21875 158.25 141.171875 158.070312 140.910156 C 158.011719 140.832031 157.972656 140.738281 157.949219 140.644531 C 157.902344 140.425781 157.929688 140.425781 157.964844 140.203125 C 158.351562 137.851562 159.304688 131.621094 160.523438 126.542969 C 162.351562 118.9375 163.667969 117.449219 165.621094 113.890625 C 165.78125 113.597656 166.039062 113.519531 166.085938 113.503906 C 166.183594 113.476562 166.285156 113.464844 166.386719 113.476562 C 166.71875 113.507812 166.894531 113.730469 166.925781 113.769531 C 167.125 114.019531 167.101562 114.296875 167.09375 114.34375 C 167.074219 114.570312 167.046875 114.5625 166.945312 114.761719 C 165.15625 118.1875 163.9375 119.4375 162.007812 128.011719 C 161.921875 128.402344 160.957031 132.53125 159.519531 140.125 C 159.472656 140.367188 159.472656 140.363281 159.429688 140.605469 C 159.421875 140.652344 159.378906 140.914062 159.121094 141.097656 C 158.863281 141.28125 158.601562 141.234375 158.554688 141.226562 Z M 158.554688 141.226562 " fill-opacity="1" fill-rule="evenodd"/><path fill="#000000" d="M 163.625 136.722656 C 163.582031 136.710938 163.324219 136.636719 163.171875 136.359375 C 163.125 136.273438 163.09375 136.179688 163.082031 136.082031 C 163.070312 135.980469 163.089844 135.878906 163.105469 135.78125 C 163.113281 135.738281 163.484375 134.453125 163.515625 134.335938 C 164.824219 129.800781 167.832031 119.84375 168.535156 115.753906 C 169.890625 107.847656 169.726562 105.972656 169.957031 100.949219 C 170.054688 98.757812 170.179688 96.941406 170.292969 95.472656 C 170.296875 95.421875 170.320312 95.140625 170.566406 94.925781 C 170.640625 94.859375 170.730469 94.808594 170.828125 94.773438 C 170.875 94.757812 171.140625 94.667969 171.4375 94.820312 C 171.480469 94.839844 171.726562 94.964844 171.824219 95.273438 C 171.859375 95.371094 171.859375 95.480469 171.863281 95.582031 C 171.871094 95.714844 171.664062 98.027344 171.550781 102.761719 C 171.453125 106.730469 171.457031 109.078125 170.285156 116.058594 C 169.847656 118.644531 168.683594 122.871094 166.636719 129.507812 C 166.097656 131.253906 164.867188 135.121094 164.558594 136.199219 C 164.546875 136.246094 164.472656 136.503906 164.199219 136.65625 C 163.925781 136.8125 163.667969 136.738281 163.625 136.722656 Z M 163.625 136.722656 " fill-opacity="1" fill-rule="evenodd"/><path fill="#000000" d="M 172.667969 99.839844 C 172.621094 99.839844 172.355469 99.835938 172.136719 99.609375 C 172.070312 99.539062 172.011719 99.457031 171.976562 99.363281 C 171.941406 99.269531 171.9375 99.167969 171.921875 99.070312 C 171.917969 99.046875 171.820312 96.40625 171.832031 95.507812 C 171.835938 95.332031 171.847656 94.457031 171.894531 93.300781 C 171.898438 93.273438 171.988281 91.335938 171.988281 91.335938 C 172.011719 91.234375 172.019531 91.125 172.0625 91.03125 C 172.082031 90.984375 172.199219 90.730469 172.488281 90.609375 C 172.53125 90.59375 172.785156 90.488281 173.082031 90.617188 C 173.367188 90.746094 173.476562 91.003906 173.496094 91.046875 C 173.535156 91.144531 173.554688 91.25 173.5625 91.355469 C 173.59375 92.011719 173.59375 92.667969 173.605469 93.324219 C 173.632812 95.007812 173.605469 95.824219 173.597656 96.039062 C 173.566406 97.035156 173.433594 99.085938 173.433594 99.089844 C 173.414062 99.1875 173.410156 99.289062 173.371094 99.382812 C 173.351562 99.425781 173.246094 99.667969 172.960938 99.785156 C 172.820312 99.84375 172.820312 99.84375 172.667969 99.839844 Z M 172.667969 99.839844 " fill-opacity="1" fill-rule="evenodd"/><path fill="#000000" d="M 137.78125 266.019531 C 137.738281 266 137.492188 265.902344 137.367188 265.609375 C 137.332031 265.519531 137.308594 265.421875 137.308594 265.324219 C 137.304688 265.222656 137.332031 265.121094 137.359375 265.027344 C 137.402344 264.871094 139.261719 260.457031 141.367188 252.890625 C 145.953125 236.394531 147.570312 220.226562 148.367188 217.097656 C 150.324219 209.414062 152.339844 199.898438 153.15625 187.421875 C 153.925781 175.617188 153.378906 166.667969 154.71875 157.046875 C 154.726562 156.996094 154.761719 156.71875 155.023438 156.519531 C 155.105469 156.460938 155.199219 156.410156 155.296875 156.386719 C 155.34375 156.375 155.613281 156.300781 155.898438 156.472656 C 155.941406 156.496094 156.175781 156.636719 156.257812 156.949219 C 156.285156 157.050781 156.277344 157.15625 156.277344 157.261719 C 156.273438 157.402344 155.824219 160.109375 155.566406 165.386719 C 154.90625 178.769531 156.121094 193.105469 150.507812 215.894531 C 150.082031 217.621094 150.039062 217.613281 149.796875 219.042969 C 148.679688 225.589844 146.089844 246.898438 139.039062 264.890625 C 139.019531 264.945312 138.765625 265.589844 138.761719 265.59375 C 138.707031 265.679688 138.667969 265.773438 138.597656 265.847656 C 138.566406 265.878906 138.382812 266.066406 138.074219 266.074219 C 137.921875 266.074219 137.804688 266.027344 137.78125 266.019531 Z M 137.78125 266.019531 " fill-opacity="1" fill-rule="evenodd"/><path fill="#000000" d="M 152.785156 263.957031 C 152.742188 263.941406 152.492188 263.855469 152.351562 263.570312 C 152.3125 263.480469 152.285156 263.382812 152.277344 263.285156 C 152.269531 263.1875 152.292969 263.085938 152.316406 262.988281 C 152.328125 262.9375 152.332031 262.941406 152.519531 262.371094 C 158.980469 242.746094 162.265625 231.023438 163.546875 215.59375 C 164.011719 209.996094 164.1875 204.695312 164.238281 198.710938 C 164.242188 198.378906 164.433594 198.183594 164.46875 198.152344 C 164.539062 198.078125 164.625 198.019531 164.71875 197.980469 C 165.027344 197.855469 165.289062 197.964844 165.332031 197.984375 C 165.628906 198.109375 165.730469 198.363281 165.75 198.410156 C 165.789062 198.507812 165.800781 198.613281 165.8125 198.71875 C 165.820312 198.804688 165.804688 200.949219 165.804688 201.144531 C 165.667969 219.933594 163.855469 231.304688 159.3125 246.441406 C 157.105469 253.796875 154.554688 261.078125 153.746094 263.480469 C 153.730469 263.523438 153.644531 263.777344 153.363281 263.917969 C 153.082031 264.058594 152.832031 263.972656 152.785156 263.957031 Z M 152.785156 263.957031 " fill-opacity="1" fill-rule="evenodd"/><path fill="#000000" d="M 149.5625 265.90625 C 149.515625 265.90625 149.25 265.902344 149.03125 265.675781 C 148.960938 265.605469 148.90625 265.523438 148.867188 265.433594 C 148.832031 265.339844 148.820312 265.238281 148.8125 265.136719 C 148.804688 265.074219 148.8125 265.074219 148.808594 264.347656 C 148.789062 260.5 148.609375 253.382812 149.757812 244.386719 C 150.816406 236.101562 152.667969 227.859375 154.585938 220.53125 C 154.597656 220.484375 154.667969 220.210938 154.949219 220.042969 C 155.035156 219.992188 155.132812 219.957031 155.234375 219.941406 C 155.28125 219.933594 155.5625 219.894531 155.828125 220.097656 C 155.863281 220.125 156.085938 220.292969 156.128906 220.613281 C 156.140625 220.714844 156.125 220.824219 156.109375 220.925781 C 156.078125 221.148438 153.0625 232.53125 151.539062 244.5 C 150.648438 251.535156 150.421875 255.988281 150.347656 262.699219 L 150.324219 264.921875 C 150.320312 265.097656 150.332031 265.097656 150.324219 265.148438 C 150.300781 265.246094 150.300781 265.351562 150.261719 265.441406 C 150.242188 265.484375 150.140625 265.730469 149.855469 265.847656 C 149.710938 265.90625 149.585938 265.90625 149.5625 265.90625 Z M 149.5625 265.90625 " fill-opacity="1" fill-rule="evenodd"/><path fill="#000000" d="M 155.355469 243.441406 C 155.308594 243.433594 155.046875 243.398438 154.859375 243.144531 C 154.800781 243.0625 154.757812 242.972656 154.730469 242.878906 C 154.707031 242.78125 154.714844 242.679688 154.714844 242.578125 C 154.714844 242.558594 154.71875 242.558594 155.292969 238.207031 C 156.371094 230.035156 157.015625 225.316406 157.207031 220.839844 C 157.398438 216.402344 157.152344 212.261719 156.726562 206.144531 C 156.703125 205.808594 156.875 205.601562 156.90625 205.566406 C 156.972656 205.488281 157.054688 205.421875 157.144531 205.375 C 157.441406 205.222656 157.710938 205.3125 157.757812 205.328125 C 158.058594 205.425781 158.183594 205.671875 158.207031 205.714844 C 158.253906 205.808594 158.273438 205.914062 158.292969 206.015625 C 158.308594 206.082031 158.5 208.488281 158.515625 208.703125 C 159.308594 218.609375 159.210938 222.570312 157.75 232.636719 C 157.089844 237.199219 156.34375 241.871094 156.210938 242.792969 C 156.203125 242.839844 156.167969 243.105469 155.914062 243.296875 C 155.664062 243.488281 155.402344 243.449219 155.355469 243.441406 Z M 155.355469 243.441406 " fill-opacity="1" fill-rule="evenodd"/><path fill="#000000" d="M 158.832031 198.886719 C 158.785156 198.894531 158.523438 198.945312 158.265625 198.765625 C 158.1875 198.710938 158.113281 198.636719 158.0625 198.554688 C 158.007812 198.472656 157.980469 198.371094 157.949219 198.277344 C 157.9375 198.242188 157.78125 197.386719 157.769531 197.308594 C 156.34375 189.480469 156.210938 181.46875 156.164062 178.710938 C 156.085938 173.921875 156.242188 168.09375 156.289062 165.09375 C 156.292969 164.761719 156.488281 164.566406 156.519531 164.535156 C 156.59375 164.460938 156.679688 164.402344 156.773438 164.363281 C 157.078125 164.238281 157.339844 164.347656 157.382812 164.367188 C 157.679688 164.496094 157.78125 164.75 157.800781 164.792969 C 157.839844 164.890625 157.847656 165 157.863281 165.101562 C 157.882812 165.261719 157.792969 172.453125 157.917969 178.128906 C 157.953125 179.757812 158.082031 186.265625 158.632812 191.855469 C 158.808594 193.648438 159.03125 195.605469 159.386719 197.726562 C 159.417969 197.902344 159.433594 197.996094 159.433594 197.996094 C 159.433594 198.097656 159.449219 198.199219 159.429688 198.296875 C 159.421875 198.34375 159.367188 198.601562 159.109375 198.773438 C 158.980469 198.855469 158.980469 198.859375 158.832031 198.886719 Z M 158.832031 198.886719 " fill-opacity="1" fill-rule="evenodd"/><path fill="#000000" d="M 160.519531 203.59375 C 160.472656 203.59375 160.207031 203.589844 159.984375 203.367188 C 159.917969 203.296875 159.859375 203.210938 159.824219 203.121094 C 159.742188 202.929688 159.765625 202.921875 159.765625 202.714844 C 159.761719 202.339844 159.699219 198.5 159.617188 196.152344 C 159.414062 190.332031 159.136719 188.320312 158.761719 180.40625 C 158.746094 180.078125 158.929688 179.867188 158.960938 179.832031 C 159.027344 179.757812 159.109375 179.691406 159.199219 179.648438 C 159.242188 179.625 159.496094 179.5 159.816406 179.609375 C 159.859375 179.625 160.125 179.714844 160.257812 180.007812 C 160.273438 180.035156 160.320312 180.136719 160.339844 180.417969 C 161.027344 189.902344 161.34375 191.28125 161.34375 197.515625 C 161.339844 200.257812 161.277344 202.277344 161.277344 202.828125 C 161.277344 202.875 161.273438 203.144531 161.050781 203.371094 C 160.828125 203.59375 160.5625 203.59375 160.519531 203.59375 Z M 160.519531 203.59375 " fill-opacity="1" fill-rule="evenodd"/><path fill="#000000" d="M 169.8125 206.816406 C 169.769531 206.828125 169.507812 206.886719 169.246094 206.714844 C 169.164062 206.660156 169.089844 206.589844 169.035156 206.511719 C 168.976562 206.429688 168.945312 206.332031 168.914062 206.234375 C 168.894531 206.175781 168.902344 206.175781 168.746094 205.472656 C 165.445312 190.59375 165.6875 190.085938 161.867188 175.761719 C 161.179688 173.1875 161.160156 173.105469 161.105469 172.871094 C 160.8125 171.601562 159.835938 167.085938 161.234375 158.359375 C 161.558594 156.34375 161.890625 154.871094 161.976562 154.484375 C 161.984375 154.4375 162.046875 154.164062 162.320312 153.984375 C 162.40625 153.929688 162.503906 153.890625 162.601562 153.871094 C 162.925781 153.8125 163.15625 153.976562 163.195312 154.003906 C 163.457031 154.191406 163.507812 154.460938 163.515625 154.507812 C 163.535156 154.613281 163.519531 154.71875 163.511719 154.824219 C 163.503906 154.910156 160.976562 165.863281 162.941406 173.011719 C 167.207031 188.53125 166.960938 189.273438 170.234375 205.148438 C 170.3125 205.53125 170.308594 205.527344 170.390625 205.910156 C 170.402344 205.953125 170.457031 206.214844 170.289062 206.484375 C 170.117188 206.75 169.859375 206.808594 169.8125 206.816406 Z M 169.8125 206.816406 " fill-opacity="1" fill-rule="evenodd"/><path fill="#000000" d="M 173.734375 187.4375 C 173.6875 187.449219 173.433594 187.515625 173.160156 187.359375 C 173.078125 187.308594 173 187.242188 172.941406 187.164062 C 172.8125 186.996094 172.835938 186.984375 172.777344 186.773438 C 172.753906 186.691406 171.675781 182.839844 170.660156 179.523438 C 169.003906 174.101562 168.054688 171.304688 166.109375 163.125 C 166.097656 163.078125 166.035156 162.808594 166.203125 162.523438 C 166.253906 162.4375 166.320312 162.355469 166.402344 162.296875 C 166.664062 162.097656 166.941406 162.136719 166.988281 162.144531 C 167.304688 162.195312 167.46875 162.414062 167.496094 162.453125 C 167.628906 162.628906 167.609375 162.636719 167.664062 162.851562 C 170.316406 172.949219 170.933594 173.871094 172.820312 180.847656 C 173.636719 183.875 174.105469 185.875 174.269531 186.5 C 174.28125 186.546875 174.351562 186.804688 174.191406 187.082031 C 174.035156 187.355469 173.777344 187.425781 173.734375 187.4375 Z M 173.734375 187.4375 " fill-opacity="1" fill-rule="evenodd"/><path fill="#000000" d="M 182.636719 186.804688 C 182.589844 186.816406 182.335938 186.894531 182.058594 186.746094 C 181.972656 186.699219 181.894531 186.636719 181.835938 186.5625 C 181.695312 186.394531 181.71875 186.378906 181.652344 186.171875 C 181.164062 184.613281 178.984375 177.933594 177.796875 174.066406 C 176.46875 169.742188 176.472656 169.742188 174.367188 162.777344 C 173.988281 161.523438 173.988281 161.523438 173.984375 161.507812 C 173.976562 161.402344 173.949219 161.300781 173.957031 161.195312 C 173.960938 161.148438 173.988281 160.871094 174.230469 160.664062 C 174.265625 160.632812 174.480469 160.449219 174.804688 160.476562 C 175.125 160.507812 175.300781 160.71875 175.332031 160.753906 C 175.476562 160.921875 175.457031 160.9375 175.523438 161.148438 C 179.28125 172.703125 179.890625 174.722656 181.820312 181.289062 C 182.1875 182.53125 183.070312 185.625 183.136719 185.847656 C 183.148438 185.894531 183.226562 186.148438 183.082031 186.429688 C 182.933594 186.710938 182.679688 186.789062 182.636719 186.804688 Z M 182.636719 186.804688 " fill-opacity="1" fill-rule="evenodd"/><path fill="#000000" d="M 186.367188 192.003906 C 186.320312 192 186.054688 191.976562 185.855469 191.730469 C 185.792969 191.65625 185.746094 191.566406 185.71875 191.472656 C 185.6875 191.378906 185.6875 191.273438 185.6875 191.171875 C 185.683594 191.113281 186.351562 183.941406 186.589844 179.023438 C 187.085938 168.730469 186.289062 161.195312 182.957031 144.734375 C 182.953125 144.714844 182.914062 144.511719 182.914062 144.511719 C 182.910156 144.40625 182.886719 144.300781 182.90625 144.199219 C 182.964844 143.878906 183.191406 143.722656 183.230469 143.695312 C 183.503906 143.503906 183.78125 143.558594 183.832031 143.566406 C 184.144531 143.628906 184.300781 143.855469 184.328125 143.894531 C 184.386719 143.980469 184.417969 144.082031 184.453125 144.183594 C 184.453125 144.183594 184.773438 145.667969 185.113281 147.308594 C 188.324219 162.742188 188.902344 169.78125 188.242188 179.769531 C 187.929688 184.453125 187.355469 189.578125 187.191406 191.316406 C 187.1875 191.363281 187.160156 191.632812 186.917969 191.832031 C 186.675781 192.035156 186.414062 192.011719 186.367188 192.003906 Z M 186.367188 192.003906 " fill-opacity="1" fill-rule="evenodd"/><path fill="#000000" d="M 183.617188 177.359375 C 183.574219 177.367188 183.308594 177.398438 183.0625 177.203125 C 182.984375 177.144531 182.917969 177.070312 182.871094 176.984375 C 182.820312 176.898438 182.796875 176.796875 182.773438 176.699219 C 182.765625 176.664062 182.769531 176.664062 182.714844 176.246094 C 180.226562 158.058594 179.097656 156.992188 181.164062 139.625 C 181.300781 138.488281 181.4375 137.410156 181.4375 137.410156 C 181.46875 137.308594 181.484375 137.203125 181.535156 137.109375 C 181.558594 137.070312 181.691406 136.828125 182 136.738281 C 182.046875 136.726562 182.316406 136.648438 182.609375 136.8125 C 182.652344 136.835938 182.890625 136.972656 182.976562 137.285156 C 183.003906 137.382812 183 137.492188 183 137.597656 C 183 137.757812 182.054688 145.441406 181.882812 151.109375 C 181.65625 158.722656 182.65625 162.628906 184.21875 176.050781 C 184.238281 176.210938 184.234375 176.210938 184.273438 176.503906 C 184.277344 176.550781 184.3125 176.816406 184.121094 177.070312 C 183.929688 177.320312 183.664062 177.355469 183.617188 177.359375 Z M 183.617188 177.359375 " fill-opacity="1" fill-rule="evenodd"/><path fill="#000000" d="M 174.632812 268.59375 C 174.589844 268.589844 174.324219 268.585938 174.105469 268.355469 C 174.039062 268.285156 173.984375 268.199219 173.949219 268.109375 C 173.914062 268.015625 173.90625 267.910156 173.898438 267.8125 C 173.894531 267.785156 173.917969 266.753906 173.921875 266.660156 C 174.097656 259.132812 174.753906 259.203125 176.0625 250.121094 C 177.269531 241.757812 177.144531 239.023438 177.703125 234.425781 C 178.214844 230.261719 179.316406 225.863281 180.039062 223.121094 C 180.050781 223.074219 180.121094 222.800781 180.402344 222.632812 C 180.488281 222.582031 180.585938 222.546875 180.6875 222.53125 C 180.734375 222.527344 181.011719 222.484375 181.277344 222.6875 C 181.316406 222.714844 181.535156 222.882812 181.578125 223.203125 C 181.59375 223.308594 181.574219 223.414062 181.5625 223.519531 C 181.542969 223.667969 180.308594 228.25 179.652344 232.695312 C 178.941406 237.523438 179.105469 240.523438 178.226562 247.4375 C 177.691406 251.621094 176.988281 255.238281 176.855469 255.914062 C 176.070312 259.953125 175.636719 261.359375 175.421875 267.457031 C 175.410156 267.761719 175.410156 267.847656 175.410156 267.847656 C 175.386719 267.945312 175.382812 268.050781 175.34375 268.144531 C 175.324219 268.183594 175.214844 268.425781 174.929688 268.539062 C 174.789062 268.59375 174.785156 268.597656 174.632812 268.59375 Z M 174.632812 268.59375 " fill-opacity="1" fill-rule="evenodd"/><path fill="#000000" d="M 170.90625 268.980469 C 170.859375 268.980469 170.59375 268.980469 170.367188 268.757812 C 170.300781 268.691406 170.242188 268.609375 170.203125 268.519531 C 170.164062 268.425781 170.152344 268.324219 170.140625 268.222656 C 170.132812 268.160156 170.140625 268.089844 170.140625 268.027344 C 169.898438 255.789062 169.582031 243.976562 170.304688 237.757812 C 170.664062 234.667969 171.265625 232.46875 172.28125 228.878906 C 172.292969 228.832031 172.371094 228.566406 172.65625 228.402344 C 172.742188 228.351562 172.839844 228.320312 172.941406 228.304688 C 173.269531 228.265625 173.488281 228.441406 173.527344 228.46875 C 173.777344 228.671875 173.8125 228.945312 173.816406 228.992188 C 173.832031 229.097656 173.8125 229.203125 173.796875 229.304688 C 173.78125 229.429688 172.910156 232.429688 172.445312 234.839844 C 171.820312 238.074219 171.621094 241.386719 171.640625 249.9375 L 171.652344 268.011719 C 171.652344 268.074219 171.652344 268.140625 171.652344 268.207031 C 171.652344 268.253906 171.65625 268.523438 171.4375 268.75 C 171.214844 268.976562 170.949219 268.976562 170.90625 268.980469 Z M 170.90625 268.980469 " fill-opacity="1" fill-rule="evenodd"/><path fill="#000000" d="M 161.820312 267 C 161.773438 266.992188 161.511719 266.953125 161.324219 266.699219 C 161.265625 266.621094 161.222656 266.53125 161.199219 266.4375 C 161.152344 266.257812 161.167969 266.253906 161.191406 266.070312 C 161.359375 264.578125 161.640625 261.785156 161.933594 259.902344 C 162.050781 259.144531 162.214844 257.992188 163.089844 253.710938 C 163.15625 253.386719 163.382812 253.226562 163.421875 253.199219 C 163.503906 253.144531 163.601562 253.097656 163.699219 253.078125 C 163.75 253.066406 164.023438 253.003906 164.335938 253.195312 C 164.375 253.222656 164.632812 253.378906 164.671875 253.6875 C 164.675781 253.71875 164.679688 253.742188 164.628906 254.054688 C 163.710938 259.828125 163.675781 260.410156 163.304688 262.667969 C 163.101562 263.890625 163.097656 263.945312 162.773438 265.789062 C 162.695312 266.234375 162.695312 266.234375 162.675781 266.351562 C 162.671875 266.398438 162.632812 266.664062 162.382812 266.855469 C 162.128906 267.046875 161.867188 267.007812 161.820312 267 Z M 161.820312 267 " fill-opacity="1" fill-rule="evenodd"/><path fill="#000000" d="M 177.597656 272.023438 C 177.554688 272.003906 177.304688 271.910156 177.175781 271.621094 C 177.136719 271.53125 177.113281 271.433594 177.109375 271.335938 C 177.105469 271.238281 177.132812 271.136719 177.15625 271.039062 C 177.164062 271.011719 177.167969 271.011719 177.28125 270.699219 C 179.945312 263.351562 180.847656 262.363281 182.398438 257.953125 C 185.609375 248.824219 185.871094 246.804688 188.222656 241.707031 C 189.140625 239.714844 190.257812 237.523438 191.457031 235.265625 C 191.480469 235.222656 191.609375 234.976562 191.921875 234.878906 C 192.015625 234.847656 192.121094 234.835938 192.21875 234.84375 C 192.269531 234.847656 192.550781 234.875 192.761719 235.132812 C 192.792969 235.171875 192.96875 235.382812 192.9375 235.707031 C 192.929688 235.808594 192.886719 235.910156 192.847656 236.007812 C 192.796875 236.140625 190.507812 240.441406 188.953125 244.265625 C 187.164062 248.660156 186.691406 251.328125 183.949219 258.828125 C 182.542969 262.667969 181.390625 264.265625 178.699219 271.242188 C 178.605469 271.480469 178.570312 271.574219 178.570312 271.578125 C 178.519531 271.660156 178.480469 271.757812 178.414062 271.832031 C 178.382812 271.867188 178.203125 272.058594 177.894531 272.070312 C 177.742188 272.074219 177.742188 272.074219 177.597656 272.023438 Z M 177.597656 272.023438 " fill-opacity="1" fill-rule="evenodd"/><path fill="#000000" d="M 183.558594 271.597656 C 183.519531 271.578125 183.28125 271.453125 183.1875 271.152344 C 183.15625 271.058594 183.144531 270.957031 183.152344 270.859375 C 183.160156 270.761719 183.199219 270.664062 183.234375 270.570312 C 183.253906 270.507812 185.410156 266.300781 187.273438 261.566406 C 189.949219 254.78125 190.480469 251.496094 196.449219 241.480469 C 196.476562 241.4375 196.617188 241.199219 196.933594 241.117188 C 197.03125 241.089844 197.136719 241.082031 197.234375 241.097656 C 197.5625 241.144531 197.730469 241.371094 197.757812 241.410156 C 197.949219 241.667969 197.910156 241.941406 197.90625 241.988281 C 197.890625 242.09375 197.84375 242.191406 197.804688 242.289062 C 197.75 242.425781 194.960938 247.070312 192.824219 252.042969 C 190.285156 257.941406 189.847656 261.222656 184.664062 271.101562 C 184.582031 271.257812 184.585938 271.257812 184.578125 271.269531 C 184.515625 271.347656 184.464844 271.441406 184.390625 271.503906 C 184.355469 271.535156 184.152344 271.707031 183.847656 271.679688 C 183.695312 271.667969 183.695312 271.667969 183.558594 271.597656 Z M 183.558594 271.597656 " fill-opacity="1" fill-rule="evenodd"/><path fill="#000000" d="M 195.109375 279.144531 C 195.0625 279.132812 194.804688 279.074219 194.636719 278.804688 C 194.585938 278.722656 194.546875 278.628906 194.53125 278.53125 C 194.492188 278.3125 194.519531 278.3125 194.566406 278.09375 C 195.070312 275.742188 195.652344 272.804688 197.3125 267.253906 C 198.648438 262.796875 199.566406 259.867188 200.335938 251.347656 C 200.355469 251.121094 200.332031 251.113281 200.433594 250.914062 C 200.578125 250.625 200.839844 250.539062 200.882812 250.523438 C 201.199219 250.421875 201.449219 250.550781 201.492188 250.574219 C 201.777344 250.722656 201.863281 250.984375 201.878906 251.03125 C 201.949219 251.246094 201.921875 251.25 201.90625 251.476562 C 201.148438 262.289062 199.886719 264.640625 197.894531 271.425781 C 196.875 274.890625 196.144531 277.996094 196.082031 278.25 C 196.046875 278.40625 196.046875 278.40625 196.011719 278.5625 C 196 278.609375 195.941406 278.871094 195.679688 279.042969 C 195.414062 279.210938 195.152344 279.152344 195.109375 279.144531 Z M 195.109375 279.144531 " fill-opacity="1" fill-rule="evenodd"/><path fill="#000000" d="M 212.5625 272.6875 C 212.515625 272.695312 212.257812 272.75 211.992188 272.578125 C 211.910156 272.523438 211.839844 272.457031 211.785156 272.375 C 211.726562 272.292969 211.695312 272.195312 211.664062 272.097656 C 211.636719 272.007812 210.082031 264.441406 208 257.46875 C 204.148438 244.578125 200.855469 240.765625 194.808594 220.765625 C 194.800781 220.75 194.714844 220.457031 194.714844 220.457031 C 194.703125 220.351562 194.675781 220.25 194.683594 220.144531 C 194.6875 220.097656 194.714844 219.820312 194.960938 219.613281 C 194.996094 219.582031 195.214844 219.398438 195.546875 219.429688 C 195.59375 219.4375 195.867188 219.460938 196.070312 219.710938 C 196.136719 219.792969 196.175781 219.890625 196.21875 219.988281 C 196.277344 220.125 198.019531 225.980469 200.625 232.929688 C 202.945312 239.121094 204.527344 242.566406 206.378906 247.308594 C 209.273438 254.71875 211.160156 261.984375 213.078125 271.46875 C 213.136719 271.757812 213.144531 271.757812 213.144531 271.78125 C 213.144531 271.882812 213.164062 271.984375 213.148438 272.085938 C 213.136719 272.128906 213.089844 272.390625 212.835938 272.566406 C 212.710938 272.652344 212.710938 272.65625 212.5625 272.6875 Z M 212.5625 272.6875 " fill-opacity="1" fill-rule="evenodd"/><path fill="#000000" d="M 197.855469 238.160156 C 197.8125 238.179688 197.570312 238.289062 197.277344 238.175781 C 197.1875 238.144531 197.101562 238.089844 197.03125 238.023438 C 196.890625 237.894531 196.90625 237.878906 196.824219 237.707031 C 195.996094 235.957031 194.644531 233.21875 193.894531 230.628906 C 193.296875 228.566406 193.035156 226.964844 192.085938 222.859375 C 192.042969 222.667969 192.027344 222.667969 192.054688 222.472656 C 192.097656 222.152344 192.320312 221.984375 192.355469 221.957031 C 192.625 221.757812 192.902344 221.796875 192.949219 221.804688 C 193.265625 221.855469 193.429688 222.074219 193.460938 222.113281 C 193.578125 222.269531 193.566406 222.277344 193.617188 222.46875 C 195.179688 228.320312 195.261719 229.554688 196.675781 233.292969 C 197.179688 234.625 198.117188 236.890625 198.230469 237.148438 C 198.25 237.191406 198.359375 237.433594 198.25 237.730469 C 198.140625 238.027344 197.898438 238.140625 197.855469 238.160156 Z M 197.855469 238.160156 " fill-opacity="1" fill-rule="evenodd"/><path fill="#000000" d="M 234.03125 283.285156 C 233.992188 283.3125 233.761719 283.449219 233.457031 283.371094 C 233.363281 283.347656 233.273438 283.304688 233.195312 283.246094 C 233.117188 283.1875 233.054688 283.105469 232.996094 283.023438 C 232.972656 282.992188 231.789062 280.996094 231.6875 280.820312 C 213.539062 250.183594 213.375 243.578125 206.0625 223.3125 C 203.542969 216.332031 201.398438 211.175781 201.390625 211.125 C 201.371094 211.023438 201.328125 210.921875 201.328125 210.820312 C 201.328125 210.496094 201.523438 210.300781 201.558594 210.265625 C 201.792969 210.027344 202.074219 210.027344 202.121094 210.027344 C 202.441406 210.03125 202.636719 210.226562 202.667969 210.257812 C 202.742188 210.332031 202.796875 210.425781 202.84375 210.519531 C 202.890625 210.609375 203.785156 212.816406 203.867188 213.019531 C 213.152344 235.984375 213.046875 242.503906 223.839844 263.40625 C 227.769531 271.015625 232.289062 278.808594 234.027344 281.792969 C 234.269531 282.207031 234.277344 282.199219 234.292969 282.238281 C 234.324219 282.335938 234.375 282.425781 234.390625 282.523438 C 234.398438 282.570312 234.433594 282.832031 234.25 283.082031 C 234.160156 283.207031 234.160156 283.207031 234.03125 283.285156 Z M 234.03125 283.285156 " fill-opacity="1" fill-rule="evenodd"/><path fill="#000000" d="M 177.441406 220.878906 C 177.394531 220.867188 177.136719 220.804688 176.976562 220.535156 C 176.925781 220.449219 176.890625 220.355469 176.875 220.257812 C 176.84375 220.046875 176.867188 220.046875 176.914062 219.835938 C 178.148438 214.40625 178.417969 212.925781 178.527344 212.324219 C 179.476562 207.050781 179.089844 204.796875 177.707031 196.066406 C 177.699219 196.019531 177.65625 195.742188 177.84375 195.472656 C 177.902344 195.390625 177.976562 195.316406 178.0625 195.261719 C 178.101562 195.234375 178.339844 195.082031 178.65625 195.15625 C 178.96875 195.230469 179.117188 195.464844 179.140625 195.503906 C 179.257812 195.6875 179.238281 195.695312 179.28125 195.914062 C 180.992188 205.332031 181.375 207.640625 179.957031 213.914062 C 179.371094 216.507812 178.527344 219.601562 178.355469 220.320312 C 178.34375 220.367188 178.28125 220.625 178.011719 220.789062 C 177.742188 220.957031 177.484375 220.890625 177.441406 220.878906 Z M 177.441406 220.878906 " fill-opacity="1" fill-rule="evenodd"/><path fill="#000000" d="M 152.640625 205.464844 C 152.636719 205.511719 152.621094 205.78125 152.386719 205.992188 C 152.316406 206.058594 152.230469 206.109375 152.140625 206.140625 C 152.046875 206.175781 151.941406 206.179688 151.84375 206.183594 C 151.773438 206.1875 150.789062 206.121094 150.699219 206.113281 C 147.492188 205.898438 140.152344 205.132812 117.855469 200.289062 C 117.035156 200.109375 95.0625 195.265625 87.660156 193.507812 C 76.320312 190.8125 73.875 189.746094 66.875 186.242188 C 66.832031 186.222656 66.582031 186.097656 66.476562 185.785156 C 66.445312 185.691406 66.429688 185.585938 66.4375 185.484375 C 66.4375 185.433594 66.457031 185.148438 66.707031 184.929688 C 66.742188 184.894531 66.949219 184.714844 67.265625 184.734375 C 67.371094 184.742188 67.46875 184.777344 67.566406 184.816406 C 67.769531 184.894531 71.140625 186.644531 74.128906 187.847656 C 79.316406 189.941406 85.253906 191.25 100.945312 194.710938 C 117.164062 198.285156 117.324219 198.367188 123.839844 199.773438 C 133.203125 201.792969 143.859375 203.964844 150.117188 204.527344 C 151.132812 204.617188 151.929688 204.660156 151.929688 204.660156 C 152.027344 204.683594 152.128906 204.691406 152.21875 204.738281 C 152.261719 204.757812 152.496094 204.871094 152.597656 205.167969 C 152.648438 205.3125 152.648438 205.3125 152.640625 205.464844 Z M 152.640625 205.464844 " fill-opacity="1" fill-rule="evenodd"/><path fill="#000000" d="M 142.246094 204.164062 C 142.25 204.210938 142.265625 204.480469 142.058594 204.714844 C 141.992188 204.789062 141.914062 204.851562 141.828125 204.894531 C 141.738281 204.9375 141.636719 204.953125 141.539062 204.972656 C 141.523438 204.976562 138.351562 205.160156 133.480469 205.652344 C 132.980469 205.703125 127.234375 206.238281 117.277344 207.660156 C 104.96875 209.421875 93.929688 211.59375 93.816406 211.589844 C 93.710938 211.589844 93.605469 211.605469 93.503906 211.585938 C 93.460938 211.574219 93.191406 211.515625 93.015625 211.246094 C 92.988281 211.203125 92.835938 210.964844 92.902344 210.636719 C 92.914062 210.589844 92.972656 210.316406 93.238281 210.140625 C 93.328125 210.085938 93.429688 210.058594 93.527344 210.027344 C 93.527344 210.027344 94.019531 209.929688 94.238281 209.886719 C 101.355469 208.496094 108.824219 207.027344 119.171875 205.578125 C 120.011719 205.460938 123.253906 205.027344 126.328125 204.6875 C 134.667969 203.769531 139.5625 203.558594 141.449219 203.445312 C 141.496094 203.445312 141.761719 203.429688 141.996094 203.640625 C 142.230469 203.851562 142.246094 204.117188 142.246094 204.164062 Z M 142.246094 204.164062 " fill-opacity="1" fill-rule="evenodd"/><path fill="#000000" d="M 152.050781 208.570312 C 152.054688 208.617188 152.0625 208.886719 151.84375 209.117188 C 151.777344 209.1875 151.699219 209.246094 151.609375 209.285156 C 151.519531 209.328125 151.417969 209.339844 151.320312 209.355469 C 151.28125 209.363281 151.28125 209.355469 150.839844 209.371094 C 147.195312 209.515625 138.90625 209.882812 130.503906 210.941406 C 123.527344 211.820312 118.011719 213.015625 111.746094 214.203125 C 111.699219 214.210938 111.425781 214.261719 111.15625 214.078125 C 111.074219 214.019531 111 213.945312 110.941406 213.863281 C 110.914062 213.820312 110.757812 213.585938 110.824219 213.253906 C 110.835938 213.207031 110.890625 212.9375 111.15625 212.757812 C 111.242188 212.699219 111.347656 212.671875 111.445312 212.640625 C 111.453125 212.636719 112.132812 212.503906 114.636719 211.980469 C 122.800781 210.28125 129.25 208.910156 140.1875 208.246094 C 145.746094 207.90625 150.03125 207.863281 151.273438 207.828125 C 151.320312 207.828125 151.585938 207.820312 151.816406 208.039062 C 152.042969 208.253906 152.050781 208.523438 152.050781 208.570312 Z M 152.050781 208.570312 " fill-opacity="1" fill-rule="evenodd"/><path fill="#000000" d="M 184.039062 79.210938 C 184 79.1875 183.769531 79.058594 183.679688 78.753906 C 183.65625 78.660156 183.644531 78.558594 183.65625 78.460938 C 183.675781 78.296875 183.691406 78.300781 183.757812 78.148438 C 183.832031 77.992188 184.28125 76.964844 184.746094 76.074219 C 184.914062 75.757812 185.230469 75.257812 185.40625 74.886719 C 185.703125 74.25 185.789062 74.003906 186.042969 73.570312 C 186.121094 73.429688 186.117188 73.425781 186.242188 73.324219 C 186.277344 73.292969 186.488281 73.117188 186.808594 73.148438 C 186.855469 73.152344 187.136719 73.175781 187.347656 73.433594 C 187.550781 73.683594 187.523438 73.960938 187.519531 74.007812 C 187.503906 74.214844 187.476562 74.207031 187.394531 74.398438 C 187.121094 75.054688 187.09375 75.46875 186.597656 76.398438 C 186.140625 77.253906 186.132812 77.246094 185.617188 78.066406 C 185.574219 78.132812 185.574219 78.132812 185.082031 78.890625 C 184.992188 79.03125 185.003906 79.042969 184.875 79.144531 C 184.835938 79.171875 184.632812 79.335938 184.324219 79.300781 C 184.175781 79.285156 184.171875 79.285156 184.039062 79.210938 Z M 184.039062 79.210938 " fill-opacity="1" fill-rule="evenodd"/><path fill="#000000" d="M 191.695312 76.601562 C 191.65625 76.585938 191.410156 76.476562 191.296875 76.183594 C 191.257812 76.09375 191.242188 75.992188 191.242188 75.894531 C 191.242188 75.792969 191.410156 75.199219 191.429688 75.140625 C 191.445312 75.078125 191.582031 74.605469 191.683594 74.371094 C 191.707031 74.316406 191.832031 74.027344 192.027344 73.660156 C 192.136719 73.457031 192.25 73.253906 192.359375 73.050781 C 192.523438 72.753906 192.785156 72.652344 192.832031 72.632812 C 192.890625 72.609375 193.308594 72.441406 193.632812 72.796875 C 193.679688 72.851562 193.945312 73.144531 193.808594 73.671875 C 193.789062 73.75 193.527344 74.546875 193.457031 74.738281 C 193.414062 74.855469 193.367188 74.972656 193.316406 75.089844 C 193.195312 75.378906 192.71875 76.164062 192.691406 76.207031 C 192.632812 76.289062 192.589844 76.382812 192.519531 76.453125 C 192.488281 76.488281 192.296875 76.671875 191.988281 76.667969 C 191.839844 76.664062 191.835938 76.664062 191.695312 76.601562 Z M 191.695312 76.601562 " fill-opacity="1" fill-rule="evenodd"/><path fill="#000000" d="M 188.28125 218.539062 C 188.234375 218.539062 187.96875 218.519531 187.761719 218.28125 C 187.699219 218.210938 187.648438 218.121094 187.617188 218.03125 C 187.582031 217.933594 187.578125 217.832031 187.574219 217.730469 C 187.574219 217.675781 187.578125 217.675781 187.613281 217.050781 C 187.886719 212.132812 188.203125 207.394531 188.507812 202.910156 C 189.328125 190.988281 190.628906 176.507812 190.761719 171.601562 C 190.773438 171.273438 190.96875 171.078125 191.003906 171.046875 C 191.078125 170.976562 191.164062 170.917969 191.257812 170.878906 C 191.566406 170.757812 191.824219 170.871094 191.867188 170.890625 C 192.160156 171.023438 192.261719 171.277344 192.28125 171.324219 C 192.316406 171.421875 192.324219 171.527344 192.335938 171.632812 C 192.34375 171.707031 192.308594 172.726562 192.304688 172.820312 C 192.144531 177.433594 191.40625 187.660156 191.238281 190.027344 L 190.859375 195.117188 C 190.398438 201.292969 189.285156 214.597656 189.082031 217.828125 C 189.082031 217.875 189.0625 218.140625 188.828125 218.351562 C 188.59375 218.5625 188.328125 218.542969 188.28125 218.539062 Z M 188.28125 218.539062 " fill-opacity="1" fill-rule="evenodd"/><path fill="#000000" d="M 200.644531 218.710938 C 200.597656 218.703125 200.335938 218.664062 200.148438 218.410156 C 200.089844 218.328125 200.046875 218.238281 200.023438 218.144531 C 199.980469 217.976562 199.996094 217.976562 200.015625 217.804688 C 200.128906 216.609375 200.117188 216.609375 200.253906 215.417969 C 200.480469 213.421875 200.820312 211.945312 200.890625 211.300781 C 200.925781 211.007812 200.945312 210.722656 201 210.378906 C 201.03125 210.167969 201.097656 210.058594 201.113281 210.03125 C 201.136719 209.992188 201.273438 209.753906 201.585938 209.671875 C 201.632812 209.660156 201.90625 209.585938 202.1875 209.757812 C 202.25 209.792969 202.613281 210.011719 202.566406 210.550781 C 202.507812 211.210938 202.578125 211.261719 202.417969 212.574219 C 202.207031 214.265625 202.15625 214.6875 201.871094 216.195312 C 201.722656 216.984375 201.71875 216.984375 201.507812 218.03125 C 201.476562 218.199219 201.488281 218.203125 201.402344 218.351562 C 201.378906 218.390625 201.242188 218.617188 200.941406 218.695312 C 200.796875 218.730469 200.792969 218.734375 200.644531 218.710938 Z M 200.644531 218.710938 " fill-opacity="1" fill-rule="evenodd"/><path fill="#000000" d="M 214.515625 174.738281 C 214.472656 174.75 214.214844 174.824219 213.941406 174.667969 C 213.859375 174.621094 213.78125 174.558594 213.71875 174.480469 C 213.59375 174.320312 213.613281 174.3125 213.554688 174.117188 C 213.230469 173.011719 212.785156 171.675781 212.710938 171.464844 C 211.464844 167.726562 210.332031 165.039062 208.625 162.265625 C 207.621094 160.632812 206.242188 158.691406 204.90625 156.71875 C 204.722656 156.445312 204.769531 156.171875 204.777344 156.121094 C 204.792969 156.023438 204.832031 155.921875 204.882812 155.835938 C 204.910156 155.796875 205.058594 155.554688 205.382812 155.480469 C 205.429688 155.472656 205.699219 155.410156 205.96875 155.582031 C 206.140625 155.695312 206.128906 155.710938 206.25 155.878906 C 209.65625 160.621094 211.566406 162.859375 213.449219 168.398438 C 214.328125 170.972656 214.871094 173.207031 215.035156 173.792969 C 215.050781 173.839844 215.121094 174.097656 214.96875 174.375 C 214.816406 174.652344 214.5625 174.726562 214.515625 174.738281 Z M 214.515625 174.738281 " fill-opacity="1" fill-rule="evenodd"/><path fill="#000000" d="M 216.914062 191.5625 C 216.871094 191.566406 216.605469 191.59375 216.363281 191.390625 C 216.289062 191.328125 216.222656 191.25 216.179688 191.164062 C 216.078125 190.972656 216.101562 190.960938 216.078125 190.746094 C 215.742188 187.523438 215.164062 182.628906 215.140625 178.417969 C 215.121094 175.070312 215.300781 172.667969 215.609375 165.355469 C 215.617188 165.195312 215.609375 165.191406 215.667969 165.046875 C 215.792969 164.75 216.058594 164.652344 216.101562 164.636719 C 216.421875 164.515625 216.675781 164.636719 216.722656 164.65625 C 217.011719 164.789062 217.109375 165.046875 217.128906 165.09375 C 217.207031 165.296875 217.183594 165.304688 217.179688 165.523438 C 216.976562 175.277344 216.742188 177.332031 217.109375 183.773438 C 217.242188 186.136719 217.558594 190.320312 217.597656 190.730469 C 217.601562 190.777344 217.625 191.042969 217.425781 191.289062 C 217.226562 191.53125 216.960938 191.558594 216.914062 191.5625 Z M 216.914062 191.5625 " fill-opacity="1" fill-rule="evenodd"/><path fill="#000000" d="M 205.171875 219.261719 C 205.128906 219.28125 204.882812 219.386719 204.59375 219.265625 C 204.503906 219.230469 204.417969 219.175781 204.351562 219.109375 C 204.210938 218.972656 204.222656 218.960938 204.148438 218.78125 C 202.402344 214.570312 197.230469 199.359375 193.148438 182.414062 C 191.265625 174.601562 188.007812 159.941406 187.121094 146.234375 C 187.117188 146.1875 187.097656 145.90625 187.3125 145.660156 C 187.378906 145.582031 187.460938 145.515625 187.550781 145.46875 C 187.84375 145.320312 188.109375 145.410156 188.15625 145.429688 C 188.460938 145.53125 188.582031 145.777344 188.605469 145.820312 C 188.652344 145.914062 188.667969 146.019531 188.6875 146.125 C 188.71875 146.273438 188.964844 151.277344 190.320312 159.769531 C 190.988281 163.957031 193.105469 176.675781 198.773438 196.890625 C 201.628906 207.074219 204.476562 215.632812 205.570312 218.261719 C 205.589844 218.304688 205.691406 218.550781 205.574219 218.847656 C 205.457031 219.140625 205.214844 219.246094 205.171875 219.261719 Z M 205.171875 219.261719 " fill-opacity="1" fill-rule="evenodd"/><path fill="#000000" d="M 221.527344 219.304688 C 221.480469 219.308594 221.214844 219.328125 220.976562 219.125 C 220.902344 219.058594 220.839844 218.980469 220.796875 218.894531 C 220.75 218.804688 220.730469 218.703125 220.710938 218.605469 C 220.691406 218.484375 220.21875 212.113281 219.5 206.722656 C 218.539062 199.535156 217.226562 194.28125 215.007812 187.359375 C 211.726562 177.105469 214.140625 168.933594 215.867188 164.261719 C 216.425781 162.742188 217.042969 161.34375 217.390625 158.902344 C 218.726562 149.550781 213.730469 139.371094 212.390625 136.132812 C 212.371094 136.085938 212.265625 135.828125 212.386719 135.523438 C 212.425781 135.429688 212.484375 135.339844 212.554688 135.265625 C 212.585938 135.230469 212.785156 135.027344 213.117188 135.027344 C 213.4375 135.027344 213.632812 135.222656 213.664062 135.253906 C 213.808594 135.398438 213.796875 135.410156 213.875 135.597656 C 215.546875 139.542969 221.941406 152.394531 218.117188 163.191406 C 216.859375 166.753906 213.0625 175.308594 216.683594 186.816406 C 219.636719 196.199219 220.820312 202.265625 221.742188 212.613281 C 221.976562 215.222656 222.140625 217.472656 222.21875 218.480469 C 222.222656 218.527344 222.246094 218.796875 222.039062 219.039062 C 221.835938 219.277344 221.574219 219.300781 221.527344 219.304688 Z M 221.527344 219.304688 " fill-opacity="1" fill-rule="evenodd"/><path fill="#000000" d="M 179.40625 89.28125 C 179.378906 89.320312 179.230469 89.542969 178.921875 89.605469 C 178.828125 89.625 178.726562 89.625 178.632812 89.605469 C 178.476562 89.574219 178.480469 89.558594 178.339844 89.476562 C 178.058594 89.320312 177.742188 89.15625 176.886719 88.652344 C 176.296875 88.308594 174.949219 87.367188 174.78125 87.25 C 174.769531 87.242188 174.648438 87.15625 174.644531 87.15625 C 174.570312 87.082031 174.484375 87.015625 174.425781 86.929688 C 174.398438 86.890625 174.242188 86.65625 174.285156 86.347656 C 174.351562 85.847656 174.789062 85.738281 174.855469 85.722656 C 174.953125 85.699219 175.058594 85.691406 175.160156 85.703125 C 175.328125 85.722656 175.328125 85.726562 175.480469 85.804688 C 177.054688 86.640625 177.382812 86.769531 178.613281 87.742188 C 178.660156 87.78125 178.65625 87.785156 179.183594 88.210938 C 179.308594 88.3125 179.320312 88.300781 179.410156 88.4375 C 179.4375 88.476562 179.582031 88.699219 179.519531 89.003906 C 179.492188 89.152344 179.492188 89.15625 179.40625 89.28125 Z M 179.40625 89.28125 " fill-opacity="1" fill-rule="evenodd"/><path fill="#000000" d="M 185.128906 79.03125 C 185.109375 79.074219 184.996094 79.316406 184.703125 79.425781 C 184.417969 79.53125 184.410156 79.460938 184.117188 79.398438 C 183.796875 79.328125 183.792969 79.347656 183.484375 79.242188 C 183.441406 79.226562 183.277344 79.167969 182.976562 78.96875 C 182.863281 78.890625 182.75 78.8125 182.636719 78.730469 C 182.363281 78.542969 182.265625 78.273438 182.25 78.222656 C 182.226562 78.164062 182.078125 77.746094 182.417969 77.457031 C 182.640625 77.265625 182.929688 77.253906 182.976562 77.253906 C 183 77.25 183.152344 77.246094 183.304688 77.289062 C 183.4375 77.328125 183.570312 77.363281 183.703125 77.402344 C 184.046875 77.507812 184.195312 77.597656 184.234375 77.621094 C 184.515625 77.792969 184.5 77.808594 184.757812 78.011719 C 184.996094 78.203125 185.050781 78.160156 185.152344 78.449219 C 185.261719 78.746094 185.148438 78.988281 185.128906 79.03125 Z M 185.128906 79.03125 " fill-opacity="1" fill-rule="evenodd"/><path fill="#000000" d="M 177.46875 91.757812 C 177.453125 91.714844 177.363281 91.460938 177.496094 91.171875 C 177.539062 91.085938 177.59375 91.003906 177.667969 90.9375 C 177.828125 90.785156 177.84375 90.8125 178.046875 90.730469 C 179.042969 90.328125 181.617188 89.152344 183.851562 85.019531 C 185.796875 81.421875 186.386719 77.375 186.425781 77.273438 C 186.460938 77.175781 186.480469 77.066406 186.535156 76.980469 C 186.707031 76.707031 186.972656 76.644531 187.019531 76.632812 C 187.34375 76.558594 187.582031 76.710938 187.621094 76.734375 C 187.890625 76.910156 187.953125 77.179688 187.964844 77.222656 C 188.011719 77.421875 187.992188 77.425781 187.960938 77.625 C 186.777344 85.339844 183.808594 88.5625 182.316406 89.914062 C 180.523438 91.53125 178.957031 92.023438 178.4375 92.214844 C 178.394531 92.230469 178.144531 92.320312 177.859375 92.1875 C 177.578125 92.054688 177.484375 91.800781 177.46875 91.757812 Z M 177.46875 91.757812 " fill-opacity="1" fill-rule="evenodd"/><path fill="#000000" d="M 162.628906 151.765625 C 161.339844 156.261719 159.582031 157.101562 159.078125 157.371094 C 155.574219 159.242188 153.023438 157.136719 151.921875 153.5 C 151.328125 151.550781 150.78125 147.914062 155.820312 142.210938 C 159.433594 138.117188 164.296875 134.792969 165.480469 133.640625 C 172.445312 126.84375 172.890625 123.261719 172.761719 118.785156 C 172.679688 116.011719 172.359375 112.988281 172.820312 108.691406 C 173.78125 99.6875 173.519531 96.453125 176.261719 92.058594 C 177.703125 89.75 181.632812 85.300781 183.664062 79.253906 C 184.007812 78.222656 184.21875 77.640625 185.9375 76.90625 C 186.160156 76.8125 187.667969 76.191406 189.429688 75.71875 C 192.257812 74.957031 194.546875 74.84375 195.222656 74.8125 C 195.269531 74.8125 195.535156 74.800781 195.765625 75.015625 C 195.835938 75.082031 195.898438 75.160156 195.9375 75.25 C 196.074219 75.542969 195.980469 75.800781 195.960938 75.84375 C 195.855469 76.136719 195.621094 76.25 195.578125 76.269531 C 195.378906 76.363281 195.371094 76.335938 195.152344 76.347656 C 194.699219 76.367188 191.683594 76.507812 188.25 77.707031 C 185.621094 78.625 185.460938 78.890625 185.292969 79.347656 C 185.007812 80.09375 184.234375 83.011719 181.367188 87.523438 C 179.609375 90.292969 178.246094 91.882812 177.320312 93.507812 C 175.191406 97.25 175.398438 100.328125 174.519531 108.871094 C 173.679688 117.046875 175.777344 120.988281 173.140625 126.648438 C 172.425781 128.183594 170.878906 130.871094 166.714844 134.9375 C 164.832031 136.773438 155.167969 143.085938 153.53125 149.449219 C 153.089844 151.171875 153.382812 152.445312 153.785156 153.53125 C 154.3125 154.953125 155.101562 155.976562 156.042969 156.230469 C 156.570312 156.375 157.335938 156.367188 158.511719 155.679688 C 159.609375 155.035156 160.558594 152.875 161.066406 150.953125 C 161.070312 150.925781 161.113281 150.765625 161.1875 150.652344 C 161.203125 150.625 161.296875 150.480469 161.46875 150.375 C 161.59375 150.300781 162.453125 149.976562 163.738281 149.402344 C 168.363281 147.339844 168.511719 146.441406 173.910156 142.203125 C 182.195312 135.703125 183.527344 127.25 184.046875 118.878906 C 184.121094 117.683594 184.207031 115.953125 184.210938 115.949219 C 184.234375 115.847656 184.242188 115.742188 184.289062 115.644531 C 184.308594 115.601562 184.425781 115.355469 184.726562 115.246094 C 185.039062 115.132812 185.292969 115.253906 185.335938 115.277344 C 185.625 115.417969 185.714844 115.675781 185.734375 115.722656 C 185.769531 115.820312 185.78125 115.929688 185.78125 116.03125 C 185.78125 116.164062 185.671875 118.152344 185.664062 118.335938 C 185.195312 126.917969 184.046875 136.34375 174.941406 143.542969 C 171.371094 146.363281 170.28125 147.550781 168.457031 148.804688 C 166.71875 150 164.773438 150.871094 162.628906 151.765625 Z M 162.628906 151.765625 " fill-opacity="1" fill-rule="evenodd"/><path fill="#000000" d="M 197.179688 69.738281 C 197.144531 69.765625 196.945312 69.945312 196.632812 69.921875 C 196.535156 69.914062 196.4375 69.890625 196.351562 69.84375 C 196.167969 69.753906 196.179688 69.734375 196.042969 69.578125 C 194.167969 67.378906 192.570312 63.675781 189.425781 63.320312 C 186.589844 63.003906 183.328125 65.5625 181.777344 66.859375 C 181.523438 67.074219 181.253906 67.050781 181.207031 67.046875 C 181.109375 67.039062 181.007812 67.011719 180.917969 66.96875 C 180.621094 66.816406 180.535156 66.546875 180.519531 66.5 C 180.421875 66.191406 180.542969 65.945312 180.5625 65.902344 C 180.65625 65.714844 180.671875 65.726562 180.828125 65.589844 C 184.585938 62.25 189.066406 59.804688 192.914062 62.980469 C 194.945312 64.652344 196.191406 67.40625 197.253906 68.660156 C 197.285156 68.695312 197.457031 68.898438 197.4375 69.214844 C 197.414062 69.53125 197.214844 69.707031 197.179688 69.738281 Z M 197.179688 69.738281 " fill-opacity="1" fill-rule="evenodd"/><path fill="#000000" d="M 196.152344 73.96875 C 196.132812 74.011719 196.011719 74.25 195.710938 74.347656 C 195.621094 74.378906 195.519531 74.390625 195.425781 74.382812 C 195.238281 74.371094 195.242188 74.355469 195.074219 74.269531 C 194.863281 74.164062 193.414062 73.386719 192.480469 73.660156 C 191.691406 73.894531 190.117188 74.414062 188.917969 74.480469 C 187.828125 74.539062 186.914062 74.308594 184.902344 73.726562 C 184.582031 73.632812 184.445312 73.398438 184.421875 73.355469 C 184.371094 73.269531 184.335938 73.171875 184.320312 73.070312 C 184.3125 73.019531 184.273438 72.738281 184.472656 72.46875 C 184.5 72.429688 184.667969 72.207031 184.984375 72.164062 C 185.164062 72.140625 185.164062 72.15625 185.34375 72.199219 C 188.46875 72.929688 188.535156 72.886719 191.070312 72.214844 C 191.679688 72.054688 192.101562 71.945312 192.296875 71.917969 C 193.910156 71.683594 195.496094 72.761719 195.789062 72.921875 C 195.9375 73.007812 195.945312 73 196.054688 73.128906 C 196.085938 73.164062 196.253906 73.367188 196.230469 73.675781 C 196.21875 73.828125 196.222656 73.832031 196.152344 73.96875 Z M 196.152344 73.96875 " fill-opacity="1" fill-rule="evenodd"/><path fill="#000000" d="M 205.824219 83.621094 C 205.789062 83.648438 205.5625 83.792969 205.257812 83.726562 C 204.953125 83.65625 204.808594 83.433594 204.78125 83.394531 C 204.28125 82.613281 203.296875 81.761719 203.152344 81.636719 C 201.734375 80.40625 199.429688 78.992188 197.503906 77.988281 C 196.636719 77.535156 195.898438 77.160156 194.574219 76.585938 C 194.53125 76.566406 194.277344 76.453125 194.148438 76.148438 C 194.109375 76.058594 194.085938 75.953125 194.085938 75.851562 C 194.082031 75.804688 194.078125 75.523438 194.308594 75.289062 C 194.53125 75.0625 194.808594 75.058594 194.855469 75.054688 C 195.070312 75.050781 195.070312 75.070312 195.269531 75.148438 C 200.28125 77.089844 202.664062 79.03125 203.050781 79.332031 C 205.136719 80.984375 205.855469 82.261719 206.050781 82.566406 C 206.078125 82.605469 206.222656 82.828125 206.15625 83.140625 C 206.089844 83.453125 205.863281 83.597656 205.824219 83.621094 Z M 205.824219 83.621094 " fill-opacity="1" fill-rule="evenodd"/><path fill="#000000" d="M 214.679688 130.324219 C 215.042969 131.1875 216.613281 135.03125 209.960938 138.859375 C 209.164062 139.316406 208.546875 139.644531 205.398438 141.054688 C 195.082031 145.679688 191.421875 146.542969 191.039062 146.644531 C 189.050781 147.160156 188.039062 147.136719 187.464844 146.671875 C 185.609375 145.15625 185.734375 144.382812 185.566406 137.148438 C 185.449219 132.007812 185.328125 129.335938 184.800781 124.707031 C 184.390625 121.109375 184.050781 118.417969 184.023438 111.898438 C 184.023438 111.851562 184.023438 111.570312 184.25 111.335938 C 184.324219 111.261719 184.410156 111.203125 184.5 111.164062 C 184.546875 111.144531 184.804688 111.03125 185.113281 111.160156 C 185.15625 111.175781 185.410156 111.28125 185.535156 111.582031 C 185.574219 111.675781 185.585938 111.785156 185.597656 111.886719 C 185.613281 112.039062 185.570312 116.050781 185.953125 120.347656 C 186.371094 125.050781 186.9375 127.042969 187.183594 135.53125 C 187.371094 141.992188 187.300781 143.921875 187.886719 144.722656 C 188.050781 144.949219 188.324219 145.171875 188.476562 145.296875 C 188.65625 145.332031 189.28125 145.371094 191.15625 144.828125 C 196.621094 143.25 206.9375 138.441406 207.875 137.976562 C 212.238281 135.792969 214.023438 133.339844 213.101562 131.132812 C 213.074219 131.070312 212.984375 130.878906 212.960938 130.746094 C 212.414062 127.789062 210.320312 115.554688 207.386719 106.738281 C 205.339844 100.589844 203.882812 98.992188 203.175781 94.816406 C 202.953125 93.519531 202.902344 91.289062 205.710938 90.710938 C 208.65625 90.109375 213.472656 91.476562 215.367188 88.496094 C 215.679688 88 216.519531 86.707031 214.714844 83.71875 C 213.089844 81.023438 209.898438 77.9375 206.363281 75.203125 C 202.269531 72.035156 198.589844 69.992188 197.421875 69.722656 C 197.03125 70.511719 196.425781 72.941406 195.914062 75.757812 C 195.90625 75.804688 195.859375 76.070312 195.601562 76.25 C 195.34375 76.429688 195.082031 76.382812 195.035156 76.375 C 194.988281 76.363281 194.730469 76.316406 194.550781 76.054688 C 194.371094 75.792969 194.417969 75.53125 194.425781 75.484375 C 195.449219 69.851562 196.070312 68.957031 196.171875 68.789062 C 196.679688 67.945312 197.417969 67.851562 199.589844 68.917969 C 204.382812 71.269531 215.902344 79.441406 217.355469 85.671875 C 217.8125 87.621094 217.199219 88.890625 216.519531 89.796875 C 214.574219 92.398438 210.992188 92.257812 208.492188 92.265625 C 206.738281 92.269531 205.308594 92.332031 204.949219 93.070312 C 204.71875 93.542969 204.8125 94.269531 205.066406 95.425781 C 206.378906 101.316406 209.554688 102.066406 214.390625 128.703125 C 214.519531 129.421875 214.523438 129.4375 214.679688 130.324219 Z M 214.679688 130.324219 " fill-opacity="1" fill-rule="evenodd"/><path fill="#000000" d="M 108.339844 187.84375 C 108.335938 187.890625 108.3125 188.15625 108.074219 188.363281 C 108 188.425781 107.914062 188.476562 107.820312 188.507812 C 107.726562 188.539062 107.625 188.539062 107.523438 188.542969 C 107.464844 188.546875 106.332031 188.4375 106.226562 188.425781 C 92.882812 187.136719 85.527344 183.707031 79.800781 182.160156 C 74.664062 180.773438 71.433594 181.089844 66.761719 186.851562 C 63.816406 190.484375 62.796875 192.992188 62.714844 193.183594 C 59.902344 199.617188 63.71875 201.980469 66.773438 203.285156 C 69.574219 204.476562 76.761719 207.679688 98.042969 210.738281 C 128.101562 215.0625 167.769531 216.515625 186.609375 217.027344 C 198.097656 217.34375 205.675781 217.398438 205.972656 217.410156 C 216.488281 217.78125 238.867188 218.328125 259.71875 214.367188 C 285.511719 209.46875 295.160156 200.363281 300.066406 195.804688 C 300.101562 195.773438 300.304688 195.582031 300.632812 195.597656 C 300.734375 195.601562 300.835938 195.625 300.925781 195.667969 C 300.96875 195.6875 301.226562 195.808594 301.339844 196.121094 C 301.449219 196.425781 301.335938 196.675781 301.316406 196.71875 C 301.269531 196.816406 301.203125 196.898438 301.132812 196.976562 C 301.066406 197.046875 300.085938 197.949219 299.996094 198.03125 C 291.585938 205.75 271.582031 221.472656 206.316406 219.179688 C 205.3125 219.140625 204.347656 219.160156 199.046875 219.070312 C 164.96875 218.515625 91.628906 215.847656 66.902344 205.171875 C 65.253906 204.460938 60.398438 202.738281 60.09375 197.742188 C 59.996094 196.109375 60.210938 192.410156 65.320312 186.042969 C 70.6875 179.347656 74.652344 179.03125 80.628906 180.734375 C 86.417969 182.378906 94.179688 185.886719 107.648438 187.019531 C 107.695312 187.023438 107.957031 187.042969 108.160156 187.285156 C 108.363281 187.527344 108.34375 187.796875 108.339844 187.84375 Z M 108.339844 187.84375 " fill-opacity="1" fill-rule="evenodd"/><path fill="#000000" d="M 220.117188 210.511719 C 220.125 210.183594 220.320312 210 220.355469 209.96875 C 220.421875 209.898438 220.507812 209.847656 220.597656 209.8125 C 220.691406 209.777344 220.792969 209.777344 220.890625 209.769531 C 220.941406 209.765625 220.941406 209.773438 222.988281 209.808594 C 238.96875 210.089844 245.304688 209.808594 245.332031 209.808594 C 250.277344 209.636719 253.359375 209.339844 257.398438 208.585938 C 258.34375 208.410156 261.945312 207.703125 262.003906 207.707031 C 262.105469 207.707031 262.214844 207.691406 262.3125 207.710938 C 262.359375 207.722656 262.628906 207.777344 262.804688 208.050781 C 262.832031 208.089844 262.984375 208.328125 262.917969 208.65625 C 262.90625 208.703125 262.851562 208.976562 262.582031 209.152344 C 262.496094 209.210938 262.390625 209.238281 262.292969 209.269531 C 262.273438 209.277344 261.910156 209.339844 260.007812 209.734375 C 255.636719 210.644531 252.707031 211.269531 245.71875 211.578125 C 244.699219 211.625 241.902344 211.710938 239.390625 211.71875 C 231.332031 211.746094 222.480469 211.34375 220.851562 211.296875 C 220.804688 211.296875 220.539062 211.289062 220.324219 211.054688 C 220.105469 210.824219 220.113281 210.558594 220.117188 210.511719 Z M 220.117188 210.511719 " fill-opacity="1" fill-rule="evenodd"/><path fill="#000000" d="M 70.890625 168.335938 C 72.207031 167.246094 73.917969 166.507812 75.722656 168.300781 C 77.578125 170.140625 79.058594 174.046875 82.671875 176.125 C 103.394531 188.050781 108.191406 187.085938 124.835938 189.292969 C 132.648438 190.328125 137.378906 191.292969 143.035156 192.351562 C 178.097656 198.914062 197.832031 201.640625 197.910156 201.667969 C 198.003906 201.703125 198.105469 201.71875 198.191406 201.769531 C 198.230469 201.792969 198.457031 201.929688 198.53125 202.230469 C 198.609375 202.542969 198.472656 202.777344 198.449219 202.816406 C 198.289062 203.085938 198.035156 203.152344 197.992188 203.164062 C 197.894531 203.1875 197.792969 203.1875 197.695312 203.179688 C 197.695312 203.179688 194.875 202.769531 191.730469 202.292969 C 165.773438 198.347656 139.128906 193.230469 136.378906 192.734375 C 109.234375 187.804688 107.039062 192.046875 81.851562 177.578125 C 77.46875 175.0625 75.855469 170.246094 74.085938 169.113281 C 73.703125 168.871094 73 168.5 71.253906 170.285156 C 70.921875 170.625 70.839844 170.753906 70.664062 170.84375 C 70.320312 171.023438 70.015625 170.898438 69.960938 170.875 C 69.605469 170.726562 69.503906 170.40625 69.484375 170.351562 C 69.460938 170.28125 69.445312 170.179688 69.304688 169.097656 C 67.160156 152.90625 67.921875 146.6875 67.320312 144.820312 C 67.21875 144.5 67.113281 144.46875 66.917969 144.429688 C 66.804688 144.40625 66.304688 144.351562 66.132812 144.414062 C 65.9375 144.488281 65.136719 145 64.925781 148.753906 C 64.46875 156.960938 67.1875 172.433594 66.402344 176.46875 C 65.5 181.082031 58.476562 185.527344 56.390625 190.511719 C 56.375 190.550781 55.707031 192.160156 55.195312 194.457031 C 52.066406 208.449219 60.082031 221.792969 60.949219 223.285156 C 75.355469 248.132812 93.730469 247.828125 124.878906 255.5 C 152.542969 262.3125 172.269531 254.777344 216.265625 258.113281 C 217.042969 258.171875 219.199219 258.433594 224.707031 258.976562 C 248.128906 261.273438 277.355469 263.136719 290.378906 260.777344 C 293.640625 260.183594 298.1875 252.691406 299.316406 250.820312 C 305.574219 240.445312 312.445312 224.199219 315.660156 215.558594 C 323.738281 193.859375 324.148438 181.53125 324.285156 180.394531 C 325.542969 169.992188 325.722656 161.425781 324.4375 159.324219 C 324.375 159.21875 324.109375 158.855469 323.785156 158.773438 C 323.410156 158.683594 321.945312 158.738281 318.4375 163.953125 C 315.542969 168.265625 312.53125 174.195312 310.902344 177.488281 C 310.878906 177.53125 310.757812 177.78125 310.445312 177.882812 C 310.351562 177.917969 310.246094 177.929688 310.148438 177.925781 C 309.816406 177.902344 309.632812 177.683594 309.601562 177.648438 C 309.390625 177.402344 309.410156 177.128906 309.414062 177.078125 C 309.421875 176.976562 309.457031 176.875 309.492188 176.777344 C 309.515625 176.710938 310.269531 175.214844 310.339844 175.082031 C 318.207031 159.453125 321.59375 157.246094 323.488281 157.148438 C 324.703125 157.082031 325.539062 157.949219 325.9375 158.730469 C 326.390625 159.613281 327.472656 162.296875 326.582031 173.648438 C 326.273438 177.554688 325.898438 180.390625 325.867188 180.8125 C 325.679688 183.085938 324.835938 197.265625 315.21875 221.277344 C 312.660156 227.65625 302.726562 251.722656 294.902344 259.746094 C 292.410156 262.296875 290.9375 262.414062 290.203125 262.539062 C 286.316406 263.199219 274.515625 264.761719 239.800781 262.0625 C 226.886719 261.058594 216.761719 259.914062 216.386719 259.886719 C 213.101562 259.625 209.507812 259.4375 208.90625 259.40625 C 169.980469 257.378906 150.875 263.742188 124.460938 257.242188 C 101.101562 251.496094 84.773438 250.210938 71.710938 239.277344 C 67.433594 235.699219 63.105469 230.746094 58.925781 223.324219 C 55.257812 216.804688 49.796875 203.265625 54.621094 190.238281 C 56.574219 184.960938 63.339844 180.5 64.582031 176.601562 C 64.804688 175.90625 64.984375 174.804688 64.582031 169.867188 C 63.902344 161.484375 62.222656 149.308594 63.875 144.777344 C 64.6875 142.550781 66.101562 142.648438 66.664062 142.675781 C 67.804688 142.738281 68.703125 143.140625 69.042969 144.703125 C 69.390625 146.289062 69.242188 149.214844 69.601562 155.101562 C 69.933594 160.582031 70.519531 165.464844 70.890625 168.335938 Z M 70.890625 168.335938 " fill-opacity="1" fill-rule="evenodd"/><path fill="#000000" d="M 310.628906 176.054688 C 310.671875 176.070312 310.917969 176.167969 311.050781 176.457031 C 311.089844 176.546875 311.113281 176.644531 311.117188 176.742188 C 311.121094 176.839844 311.097656 176.941406 311.070312 177.039062 C 311.058594 177.074219 310.1875 179.417969 310.113281 179.625 C 304.347656 195.140625 302.183594 198.953125 288.394531 204.324219 C 287.773438 204.566406 284.867188 205.683594 283.039062 206.289062 C 268.09375 211.230469 251.855469 209.652344 220.492188 206.230469 C 220.445312 206.222656 220.171875 206.195312 219.964844 205.9375 C 219.902344 205.859375 219.851562 205.765625 219.824219 205.667969 C 219.726562 205.347656 219.863281 205.097656 219.886719 205.054688 C 220.039062 204.769531 220.300781 204.691406 220.347656 204.675781 C 220.445312 204.648438 220.550781 204.644531 220.65625 204.644531 C 220.886719 204.652344 234.335938 206.125 244.101562 206.894531 C 261.84375 208.289062 273.054688 207.976562 283.894531 204.105469 C 296.484375 199.613281 300.496094 197.035156 304.277344 189.589844 C 305.84375 186.503906 307.367188 182.5625 309.324219 177.382812 C 309.613281 176.609375 309.652344 176.503906 309.65625 176.5 C 309.707031 176.414062 309.746094 176.316406 309.8125 176.246094 C 309.84375 176.210938 310.023438 176.019531 310.332031 176.007812 C 310.484375 176.003906 310.484375 176 310.628906 176.054688 Z M 310.628906 176.054688 " fill-opacity="1" fill-rule="evenodd"/><path fill="#000000" d="M 163.90625 93.65625 C 162.546875 94.289062 157.089844 97.023438 153.800781 93.652344 C 153.648438 93.496094 152.414062 92.316406 151.851562 89.636719 C 151.164062 86.363281 152.632812 85.070312 154.003906 79.300781 C 154.847656 75.761719 155.136719 72.871094 155.308594 71.859375 C 156.199219 66.695312 158.835938 65.199219 163.023438 64.871094 C 165.855469 64.648438 169.09375 64.929688 174.199219 64.917969 C 178.058594 64.90625 184.507812 64.996094 185.964844 69.070312 C 186.738281 71.226562 185.738281 73.515625 185.214844 74.742188 C 180.917969 84.855469 173.90625 88.527344 165.21875 93.113281 C 164.796875 93.339844 164.796875 93.339844 164.351562 93.574219 C 164.316406 93.59375 164.140625 93.6875 163.90625 93.65625 Z M 163.988281 92.039062 C 165.035156 91.476562 168.226562 89.789062 170.566406 88.386719 C 176.601562 84.765625 181.027344 80.816406 183.984375 73.210938 C 185.226562 70.019531 184.023438 68.769531 182.996094 68.121094 C 180.46875 66.53125 175.546875 66.734375 173.089844 66.714844 C 165.460938 66.664062 160.75 65.933594 158.5625 68.382812 C 157.179688 69.929688 156.972656 72.480469 156.757812 73.929688 C 155.253906 84.257812 153.011719 85.757812 153.375 88.753906 C 153.464844 89.464844 153.753906 90.648438 154.269531 91.554688 C 154.972656 92.796875 156.800781 95.09375 162.621094 92.496094 C 162.972656 92.339844 163.523438 92.082031 163.574219 92.070312 C 163.675781 92.054688 163.777344 92.019531 163.882812 92.023438 C 163.898438 92.027344 163.9375 92.027344 163.988281 92.039062 Z M 163.988281 92.039062 " fill-opacity="1" fill-rule="evenodd"/><path fill="#000000" d="M 202.0625 209.230469 C 202.058594 209.277344 202.027344 209.542969 201.78125 209.742188 C 201.703125 209.800781 201.617188 209.847656 201.523438 209.875 C 201.425781 209.902344 201.324219 209.902344 201.226562 209.902344 C 201.140625 209.902344 194.199219 209.0625 186.636719 208.726562 C 175.074219 208.214844 170.203125 209.023438 152.152344 205.96875 C 152.105469 205.960938 151.578125 205.871094 151.574219 205.867188 C 151.476562 205.832031 151.371094 205.8125 151.285156 205.757812 C 151.242188 205.730469 151.011719 205.585938 150.9375 205.269531 C 150.925781 205.222656 150.863281 204.945312 151.039062 204.65625 C 151.0625 204.617188 151.207031 204.378906 151.519531 204.308594 C 151.621094 204.285156 151.726562 204.292969 151.828125 204.296875 C 152.019531 204.308594 159.730469 205.65625 167.613281 206.261719 C 176.484375 206.941406 181.257812 206.40625 192.761719 207.433594 C 196.746094 207.792969 201.214844 208.363281 201.398438 208.382812 C 201.445312 208.390625 201.710938 208.421875 201.90625 208.667969 C 202.097656 208.917969 202.070312 209.183594 202.0625 209.230469 Z M 202.0625 209.230469 " fill-opacity="1" fill-rule="evenodd"/><path fill="#000000" d="M 159.585938 206.296875 C 159.59375 206.34375 159.65625 206.605469 159.488281 206.875 C 159.4375 206.957031 159.367188 207.03125 159.289062 207.089844 C 159.148438 207.191406 159.140625 207.179688 158.972656 207.222656 C 157.855469 207.523438 157.644531 207.613281 155.332031 208.109375 C 154.28125 208.332031 153.347656 208.496094 150.804688 209.359375 C 150.636719 209.417969 150.636719 209.429688 150.460938 209.421875 C 150.140625 209.414062 149.953125 209.210938 149.921875 209.175781 C 149.695312 208.929688 149.703125 208.644531 149.707031 208.59375 C 149.71875 208.273438 149.917969 208.082031 149.953125 208.050781 C 150.027344 207.976562 150.125 207.933594 150.214844 207.882812 C 150.214844 207.882812 150.726562 207.667969 151.253906 207.464844 C 152.753906 206.878906 153.59375 206.640625 154.671875 206.410156 C 155.398438 206.25 157.679688 205.917969 158.640625 205.734375 C 158.808594 205.699219 158.808594 205.6875 158.980469 205.714844 C 159.023438 205.722656 159.28125 205.769531 159.460938 206.023438 C 159.550781 206.148438 159.550781 206.148438 159.585938 206.296875 Z M 159.585938 206.296875 " fill-opacity="1" fill-rule="evenodd"/><path fill="#000000" d="M 248.601562 280.988281 L 248.574219 280.945312 C 248.792969 280.796875 257.863281 274.40625 271.15625 276.023438 C 272.980469 276.246094 280.550781 277.460938 284.511719 277.863281 C 290.226562 278.441406 293.804688 278.074219 304.140625 276.597656 C 304.527344 276.542969 304.523438 276.542969 304.910156 276.488281 C 304.953125 276.480469 305.21875 276.441406 305.46875 276.628906 C 305.546875 276.6875 305.617188 276.761719 305.664062 276.84375 C 305.828125 277.121094 305.761719 277.386719 305.75 277.433594 C 305.675781 277.734375 305.453125 277.871094 305.414062 277.894531 C 305.328125 277.945312 305.230469 277.972656 305.132812 278 C 305.109375 278.003906 302.757812 278.367188 302.550781 278.402344 C 289.671875 280.398438 287.65625 280.273438 275.316406 278.4375 C 271.71875 277.898438 270.601562 277.707031 268.839844 277.589844 C 262.667969 277.1875 257.160156 278.515625 252.925781 280.402344 C 250.667969 281.410156 249.417969 282.289062 249.371094 282.316406 C 249.0625 282.488281 248.769531 282.378906 248.71875 282.363281 C 248.625 282.324219 248.535156 282.273438 248.460938 282.203125 C 248.21875 281.976562 248.214844 281.703125 248.214844 281.65625 C 248.210938 281.457031 248.253906 281.382812 248.265625 281.359375 C 248.402344 281.132812 248.480469 281.148438 248.601562 280.988281 Z M 248.632812 280.945312 C 248.640625 280.929688 248.652344 280.914062 248.664062 280.894531 L 248.617188 280.917969 Z M 248.632812 280.945312 " fill-opacity="1" fill-rule="evenodd"/><path fill="#000000" d="M 327.457031 248.789062 C 327.457031 248.835938 327.476562 249.105469 327.269531 249.34375 C 327.203125 249.417969 327.125 249.480469 327.039062 249.523438 C 326.84375 249.621094 326.835938 249.59375 326.621094 249.609375 C 324.582031 249.757812 321.199219 250.050781 316.285156 249.800781 C 312.046875 249.582031 309.304688 249.222656 301.554688 250.449219 C 301.339844 250.484375 301.339844 250.507812 301.125 250.460938 C 300.8125 250.386719 300.667969 250.152344 300.640625 250.113281 C 300.464844 249.828125 300.53125 249.550781 300.539062 249.503906 C 300.613281 249.1875 300.84375 249.039062 300.882812 249.015625 C 301.070312 248.898438 301.078125 248.917969 301.296875 248.878906 C 311.148438 247.097656 313.425781 248.023438 320.054688 248.179688 C 323.140625 248.253906 326.046875 248.105469 326.355469 248.09375 C 326.503906 248.085938 326.503906 248.085938 326.652344 248.078125 C 326.699219 248.074219 326.964844 248.058594 327.199219 248.265625 C 327.4375 248.476562 327.453125 248.742188 327.457031 248.789062 Z M 327.457031 248.789062 " fill-opacity="1" fill-rule="evenodd"/><path fill="#000000" d="M 116.703125 260.835938 C 116.707031 260.882812 116.714844 261.152344 116.5 261.382812 C 116.433594 261.453125 116.351562 261.515625 116.261719 261.554688 C 116.171875 261.59375 116.070312 261.609375 115.972656 261.625 C 115.9375 261.628906 115.9375 261.625 115.507812 261.640625 C 100.253906 262.210938 96.890625 259.546875 87.023438 259.691406 C 83.5625 259.738281 80.289062 260.078125 76.890625 260.546875 C 76.566406 260.59375 76.347656 260.425781 76.308594 260.398438 C 76.226562 260.335938 76.15625 260.257812 76.105469 260.171875 C 75.933594 259.882812 76.003906 259.609375 76.015625 259.558594 C 76.097656 259.246094 76.332031 259.105469 76.371094 259.078125 C 76.460938 259.027344 76.5625 259 76.664062 258.972656 C 76.664062 258.972656 77.277344 258.878906 78.007812 258.773438 C 92.527344 256.714844 95.890625 259.042969 106.222656 259.855469 C 110.511719 260.191406 114.417969 260.125 115.695312 260.101562 C 115.910156 260.097656 115.910156 260.09375 115.929688 260.09375 C 116.027344 260.113281 116.128906 260.109375 116.222656 260.148438 C 116.265625 260.164062 116.507812 260.257812 116.636719 260.542969 C 116.699219 260.679688 116.699219 260.683594 116.703125 260.835938 Z M 116.703125 260.835938 " fill-opacity="1" fill-rule="evenodd"/><path fill="#000000" d="M 240.21875 283.921875 C 240.210938 283.964844 240.171875 284.230469 239.921875 284.421875 C 239.84375 284.480469 239.753906 284.523438 239.660156 284.546875 C 239.5625 284.570312 239.460938 284.566406 239.363281 284.5625 C 239.21875 284.554688 233.195312 283.570312 225.113281 282.976562 C 208.542969 281.757812 200.519531 283.328125 193.503906 279.671875 C 183.839844 274.644531 167.953125 267.394531 150.273438 266.171875 C 141.917969 265.59375 135.601562 266.527344 131.53125 267.246094 C 131.484375 267.257812 131.210938 267.304688 130.945312 267.117188 C 130.863281 267.058594 130.789062 266.984375 130.734375 266.898438 C 130.554688 266.617188 130.617188 266.339844 130.628906 266.289062 C 130.695312 265.972656 130.925781 265.824219 130.964844 265.796875 C 131.054688 265.742188 131.15625 265.710938 131.253906 265.683594 C 131.328125 265.660156 132.480469 265.464844 132.585938 265.445312 C 143.785156 263.542969 162.296875 262.542969 189.605469 275.707031 C 192.296875 277.003906 194.300781 278.089844 194.886719 278.367188 C 202.925781 282.195312 213.484375 279.117188 238.65625 282.910156 C 238.730469 282.921875 239.585938 283.050781 239.585938 283.050781 C 239.679688 283.085938 239.78125 283.101562 239.867188 283.15625 C 239.90625 283.179688 240.128906 283.316406 240.203125 283.617188 C 240.242188 283.765625 240.242188 283.769531 240.21875 283.921875 Z M 240.21875 283.921875 " fill-opacity="1" fill-rule="evenodd"/><path fill="#c5b394" d="M 159.199219 140.921875 C 159.5 146.425781 159.527344 146.980469 161.660156 150.707031 " fill-opacity="1" fill-rule="evenodd"/><path fill="#000000" d="M 161.992188 151.285156 C 161.953125 151.304688 161.75 151.421875 161.484375 151.347656 C 161.402344 151.324219 161.324219 151.285156 161.253906 151.234375 C 161.128906 151.136719 161.136719 151.128906 161.054688 150.992188 C 160.21875 149.589844 159.375 148.261719 158.972656 146.527344 C 158.675781 145.261719 158.609375 143.695312 158.535156 140.960938 C 158.535156 140.917969 158.53125 140.6875 158.714844 140.480469 C 158.769531 140.417969 158.839844 140.363281 158.914062 140.328125 C 159.160156 140.207031 159.378906 140.285156 159.417969 140.300781 C 159.667969 140.390625 159.769531 140.597656 159.789062 140.632812 C 159.859375 140.773438 159.851562 140.777344 159.863281 140.933594 C 160.296875 146.292969 160.316406 146.789062 162.144531 150.203125 C 162.191406 150.289062 162.1875 150.289062 162.238281 150.375 C 162.257812 150.410156 162.375 150.613281 162.300781 150.878906 C 162.230469 151.148438 162.027344 151.261719 161.992188 151.285156 Z M 161.992188 151.285156 " fill-opacity="1" fill-rule="evenodd"/></svg>