<svg xmlns="http://www.w3.org/2000/svg" xmlns:xlink="http://www.w3.org/1999/xlink" width="500" zoomAndPan="magnify" viewBox="0 0 375 307.91998" height="400" preserveAspectRatio="xMidYMid meet" version="1.0"><defs><clipPath id="907c415f45"><path d="M 0.046875 0 L 374.949219 0 L 374.949219 299.921875 L 0.046875 299.921875 Z M 0.046875 0 " clip-rule="nonzero"/></clipPath><clipPath id="b186865111"><path d="M 79 256 L 296 256 L 296 299.921875 L 79 299.921875 Z M 79 256 " clip-rule="nonzero"/></clipPath><clipPath id="c60314ee60"><path d="M 67.90625 240 L 307.09375 240 L 307.09375 257 L 67.90625 257 Z M 67.90625 240 " clip-rule="nonzero"/></clipPath><clipPath id="f00e71f39b"><path d="M 67.90625 207 L 307.09375 207 L 307.09375 246 L 67.90625 246 Z M 67.90625 207 " clip-rule="nonzero"/></clipPath></defs><g clip-path="url(#907c415f45)"><path fill="#ffffff" d="M 0.046875 0 L 374.953125 0 L 374.953125 299.921875 L 0.046875 299.921875 Z M 0.046875 0 " fill-opacity="1" fill-rule="nonzero"/><path fill="#ffffff" d="M 0.046875 0 L 374.953125 0 L 374.953125 299.921875 L 0.046875 299.921875 Z M 0.046875 0 " fill-opacity="1" fill-rule="nonzero"/></g><path fill="#733a1c" d="M 87.636719 150.726562 C 97.621094 155.933594 100.4375 147.664062 92.414062 162.242188 C 84.390625 177 90.882812 186.125 90.882812 186.125 C 90.882812 186.125 90.640625 173.753906 96.335938 170.507812 C 95.90625 181.164062 95.90625 186.800781 102.644531 190.230469 C 109.378906 193.722656 124.753906 196.539062 141.289062 194.148438 C 157.519531 191.515625 220.480469 179.144531 226.300781 175.652344 C 232.179688 172.164062 231.503906 160.21875 231.503906 160.21875 C 231.503906 160.21875 235.425781 166.28125 235.609375 169.957031 C 260.476562 144.601562 222.992188 134.433594 232.300781 108.40625 C 237.507812 91.257812 236.28125 85.316406 224.585938 78.332031 C 212.886719 71.414062 219.378906 73.800781 211.292969 56.652344 C 183.609375 0 111.832031 65.472656 90.148438 74.660156 C 86.046875 88.5625 81.453125 94.195312 87.332031 106.996094 C 93.394531 119.613281 97.558594 114.347656 87.332031 126.71875 C 77.226562 139.210938 77.65625 145.519531 87.636719 150.726562 Z M 87.636719 150.726562 " fill-opacity="1" fill-rule="nonzero"/><path fill="#ff7800" d="M 167.074219 216.6875 C 167.074219 216.6875 207.863281 226.425781 227.402344 208.421875 C 222.871094 178.839844 219.132812 169.835938 208.78125 145.949219 C 199.042969 143.5625 194.023438 145.09375 190.347656 146.195312 C 184.714844 146.195312 177.117188 148.152344 171.914062 149.867188 C 170.199219 150.542969 166.460938 149.867188 166.035156 152.011719 C 164.871094 159.605469 167.195312 216.320312 167.074219 216.6875 Z M 167.074219 216.6875 " fill-opacity="1" fill-rule="nonzero"/><path fill="#ffc1a0" d="M 159.910156 209.09375 C 165.113281 203.886719 169.890625 193.046875 169.890625 193.046875 L 140.617188 185.207031 C 140.617188 185.207031 138.226562 197.578125 141.042969 202.355469 C 144.046875 207.132812 154.949219 214.300781 159.910156 209.09375 Z M 159.910156 209.09375 " fill-opacity="1" fill-rule="nonzero"/><path fill="#ffc1a0" d="M 251.042969 139.394531 C 259.3125 128.308594 256.921875 88.195312 256.921875 88.195312 L 240.203125 84.519531 C 240.203125 84.519531 236.28125 111.222656 233.894531 120.105469 C 231.503906 128.984375 226.054688 128.125 224.585938 129.230469 L 229.789062 153.726562 C 229.789062 153.726562 242.835938 150.480469 251.042969 139.394531 Z M 251.042969 139.394531 " fill-opacity="1" fill-rule="nonzero"/><path fill="#ff7800" d="M 240.019531 154.15625 C 240.019531 154.15625 233.957031 135.476562 226.789062 124.207031 C 217.601562 131.984375 205.84375 139.640625 196.167969 145.277344 C 197.023438 153.542969 203.085938 163.097656 213.988281 170.449219 C 223.296875 166.097656 240.019531 154.15625 240.019531 154.15625 Z M 240.019531 154.15625 " fill-opacity="1" fill-rule="nonzero"/><path fill="#1a5fb4" d="M 166.21875 196.046875 L 164.6875 212.15625 C 164.6875 212.15625 227.402344 207.625 228.257812 207.808594 C 229.117188 208.054688 223.910156 178.714844 215.886719 165.488281 C 202.230469 165.488281 167.257812 178.960938 167.257812 178.960938 C 170.320312 190.660156 166.21875 196.292969 166.21875 196.046875 Z M 166.21875 196.046875 " fill-opacity="1" fill-rule="nonzero"/><g clip-path="url(#b186865111)"><path fill="#b5835a" d="M 79.738281 256.867188 L 295.507812 256.867188 L 295.507812 299.921875 L 79.738281 299.921875 Z M 79.738281 256.867188 " fill-opacity="1" fill-rule="nonzero"/></g><path fill="#a07758" d="M 79.738281 253.496094 L 295.507812 253.496094 L 295.507812 265.195312 L 79.738281 265.195312 Z M 79.738281 253.496094 " fill-opacity="1" fill-rule="nonzero"/><g clip-path="url(#c60314ee60)"><path fill="#865e3c" d="M 67.917969 245.71875 L 70.671875 240.328125 L 304.328125 240.328125 L 307.082031 245.71875 L 307.082031 256.683594 L 68.039062 256.683594 Z M 67.917969 245.71875 " fill-opacity="1" fill-rule="nonzero"/></g><g clip-path="url(#f00e71f39b)"><path fill="#b5835a" d="M 287.546875 207.316406 L 87.453125 207.316406 L 67.917969 245.71875 L 307.082031 245.71875 Z M 287.546875 207.316406 " fill-opacity="1" fill-rule="nonzero"/></g><path fill="#ff7800" d="M 167.503906 193.230469 C 168.359375 170.019531 167.75 150.480469 167.75 150.480469 C 159.050781 153.726562 148.640625 157.402344 145.394531 161.566406 C 142.148438 165.671875 138.226562 190.414062 138.226562 190.414062 C 144.71875 187.167969 157.519531 195.007812 167.503906 193.230469 Z M 167.503906 193.230469 " fill-opacity="1" fill-rule="nonzero"/><path fill="#e66100" d="M 195.0625 146.132812 C 182.445312 149.625 167.074219 154.15625 167.074219 154.15625 C 167.074219 154.15625 167.320312 161.75 179.199219 161.320312 C 191.144531 160.894531 195.0625 149.867188 195.0625 146.132812 Z M 195.0625 146.132812 " fill-opacity="1" fill-rule="nonzero"/><path fill="#ffa06d" d="M 181.160156 158.933594 C 190.285156 156.972656 192.675781 146.808594 192.675781 146.808594 L 169.277344 154.644531 C 170.996094 155.074219 172.097656 160.894531 181.160156 158.933594 Z M 181.160156 158.933594 " fill-opacity="1" fill-rule="nonzero"/><path fill="#ffc1a0" d="M 261.027344 78.457031 C 263.046875 74.71875 262.128906 66.636719 257.105469 67.003906 C 257.105469 67.003906 255.390625 64.1875 252.757812 65.042969 C 251.472656 62.226562 246.449219 63.082031 246.449219 63.082031 C 246.449219 63.082031 246.019531 46.179688 242.957031 46.792969 C 239.894531 47.464844 239.039062 68.71875 239.039062 68.71875 C 233.527344 69.757812 234.324219 77.660156 234.691406 82.4375 C 236.464844 88.195312 241.242188 86.480469 239.039062 94.378906 C 239.039062 94.378906 244.917969 97.015625 252.269531 96.769531 C 258.148438 92.847656 257.902344 81.761719 257.902344 81.761719 C 257.902344 81.761719 259.738281 80.601562 261.027344 78.457031 Z M 261.027344 78.457031 " fill-opacity="1" fill-rule="nonzero"/><path fill="#ff8e52" d="M 247.613281 86.90625 C 247.308594 86.90625 247.125 86.601562 247.183594 86.234375 C 247.308594 81.027344 245.347656 77.78125 241.367188 76.679688 C 241 76.558594 241.058594 76.007812 241.367188 75.882812 C 243.265625 74.84375 245.898438 73.679688 247.550781 71.351562 C 248.46875 69.332031 248.101562 65.839844 244.671875 67.675781 C 244.183594 67.738281 238.546875 70.1875 240.324219 68.167969 C 242.285156 67.800781 246.082031 65.59375 247.734375 66.574219 C 251.347656 70.554688 245.960938 74.902344 242.714844 76.191406 C 245.46875 77.292969 248.347656 80.046875 248.101562 86.480469 C 248.042969 86.722656 247.859375 86.90625 247.613281 86.90625 Z M 247.613281 86.90625 " fill-opacity="1" fill-rule="nonzero"/><path fill="#ff8e52" d="M 248.46875 78.332031 C 247.917969 78.332031 247.367188 78.148438 246.695312 77.722656 C 246.632812 77.722656 246.632812 77.660156 246.632812 77.660156 C 245.53125 77.171875 245.164062 75.882812 244.980469 74.78125 C 244.980469 74.78125 244.980469 74.78125 244.980469 74.71875 C 244.183594 73.679688 246.082031 73.742188 245.898438 74.78125 C 246.082031 76.984375 248.46875 78.027344 250.246094 76.984375 C 251.226562 76.191406 251.960938 75.394531 252.328125 74.660156 C 252.695312 71.78125 252.636719 68.65625 252.390625 65.71875 C 252.328125 65.472656 252.511719 65.226562 252.757812 65.226562 C 253.984375 65.902344 253.246094 68.902344 253.492188 70.1875 C 253.859375 73.679688 252.636719 78.027344 248.46875 78.332031 Z M 248.46875 78.332031 " fill-opacity="1" fill-rule="nonzero"/><path fill="#ff8e52" d="M 252.878906 80.355469 C 251.53125 80.417969 248.839844 78.886719 249.328125 77.414062 C 249.511719 77.292969 249.816406 77.355469 249.941406 77.539062 C 250.859375 79.191406 253.246094 80.171875 254.65625 78.761719 C 254.65625 78.761719 254.71875 78.761719 254.71875 78.703125 C 256.1875 77.476562 257.535156 75.882812 257.167969 73.800781 C 257.167969 73.800781 257.167969 69.023438 257.167969 69.023438 C 257.042969 68.535156 256.675781 67.800781 257.105469 67.433594 C 257.472656 67.0625 258.023438 67.554688 257.78125 67.984375 C 258.207031 69.148438 257.964844 73.25 258.023438 74.476562 C 258.207031 77.046875 255.515625 80.230469 252.878906 80.355469 Z M 257.65625 68.105469 Z M 257.65625 68.105469 " fill-opacity="1" fill-rule="nonzero"/><path fill="#ff8e52" d="M 256.921875 81.945312 C 256.003906 81.945312 254.960938 81.761719 253.984375 80.417969 C 253.613281 79.925781 254.289062 79.4375 254.65625 79.863281 C 255.757812 81.394531 256.859375 80.96875 258.207031 81.027344 C 258.761719 81.027344 258.761719 81.886719 258.207031 81.886719 C 257.71875 81.886719 257.351562 81.945312 256.921875 81.945312 Z M 256.921875 81.945312 " fill-opacity="1" fill-rule="nonzero"/><path fill="#e66100" d="M 167.074219 193.476562 C 167.074219 193.476562 168.359375 170.875 161.195312 163.957031 C 166.21875 172.222656 163.15625 192.617188 163.15625 193.90625 Z M 167.074219 193.476562 " fill-opacity="1" fill-rule="nonzero"/><path fill="#ffc1a0" d="M 164.503906 210.625 C 173.628906 211.300781 184.039062 208.480469 184.039062 208.480469 L 184.039062 195.007812 C 171.914062 191.332031 164.316406 188.699219 152.128906 190.902344 C 145.636719 192.007812 141.472656 198.925781 142.574219 203.703125 C 143.617188 208.421875 155.375 209.953125 164.503906 210.625 Z M 164.503906 210.625 " fill-opacity="1" fill-rule="nonzero"/><path fill="#ffc1a0" d="M 197.453125 206.277344 C 201.617188 207.5625 211.292969 213.382812 214.171875 204.5 C 213.4375 197.089844 205.597656 192.433594 196.59375 191.882812 C 191.390625 192.128906 182.507812 195.128906 181.835938 195.375 C 173.8125 210.929688 189.183594 209.953125 197.453125 206.277344 Z M 197.453125 206.277344 " fill-opacity="1" fill-rule="nonzero"/><path fill="#1a5fb4" d="M 177.300781 177.429688 C 177.300781 176.574219 172.097656 160.28125 167.5625 155.75 C 161.257812 155.75 157.828125 157.28125 157.828125 157.28125 C 163.214844 162.425781 168.542969 170.082031 168.851562 180.0625 C 168.851562 180.0625 177.300781 178.472656 177.300781 177.429688 Z M 177.300781 177.429688 " fill-opacity="1" fill-rule="nonzero"/><path fill="#1a5fb4" d="M 203.945312 138.785156 C 200.453125 140.5 195.246094 143.132812 195.246094 143.132812 C 195.246094 143.132812 204.800781 162.242188 205.230469 169.589844 C 209.578125 168.304688 214.355469 166.773438 214.355469 166.773438 C 214.355469 166.773438 208.539062 145.09375 203.945312 138.785156 Z M 203.945312 138.785156 " fill-opacity="1" fill-rule="nonzero"/><path fill="#733a1c" d="M 117.035156 137.191406 C 131.796875 145.214844 140.308594 145.886719 145.515625 142.582031 C 150.84375 139.152344 165.296875 131.925781 170.074219 128.433594 C 174.667969 124.636719 212.582031 85.5 212.582031 85.5 C 216.195312 60.511719 176.75 10.472656 126.652344 33.746094 C 93.089844 50.097656 84.757812 73.742188 91.066406 95.789062 C 97.375 117.777344 101.96875 129.351562 117.035156 137.191406 Z M 117.035156 137.191406 " fill-opacity="1" fill-rule="nonzero"/><path fill="#ffc1a0" d="M 129.347656 156.238281 C 139.144531 153.972656 141.472656 146.625 141.472656 146.625 L 132.652344 132.964844 C 132.652344 132.964844 116.851562 123.839844 111.339844 134.191406 C 105.890625 144.601562 119.484375 158.382812 129.347656 156.238281 Z M 129.347656 156.238281 " fill-opacity="1" fill-rule="nonzero"/><path fill="#ff8e52" d="M 128.304688 147.601562 C 132.59375 146.625 133.449219 143.5 133.449219 143.5 L 129.59375 137.4375 C 129.59375 137.4375 122.792969 133.457031 120.527344 137.988281 C 118.078125 142.640625 124.203125 148.644531 128.304688 147.601562 Z M 128.304688 147.601562 " fill-opacity="1" fill-rule="nonzero"/><path fill="#ffc1a0" d="M 223.972656 106.507812 C 231.320312 99.648438 227.585938 80.539062 216.070312 79.128906 C 204.558594 77.722656 203.027344 96.035156 203.027344 96.035156 L 209.273438 111.039062 C 209.273438 111.039062 216.621094 113.367188 223.972656 106.507812 Z M 223.972656 106.507812 " fill-opacity="1" fill-rule="nonzero"/><path fill="#ff8e52" d="M 217.542969 100.628906 C 224.09375 90.890625 209.761719 82.007812 208.355469 96.15625 L 211.109375 102.585938 C 211.109375 102.585938 214.480469 103.566406 217.542969 100.628906 Z M 217.542969 100.628906 " fill-opacity="1" fill-rule="nonzero"/><path fill="#ffc1a0" d="M 187.164062 152.195312 C 231.078125 129.71875 219.378906 89.785156 180.363281 61.734375 C 147.597656 46.300781 132.53125 78.457031 108.953125 88.132812 C 113.484375 135.539062 141.535156 177.734375 187.164062 152.195312 Z M 187.164062 152.195312 " fill-opacity="1" fill-rule="nonzero"/><path fill="#632d28" d="M 183.917969 144.296875 C 201.3125 133.699219 196.289062 117.835938 190.59375 117.53125 C 185.140625 117.164062 181.34375 124.941406 174.238281 129.230469 C 167.011719 133.640625 159.296875 132.964844 157.214844 138.109375 C 154.765625 143.253906 166.890625 154.890625 183.917969 144.296875 Z M 183.917969 144.296875 " fill-opacity="1" fill-rule="nonzero"/><path fill="#fefefe" d="M 186.855469 117.777344 C 182.9375 119.796875 179.445312 125.433594 173.8125 128.679688 C 168.300781 132.230469 162.542969 132.535156 158.988281 134.925781 C 168.605469 145.644531 192 131.128906 186.855469 117.777344 Z M 186.855469 117.777344 " fill-opacity="1" fill-rule="nonzero"/><path fill="#632d28" d="M 183.550781 126.78125 L 187.714844 130.453125 L 188.511719 127.574219 Z M 183.550781 126.78125 " fill-opacity="1" fill-rule="nonzero"/><path fill="#d84141" d="M 183 145.582031 C 187.164062 143.5 191.328125 139.335938 193.410156 135.964844 C 185.507812 135.292969 175.34375 141.539062 172.28125 148.890625 C 175.710938 148.828125 179.507812 147.542969 183 145.582031 Z M 183 145.582031 " fill-opacity="1" fill-rule="nonzero"/><path fill="#632d28" d="M 128.917969 105.710938 C 131.859375 102.34375 138.777344 103.566406 139.699219 99.523438 C 137.921875 93.585938 125.183594 102.769531 127.753906 106.261719 C 128.183594 106.382812 128.550781 105.957031 128.917969 105.710938 Z M 128.917969 105.710938 " fill-opacity="1" fill-rule="nonzero"/><path fill="#632d28" d="M 173.6875 82.925781 C 175.769531 80.722656 178.34375 79.128906 181.160156 78.210938 C 181.589844 77.964844 182.078125 77.90625 182.203125 77.414062 C 182.203125 76.925781 182.203125 76.925781 181.652344 76.433594 C 169.585938 74.046875 165.175781 87.335938 173.6875 82.925781 Z M 173.6875 82.925781 " fill-opacity="1" fill-rule="nonzero"/><path fill="#fefefe" d="M 149.621094 133.457031 C 164.503906 127.269531 154.152344 103.996094 139.515625 110.734375 C 121.261719 116.917969 134.554688 140.742188 149.621094 133.457031 Z M 149.621094 133.457031 " fill-opacity="1" fill-rule="nonzero"/><path fill="#632d28" d="M 152.070312 111.957031 C 140.371094 102.710938 127.875 113.367188 130.328125 121.511719 C 130.203125 121.328125 134.308594 104.300781 152.070312 111.957031 Z M 152.070312 111.957031 " fill-opacity="1" fill-rule="nonzero"/><path fill="#632d28" d="M 150.597656 128.921875 C 159.785156 124.269531 152.679688 109.8125 143.1875 114.773438 C 133.757812 119.796875 141.414062 133.761719 150.597656 128.921875 Z M 150.597656 128.921875 " fill-opacity="1" fill-rule="nonzero"/><path fill="#1d0703" d="M 148.761719 125.125 C 152.867188 122.796875 149.558594 116.488281 145.269531 118.695312 C 140.984375 121.023438 144.71875 127.332031 148.761719 125.125 Z M 148.761719 125.125 " fill-opacity="1" fill-rule="nonzero"/><path fill="#fefefe" d="M 148.699219 120.839844 C 152.191406 119.308594 149.375 113.734375 146.066406 115.632812 C 142.636719 117.347656 145.394531 122.613281 148.699219 120.839844 Z M 148.699219 120.839844 " fill-opacity="1" fill-rule="nonzero"/><path fill="#fefefe" d="M 147.292969 127.636719 C 148.945312 127.085938 147.660156 124.144531 146.066406 125.1875 C 144.535156 125.921875 145.578125 128.679688 147.292969 127.636719 Z M 147.292969 127.636719 " fill-opacity="1" fill-rule="nonzero"/><path fill="#ff8e52" d="M 174.792969 122.308594 C 172.648438 120.53125 166.339844 120.410156 166.277344 122.125 C 166.277344 123.105469 166.339844 125.492188 169.832031 127.023438 C 165.359375 122.308594 172.710938 122.0625 174.792969 122.308594 Z M 174.792969 122.308594 " fill-opacity="1" fill-rule="nonzero"/><path fill="#f2957c" d="M 149.066406 146.378906 C 155.925781 142.640625 152.253906 135.292969 145.210938 139.027344 C 138.105469 142.519531 142.085938 150.175781 149.066406 146.378906 Z M 149.066406 146.378906 " fill-opacity="1" fill-rule="nonzero"/><path fill="#f2957c" d="M 205.476562 116.796875 C 212.335938 113.058594 208.660156 105.710938 201.617188 109.445312 C 194.574219 113 198.492188 120.53125 205.476562 116.796875 Z M 205.476562 116.796875 " fill-opacity="1" fill-rule="nonzero"/><path fill="#fefefe" d="M 191.328125 111.589844 C 205.84375 103.382812 193.898438 78.640625 178.527344 90.398438 C 164.871094 98.667969 177.792969 120.289062 191.328125 111.589844 Z M 191.328125 111.589844 " fill-opacity="1" fill-rule="nonzero"/><path fill="#632d28" d="M 192.429688 88.808594 C 187.285156 82.191406 171.546875 86.601562 172.28125 101.421875 C 176.015625 82.4375 192.367188 88.683594 192.429688 88.808594 Z M 192.429688 88.808594 " fill-opacity="1" fill-rule="nonzero"/><path fill="#632d28" d="M 186.429688 109.203125 C 195.675781 104.484375 188.328125 90.09375 179.015625 95.054688 C 169.585938 100.074219 177.179688 114.101562 186.429688 109.203125 Z M 186.429688 109.203125 " fill-opacity="1" fill-rule="nonzero"/><path fill="#1d0703" d="M 184.40625 105.464844 C 188.570312 103.136719 185.019531 96.769531 180.917969 99.035156 C 176.75 101.363281 180.304688 107.730469 184.40625 105.464844 Z M 184.40625 105.464844 " fill-opacity="1" fill-rule="nonzero"/><path fill="#fefefe" d="M 180.488281 103.199219 C 183.976562 101.667969 181.160156 96.09375 177.855469 97.992188 C 174.546875 99.464844 177.117188 105.222656 180.488281 103.199219 Z M 180.488281 103.199219 " fill-opacity="1" fill-rule="nonzero"/><path fill="#fefefe" d="M 186.980469 105.710938 C 188.386719 104.976562 187.46875 102.21875 185.753906 103.261719 C 184.222656 104.300781 185.386719 106.324219 186.980469 105.710938 Z M 186.980469 105.710938 " fill-opacity="1" fill-rule="nonzero"/><path fill="#733a1c" d="M 183.367188 68.042969 C 197.207031 69.757812 206.640625 92.542969 210.496094 102.097656 C 206.882812 83.234375 199.65625 46.179688 171.238281 46.117188 C 150.964844 47.589844 126.222656 54.019531 109.808594 67.1875 C 106.5625 71.964844 99.152344 78.027344 98.722656 79.988281 C 98.296875 81.945312 103.5 82.375 103.074219 89.113281 C 102.644531 95.851562 112.382812 121.207031 112.382812 121.207031 C 112.382812 121.207031 123.894531 135.722656 130.632812 139.457031 C 119.117188 122.125 113.300781 102.34375 113.300781 102.34375 L 125.242188 94.746094 L 124.140625 86.722656 L 130.449219 92.359375 L 144.105469 84.519531 L 141.964844 78.027344 L 148.027344 83.90625 L 165.605469 75.210938 L 159.726562 64.371094 L 170.382812 72.820312 C 170.320312 72.820312 177.914062 68.472656 183.367188 68.042969 Z M 183.367188 68.042969 " fill-opacity="1" fill-rule="nonzero"/><path fill="#ffaa01" d="M 177.730469 38.523438 C 155.5 22.785156 86.71875 42.566406 97.4375 83.476562 C 102.214844 49.121094 166.644531 34.789062 177.730469 38.523438 Z M 177.730469 38.523438 " fill-opacity="1" fill-rule="nonzero"/><path fill="#12417c" d="M 177.914062 183.492188 C 177.976562 179.265625 171.363281 179.265625 171.421875 183.492188 C 171.363281 187.71875 177.914062 187.71875 177.914062 183.492188 Z M 177.914062 183.492188 " fill-opacity="1" fill-rule="nonzero"/><path fill="#12417c" d="M 214.417969 173.265625 C 214.480469 169.039062 207.863281 169.039062 207.925781 173.265625 C 207.863281 177.492188 214.417969 177.550781 214.417969 173.265625 Z M 214.417969 173.265625 " fill-opacity="1" fill-rule="nonzero"/></svg>