<svg xmlns="http://www.w3.org/2000/svg" xmlns:xlink="http://www.w3.org/1999/xlink" width="500" zoomAndPan="magnify" viewBox="0 0 375 299.999988" height="400" preserveAspectRatio="xMidYMid meet" version="1.0"><defs><clipPath id="c61af63163"><path d="M 210.488281 277 L 233.464844 277 L 233.464844 299.78125 L 210.488281 299.78125 Z M 210.488281 277 " clip-rule="nonzero"/></clipPath><clipPath id="d7b8540d6d"><path d="M 123.523438 277 L 146.496094 277 L 146.496094 299.78125 L 123.523438 299.78125 Z M 123.523438 277 " clip-rule="nonzero"/></clipPath><clipPath id="f6f5edee8f"><path d="M 111.5625 70.746094 L 263.808594 70.746094 L 263.808594 92.511719 L 111.5625 92.511719 Z M 111.5625 70.746094 " clip-rule="nonzero"/></clipPath><clipPath id="2f9613e0d6"><path d="M 111.5625 83.929688 L 263.808594 83.929688 L 263.808594 92.511719 L 111.5625 92.511719 Z M 111.5625 83.929688 " clip-rule="nonzero"/></clipPath></defs><rect x="-37.5" width="450" fill="#ffffff" y="-29.999999" height="359.999986" fill-opacity="1"/><rect x="-37.5" width="450" fill="#ffffff" y="-29.999999" height="359.999986" fill-opacity="1"/><path fill="#dbe8e9" d="M 206.75 0.210938 L 233.375 30.480469 L 253.074219 67.78125 L 204.957031 100.609375 L 184.042969 61.539062 L 158.628906 33.039062 L 206.75 0.210938 " fill-opacity="1" fill-rule="nonzero"/><path fill="#b5c6d7" d="M 121.816406 52.496094 L 163.230469 42.710938 L 207.789062 42.832031 L 214.675781 103.757812 L 167.859375 103.886719 L 128.699219 113.421875 L 121.816406 52.496094 " fill-opacity="1" fill-rule="nonzero"/><path fill="#d0dade" d="M 183.667969 15.171875 L 196.347656 53.402344 L 199.902344 95.414062 L 142.757812 106.917969 L 138.777344 62.800781 L 126.523438 26.671875 L 183.667969 15.171875 " fill-opacity="1" fill-rule="nonzero"/><path fill="#e0c8ad" d="M 140.785156 76.203125 L 140.117188 67.921875 L 145.160156 57.53125 L 141.324219 46.882812 L 127.964844 41.625 L 128.1875 47.746094 L 116.804688 44.234375 L 121.066406 48.492188 L 112.785156 62.226562 L 123.515625 75.195312 L 140.785156 76.203125 " fill-opacity="1" fill-rule="nonzero"/><path fill="#bda9a0" d="M 140.785156 76.203125 L 134.964844 58.347656 L 145.160156 57.53125 L 133.625 46.765625 L 136.960938 54.449219 L 128.1875 47.742188 L 116.804688 44.234375 L 121.066406 48.488281 L 130.507812 54.453125 L 123.515625 75.195312 L 127.28125 71.59375 L 140.785156 76.203125 " fill-opacity="1" fill-rule="nonzero"/><path fill="#8e7971" d="M 132.480469 57.414062 L 134.964844 58.34375 L 145.160156 57.53125 L 140.355469 56.839844 L 136.960938 54.449219 L 128.1875 47.742188 L 134.207031 55.957031 L 121.066406 48.488281 L 130.507812 54.449219 L 123.515625 75.195312 L 127.28125 71.589844 L 132.480469 57.414062 " fill-opacity="1" fill-rule="nonzero"/><path fill="#b5aa98" d="M 243.71875 96.425781 L 256.742188 63.589844 L 261.964844 26.988281 L 212.511719 14.058594 L 206.8125 52.480469 L 194.265625 83.5 L 243.71875 96.425781 " fill-opacity="1" fill-rule="nonzero"/><path fill="#d9cda7" d="M 247.457031 90.289062 L 254.082031 55.601562 L 252.339844 18.667969 L 201.335938 15.210938 L 202.949219 54.015625 L 196.449219 86.832031 L 247.457031 90.289062 " fill-opacity="1" fill-rule="nonzero"/><path fill="#c7bba4" d="M 254.082031 55.601562 L 252.339844 18.667969 L 201.335938 15.210938 L 202.949219 54.015625 L 254.082031 55.601562 " fill-opacity="1" fill-rule="nonzero"/><path fill="#8d8d85" d="M 220.5625 51.8125 L 208.265625 51.441406 L 206.140625 23.242188 L 218.726562 24.339844 L 220.5625 51.8125 " fill-opacity="1" fill-rule="nonzero"/><path fill="#8d8d85" d="M 244.222656 27.058594 C 244.078125 27.125 243.917969 27.160156 243.75 27.152344 L 222.496094 26.480469 C 221.921875 26.460938 221.46875 25.984375 221.488281 25.410156 C 221.507812 24.832031 221.988281 24.382812 222.5625 24.402344 L 243.8125 25.074219 C 244.390625 25.09375 244.839844 25.574219 244.824219 26.148438 C 244.8125 26.550781 244.566406 26.898438 244.222656 27.058594 " fill-opacity="1" fill-rule="nonzero"/><path fill="#8d8d85" d="M 244.683594 31.699219 C 244.539062 31.765625 244.378906 31.800781 244.210938 31.796875 L 222.960938 31.121094 C 222.382812 31.105469 221.933594 30.625 221.949219 30.050781 C 221.96875 29.476562 222.453125 29.027344 223.027344 29.042969 L 244.277344 29.714844 C 244.851562 29.734375 245.304688 30.214844 245.285156 30.789062 C 245.273438 31.195312 245.027344 31.539062 244.683594 31.699219 " fill-opacity="1" fill-rule="nonzero"/><path fill="#8d8d85" d="M 245.148438 36.339844 C 245.003906 36.40625 244.839844 36.4375 244.671875 36.433594 L 223.421875 35.761719 C 222.847656 35.742188 222.394531 35.265625 222.414062 34.6875 C 222.433594 34.113281 222.914062 33.664062 223.488281 33.683594 L 244.738281 34.355469 C 245.316406 34.375 245.765625 34.855469 245.746094 35.429688 C 245.734375 35.832031 245.492188 36.175781 245.148438 36.339844 " fill-opacity="1" fill-rule="nonzero"/><path fill="#8d8d85" d="M 245.609375 40.980469 C 245.464844 41.046875 245.304688 41.082031 245.136719 41.074219 L 223.882812 40.402344 C 223.308594 40.386719 222.855469 39.90625 222.875 39.332031 C 222.894531 38.757812 223.375 38.308594 223.949219 38.324219 L 245.199219 38.996094 C 245.777344 39.015625 246.226562 39.496094 246.210938 40.070312 C 246.195312 40.472656 245.953125 40.820312 245.609375 40.980469 " fill-opacity="1" fill-rule="nonzero"/><path fill="#8d8d85" d="M 246.070312 45.617188 C 245.925781 45.683594 245.765625 45.722656 245.597656 45.714844 L 224.347656 45.042969 C 223.769531 45.023438 223.320312 44.542969 223.339844 43.96875 C 223.355469 43.394531 223.839844 42.945312 224.414062 42.964844 L 245.664062 43.636719 C 246.238281 43.652344 246.691406 44.132812 246.671875 44.710938 C 246.660156 45.113281 246.417969 45.457031 246.070312 45.617188 " fill-opacity="1" fill-rule="nonzero"/><path fill="#8d8d85" d="M 246.53125 50.261719 C 246.390625 50.328125 246.226562 50.363281 246.058594 50.355469 L 224.808594 49.683594 C 224.234375 49.664062 223.78125 49.1875 223.800781 48.613281 C 223.816406 48.035156 224.300781 47.585938 224.875 47.605469 L 246.125 48.277344 C 246.699219 48.296875 247.152344 48.777344 247.132812 49.351562 C 247.121094 49.753906 246.878906 50.097656 246.53125 50.261719 " fill-opacity="1" fill-rule="nonzero"/><path fill="#8d8d85" d="M 246.996094 54.898438 C 246.851562 54.964844 246.691406 55.003906 246.523438 54.996094 L 225.269531 54.324219 C 224.695312 54.304688 224.246094 53.824219 224.261719 53.25 C 224.28125 52.675781 224.761719 52.226562 225.335938 52.246094 L 246.589844 52.917969 C 247.164062 52.933594 247.613281 53.414062 247.597656 53.988281 C 247.582031 54.394531 247.339844 54.738281 246.996094 54.898438 " fill-opacity="1" fill-rule="nonzero"/><path fill="#b5aa98" d="M 246.972656 59.328125 C 246.832031 59.394531 246.667969 59.433594 246.5 59.425781 L 225.25 58.753906 C 224.675781 58.734375 224.222656 58.253906 224.242188 57.679688 C 224.257812 57.105469 224.742188 56.65625 225.316406 56.671875 L 246.566406 57.347656 C 247.140625 57.363281 247.59375 57.847656 247.574219 58.417969 C 247.5625 58.824219 247.320312 59.167969 246.972656 59.328125 " fill-opacity="1" fill-rule="nonzero"/><path fill="#b5aa98" d="M 245.882812 63.785156 C 245.738281 63.855469 245.578125 63.890625 245.40625 63.882812 L 224.15625 63.210938 C 223.582031 63.195312 223.128906 62.714844 223.148438 62.140625 C 223.164062 61.566406 223.648438 61.113281 224.222656 61.132812 L 245.472656 61.804688 C 246.050781 61.824219 246.5 62.304688 246.480469 62.878906 C 246.46875 63.28125 246.226562 63.628906 245.882812 63.785156 " fill-opacity="1" fill-rule="nonzero"/><path fill="#b5aa98" d="M 244.789062 68.246094 C 244.644531 68.316406 244.484375 68.351562 244.3125 68.34375 L 223.0625 67.671875 C 222.488281 67.652344 222.035156 67.175781 222.054688 66.597656 C 222.074219 66.027344 222.554688 65.574219 223.128906 65.59375 L 244.378906 66.265625 C 244.957031 66.285156 245.40625 66.765625 245.390625 67.339844 C 245.375 67.742188 245.132812 68.085938 244.789062 68.246094 " fill-opacity="1" fill-rule="nonzero"/><path fill="#b5aa98" d="M 243.695312 72.707031 C 243.550781 72.773438 243.390625 72.808594 243.222656 72.804688 L 221.972656 72.132812 C 221.394531 72.113281 220.945312 71.632812 220.964844 71.058594 C 220.980469 70.484375 221.460938 70.035156 222.039062 70.050781 L 243.289062 70.726562 C 243.863281 70.742188 244.316406 71.222656 244.296875 71.796875 C 244.285156 72.203125 244.039062 72.546875 243.695312 72.707031 " fill-opacity="1" fill-rule="nonzero"/><path fill="#b5aa98" d="M 242.605469 77.167969 C 242.457031 77.234375 242.296875 77.269531 242.128906 77.265625 L 220.878906 76.59375 C 220.300781 76.574219 219.851562 76.09375 219.871094 75.519531 C 219.886719 74.945312 220.371094 74.496094 220.945312 74.511719 L 242.195312 75.183594 C 242.769531 75.203125 243.222656 75.683594 243.203125 76.257812 C 243.191406 76.664062 242.949219 77.003906 242.605469 77.167969 " fill-opacity="1" fill-rule="nonzero"/><path fill="#b5aa98" d="M 241.511719 81.625 C 241.367188 81.691406 241.207031 81.726562 241.035156 81.722656 L 219.785156 81.050781 C 219.210938 81.03125 218.757812 80.550781 218.777344 79.980469 C 218.796875 79.402344 219.277344 78.953125 219.851562 78.972656 L 241.101562 79.644531 C 241.679688 79.660156 242.128906 80.144531 242.113281 80.714844 C 242.097656 81.121094 241.855469 81.464844 241.511719 81.625 " fill-opacity="1" fill-rule="nonzero"/><path fill="#b5aa98" d="M 240.417969 86.085938 C 240.273438 86.152344 240.113281 86.1875 239.941406 86.183594 L 218.691406 85.511719 C 218.117188 85.492188 217.664062 85.011719 217.683594 84.4375 C 217.703125 83.863281 218.183594 83.414062 218.757812 83.433594 L 240.007812 84.105469 C 240.585938 84.121094 241.035156 84.601562 241.019531 85.175781 C 241.003906 85.582031 240.761719 85.925781 240.417969 86.085938 " fill-opacity="1" fill-rule="nonzero"/><path fill="#b5aa98" d="M 221.191406 58.167969 C 221.046875 58.234375 220.882812 58.269531 220.714844 58.265625 L 209.5625 57.914062 C 208.984375 57.894531 208.535156 57.414062 208.550781 56.839844 C 208.570312 56.265625 209.054688 55.816406 209.628906 55.835938 L 220.78125 56.1875 C 221.359375 56.203125 221.808594 56.683594 221.792969 57.257812 C 221.777344 57.664062 221.535156 58.007812 221.191406 58.167969 " fill-opacity="1" fill-rule="nonzero"/><path fill="#b5aa98" d="M 219.832031 62.601562 C 219.6875 62.667969 219.527344 62.703125 219.355469 62.699219 L 208.203125 62.347656 C 207.628906 62.328125 207.175781 61.847656 207.195312 61.273438 C 207.210938 60.699219 207.695312 60.25 208.269531 60.265625 L 219.421875 60.621094 C 219.996094 60.636719 220.449219 61.117188 220.429688 61.691406 C 220.417969 62.097656 220.175781 62.441406 219.832031 62.601562 " fill-opacity="1" fill-rule="nonzero"/><path fill="#b5aa98" d="M 218.472656 67.035156 C 218.328125 67.101562 218.167969 67.136719 218 67.128906 L 206.84375 66.777344 C 206.269531 66.757812 205.816406 66.277344 205.835938 65.707031 C 205.851562 65.132812 206.335938 64.679688 206.910156 64.699219 L 218.0625 65.050781 C 218.640625 65.070312 219.089844 65.550781 219.074219 66.125 C 219.058594 66.527344 218.816406 66.871094 218.472656 67.035156 " fill-opacity="1" fill-rule="nonzero"/><path fill="#b5aa98" d="M 217.113281 71.464844 C 216.96875 71.535156 216.808594 71.570312 216.640625 71.5625 L 205.484375 71.210938 C 204.910156 71.191406 204.457031 70.710938 204.476562 70.136719 C 204.492188 69.5625 204.976562 69.113281 205.550781 69.132812 L 216.707031 69.484375 C 217.28125 69.503906 217.730469 69.984375 217.714844 70.554688 C 217.699219 70.960938 217.457031 71.304688 217.113281 71.464844 " fill-opacity="1" fill-rule="nonzero"/><path fill="#b5aa98" d="M 215.753906 75.898438 C 215.609375 75.964844 215.449219 76 215.28125 75.996094 L 204.125 75.644531 C 203.550781 75.625 203.097656 75.144531 203.117188 74.570312 C 203.132812 73.996094 203.617188 73.546875 204.191406 73.5625 L 215.347656 73.917969 C 215.921875 73.933594 216.375 74.414062 216.355469 74.988281 C 216.34375 75.394531 216.097656 75.738281 215.753906 75.898438 " fill-opacity="1" fill-rule="nonzero"/><path fill="#b5aa98" d="M 214.394531 80.332031 C 214.25 80.398438 214.089844 80.433594 213.921875 80.429688 L 202.765625 80.078125 C 202.191406 80.058594 201.738281 79.578125 201.757812 79.003906 C 201.777344 78.429688 202.257812 77.980469 202.832031 77.996094 L 213.988281 78.347656 C 214.5625 78.367188 215.015625 78.847656 214.996094 79.421875 C 214.984375 79.828125 214.738281 80.171875 214.394531 80.332031 " fill-opacity="1" fill-rule="nonzero"/><path fill="#b5aa98" d="M 213.035156 84.765625 C 212.890625 84.832031 212.730469 84.867188 212.5625 84.863281 L 201.40625 84.507812 C 200.832031 84.492188 200.378906 84.011719 200.398438 83.4375 C 200.417969 82.863281 200.898438 82.414062 201.472656 82.429688 L 212.628906 82.785156 C 213.203125 82.800781 213.65625 83.28125 213.636719 83.855469 C 213.625 84.261719 213.378906 84.605469 213.035156 84.765625 " fill-opacity="1" fill-rule="nonzero"/><path fill="#dbe8e9" d="M 232.484375 92.15625 L 228.425781 82.472656 L 216.738281 73.722656 L 214.867188 59.558594 L 226.8125 45.945312 L 230.113281 52.941406 L 240.855469 42.433594 L 238.535156 49.667969 L 255.800781 60.308594 L 251.28125 81.054688 L 232.484375 92.15625 " fill-opacity="1" fill-rule="nonzero"/><path fill="#bac3d0" d="M 232.484375 92.15625 L 228.65625 68.753906 L 216.738281 73.722656 L 223.441406 54.980469 L 224.15625 65.53125 L 230.113281 52.941406 L 240.855469 42.433594 L 238.535156 49.667969 L 231.398438 61.808594 L 251.28125 81.054688 L 244.960938 79.183594 L 232.484375 92.15625 " fill-opacity="1" fill-rule="nonzero"/><path fill="#97a0c5" d="M 230.90625 66.273438 L 228.65625 68.753906 L 216.738281 73.722656 L 221.730469 70.175781 L 224.15625 65.535156 L 230.113281 52.941406 L 228.121094 65.632812 L 238.535156 49.671875 L 231.398438 61.8125 L 251.28125 81.054688 L 244.960938 79.1875 L 230.90625 66.273438 " fill-opacity="1" fill-rule="nonzero"/><path fill="#e0c8ad" d="M 153.398438 80.421875 L 163.078125 78.234375 L 176.210938 82.398438 L 188.140625 76.082031 L 192.089844 59.480469 L 184.894531 60.777344 L 187.109375 46.796875 L 182.804688 52.535156 L 165.167969 45.125 L 151.660156 59.941406 L 153.398438 80.421875 " fill-opacity="1" fill-rule="nonzero"/><path fill="#bda9a0" d="M 153.398438 80.421875 L 173.515625 70.550781 L 176.210938 82.402344 L 186.972656 67.007812 L 178.457031 72.234375 L 184.894531 60.777344 L 187.105469 46.800781 L 182.804688 52.535156 L 177.359375 64.648438 L 151.660156 59.945312 L 156.558594 63.765625 L 153.398438 80.421875 " fill-opacity="1" fill-rule="nonzero"/><path fill="#8e7971" d="M 174.195312 67.46875 L 173.515625 70.546875 L 176.210938 82.398438 L 176.210938 76.632812 L 178.457031 72.234375 L 184.894531 60.777344 L 176.210938 69.25 L 182.804688 52.535156 L 177.359375 64.648438 L 151.660156 59.941406 L 156.558594 63.761719 L 174.195312 67.46875 " fill-opacity="1" fill-rule="nonzero"/><path fill="#888ea3" d="M 214.007812 288.390625 C 214.007812 292.789062 217.582031 296.351562 221.988281 296.351562 C 226.394531 296.351562 229.96875 292.789062 229.96875 288.390625 C 229.96875 283.996094 226.394531 280.433594 221.988281 280.433594 C 217.582031 280.433594 214.007812 283.996094 214.007812 288.390625 " fill-opacity="1" fill-rule="nonzero"/><g clip-path="url(#c61af63163)"><path fill="#040606" d="M 221.988281 283.859375 C 219.484375 283.859375 217.445312 285.894531 217.445312 288.390625 C 217.445312 290.890625 219.484375 292.925781 221.988281 292.925781 C 224.492188 292.925781 226.53125 290.890625 226.53125 288.390625 C 226.53125 285.894531 224.492188 283.859375 221.988281 283.859375 Z M 221.988281 299.78125 C 215.691406 299.78125 210.570312 294.671875 210.570312 288.390625 C 210.570312 282.113281 215.691406 277.003906 221.988281 277.003906 C 228.28125 277.003906 233.40625 282.113281 233.40625 288.390625 C 233.40625 294.671875 228.28125 299.78125 221.988281 299.78125 " fill-opacity="1" fill-rule="nonzero"/></g><path fill="#375a72" d="M 235.113281 265.066406 C 231.628906 265.324219 229.015625 268.351562 229.277344 271.828125 L 229.894531 280.007812 L 220.683594 285.21875 C 219.34375 285.980469 218.628906 287.570312 219.046875 289.125 C 219.542969 290.96875 221.445312 292.058594 223.292969 291.5625 L 237.390625 287.78125 C 239.042969 287.332031 240.34375 285.914062 240.542969 284.113281 L 240.664062 283 L 241.871094 272.046875 C 241.910156 271.679688 241.921875 271.265625 241.890625 270.882812 C 241.632812 267.410156 238.597656 264.804688 235.113281 265.066406 " fill-opacity="1" fill-rule="nonzero"/><path fill="#040606" d="M 241.039062 279.601562 L 241.871094 272.046875 C 241.910156 271.679688 241.921875 271.265625 241.890625 270.882812 C 241.632812 267.410156 238.597656 264.804688 235.113281 265.066406 C 231.628906 265.324219 229.015625 268.351562 229.277344 271.828125 L 229.863281 279.601562 L 241.039062 279.601562 " fill-opacity="1" fill-rule="nonzero"/><path fill="#888ea3" d="M 127.019531 288.390625 C 127.019531 292.789062 130.589844 296.351562 135 296.351562 C 139.40625 296.351562 142.976562 292.789062 142.976562 288.390625 C 142.976562 283.996094 139.40625 280.433594 135 280.433594 C 130.589844 280.433594 127.019531 283.996094 127.019531 288.390625 " fill-opacity="1" fill-rule="nonzero"/><g clip-path="url(#d7b8540d6d)"><path fill="#040606" d="M 135 283.859375 C 132.492188 283.859375 130.457031 285.894531 130.457031 288.390625 C 130.457031 290.890625 132.492188 292.925781 135 292.925781 C 137.503906 292.925781 139.542969 290.890625 139.542969 288.390625 C 139.542969 285.894531 137.503906 283.859375 135 283.859375 Z M 135 299.78125 C 128.703125 299.78125 123.582031 294.671875 123.582031 288.390625 C 123.582031 282.113281 128.703125 277.003906 135 277.003906 C 141.292969 277.003906 146.414062 282.113281 146.414062 288.390625 C 146.414062 294.671875 141.292969 299.78125 135 299.78125 " fill-opacity="1" fill-rule="nonzero"/></g><path fill="#375a72" d="M 148.125 265.066406 C 144.640625 265.324219 142.027344 268.351562 142.289062 271.828125 L 142.90625 280.007812 L 133.691406 285.21875 C 132.351562 285.980469 131.636719 287.570312 132.058594 289.125 C 132.554688 290.96875 134.457031 292.058594 136.304688 291.5625 L 150.398438 287.78125 C 152.050781 287.332031 153.351562 285.914062 153.550781 284.113281 L 153.675781 283 L 154.882812 272.046875 C 154.921875 271.679688 154.933594 271.265625 154.902344 270.882812 C 154.640625 267.410156 151.605469 264.804688 148.125 265.066406 " fill-opacity="1" fill-rule="nonzero"/><path fill="#040606" d="M 154.050781 279.601562 L 154.882812 272.046875 C 154.921875 271.679688 154.933594 271.265625 154.902344 270.882812 C 154.640625 267.410156 151.605469 264.804688 148.125 265.066406 C 144.640625 265.324219 142.027344 268.351562 142.289062 271.828125 L 142.875 279.601562 L 154.050781 279.601562 " fill-opacity="1" fill-rule="nonzero"/><path fill="#4765b7" d="M 236.296875 275.902344 L 139.074219 275.902344 C 129.316406 275.902344 121.3125 268.191406 120.96875 258.464844 L 114.707031 80.167969 L 260.664062 80.167969 L 254.402344 258.464844 C 254.058594 268.191406 246.054688 275.902344 236.296875 275.902344 " fill-opacity="1" fill-rule="nonzero"/><path fill="#547dc7" d="M 123.011719 96.15625 L 131.839844 251.894531 C 132.15625 257.519531 136.820312 261.914062 142.464844 261.914062 L 232.90625 261.914062 C 238.550781 261.914062 243.214844 257.519531 243.535156 251.894531 L 252.363281 96.15625 L 123.011719 96.15625 " fill-opacity="1" fill-rule="nonzero"/><g clip-path="url(#f6f5edee8f)"><path fill="#547dc7" d="M 111.84375 92.4375 L 263.53125 92.4375 C 263.683594 92.4375 263.808594 92.3125 263.808594 92.15625 L 263.808594 71.085938 C 263.808594 70.933594 263.683594 70.808594 263.53125 70.808594 L 111.84375 70.808594 C 111.6875 70.808594 111.5625 70.933594 111.5625 71.085938 L 111.5625 92.15625 C 111.5625 92.3125 111.6875 92.4375 111.84375 92.4375 " fill-opacity="1" fill-rule="nonzero"/></g><g clip-path="url(#2f9613e0d6)"><path fill="#4765b7" d="M 260.8125 86.953125 L 114.558594 86.953125 C 112.902344 86.953125 111.5625 85.613281 111.5625 83.960938 L 111.5625 88.34375 C 111.5625 90.605469 113.398438 92.4375 115.667969 92.4375 L 259.707031 92.4375 C 261.972656 92.4375 263.808594 90.605469 263.808594 88.34375 L 263.808594 83.960938 C 263.808594 85.613281 262.46875 86.953125 260.8125 86.953125 " fill-opacity="1" fill-rule="nonzero"/></g><path fill="#65a8e0" d="M 132.550781 242.277344 C 131.464844 242.277344 130.554688 241.433594 130.492188 240.335938 L 122.351562 96.746094 C 122.289062 95.609375 123.160156 94.640625 124.296875 94.574219 C 125.425781 94.527344 126.40625 95.378906 126.472656 96.515625 L 134.609375 240.105469 C 134.675781 241.238281 133.804688 242.210938 132.667969 242.273438 C 132.628906 242.277344 132.589844 242.277344 132.550781 242.277344 " fill-opacity="1" fill-rule="nonzero"/><path fill="#65a8e0" d="M 133.246094 254.570312 C 132.160156 254.570312 131.25 253.722656 131.1875 252.628906 L 130.972656 248.824219 C 130.910156 247.6875 131.777344 246.71875 132.914062 246.652344 C 134.058594 246.601562 135.027344 247.457031 135.089844 248.589844 L 135.308594 252.398438 C 135.371094 253.53125 134.503906 254.503906 133.363281 254.566406 C 133.324219 254.566406 133.285156 254.570312 133.246094 254.570312 " fill-opacity="1" fill-rule="nonzero"/><path fill="#65a8e0" d="M 244.164062 76.980469 L 115.933594 76.980469 C 114.796875 76.980469 113.871094 76.058594 113.871094 74.921875 C 113.871094 73.785156 114.796875 72.867188 115.933594 72.867188 L 244.164062 72.867188 C 245.304688 72.867188 246.226562 73.785156 246.226562 74.921875 C 246.226562 76.058594 245.304688 76.980469 244.164062 76.980469 " fill-opacity="1" fill-rule="nonzero"/><path fill="#65a8e0" d="M 255.195312 76.980469 L 252.8125 76.980469 C 251.671875 76.980469 250.75 76.058594 250.75 74.921875 C 250.75 73.785156 251.671875 72.867188 252.8125 72.867188 L 255.195312 72.867188 C 256.332031 72.867188 257.253906 73.785156 257.253906 74.921875 C 257.253906 76.058594 256.332031 76.980469 255.195312 76.980469 " fill-opacity="1" fill-rule="nonzero"/><path fill="#65a8e0" d="M 238.914062 152.816406 L 137.769531 152.816406 C 136.632812 152.816406 135.707031 151.898438 135.707031 150.761719 C 135.707031 149.625 136.632812 148.703125 137.769531 148.703125 L 236.851562 148.703125 L 236.851562 116.179688 C 236.851562 115.042969 237.777344 114.121094 238.914062 114.121094 C 240.050781 114.121094 240.976562 115.042969 240.976562 116.179688 L 240.976562 150.761719 C 240.976562 151.898438 240.050781 152.816406 238.914062 152.816406 " fill-opacity="1" fill-rule="nonzero"/><path fill="#4765b7" d="M 137.820312 152.882812 C 136.679688 152.882812 135.757812 151.960938 135.757812 150.824219 L 135.757812 116.242188 C 135.757812 115.109375 136.679688 114.1875 137.820312 114.1875 L 238.964844 114.1875 C 240.101562 114.1875 241.027344 115.109375 241.027344 116.242188 C 241.027344 117.378906 240.101562 118.300781 238.964844 118.300781 L 139.882812 118.300781 L 139.882812 150.824219 C 139.882812 151.960938 138.957031 152.882812 137.820312 152.882812 " fill-opacity="1" fill-rule="nonzero"/><path fill="#ffffff" d="M 207.171875 215.097656 C 207.082031 214.953125 206.789062 214.867188 206.59375 214.871094 C 203.523438 214.890625 200.457031 214.929688 197.386719 214.960938 C 197.160156 214.964844 196.929688 214.960938 196.636719 214.960938 C 196.53125 213.492188 196.425781 212.0625 196.3125 210.503906 C 196.199219 210.667969 196.148438 210.734375 196.105469 210.804688 C 193.792969 214.890625 191.480469 218.980469 189.152344 223.054688 C 188.980469 223.351562 189.0625 223.53125 189.214844 223.765625 C 191.601562 227.476562 193.984375 231.191406 196.371094 234.90625 C 196.441406 235.015625 196.53125 235.113281 196.660156 235.277344 C 196.84375 233.570312 197.015625 231.953125 197.191406 230.308594 C 199.957031 230.09375 202.65625 229.863281 205.359375 229.6875 C 207.035156 229.578125 208.355469 228.890625 209.1875 227.433594 C 210.332031 225.417969 210.683594 223.261719 210.082031 221.003906 C 209.507812 218.84375 208.34375 216.964844 207.171875 215.097656 Z M 193.734375 190.507812 C 193.828125 190.667969 193.910156 190.839844 194.007812 191.03125 C 192.734375 191.824219 191.503906 192.589844 190.207031 193.398438 C 190.34375 193.429688 190.386719 193.449219 190.433594 193.449219 C 195.164062 193.523438 199.890625 193.589844 204.621094 193.671875 C 204.953125 193.675781 205.085938 193.535156 205.226562 193.277344 C 207.367188 189.359375 209.511719 185.441406 211.65625 181.523438 C 211.722656 181.402344 211.769531 181.265625 211.863281 181.054688 C 210.242188 181.734375 208.71875 182.375 207.164062 183.027344 C 207.039062 182.839844 206.929688 182.679688 206.824219 182.519531 C 205.332031 180.28125 203.851562 178.039062 202.347656 175.808594 C 201.769531 174.953125 200.972656 174.34375 199.945312 174.148438 C 197.15625 173.628906 194.753906 174.457031 192.738281 176.378906 C 191.210938 177.832031 190.230469 179.691406 189.140625 181.464844 C 188.9375 181.796875 188.929688 182.039062 189.125 182.378906 C 190.675781 185.082031 192.203125 187.792969 193.734375 190.507812 Z M 161.296875 211.828125 C 163.320312 212.445312 165.417969 212.386719 167.5 212.476562 C 167.90625 212.496094 168.136719 212.371094 168.351562 212.015625 C 169.949219 209.386719 171.570312 206.769531 173.1875 204.148438 C 173.296875 203.96875 173.414062 203.796875 173.542969 203.597656 C 174.824219 204.300781 176.066406 204.980469 177.304688 205.660156 C 177.335938 205.628906 177.363281 205.597656 177.390625 205.566406 C 177.355469 205.488281 177.328125 205.40625 177.289062 205.332031 C 175.089844 201.242188 172.886719 197.152344 170.703125 193.058594 C 170.523438 192.722656 170.285156 192.738281 170.003906 192.742188 C 165.558594 192.777344 161.117188 192.8125 156.671875 192.847656 C 156.558594 192.847656 156.441406 192.847656 156.175781 192.847656 C 157.550781 193.933594 158.800781 194.917969 160.0625 195.917969 C 159.957031 196.132812 159.871094 196.304688 159.785156 196.476562 C 158.574219 198.792969 157.367188 201.109375 156.15625 203.425781 C 155.449219 204.773438 155.453125 206.148438 156.132812 207.476562 C 157.234375 209.636719 158.960938 211.113281 161.296875 211.828125 Z M 221.144531 207.230469 C 221.007812 205.125 220.109375 203.292969 219.027344 201.539062 C 217.625 199.265625 216.199219 197.011719 214.785156 194.746094 C 214.417969 194.160156 214.050781 193.578125 213.671875 192.976562 C 209.308594 195.6875 204.988281 198.371094 200.652344 201.066406 C 203.761719 206.113281 206.785156 211.128906 209.925781 216.070312 C 211.773438 218.976562 212.652344 221.988281 211.789062 225.398438 C 211.871094 225.261719 211.953125 225.128906 212.03125 224.992188 C 214.878906 219.976562 217.722656 214.964844 220.578125 209.953125 C 221.0625 209.101562 221.203125 208.1875 221.144531 207.230469 Z M 177.828125 214.414062 C 173.527344 214.394531 169.226562 214.34375 164.925781 214.355469 C 162.085938 214.363281 159.554688 213.570312 157.402344 211.683594 C 157.351562 211.636719 157.277344 211.609375 157.109375 211.515625 C 157.25 211.789062 157.324219 211.945312 157.40625 212.101562 C 159.945312 216.792969 162.511719 221.472656 165.003906 226.191406 C 165.765625 227.628906 166.898438 228.503906 168.367188 229.050781 C 169.824219 229.597656 171.34375 229.769531 172.882812 229.773438 C 176.183594 229.785156 179.488281 229.777344 182.789062 229.777344 C 182.976562 229.777344 183.164062 229.777344 183.347656 229.777344 C 183.347656 224.625 183.347656 219.558594 183.347656 214.414062 C 181.464844 214.414062 179.648438 214.421875 177.828125 214.414062 Z M 188.710938 178.421875 C 185.78125 183.628906 182.832031 188.828125 179.886719 194.03125 C 179.84375 194.105469 179.792969 194.171875 179.71875 194.277344 C 175.25 191.800781 170.800781 189.335938 166.367188 186.878906 C 166.363281 186.804688 166.347656 186.765625 166.363281 186.738281 C 168.203125 183.429688 170.011719 180.101562 171.902344 176.816406 C 172.714844 175.402344 173.808594 174.183594 175.238281 173.34375 C 175.8125 173.007812 176.460938 172.796875 177.074219 172.53125 C 178.179688 172.53125 179.285156 172.53125 180.394531 172.53125 C 180.640625 172.554688 180.886719 172.601562 181.132812 172.605469 C 185.96875 172.664062 190.800781 172.714844 195.722656 172.769531 C 195.613281 172.84375 195.566406 172.890625 195.511719 172.902344 C 192.378906 173.675781 190.253906 175.683594 188.710938 178.421875 " fill-opacity="1" fill-rule="nonzero"/><path fill="#ffffff" d="M 160.90625 132.328125 C 162.855469 132.328125 163.796875 131.464844 163.796875 129.828125 C 163.796875 128.195312 162.734375 127.59375 160.808594 127.59375 L 159.171875 127.59375 L 159.171875 132.328125 Z M 155.628906 124.785156 L 161.023438 124.785156 C 164.46875 124.785156 167.265625 126.03125 167.265625 129.828125 C 167.265625 133.503906 164.445312 135.140625 161.121094 135.140625 L 159.171875 135.140625 L 159.171875 140.453125 L 155.628906 140.453125 L 155.628906 124.785156 " fill-opacity="1" fill-rule="nonzero"/><path fill="#ffffff" d="M 171.605469 133.964844 L 174.953125 133.964844 L 174.59375 132.519531 C 174.160156 130.957031 173.726562 129.109375 173.316406 127.476562 L 173.21875 127.476562 C 172.835938 129.132812 172.425781 130.957031 171.992188 132.519531 Z M 171.21875 124.785156 L 175.484375 124.785156 L 180.398438 140.453125 L 176.640625 140.453125 L 175.675781 136.726562 L 170.882812 136.726562 L 169.921875 140.453125 L 166.304688 140.453125 L 171.21875 124.785156 " fill-opacity="1" fill-rule="nonzero"/><path fill="#ffffff" d="M 186.910156 132.328125 C 188.859375 132.328125 189.800781 131.464844 189.800781 129.828125 C 189.800781 128.195312 188.738281 127.59375 186.8125 127.59375 L 185.171875 127.59375 L 185.171875 132.328125 Z M 181.632812 124.785156 L 187.027344 124.785156 C 190.476562 124.785156 193.269531 126.03125 193.269531 129.828125 C 193.269531 133.503906 190.449219 135.140625 187.125 135.140625 L 185.171875 135.140625 L 185.171875 140.453125 L 181.632812 140.453125 L 181.632812 124.785156 " fill-opacity="1" fill-rule="nonzero"/><path fill="#ffffff" d="M 195.515625 124.785156 L 205.34375 124.785156 L 205.34375 127.761719 L 199.058594 127.761719 L 199.058594 130.910156 L 204.402344 130.910156 L 204.402344 133.867188 L 199.058594 133.867188 L 199.058594 137.472656 L 205.585938 137.472656 L 205.585938 140.453125 L 195.515625 140.453125 L 195.515625 124.785156 " fill-opacity="1" fill-rule="nonzero"/><path fill="#ffffff" d="M 213.609375 131.992188 C 215.46875 131.992188 216.476562 131.199219 216.476562 129.660156 C 216.476562 128.125 215.46875 127.59375 213.609375 127.59375 L 211.78125 127.59375 L 211.78125 131.992188 Z M 208.238281 124.785156 L 213.902344 124.785156 C 217.226562 124.785156 219.949219 125.9375 219.949219 129.660156 C 219.949219 131.96875 218.839844 133.433594 217.152344 134.179688 L 220.71875 140.453125 L 216.742188 140.453125 L 213.734375 134.804688 L 211.78125 134.804688 L 211.78125 140.453125 L 208.238281 140.453125 L 208.238281 124.785156 " fill-opacity="1" fill-rule="nonzero"/></svg>