<svg xmlns="http://www.w3.org/2000/svg" xmlns:xlink="http://www.w3.org/1999/xlink" width="500" zoomAndPan="magnify" viewBox="0 0 375 307.91998" height="400" preserveAspectRatio="xMidYMid meet" version="1.0"><defs><clipPath id="805aaa772d"><path d="M 0.046875 0 L 374.949219 0 L 374.949219 299.921875 L 0.046875 299.921875 Z M 0.046875 0 " clip-rule="nonzero"/></clipPath><clipPath id="4ae1b43ff1"><path d="M 83 5.652344 L 292.578125 5.652344 L 292.578125 299.574219 L 83 299.574219 Z M 83 5.652344 " clip-rule="nonzero"/></clipPath></defs><g clip-path="url(#805aaa772d)"><path fill="#ffffff" d="M 0.046875 0 L 374.953125 0 L 374.953125 299.921875 L 0.046875 299.921875 Z M 0.046875 0 " fill-opacity="1" fill-rule="nonzero"/><path fill="#ffffff" d="M 0.046875 0 L 374.953125 0 L 374.953125 299.921875 L 0.046875 299.921875 Z M 0.046875 0 " fill-opacity="1" fill-rule="nonzero"/></g><path fill="#a37c45" d="M 172.796875 185.632812 C 172.921875 184.6875 172.984375 183.808594 173.109375 182.863281 C 173.425781 180.46875 170.648438 179.082031 168.691406 179.523438 C 164.144531 180.53125 159.59375 181.285156 154.921875 181.601562 C 153.34375 180.972656 151.449219 181.476562 150.5625 183.050781 C 149.933594 184.183594 150.058594 185.824219 150.816406 186.894531 C 150.375 202.460938 148.796875 218.59375 150.5625 234.035156 C 150.691406 234.980469 150.816406 235.859375 151.007812 236.804688 C 147.660156 249.664062 147.152344 262.960938 149.492188 276.066406 C 149.679688 277.140625 150.25 277.832031 150.941406 278.148438 C 150.878906 281.296875 150.816406 284.636719 151.828125 287.472656 C 150.941406 288.988281 150.691406 290.75 151.636719 292.578125 C 153.910156 296.800781 159.46875 295.730469 162.691406 293.210938 C 163.320312 293.144531 163.953125 292.957031 164.523438 292.769531 C 164.648438 292.703125 164.835938 292.640625 164.964844 292.578125 C 164.964844 292.578125 164.964844 292.640625 164.964844 292.640625 C 164.523438 297.179688 171.722656 297.179688 172.101562 292.640625 C 174.3125 264.976562 174.5 237.183594 172.417969 209.519531 C 172.542969 209.265625 172.667969 208.953125 172.730469 208.574219 C 173.742188 202.082031 175.761719 192.1875 172.796875 185.632812 Z M 161.109375 277.832031 C 160.984375 278.460938 160.417969 280.921875 159.910156 283.441406 C 159.722656 283.378906 159.46875 283.316406 159.214844 283.316406 C 159.089844 283.316406 158.902344 283.316406 158.773438 283.316406 C 159.59375 283 160.226562 282.308594 160.351562 281.171875 C 160.730469 278.527344 161.175781 275.941406 161.554688 273.292969 C 161.679688 273.359375 161.742188 273.359375 161.867188 273.421875 C 161.617188 274.933594 161.363281 276.382812 161.109375 277.832031 Z M 165.46875 188.03125 C 165.34375 188.03125 165.214844 188.03125 165.089844 188.03125 C 164.648438 187.902344 164.144531 187.902344 163.636719 187.964844 C 163.449219 187.902344 163.195312 187.777344 163.003906 187.714844 C 163.003906 187.589844 163.003906 187.523438 162.941406 187.398438 C 163.828125 187.273438 164.710938 187.210938 165.59375 187.085938 C 165.53125 187.398438 165.53125 187.714844 165.46875 188.03125 Z M 174.375 113.097656 C 168.625 113.226562 162.878906 113.351562 157.132812 113.414062 C 156.816406 113.414062 156.5 113.351562 156.183594 113.289062 C 154.984375 113.601562 153.722656 113.539062 152.523438 113.226562 C 151.890625 113.601562 151.195312 113.917969 150.5625 114.359375 C 147.34375 116.3125 143.617188 111.648438 146.523438 109.128906 C 146.773438 108.875 147.089844 108.6875 147.34375 108.433594 C 147.089844 107.617188 147.027344 106.734375 147.152344 105.789062 C 147.21875 105.285156 147.34375 104.84375 147.53125 104.402344 C 146.773438 104.085938 146.144531 103.457031 145.765625 102.449219 C 144.753906 99.359375 144.628906 96.398438 145.386719 93.4375 C 145.132812 92.742188 144.816406 92.113281 144.5 91.421875 C 143.554688 89.53125 144.628906 86.316406 147.28125 86.628906 C 155.871094 87.703125 164.457031 87.890625 173.046875 86.628906 C 175.828125 86.253906 177.722656 88.082031 177.277344 90.851562 C 176.519531 95.957031 176.648438 100.9375 176.835938 106.039062 C 176.835938 106.292969 176.835938 106.480469 176.773438 106.671875 C 178.792969 108.5625 177.972656 113.035156 174.375 113.097656 Z M 142.984375 15.609375 C 143.871094 11.574219 148.859375 7.730469 152.964844 9.496094 C 153.28125 9.621094 153.59375 9.808594 153.910156 10 C 154.039062 9.808594 154.164062 9.558594 154.351562 9.367188 C 156.183594 7.164062 159.34375 7.035156 160.796875 8.992188 C 162.816406 6.597656 165.785156 7.035156 167.933594 8.675781 C 169.320312 8.613281 170.773438 9.367188 171.277344 11.195312 C 172.351562 15.039062 172.226562 18.695312 171.34375 22.539062 C 170.648438 25.5 166.226562 26.070312 164.773438 23.421875 C 164.710938 23.234375 164.585938 23.105469 164.457031 22.917969 C 159.59375 25.566406 153.027344 26.511719 149.046875 25.1875 C 145.132812 23.925781 142.039062 19.894531 142.984375 15.609375 Z M 142.984375 15.609375 " fill-opacity="1" fill-rule="nonzero"/><path fill="#c35f42" d="M 222.8125 172.90625 C 222.054688 169.566406 222.8125 164.460938 222.75 161.246094 C 222.625 156.519531 222.5 151.730469 222.308594 147.003906 C 221.992188 138.054688 221.613281 129.105469 221.046875 120.21875 C 221.046875 119.714844 221.046875 119.148438 220.917969 118.582031 C 220.605469 116.1875 218.203125 115.179688 216.5 115.746094 C 212.015625 113.792969 206.394531 114.988281 201.65625 115.179688 C 195.71875 115.367188 189.785156 115.621094 183.847656 115.871094 C 171.214844 116.375 158.585938 117.007812 145.953125 117.636719 C 135.597656 118.140625 125.050781 118.394531 114.753906 119.589844 C 111.597656 119.714844 108.375 119.96875 105.21875 120.410156 C 104.332031 120.535156 103.511719 120.722656 102.628906 120.914062 C 102.3125 120.914062 101.933594 120.914062 101.617188 120.914062 C 97.386719 120.851562 91.957031 118.769531 87.851562 120.722656 C 83.746094 122.679688 84.1875 128.726562 86.523438 132.824219 C 86.398438 133.328125 86.335938 133.894531 86.460938 134.460938 C 86.714844 135.597656 86.902344 136.792969 87.21875 137.929688 C 86.335938 138.683594 85.828125 139.945312 86.019531 141.207031 C 86.648438 145.113281 87.28125 149.019531 88.230469 152.800781 C 88.101562 154.1875 87.976562 155.574219 87.914062 156.960938 C 87.597656 162.820312 88.796875 168.492188 90.566406 173.976562 C 90.691406 176.246094 90.882812 178.449219 91.007812 180.71875 C 91.007812 180.71875 90.945312 180.78125 90.945312 180.78125 C 89.429688 182.359375 90.1875 184.753906 92.019531 185.445312 C 92.964844 186.390625 94.542969 186.515625 95.554688 185.699219 C 104.902344 185.824219 114.691406 183.996094 123.914062 182.988281 C 134.585938 181.789062 145.257812 180.53125 155.933594 179.269531 C 166.039062 178.070312 176.140625 177.0625 186.246094 176.246094 C 196.289062 175.425781 206.582031 175.804688 216.625 174.730469 C 217.003906 175.929688 217.761719 176.9375 219.46875 177.253906 C 221.171875 177.566406 222.5 176.8125 223.128906 175.171875 C 223.128906 175.109375 223.195312 174.984375 223.195312 174.921875 C 223.382812 174.292969 223.195312 173.535156 222.8125 172.90625 Z M 123.40625 153.871094 C 123.46875 153.9375 123.46875 153.9375 123.535156 154 C 123.46875 154.0625 123.40625 154.125 123.34375 154.125 C 123.40625 154.0625 123.40625 153.9375 123.40625 153.871094 Z M 197.425781 141.078125 C 197.617188 141.015625 197.804688 140.953125 197.996094 140.890625 C 197.996094 140.953125 197.996094 141.078125 197.996094 141.144531 C 197.804688 141.078125 197.617188 141.078125 197.425781 141.078125 Z M 214.476562 122.742188 C 214.476562 122.679688 214.414062 122.613281 214.414062 122.550781 C 214.476562 122.550781 214.542969 122.488281 214.605469 122.488281 C 214.542969 122.550781 214.476562 122.679688 214.476562 122.742188 Z M 134.585938 173.472656 C 134.773438 173.660156 134.902344 173.851562 135.152344 173.976562 C 134.839844 174.039062 134.585938 174.039062 134.269531 174.101562 C 134.394531 173.914062 134.523438 173.722656 134.585938 173.472656 Z M 170.140625 169.691406 C 170.207031 169.753906 170.269531 169.753906 170.269531 169.816406 C 169.636719 169.878906 168.941406 169.941406 168.3125 170.070312 C 168.878906 169.941406 169.511719 169.816406 170.140625 169.691406 Z M 188.269531 123.625 C 190.351562 123.558594 192.5 123.496094 194.582031 123.371094 C 194.519531 123.433594 194.457031 123.433594 194.394531 123.496094 C 192.878906 123.558594 191.425781 123.6875 189.910156 123.75 C 187.574219 123.75 185.238281 123.8125 182.835938 123.875 C 182.835938 123.875 182.835938 123.875 182.835938 123.8125 C 184.667969 123.8125 186.5 123.75 188.269531 123.625 Z M 147.660156 125.324219 C 144.058594 126.082031 140.460938 126.898438 136.921875 127.910156 C 136.542969 127.214844 135.976562 126.773438 135.28125 126.460938 C 135.28125 126.269531 135.21875 126.082031 135.152344 125.890625 C 139.324219 125.703125 143.492188 125.515625 147.660156 125.324219 Z M 147.660156 125.324219 " fill-opacity="1" fill-rule="nonzero"/><path fill="#467d99" d="M 287.359375 49.574219 C 286.160156 48.820312 285.402344 47.054688 284.265625 46.171875 C 283.003906 45.164062 281.550781 44.660156 280.097656 43.839844 C 276.433594 41.886719 273.148438 39.304688 269.867188 36.84375 C 267.023438 34.765625 263.929688 32.246094 260.644531 30.355469 C 260.707031 28.464844 259.445312 26.445312 256.980469 26.257812 C 233.613281 24.429688 209.929688 25.125 186.5 25.816406 C 174.753906 26.132812 163.003906 26.636719 151.257812 27.203125 C 145.386719 27.457031 139.511719 27.644531 133.636719 28.148438 C 130.292969 28.464844 126.816406 28.527344 123.40625 28.777344 C 122.648438 28.210938 121.703125 27.960938 120.816406 28.273438 C 120.4375 28.402344 120.058594 28.527344 119.679688 28.652344 C 119.175781 28.839844 118.796875 29.09375 118.417969 29.410156 C 118.101562 29.472656 117.785156 29.535156 117.46875 29.597656 C 113.996094 30.417969 115.195312 34.828125 118.164062 35.332031 C 116.902344 50.710938 116.082031 66.589844 118.417969 81.777344 C 118.734375 83.984375 121.070312 84.488281 122.777344 83.730469 C 123.785156 84.804688 125.617188 84.613281 126.878906 83.792969 C 134.964844 85.433594 144.058594 84.992188 151.953125 84.804688 C 162.941406 84.488281 173.933594 83.355469 184.921875 82.597656 C 194.960938 81.902344 205.066406 81.085938 215.109375 80.203125 C 219.46875 80.390625 223.953125 80.203125 228.433594 79.761719 C 228.5 79.761719 228.5625 79.824219 228.625 79.824219 C 232.351562 80.707031 235.949219 79.949219 239.675781 79.824219 C 240.183594 80.453125 240.941406 80.894531 241.886719 80.957031 C 242.707031 81.023438 243.402344 80.832031 244.035156 80.453125 C 244.476562 80.328125 244.855469 80.203125 245.296875 80.078125 C 245.992188 79.824219 246.5625 79.382812 246.875 78.878906 C 247.253906 79.003906 247.699219 79.132812 248.203125 79.132812 C 254.328125 79.320312 259.949219 74.214844 264.875 71.128906 C 271.066406 67.285156 277.253906 63.441406 283.445312 59.53125 C 284.960938 59.28125 285.78125 57.894531 285.90625 56.382812 C 289 56.382812 290.390625 51.402344 287.359375 49.574219 Z M 181.511719 33.820312 C 177.027344 33.882812 172.480469 34.074219 168.058594 34.324219 C 167.933594 34.261719 167.742188 34.136719 167.617188 34.074219 C 172.542969 33.882812 177.46875 33.757812 182.457031 33.632812 C 182.140625 33.757812 181.828125 33.820312 181.511719 33.820312 Z M 165.59375 34.261719 C 165.53125 34.261719 165.53125 34.261719 165.59375 34.261719 C 165.59375 34.199219 165.660156 34.199219 165.722656 34.199219 C 165.660156 34.199219 165.59375 34.261719 165.59375 34.261719 Z M 152.585938 34.703125 C 152.394531 34.765625 152.269531 34.828125 152.078125 34.890625 C 150.941406 34.890625 149.871094 34.890625 148.734375 34.890625 C 150.058594 34.828125 151.320312 34.765625 152.585938 34.703125 Z M 147.027344 77.871094 C 147.28125 77.808594 147.53125 77.746094 147.785156 77.683594 C 148.101562 77.617188 148.417969 77.617188 148.796875 77.554688 C 148.796875 77.683594 148.796875 77.808594 148.796875 77.871094 C 148.226562 77.871094 147.597656 77.871094 147.027344 77.871094 Z M 147.027344 77.871094 " fill-opacity="1" fill-rule="nonzero"/><g clip-path="url(#4ae1b43ff1)"><path fill="#543416" d="M 251.488281 54.300781 C 248.457031 54.804688 245.359375 55.308594 242.328125 55.8125 C 240.8125 56.066406 240.246094 53.796875 241.699219 53.546875 C 244.792969 53.105469 247.949219 52.664062 251.109375 52.222656 C 254.203125 51.78125 257.296875 51.023438 260.390625 50.960938 C 261.402344 50.960938 261.59375 52.410156 260.644531 52.664062 C 257.613281 53.546875 254.519531 53.796875 251.488281 54.300781 Z M 152.457031 22.539062 C 152.773438 23.105469 153.660156 23.042969 153.972656 22.539062 C 154.101562 22.289062 154.226562 22.097656 154.289062 21.785156 C 154.351562 21.59375 154.351562 21.40625 154.351562 21.214844 C 154.417969 20.710938 154.417969 20.207031 154.417969 19.703125 C 154.417969 19.515625 154.417969 19.324219 154.351562 19.136719 C 154.351562 19.199219 154.351562 19.199219 154.351562 19.261719 C 154.351562 19.199219 154.351562 19.136719 154.351562 19.074219 C 154.351562 18.882812 154.351562 18.632812 154.351562 18.445312 C 154.351562 18.191406 154.289062 17.9375 154.289062 17.625 C 154.289062 17.8125 154.289062 17.5 154.289062 17.5 C 154.289062 17.371094 154.289062 17.246094 154.289062 17.121094 C 154.289062 16.679688 153.972656 16.300781 153.53125 16.238281 C 153.152344 16.175781 152.648438 16.425781 152.585938 16.867188 C 152.523438 17.371094 152.394531 17.875 152.332031 18.378906 C 152.332031 18.570312 152.269531 18.757812 152.269531 18.949219 C 152.269531 19.011719 152.269531 19.074219 152.269531 19.136719 C 152.269531 19.261719 152.269531 19.261719 152.269531 19.136719 C 152.269531 19.261719 152.207031 19.453125 152.207031 19.640625 C 152.144531 20.082031 152.144531 20.523438 152.144531 20.902344 C 152.144531 21.152344 152.207031 21.34375 152.207031 21.59375 C 152.144531 21.972656 152.269531 22.226562 152.457031 22.539062 Z M 224.457031 42.011719 C 225.910156 41.699219 227.363281 41.320312 228.8125 40.941406 C 229.507812 40.753906 230.265625 40.5625 230.960938 40.375 C 231.339844 40.25 231.65625 40.121094 231.972656 39.933594 C 232.351562 39.742188 232.792969 39.679688 233.171875 39.492188 C 233.992188 39.113281 233.613281 37.726562 232.730469 37.789062 C 232.289062 37.789062 231.910156 37.917969 231.46875 37.980469 C 231.152344 38.042969 230.773438 38.042969 230.457031 38.105469 C 229.699219 38.230469 228.941406 38.484375 228.246094 38.671875 C 226.792969 39.050781 225.339844 39.429688 223.886719 39.933594 C 222.5 40.3125 223.066406 42.265625 224.457031 42.011719 Z M 217.636719 71.191406 C 221.742188 71.253906 225.78125 70.9375 229.886719 70.5625 C 231.910156 70.371094 233.929688 70.121094 235.949219 69.867188 C 237.910156 69.617188 239.929688 69.425781 241.761719 68.796875 C 242.707031 68.480469 242.582031 67.03125 241.507812 67.03125 C 239.550781 67.03125 237.59375 67.472656 235.636719 67.726562 C 233.613281 67.976562 231.59375 68.230469 229.570312 68.417969 C 225.59375 68.796875 221.550781 68.984375 217.574219 69.238281 C 216.4375 69.363281 216.4375 71.128906 217.636719 71.191406 Z M 291.65625 53.417969 C 291.84375 53.921875 291.84375 54.554688 291.589844 55.308594 C 290.960938 57.074219 289.316406 58.019531 287.800781 59.027344 C 283.949219 61.550781 280.097656 64.132812 276.246094 66.652344 C 272.328125 69.238281 268.351562 71.820312 264.433594 74.34375 C 262.601562 75.539062 260.707031 76.738281 258.8125 77.933594 C 257.046875 79.070312 255.277344 80.265625 253.445312 81.273438 C 253.253906 82.03125 252.625 82.660156 251.613281 82.722656 C 241.636719 83.226562 231.59375 83.792969 221.613281 84.300781 C 206.773438 85.054688 191.996094 85.75 177.152344 86.441406 C 177.785156 88.144531 177.65625 90.222656 177.722656 91.988281 C 177.847656 94.128906 177.910156 96.335938 178.035156 98.476562 C 178.101562 100.621094 178.226562 102.828125 178.289062 104.96875 C 178.351562 106.039062 178.414062 107.113281 178.414062 108.246094 C 178.480469 109.316406 178.351562 110.011719 177.59375 110.832031 C 177.214844 111.269531 176.519531 111.207031 176.078125 110.832031 C 174.5625 109.378906 175.070312 106.921875 175.003906 104.96875 C 174.941406 102.890625 174.878906 100.808594 174.816406 98.667969 C 174.753906 96.585938 174.625 94.507812 174.625 92.367188 C 174.625 91.292969 174.625 90.222656 174.625 89.089844 C 174.625 88.207031 174.5625 87.261719 174.816406 86.441406 C 172.796875 86.566406 170.835938 86.628906 168.816406 86.757812 C 160.921875 87.136719 153.027344 87.511719 145.132812 87.574219 C 145.449219 87.703125 145.765625 88.015625 145.765625 88.457031 C 145.765625 88.457031 145.765625 88.519531 145.765625 88.519531 C 146.207031 89.214844 146.078125 89.90625 146.078125 90.789062 C 146.078125 91.863281 146.015625 92.996094 146.015625 94.066406 C 146.015625 96.148438 146.015625 98.289062 146.144531 100.367188 C 146.207031 102.449219 146.394531 104.589844 146.585938 106.671875 C 146.773438 108.625 147.597656 111.019531 146.648438 112.847656 C 146.269531 113.539062 145.320312 113.601562 144.753906 113.097656 C 143.300781 111.648438 143.492188 109.066406 143.300781 107.175781 C 143.113281 105.03125 142.984375 102.828125 142.921875 100.683594 C 142.859375 98.476562 142.859375 96.335938 142.984375 94.128906 C 143.046875 93.058594 143.046875 91.925781 143.175781 90.851562 C 143.238281 90.410156 143.238281 89.90625 143.300781 89.464844 C 143.363281 88.960938 143.742188 88.710938 143.804688 88.269531 C 143.871094 87.953125 144.058594 87.765625 144.25 87.640625 C 143.871094 87.640625 143.492188 87.640625 143.175781 87.640625 C 138.816406 87.574219 134.460938 87.511719 130.101562 87.199219 C 125.933594 86.945312 121.890625 86.316406 117.785156 85.683594 C 117.15625 85.9375 116.332031 85.8125 116.019531 85.117188 C 115.007812 82.914062 115.132812 80.203125 115.007812 77.808594 C 114.816406 75.414062 114.691406 73.082031 114.566406 70.6875 C 114.3125 65.769531 114.1875 60.792969 114.1875 55.878906 C 114.1875 50.960938 114.3125 45.984375 114.566406 41.066406 C 114.691406 38.671875 114.816406 36.339844 115.007812 33.945312 C 115.132812 32.6875 115.195312 31.363281 115.324219 30.101562 C 115.386719 29.597656 115.386719 29.09375 115.511719 28.652344 C 115.640625 28.023438 115.953125 27.707031 116.144531 27.140625 C 116.398438 26.257812 117.34375 26.320312 117.785156 26.824219 C 117.914062 26.636719 118.101562 26.511719 118.355469 26.382812 C 120.753906 25.628906 123.34375 25.753906 125.871094 25.628906 C 128.269531 25.5 130.671875 25.375 133.070312 25.25 C 136.542969 25.0625 140.015625 24.871094 143.492188 24.746094 C 143.425781 24.683594 143.363281 24.554688 143.363281 24.492188 C 143.175781 23.988281 142.921875 23.484375 142.667969 22.980469 C 142.480469 22.476562 142.355469 22.035156 142.289062 21.53125 C 142.101562 20.460938 141.910156 19.390625 141.785156 18.316406 C 141.660156 17.308594 141.53125 16.238281 141.46875 15.167969 C 141.46875 14.15625 141.46875 13.148438 141.46875 12.140625 C 141.46875 11.511719 142.039062 10.945312 142.667969 10.945312 C 142.859375 10.945312 143.046875 11.007812 143.175781 11.070312 C 147.597656 8.171875 152.523438 6.46875 157.828125 5.902344 C 160.542969 5.652344 163.320312 5.714844 166.039062 6.027344 C 167.363281 6.21875 168.691406 6.40625 170.015625 6.785156 C 171.46875 7.164062 172.417969 7.414062 173.425781 8.488281 C 174.121094 9.242188 173.554688 10.25 172.605469 10.378906 C 172.101562 10.441406 171.785156 10.503906 171.40625 10.441406 C 171.59375 11.324219 171.65625 12.203125 171.785156 13.148438 C 171.910156 14.222656 172.101562 15.292969 172.226562 16.300781 C 172.351562 17.433594 172.542969 18.570312 172.730469 19.703125 C 172.796875 20.269531 172.921875 20.839844 172.921875 21.40625 C 172.984375 22.097656 172.796875 22.601562 172.605469 23.234375 C 172.542969 23.359375 172.480469 23.484375 172.417969 23.609375 C 182.015625 23.296875 191.679688 23.105469 201.277344 23.105469 C 210.183594 23.105469 219.023438 23.234375 227.929688 23.484375 C 232.351562 23.609375 236.773438 23.800781 241.257812 24.050781 C 243.464844 24.179688 245.675781 24.304688 247.886719 24.429688 C 250.097656 24.554688 252.308594 24.492188 254.390625 25.25 C 255.65625 25.753906 255.972656 27.769531 254.390625 28.148438 C 251.867188 28.714844 249.339844 28.210938 246.8125 28.023438 C 244.414062 27.832031 242.015625 27.707031 239.613281 27.582031 C 234.625 27.328125 229.636719 27.140625 224.644531 26.949219 C 206.898438 26.445312 189.152344 26.574219 171.40625 27.015625 C 162.5 27.265625 153.660156 27.582031 144.753906 27.894531 C 140.332031 28.085938 135.847656 28.210938 131.429688 28.402344 C 129.21875 28.464844 127.007812 28.589844 124.796875 28.652344 C 122.648438 28.714844 120.5 28.96875 118.417969 28.527344 C 118.417969 28.652344 118.480469 28.839844 118.480469 28.96875 C 118.480469 29.535156 118.417969 30.039062 118.417969 30.605469 C 118.355469 31.867188 118.226562 33.191406 118.164062 34.449219 C 118.039062 36.84375 117.914062 39.175781 117.847656 41.570312 C 117.660156 46.296875 117.597656 51.085938 117.597656 55.878906 C 117.660156 60.667969 117.785156 65.394531 118.039062 70.121094 C 118.164062 72.578125 118.355469 75.035156 118.542969 77.492188 C 118.734375 79.445312 119.113281 81.527344 118.984375 83.480469 C 123.40625 83.984375 127.953125 84.109375 132.4375 84.300781 C 137.175781 84.488281 141.847656 84.425781 146.585938 84.300781 C 164.015625 83.921875 181.511719 82.535156 198.941406 81.527344 C 216.5 80.582031 234.121094 79.636719 251.675781 78.691406 C 251.804688 78.691406 251.867188 78.691406 251.929688 78.691406 C 254.769531 76.484375 257.929688 74.59375 260.835938 72.578125 C 264.179688 70.308594 267.59375 68.101562 270.9375 65.769531 C 274.285156 63.503906 277.695312 61.234375 281.042969 58.964844 C 282.75 57.832031 284.390625 56.695312 286.097656 55.5625 C 286.664062 55.183594 287.421875 54.804688 287.800781 54.175781 C 287.863281 54.050781 287.929688 53.921875 287.992188 53.734375 C 287.738281 53.292969 287.863281 52.726562 288.179688 52.347656 C 285.589844 50.207031 283.253906 47.875 280.726562 45.730469 C 278.011719 43.398438 275.296875 41.195312 272.519531 38.988281 C 269.738281 36.78125 266.898438 34.578125 263.992188 32.433594 C 262.539062 31.363281 261.085938 30.292969 259.570312 29.15625 C 258.183594 28.148438 257.171875 26.886719 255.78125 25.941406 C 254.707031 25.25 255.71875 23.484375 256.792969 24.179688 C 257.234375 24.492188 257.613281 24.808594 258.054688 25.0625 C 258.5625 25.3125 259.066406 25.3125 259.570312 25.566406 C 260.328125 25.878906 261.085938 26.511719 261.78125 26.949219 C 263.296875 27.960938 264.8125 28.96875 266.265625 30.039062 C 269.171875 32.054688 272.011719 34.136719 274.792969 36.277344 C 277.695312 38.484375 280.476562 40.753906 283.316406 43.085938 C 286.097656 45.414062 289.066406 47.621094 291.527344 50.207031 C 291.96875 50.648438 292.097656 51.152344 292.035156 51.71875 C 292.285156 52.410156 292.097656 53.105469 291.65625 53.417969 Z M 144.183594 13.023438 C 144.3125 13.71875 144.4375 14.410156 144.5 15.101562 C 144.628906 16.046875 144.753906 16.992188 144.941406 17.9375 C 145.132812 18.949219 145.257812 19.957031 145.449219 20.964844 C 145.511719 21.46875 145.574219 21.972656 145.636719 22.539062 C 145.636719 23.105469 145.574219 23.609375 145.636719 24.179688 C 145.636719 24.367188 145.636719 24.492188 145.511719 24.621094 C 146.394531 24.554688 147.34375 24.554688 148.226562 24.492188 C 155.804688 24.179688 163.382812 23.863281 170.964844 23.609375 C 170.898438 23.546875 170.898438 23.546875 170.835938 23.484375 C 170.519531 22.917969 170.207031 22.476562 170.140625 21.785156 C 170.078125 21.152344 170.015625 20.585938 169.953125 19.957031 C 169.890625 18.820312 169.761719 17.75 169.636719 16.679688 C 169.511719 15.542969 169.449219 14.410156 169.382812 13.277344 C 169.257812 12.140625 169.132812 11.070312 169.132812 10 C 169.132812 9.9375 169.132812 9.9375 169.132812 9.871094 C 167.933594 9.558594 166.730469 9.304688 165.59375 9.117188 C 163.195312 8.738281 160.667969 8.738281 158.269531 8.925781 C 153.34375 9.242188 148.417969 10.691406 144.183594 13.023438 Z M 133.511719 37.664062 C 136.542969 37.539062 139.828125 37.414062 142.734375 36.59375 C 143.804688 36.277344 143.554688 34.765625 142.480469 34.703125 C 139.449219 34.578125 136.355469 35.082031 133.324219 35.207031 C 130.292969 35.332031 127.195312 35.523438 124.164062 35.332031 C 122.648438 35.207031 122.648438 37.726562 124.164062 37.664062 C 127.324219 37.664062 130.417969 37.789062 133.511719 37.664062 Z M 123.914062 74.59375 C 126.058594 74.65625 128.207031 74.089844 130.355469 73.835938 C 132.5 73.585938 134.648438 73.398438 136.859375 73.269531 C 141.21875 73.082031 145.511719 73.144531 149.871094 73.523438 C 151.070312 73.648438 151.070312 71.757812 149.871094 71.632812 C 145.386719 71.191406 140.902344 71.066406 136.417969 71.253906 C 134.269531 71.378906 132.121094 71.570312 129.976562 71.820312 C 127.828125 72.074219 125.617188 72.261719 123.660156 73.082031 C 122.710938 73.398438 123.15625 74.53125 123.914062 74.59375 Z M 267.277344 53.167969 C 267.464844 53.292969 267.65625 53.355469 267.90625 53.355469 C 268.097656 53.355469 268.285156 53.355469 268.476562 53.355469 C 268.539062 53.355469 268.664062 53.355469 268.730469 53.355469 C 268.855469 53.355469 269.042969 53.292969 269.171875 53.292969 C 269.171875 53.292969 269.171875 53.292969 269.234375 53.292969 C 269.359375 53.230469 269.421875 53.230469 269.550781 53.167969 C 269.675781 53.105469 269.738281 53.042969 269.800781 52.976562 C 269.929688 52.851562 269.992188 52.726562 270.054688 52.601562 C 270.117188 52.472656 270.179688 52.285156 270.179688 52.160156 C 270.179688 52.03125 270.179688 51.96875 270.117188 51.84375 C 270.054688 51.65625 269.992188 51.464844 269.800781 51.339844 C 269.675781 51.152344 269.421875 51.023438 269.171875 50.960938 C 269.171875 50.960938 269.109375 50.960938 269.109375 50.960938 C 269.109375 50.960938 269.109375 50.960938 269.042969 50.960938 C 268.917969 50.960938 268.855469 50.960938 268.730469 50.898438 C 268.664062 50.898438 268.539062 50.898438 268.414062 50.898438 C 268.222656 50.898438 268.035156 50.898438 267.84375 50.898438 C 267.65625 50.898438 267.527344 50.898438 267.339844 51.023438 C 267.214844 51.085938 267.023438 51.152344 266.960938 51.277344 C 266.835938 51.402344 266.769531 51.527344 266.707031 51.65625 C 266.644531 51.78125 266.582031 51.96875 266.582031 52.160156 C 266.582031 52.285156 266.582031 52.347656 266.644531 52.472656 C 266.707031 52.664062 266.835938 52.851562 266.960938 53.042969 C 267.085938 53.042969 267.148438 53.105469 267.277344 53.167969 Z M 255.402344 39.367188 C 253.253906 39.113281 251.109375 39.050781 248.960938 38.988281 C 246.8125 38.925781 244.667969 38.863281 242.519531 38.734375 C 241.191406 38.671875 241.191406 40.753906 242.519531 40.816406 C 244.667969 40.878906 246.8125 40.941406 248.960938 41.003906 C 251.109375 41.066406 253.253906 41.195312 255.402344 41.066406 C 256.539062 41.066406 256.476562 39.554688 255.402344 39.367188 Z M 166.417969 71.632812 C 165.847656 71.757812 165.34375 71.882812 164.773438 71.945312 C 164.394531 72.011719 163.699219 72.074219 163.320312 72.074219 C 162.753906 72.136719 162.183594 72.074219 161.617188 72.074219 C 160.667969 72.011719 160.480469 73.523438 161.363281 73.710938 C 162.691406 73.964844 163.761719 74.089844 165.089844 73.902344 C 165.722656 73.835938 166.289062 73.710938 166.859375 73.523438 C 167.488281 73.332031 168.183594 73.082031 168.691406 72.640625 C 169.195312 72.136719 168.816406 71.128906 168.121094 71.191406 C 167.488281 71.253906 166.921875 71.507812 166.417969 71.632812 Z M 129.660156 52.664062 C 129.910156 52.601562 130.164062 52.535156 130.355469 52.472656 C 130.796875 52.347656 131.113281 51.90625 131.050781 51.464844 C 130.984375 51.023438 130.605469 50.648438 130.101562 50.648438 C 129.847656 50.648438 129.597656 50.648438 129.34375 50.710938 C 129.28125 50.710938 129.152344 50.710938 129.152344 50.710938 C 129.027344 50.710938 128.839844 50.648438 128.710938 50.648438 C 128.269531 50.582031 127.765625 50.710938 127.324219 50.710938 C 126.753906 50.710938 126.25 50.898438 125.679688 50.960938 C 125.238281 51.023438 124.734375 51.152344 124.292969 51.214844 C 123.597656 51.339844 123.15625 52.222656 123.34375 52.914062 C 123.597656 53.671875 124.292969 53.988281 125.050781 53.859375 C 125.492188 53.796875 125.996094 53.734375 126.4375 53.609375 C 126.878906 53.546875 127.449219 53.480469 127.890625 53.292969 C 128.082031 53.230469 128.082031 53.230469 127.953125 53.292969 C 128.015625 53.292969 128.082031 53.292969 128.082031 53.230469 C 128.207031 53.230469 128.332031 53.167969 128.460938 53.167969 C 128.773438 53.105469 128.964844 53.042969 129.28125 52.914062 C 129.40625 52.851562 129.46875 52.851562 129.53125 52.789062 C 129.34375 52.789062 129.597656 52.664062 129.660156 52.664062 Z M 154.921875 35.394531 C 154.796875 35.332031 154.730469 35.269531 154.605469 35.207031 C 154.289062 35.144531 153.910156 35.019531 153.59375 34.953125 C 153.40625 34.890625 153.152344 34.890625 152.964844 34.953125 C 152.773438 35.019531 152.585938 35.144531 152.394531 35.269531 C 152.332031 35.332031 152.269531 35.457031 152.207031 35.523438 C 152.078125 35.710938 152.015625 35.898438 152.015625 36.152344 C 152.015625 36.339844 152.015625 36.46875 152.144531 36.59375 C 152.207031 36.71875 152.269531 36.84375 152.394531 36.972656 C 152.523438 37.097656 152.710938 37.222656 152.964844 37.285156 C 153.152344 37.347656 153.40625 37.347656 153.59375 37.285156 C 153.910156 37.222656 154.289062 37.160156 154.605469 37.097656 C 154.667969 37.035156 154.796875 37.035156 154.859375 36.972656 C 154.984375 36.910156 155.046875 36.84375 155.109375 36.71875 C 155.175781 36.65625 155.238281 36.59375 155.238281 36.53125 C 155.300781 36.402344 155.300781 36.277344 155.300781 36.152344 C 155.300781 36.089844 155.300781 35.964844 155.238281 35.898438 C 155.175781 35.835938 155.175781 35.710938 155.109375 35.648438 C 155.109375 35.523438 155.046875 35.457031 154.921875 35.394531 Z M 163.382812 195.527344 C 163.257812 195.527344 163.132812 195.527344 163.003906 195.589844 C 162.878906 195.65625 162.753906 195.71875 162.691406 195.78125 C 162.625 195.84375 162.5625 195.90625 162.5625 195.96875 C 162.5 196.097656 162.4375 196.285156 162.4375 196.472656 C 162.4375 196.535156 162.4375 196.664062 162.5 196.726562 C 162.5625 196.914062 162.625 197.042969 162.753906 197.167969 C 162.878906 197.292969 162.941406 197.417969 163.070312 197.546875 C 163.070312 197.609375 163.070312 197.609375 163.070312 197.671875 C 163.132812 197.796875 163.195312 197.921875 163.320312 198.050781 C 163.449219 198.175781 163.574219 198.238281 163.699219 198.300781 C 163.828125 198.363281 164.015625 198.425781 164.144531 198.425781 C 164.332031 198.425781 164.457031 198.425781 164.585938 198.300781 C 164.710938 198.238281 164.835938 198.175781 164.964844 198.050781 C 165.027344 197.988281 165.089844 197.921875 165.152344 197.796875 C 165.28125 197.609375 165.28125 197.417969 165.28125 197.230469 C 165.28125 197.105469 165.28125 197.042969 165.214844 196.914062 C 165.152344 196.726562 165.089844 196.535156 164.902344 196.410156 C 164.835938 196.347656 164.773438 196.285156 164.648438 196.222656 C 164.585938 196.160156 164.523438 196.160156 164.457031 196.160156 C 164.332031 196.03125 164.207031 195.90625 164.078125 195.78125 C 164.015625 195.65625 163.890625 195.589844 163.761719 195.589844 C 163.636719 195.527344 163.511719 195.527344 163.382812 195.527344 Z M 224.582031 176.875 C 224.332031 177.316406 224.015625 177.757812 223.699219 178.261719 C 223.257812 179.015625 222.054688 179.269531 221.363281 178.640625 C 219.59375 179.015625 217.636719 178.828125 215.804688 178.828125 C 213.402344 178.828125 211.003906 178.890625 208.667969 178.890625 C 203.867188 178.953125 199.132812 179.082031 194.332031 179.269531 C 188.203125 179.457031 182.078125 179.773438 175.953125 180.152344 C 176.078125 180.339844 176.207031 180.53125 176.207031 180.84375 C 176.207031 182.671875 176.457031 184.5625 176.519531 186.390625 C 176.585938 188.15625 176.519531 189.921875 176.519531 191.683594 C 176.519531 195.085938 176.457031 198.554688 176.394531 201.957031 C 176.207031 214.433594 175.953125 226.976562 175.761719 239.453125 C 175.636719 245.628906 175.511719 251.867188 175.449219 258.042969 C 175.449219 261.195312 175.382812 264.347656 175.382812 267.496094 C 175.382812 269.136719 175.320312 270.835938 175.320312 272.476562 C 175.320312 273.925781 175.449219 275.375 174.878906 276.761719 C 174.878906 276.824219 174.816406 276.824219 174.816406 276.886719 C 174.753906 278.210938 174.625 279.535156 174.5625 280.921875 C 174.375 284.070312 174.375 287.285156 173.804688 290.4375 C 173.425781 292.578125 172.667969 294.722656 170.898438 296.109375 C 168.5625 297.9375 166.101562 296.992188 163.511719 296.925781 C 160.859375 296.863281 158.710938 299.007812 156.058594 299.257812 C 153.59375 299.574219 151.257812 298.375 149.742188 296.421875 C 147.976562 294.21875 147.46875 291.445312 147.46875 288.671875 C 147.46875 285.332031 147.847656 281.992188 147.976562 278.652344 C 148.039062 277.265625 148.101562 275.878906 148.164062 274.492188 C 147.53125 273.421875 147.722656 272.035156 147.722656 270.773438 C 147.722656 269.007812 147.722656 267.246094 147.722656 265.480469 C 147.722656 262.140625 147.660156 258.800781 147.660156 255.460938 C 147.597656 243.421875 147.28125 231.324219 147.152344 219.285156 C 147.089844 213.238281 147.027344 207.25 146.902344 201.199219 C 146.835938 198.238281 146.902344 195.277344 146.902344 192.316406 C 146.902344 189.226562 146.773438 186.203125 147.152344 183.113281 C 147.21875 182.734375 147.46875 182.421875 147.785156 182.167969 C 146.078125 182.292969 144.4375 182.421875 142.734375 182.609375 C 134.082031 183.429688 125.363281 184.3125 116.710938 185.382812 C 108.058594 186.453125 99.472656 187.839844 90.820312 188.785156 C 90.125 188.847656 89.683594 188.34375 89.617188 187.777344 C 88.734375 187.902344 87.722656 187.460938 87.535156 186.515625 C 86.714844 180.972656 86.648438 175.300781 86.269531 169.691406 C 85.890625 164.144531 85.511719 158.597656 85.199219 153.054688 C 84.820312 147.445312 84.441406 141.773438 84.0625 136.164062 C 83.871094 133.390625 83.746094 130.617188 83.554688 127.84375 C 83.367188 125.136719 82.925781 122.238281 83.238281 119.527344 C 83.367188 118.265625 85.261719 117.761719 85.640625 119.210938 C 85.640625 119.273438 85.640625 119.273438 85.640625 119.339844 C 95.492188 117.761719 105.597656 117.257812 115.574219 116.503906 C 133.511719 115.179688 151.449219 114.171875 169.382812 113.351562 C 178.480469 112.972656 187.511719 112.65625 196.605469 112.40625 C 201.027344 112.28125 205.507812 112.152344 209.929688 112.089844 C 212.332031 112.027344 214.730469 111.964844 217.128906 111.964844 C 219.339844 111.902344 221.296875 111.710938 223.320312 112.65625 C 224.203125 113.097656 224.140625 114.484375 223.320312 114.925781 C 221.046875 116.125 218.519531 115.808594 215.992188 115.808594 C 213.402344 115.871094 210.816406 115.871094 208.226562 115.933594 C 203.234375 116.0625 198.246094 116.1875 193.257812 116.3125 C 175.320312 116.816406 157.386719 117.511719 139.449219 118.457031 C 130.605469 118.960938 121.703125 119.402344 112.859375 119.96875 C 103.828125 120.660156 94.859375 121.605469 85.957031 121.605469 C 86.207031 123.558594 86.269531 125.640625 86.398438 127.59375 C 86.648438 130.367188 86.839844 133.140625 87.09375 135.910156 C 87.535156 141.457031 87.976562 147.003906 88.417969 152.550781 C 88.859375 158.15625 89.304688 163.828125 89.746094 169.4375 C 90.0625 173.597656 90.566406 177.882812 90.820312 182.105469 C 91.511719 182.167969 92.207031 182.796875 91.957031 183.554688 C 91.703125 184.4375 91.386719 185.320312 91.070312 186.140625 C 100.355469 184.25 109.828125 183.113281 119.238281 181.789062 C 136.480469 179.457031 153.847656 177.820312 171.277344 176.6875 C 179.867188 176.117188 188.519531 175.742188 197.171875 175.425781 C 201.59375 175.300781 206.015625 175.171875 210.371094 175.109375 C 212.582031 175.046875 214.792969 175.046875 217.003906 174.984375 C 218.203125 174.984375 219.339844 174.859375 220.476562 174.984375 C 220.414062 173.597656 220.539062 172.085938 220.539062 170.761719 C 220.539062 168.179688 220.476562 165.59375 220.476562 163.011719 C 220.414062 157.84375 220.414062 152.675781 220.351562 147.507812 C 220.289062 142.339844 220.289062 137.171875 220.226562 132.003906 C 220.226562 129.421875 220.160156 126.835938 220.160156 124.253906 C 220.160156 121.734375 219.910156 119.148438 220.289062 116.691406 C 220.476562 115.367188 222.75 115.367188 223.003906 116.691406 C 223.445312 119.148438 223.257812 121.796875 223.320312 124.253906 C 223.382812 126.835938 223.445312 129.421875 223.445312 132.003906 C 223.507812 137.109375 223.636719 142.152344 223.699219 147.253906 C 223.761719 152.359375 223.886719 157.402344 224.015625 162.507812 C 224.078125 165.089844 224.140625 167.675781 224.140625 170.257812 C 224.140625 171.582031 224.140625 172.839844 224.265625 174.164062 C 224.265625 174.667969 224.332031 175.109375 224.332031 175.550781 C 224.644531 175.804688 224.898438 176.308594 224.582031 176.875 Z M 173.996094 180.277344 C 165.660156 180.78125 157.386719 181.414062 149.046875 182.105469 C 149.238281 182.230469 149.425781 182.484375 149.492188 182.863281 C 149.996094 186.265625 149.933594 189.730469 149.996094 193.195312 C 150.121094 196.535156 150.183594 199.878906 150.183594 203.21875 C 150.375 215.378906 150.5 227.542969 150.628906 239.707031 C 150.691406 245.753906 150.753906 251.742188 150.816406 257.792969 C 150.816406 258.042969 150.816406 258.296875 150.816406 258.546875 C 151.132812 262.707031 151.195312 266.867188 151.070312 270.964844 C 151.070312 271.214844 151.070312 271.46875 151.070312 271.65625 C 151.070312 272.476562 151.132812 273.230469 150.941406 273.863281 C 150.878906 275.375 150.816406 276.886719 150.753906 278.335938 C 150.628906 281.234375 150.4375 284.199219 150.3125 287.097656 C 150.25 289.617188 150.25 292.453125 151.953125 294.53125 C 153.660156 296.550781 155.617188 296.234375 157.765625 295.164062 C 159.972656 294.089844 161.933594 293.273438 164.457031 293.648438 C 166.605469 293.902344 168.5625 294.40625 169.699219 292.199219 C 170.585938 290.4375 170.648438 288.355469 170.773438 286.402344 C 170.898438 283.503906 171.089844 280.542969 171.214844 277.644531 C 171.34375 275.625 171.214844 273.230469 171.65625 271.152344 C 171.722656 269.449219 171.722656 267.8125 171.785156 266.109375 C 171.847656 262.707031 171.972656 259.242188 172.035156 255.839844 C 172.289062 243.359375 172.289062 230.820312 172.542969 218.34375 C 172.667969 212.164062 172.730469 205.925781 172.859375 199.75 C 172.921875 196.601562 172.921875 193.449219 173.046875 190.296875 C 173.175781 187.148438 173.554688 183.996094 173.679688 180.84375 C 173.804688 180.59375 173.867188 180.402344 173.996094 180.277344 Z M 154.796875 199.121094 C 154.921875 200.824219 154.921875 202.777344 155.554688 204.414062 C 155.871094 205.171875 157.257812 205.421875 157.386719 204.414062 C 157.636719 202.648438 157.320312 200.886719 157.195312 199.121094 C 157.070312 197.292969 156.816406 195.464844 156.691406 193.636719 C 156.375 189.984375 156.5625 186.328125 156.691406 182.671875 C 156.753906 181.414062 154.796875 181.414062 154.730469 182.671875 C 154.605469 186.328125 154.730469 189.984375 154.730469 193.636719 C 154.730469 195.464844 154.667969 197.292969 154.796875 199.121094 Z M 153.152344 98.039062 C 153.214844 98.476562 153.46875 98.855469 153.910156 98.917969 C 154.289062 98.984375 154.796875 98.730469 154.859375 98.289062 C 154.984375 97.40625 154.921875 96.585938 154.921875 95.707031 C 154.921875 94.886719 154.859375 94.128906 154.796875 93.375 C 154.667969 91.734375 154.351562 90.097656 154.039062 88.457031 C 153.785156 87.324219 152.015625 87.765625 152.269531 88.960938 C 152.585938 90.476562 152.773438 91.988281 152.964844 93.5 C 153.027344 94.257812 153.089844 95.011719 153.152344 95.769531 C 153.214844 96.460938 153.089844 97.28125 153.152344 98.039062 Z M 155.804688 108.246094 C 155.996094 108.246094 156.25 108.183594 156.375 107.996094 C 156.5 107.804688 156.5625 107.679688 156.628906 107.425781 C 156.691406 107.050781 156.691406 106.734375 156.691406 106.355469 C 156.691406 105.976562 156.753906 105.664062 156.753906 105.285156 C 156.753906 104.84375 156.3125 104.402344 155.871094 104.402344 C 155.363281 104.402344 155.046875 104.78125 154.984375 105.285156 C 154.984375 105.664062 154.984375 105.976562 154.984375 106.355469 C 154.984375 106.734375 154.984375 107.050781 154.984375 107.425781 C 154.984375 107.617188 155.046875 107.867188 155.238281 107.996094 C 155.425781 108.121094 155.617188 108.246094 155.804688 108.246094 Z M 155.933594 263.589844 C 155.871094 268.503906 155.679688 273.359375 155.617188 278.273438 C 155.554688 283.1875 155.742188 288.042969 155.679688 292.957031 C 155.679688 294.089844 157.449219 294.089844 157.449219 292.957031 C 157.511719 288.042969 157.828125 283.1875 157.828125 278.273438 C 157.890625 273.359375 157.765625 268.503906 157.828125 263.589844 C 157.765625 262.390625 155.933594 262.390625 155.933594 263.589844 Z M 162.625 278.148438 C 162.5 282.683594 162.246094 287.222656 162.375 291.757812 C 162.4375 292.832031 164.015625 292.832031 164.078125 291.757812 C 164.332031 287.222656 164.144531 282.683594 164.144531 278.148438 C 164.144531 277.203125 162.625 277.203125 162.625 278.148438 Z M 163.636719 263.023438 C 163.257812 263.085938 162.878906 263.402344 162.941406 263.84375 C 163.003906 264.789062 163.003906 265.796875 162.941406 266.742188 C 162.878906 267.183594 162.816406 267.558594 162.753906 268 C 162.691406 268.253906 162.625 268.441406 162.5625 268.695312 C 162.5 268.945312 162.5 269.199219 162.5 269.386719 C 162.5 269.578125 162.4375 269.828125 162.375 270.082031 C 162.246094 270.523438 162.5 270.964844 162.941406 271.089844 C 163.382812 271.214844 163.761719 270.964844 163.953125 270.523438 C 164.015625 270.332031 164.144531 270.082031 164.207031 269.890625 C 164.332031 269.703125 164.457031 269.515625 164.523438 269.199219 C 164.585938 268.945312 164.585938 268.757812 164.648438 268.503906 C 164.710938 267.9375 164.773438 267.371094 164.835938 266.804688 C 164.902344 265.734375 164.773438 264.660156 164.648438 263.589844 C 164.457031 263.210938 163.953125 263.023438 163.636719 263.023438 Z M 162.058594 185.761719 C 162.183594 186.957031 162.121094 188.09375 162.058594 189.289062 C 161.996094 190.234375 163.511719 190.425781 163.699219 189.542969 C 163.953125 188.28125 163.953125 187.019531 163.953125 185.699219 C 163.890625 184.4375 163.761719 183.113281 163.320312 181.917969 C 163.132812 181.414062 162.691406 181.097656 162.183594 181.285156 C 161.679688 181.414062 161.425781 181.917969 161.554688 182.421875 C 161.679688 183.554688 161.933594 184.625 162.058594 185.761719 Z M 157.449219 222.753906 C 157.449219 221.933594 157.257812 221.050781 157.132812 220.230469 C 157.007812 219.414062 156.941406 218.59375 156.941406 217.773438 C 156.878906 216.074219 156.941406 214.433594 157.132812 212.734375 C 157.195312 212.292969 156.691406 211.914062 156.3125 211.914062 C 155.804688 211.914062 155.554688 212.292969 155.492188 212.734375 C 155.300781 214.433594 155.175781 216.136719 155.238281 217.835938 C 155.238281 218.65625 155.300781 219.539062 155.363281 220.359375 C 155.425781 221.242188 155.488281 222.121094 155.804688 223.003906 C 156.121094 223.824219 157.449219 223.761719 157.449219 222.753906 Z M 129.976562 171.078125 C 133.890625 171.140625 137.804688 170.445312 141.722656 170.070312 C 145.636719 169.691406 149.554688 169.25 153.46875 168.996094 C 157.320312 168.746094 161.109375 168.367188 164.964844 168.113281 C 168.878906 167.925781 172.921875 167.925781 176.773438 167.042969 C 177.972656 166.792969 177.53125 165.214844 176.519531 165.089844 C 172.605469 164.585938 168.625 165.152344 164.710938 165.46875 C 160.796875 165.785156 156.816406 165.972656 152.902344 166.476562 C 149.046875 166.917969 145.257812 167.234375 141.40625 167.675781 C 137.492188 168.113281 133.511719 168.429688 129.722656 169.4375 C 128.839844 169.691406 129.027344 171.078125 129.976562 171.078125 Z M 166.289062 92.808594 C 166.226562 92.742188 166.164062 92.742188 166.101562 92.679688 C 165.972656 92.617188 165.785156 92.554688 165.660156 92.554688 C 165.59375 92.554688 165.46875 92.554688 165.40625 92.617188 C 165.28125 92.679688 165.089844 92.742188 165.027344 92.871094 C 164.902344 92.996094 164.773438 93.121094 164.648438 93.246094 C 164.585938 93.3125 164.523438 93.375 164.457031 93.4375 C 164.457031 93.4375 164.394531 93.5 164.394531 93.5 C 164.332031 93.5625 164.332031 93.625 164.269531 93.6875 C 164.207031 93.753906 164.207031 93.878906 164.144531 93.941406 C 164.078125 94.066406 164.078125 94.257812 164.144531 94.382812 C 164.207031 94.507812 164.269531 94.632812 164.332031 94.761719 C 164.523438 94.949219 164.835938 95.074219 165.152344 94.949219 C 165.214844 94.949219 165.28125 94.886719 165.28125 94.886719 C 165.34375 94.886719 165.40625 94.824219 165.46875 94.761719 C 165.53125 94.761719 165.53125 94.695312 165.59375 94.695312 C 165.660156 94.695312 165.660156 94.632812 165.722656 94.632812 C 165.785156 94.570312 165.847656 94.507812 165.910156 94.445312 C 166.039062 94.320312 166.164062 94.191406 166.289062 94.128906 C 166.351562 94.066406 166.417969 93.941406 166.480469 93.816406 C 166.542969 93.6875 166.542969 93.5625 166.542969 93.4375 C 166.542969 93.3125 166.542969 93.183594 166.480469 93.058594 C 166.480469 92.996094 166.417969 92.871094 166.289062 92.808594 Z M 139.574219 128.222656 C 143.238281 127.78125 146.902344 127.214844 150.628906 126.964844 C 154.226562 126.710938 157.828125 126.585938 161.488281 126.523438 C 165.214844 126.523438 168.878906 126.773438 172.605469 126.648438 C 173.554688 126.585938 173.867188 125.074219 172.859375 124.882812 C 169.195312 124.253906 165.46875 124.316406 161.804688 124.316406 C 158.015625 124.316406 154.226562 124.378906 150.4375 124.632812 C 146.773438 124.882812 143.113281 125.007812 139.449219 125.515625 C 137.617188 125.765625 135.722656 125.953125 133.890625 126.332031 C 131.933594 126.710938 130.101562 127.40625 128.144531 127.84375 C 127.070312 128.097656 127.574219 129.609375 128.585938 129.421875 C 130.480469 129.167969 132.375 129.167969 134.269531 128.917969 C 136.039062 128.726562 137.804688 128.414062 139.574219 128.222656 Z M 103.953125 129.296875 C 101.933594 129.546875 99.914062 129.863281 97.890625 130.113281 C 97.386719 130.175781 97.070312 130.871094 97.199219 131.3125 C 97.324219 131.878906 97.890625 132.066406 98.398438 132.003906 C 100.355469 131.753906 102.375 131.4375 104.332031 131.1875 C 106.292969 130.933594 108.3125 130.679688 110.269531 130.242188 C 111.21875 130.050781 111.027344 128.476562 110.019531 128.539062 C 108.058594 128.664062 105.976562 129.042969 103.953125 129.296875 Z M 165.027344 98.984375 C 164.523438 99.109375 164.269531 99.675781 164.332031 100.179688 C 164.585938 101.566406 164.710938 102.890625 164.773438 104.277344 C 164.773438 104.96875 164.835938 105.664062 164.835938 106.355469 C 164.835938 107.050781 164.964844 107.804688 164.964844 108.5 C 165.027344 109.378906 166.351562 109.695312 166.605469 108.75 C 166.796875 107.929688 166.921875 107.175781 166.984375 106.355469 C 167.046875 105.664062 167.046875 104.90625 166.984375 104.214844 C 166.859375 102.699219 166.542969 101.1875 166.164062 99.675781 C 166.101562 99.171875 165.53125 98.855469 165.027344 98.984375 Z M 161.175781 21.65625 C 161.175781 21.59375 161.175781 21.53125 161.175781 21.40625 C 161.175781 21.214844 161.175781 21.089844 161.175781 20.902344 C 161.175781 20.710938 161.175781 20.585938 161.175781 20.398438 C 161.175781 20.019531 161.300781 19.703125 161.488281 19.390625 C 161.554688 19.261719 161.617188 19.136719 161.679688 19.011719 C 161.867188 18.695312 162.183594 18.507812 162.5625 18.507812 C 162.878906 18.507812 163.320312 18.695312 163.449219 19.011719 C 163.511719 19.136719 163.574219 19.324219 163.636719 19.453125 C 163.574219 19.390625 163.511719 19.261719 163.449219 19.199219 C 163.761719 19.578125 163.953125 19.957031 163.890625 20.460938 C 163.890625 20.648438 163.890625 20.773438 163.890625 20.964844 C 163.890625 21.152344 163.890625 21.28125 163.828125 21.46875 C 163.828125 21.59375 163.828125 21.71875 163.761719 21.847656 C 163.761719 22.035156 163.636719 22.226562 163.574219 22.414062 C 163.574219 22.539062 163.511719 22.664062 163.511719 22.792969 C 163.449219 23.105469 163.195312 23.296875 163.003906 23.484375 C 162.816406 23.609375 162.5 23.675781 162.3125 23.609375 C 162.058594 23.546875 161.867188 23.484375 161.679688 23.296875 C 161.425781 23.105469 161.363281 22.792969 161.363281 22.476562 C 161.363281 22.414062 161.363281 22.351562 161.363281 22.351562 C 161.238281 22.097656 161.175781 21.910156 161.175781 21.65625 Z M 163.449219 22.730469 C 163.511719 22.664062 163.574219 22.539062 163.636719 22.476562 C 163.574219 22.539062 163.511719 22.664062 163.449219 22.730469 Z M 202.730469 168.242188 C 202.226562 168.304688 201.71875 168.304688 201.152344 168.367188 C 200.078125 168.492188 199.003906 168.621094 197.929688 168.683594 C 195.71875 168.746094 193.636719 168.492188 191.425781 168.429688 C 190.035156 168.367188 189.785156 170.445312 191.109375 170.824219 C 193.320312 171.457031 195.785156 171.457031 198.058594 171.390625 C 199.257812 171.328125 200.394531 171.265625 201.59375 171.078125 C 202.164062 171.015625 202.730469 170.824219 203.234375 170.636719 C 203.804688 170.511719 204.371094 170.320312 204.878906 170.003906 C 205.699219 169.4375 205.320312 168.304688 204.371094 168.179688 C 203.867188 167.988281 203.300781 168.113281 202.730469 168.242188 Z M 202.730469 168.242188 " fill-opacity="1" fill-rule="nonzero"/></g></svg>