<svg xmlns="http://www.w3.org/2000/svg" xmlns:xlink="http://www.w3.org/1999/xlink" width="500" zoomAndPan="magnify" viewBox="0 0 375 307.91998" height="400" preserveAspectRatio="xMidYMid meet" version="1.0"><defs><clipPath id="788207767a"><path d="M 0.046875 0 L 374.949219 0 L 374.949219 299.921875 L 0.046875 299.921875 Z M 0.046875 0 " clip-rule="nonzero"/></clipPath><clipPath id="7f4a940b36"><path d="M 180 275 L 249 275 L 249 299.921875 L 180 299.921875 Z M 180 275 " clip-rule="nonzero"/></clipPath><clipPath id="fc4780837b"><path d="M 99.023438 86 L 128 86 L 128 105 L 99.023438 105 Z M 99.023438 86 " clip-rule="nonzero"/></clipPath><clipPath id="87a6bf86e3"><path d="M 241 66 L 275.976562 66 L 275.976562 95 L 241 95 Z M 241 66 " clip-rule="nonzero"/></clipPath><clipPath id="aaa397543a"><path d="M 253 47 L 275.976562 47 L 275.976562 80 L 253 80 Z M 253 47 " clip-rule="nonzero"/></clipPath></defs><g clip-path="url(#788207767a)"><path fill="#ffffff" d="M 0.046875 0 L 374.953125 0 L 374.953125 299.921875 L 0.046875 299.921875 Z M 0.046875 0 " fill-opacity="1" fill-rule="nonzero"/><path fill="#ffffff" d="M 0.046875 0 L 374.953125 0 L 374.953125 299.921875 L 0.046875 299.921875 Z M 0.046875 0 " fill-opacity="1" fill-rule="nonzero"/></g><g clip-path="url(#7f4a940b36)"><path fill="#472c2c" d="M 194.933594 277.800781 C 194.933594 277.800781 207.085938 274.664062 207.496094 278.644531 C 207.902344 282.625 207.519531 294.480469 207.363281 295.066406 C 207.207031 295.65625 205.371094 295.859375 202.171875 296.355469 C 198.972656 296.851562 196.148438 299.429688 191.160156 299.660156 C 186.175781 299.890625 181.867188 298.207031 180.96875 297.441406 C 180.066406 296.667969 179.71875 292.976562 180.644531 290.152344 C 181.566406 287.328125 184.441406 286.5625 189.023438 284.0625 C 193.59375 281.5625 194.933594 277.800781 194.933594 277.800781 Z M 242.695312 278.667969 C 242.695312 278.667969 243.476562 283.253906 245.375 287.210938 C 247.015625 290.632812 248.003906 290.597656 248.171875 293.210938 C 248.316406 295.421875 248.136719 296.816406 246.757812 297.433594 C 245.378906 298.058594 241.660156 298.757812 237.207031 298.820312 C 232.757812 298.878906 230.414062 298.113281 229.796875 297.121094 C 229.179688 296.132812 229.628906 286.71875 230.078125 278.8125 C 230.527344 270.90625 242.695312 278.667969 242.695312 278.667969 Z M 242.695312 278.667969 " fill-opacity="1" fill-rule="evenodd"/></g><path fill="#74472c" d="M 189.9375 297.566406 C 189.789062 297.546875 189.683594 297.410156 189.699219 297.261719 C 189.71875 297.109375 189.855469 297.003906 190.003906 297.019531 C 190.003906 297.019531 192.898438 297.355469 196.527344 295.714844 C 199.714844 294.269531 202.96875 293.726562 205.847656 293.261719 C 205.996094 293.238281 206.132812 293.339844 206.160156 293.492188 C 206.183594 293.640625 206.082031 293.777344 205.929688 293.800781 C 203.09375 294.257812 199.890625 294.792969 196.75 296.21875 C 192.964844 297.933594 189.9375 297.566406 189.9375 297.566406 Z M 181.363281 295.71875 C 181.230469 295.648438 181.175781 295.488281 181.25 295.355469 C 181.320312 295.222656 181.480469 295.167969 181.613281 295.234375 C 181.613281 295.234375 184.347656 296.648438 188.386719 297.046875 C 188.535156 297.058594 188.644531 297.195312 188.632812 297.34375 C 188.621094 297.496094 188.484375 297.601562 188.332031 297.589844 C 184.171875 297.175781 181.363281 295.71875 181.363281 295.71875 Z M 245.902344 295.414062 C 245.902344 295.414062 239.304688 297.769531 231.773438 296.050781 C 231.625 296.015625 231.535156 295.871094 231.570312 295.726562 C 231.605469 295.582031 231.75 295.488281 231.894531 295.523438 C 239.261719 297.207031 245.722656 294.90625 245.722656 294.90625 C 245.867188 294.855469 246.023438 294.929688 246.070312 295.074219 C 246.117188 295.203125 246.046875 295.359375 245.902344 295.414062 Z M 245.902344 295.414062 " fill-opacity="1" fill-rule="evenodd"/><path fill="#be947f" d="M 141.941406 91.734375 C 141.941406 91.734375 142.480469 90.074219 143.085938 89.660156 C 143.691406 89.246094 145.125 88.988281 148.558594 89.011719 C 152 89.03125 152.417969 88.609375 153.078125 87.675781 C 153.742188 86.734375 154.847656 86.445312 156.441406 86.667969 C 158.035156 86.890625 158.660156 86.5 160.355469 85.066406 C 162.050781 83.640625 164.347656 82.707031 170.449219 79.242188 C 176.542969 75.777344 186.175781 67.664062 190.621094 66.902344 C 195.074219 66.140625 193.839844 92.070312 193.839844 92.070312 C 193.839844 92.070312 190.59375 92.488281 187.511719 93.644531 C 184.429688 94.800781 172.234375 100.363281 168.363281 102.167969 C 164.492188 103.972656 163.945312 104.542969 160.859375 104.738281 C 157.773438 104.929688 153.265625 105.320312 150.566406 105.546875 C 147.871094 105.777344 145.296875 106.867188 142.042969 104.636719 C 138.789062 102.394531 141.941406 91.734375 141.941406 91.734375 Z M 141.941406 91.734375 " fill-opacity="1" fill-rule="evenodd"/><path fill="#805f4d" d="M 155.390625 89.425781 C 155.261719 89.351562 155.210938 89.183594 155.285156 89.054688 C 155.355469 88.921875 155.523438 88.875 155.65625 88.945312 C 155.65625 88.945312 160.066406 91.421875 161.492188 94.242188 C 161.558594 94.375 161.503906 94.542969 161.375 94.609375 C 161.242188 94.675781 161.074219 94.621094 161.007812 94.488281 C 159.636719 91.785156 155.390625 89.425781 155.390625 89.425781 Z M 152.640625 90.214844 C 152.519531 90.125 152.492188 89.957031 152.582031 89.832031 C 152.671875 89.714844 152.839844 89.683594 152.964844 89.773438 C 152.964844 89.773438 153.761719 90.355469 154.335938 90.949219 C 154.605469 91.222656 154.828125 91.503906 154.925781 91.738281 C 155.210938 92.441406 156.382812 96.839844 155.945312 99.105469 C 155.914062 99.253906 155.769531 99.351562 155.625 99.320312 C 155.476562 99.289062 155.378906 99.148438 155.410156 99.003906 C 155.828125 96.832031 154.695312 92.621094 154.421875 91.949219 C 154.347656 91.769531 154.164062 91.554688 153.949219 91.332031 C 153.402344 90.773438 152.640625 90.214844 152.640625 90.214844 Z M 152.640625 90.214844 " fill-opacity="1" fill-rule="evenodd"/><g clip-path="url(#fc4780837b)"><path fill="#f6a660" d="M 124.621094 92.457031 C 124.621094 92.457031 121.304688 89.765625 119.230469 88.730469 C 117.160156 87.691406 116.578125 87.5 114.113281 87.285156 C 111.652344 87.070312 109.628906 86.058594 108.910156 86.828125 C 108.257812 87.53125 109.3125 89.28125 110.671875 89.816406 C 112.214844 90.425781 113.785156 91.0625 113.980469 91.625 C 114.203125 92.242188 113.144531 92.660156 109.769531 92.792969 C 106.394531 92.917969 104.929688 92.871094 102.714844 93.046875 C 100.734375 93.207031 99.921875 93.574219 99.824219 94.449219 C 99.730469 95.324219 100.734375 96.101562 103.097656 96.203125 C 103.097656 96.203125 99.496094 95.917969 99.371094 97.492188 C 99.242188 99.070312 102.882812 99.070312 102.882812 99.070312 C 102.882812 99.070312 100.050781 99.242188 99.976562 100.507812 C 99.902344 101.707031 102.402344 101.929688 105.277344 102.097656 C 105.277344 102.097656 103 102.304688 103.007812 103.695312 C 103.011719 105.195312 106.136719 104.734375 108.714844 104.816406 C 111.289062 104.902344 114.875 104.960938 118.640625 104.21875 C 122.402344 103.472656 122.578125 102.605469 124.992188 101.753906 C 127.40625 100.902344 129.042969 94.621094 124.621094 92.457031 Z M 124.621094 92.457031 " fill-opacity="1" fill-rule="evenodd"/></g><path fill="#d06b28" d="M 114.191406 92.402344 C 114.121094 92.273438 114.167969 92.105469 114.300781 92.03125 C 114.429688 91.960938 114.597656 92.007812 114.671875 92.140625 C 114.671875 92.140625 116.535156 95.480469 120.378906 95.988281 C 120.527344 96.007812 120.628906 96.144531 120.609375 96.292969 C 120.59375 96.445312 120.453125 96.550781 120.304688 96.527344 C 116.1875 95.980469 114.191406 92.402344 114.191406 92.402344 Z M 109.132812 99.253906 C 109.109375 99.261719 109.078125 99.265625 109.054688 99.261719 C 107.730469 99.207031 102.910156 99.386719 102.910156 99.386719 C 102.761719 99.394531 102.636719 99.273438 102.628906 99.121094 C 102.625 98.972656 102.742188 98.847656 102.894531 98.839844 C 102.894531 98.839844 107.75 98.660156 109.078125 98.714844 C 109.097656 98.714844 109.113281 98.714844 109.128906 98.722656 C 109.113281 97.917969 109.113281 97.179688 109.121094 96.5625 C 106.898438 96.46875 103.078125 96.449219 103.078125 96.449219 C 102.929688 96.449219 102.808594 96.324219 102.808594 96.175781 C 102.808594 96.023438 102.9375 95.90625 103.085938 95.90625 C 103.085938 95.90625 106.890625 95.921875 109.128906 96.019531 C 109.132812 95.203125 109.144531 94.699219 109.144531 94.699219 C 109.152344 94.550781 109.269531 94.429688 109.425781 94.4375 C 109.578125 94.441406 109.695312 94.5625 109.691406 94.71875 C 109.691406 94.71875 109.589844 99.152344 109.816406 103.023438 C 109.824219 103.175781 109.707031 103.304688 109.558594 103.3125 C 109.410156 103.320312 109.277344 103.203125 109.269531 103.054688 C 109.253906 102.792969 109.242188 102.519531 109.230469 102.25 C 108.203125 102.292969 105.277344 102.339844 105.277344 102.339844 C 105.128906 102.347656 105.003906 102.226562 105.003906 102.070312 C 105.003906 101.921875 105.125 101.796875 105.273438 101.796875 C 105.273438 101.796875 108.1875 101.75 109.203125 101.707031 C 109.164062 100.875 109.144531 100.039062 109.132812 99.253906 Z M 109.132812 99.253906 " fill-opacity="1" fill-rule="evenodd"/><path fill="#f3ecea" d="M 125 95.335938 C 125.023438 95.730469 125.039062 96.15625 125.039062 96.597656 C 125.046875 97.097656 125.027344 97.617188 124.992188 98.15625 C 124.96875 98.511719 124.933594 98.871094 124.882812 99.238281 C 124.820312 99.742188 124.730469 100.253906 124.601562 100.769531 C 124.5 101.195312 124.382812 101.621094 124.242188 102.042969 C 124.242188 102.042969 143.289062 104.960938 143.554688 104.757812 C 143.675781 104.667969 143.925781 103.929688 144.171875 102.875 C 144.28125 102.414062 144.386719 101.890625 144.476562 101.339844 C 144.628906 100.484375 144.742188 99.542969 144.789062 98.636719 C 144.796875 98.480469 144.800781 98.332031 144.808594 98.175781 C 144.8125 97.804688 144.800781 97.4375 144.777344 97.078125 C 144.707031 96.113281 144.511719 95.203125 144.28125 94.410156 C 144.113281 93.832031 143.914062 93.308594 143.722656 92.878906 C 143.375 92.09375 143.027344 91.59375 142.847656 91.523438 C 142.378906 91.335938 124.621094 92.457031 124.621094 92.457031 C 124.621094 92.457031 124.734375 92.957031 124.847656 93.78125 C 124.902344 94.21875 124.960938 94.742188 125 95.335938 Z M 125 95.335938 " fill-opacity="1" fill-rule="evenodd"/><path fill="#3768bf" d="M 144.273438 94.410156 L 125 95.335938 C 124.960938 94.742188 124.902344 94.21875 124.847656 93.78125 L 143.714844 92.878906 C 143.90625 93.308594 144.105469 93.832031 144.273438 94.410156 Z M 124.882812 99.238281 L 144.476562 101.347656 C 144.382812 101.898438 144.273438 102.417969 144.171875 102.882812 L 124.609375 100.777344 C 124.722656 100.253906 124.820312 99.742188 124.882812 99.238281 Z M 125.046875 96.597656 C 130.019531 96.71875 141.527344 97 144.777344 97.078125 C 144.808594 97.4375 144.8125 97.804688 144.808594 98.175781 C 144.800781 98.324219 144.800781 98.480469 144.789062 98.636719 L 124.992188 98.152344 C 125.035156 97.617188 125.046875 97.089844 125.046875 96.597656 Z M 125.046875 96.597656 " fill-opacity="1" fill-rule="evenodd"/><g clip-path="url(#87a6bf86e3)"><path fill="#be947f" d="M 246.757812 66.714844 C 246.757812 66.714844 250.21875 67.082031 253.363281 68.910156 C 256.515625 70.730469 262.0625 72.691406 262.0625 72.691406 L 273.195312 74.8125 C 273.195312 74.8125 274.921875 79.285156 275.347656 82.609375 C 275.773438 85.941406 274.191406 88.324219 272.617188 90.113281 C 271.039062 91.90625 268.460938 92.253906 266.449219 93.1875 C 264.433594 94.125 263.121094 93.316406 260.84375 93.097656 C 258.566406 92.882812 251.121094 92.234375 249.882812 92.523438 C 248.640625 92.8125 246.5 94.84375 246.5 94.84375 C 246.5 94.84375 236.164062 73.410156 246.757812 66.714844 Z M 246.757812 66.714844 " fill-opacity="1" fill-rule="evenodd"/></g><path fill="#805f4d" d="M 252.488281 78.179688 C 252.34375 78.234375 252.1875 78.164062 252.140625 78.019531 C 252.085938 77.875 252.160156 77.71875 252.304688 77.671875 C 252.304688 77.671875 253.359375 77.277344 254.496094 77.058594 C 255.289062 76.90625 256.121094 76.839844 256.691406 77.019531 C 257.0625 77.132812 257.253906 77.300781 257.332031 77.484375 C 257.414062 77.671875 257.398438 77.910156 257.265625 78.230469 C 256.984375 78.90625 256.140625 80.085938 255.492188 82.335938 C 255.066406 83.808594 254.875 84.796875 254.855469 85.46875 C 254.84375 85.914062 254.90625 86.210938 255.03125 86.417969 C 255.148438 86.609375 255.324219 86.714844 255.515625 86.8125 C 255.613281 86.859375 255.703125 86.835938 255.792969 86.765625 C 255.894531 86.679688 255.988281 86.554688 256.089844 86.386719 C 256.527344 85.648438 256.941406 84.210938 257.390625 82.195312 C 257.421875 82.046875 257.570312 81.957031 257.714844 81.988281 C 257.859375 82.015625 257.957031 82.167969 257.925781 82.3125 C 257.378906 84.773438 256.851562 86.40625 256.308594 87.023438 C 255.976562 87.394531 255.636719 87.476562 255.28125 87.296875 C 254.988281 87.152344 254.742188 86.980469 254.570312 86.691406 C 254.402344 86.417969 254.300781 86.03125 254.316406 85.445312 C 254.335938 84.746094 254.527344 83.714844 254.976562 82.171875 C 255.636719 79.894531 256.488281 78.695312 256.773438 78.007812 C 256.804688 77.933594 256.828125 77.871094 256.839844 77.808594 C 256.851562 77.761719 256.859375 77.726562 256.847656 77.691406 C 256.835938 77.660156 256.796875 77.636719 256.757812 77.613281 C 256.703125 77.582031 256.628906 77.550781 256.539062 77.527344 C 256.042969 77.371094 255.3125 77.449219 254.617188 77.582031 C 253.503906 77.804688 252.488281 78.179688 252.488281 78.179688 Z M 252.488281 78.179688 " fill-opacity="1" fill-rule="evenodd"/><path fill="#f3ecea" d="M 259.296875 82.898438 C 258.160156 82.226562 257.734375 81.632812 257.734375 81.632812 L 259.371094 75.53125 L 271.394531 76.550781 C 271.394531 76.550781 272.257812 80.644531 272.136719 81.0625 C 272.09375 81.207031 271.753906 81.707031 271.203125 82.292969 C 270.835938 82.683594 270.375 83.109375 269.847656 83.492188 C 269.277344 83.910156 268.625 84.28125 267.929688 84.5 C 267.441406 84.652344 266.933594 84.730469 266.414062 84.703125 C 266.398438 84.703125 266.394531 84.703125 266.382812 84.703125 C 265.679688 84.667969 265.027344 84.601562 264.429688 84.515625 C 263.871094 84.4375 263.363281 84.34375 262.886719 84.234375 C 262.054688 84.050781 261.347656 83.820312 260.742188 83.582031 C 260.160156 83.367188 259.6875 83.125 259.296875 82.898438 Z M 259.296875 82.898438 " fill-opacity="1" fill-rule="evenodd"/><path fill="#3768bf" d="M 259.296875 82.898438 L 260.722656 76.671875 C 260.820312 76.25 261.238281 75.988281 261.660156 76.089844 C 262.078125 76.183594 262.34375 76.605469 262.246094 77.023438 L 260.738281 83.59375 C 260.160156 83.367188 259.6875 83.125 259.296875 82.898438 Z M 262.882812 84.242188 L 263.367188 77.570312 C 263.398438 77.175781 263.722656 76.863281 264.117188 76.851562 L 266.664062 76.761719 C 267.082031 76.75 267.441406 77.066406 267.46875 77.492188 L 267.921875 84.503906 C 267.4375 84.660156 266.929688 84.738281 266.40625 84.707031 C 266.394531 84.707031 266.386719 84.707031 266.375 84.707031 L 265.960938 78.347656 L 264.867188 78.386719 L 264.417969 84.523438 C 263.863281 84.445312 263.355469 84.347656 262.882812 84.242188 Z M 269.847656 83.492188 L 268.671875 77.472656 C 268.589844 77.054688 268.863281 76.640625 269.289062 76.5625 C 269.707031 76.480469 270.121094 76.753906 270.199219 77.179688 L 271.195312 82.292969 C 270.835938 82.683594 270.375 83.109375 269.847656 83.492188 Z M 269.847656 83.492188 " fill-opacity="1" fill-rule="evenodd"/><g clip-path="url(#aaa397543a)"><path fill="#f6a660" d="M 264.613281 79.0625 C 262.941406 78.929688 259.96875 78.347656 258.445312 75.628906 C 256.925781 72.90625 256.386719 71.136719 255.582031 67.285156 C 254.773438 63.429688 254.183594 62.09375 253.957031 61.25 C 253.730469 60.402344 253.238281 59.367188 255.011719 59.320312 C 256.785156 59.265625 257.972656 60.613281 258.519531 62.148438 C 259.070312 63.683594 259.328125 64.203125 260.136719 65.085938 C 260.136719 65.085938 260.046875 61.511719 259.945312 58.511719 C 259.84375 55.484375 259.765625 53.285156 259.777344 52.242188 C 259.789062 51.136719 259.847656 49.292969 261.328125 49.171875 C 262.804688 49.050781 263.234375 50.5625 263.566406 55.007812 C 263.894531 59.457031 264.03125 55.53125 264.117188 52.089844 C 264.199219 48.652344 264.613281 47.8125 265.824219 47.769531 C 267.023438 47.722656 267.648438 48.378906 267.59375 52.601562 C 267.539062 56.835938 268.179688 59.917969 268.4375 55.039062 C 268.695312 50.167969 269.207031 49.730469 270.464844 49.769531 C 271.722656 49.8125 271.902344 52.246094 271.847656 55.273438 C 271.792969 58.359375 271.96875 61.351562 272.304688 59.34375 C 272.640625 57.339844 272.597656 54.601562 273.945312 54.367188 C 275.296875 54.132812 275.570312 55.296875 275.515625 58.246094 C 275.460938 61.199219 275.535156 63.570312 275.332031 66.511719 C 275.128906 69.453125 274.953125 71.527344 273.484375 74.867188 C 272.152344 77.871094 268.960938 79.398438 264.613281 79.0625 Z M 264.613281 79.0625 " fill-opacity="1" fill-rule="evenodd"/></g><path fill="#d06b28" d="M 260.28125 65.527344 C 260.148438 65.449219 260.105469 65.28125 260.183594 65.15625 C 260.261719 65.023438 260.429688 64.984375 260.554688 65.0625 C 260.554688 65.0625 263.792969 66.980469 265.375 70.996094 C 265.429688 71.132812 265.363281 71.292969 265.21875 71.347656 C 265.082031 71.402344 264.917969 71.335938 264.867188 71.191406 C 263.363281 67.363281 260.28125 65.527344 260.28125 65.527344 Z M 272.328125 63.09375 C 272.554688 63.144531 272.789062 63.195312 273.015625 63.25 C 273.160156 63.285156 273.25 63.4375 273.214844 63.582031 C 273.179688 63.722656 273.03125 63.8125 272.886719 63.777344 C 268.125 62.617188 262.804688 62.808594 262.804688 62.808594 C 262.65625 62.8125 262.527344 62.695312 262.523438 62.542969 C 262.515625 62.394531 262.636719 62.269531 262.785156 62.261719 C 262.785156 62.261719 263.140625 62.25 263.746094 62.25 L 263.59375 56.925781 C 263.589844 56.777344 263.710938 56.652344 263.859375 56.644531 C 264.007812 56.640625 264.132812 56.761719 264.140625 56.910156 L 264.289062 62.257812 C 265.207031 62.269531 266.472656 62.308594 267.898438 62.441406 L 267.808594 57.480469 C 267.808594 57.328125 267.929688 57.203125 268.078125 57.203125 C 268.226562 57.203125 268.355469 57.324219 268.355469 57.472656 L 268.445312 62.5 C 269.511719 62.609375 270.648438 62.765625 271.78125 62.988281 L 271.820312 59.953125 C 271.820312 59.804688 271.945312 59.683594 272.09375 59.683594 C 272.242188 59.683594 272.363281 59.8125 272.363281 59.960938 L 272.328125 63.046875 C 272.335938 63.066406 272.335938 63.078125 272.328125 63.09375 Z M 272.328125 63.09375 " fill-opacity="1" fill-rule="evenodd"/><path fill="#74472c" d="M 191.601562 135.894531 C 191.601562 135.894531 190.660156 153.699219 190.148438 173.972656 C 189.640625 194.242188 189.464844 224.414062 189.976562 234.394531 C 190.484375 244.371094 191.167969 250.558594 190.5625 253.871094 C 189.957031 257.1875 190.441406 260.328125 190.6875 264.535156 C 190.933594 268.738281 189.707031 276.894531 189.746094 277.824219 C 189.789062 278.753906 191.742188 279.027344 195.6875 280.011719 C 199.632812 280.988281 201.320312 281.234375 204.679688 280.902344 C 208.035156 280.574219 212.558594 280.425781 212.691406 279.800781 C 212.824219 279.171875 212.21875 268.5625 212.792969 263.34375 C 213.367188 258.121094 212.859375 256.402344 212.816406 249.75 C 212.78125 243.097656 214.554688 220.175781 215.015625 212.898438 C 215.484375 205.628906 219.328125 168.132812 219.328125 168.132812 C 219.328125 168.132812 223.089844 208.394531 223.984375 224.175781 C 224.875 239.957031 225.816406 244.882812 225.289062 249.683594 C 224.757812 254.484375 225.152344 259.253906 225.636719 264.53125 C 226.121094 269.804688 225.351562 278.789062 225.667969 279.398438 C 225.980469 280.011719 230.125 280.203125 235.042969 280.515625 C 239.957031 280.820312 241.820312 279.953125 244.476562 279.179688 C 247.128906 278.40625 248.519531 278.53125 248.585938 278.105469 C 248.652344 277.671875 248.066406 270.195312 248.167969 266.285156 C 248.269531 262.382812 248.539062 261.121094 248.414062 255.898438 C 248.292969 250.683594 247.832031 250.636719 248.402344 240.113281 C 248.976562 229.585938 248.640625 204.183594 248.796875 188.746094 C 248.957031 173.300781 247.617188 135.949219 247.617188 135.949219 Z M 191.601562 135.894531 " fill-opacity="1" fill-rule="evenodd"/><path fill="#472c2c" d="M 234.945312 138.597656 C 231.78125 138.980469 228.144531 139.273438 224.1875 139.335938 C 223.792969 139.339844 223.390625 139.347656 222.988281 139.347656 C 219.722656 139.359375 216.675781 139.292969 213.84375 139.167969 C 210.148438 139 206.804688 138.710938 203.777344 138.332031 C 203.300781 138.273438 202.824219 138.214844 202.363281 138.148438 C 198.179688 137.566406 194.625 136.800781 191.601562 135.894531 C 191.601562 135.894531 191.472656 130.917969 191.433594 130.59375 C 191.390625 130.273438 247.574219 130.589844 247.574219 130.589844 L 247.644531 136.164062 C 247.644531 136.164062 243.300781 137.46875 236.367188 138.410156 C 235.910156 138.476562 235.429688 138.539062 234.945312 138.597656 Z M 234.945312 138.597656 " fill-opacity="1" fill-rule="evenodd"/><path fill="#472c2c" d="M 219.222656 162.207031 C 215.011719 161.570312 211.875 161.296875 211.875 161.296875 C 211.726562 161.28125 211.613281 161.152344 211.628906 161 C 211.640625 160.851562 211.773438 160.738281 211.925781 160.753906 C 211.925781 160.753906 215.003906 161.023438 219.160156 161.648438 C 219.160156 161.648438 219.160156 161.644531 219.160156 161.644531 C 219.160156 161.644531 219.207031 158.609375 219.253906 154.703125 C 217.953125 154.570312 216.570312 154.203125 215.617188 153.226562 C 214.976562 152.566406 214.519531 151.621094 214.429688 150.273438 C 214.21875 147.089844 213.894531 139.066406 213.894531 139.066406 C 213.890625 138.914062 214.003906 138.789062 214.160156 138.78125 C 214.308594 138.777344 214.433594 138.890625 214.441406 139.046875 C 214.441406 139.046875 214.757812 147.066406 214.976562 150.242188 C 215.054688 151.433594 215.441406 152.269531 216.011719 152.855469 C 216.863281 153.730469 218.105469 154.042969 219.265625 154.164062 C 219.320312 149.398438 219.375 143.523438 219.328125 140.246094 C 219.328125 140.09375 219.445312 139.96875 219.597656 139.96875 C 219.746094 139.96875 219.871094 140.089844 219.871094 140.238281 C 219.957031 146.390625 219.703125 161.660156 219.703125 161.660156 C 219.703125 161.691406 219.699219 161.714844 219.691406 161.738281 C 222.621094 162.1875 226.027344 162.804688 229.25 163.621094 C 229.394531 163.65625 229.484375 163.804688 229.449219 163.949219 C 229.414062 164.09375 229.265625 164.183594 229.121094 164.148438 C 225.96875 163.351562 222.632812 162.738281 219.75 162.296875 C 219.75 162.300781 219.75 162.300781 219.75 162.308594 L 219.679688 167.5625 C 219.679688 167.714844 219.558594 167.839844 219.410156 167.839844 C 219.261719 167.839844 219.132812 167.71875 219.132812 167.570312 L 219.207031 162.3125 C 219.207031 162.273438 219.21875 162.234375 219.222656 162.207031 Z M 219.222656 162.207031 " fill-opacity="1" fill-rule="evenodd"/><path fill="#74472c" d="M 234.945312 138.597656 C 234.945312 136.613281 234.953125 133.710938 235.011719 132.464844 C 235.109375 130.480469 236.527344 132.347656 236.527344 132.347656 C 236.527344 132.347656 236.457031 135.929688 236.367188 138.417969 C 235.910156 138.476562 235.429688 138.539062 234.945312 138.597656 Z M 203.785156 138.332031 C 203.304688 138.273438 202.832031 138.214844 202.371094 138.148438 C 202.28125 135.660156 202.203125 131.84375 202.203125 131.84375 C 202.203125 131.84375 203.621094 129.984375 203.71875 131.960938 C 203.777344 133.257812 203.785156 136.347656 203.785156 138.332031 Z M 203.785156 138.332031 " fill-opacity="1" fill-rule="evenodd"/><path fill="#eda418" d="M 224.1875 139.335938 C 224.332031 137.519531 224.5 134.714844 224.324219 132.875 C 224.054688 129.964844 213.78125 133.191406 213.78125 133.191406 C 213.78125 133.191406 213.679688 136.875 213.84375 139.167969 C 216.675781 139.296875 219.722656 139.359375 222.988281 139.347656 C 223.394531 139.347656 223.792969 139.339844 224.1875 139.335938 Z M 224.1875 139.335938 " fill-opacity="1" fill-rule="evenodd"/><path fill="#cae039" d="M 247.800781 117.003906 C 247.675781 114.105469 247.5625 111.273438 247.5625 109.054688 C 247.554688 104.050781 247.582031 99.164062 247.566406 96.253906 C 247.5625 95.113281 247.550781 94.273438 247.53125 93.847656 C 246.621094 75.898438 247.59375 70.492188 247.820312 67.925781 C 247.820312 67.925781 247.363281 67.769531 246.554688 67.507812 C 245.277344 67.09375 243.132812 66.402344 240.53125 65.617188 C 238.613281 65.042969 236.445312 64.414062 234.203125 63.800781 C 232.984375 63.472656 231.75 63.148438 230.515625 62.84375 L 208.585938 62.910156 C 208.585938 62.910156 206.636719 63.160156 204.15625 63.59375 C 202.148438 63.941406 199.785156 64.40625 197.820312 64.941406 C 197.082031 65.144531 196.402344 65.355469 195.820312 65.578125 C 193.476562 66.457031 192.042969 66.9375 191.214844 67.285156 C 190.605469 67.542969 190.324219 67.734375 190.246094 67.96875 C 190.070312 68.523438 191.359375 70.910156 191.4375 86.242188 C 191.457031 89.976562 190.878906 93.160156 190.839844 95.246094 C 190.820312 96.160156 190.800781 96.960938 190.789062 97.683594 C 190.730469 101.304688 190.753906 102.917969 190.738281 107.246094 C 190.710938 113.464844 191.253906 114.285156 191.113281 117.066406 C 191.089844 117.480469 191.058594 117.941406 191 118.46875 C 190.816406 120.261719 190.777344 122.78125 190.816406 125.09375 C 190.863281 128.023438 191.019531 130.621094 191.121094 130.972656 C 191.300781 131.597656 207.40625 134.144531 218.683594 133.964844 C 229.964844 133.785156 247.039062 132.527344 247.863281 130.941406 C 248.171875 130.335938 248.210938 128.023438 248.125 124.996094 C 248.054688 122.617188 247.921875 119.78125 247.800781 117.003906 Z M 247.800781 117.003906 " fill-opacity="1" fill-rule="evenodd"/><path fill="#3768bf" d="M 218.269531 119.746094 C 218.207031 103.480469 218.117188 80.921875 218.109375 80.542969 C 218.105469 80.136719 217.523438 79.464844 215.789062 77.585938 C 214.488281 76.179688 211.996094 73.015625 210.839844 71.527344 C 210.457031 71.035156 210.222656 70.730469 210.222656 70.730469 C 210.433594 68.585938 211.746094 67.355469 213.558594 66.714844 C 216.828125 65.558594 221.699219 66.289062 224.605469 66.914062 C 226.082031 67.230469 227.050781 67.519531 227.050781 67.519531 L 228.234375 71.097656 C 228.234375 71.097656 228.023438 71.324219 227.667969 71.714844 C 225.78125 73.78125 219.800781 80.367188 219.78125 80.78125 C 219.769531 81.09375 219.734375 103.46875 219.710938 119.746094 C 219.703125 122.808594 219.703125 125.664062 219.699219 128.109375 C 219.691406 130.503906 219.691406 132.511719 219.691406 133.957031 C 219.351562 133.964844 219.015625 133.96875 218.679688 133.976562 C 218.566406 133.976562 218.445312 133.980469 218.332031 133.980469 C 218.324219 132.578125 218.320312 130.558594 218.308594 128.113281 C 218.296875 125.679688 218.285156 122.828125 218.269531 119.746094 Z M 247.566406 96.253906 C 245.128906 86.578125 245.890625 74.433594 246.339844 69.574219 C 246.359375 69.414062 246.371094 69.257812 246.382812 69.105469 C 246.410156 68.777344 246.441406 68.488281 246.472656 68.253906 C 246.507812 67.890625 246.542969 67.636719 246.554688 67.511719 C 246.65625 67.546875 246.757812 67.578125 246.847656 67.609375 C 247.472656 67.8125 247.820312 67.933594 247.820312 67.933594 C 247.785156 68.308594 247.734375 68.746094 247.683594 69.28125 C 247.671875 69.425781 247.652344 69.566406 247.632812 69.722656 C 247.296875 72.949219 246.796875 79.246094 247.53125 93.855469 C 247.550781 94.273438 247.5625 95.113281 247.566406 96.253906 Z M 190.472656 69.699219 C 190.449219 69.539062 190.417969 69.386719 190.394531 69.25 C 190.257812 68.476562 190.179688 68.148438 190.234375 67.984375 C 190.304688 67.753906 190.585938 67.558594 191.203125 67.300781 C 191.210938 67.316406 191.210938 67.328125 191.210938 67.332031 C 191.28125 67.601562 191.355469 67.90625 191.417969 68.253906 C 191.472656 68.511719 191.527344 68.796875 191.582031 69.101562 C 191.605469 69.25 191.636719 69.40625 191.660156 69.5625 C 192.128906 72.480469 192.523438 76.976562 192.546875 81.878906 C 192.582031 90.492188 191.695312 94.269531 190.785156 97.703125 C 190.796875 96.984375 190.808594 96.179688 190.832031 95.261719 C 190.875 93.175781 191.449219 89.996094 191.433594 86.261719 C 191.378906 76.261719 190.816406 71.769531 190.472656 69.699219 Z M 190.472656 69.699219 " fill-opacity="1" fill-rule="evenodd"/><path fill="#f3ecea" d="M 204.148438 63.605469 C 203.234375 82.8125 204.3125 106.691406 204.1875 106.96875 C 204.054688 107.25 198.5625 107.058594 198.355469 106.789062 C 198.144531 106.511719 197.882812 92.074219 197.804688 82.980469 C 197.742188 76.101562 197.792969 68.328125 197.820312 64.953125 C 199.78125 64.417969 202.140625 63.957031 204.148438 63.605469 Z M 240.53125 65.625 C 240.5625 69.28125 240.597656 76.519531 240.542969 82.980469 C 240.464844 92.074219 240.203125 106.511719 239.992188 106.789062 C 239.78125 107.066406 234.285156 107.257812 234.160156 106.96875 C 234.035156 106.691406 235.101562 82.988281 234.203125 63.808594 C 236.445312 64.417969 238.613281 65.050781 240.53125 65.625 Z M 240.53125 65.625 " fill-opacity="1" fill-rule="evenodd"/><path fill="#3768bf" d="M 196.417969 93.613281 C 196.222656 93.902344 196.371094 97.898438 196.53125 98.050781 C 196.695312 98.199219 208.617188 98.433594 208.800781 98.164062 C 208.980469 97.886719 209.042969 93.804688 208.746094 93.625 C 208.460938 93.441406 196.617188 93.332031 196.417969 93.613281 Z M 196.417969 93.613281 " fill-opacity="1" fill-rule="evenodd"/><path fill="#3768bf" d="M 230.074219 85.914062 C 229.765625 86.164062 229.550781 98.488281 229.816406 98.738281 C 230.078125 98.992188 241.828125 98.824219 241.964844 98.523438 C 242.097656 98.222656 242.414062 86.457031 242.078125 86.152344 C 241.75 85.839844 230.378906 85.65625 230.074219 85.914062 Z M 230.074219 85.914062 " fill-opacity="1" fill-rule="evenodd"/><path fill="#3768bf" d="M 191.109375 117.085938 C 191.085938 117.5 191.054688 117.960938 190.996094 118.488281 C 190.808594 120.28125 190.773438 122.796875 190.808594 125.113281 C 204.570312 128.527344 219.082031 128.109375 219.082031 128.109375 C 219.082031 128.109375 219.882812 128.121094 220.644531 128.125 C 224.414062 128.144531 236.582031 127.945312 248.113281 125.019531 C 248.046875 122.628906 247.914062 119.796875 247.789062 117.015625 C 245.128906 117.632812 235.132812 119.707031 220.203125 119.757812 C 219.996094 119.757812 219.144531 119.757812 218.941406 119.757812 C 204.289062 119.746094 194.273438 117.792969 191.109375 117.085938 Z M 191.109375 117.085938 " fill-opacity="1" fill-rule="evenodd"/><path fill="#f3ecea" d="M 226.214844 128 C 225.800781 128.019531 225.402344 128.035156 225.019531 128.046875 L 221.394531 124.597656 C 221.25 124.464844 221.21875 124.25 221.316406 124.074219 L 223.761719 119.691406 C 224.097656 119.6875 224.433594 119.675781 224.757812 119.664062 L 222.222656 124.199219 Z M 230.3125 127.761719 C 229.917969 127.789062 229.535156 127.816406 229.148438 127.84375 L 225.632812 124.507812 C 225.488281 124.375 225.457031 124.160156 225.554688 123.984375 L 228.035156 119.523438 C 228.375 119.507812 228.710938 119.488281 229.046875 119.472656 L 226.464844 124.109375 Z M 234.742188 127.351562 C 234.363281 127.394531 233.988281 127.4375 233.613281 127.472656 L 230.097656 124.199219 C 229.953125 124.070312 229.917969 123.851562 230.011719 123.683594 L 232.433594 119.238281 C 232.78125 119.207031 233.125 119.175781 233.460938 119.148438 L 230.925781 123.804688 Z M 238.757812 126.84375 C 238.390625 126.898438 238.019531 126.945312 237.65625 127 L 234.386719 124.015625 C 234.246094 123.882812 234.207031 123.667969 234.296875 123.5 L 236.796875 118.804688 C 237.152344 118.765625 237.492188 118.722656 237.835938 118.6875 L 235.210938 123.613281 Z M 242.84375 126.167969 C 242.484375 126.230469 242.125 126.296875 241.773438 126.359375 L 238.570312 123.523438 C 238.421875 123.390625 238.386719 123.179688 238.476562 123.007812 L 240.910156 118.265625 C 241.269531 118.210938 241.617188 118.160156 241.953125 118.105469 L 239.394531 123.101562 Z M 247.101562 125.261719 C 246.757812 125.34375 246.417969 125.421875 246.074219 125.5 L 242.792969 122.59375 C 242.648438 122.460938 242.605469 122.253906 242.695312 122.078125 L 244.996094 117.589844 C 245.386719 117.515625 245.742188 117.445312 246.070312 117.378906 L 243.613281 122.175781 Z M 212.335938 128 L 216.328125 124.207031 L 213.792969 119.667969 C 214.125 119.679688 214.453125 119.6875 214.789062 119.699219 L 217.234375 124.082031 C 217.332031 124.25 217.300781 124.464844 217.15625 124.601562 L 213.53125 128.054688 C 213.148438 128.035156 212.746094 128.019531 212.335938 128 Z M 208.238281 127.761719 L 212.085938 124.109375 L 209.503906 119.472656 C 209.839844 119.488281 210.175781 119.507812 210.515625 119.523438 L 212.996094 123.984375 C 213.09375 124.152344 213.058594 124.367188 212.917969 124.507812 L 209.402344 127.84375 C 209.015625 127.816406 208.628906 127.789062 208.238281 127.761719 Z M 203.800781 127.351562 L 207.621094 123.796875 L 205.085938 119.140625 C 205.421875 119.171875 205.761719 119.203125 206.109375 119.230469 L 208.53125 123.679688 C 208.628906 123.851562 208.589844 124.0625 208.449219 124.195312 L 204.929688 127.46875 C 204.5625 127.4375 204.1875 127.394531 203.800781 127.351562 Z M 199.785156 126.84375 L 203.328125 123.605469 L 200.703125 118.679688 C 201.039062 118.722656 201.386719 118.765625 201.742188 118.800781 L 204.242188 123.492188 C 204.332031 123.667969 204.292969 123.875 204.148438 124.007812 L 200.882812 126.992188 C 200.523438 126.945312 200.160156 126.898438 199.785156 126.84375 Z M 195.707031 126.167969 L 199.164062 123.109375 L 196.605469 118.109375 C 196.941406 118.164062 197.289062 118.21875 197.648438 118.273438 L 200.082031 123.011719 C 200.171875 123.1875 200.128906 123.398438 199.984375 123.527344 L 196.785156 126.363281 C 196.417969 126.296875 196.066406 126.230469 195.707031 126.167969 Z M 191.445312 125.261719 L 194.9375 122.167969 L 192.480469 117.375 C 192.804688 117.441406 193.164062 117.511719 193.554688 117.582031 L 195.855469 122.074219 C 195.945312 122.246094 195.902344 122.460938 195.757812 122.589844 L 192.476562 125.496094 C 192.128906 125.421875 191.785156 125.34375 191.445312 125.261719 Z M 191.445312 125.261719 " fill-opacity="1" fill-rule="evenodd"/><path fill="#472c2c" d="M 194.925781 64.59375 C 193.503906 64.929688 192.191406 65.300781 191.199219 65.703125 C 190.648438 65.925781 188.621094 69.039062 188.6875 69.695312 C 188.753906 70.351562 205.1875 67.398438 205.28125 67.058594 C 205.386719 66.714844 205.234375 63.046875 204.949219 62.953125 C 204.816406 62.910156 202.835938 63.132812 200.332031 63.539062 C 200.117188 63.574219 199.894531 63.609375 199.667969 63.648438 C 199.085938 63.742188 198.488281 63.851562 197.882812 63.964844 C 197.660156 64.007812 197.429688 64.046875 197.210938 64.097656 C 196.675781 64.203125 196.148438 64.3125 195.621094 64.433594 C 195.394531 64.484375 195.160156 64.539062 194.925781 64.59375 Z M 194.925781 64.59375 " fill-opacity="1" fill-rule="evenodd"/><path fill="#472c2c" d="M 242.945312 64.59375 C 244.367188 64.929688 245.679688 65.300781 246.675781 65.703125 C 247.21875 65.925781 249.253906 69.039062 249.1875 69.695312 C 249.121094 70.351562 232.6875 67.398438 232.589844 67.058594 C 232.488281 66.714844 232.636719 63.046875 232.925781 62.953125 C 233.058594 62.910156 235.03125 63.132812 237.539062 63.539062 C 237.757812 63.574219 237.976562 63.609375 238.207031 63.648438 C 238.789062 63.742188 239.386719 63.851562 239.992188 63.964844 C 240.214844 64.007812 240.441406 64.046875 240.664062 64.097656 C 241.195312 64.203125 241.722656 64.3125 242.246094 64.433594 C 242.484375 64.484375 242.71875 64.539062 242.945312 64.59375 Z M 242.945312 64.59375 " fill-opacity="1" fill-rule="evenodd"/><path fill="#eda418" d="M 195.628906 64.433594 C 195.039062 66.320312 194.511719 68.339844 194.511719 68.339844 C 194.46875 68.507812 194.296875 68.601562 194.136719 68.5625 C 193.96875 68.519531 193.871094 68.34375 193.914062 68.183594 C 193.914062 68.183594 194.378906 66.386719 194.933594 64.59375 C 195.160156 64.539062 195.394531 64.484375 195.628906 64.433594 Z M 200.339844 63.53125 C 199.859375 65.640625 199.621094 67.445312 199.621094 67.445312 C 199.601562 67.578125 199.503906 67.679688 199.375 67.710938 L 196.8125 68.25 C 196.710938 68.273438 196.609375 68.242188 196.53125 68.171875 C 196.460938 68.101562 196.425781 67.996094 196.441406 67.894531 C 196.675781 66.453125 196.976562 65.101562 197.214844 64.097656 C 197.445312 64.054688 197.664062 64.007812 197.886719 63.964844 C 197.660156 64.882812 197.371094 66.15625 197.132812 67.546875 L 199.03125 67.148438 C 199.109375 66.625 199.324219 65.242188 199.679688 63.648438 C 199.902344 63.605469 200.121094 63.570312 200.339844 63.53125 Z M 200.339844 63.53125 " fill-opacity="1" fill-rule="evenodd"/><path fill="#eda418" d="M 242.246094 64.433594 C 242.832031 66.320312 243.359375 68.339844 243.359375 68.339844 C 243.402344 68.507812 243.578125 68.601562 243.738281 68.5625 C 243.90625 68.519531 244.003906 68.34375 243.960938 68.183594 C 243.960938 68.183594 243.492188 66.386719 242.941406 64.59375 C 242.71875 64.539062 242.484375 64.484375 242.246094 64.433594 Z M 237.539062 63.53125 C 238.019531 65.640625 238.261719 67.445312 238.261719 67.445312 C 238.277344 67.578125 238.375 67.679688 238.507812 67.710938 L 241.066406 68.25 C 241.167969 68.273438 241.269531 68.242188 241.347656 68.171875 C 241.417969 68.101562 241.453125 67.996094 241.4375 67.894531 C 241.203125 66.453125 240.902344 65.101562 240.664062 64.097656 C 240.4375 64.054688 240.214844 64.007812 239.992188 63.964844 C 240.21875 64.882812 240.507812 66.15625 240.753906 67.546875 L 238.855469 67.148438 C 238.777344 66.625 238.558594 65.242188 238.207031 63.648438 C 237.976562 63.605469 237.757812 63.570312 237.539062 63.53125 Z M 237.539062 63.53125 " fill-opacity="1" fill-rule="evenodd"/><path fill="#c54530" d="M 191.132812 65.984375 C 191.277344 65.796875 191.546875 65.761719 191.730469 65.90625 C 191.917969 66.050781 191.953125 66.320312 191.808594 66.503906 C 191.808594 66.503906 191.070312 67.457031 190.550781 68.371094 C 192.5 68.117188 197.832031 67.378906 204.527344 65.964844 C 204.761719 65.917969 204.988281 66.066406 205.039062 66.296875 C 205.085938 66.53125 204.933594 66.757812 204.707031 66.804688 C 196.183594 68.601562 189.847656 69.316406 189.847656 69.316406 C 189.699219 69.335938 189.550781 69.269531 189.460938 69.148438 C 189.371094 69.027344 189.351562 68.867188 189.40625 68.722656 C 189.878906 67.625 191.132812 65.984375 191.132812 65.984375 Z M 191.132812 65.984375 " fill-opacity="1" fill-rule="evenodd"/><path fill="#c54530" d="M 246.746094 65.984375 C 246.601562 65.796875 246.332031 65.761719 246.148438 65.90625 C 245.960938 66.050781 245.925781 66.320312 246.070312 66.503906 C 246.070312 66.503906 246.808594 67.457031 247.328125 68.371094 C 245.378906 68.117188 240.046875 67.378906 233.351562 65.964844 C 233.117188 65.917969 232.890625 66.066406 232.84375 66.296875 C 232.792969 66.53125 232.945312 66.757812 233.171875 66.804688 C 241.695312 68.601562 248.023438 69.316406 248.023438 69.316406 C 248.171875 69.335938 248.324219 69.269531 248.414062 69.148438 C 248.503906 69.027344 248.519531 68.867188 248.460938 68.722656 C 248 67.625 246.746094 65.984375 246.746094 65.984375 Z M 246.746094 65.984375 " fill-opacity="1" fill-rule="evenodd"/><path fill="#be947f" d="M 219.082031 59.902344 L 225.972656 59.636719 C 225.972656 59.636719 227.707031 59.796875 228.347656 60.476562 C 228.988281 61.152344 230.847656 62.640625 230.964844 63.160156 C 231.089844 63.683594 231.019531 73.351562 230.796875 73.703125 C 230.578125 74.058594 228.316406 72.195312 226.375 70.742188 C 226.375 70.742188 221.957031 76.058594 219.3125 79.019531 C 219.261719 79.082031 219.1875 79.117188 219.105469 79.117188 C 219.027344 79.117188 218.949219 79.082031 218.894531 79.019531 C 216.257812 76.058594 211.882812 70.742188 211.882812 70.742188 C 209.945312 72.195312 207.6875 74.0625 207.457031 73.703125 C 207.230469 73.351562 207.164062 63.683594 207.289062 63.160156 C 207.417969 62.640625 209.269531 61.160156 209.910156 60.476562 C 210.550781 59.796875 212.285156 59.636719 212.285156 59.636719 Z M 219.082031 59.902344 " fill-opacity="1" fill-rule="evenodd"/><path fill="#805f4d" d="M 224.941406 70.15625 C 224.886719 70.179688 224.734375 70.246094 224.605469 70.324219 C 223.636719 70.894531 221.664062 72.425781 221.664062 72.425781 C 221.542969 72.515625 221.375 72.5 221.28125 72.378906 C 221.191406 72.257812 221.207031 72.089844 221.328125 71.996094 C 221.328125 71.996094 223.34375 70.4375 224.332031 69.855469 C 224.527344 69.742188 224.691406 69.664062 224.796875 69.628906 C 224.898438 69.597656 224.976562 69.597656 225.03125 69.617188 C 225.429688 69.710938 226.148438 70.289062 226.148438 70.289062 C 226.261719 70.382812 226.277344 70.558594 226.183594 70.671875 C 226.085938 70.785156 225.914062 70.804688 225.800781 70.707031 C 225.792969 70.699219 225.265625 70.257812 224.941406 70.15625 Z M 213.230469 70.15625 C 212.90625 70.257812 212.378906 70.699219 212.378906 70.699219 C 212.265625 70.796875 212.09375 70.777344 211.996094 70.664062 C 211.898438 70.550781 211.917969 70.378906 212.03125 70.28125 C 212.03125 70.28125 212.75 69.707031 213.148438 69.609375 C 213.199219 69.597656 213.277344 69.59375 213.378906 69.621094 C 213.488281 69.652344 213.648438 69.730469 213.847656 69.851562 C 214.835938 70.429688 216.851562 71.988281 216.851562 71.988281 C 216.972656 72.078125 216.988281 72.253906 216.898438 72.375 C 216.808594 72.492188 216.636719 72.515625 216.515625 72.421875 C 216.515625 72.421875 214.542969 70.886719 213.574219 70.316406 C 213.441406 70.246094 213.285156 70.179688 213.230469 70.15625 Z M 213.230469 70.15625 " fill-opacity="1" fill-rule="evenodd"/><path fill="#f6a660" d="M 211.410156 54.390625 L 226.867188 54.390625 C 226.867188 54.390625 226.675781 58.136719 226.824219 60.003906 C 226.972656 61.867188 227.023438 61.957031 226.289062 63.808594 C 225.289062 66.34375 220.890625 72.804688 219.175781 72.804688 C 217.457031 72.804688 212.992188 66.34375 211.988281 63.808594 C 211.257812 61.957031 211.308594 61.867188 211.457031 60.003906 C 211.601562 58.136719 211.410156 54.390625 211.410156 54.390625 Z M 211.410156 54.390625 " fill-opacity="1" fill-rule="evenodd"/><path fill="#472c2c" d="M 201.675781 21.941406 C 201.675781 21.941406 201.003906 30.238281 201.589844 35.519531 C 202.171875 40.796875 206.824219 35.691406 206.824219 35.691406 C 206.835938 28.042969 208.152344 25.808594 207.046875 21.503906 Z M 201.675781 21.941406 " fill-opacity="1" fill-rule="evenodd"/><path fill="#472c2c" d="M 236.636719 21.941406 C 236.636719 21.941406 237.308594 30.238281 236.71875 35.519531 C 236.136719 40.796875 229.816406 34.117188 229.816406 34.117188 L 231.265625 21.511719 Z M 236.636719 21.941406 " fill-opacity="1" fill-rule="evenodd"/><path fill="#f6a660" d="M 218.816406 24.554688 L 229.785156 24.730469 C 229.785156 24.730469 233.421875 28.882812 233.789062 30.214844 C 234.035156 31.113281 234.046875 32.480469 234.183594 34.332031 C 234.183594 34.332031 235.597656 33.214844 236.808594 34.648438 C 237.886719 35.917969 237.308594 39.265625 236.484375 40.660156 C 235.660156 42.058594 234.695312 42.441406 233.910156 41.960938 C 233.910156 41.960938 233.703125 46.523438 233.273438 48.253906 C 232.816406 50.078125 230.652344 52.265625 228.058594 54.027344 C 225.464844 55.789062 222.730469 57.519531 219.160156 57.519531 C 215.59375 57.519531 212.871094 55.78125 210.277344 54.027344 C 207.679688 52.265625 205.511719 50.082031 205.0625 48.253906 C 204.628906 46.523438 204.425781 41.960938 204.425781 41.960938 C 203.640625 42.441406 202.675781 42.058594 201.847656 40.660156 C 201.023438 39.265625 200.445312 35.921875 201.523438 34.648438 C 202.734375 33.222656 204.148438 34.332031 204.148438 34.332031 C 204.289062 32.480469 204.300781 31.117188 204.546875 30.214844 C 204.910156 28.890625 208.550781 24.730469 208.550781 24.730469 Z M 218.816406 24.554688 " fill-opacity="1" fill-rule="evenodd"/><path fill="#d06b28" d="M 226.195312 54.90625 C 226.320312 54.828125 226.488281 54.867188 226.574219 54.996094 C 226.652344 55.125 226.613281 55.292969 226.484375 55.375 C 224.332031 56.710938 222 57.789062 219.152344 57.789062 C 216.304688 57.789062 213.984375 56.710938 211.847656 55.382812 C 211.71875 55.304688 211.679688 55.136719 211.757812 55.003906 C 211.835938 54.878906 212.003906 54.835938 212.132812 54.914062 C 214.191406 56.191406 216.417969 57.238281 219.152344 57.238281 C 221.890625 57.246094 224.128906 56.191406 226.195312 54.90625 Z M 226.195312 54.90625 " fill-opacity="1" fill-rule="evenodd"/><path fill="#d06b28" d="M 234.476562 34.769531 C 234.476562 34.769531 234.347656 39.074219 234.214844 41.5 C 234.207031 41.648438 234.078125 41.765625 233.925781 41.757812 C 233.777344 41.75 233.664062 41.621094 233.667969 41.46875 C 233.800781 39.042969 233.933594 34.75 233.933594 34.75 C 233.9375 34.601562 234.066406 34.480469 234.214844 34.488281 C 234.363281 34.492188 234.484375 34.621094 234.476562 34.769531 Z M 203.839844 34.769531 C 203.832031 34.621094 203.953125 34.492188 204.101562 34.488281 C 204.253906 34.480469 204.378906 34.601562 204.382812 34.75 C 204.382812 34.75 204.515625 39.042969 204.648438 41.46875 C 204.652344 41.621094 204.539062 41.75 204.390625 41.757812 C 204.242188 41.765625 204.109375 41.648438 204.101562 41.5 C 203.964844 39.066406 203.839844 34.769531 203.839844 34.769531 Z M 203.839844 34.769531 " fill-opacity="1" fill-rule="evenodd"/><path fill="#472c2c" d="M 218.613281 35.296875 C 218.605469 35.148438 218.726562 35.019531 218.875 35.015625 C 219.027344 35.007812 219.152344 35.128906 219.160156 35.277344 C 219.160156 35.277344 218.949219 37.964844 218.453125 39.390625 C 218.207031 40.089844 217.929688 40.636719 217.730469 41.128906 C 217.558594 41.566406 217.445312 41.949219 217.515625 42.375 C 217.5625 42.664062 217.832031 42.832031 218.152344 42.945312 C 218.746094 43.160156 219.535156 43.171875 220.023438 43.128906 C 220.171875 43.117188 220.304688 43.226562 220.320312 43.375 C 220.332031 43.527344 220.226562 43.65625 220.074219 43.675781 C 219.53125 43.730469 218.632812 43.707031 217.964844 43.460938 C 217.445312 43.269531 217.0625 42.945312 216.984375 42.472656 C 216.894531 41.945312 217.011719 41.464844 217.226562 40.929688 C 217.421875 40.445312 217.695312 39.90625 217.9375 39.214844 C 218.410156 37.851562 218.613281 35.296875 218.613281 35.296875 Z M 218.613281 35.296875 " fill-opacity="1" fill-rule="evenodd"/><path fill="#472c2c" d="M 229.683594 30.820312 C 229.460938 30.269531 228.640625 30.027344 227.394531 30.183594 C 225.90625 30.371094 224.816406 31.15625 224.367188 31.628906 C 223.984375 32.035156 224.265625 32.339844 225.003906 32.035156 C 225.800781 31.707031 226.296875 31.25 228.394531 31.214844 C 229.324219 31.195312 229.851562 31.238281 229.683594 30.820312 Z M 229.683594 30.820312 " fill-opacity="1" fill-rule="evenodd"/><path fill="#472c2c" d="M 208.628906 30.820312 C 208.847656 30.269531 209.671875 30.027344 210.917969 30.183594 C 212.402344 30.371094 213.496094 31.15625 213.945312 31.628906 C 214.328125 32.035156 214.046875 32.339844 213.308594 32.035156 C 212.515625 31.707031 212.015625 31.25 209.917969 31.214844 C 208.988281 31.195312 208.464844 31.238281 208.628906 30.820312 Z M 208.628906 30.820312 " fill-opacity="1" fill-rule="evenodd"/><path fill="#472c2c" d="M 210.222656 33.617188 C 210.46875 33.089844 210.929688 32.730469 211.449219 32.730469 C 212.234375 32.730469 212.871094 33.523438 212.871094 34.5 C 212.871094 35.476562 212.234375 36.265625 211.449219 36.265625 C 210.664062 36.265625 210.03125 35.476562 210.03125 34.5 C 210.03125 34.386719 210.035156 34.273438 210.054688 34.164062 C 210.097656 34.167969 210.136719 34.167969 210.179688 34.167969 C 210.535156 34.167969 210.820312 34.042969 210.820312 33.894531 C 210.820312 33.746094 210.558594 33.625 210.222656 33.617188 Z M 210.222656 33.617188 " fill-opacity="1" fill-rule="evenodd"/><path fill="#472c2c" d="M 225.632812 33.617188 C 225.878906 33.089844 226.332031 32.730469 226.859375 32.730469 C 227.644531 32.730469 228.28125 33.523438 228.28125 34.5 C 228.28125 35.476562 227.644531 36.265625 226.859375 36.265625 C 226.074219 36.265625 225.441406 35.476562 225.441406 34.5 C 225.441406 34.386719 225.445312 34.273438 225.464844 34.164062 C 225.503906 34.167969 225.546875 34.167969 225.589844 34.167969 C 225.941406 34.167969 226.230469 34.042969 226.230469 33.894531 C 226.230469 33.746094 225.96875 33.625 225.632812 33.617188 Z M 225.632812 33.617188 " fill-opacity="1" fill-rule="evenodd"/><path fill="#472c2c" d="M 201.597656 22.03125 C 205.835938 15.351562 232.636719 15.351562 236.875 22.03125 C 236.875 22.03125 231.59375 29.789062 219.238281 29.789062 C 206.878906 29.789062 201.597656 22.03125 201.597656 22.03125 Z M 201.597656 22.03125 " fill-opacity="1" fill-rule="evenodd"/><path fill="#c54530" d="M 206.648438 26.148438 C 206.777344 26.226562 206.816406 26.394531 206.738281 26.527344 C 206.660156 26.652344 206.492188 26.695312 206.363281 26.617188 C 204 25.160156 202.527344 23.609375 201.835938 22.792969 C 201.742188 22.679688 201.753906 22.507812 201.871094 22.410156 C 201.988281 22.3125 202.160156 22.328125 202.257812 22.445312 C 202.921875 23.230469 204.359375 24.730469 206.648438 26.148438 Z M 236.089844 22.585938 C 236.1875 22.46875 236.359375 22.457031 236.472656 22.554688 C 236.589844 22.65625 236.601562 22.824219 236.503906 22.9375 C 235.765625 23.789062 234.316406 25.25 232.074219 26.628906 C 231.949219 26.707031 231.78125 26.664062 231.695312 26.539062 C 231.621094 26.414062 231.660156 26.246094 231.785156 26.164062 C 233.960938 24.832031 235.371094 23.410156 236.089844 22.585938 Z M 236.089844 22.585938 " fill-opacity="1" fill-rule="evenodd"/><path fill="#f3ecea" d="M 219.238281 18.742188 C 219.238281 18.742188 208.8125 18.261719 201.597656 22.039062 L 201.128906 20.773438 C 201.128906 20.773438 197.917969 18.898438 197.996094 15.074219 C 198.078125 11.257812 203.550781 6.90625 209.246094 3.523438 C 214.421875 0.449219 218.167969 0 219.238281 0 C 220.304688 0 224.050781 0.449219 229.226562 3.523438 C 234.921875 6.90625 240.394531 11.257812 240.476562 15.074219 C 240.5625 18.890625 237.347656 20.773438 237.347656 20.773438 L 236.882812 22.039062 C 229.660156 18.261719 219.238281 18.742188 219.238281 18.742188 Z M 219.238281 18.742188 " fill-opacity="1" fill-rule="evenodd"/><path fill="#c54530" d="M 219.238281 18.742188 C 219.238281 18.742188 208.5 18.449219 201.597656 22.039062 L 201.128906 20.773438 C 201.128906 20.773438 206.800781 15.984375 219.242188 15.984375 C 232.0625 15.984375 237.355469 20.773438 237.355469 20.773438 L 236.886719 22.039062 C 229.792969 18.472656 219.238281 18.742188 219.238281 18.742188 Z M 219.238281 18.742188 " fill-opacity="1" fill-rule="evenodd"/><path fill="#472c2c" d="M 219.105469 15.957031 C 219.105469 15.957031 217.640625 16.546875 217.113281 16.554688 C 216.585938 16.566406 216.304688 15.609375 216.304688 15.609375 C 216.304688 15.609375 213.429688 13.855469 213.363281 11.566406 C 213.296875 9.378906 217.648438 4.265625 219.171875 4.351562 C 220.6875 4.265625 225.039062 9.378906 224.976562 11.566406 C 224.914062 13.855469 222.035156 15.609375 222.035156 15.609375 C 222.035156 15.609375 221.757812 16.566406 221.226562 16.554688 C 220.699219 16.546875 219.105469 15.957031 219.105469 15.957031 Z M 219.105469 15.957031 " fill-opacity="1" fill-rule="evenodd"/><path fill="#eda418" d="M 220.410156 7.871094 C 220.621094 7.871094 220.792969 8.042969 220.792969 8.253906 C 220.792969 8.464844 220.625 8.636719 220.410156 8.636719 C 220.203125 8.636719 220.027344 8.464844 220.027344 8.253906 C 220.027344 8.042969 220.203125 7.871094 220.410156 7.871094 Z M 217.941406 7.871094 C 218.152344 7.871094 218.324219 8.042969 218.324219 8.253906 C 218.324219 8.464844 218.15625 8.636719 217.941406 8.636719 C 217.730469 8.636719 217.558594 8.464844 217.558594 8.253906 C 217.5625 8.042969 217.730469 7.871094 217.941406 7.871094 Z M 219.175781 6.785156 C 219.476562 6.785156 219.722656 7.03125 219.722656 7.324219 C 219.722656 7.625 219.476562 7.871094 219.175781 7.871094 C 218.875 7.871094 218.636719 7.625 218.636719 7.324219 C 218.636719 7.03125 218.875 6.785156 219.175781 6.785156 Z M 219.175781 12.839844 C 218.925781 12.839844 218.644531 12.707031 218.242188 12.40625 C 217.828125 12.101562 217.492188 11.632812 217.539062 10.992188 C 217.570312 10.511719 217.648438 10.015625 217.984375 9.601562 C 218.457031 9.015625 219.03125 8.589844 219.03125 8.589844 C 219.117188 8.523438 219.238281 8.523438 219.320312 8.589844 C 219.320312 8.589844 219.902344 9.015625 220.386719 9.601562 C 220.730469 10.015625 220.914062 10.511719 220.945312 11 C 220.988281 11.640625 220.652344 12.105469 220.226562 12.414062 C 219.816406 12.699219 219.433594 12.839844 219.175781 12.839844 Z M 219.703125 13.335938 C 222.527344 12.59375 221.699219 9.363281 221.699219 9.363281 C 221.683594 9.300781 221.710938 9.234375 221.765625 9.207031 C 221.820312 9.175781 221.890625 9.1875 221.933594 9.230469 C 223.203125 10.566406 223.3125 11.585938 223.019531 12.324219 C 222.632812 13.277344 221.53125 13.765625 221.238281 13.882812 C 221.15625 14.175781 220.9375 14.648438 220.746094 14.925781 C 220.675781 15.027344 220.601562 15.105469 220.550781 15.144531 C 220.5 15.175781 220.460938 15.195312 220.421875 15.195312 C 220.382812 15.199219 220.339844 15.1875 220.292969 15.152344 C 220.25 15.121094 220.195312 15.054688 220.148438 14.960938 C 219.917969 14.550781 219.601562 13.503906 219.601562 13.503906 C 219.589844 13.46875 219.597656 13.433594 219.613281 13.394531 C 219.632812 13.371094 219.667969 13.347656 219.703125 13.335938 Z M 218.871094 13.507812 C 218.871094 13.507812 218.554688 14.550781 218.324219 14.964844 C 218.269531 15.0625 218.222656 15.121094 218.179688 15.15625 C 218.132812 15.195312 218.089844 15.199219 218.050781 15.199219 C 218.011719 15.199219 217.964844 15.183594 217.921875 15.152344 C 217.863281 15.109375 217.796875 15.03125 217.726562 14.929688 C 217.535156 14.65625 217.320312 14.179688 217.234375 13.886719 C 216.941406 13.773438 215.839844 13.28125 215.453125 12.328125 C 215.160156 11.589844 215.273438 10.574219 216.539062 9.234375 C 216.582031 9.1875 216.652344 9.183594 216.707031 9.210938 C 216.761719 9.242188 216.789062 9.308594 216.773438 9.367188 C 216.773438 9.367188 215.945312 12.597656 218.769531 13.34375 C 218.804688 13.355469 218.835938 13.378906 218.851562 13.40625 C 218.875 13.4375 218.875 13.472656 218.871094 13.507812 Z M 218.871094 13.507812 " fill-opacity="1" fill-rule="evenodd"/><path fill="#472c2c" d="M 241.390625 128.796875 C 240.4375 129.386719 240.394531 132.160156 240.542969 137.738281 C 240.6875 143.324219 240.140625 147.550781 241.371094 148.503906 C 242.597656 149.457031 248.828125 148.953125 249.539062 148.121094 C 250.253906 147.28125 249.929688 140.53125 249.570312 138.171875 C 249.570312 138.171875 250.480469 137.800781 250.582031 136.085938 C 250.683594 134.371094 250.761719 129.746094 250.132812 128.90625 C 249.683594 128.316406 243.308594 127.617188 241.390625 128.796875 Z M 241.390625 128.796875 " fill-opacity="1" fill-rule="evenodd"/><path fill="#eda418" d="M 246.566406 133.113281 C 247.105469 133.113281 247.542969 133.550781 247.542969 134.089844 C 247.542969 134.628906 247.105469 135.066406 246.566406 135.066406 C 246.027344 135.066406 245.589844 134.628906 245.589844 134.089844 C 245.589844 133.550781 246.027344 133.113281 246.566406 133.113281 Z M 246.566406 133.113281 " fill-opacity="1" fill-rule="evenodd"/><path fill="#c54530" d="M 240.226562 133.046875 C 240.226562 132.898438 240.347656 132.769531 240.496094 132.769531 C 240.644531 132.769531 240.773438 132.890625 240.773438 133.039062 C 240.773438 133.039062 240.824219 136.390625 240.808594 137.195312 C 240.800781 137.34375 240.675781 137.464844 240.527344 137.457031 C 240.375 137.453125 240.257812 137.328125 240.261719 137.175781 C 240.28125 136.378906 240.226562 133.046875 240.226562 133.046875 Z M 243.605469 138.410156 C 243.457031 138.398438 243.34375 138.273438 243.355469 138.125 C 243.367188 137.972656 243.5 137.859375 243.640625 137.871094 C 243.640625 137.871094 246.867188 138.09375 249.246094 137.769531 C 249.394531 137.753906 249.535156 137.855469 249.550781 138.003906 C 249.570312 138.152344 249.46875 138.292969 249.320312 138.308594 C 246.898438 138.640625 243.605469 138.410156 243.605469 138.410156 Z M 243.605469 138.410156 " fill-opacity="1" fill-rule="evenodd"/><path fill="#472c2c" d="M 215.664062 48.804688 C 215.515625 48.835938 215.371094 48.746094 215.339844 48.601562 C 215.308594 48.457031 215.402344 48.308594 215.542969 48.277344 C 215.542969 48.277344 218.972656 47.511719 222.335938 48.445312 C 222.480469 48.488281 222.5625 48.636719 222.527344 48.78125 C 222.484375 48.925781 222.335938 49.011719 222.191406 48.972656 C 218.960938 48.070312 215.664062 48.804688 215.664062 48.804688 Z M 215.664062 48.804688 " fill-opacity="1" fill-rule="evenodd"/></svg>